<?xml version="1.0"?>
<svg height="254" width="253"  >
 <g style="fill-opacity:1.0; stroke:black;
  stroke-width:1;" transform=" translate( 126.75,127.25 ) scale( 0.15,0.15 )">
  <g transform="translate(-530,-170) rotate(0)" > <text font-size="100.0" fill="#088" font-family="monospace"  >
   U
  </text> </g> 
  <g transform="translate(-840,230) rotate(0)" > <text font-size="100.0" fill="#088" font-family="monospace"  >
   LNK403LG
  </text> </g> 
  <rect x="-350" y="-250" height="500"
    width="700" style="fill:none;stroke:#800;stroke-width:10" />
  <rect x="-50" y="-100" height="200"
    width="250" style="fill:none;stroke:#800;stroke-width:10" />
  <line x1="-200" y1="-100" x2="-200" y2="100" style="stroke:#800;stroke-width:10;stroke-opacity:1.000000;stroke-linecap:round"/>
  <line x1="-200" y1="100" x2="-200" y2="50" style="stroke:#800;stroke-width:10;stroke-opacity:1.000000;stroke-linecap:round"/>
  <line x1="-150" y1="0" x2="-50" y2="0" style="stroke:#800;stroke-width:10;stroke-opacity:1.000000;stroke-linecap:round"/>
  <line x1="-50" y1="0" x2="-50" y2="0" style="stroke:#800;stroke-width:10;stroke-opacity:1.000000;stroke-linecap:round"/>
  <line x1="-150" y1="-100" x2="-150" y2="100" style="stroke:#800;stroke-width:10;stroke-opacity:1.000000;stroke-linecap:round"/>
  <line x1="-150" y1="100" x2="-150" y2="50" style="stroke:#800;stroke-width:10;stroke-opacity:1.000000;stroke-linecap:round"/>
  <line x1="0" y1="100" x2="0" y2="150" style="stroke:#800;stroke-width:10;stroke-opacity:1.000000;stroke-linecap:round"/>
  <line x1="0" y1="150" x2="0" y2="150" style="stroke:#800;stroke-width:10;stroke-opacity:1.000000;stroke-linecap:round"/>
  <line x1="150" y1="-100" x2="150" y2="-150" style="stroke:#800;stroke-width:10;stroke-opacity:1.000000;stroke-linecap:round"/>
  <line x1="150" y1="-150" x2="150" y2="-150" style="stroke:#800;stroke-width:10;stroke-opacity:1.000000;stroke-linecap:round"/>
  <line x1="-250" y1="150" x2="-250" y2="50" style="stroke:#800;stroke-width:10;stroke-opacity:1.000000;stroke-linecap:round"/>
  <line x1="-250" y1="50" x2="-200" y2="50" style="stroke:#800;stroke-width:10;stroke-opacity:1.000000;stroke-linecap:round"/>
  <line x1="-200" y1="50" x2="-200" y2="50" style="stroke:#800;stroke-width:10;stroke-opacity:1.000000;stroke-linecap:round"/>
  <line x1="-250" y1="-150" x2="-250" y2="-50" style="stroke:#800;stroke-width:10;stroke-opacity:1.000000;stroke-linecap:round"/>
  <line x1="-250" y1="-50" x2="-200" y2="-50" style="stroke:#800;stroke-width:10;stroke-opacity:1.000000;stroke-linecap:round"/>
  <line x1="-200" y1="-50" x2="-200" y2="-50" style="stroke:#800;stroke-width:10;stroke-opacity:1.000000;stroke-linecap:round"/>
  <line x1="150" y1="100" x2="150" y2="150" style="stroke:#800;stroke-width:10;stroke-opacity:1.000000;stroke-linecap:round"/>
  <line x1="150" y1="150" x2="200" y2="150" style="stroke:#800;stroke-width:10;stroke-opacity:1.000000;stroke-linecap:round"/>
  <line x1="200" y1="150" x2="200" y2="150" style="stroke:#800;stroke-width:10;stroke-opacity:1.000000;stroke-linecap:round"/>
  <line x1="0" y1="450" x2="0" y2="250" style="stroke:#800;stroke-width:10;stroke-opacity:1.000000;stroke-linecap:round"/>
  <g transform="translate(-12,362) rotate(-90)" > <text font-size="83.3333333333" fill="#800" font-family="monospace"  >
   1
  </text> </g> 
  <g transform="translate(6,208) rotate(-90)" > <text font-size="83.3333333333" fill="#088" font-family="monospace"  >
   R
  </text> </g> 
  <circle cx="0" cy="450" r="10"
    style="fill:none;stroke:#800;stroke-width:2"  />
  <line x1="150" y1="-450" x2="150" y2="-250" style="stroke:#800;stroke-width:10;stroke-opacity:1.000000;stroke-linecap:round"/>
  <g transform="translate(137,-337) rotate(-90)" > <text font-size="83.3333333333" fill="#800" font-family="monospace"  >
   2
  </text> </g> 
  <g transform="translate(156,-158) rotate(-90)" > <text font-size="83.3333333333" fill="#088" font-family="monospace"  >
   V
  </text> </g> 
  <circle cx="150" cy="-450" r="10"
    style="fill:none;stroke:#800;stroke-width:2"  />
  <line x1="250" y1="450" x2="250" y2="250" style="stroke:#800;stroke-width:10;stroke-opacity:1.000000;stroke-linecap:round"/>
  <g transform="translate(237,362) rotate(-90)" > <text font-size="83.3333333333" fill="#800" font-family="monospace"  >
   3
  </text> </g> 
  <g transform="translate(256,208) rotate(-90)" > <text font-size="83.3333333333" fill="#088" font-family="monospace"  >
   FB
  </text> </g> 
  <circle cx="250" cy="450" r="10"
    style="fill:none;stroke:#800;stroke-width:2"  />
  <line x1="550" y1="0" x2="350" y2="0" style="stroke:#800;stroke-width:10;stroke-opacity:1.000000;stroke-linecap:round"/>
  <g transform="translate(414,-6) rotate(0)" > <text font-size="83.3333333333" fill="#800" font-family="monospace"  >
   4
  </text> </g> 
  <g transform="translate(210,35) rotate(0)" > <text font-size="83.3333333333" fill="#088" font-family="monospace"  >
   BP
  </text> </g> 
  <circle cx="550" cy="0" r="10"
    style="fill:none;stroke:#800;stroke-width:2"  />
  <line x1="-250" y1="450" x2="-250" y2="250" style="stroke:#800;stroke-width:10;stroke-opacity:1.000000;stroke-linecap:round"/>
  <g transform="translate(-262,362) rotate(-90)" > <text font-size="83.3333333333" fill="#800" font-family="monospace"  >
   5
  </text> </g> 
  <g transform="translate(-243,208) rotate(-90)" > <text font-size="83.3333333333" fill="#088" font-family="monospace"  >
   S
  </text> </g> 
  <circle cx="-250" cy="450" r="10"
    style="fill:none;stroke:#800;stroke-width:2"  />
  <line x1="-250" y1="-450" x2="-250" y2="-250" style="stroke:#800;stroke-width:10;stroke-opacity:1.000000;stroke-linecap:round"/>
  <g transform="translate(-262,-337) rotate(-90)" > <text font-size="83.3333333333" fill="#800" font-family="monospace"  >
   7
  </text> </g> 
  <g transform="translate(-243,-158) rotate(-90)" > <text font-size="83.3333333333" fill="#088" font-family="monospace"  >
   D
  </text> </g> 
  <circle cx="-250" cy="-450" r="10"
    style="fill:none;stroke:#800;stroke-width:2"  />
 </g>
</svg>
