<?xml version="1.0"?>
<svg height="335" width="335"  >
 <g style="fill-opacity:1.0; stroke:black;
  stroke-width:1;" transform=" translate( 167.5,167.5 ) scale( 0.15,0.15 )">
  <g transform="translate(-30,429) rotate(0)" > <text font-size="100.0" fill="#088" font-family="monospace"  >
   U
  </text> </g> 
  <g transform="translate(-210,-370) rotate(0)" > <text font-size="100.0" fill="#088" font-family="monospace"  >
   PCF8563
  </text> </g> 
  <rect x="-350" y="-350" height="700"
    width="700" style="fill:none;stroke:#800;stroke-width:10" />
  <line x1="650" y1="250" x2="350" y2="250" style="stroke:#800;stroke-width:10;stroke-opacity:1.000000;stroke-linecap:round"/>
  <g transform="translate(457,244) rotate(0)" > <text font-size="100.0" fill="#800" font-family="monospace"  >
   4
  </text> </g> 
  <g transform="translate(130,290) rotate(0)" > <text font-size="100.0" fill="#088" font-family="monospace"  >
   VSS
  </text> </g> 
  <circle cx="650" cy="250" r="10"
    style="fill:none;stroke:#800;stroke-width:2"  />
  <line x1="650" y1="100" x2="350" y2="100" style="stroke:#800;stroke-width:10;stroke-opacity:1.000000;stroke-linecap:round"/>
  <g transform="translate(457,94) rotate(0)" > <text font-size="100.0" fill="#800" font-family="monospace"  >
   3
  </text> </g> 
  <g transform="translate(70,140) rotate(0)" > <text font-size="100.0" fill="#088" font-family="monospace"  >
   /INT
  </text> </g> 
  <circle cx="650" cy="100" r="10"
    style="fill:none;stroke:#800;stroke-width:2"  />
  <line x1="650" y1="0" x2="350" y2="0" style="stroke:#800;stroke-width:10;stroke-opacity:1.000000;stroke-linecap:round"/>
  <g transform="translate(457,-6) rotate(0)" > <text font-size="100.0" fill="#800" font-family="monospace"  >
   5
  </text> </g> 
  <g transform="translate(130,40) rotate(0)" > <text font-size="100.0" fill="#088" font-family="monospace"  >
   SDA
  </text> </g> 
  <circle cx="650" cy="0" r="10"
    style="fill:none;stroke:#800;stroke-width:2"  />
  <line x1="650" y1="-100" x2="350" y2="-100" style="stroke:#800;stroke-width:10;stroke-opacity:1.000000;stroke-linecap:round"/>
  <g transform="translate(457,-106) rotate(0)" > <text font-size="100.0" fill="#800" font-family="monospace"  >
   6
  </text> </g> 
  <g transform="translate(130,-60) rotate(0)" > <text font-size="100.0" fill="#088" font-family="monospace"  >
   SCL
  </text> </g> 
  <circle cx="650" cy="-100" r="10"
    style="fill:none;stroke:#800;stroke-width:2"  />
  <line x1="310" y1="-250" x2="350" y2="-210" style="stroke:#800;stroke-width:10;stroke-opacity:1.000000;stroke-linecap:round"/>
  <line x1="350" y1="-210" x2="350" y2="-290" style="stroke:#800;stroke-width:10;stroke-opacity:1.000000;stroke-linecap:round"/>
  <line x1="350" y1="-290" x2="310" y2="-250" style="stroke:#800;stroke-width:10;stroke-opacity:1.000000;stroke-linecap:round"/>
  <line x1="650" y1="-250" x2="350" y2="-250" style="stroke:#800;stroke-width:10;stroke-opacity:1.000000;stroke-linecap:round"/>
  <g transform="translate(457,-256) rotate(0)" > <text font-size="100.0" fill="#800" font-family="monospace"  >
   7
  </text> </g> 
  <g transform="translate(70,-210) rotate(0)" > <text font-size="100.0" fill="#088" font-family="monospace"  >
   CLKO
  </text> </g> 
  <circle cx="650" cy="-250" r="10"
    style="fill:none;stroke:#800;stroke-width:2"  />
  <line x1="-650" y1="250" x2="-350" y2="250" style="stroke:#800;stroke-width:10;stroke-opacity:1.000000;stroke-linecap:round"/>
  <g transform="translate(-542,244) rotate(0)" > <text font-size="100.0" fill="#800" font-family="monospace"  >
   2
  </text> </g> 
  <g transform="translate(-332,290) rotate(0)" > <text font-size="100.0" fill="#088" font-family="monospace"  >
   OSCO
  </text> </g> 
  <circle cx="-650" cy="250" r="10"
    style="fill:none;stroke:#800;stroke-width:2"  />
  <line x1="-650" y1="-100" x2="-350" y2="-100" style="stroke:#800;stroke-width:10;stroke-opacity:1.000000;stroke-linecap:round"/>
  <g transform="translate(-542,-106) rotate(0)" > <text font-size="100.0" fill="#800" font-family="monospace"  >
   1
  </text> </g> 
  <g transform="translate(-332,-60) rotate(0)" > <text font-size="100.0" fill="#088" font-family="monospace"  >
   OSCI
  </text> </g> 
  <circle cx="-650" cy="-100" r="10"
    style="fill:none;stroke:#800;stroke-width:2"  />
  <line x1="-650" y1="-250" x2="-350" y2="-250" style="stroke:#800;stroke-width:10;stroke-opacity:1.000000;stroke-linecap:round"/>
  <g transform="translate(-542,-256) rotate(0)" > <text font-size="100.0" fill="#800" font-family="monospace"  >
   8
  </text> </g> 
  <g transform="translate(-332,-210) rotate(0)" > <text font-size="100.0" fill="#088" font-family="monospace"  >
   VDD
  </text> </g> 
  <circle cx="-650" cy="-250" r="10"
    style="fill:none;stroke:#800;stroke-width:2"  />
 </g>
</svg>
