<?xml version="1.0"?>
<svg height="845" width="845"  >
 <g style="fill-opacity:1.0; stroke:black;
  stroke-width:1;" transform=" translate( 422.5,422.5 ) scale( 0.15,0.15 )">
  <g transform="translate(-40,-160) rotate(0)" > <text font-size="133.333333333" fill="#088" font-family="monospace"  >
   U
  </text> </g> 
  <g transform="translate(-280,190) rotate(0)" > <text font-size="133.333333333" fill="#088" font-family="monospace"  >
   SAA7182
  </text> </g> 
  <rect x="-1000" y="-2050" height="4100"
    width="2000" style="fill:none;stroke:#800;stroke-width:10" />
  <line x1="-800" y1="-2350" x2="-800" y2="-2050" style="stroke:#800;stroke-width:10;stroke-opacity:1.000000;stroke-linecap:round"/>
  <g transform="translate(-815,-2185) rotate(-90)" > <text font-size="100.0" fill="#800" font-family="monospace"  >
   5
  </text> </g> 
  <g transform="translate(-792,-1820) rotate(-90)" > <text font-size="100.0" fill="#088" font-family="monospace"  >
   VDD
  </text> </g> 
  <circle cx="-800" cy="-2350" r="10"
    style="fill:none;stroke:#800;stroke-width:2"  />
  <line x1="-700" y1="-2350" x2="-700" y2="-2050" style="stroke:#800;stroke-width:10;stroke-opacity:1.000000;stroke-linecap:round"/>
  <g transform="translate(-715,-2170) rotate(-90)" > <text font-size="100.0" fill="#800" font-family="monospace"  >
   14
  </text> </g> 
  <g transform="translate(-692,-1820) rotate(-90)" > <text font-size="100.0" fill="#088" font-family="monospace"  >
   VDD
  </text> </g> 
  <circle cx="-700" cy="-2350" r="10"
    style="fill:none;stroke:#800;stroke-width:2"  />
  <line x1="-600" y1="-2350" x2="-600" y2="-2050" style="stroke:#800;stroke-width:10;stroke-opacity:1.000000;stroke-linecap:round"/>
  <g transform="translate(-615,-2170) rotate(-90)" > <text font-size="100.0" fill="#800" font-family="monospace"  >
   22
  </text> </g> 
  <g transform="translate(-592,-1820) rotate(-90)" > <text font-size="100.0" fill="#088" font-family="monospace"  >
   VDD
  </text> </g> 
  <circle cx="-600" cy="-2350" r="10"
    style="fill:none;stroke:#800;stroke-width:2"  />
  <line x1="-500" y1="-2350" x2="-500" y2="-2050" style="stroke:#800;stroke-width:10;stroke-opacity:1.000000;stroke-linecap:round"/>
  <g transform="translate(-515,-2170) rotate(-90)" > <text font-size="100.0" fill="#800" font-family="monospace"  >
   29
  </text> </g> 
  <g transform="translate(-492,-1820) rotate(-90)" > <text font-size="100.0" fill="#088" font-family="monospace"  >
   VDD
  </text> </g> 
  <circle cx="-500" cy="-2350" r="10"
    style="fill:none;stroke:#800;stroke-width:2"  />
  <line x1="-400" y1="-2350" x2="-400" y2="-2050" style="stroke:#800;stroke-width:10;stroke-opacity:1.000000;stroke-linecap:round"/>
  <g transform="translate(-415,-2170) rotate(-90)" > <text font-size="100.0" fill="#800" font-family="monospace"  >
   38
  </text> </g> 
  <g transform="translate(-392,-1820) rotate(-90)" > <text font-size="100.0" fill="#088" font-family="monospace"  >
   VDD
  </text> </g> 
  <circle cx="-400" cy="-2350" r="10"
    style="fill:none;stroke:#800;stroke-width:2"  />
  <line x1="-300" y1="-2350" x2="-300" y2="-2050" style="stroke:#800;stroke-width:10;stroke-opacity:1.000000;stroke-linecap:round"/>
  <g transform="translate(-315,-2170) rotate(-90)" > <text font-size="100.0" fill="#800" font-family="monospace"  >
   41
  </text> </g> 
  <g transform="translate(-292,-1820) rotate(-90)" > <text font-size="100.0" fill="#088" font-family="monospace"  >
   VDD
  </text> </g> 
  <circle cx="-300" cy="-2350" r="10"
    style="fill:none;stroke:#800;stroke-width:2"  />
  <line x1="-200" y1="-2350" x2="-200" y2="-2050" style="stroke:#800;stroke-width:10;stroke-opacity:1.000000;stroke-linecap:round"/>
  <g transform="translate(-215,-2170) rotate(-90)" > <text font-size="100.0" fill="#800" font-family="monospace"  >
   49
  </text> </g> 
  <g transform="translate(-192,-1820) rotate(-90)" > <text font-size="100.0" fill="#088" font-family="monospace"  >
   VDD
  </text> </g> 
  <circle cx="-200" cy="-2350" r="10"
    style="fill:none;stroke:#800;stroke-width:2"  />
  <line x1="-100" y1="-2350" x2="-100" y2="-2050" style="stroke:#800;stroke-width:10;stroke-opacity:1.000000;stroke-linecap:round"/>
  <g transform="translate(-115,-2170) rotate(-90)" > <text font-size="100.0" fill="#800" font-family="monospace"  >
   80
  </text> </g> 
  <g transform="translate(-92,-1820) rotate(-90)" > <text font-size="100.0" fill="#088" font-family="monospace"  >
   VDD
  </text> </g> 
  <circle cx="-100" cy="-2350" r="10"
    style="fill:none;stroke:#800;stroke-width:2"  />
  <line x1="0" y1="-2350" x2="0" y2="-2050" style="stroke:#800;stroke-width:10;stroke-opacity:1.000000;stroke-linecap:round"/>
  <g transform="translate(-15,-2170) rotate(-90)" > <text font-size="100.0" fill="#800" font-family="monospace"  >
   82
  </text> </g> 
  <g transform="translate(7,-1820) rotate(-90)" > <text font-size="100.0" fill="#088" font-family="monospace"  >
   VDD
  </text> </g> 
  <circle cx="0" cy="-2350" r="10"
    style="fill:none;stroke:#800;stroke-width:2"  />
  <line x1="200" y1="-2350" x2="200" y2="-2050" style="stroke:#800;stroke-width:10;stroke-opacity:1.000000;stroke-linecap:round"/>
  <g transform="translate(185,-2170) rotate(-90)" > <text font-size="100.0" fill="#800" font-family="monospace"  >
   54
  </text> </g> 
  <g transform="translate(207,-1760) rotate(-90)" > <text font-size="100.0" fill="#088" font-family="monospace"  >
   VDDA
  </text> </g> 
  <circle cx="200" cy="-2350" r="10"
    style="fill:none;stroke:#800;stroke-width:2"  />
  <line x1="300" y1="-2350" x2="300" y2="-2050" style="stroke:#800;stroke-width:10;stroke-opacity:1.000000;stroke-linecap:round"/>
  <g transform="translate(285,-2170) rotate(-90)" > <text font-size="100.0" fill="#800" font-family="monospace"  >
   57
  </text> </g> 
  <g transform="translate(307,-1760) rotate(-90)" > <text font-size="100.0" fill="#088" font-family="monospace"  >
   VDDA
  </text> </g> 
  <circle cx="300" cy="-2350" r="10"
    style="fill:none;stroke:#800;stroke-width:2"  />
  <line x1="400" y1="-2350" x2="400" y2="-2050" style="stroke:#800;stroke-width:10;stroke-opacity:1.000000;stroke-linecap:round"/>
  <g transform="translate(385,-2170) rotate(-90)" > <text font-size="100.0" fill="#800" font-family="monospace"  >
   60
  </text> </g> 
  <g transform="translate(407,-1760) rotate(-90)" > <text font-size="100.0" fill="#088" font-family="monospace"  >
   VDDA
  </text> </g> 
  <circle cx="400" cy="-2350" r="10"
    style="fill:none;stroke:#800;stroke-width:2"  />
  <line x1="500" y1="-2350" x2="500" y2="-2050" style="stroke:#800;stroke-width:10;stroke-opacity:1.000000;stroke-linecap:round"/>
  <g transform="translate(485,-2170) rotate(-90)" > <text font-size="100.0" fill="#800" font-family="monospace"  >
   64
  </text> </g> 
  <g transform="translate(507,-1760) rotate(-90)" > <text font-size="100.0" fill="#088" font-family="monospace"  >
   VDDA
  </text> </g> 
  <circle cx="500" cy="-2350" r="10"
    style="fill:none;stroke:#800;stroke-width:2"  />
  <line x1="600" y1="-2350" x2="600" y2="-2050" style="stroke:#800;stroke-width:10;stroke-opacity:1.000000;stroke-linecap:round"/>
  <g transform="translate(585,-2170) rotate(-90)" > <text font-size="100.0" fill="#800" font-family="monospace"  >
   70
  </text> </g> 
  <g transform="translate(607,-1760) rotate(-90)" > <text font-size="100.0" fill="#088" font-family="monospace"  >
   VDDA
  </text> </g> 
  <circle cx="600" cy="-2350" r="10"
    style="fill:none;stroke:#800;stroke-width:2"  />
  <line x1="700" y1="-2350" x2="700" y2="-2050" style="stroke:#800;stroke-width:10;stroke-opacity:1.000000;stroke-linecap:round"/>
  <g transform="translate(685,-2170) rotate(-90)" > <text font-size="100.0" fill="#800" font-family="monospace"  >
   72
  </text> </g> 
  <g transform="translate(707,-1760) rotate(-90)" > <text font-size="100.0" fill="#088" font-family="monospace"  >
   VDDA
  </text> </g> 
  <circle cx="700" cy="-2350" r="10"
    style="fill:none;stroke:#800;stroke-width:2"  />
  <line x1="800" y1="-2350" x2="800" y2="-2050" style="stroke:#800;stroke-width:10;stroke-opacity:1.000000;stroke-linecap:round"/>
  <g transform="translate(785,-2170) rotate(-90)" > <text font-size="100.0" fill="#800" font-family="monospace"  >
   74
  </text> </g> 
  <g transform="translate(807,-1760) rotate(-90)" > <text font-size="100.0" fill="#088" font-family="monospace"  >
   VDDA
  </text> </g> 
  <circle cx="800" cy="-2350" r="10"
    style="fill:none;stroke:#800;stroke-width:2"  />
  <line x1="1300" y1="1550" x2="1000" y2="1550" style="stroke:#800;stroke-width:10;stroke-opacity:1.000000;stroke-linecap:round"/>
  <g transform="translate(1065,1544) rotate(0)" > <text font-size="100.0" fill="#800" font-family="monospace"  >
   63
  </text> </g> 
  <g transform="translate(780,1590) rotate(0)" > <text font-size="100.0" fill="#088" font-family="monospace"  >
   CUR
  </text> </g> 
  <circle cx="1300" cy="1550" r="10"
    style="fill:none;stroke:#800;stroke-width:2"  />
  <line x1="1300" y1="1450" x2="1000" y2="1450" style="stroke:#800;stroke-width:10;stroke-opacity:1.000000;stroke-linecap:round"/>
  <g transform="translate(1065,1444) rotate(0)" > <text font-size="100.0" fill="#800" font-family="monospace"  >
   68
  </text> </g> 
  <g transform="translate(780,1490) rotate(0)" > <text font-size="100.0" fill="#088" font-family="monospace"  >
   CUR
  </text> </g> 
  <circle cx="1300" cy="1450" r="10"
    style="fill:none;stroke:#800;stroke-width:2"  />
  <line x1="1300" y1="550" x2="1000" y2="550" style="stroke:#800;stroke-width:10;stroke-opacity:1.000000;stroke-linecap:round"/>
  <g transform="translate(1065,544) rotate(0)" > <text font-size="100.0" fill="#800" font-family="monospace"  >
   52
  </text> </g> 
  <g transform="translate(660,590) rotate(0)" > <text font-size="100.0" fill="#088" font-family="monospace"  >
   VREFL
  </text> </g> 
  <circle cx="1300" cy="550" r="10"
    style="fill:none;stroke:#800;stroke-width:2"  />
  <line x1="1300" y1="450" x2="1000" y2="450" style="stroke:#800;stroke-width:10;stroke-opacity:1.000000;stroke-linecap:round"/>
  <g transform="translate(1065,444) rotate(0)" > <text font-size="100.0" fill="#800" font-family="monospace"  >
   53
  </text> </g> 
  <g transform="translate(660,490) rotate(0)" > <text font-size="100.0" fill="#088" font-family="monospace"  >
   VREFH
  </text> </g> 
  <circle cx="1300" cy="450" r="10"
    style="fill:none;stroke:#800;stroke-width:2"  />
  <line x1="1300" y1="150" x2="1000" y2="150" style="stroke:#800;stroke-width:10;stroke-opacity:1.000000;stroke-linecap:round"/>
  <g transform="translate(1065,144) rotate(0)" > <text font-size="100.0" fill="#800" font-family="monospace"  >
   55
  </text> </g> 
  <g transform="translate(900,190) rotate(0)" > <text font-size="100.0" fill="#088" font-family="monospace"  >
   B
  </text> </g> 
  <circle cx="1300" cy="150" r="10"
    style="fill:none;stroke:#800;stroke-width:2"  />
  <line x1="1300" y1="-50" x2="1000" y2="-50" style="stroke:#800;stroke-width:10;stroke-opacity:1.000000;stroke-linecap:round"/>
  <g transform="translate(1065,-56) rotate(0)" > <text font-size="100.0" fill="#800" font-family="monospace"  >
   58
  </text> </g> 
  <g transform="translate(900,-10) rotate(0)" > <text font-size="100.0" fill="#088" font-family="monospace"  >
   G
  </text> </g> 
  <circle cx="1300" cy="-50" r="10"
    style="fill:none;stroke:#800;stroke-width:2"  />
  <line x1="1300" y1="-250" x2="1000" y2="-250" style="stroke:#800;stroke-width:10;stroke-opacity:1.000000;stroke-linecap:round"/>
  <g transform="translate(1065,-256) rotate(0)" > <text font-size="100.0" fill="#800" font-family="monospace"  >
   61
  </text> </g> 
  <g transform="translate(900,-210) rotate(0)" > <text font-size="100.0" fill="#088" font-family="monospace"  >
   R
  </text> </g> 
  <circle cx="1300" cy="-250" r="10"
    style="fill:none;stroke:#800;stroke-width:2"  />
  <line x1="1300" y1="-450" x2="1000" y2="-450" style="stroke:#800;stroke-width:10;stroke-opacity:1.000000;stroke-linecap:round"/>
  <g transform="translate(1065,-456) rotate(0)" > <text font-size="100.0" fill="#800" font-family="monospace"  >
   69
  </text> </g> 
  <g transform="translate(900,-410) rotate(0)" > <text font-size="100.0" fill="#088" font-family="monospace"  >
   C
  </text> </g> 
  <circle cx="1300" cy="-450" r="10"
    style="fill:none;stroke:#800;stroke-width:2"  />
  <line x1="1300" y1="-650" x2="1000" y2="-650" style="stroke:#800;stroke-width:10;stroke-opacity:1.000000;stroke-linecap:round"/>
  <g transform="translate(1065,-656) rotate(0)" > <text font-size="100.0" fill="#800" font-family="monospace"  >
   71
  </text> </g> 
  <g transform="translate(900,-610) rotate(0)" > <text font-size="100.0" fill="#088" font-family="monospace"  >
   Y
  </text> </g> 
  <circle cx="1300" cy="-650" r="10"
    style="fill:none;stroke:#800;stroke-width:2"  />
  <line x1="1300" y1="-850" x2="1000" y2="-850" style="stroke:#800;stroke-width:10;stroke-opacity:1.000000;stroke-linecap:round"/>
  <g transform="translate(1065,-856) rotate(0)" > <text font-size="100.0" fill="#800" font-family="monospace"  >
   73
  </text> </g> 
  <g transform="translate(720,-810) rotate(0)" > <text font-size="100.0" fill="#088" font-family="monospace"  >
   CVBS
  </text> </g> 
  <circle cx="1300" cy="-850" r="10"
    style="fill:none;stroke:#800;stroke-width:2"  />
  <line x1="1300" y1="-1150" x2="1000" y2="-1150" style="stroke:#800;stroke-width:10;stroke-opacity:1.000000;stroke-linecap:round"/>
  <g transform="translate(1065,-1156) rotate(0)" > <text font-size="100.0" fill="#800" font-family="monospace"  >
   75
  </text> </g> 
  <g transform="translate(660,-1110) rotate(0)" > <text font-size="100.0" fill="#088" font-family="monospace"  >
   VREFH
  </text> </g> 
  <circle cx="1300" cy="-1150" r="10"
    style="fill:none;stroke:#800;stroke-width:2"  />
  <line x1="1300" y1="-1250" x2="1000" y2="-1250" style="stroke:#800;stroke-width:10;stroke-opacity:1.000000;stroke-linecap:round"/>
  <g transform="translate(1065,-1256) rotate(0)" > <text font-size="100.0" fill="#800" font-family="monospace"  >
   76
  </text> </g> 
  <g transform="translate(660,-1210) rotate(0)" > <text font-size="100.0" fill="#088" font-family="monospace"  >
   VREFL
  </text> </g> 
  <circle cx="1300" cy="-1250" r="10"
    style="fill:none;stroke:#800;stroke-width:2"  />
  <line x1="1300" y1="-1450" x2="1000" y2="-1450" style="stroke:#800;stroke-width:10;stroke-opacity:1.000000;stroke-linecap:round"/>
  <g transform="translate(1065,-1456) rotate(0)" > <text font-size="100.0" fill="#800" font-family="monospace"  >
   77
  </text> </g> 
  <g transform="translate(840,-1410) rotate(0)" > <text font-size="100.0" fill="#088" font-family="monospace"  >
   AP
  </text> </g> 
  <circle cx="1300" cy="-1450" r="10"
    style="fill:none;stroke:#800;stroke-width:2"  />
  <line x1="1300" y1="-1550" x2="1000" y2="-1550" style="stroke:#800;stroke-width:10;stroke-opacity:1.000000;stroke-linecap:round"/>
  <g transform="translate(1065,-1556) rotate(0)" > <text font-size="100.0" fill="#800" font-family="monospace"  >
   78
  </text> </g> 
  <g transform="translate(840,-1510) rotate(0)" > <text font-size="100.0" fill="#088" font-family="monospace"  >
   SP
  </text> </g> 
  <circle cx="1300" cy="-1550" r="10"
    style="fill:none;stroke:#800;stroke-width:2"  />
  <line x1="-1300" y1="1850" x2="-1000" y2="1850" style="stroke:#800;stroke-width:10;stroke-opacity:1.000000;stroke-linecap:round"/>
  <g transform="translate(-1235,1844) rotate(0)" > <text font-size="100.0" fill="#800" font-family="monospace"  >
   34
  </text> </g> 
  <g transform="translate(-982,1890) rotate(0)" > <text font-size="100.0" fill="#088" font-family="monospace"  >
   MP0
  </text> </g> 
  <circle cx="-1300" cy="1850" r="10"
    style="fill:none;stroke:#800;stroke-width:2"  />
  <line x1="-1300" y1="1750" x2="-1000" y2="1750" style="stroke:#800;stroke-width:10;stroke-opacity:1.000000;stroke-linecap:round"/>
  <g transform="translate(-1235,1744) rotate(0)" > <text font-size="100.0" fill="#800" font-family="monospace"  >
   33
  </text> </g> 
  <g transform="translate(-982,1790) rotate(0)" > <text font-size="100.0" fill="#088" font-family="monospace"  >
   MP1
  </text> </g> 
  <circle cx="-1300" cy="1750" r="10"
    style="fill:none;stroke:#800;stroke-width:2"  />
  <line x1="-1300" y1="1650" x2="-1000" y2="1650" style="stroke:#800;stroke-width:10;stroke-opacity:1.000000;stroke-linecap:round"/>
  <g transform="translate(-1235,1644) rotate(0)" > <text font-size="100.0" fill="#800" font-family="monospace"  >
   32
  </text> </g> 
  <g transform="translate(-982,1690) rotate(0)" > <text font-size="100.0" fill="#088" font-family="monospace"  >
   MP2
  </text> </g> 
  <circle cx="-1300" cy="1650" r="10"
    style="fill:none;stroke:#800;stroke-width:2"  />
  <line x1="-1300" y1="1550" x2="-1000" y2="1550" style="stroke:#800;stroke-width:10;stroke-opacity:1.000000;stroke-linecap:round"/>
  <g transform="translate(-1235,1544) rotate(0)" > <text font-size="100.0" fill="#800" font-family="monospace"  >
   31
  </text> </g> 
  <g transform="translate(-982,1590) rotate(0)" > <text font-size="100.0" fill="#088" font-family="monospace"  >
   MP3
  </text> </g> 
  <circle cx="-1300" cy="1550" r="10"
    style="fill:none;stroke:#800;stroke-width:2"  />
  <line x1="-1300" y1="1450" x2="-1000" y2="1450" style="stroke:#800;stroke-width:10;stroke-opacity:1.000000;stroke-linecap:round"/>
  <g transform="translate(-1235,1444) rotate(0)" > <text font-size="100.0" fill="#800" font-family="monospace"  >
   28
  </text> </g> 
  <g transform="translate(-982,1490) rotate(0)" > <text font-size="100.0" fill="#088" font-family="monospace"  >
   MP4
  </text> </g> 
  <circle cx="-1300" cy="1450" r="10"
    style="fill:none;stroke:#800;stroke-width:2"  />
  <line x1="-1300" y1="1350" x2="-1000" y2="1350" style="stroke:#800;stroke-width:10;stroke-opacity:1.000000;stroke-linecap:round"/>
  <g transform="translate(-1235,1344) rotate(0)" > <text font-size="100.0" fill="#800" font-family="monospace"  >
   27
  </text> </g> 
  <g transform="translate(-982,1390) rotate(0)" > <text font-size="100.0" fill="#088" font-family="monospace"  >
   MP5
  </text> </g> 
  <circle cx="-1300" cy="1350" r="10"
    style="fill:none;stroke:#800;stroke-width:2"  />
  <line x1="-1300" y1="1250" x2="-1000" y2="1250" style="stroke:#800;stroke-width:10;stroke-opacity:1.000000;stroke-linecap:round"/>
  <g transform="translate(-1235,1244) rotate(0)" > <text font-size="100.0" fill="#800" font-family="monospace"  >
   26
  </text> </g> 
  <g transform="translate(-982,1290) rotate(0)" > <text font-size="100.0" fill="#088" font-family="monospace"  >
   MP6
  </text> </g> 
  <circle cx="-1300" cy="1250" r="10"
    style="fill:none;stroke:#800;stroke-width:2"  />
  <line x1="-1300" y1="1150" x2="-1000" y2="1150" style="stroke:#800;stroke-width:10;stroke-opacity:1.000000;stroke-linecap:round"/>
  <g transform="translate(-1235,1144) rotate(0)" > <text font-size="100.0" fill="#800" font-family="monospace"  >
   25
  </text> </g> 
  <g transform="translate(-982,1190) rotate(0)" > <text font-size="100.0" fill="#088" font-family="monospace"  >
   MP7
  </text> </g> 
  <circle cx="-1300" cy="1150" r="10"
    style="fill:none;stroke:#800;stroke-width:2"  />
  <line x1="-1300" y1="1050" x2="-1000" y2="1050" style="stroke:#800;stroke-width:10;stroke-opacity:1.000000;stroke-linecap:round"/>
  <g transform="translate(-1235,1044) rotate(0)" > <text font-size="100.0" fill="#800" font-family="monospace"  >
   19
  </text> </g> 
  <g transform="translate(-982,1090) rotate(0)" > <text font-size="100.0" fill="#088" font-family="monospace"  >
   DP7
  </text> </g> 
  <circle cx="-1300" cy="1050" r="10"
    style="fill:none;stroke:#800;stroke-width:2"  />
  <line x1="-1300" y1="950" x2="-1000" y2="950" style="stroke:#800;stroke-width:10;stroke-opacity:1.000000;stroke-linecap:round"/>
  <g transform="translate(-1235,944) rotate(0)" > <text font-size="100.0" fill="#800" font-family="monospace"  >
   18
  </text> </g> 
  <g transform="translate(-982,990) rotate(0)" > <text font-size="100.0" fill="#088" font-family="monospace"  >
   DP6
  </text> </g> 
  <circle cx="-1300" cy="950" r="10"
    style="fill:none;stroke:#800;stroke-width:2"  />
  <line x1="-1300" y1="850" x2="-1000" y2="850" style="stroke:#800;stroke-width:10;stroke-opacity:1.000000;stroke-linecap:round"/>
  <g transform="translate(-1235,844) rotate(0)" > <text font-size="100.0" fill="#800" font-family="monospace"  >
   17
  </text> </g> 
  <g transform="translate(-982,890) rotate(0)" > <text font-size="100.0" fill="#088" font-family="monospace"  >
   DP5
  </text> </g> 
  <circle cx="-1300" cy="850" r="10"
    style="fill:none;stroke:#800;stroke-width:2"  />
  <line x1="-1300" y1="750" x2="-1000" y2="750" style="stroke:#800;stroke-width:10;stroke-opacity:1.000000;stroke-linecap:round"/>
  <g transform="translate(-1235,744) rotate(0)" > <text font-size="100.0" fill="#800" font-family="monospace"  >
   16
  </text> </g> 
  <g transform="translate(-982,790) rotate(0)" > <text font-size="100.0" fill="#088" font-family="monospace"  >
   DP4
  </text> </g> 
  <circle cx="-1300" cy="750" r="10"
    style="fill:none;stroke:#800;stroke-width:2"  />
  <line x1="-1300" y1="650" x2="-1000" y2="650" style="stroke:#800;stroke-width:10;stroke-opacity:1.000000;stroke-linecap:round"/>
  <g transform="translate(-1235,644) rotate(0)" > <text font-size="100.0" fill="#800" font-family="monospace"  >
   13
  </text> </g> 
  <g transform="translate(-982,690) rotate(0)" > <text font-size="100.0" fill="#088" font-family="monospace"  >
   DP3
  </text> </g> 
  <circle cx="-1300" cy="650" r="10"
    style="fill:none;stroke:#800;stroke-width:2"  />
  <line x1="-1300" y1="550" x2="-1000" y2="550" style="stroke:#800;stroke-width:10;stroke-opacity:1.000000;stroke-linecap:round"/>
  <g transform="translate(-1235,544) rotate(0)" > <text font-size="100.0" fill="#800" font-family="monospace"  >
   12
  </text> </g> 
  <g transform="translate(-982,590) rotate(0)" > <text font-size="100.0" fill="#088" font-family="monospace"  >
   DP2
  </text> </g> 
  <circle cx="-1300" cy="550" r="10"
    style="fill:none;stroke:#800;stroke-width:2"  />
  <line x1="-1300" y1="450" x2="-1000" y2="450" style="stroke:#800;stroke-width:10;stroke-opacity:1.000000;stroke-linecap:round"/>
  <g transform="translate(-1235,444) rotate(0)" > <text font-size="100.0" fill="#800" font-family="monospace"  >
   11
  </text> </g> 
  <g transform="translate(-982,490) rotate(0)" > <text font-size="100.0" fill="#088" font-family="monospace"  >
   DP1
  </text> </g> 
  <circle cx="-1300" cy="450" r="10"
    style="fill:none;stroke:#800;stroke-width:2"  />
  <line x1="-1300" y1="350" x2="-1000" y2="350" style="stroke:#800;stroke-width:10;stroke-opacity:1.000000;stroke-linecap:round"/>
  <g transform="translate(-1235,344) rotate(0)" > <text font-size="100.0" fill="#800" font-family="monospace"  >
   10
  </text> </g> 
  <g transform="translate(-982,390) rotate(0)" > <text font-size="100.0" fill="#088" font-family="monospace"  >
   DP0
  </text> </g> 
  <circle cx="-1300" cy="350" r="10"
    style="fill:none;stroke:#800;stroke-width:2"  />
  <line x1="-1300" y1="250" x2="-1000" y2="250" style="stroke:#800;stroke-width:10;stroke-opacity:1.000000;stroke-linecap:round"/>
  <g transform="translate(-1192,244) rotate(0)" > <text font-size="100.0" fill="#800" font-family="monospace"  >
   8
  </text> </g> 
  <g transform="translate(-982,290) rotate(0)" > <text font-size="100.0" fill="#088" font-family="monospace"  >
   OVL0
  </text> </g> 
  <circle cx="-1300" cy="250" r="10"
    style="fill:none;stroke:#800;stroke-width:2"  />
  <line x1="-1300" y1="150" x2="-1000" y2="150" style="stroke:#800;stroke-width:10;stroke-opacity:1.000000;stroke-linecap:round"/>
  <g transform="translate(-1192,144) rotate(0)" > <text font-size="100.0" fill="#800" font-family="monospace"  >
   7
  </text> </g> 
  <g transform="translate(-982,190) rotate(0)" > <text font-size="100.0" fill="#088" font-family="monospace"  >
   OVL1
  </text> </g> 
  <circle cx="-1300" cy="150" r="10"
    style="fill:none;stroke:#800;stroke-width:2"  />
  <line x1="-1300" y1="50" x2="-1000" y2="50" style="stroke:#800;stroke-width:10;stroke-opacity:1.000000;stroke-linecap:round"/>
  <g transform="translate(-1192,44) rotate(0)" > <text font-size="100.0" fill="#800" font-family="monospace"  >
   6
  </text> </g> 
  <g transform="translate(-982,90) rotate(0)" > <text font-size="100.0" fill="#088" font-family="monospace"  >
   OVL2
  </text> </g> 
  <circle cx="-1300" cy="50" r="10"
    style="fill:none;stroke:#800;stroke-width:2"  />
  <line x1="-1300" y1="-50" x2="-1000" y2="-50" style="stroke:#800;stroke-width:10;stroke-opacity:1.000000;stroke-linecap:round"/>
  <g transform="translate(-1192,-56) rotate(0)" > <text font-size="100.0" fill="#800" font-family="monospace"  >
   9
  </text> </g> 
  <g transform="translate(-982,-10) rotate(0)" > <text font-size="100.0" fill="#088" font-family="monospace"  >
   KEY
  </text> </g> 
  <circle cx="-1300" cy="-50" r="10"
    style="fill:none;stroke:#800;stroke-width:2"  />
  <line x1="-1300" y1="-150" x2="-1000" y2="-150" style="stroke:#800;stroke-width:10;stroke-opacity:1.000000;stroke-linecap:round"/>
  <g transform="translate(-1235,-156) rotate(0)" > <text font-size="100.0" fill="#800" font-family="monospace"  >
   21
  </text> </g> 
  <g transform="translate(-982,-110) rotate(0)" > <text font-size="100.0" fill="#088" font-family="monospace"  >
   TTX
  </text> </g> 
  <circle cx="-1300" cy="-150" r="10"
    style="fill:none;stroke:#800;stroke-width:2"  />
  <line x1="-1300" y1="-350" x2="-1000" y2="-350" style="stroke:#800;stroke-width:10;stroke-opacity:1.000000;stroke-linecap:round"/>
  <g transform="translate(-1235,-356) rotate(0)" > <text font-size="100.0" fill="#800" font-family="monospace"  >
   50
  </text> </g> 
  <g transform="translate(-982,-310) rotate(0)" > <text font-size="100.0" fill="#088" font-family="monospace"  >
   CDIR
  </text> </g> 
  <circle cx="-1300" cy="-350" r="10"
    style="fill:none;stroke:#800;stroke-width:2"  />
  <line x1="-1300" y1="-450" x2="-1000" y2="-450" style="stroke:#800;stroke-width:10;stroke-opacity:1.000000;stroke-linecap:round"/>
  <g transform="translate(-1235,-456) rotate(0)" > <text font-size="100.0" fill="#800" font-family="monospace"  >
   35
  </text> </g> 
  <g transform="translate(-982,-410) rotate(0)" > <text font-size="100.0" fill="#088" font-family="monospace"  >
   RCV1
  </text> </g> 
  <circle cx="-1300" cy="-450" r="10"
    style="fill:none;stroke:#800;stroke-width:2"  />
  <line x1="-1300" y1="-550" x2="-1000" y2="-550" style="stroke:#800;stroke-width:10;stroke-opacity:1.000000;stroke-linecap:round"/>
  <g transform="translate(-1235,-556) rotate(0)" > <text font-size="100.0" fill="#800" font-family="monospace"  >
   36
  </text> </g> 
  <g transform="translate(-982,-510) rotate(0)" > <text font-size="100.0" fill="#088" font-family="monospace"  >
   RCV2
  </text> </g> 
  <circle cx="-1300" cy="-550" r="10"
    style="fill:none;stroke:#800;stroke-width:2"  />
  <line x1="-1300" y1="-650" x2="-1000" y2="-650" style="stroke:#800;stroke-width:10;stroke-opacity:1.000000;stroke-linecap:round"/>
  <g transform="translate(-1235,-656) rotate(0)" > <text font-size="100.0" fill="#800" font-family="monospace"  >
   20
  </text> </g> 
  <g transform="translate(-982,-610) rotate(0)" > <text font-size="100.0" fill="#088" font-family="monospace"  >
   TTXRQ
  </text> </g> 
  <circle cx="-1300" cy="-650" r="10"
    style="fill:none;stroke:#800;stroke-width:2"  />
  <line x1="-1300" y1="-750" x2="-1000" y2="-750" style="stroke:#800;stroke-width:10;stroke-opacity:1.000000;stroke-linecap:round"/>
  <g transform="translate(-1235,-756) rotate(0)" > <text font-size="100.0" fill="#800" font-family="monospace"  >
   47
  </text> </g> 
  <g transform="translate(-982,-710) rotate(0)" > <text font-size="100.0" fill="#088" font-family="monospace"  >
   CREF
  </text> </g> 
  <circle cx="-1300" cy="-750" r="10"
    style="fill:none;stroke:#800;stroke-width:2"  />
  <line x1="-1300" y1="-850" x2="-1000" y2="-850" style="stroke:#800;stroke-width:10;stroke-opacity:1.000000;stroke-linecap:round"/>
  <g transform="translate(-1235,-856) rotate(0)" > <text font-size="100.0" fill="#800" font-family="monospace"  >
   45
  </text> </g> 
  <g transform="translate(-982,-810) rotate(0)" > <text font-size="100.0" fill="#088" font-family="monospace"  >
   XTAL
  </text> </g> 
  <circle cx="-1300" cy="-850" r="10"
    style="fill:none;stroke:#800;stroke-width:2"  />
  <line x1="-1300" y1="-950" x2="-1000" y2="-950" style="stroke:#800;stroke-width:10;stroke-opacity:1.000000;stroke-linecap:round"/>
  <g transform="translate(-1235,-956) rotate(0)" > <text font-size="100.0" fill="#800" font-family="monospace"  >
   44
  </text> </g> 
  <g transform="translate(-982,-910) rotate(0)" > <text font-size="100.0" fill="#088" font-family="monospace"  >
   XTALI
  </text> </g> 
  <circle cx="-1300" cy="-950" r="10"
    style="fill:none;stroke:#800;stroke-width:2"  />
  <line x1="-960" y1="-1050" x2="-1000" y2="-1010" style="stroke:#800;stroke-width:10;stroke-opacity:1.000000;stroke-linecap:round"/>
  <line x1="-1000" y1="-1010" x2="-1000" y2="-1090" style="stroke:#800;stroke-width:10;stroke-opacity:1.000000;stroke-linecap:round"/>
  <line x1="-1000" y1="-1090" x2="-960" y2="-1050" style="stroke:#800;stroke-width:10;stroke-opacity:1.000000;stroke-linecap:round"/>
  <line x1="-1300" y1="-1050" x2="-1000" y2="-1050" style="stroke:#800;stroke-width:10;stroke-opacity:1.000000;stroke-linecap:round"/>
  <g transform="translate(-1235,-1056) rotate(0)" > <text font-size="100.0" fill="#800" font-family="monospace"  >
   48
  </text> </g> 
  <g transform="translate(-982,-1010) rotate(0)" > <text font-size="100.0" fill="#088" font-family="monospace"  >
   LCC
  </text> </g> 
  <circle cx="-1300" cy="-1050" r="10"
    style="fill:none;stroke:#800;stroke-width:2"  />
  <line x1="-1300" y1="-1250" x2="-1000" y2="-1250" style="stroke:#800;stroke-width:10;stroke-opacity:1.000000;stroke-linecap:round"/>
  <g transform="translate(-1235,-1256) rotate(0)" > <text font-size="100.0" fill="#800" font-family="monospace"  >
   84
  </text> </g> 
  <g transform="translate(-982,-1210) rotate(0)" > <text font-size="100.0" fill="#088" font-family="monospace"  >
   SDA
  </text> </g> 
  <circle cx="-1300" cy="-1250" r="10"
    style="fill:none;stroke:#800;stroke-width:2"  />
  <line x1="-1300" y1="-1350" x2="-1000" y2="-1350" style="stroke:#800;stroke-width:10;stroke-opacity:1.000000;stroke-linecap:round"/>
  <g transform="translate(-1235,-1356) rotate(0)" > <text font-size="100.0" fill="#800" font-family="monospace"  >
   83
  </text> </g> 
  <g transform="translate(-982,-1310) rotate(0)" > <text font-size="100.0" fill="#088" font-family="monospace"  >
   SCL
  </text> </g> 
  <circle cx="-1300" cy="-1350" r="10"
    style="fill:none;stroke:#800;stroke-width:2"  />
  <line x1="-1300" y1="-1450" x2="-1000" y2="-1450" style="stroke:#800;stroke-width:10;stroke-opacity:1.000000;stroke-linecap:round"/>
  <g transform="translate(-1192,-1456) rotate(0)" > <text font-size="100.0" fill="#800" font-family="monospace"  >
   4
  </text> </g> 
  <g transform="translate(-982,-1410) rotate(0)" > <text font-size="100.0" fill="#088" font-family="monospace"  >
   SA
  </text> </g> 
  <circle cx="-1300" cy="-1450" r="10"
    style="fill:none;stroke:#800;stroke-width:2"  />
  <line x1="-1300" y1="-1550" x2="-1070" y2="-1550" style="stroke:#800;stroke-width:10;stroke-opacity:1.000000;stroke-linecap:round"/>
  <circle cx="-1035" cy="-1550" r="35"
    style="fill:none;stroke:#800;stroke-width:10"  />
  <g transform="translate(-1192,-1556) rotate(0)" > <text font-size="100.0" fill="#800" font-family="monospace"  >
   1
  </text> </g> 
  <g transform="translate(-982,-1510) rotate(0)" > <text font-size="100.0" fill="#088" font-family="monospace"  >
   RESN
  </text> </g> 
  <circle cx="-1300" cy="-1550" r="10"
    style="fill:none;stroke:#800;stroke-width:2"  />
  <line x1="-300" y1="2350" x2="-300" y2="2050" style="stroke:#800;stroke-width:10;stroke-opacity:1.000000;stroke-linecap:round"/>
  <g transform="translate(-315,2215) rotate(-90)" > <text font-size="100.0" fill="#800" font-family="monospace"  >
   3
  </text> </g> 
  <g transform="translate(-292,2000) rotate(-90)" > <text font-size="100.0" fill="#088" font-family="monospace"  >
   VSS
  </text> </g> 
  <circle cx="-300" cy="2350" r="10"
    style="fill:none;stroke:#800;stroke-width:2"  />
  <line x1="-200" y1="2350" x2="-200" y2="2050" style="stroke:#800;stroke-width:10;stroke-opacity:1.000000;stroke-linecap:round"/>
  <g transform="translate(-215,2230) rotate(-90)" > <text font-size="100.0" fill="#800" font-family="monospace"  >
   15
  </text> </g> 
  <g transform="translate(-192,2000) rotate(-90)" > <text font-size="100.0" fill="#088" font-family="monospace"  >
   VSS
  </text> </g> 
  <circle cx="-200" cy="2350" r="10"
    style="fill:none;stroke:#800;stroke-width:2"  />
  <line x1="-100" y1="2350" x2="-100" y2="2050" style="stroke:#800;stroke-width:10;stroke-opacity:1.000000;stroke-linecap:round"/>
  <g transform="translate(-115,2230) rotate(-90)" > <text font-size="100.0" fill="#800" font-family="monospace"  >
   24
  </text> </g> 
  <g transform="translate(-92,2000) rotate(-90)" > <text font-size="100.0" fill="#088" font-family="monospace"  >
   VSS
  </text> </g> 
  <circle cx="-100" cy="2350" r="10"
    style="fill:none;stroke:#800;stroke-width:2"  />
  <line x1="0" y1="2350" x2="0" y2="2050" style="stroke:#800;stroke-width:10;stroke-opacity:1.000000;stroke-linecap:round"/>
  <g transform="translate(-15,2230) rotate(-90)" > <text font-size="100.0" fill="#800" font-family="monospace"  >
   30
  </text> </g> 
  <g transform="translate(7,2000) rotate(-90)" > <text font-size="100.0" fill="#088" font-family="monospace"  >
   VSS
  </text> </g> 
  <circle cx="0" cy="2350" r="10"
    style="fill:none;stroke:#800;stroke-width:2"  />
  <line x1="100" y1="2350" x2="100" y2="2050" style="stroke:#800;stroke-width:10;stroke-opacity:1.000000;stroke-linecap:round"/>
  <g transform="translate(85,2230) rotate(-90)" > <text font-size="100.0" fill="#800" font-family="monospace"  >
   39
  </text> </g> 
  <g transform="translate(107,2000) rotate(-90)" > <text font-size="100.0" fill="#088" font-family="monospace"  >
   VSS
  </text> </g> 
  <circle cx="100" cy="2350" r="10"
    style="fill:none;stroke:#800;stroke-width:2"  />
  <line x1="200" y1="2350" x2="200" y2="2050" style="stroke:#800;stroke-width:10;stroke-opacity:1.000000;stroke-linecap:round"/>
  <g transform="translate(185,2230) rotate(-90)" > <text font-size="100.0" fill="#800" font-family="monospace"  >
   42
  </text> </g> 
  <g transform="translate(207,2000) rotate(-90)" > <text font-size="100.0" fill="#088" font-family="monospace"  >
   VSS
  </text> </g> 
  <circle cx="200" cy="2350" r="10"
    style="fill:none;stroke:#800;stroke-width:2"  />
  <line x1="300" y1="2350" x2="300" y2="2050" style="stroke:#800;stroke-width:10;stroke-opacity:1.000000;stroke-linecap:round"/>
  <g transform="translate(285,2230) rotate(-90)" > <text font-size="100.0" fill="#800" font-family="monospace"  >
   51
  </text> </g> 
  <g transform="translate(307,2000) rotate(-90)" > <text font-size="100.0" fill="#088" font-family="monospace"  >
   VSS
  </text> </g> 
  <circle cx="300" cy="2350" r="10"
    style="fill:none;stroke:#800;stroke-width:2"  />
  <line x1="400" y1="2350" x2="400" y2="2050" style="stroke:#800;stroke-width:10;stroke-opacity:1.000000;stroke-linecap:round"/>
  <g transform="translate(385,2230) rotate(-90)" > <text font-size="100.0" fill="#800" font-family="monospace"  >
   79
  </text> </g> 
  <g transform="translate(407,2000) rotate(-90)" > <text font-size="100.0" fill="#088" font-family="monospace"  >
   VSS
  </text> </g> 
  <circle cx="400" cy="2350" r="10"
    style="fill:none;stroke:#800;stroke-width:2"  />
  <line x1="500" y1="2350" x2="500" y2="2050" style="stroke:#800;stroke-width:10;stroke-opacity:1.000000;stroke-linecap:round"/>
  <g transform="translate(485,2230) rotate(-90)" > <text font-size="100.0" fill="#800" font-family="monospace"  >
   81
  </text> </g> 
  <g transform="translate(507,2000) rotate(-90)" > <text font-size="100.0" fill="#088" font-family="monospace"  >
   VSS
  </text> </g> 
  <circle cx="500" cy="2350" r="10"
    style="fill:none;stroke:#800;stroke-width:2"  />
  <line x1="800" y1="2350" x2="800" y2="2050" style="stroke:#800;stroke-width:10;stroke-opacity:1.000000;stroke-linecap:round"/>
  <g transform="translate(785,2230) rotate(-90)" > <text font-size="100.0" fill="#800" font-family="monospace"  >
   67
  </text> </g> 
  <g transform="translate(807,2000) rotate(-90)" > <text font-size="100.0" fill="#088" font-family="monospace"  >
   VSSA
  </text> </g> 
  <circle cx="800" cy="2350" r="10"
    style="fill:none;stroke:#800;stroke-width:2"  />
 </g>
</svg>
