<?xml version="1.0"?>
<svg height="492" width="492"  >
 <g style="fill-opacity:1.0; stroke:black;
  stroke-width:1;" transform=" translate( 246.25,246.25 ) scale( 0.15,0.15 )">
  <g transform="translate(320,-920) rotate(0)" > <text font-size="100.0" fill="#088" font-family="monospace"  >
   U
  </text> </g> 
  <g transform="translate(140,880) rotate(0)" > <text font-size="100.0" fill="#088" font-family="monospace"  >
   TDA8501
  </text> </g> 
  <rect x="-600" y="-850" height="1600"
    width="1200" style="fill:none;stroke:#800;stroke-width:10" />
  <line x1="0" y1="-1150" x2="0" y2="-850" style="stroke:#800;stroke-width:10;stroke-opacity:1.000000;stroke-linecap:round"/>
  <g transform="translate(-15,-985) rotate(-90)" > <text font-size="100.0" fill="#800" font-family="monospace"  >
   8
  </text> </g> 
  <g transform="translate(7,-620) rotate(-90)" > <text font-size="100.0" fill="#088" font-family="monospace"  >
   VCC
  </text> </g> 
  <circle cx="0" cy="-1150" r="10"
    style="fill:none;stroke:#800;stroke-width:2"  />
  <line x1="900" y1="500" x2="600" y2="500" style="stroke:#800;stroke-width:10;stroke-opacity:1.000000;stroke-linecap:round"/>
  <g transform="translate(665,494) rotate(0)" > <text font-size="100.0" fill="#800" font-family="monospace"  >
   15
  </text> </g> 
  <g transform="translate(380,540) rotate(0)" > <text font-size="100.0" fill="#088" font-family="monospace"  >
   FLT
  </text> </g> 
  <circle cx="900" cy="500" r="10"
    style="fill:none;stroke:#800;stroke-width:2"  />
  <line x1="900" y1="400" x2="600" y2="400" style="stroke:#800;stroke-width:10;stroke-opacity:1.000000;stroke-linecap:round"/>
  <g transform="translate(665,394) rotate(0)" > <text font-size="100.0" fill="#800" font-family="monospace"  >
   17
  </text> </g> 
  <g transform="translate(80,440) rotate(0)" > <text font-size="100.0" fill="#088" font-family="monospace"  >
   NTSC/PAL
  </text> </g> 
  <circle cx="900" cy="400" r="10"
    style="fill:none;stroke:#800;stroke-width:2"  />
  <line x1="900" y1="300" x2="600" y2="300" style="stroke:#800;stroke-width:10;stroke-opacity:1.000000;stroke-linecap:round"/>
  <g transform="translate(665,294) rotate(0)" > <text font-size="100.0" fill="#800" font-family="monospace"  >
   18
  </text> </g> 
  <g transform="translate(260,340) rotate(0)" > <text font-size="100.0" fill="#088" font-family="monospace"  >
   NOTCH
  </text> </g> 
  <circle cx="900" cy="300" r="10"
    style="fill:none;stroke:#800;stroke-width:2"  />
  <line x1="900" y1="200" x2="600" y2="200" style="stroke:#800;stroke-width:10;stroke-opacity:1.000000;stroke-linecap:round"/>
  <g transform="translate(665,194) rotate(0)" > <text font-size="100.0" fill="#800" font-family="monospace"  >
   21
  </text> </g> 
  <g transform="translate(260,240) rotate(0)" > <text font-size="100.0" fill="#088" font-family="monospace"  >
   B/ADJ
  </text> </g> 
  <circle cx="900" cy="200" r="10"
    style="fill:none;stroke:#800;stroke-width:2"  />
  <line x1="900" y1="0" x2="600" y2="0" style="stroke:#800;stroke-width:10;stroke-opacity:1.000000;stroke-linecap:round"/>
  <g transform="translate(665,-6) rotate(0)" > <text font-size="100.0" fill="#800" font-family="monospace"  >
   14
  </text> </g> 
  <g transform="translate(260,40) rotate(0)" > <text font-size="100.0" fill="#088" font-family="monospace"  >
   C/OUT
  </text> </g> 
  <circle cx="900" cy="0" r="10"
    style="fill:none;stroke:#800;stroke-width:2"  />
  <line x1="900" y1="-100" x2="600" y2="-100" style="stroke:#800;stroke-width:10;stroke-opacity:1.000000;stroke-linecap:round"/>
  <g transform="translate(665,-106) rotate(0)" > <text font-size="100.0" fill="#800" font-family="monospace"  >
   16
  </text> </g> 
  <g transform="translate(320,-60) rotate(0)" > <text font-size="100.0" fill="#088" font-family="monospace"  >
   CVBS
  </text> </g> 
  <circle cx="900" cy="-100" r="10"
    style="fill:none;stroke:#800;stroke-width:2"  />
  <line x1="900" y1="-200" x2="600" y2="-200" style="stroke:#800;stroke-width:10;stroke-opacity:1.000000;stroke-linecap:round"/>
  <g transform="translate(665,-206) rotate(0)" > <text font-size="100.0" fill="#800" font-family="monospace"  >
   19
  </text> </g> 
  <g transform="translate(260,-160) rotate(0)" > <text font-size="100.0" fill="#088" font-family="monospace"  >
   Y/OUT
  </text> </g> 
  <circle cx="900" cy="-200" r="10"
    style="fill:none;stroke:#800;stroke-width:2"  />
  <line x1="900" y1="-400" x2="600" y2="-400" style="stroke:#800;stroke-width:10;stroke-opacity:1.000000;stroke-linecap:round"/>
  <g transform="translate(665,-406) rotate(0)" > <text font-size="100.0" fill="#800" font-family="monospace"  >
   13
  </text> </g> 
  <g transform="translate(320,-360) rotate(0)" > <text font-size="100.0" fill="#088" font-family="monospace"  >
   VREF
  </text> </g> 
  <circle cx="900" cy="-400" r="10"
    style="fill:none;stroke:#800;stroke-width:2"  />
  <line x1="900" y1="-700" x2="600" y2="-700" style="stroke:#800;stroke-width:10;stroke-opacity:1.000000;stroke-linecap:round"/>
  <g transform="translate(665,-706) rotate(0)" > <text font-size="100.0" fill="#800" font-family="monospace"  >
   20
  </text> </g> 
  <g transform="translate(260,-660) rotate(0)" > <text font-size="100.0" fill="#088" font-family="monospace"  >
   Y+SIN
  </text> </g> 
  <circle cx="900" cy="-700" r="10"
    style="fill:none;stroke:#800;stroke-width:2"  />
  <line x1="900" y1="-800" x2="600" y2="-800" style="stroke:#800;stroke-width:10;stroke-opacity:1.000000;stroke-linecap:round"/>
  <g transform="translate(665,-806) rotate(0)" > <text font-size="100.0" fill="#800" font-family="monospace"  >
   22
  </text> </g> 
  <g transform="translate(200,-760) rotate(0)" > <text font-size="100.0" fill="#088" font-family="monospace"  >
   Y+SOUT
  </text> </g> 
  <circle cx="900" cy="-800" r="10"
    style="fill:none;stroke:#800;stroke-width:2"  />
  <line x1="-900" y1="700" x2="-600" y2="700" style="stroke:#800;stroke-width:10;stroke-opacity:1.000000;stroke-linecap:round"/>
  <g transform="translate(-835,694) rotate(0)" > <text font-size="100.0" fill="#800" font-family="monospace"  >
   23
  </text> </g> 
  <g transform="translate(-582,740) rotate(0)" > <text font-size="100.0" fill="#088" font-family="monospace"  >
   OSC
  </text> </g> 
  <circle cx="-900" cy="700" r="10"
    style="fill:none;stroke:#800;stroke-width:2"  />
  <line x1="-900" y1="500" x2="-600" y2="500" style="stroke:#800;stroke-width:10;stroke-opacity:1.000000;stroke-linecap:round"/>
  <g transform="translate(-835,494) rotate(0)" > <text font-size="100.0" fill="#800" font-family="monospace"  >
   12
  </text> </g> 
  <g transform="translate(-582,540) rotate(0)" > <text font-size="100.0" fill="#088" font-family="monospace"  >
   VOFF
  </text> </g> 
  <circle cx="-900" cy="500" r="10"
    style="fill:none;stroke:#800;stroke-width:2"  />
  <line x1="-900" y1="300" x2="-600" y2="300" style="stroke:#800;stroke-width:10;stroke-opacity:1.000000;stroke-linecap:round"/>
  <g transform="translate(-835,294) rotate(0)" > <text font-size="100.0" fill="#800" font-family="monospace"  >
   11
  </text> </g> 
  <g transform="translate(-582,340) rotate(0)" > <text font-size="100.0" fill="#088" font-family="monospace"  >
   B
  </text> </g> 
  <circle cx="-900" cy="300" r="10"
    style="fill:none;stroke:#800;stroke-width:2"  />
  <line x1="-900" y1="200" x2="-600" y2="200" style="stroke:#800;stroke-width:10;stroke-opacity:1.000000;stroke-linecap:round"/>
  <g transform="translate(-792,194) rotate(0)" > <text font-size="100.0" fill="#800" font-family="monospace"  >
   9
  </text> </g> 
  <g transform="translate(-582,240) rotate(0)" > <text font-size="100.0" fill="#088" font-family="monospace"  >
   G
  </text> </g> 
  <circle cx="-900" cy="200" r="10"
    style="fill:none;stroke:#800;stroke-width:2"  />
  <line x1="-900" y1="100" x2="-600" y2="100" style="stroke:#800;stroke-width:10;stroke-opacity:1.000000;stroke-linecap:round"/>
  <g transform="translate(-792,94) rotate(0)" > <text font-size="100.0" fill="#800" font-family="monospace"  >
   7
  </text> </g> 
  <g transform="translate(-582,140) rotate(0)" > <text font-size="100.0" fill="#088" font-family="monospace"  >
   R
  </text> </g> 
  <circle cx="-900" cy="100" r="10"
    style="fill:none;stroke:#800;stroke-width:2"  />
  <line x1="-900" y1="-100" x2="-600" y2="-100" style="stroke:#800;stroke-width:10;stroke-opacity:1.000000;stroke-linecap:round"/>
  <g transform="translate(-792,-106) rotate(0)" > <text font-size="100.0" fill="#800" font-family="monospace"  >
   2
  </text> </g> 
  <g transform="translate(-582,-60) rotate(0)" > <text font-size="100.0" fill="#088" font-family="monospace"  >
   MCTR
  </text> </g> 
  <circle cx="-900" cy="-100" r="10"
    style="fill:none;stroke:#800;stroke-width:2"  />
  <line x1="-900" y1="-200" x2="-600" y2="-200" style="stroke:#800;stroke-width:10;stroke-opacity:1.000000;stroke-linecap:round"/>
  <g transform="translate(-792,-206) rotate(0)" > <text font-size="100.0" fill="#800" font-family="monospace"  >
   6
  </text> </g> 
  <g transform="translate(-582,-160) rotate(0)" > <text font-size="100.0" fill="#088" font-family="monospace"  >
   UOFF
  </text> </g> 
  <circle cx="-900" cy="-200" r="10"
    style="fill:none;stroke:#800;stroke-width:2"  />
  <line x1="-900" y1="-300" x2="-600" y2="-300" style="stroke:#800;stroke-width:10;stroke-opacity:1.000000;stroke-linecap:round"/>
  <g transform="translate(-792,-306) rotate(0)" > <text font-size="100.0" fill="#800" font-family="monospace"  >
   5
  </text> </g> 
  <g transform="translate(-582,-260) rotate(0)" > <text font-size="100.0" fill="#088" font-family="monospace"  >
   Y
  </text> </g> 
  <circle cx="-900" cy="-300" r="10"
    style="fill:none;stroke:#800;stroke-width:2"  />
  <line x1="-900" y1="-400" x2="-600" y2="-400" style="stroke:#800;stroke-width:10;stroke-opacity:1.000000;stroke-linecap:round"/>
  <g transform="translate(-792,-406) rotate(0)" > <text font-size="100.0" fill="#800" font-family="monospace"  >
   4
  </text> </g> 
  <g transform="translate(-582,-360) rotate(0)" > <text font-size="100.0" fill="#088" font-family="monospace"  >
   H/2
  </text> </g> 
  <circle cx="-900" cy="-400" r="10"
    style="fill:none;stroke:#800;stroke-width:2"  />
  <line x1="-900" y1="-500" x2="-600" y2="-500" style="stroke:#800;stroke-width:10;stroke-opacity:1.000000;stroke-linecap:round"/>
  <g transform="translate(-792,-506) rotate(0)" > <text font-size="100.0" fill="#800" font-family="monospace"  >
   3
  </text> </g> 
  <g transform="translate(-582,-460) rotate(0)" > <text font-size="100.0" fill="#088" font-family="monospace"  >
   -B.Y
  </text> </g> 
  <circle cx="-900" cy="-500" r="10"
    style="fill:none;stroke:#800;stroke-width:2"  />
  <line x1="-900" y1="-600" x2="-600" y2="-600" style="stroke:#800;stroke-width:10;stroke-opacity:1.000000;stroke-linecap:round"/>
  <g transform="translate(-792,-606) rotate(0)" > <text font-size="100.0" fill="#800" font-family="monospace"  >
   1
  </text> </g> 
  <g transform="translate(-582,-560) rotate(0)" > <text font-size="100.0" fill="#088" font-family="monospace"  >
   -R.Y
  </text> </g> 
  <circle cx="-900" cy="-600" r="10"
    style="fill:none;stroke:#800;stroke-width:2"  />
  <line x1="-900" y1="-800" x2="-600" y2="-800" style="stroke:#800;stroke-width:10;stroke-opacity:1.000000;stroke-linecap:round"/>
  <g transform="translate(-835,-806) rotate(0)" > <text font-size="100.0" fill="#800" font-family="monospace"  >
   24
  </text> </g> 
  <g transform="translate(-582,-760) rotate(0)" > <text font-size="100.0" fill="#088" font-family="monospace"  >
   CS
  </text> </g> 
  <circle cx="-900" cy="-800" r="10"
    style="fill:none;stroke:#800;stroke-width:2"  />
  <line x1="0" y1="1050" x2="0" y2="750" style="stroke:#800;stroke-width:10;stroke-opacity:1.000000;stroke-linecap:round"/>
  <g transform="translate(-15,930) rotate(-90)" > <text font-size="100.0" fill="#800" font-family="monospace"  >
   10
  </text> </g> 
  <g transform="translate(7,700) rotate(-90)" > <text font-size="100.0" fill="#088" font-family="monospace"  >
   VSS
  </text> </g> 
  <circle cx="0" cy="1050" r="10"
    style="fill:none;stroke:#800;stroke-width:2"  />
 </g>
</svg>
