<?xml version="1.0"?>
<svg height="472" width="472"  >
 <g style="fill-opacity:1.0; stroke:black;
  stroke-width:1;" transform=" translate( 236.25,236.25 ) scale( 0.15,0.15 )">
  <g transform="translate(-30,-620) rotate(0)" > <text font-size="100.0" fill="#088" font-family="monospace"  >
   U
  </text> </g> 
  <g transform="translate(-210,680) rotate(0)" > <text font-size="100.0" fill="#088" font-family="monospace"  >
   TPA5050
  </text> </g> 
  <rect x="-400" y="-600" height="1200"
    width="800" style="fill:none;stroke:#800;stroke-width:10" />
  <line x1="-700" y1="-200" x2="-400" y2="-200" style="stroke:#800;stroke-width:10;stroke-opacity:1.000000;stroke-linecap:round"/>
  <g transform="translate(-592,-206) rotate(0)" > <text font-size="100.0" fill="#800" font-family="monospace"  >
   1
  </text> </g> 
  <g transform="translate(-382,-165) rotate(0)" > <text font-size="83.3333333333" fill="#088" font-family="monospace"  >
   LRCLK
  </text> </g> 
  <circle cx="-700" cy="-200" r="10"
    style="fill:none;stroke:#800;stroke-width:2"  />
  <line x1="-700" y1="-500" x2="-400" y2="-500" style="stroke:#800;stroke-width:10;stroke-opacity:1.000000;stroke-linecap:round"/>
  <g transform="translate(-592,-506) rotate(0)" > <text font-size="100.0" fill="#800" font-family="monospace"  >
   2
  </text> </g> 
  <g transform="translate(-382,-465) rotate(0)" > <text font-size="83.3333333333" fill="#088" font-family="monospace"  >
   DATA
  </text> </g> 
  <circle cx="-700" cy="-500" r="10"
    style="fill:none;stroke:#800;stroke-width:2"  />
  <line x1="-700" y1="0" x2="-400" y2="0" style="stroke:#800;stroke-width:10;stroke-opacity:1.000000;stroke-linecap:round"/>
  <g transform="translate(-592,-6) rotate(0)" > <text font-size="100.0" fill="#800" font-family="monospace"  >
   3
  </text> </g> 
  <g transform="translate(-382,35) rotate(0)" > <text font-size="83.3333333333" fill="#088" font-family="monospace"  >
   SCL
  </text> </g> 
  <circle cx="-700" cy="0" r="10"
    style="fill:none;stroke:#800;stroke-width:2"  />
  <line x1="-700" y1="100" x2="-400" y2="100" style="stroke:#800;stroke-width:10;stroke-opacity:1.000000;stroke-linecap:round"/>
  <g transform="translate(-592,94) rotate(0)" > <text font-size="100.0" fill="#800" font-family="monospace"  >
   4
  </text> </g> 
  <g transform="translate(-382,135) rotate(0)" > <text font-size="83.3333333333" fill="#088" font-family="monospace"  >
   SDA
  </text> </g> 
  <circle cx="-700" cy="100" r="10"
    style="fill:none;stroke:#800;stroke-width:2"  />
  <line x1="700" y1="0" x2="400" y2="0" style="stroke:#800;stroke-width:10;stroke-opacity:1.000000;stroke-linecap:round"/>
  <g transform="translate(507,-6) rotate(0)" > <text font-size="100.0" fill="#800" font-family="monospace"  >
   5
  </text> </g> 
  <g transform="translate(209,35) rotate(0)" > <text font-size="83.3333333333" fill="#088" font-family="monospace"  >
   GND
  </text> </g> 
  <circle cx="700" cy="0" r="10"
    style="fill:none;stroke:#800;stroke-width:2"  />
  <line x1="700" y1="100" x2="400" y2="100" style="stroke:#800;stroke-width:10;stroke-opacity:1.000000;stroke-linecap:round"/>
  <g transform="translate(507,94) rotate(0)" > <text font-size="100.0" fill="#800" font-family="monospace"  >
   6
  </text> </g> 
  <g transform="translate(209,135) rotate(0)" > <text font-size="83.3333333333" fill="#088" font-family="monospace"  >
   GND
  </text> </g> 
  <circle cx="700" cy="100" r="10"
    style="fill:none;stroke:#800;stroke-width:2"  />
  <line x1="700" y1="200" x2="400" y2="200" style="stroke:#800;stroke-width:10;stroke-opacity:1.000000;stroke-linecap:round"/>
  <g transform="translate(507,194) rotate(0)" > <text font-size="100.0" fill="#800" font-family="monospace"  >
   7
  </text> </g> 
  <g transform="translate(209,235) rotate(0)" > <text font-size="83.3333333333" fill="#088" font-family="monospace"  >
   GND
  </text> </g> 
  <circle cx="700" cy="200" r="10"
    style="fill:none;stroke:#800;stroke-width:2"  />
  <line x1="700" y1="300" x2="400" y2="300" style="stroke:#800;stroke-width:10;stroke-opacity:1.000000;stroke-linecap:round"/>
  <g transform="translate(507,294) rotate(0)" > <text font-size="100.0" fill="#800" font-family="monospace"  >
   8
  </text> </g> 
  <g transform="translate(209,335) rotate(0)" > <text font-size="83.3333333333" fill="#088" font-family="monospace"  >
   GND
  </text> </g> 
  <circle cx="700" cy="300" r="10"
    style="fill:none;stroke:#800;stroke-width:2"  />
  <line x1="700" y1="400" x2="400" y2="400" style="stroke:#800;stroke-width:10;stroke-opacity:1.000000;stroke-linecap:round"/>
  <g transform="translate(507,394) rotate(0)" > <text font-size="100.0" fill="#800" font-family="monospace"  >
   9
  </text> </g> 
  <g transform="translate(209,435) rotate(0)" > <text font-size="83.3333333333" fill="#088" font-family="monospace"  >
   GND
  </text> </g> 
  <circle cx="700" cy="400" r="10"
    style="fill:none;stroke:#800;stroke-width:2"  />
  <line x1="700" y1="-350" x2="400" y2="-350" style="stroke:#800;stroke-width:10;stroke-opacity:1.000000;stroke-linecap:round"/>
  <g transform="translate(465,-356) rotate(0)" > <text font-size="100.0" fill="#800" font-family="monospace"  >
   10
  </text> </g> 
  <g transform="translate(159,-315) rotate(0)" > <text font-size="83.3333333333" fill="#088" font-family="monospace"  >
   ADD0
  </text> </g> 
  <circle cx="700" cy="-350" r="10"
    style="fill:none;stroke:#800;stroke-width:2"  />
  <line x1="700" y1="-250" x2="400" y2="-250" style="stroke:#800;stroke-width:10;stroke-opacity:1.000000;stroke-linecap:round"/>
  <g transform="translate(465,-256) rotate(0)" > <text font-size="100.0" fill="#800" font-family="monospace"  >
   11
  </text> </g> 
  <g transform="translate(159,-215) rotate(0)" > <text font-size="83.3333333333" fill="#088" font-family="monospace"  >
   ADD1
  </text> </g> 
  <circle cx="700" cy="-250" r="10"
    style="fill:none;stroke:#800;stroke-width:2"  />
  <line x1="700" y1="-150" x2="400" y2="-150" style="stroke:#800;stroke-width:10;stroke-opacity:1.000000;stroke-linecap:round"/>
  <g transform="translate(465,-156) rotate(0)" > <text font-size="100.0" fill="#800" font-family="monospace"  >
   12
  </text> </g> 
  <g transform="translate(159,-115) rotate(0)" > <text font-size="83.3333333333" fill="#088" font-family="monospace"  >
   ADD2
  </text> </g> 
  <circle cx="700" cy="-150" r="10"
    style="fill:none;stroke:#800;stroke-width:2"  />
  <line x1="-700" y1="300" x2="-400" y2="300" style="stroke:#800;stroke-width:10;stroke-opacity:1.000000;stroke-linecap:round"/>
  <g transform="translate(-635,294) rotate(0)" > <text font-size="100.0" fill="#800" font-family="monospace"  >
   13
  </text> </g> 
  <g transform="translate(-382,335) rotate(0)" > <text font-size="83.3333333333" fill="#088" font-family="monospace"  >
   VDD
  </text> </g> 
  <circle cx="-700" cy="300" r="10"
    style="fill:none;stroke:#800;stroke-width:2"  />
  <line x1="700" y1="500" x2="400" y2="500" style="stroke:#800;stroke-width:10;stroke-opacity:1.000000;stroke-linecap:round"/>
  <g transform="translate(465,494) rotate(0)" > <text font-size="100.0" fill="#800" font-family="monospace"  >
   14
  </text> </g> 
  <g transform="translate(209,535) rotate(0)" > <text font-size="83.3333333333" fill="#088" font-family="monospace"  >
   GND
  </text> </g> 
  <circle cx="700" cy="500" r="10"
    style="fill:none;stroke:#800;stroke-width:2"  />
  <line x1="700" y1="-500" x2="400" y2="-500" style="stroke:#800;stroke-width:10;stroke-opacity:1.000000;stroke-linecap:round"/>
  <g transform="translate(465,-506) rotate(0)" > <text font-size="100.0" fill="#800" font-family="monospace"  >
   15
  </text> </g> 
  <g transform="translate(-40,-465) rotate(0)" > <text font-size="83.3333333333" fill="#088" font-family="monospace"  >
   DATA_OUT
  </text> </g> 
  <circle cx="700" cy="-500" r="10"
    style="fill:none;stroke:#800;stroke-width:2"  />
  <line x1="-700" y1="-350" x2="-400" y2="-350" style="stroke:#800;stroke-width:10;stroke-opacity:1.000000;stroke-linecap:round"/>
  <g transform="translate(-635,-356) rotate(0)" > <text font-size="100.0" fill="#800" font-family="monospace"  >
   16
  </text> </g> 
  <g transform="translate(-382,-315) rotate(0)" > <text font-size="83.3333333333" fill="#088" font-family="monospace"  >
   BCLK
  </text> </g> 
  <circle cx="-700" cy="-350" r="10"
    style="fill:none;stroke:#800;stroke-width:2"  />
  <line x1="-600" y1="500" x2="-400" y2="500" style="stroke:#800;stroke-width:10;stroke-opacity:1.000000;stroke-linecap:round"/>
  <g transform="translate(-570,494) rotate(0)" > <text font-size="83.3333333333" fill="#800" font-family="monospace"  >
   17
  </text> </g> 
  <g transform="translate(-382,525) rotate(0)" > <text font-size="50.0" fill="#088" font-family="monospace"  >
   THERMAL_PAD
  </text> </g> 
  <circle cx="-600" cy="500" r="10"
    style="fill:none;stroke:#800;stroke-width:2"  />
 </g>
</svg>
