<?xml version="1.0"?>
<svg height="520" width="375"  >
 <g style="fill-opacity:1.0; stroke:black;
  stroke-width:1;" transform=" translate( 187.5625,260.0 ) scale( 0.15,0.15 )">
  <g transform="translate(-325,-1025) rotate(0)" > <text font-size="83.3333333333" fill="#088" font-family="monospace"  >
   U
  </text> </g> 
  <g transform="translate(24,1075) rotate(0)" > <text font-size="83.3333333333" fill="#088" font-family="monospace"  >
   HM628512BFP-7
  </text> </g> 
  <line x1="-550" y1="900" x2="-400" y2="900" style="stroke:#800;stroke-width:10;stroke-opacity:1.000000;stroke-linecap:round"/>
  <g transform="translate(-499,894) rotate(0)" > <text font-size="58.3333333333" fill="#800" font-family="monospace"  >
   1
  </text> </g> 
  <g transform="translate(-382,927) rotate(0)" > <text font-size="58.3333333333" fill="#088" font-family="monospace"  >
   A18
  </text> </g> 
  <circle cx="-550" cy="900" r="10"
    style="fill:none;stroke:#800;stroke-width:2"  />
  <line x1="-550" y1="700" x2="-400" y2="700" style="stroke:#800;stroke-width:10;stroke-opacity:1.000000;stroke-linecap:round"/>
  <g transform="translate(-499,694) rotate(0)" > <text font-size="58.3333333333" fill="#800" font-family="monospace"  >
   2
  </text> </g> 
  <g transform="translate(-382,727) rotate(0)" > <text font-size="58.3333333333" fill="#088" font-family="monospace"  >
   A16
  </text> </g> 
  <circle cx="-550" cy="700" r="10"
    style="fill:none;stroke:#800;stroke-width:2"  />
  <line x1="-550" y1="800" x2="-400" y2="800" style="stroke:#800;stroke-width:10;stroke-opacity:1.000000;stroke-linecap:round"/>
  <g transform="translate(-524,794) rotate(0)" > <text font-size="58.3333333333" fill="#800" font-family="monospace"  >
   30
  </text> </g> 
  <g transform="translate(-382,827) rotate(0)" > <text font-size="58.3333333333" fill="#088" font-family="monospace"  >
   A17
  </text> </g> 
  <circle cx="-550" cy="800" r="10"
    style="fill:none;stroke:#800;stroke-width:2"  />
  <line x1="-550" y1="600" x2="-400" y2="600" style="stroke:#800;stroke-width:10;stroke-opacity:1.000000;stroke-linecap:round"/>
  <g transform="translate(-524,594) rotate(0)" > <text font-size="58.3333333333" fill="#800" font-family="monospace"  >
   31
  </text> </g> 
  <g transform="translate(-382,627) rotate(0)" > <text font-size="58.3333333333" fill="#088" font-family="monospace"  >
   A15
  </text> </g> 
  <circle cx="-550" cy="600" r="10"
    style="fill:none;stroke:#800;stroke-width:2"  />
  <g transform="translate(-8,-982) rotate(-90)" > <text font-size="58.3333333333" fill="#888" font-family="monospace"  >
   32
  </text> </g> 
  <g transform="translate(4,-865) rotate(-90)" > <text font-size="58.3333333333" fill="#888" font-family="monospace"  >
   VCC
  </text> </g> 
  <circle cx="0" cy="-1000" r="10"
    style="fill:none;stroke:#888;stroke-width:2"  />
  <g transform="translate(-8,1017) rotate(-90)" > <text font-size="58.3333333333" fill="#888" font-family="monospace"  >
   16
  </text> </g> 
  <g transform="translate(4,970) rotate(-90)" > <text font-size="58.3333333333" fill="#888" font-family="monospace"  >
   GND
  </text> </g> 
  <circle cx="0" cy="1000" r="10"
    style="fill:none;stroke:#888;stroke-width:2"  />
  <rect x="-400" y="-1000" height="2000"
    width="800" style="fill:none;stroke:#800;stroke-width:10" />
  <line x1="-550" y1="500" x2="-400" y2="500" style="stroke:#800;stroke-width:10;stroke-opacity:1.000000;stroke-linecap:round"/>
  <g transform="translate(-499,494) rotate(0)" > <text font-size="58.3333333333" fill="#800" font-family="monospace"  >
   3
  </text> </g> 
  <g transform="translate(-382,527) rotate(0)" > <text font-size="58.3333333333" fill="#088" font-family="monospace"  >
   A14
  </text> </g> 
  <circle cx="-550" cy="500" r="10"
    style="fill:none;stroke:#800;stroke-width:2"  />
  <line x1="-550" y1="300" x2="-400" y2="300" style="stroke:#800;stroke-width:10;stroke-opacity:1.000000;stroke-linecap:round"/>
  <g transform="translate(-499,294) rotate(0)" > <text font-size="58.3333333333" fill="#800" font-family="monospace"  >
   4
  </text> </g> 
  <g transform="translate(-382,327) rotate(0)" > <text font-size="58.3333333333" fill="#088" font-family="monospace"  >
   A12
  </text> </g> 
  <circle cx="-550" cy="300" r="10"
    style="fill:none;stroke:#800;stroke-width:2"  />
  <line x1="-550" y1="-200" x2="-400" y2="-200" style="stroke:#800;stroke-width:10;stroke-opacity:1.000000;stroke-linecap:round"/>
  <g transform="translate(-499,-206) rotate(0)" > <text font-size="58.3333333333" fill="#800" font-family="monospace"  >
   5
  </text> </g> 
  <g transform="translate(-382,-172) rotate(0)" > <text font-size="58.3333333333" fill="#088" font-family="monospace"  >
   A7
  </text> </g> 
  <circle cx="-550" cy="-200" r="10"
    style="fill:none;stroke:#800;stroke-width:2"  />
  <line x1="-550" y1="-300" x2="-400" y2="-300" style="stroke:#800;stroke-width:10;stroke-opacity:1.000000;stroke-linecap:round"/>
  <g transform="translate(-499,-306) rotate(0)" > <text font-size="58.3333333333" fill="#800" font-family="monospace"  >
   6
  </text> </g> 
  <g transform="translate(-382,-272) rotate(0)" > <text font-size="58.3333333333" fill="#088" font-family="monospace"  >
   A6
  </text> </g> 
  <circle cx="-550" cy="-300" r="10"
    style="fill:none;stroke:#800;stroke-width:2"  />
  <line x1="-550" y1="-400" x2="-400" y2="-400" style="stroke:#800;stroke-width:10;stroke-opacity:1.000000;stroke-linecap:round"/>
  <g transform="translate(-499,-406) rotate(0)" > <text font-size="58.3333333333" fill="#800" font-family="monospace"  >
   7
  </text> </g> 
  <g transform="translate(-382,-372) rotate(0)" > <text font-size="58.3333333333" fill="#088" font-family="monospace"  >
   A5
  </text> </g> 
  <circle cx="-550" cy="-400" r="10"
    style="fill:none;stroke:#800;stroke-width:2"  />
  <line x1="-550" y1="-500" x2="-400" y2="-500" style="stroke:#800;stroke-width:10;stroke-opacity:1.000000;stroke-linecap:round"/>
  <g transform="translate(-499,-506) rotate(0)" > <text font-size="58.3333333333" fill="#800" font-family="monospace"  >
   8
  </text> </g> 
  <g transform="translate(-382,-472) rotate(0)" > <text font-size="58.3333333333" fill="#088" font-family="monospace"  >
   A4
  </text> </g> 
  <circle cx="-550" cy="-500" r="10"
    style="fill:none;stroke:#800;stroke-width:2"  />
  <line x1="-550" y1="-600" x2="-400" y2="-600" style="stroke:#800;stroke-width:10;stroke-opacity:1.000000;stroke-linecap:round"/>
  <g transform="translate(-499,-606) rotate(0)" > <text font-size="58.3333333333" fill="#800" font-family="monospace"  >
   9
  </text> </g> 
  <g transform="translate(-382,-572) rotate(0)" > <text font-size="58.3333333333" fill="#088" font-family="monospace"  >
   A3
  </text> </g> 
  <circle cx="-550" cy="-600" r="10"
    style="fill:none;stroke:#800;stroke-width:2"  />
  <line x1="-550" y1="-700" x2="-400" y2="-700" style="stroke:#800;stroke-width:10;stroke-opacity:1.000000;stroke-linecap:round"/>
  <g transform="translate(-524,-706) rotate(0)" > <text font-size="58.3333333333" fill="#800" font-family="monospace"  >
   10
  </text> </g> 
  <g transform="translate(-382,-672) rotate(0)" > <text font-size="58.3333333333" fill="#088" font-family="monospace"  >
   A2
  </text> </g> 
  <circle cx="-550" cy="-700" r="10"
    style="fill:none;stroke:#800;stroke-width:2"  />
  <line x1="550" y1="-300" x2="400" y2="-300" style="stroke:#800;stroke-width:10;stroke-opacity:1.000000;stroke-linecap:round"/>
  <g transform="translate(425,-306) rotate(0)" > <text font-size="58.3333333333" fill="#800" font-family="monospace"  >
   20
  </text> </g> 
  <g transform="translate(290,-272) rotate(0)" > <text font-size="58.3333333333" fill="#088" font-family="monospace"  >
   D6
  </text> </g> 
  <circle cx="550" cy="-300" r="10"
    style="fill:none;stroke:#800;stroke-width:2"  />
  <line x1="-550" y1="-800" x2="-400" y2="-800" style="stroke:#800;stroke-width:10;stroke-opacity:1.000000;stroke-linecap:round"/>
  <g transform="translate(-524,-806) rotate(0)" > <text font-size="58.3333333333" fill="#800" font-family="monospace"  >
   11
  </text> </g> 
  <g transform="translate(-382,-772) rotate(0)" > <text font-size="58.3333333333" fill="#088" font-family="monospace"  >
   A1
  </text> </g> 
  <circle cx="-550" cy="-800" r="10"
    style="fill:none;stroke:#800;stroke-width:2"  />
  <line x1="550" y1="-200" x2="400" y2="-200" style="stroke:#800;stroke-width:10;stroke-opacity:1.000000;stroke-linecap:round"/>
  <g transform="translate(425,-206) rotate(0)" > <text font-size="58.3333333333" fill="#800" font-family="monospace"  >
   21
  </text> </g> 
  <g transform="translate(290,-172) rotate(0)" > <text font-size="58.3333333333" fill="#088" font-family="monospace"  >
   D7
  </text> </g> 
  <circle cx="550" cy="-200" r="10"
    style="fill:none;stroke:#800;stroke-width:2"  />
  <line x1="-550" y1="-900" x2="-400" y2="-900" style="stroke:#800;stroke-width:10;stroke-opacity:1.000000;stroke-linecap:round"/>
  <g transform="translate(-531,-906) rotate(0)" > <text font-size="66.6666666667" fill="#800" font-family="monospace"  >
   12
  </text> </g> 
  <g transform="translate(-382,-870) rotate(0)" > <text font-size="66.6666666667" fill="#088" font-family="monospace"  >
   A0
  </text> </g> 
  <circle cx="-550" cy="-900" r="10"
    style="fill:none;stroke:#800;stroke-width:2"  />
  <line x1="550" y1="200" x2="400" y2="200" style="stroke:#800;stroke-width:10;stroke-opacity:1.000000;stroke-linecap:round"/>
  <g transform="translate(425,194) rotate(0)" > <text font-size="58.3333333333" fill="#800" font-family="monospace"  >
   22
  </text> </g> 
  <g transform="translate(255,227) rotate(0)" > <text font-size="58.3333333333" fill="#088" font-family="monospace"  >
   ~CS
  </text> </g> 
  <circle cx="550" cy="200" r="10"
    style="fill:none;stroke:#800;stroke-width:2"  />
  <line x1="550" y1="-900" x2="400" y2="-900" style="stroke:#800;stroke-width:10;stroke-opacity:1.000000;stroke-linecap:round"/>
  <g transform="translate(425,-906) rotate(0)" > <text font-size="58.3333333333" fill="#800" font-family="monospace"  >
   13
  </text> </g> 
  <g transform="translate(290,-872) rotate(0)" > <text font-size="58.3333333333" fill="#088" font-family="monospace"  >
   D0
  </text> </g> 
  <circle cx="550" cy="-900" r="10"
    style="fill:none;stroke:#800;stroke-width:2"  />
  <line x1="-550" y1="100" x2="-400" y2="100" style="stroke:#800;stroke-width:10;stroke-opacity:1.000000;stroke-linecap:round"/>
  <g transform="translate(-524,94) rotate(0)" > <text font-size="58.3333333333" fill="#800" font-family="monospace"  >
   23
  </text> </g> 
  <g transform="translate(-382,127) rotate(0)" > <text font-size="58.3333333333" fill="#088" font-family="monospace"  >
   A10
  </text> </g> 
  <circle cx="-550" cy="100" r="10"
    style="fill:none;stroke:#800;stroke-width:2"  />
  <line x1="550" y1="-800" x2="400" y2="-800" style="stroke:#800;stroke-width:10;stroke-opacity:1.000000;stroke-linecap:round"/>
  <g transform="translate(425,-806) rotate(0)" > <text font-size="58.3333333333" fill="#800" font-family="monospace"  >
   14
  </text> </g> 
  <g transform="translate(290,-772) rotate(0)" > <text font-size="58.3333333333" fill="#088" font-family="monospace"  >
   D1
  </text> </g> 
  <circle cx="550" cy="-800" r="10"
    style="fill:none;stroke:#800;stroke-width:2"  />
  <line x1="550" y1="-50" x2="400" y2="-50" style="stroke:#800;stroke-width:10;stroke-opacity:1.000000;stroke-linecap:round"/>
  <g transform="translate(425,-56) rotate(0)" > <text font-size="58.3333333333" fill="#800" font-family="monospace"  >
   24
  </text> </g> 
  <g transform="translate(255,-22) rotate(0)" > <text font-size="58.3333333333" fill="#088" font-family="monospace"  >
   ~OE
  </text> </g> 
  <circle cx="550" cy="-50" r="10"
    style="fill:none;stroke:#800;stroke-width:2"  />
  <line x1="550" y1="-700" x2="400" y2="-700" style="stroke:#800;stroke-width:10;stroke-opacity:1.000000;stroke-linecap:round"/>
  <g transform="translate(425,-706) rotate(0)" > <text font-size="58.3333333333" fill="#800" font-family="monospace"  >
   15
  </text> </g> 
  <g transform="translate(290,-672) rotate(0)" > <text font-size="58.3333333333" fill="#088" font-family="monospace"  >
   D2
  </text> </g> 
  <circle cx="550" cy="-700" r="10"
    style="fill:none;stroke:#800;stroke-width:2"  />
  <line x1="-550" y1="200" x2="-400" y2="200" style="stroke:#800;stroke-width:10;stroke-opacity:1.000000;stroke-linecap:round"/>
  <g transform="translate(-524,194) rotate(0)" > <text font-size="58.3333333333" fill="#800" font-family="monospace"  >
   25
  </text> </g> 
  <g transform="translate(-382,227) rotate(0)" > <text font-size="58.3333333333" fill="#088" font-family="monospace"  >
   A11
  </text> </g> 
  <circle cx="-550" cy="200" r="10"
    style="fill:none;stroke:#800;stroke-width:2"  />
  <line x1="-550" y1="0" x2="-400" y2="0" style="stroke:#800;stroke-width:10;stroke-opacity:1.000000;stroke-linecap:round"/>
  <g transform="translate(-524,-6) rotate(0)" > <text font-size="58.3333333333" fill="#800" font-family="monospace"  >
   26
  </text> </g> 
  <g transform="translate(-382,27) rotate(0)" > <text font-size="58.3333333333" fill="#088" font-family="monospace"  >
   A9
  </text> </g> 
  <circle cx="-550" cy="0" r="10"
    style="fill:none;stroke:#800;stroke-width:2"  />
  <line x1="550" y1="-600" x2="400" y2="-600" style="stroke:#800;stroke-width:10;stroke-opacity:1.000000;stroke-linecap:round"/>
  <g transform="translate(425,-606) rotate(0)" > <text font-size="58.3333333333" fill="#800" font-family="monospace"  >
   17
  </text> </g> 
  <g transform="translate(290,-572) rotate(0)" > <text font-size="58.3333333333" fill="#088" font-family="monospace"  >
   D3
  </text> </g> 
  <circle cx="550" cy="-600" r="10"
    style="fill:none;stroke:#800;stroke-width:2"  />
  <line x1="-550" y1="-100" x2="-400" y2="-100" style="stroke:#800;stroke-width:10;stroke-opacity:1.000000;stroke-linecap:round"/>
  <g transform="translate(-524,-106) rotate(0)" > <text font-size="58.3333333333" fill="#800" font-family="monospace"  >
   27
  </text> </g> 
  <g transform="translate(-382,-72) rotate(0)" > <text font-size="58.3333333333" fill="#088" font-family="monospace"  >
   A8
  </text> </g> 
  <circle cx="-550" cy="-100" r="10"
    style="fill:none;stroke:#800;stroke-width:2"  />
  <line x1="550" y1="-500" x2="400" y2="-500" style="stroke:#800;stroke-width:10;stroke-opacity:1.000000;stroke-linecap:round"/>
  <g transform="translate(425,-506) rotate(0)" > <text font-size="58.3333333333" fill="#800" font-family="monospace"  >
   18
  </text> </g> 
  <g transform="translate(290,-472) rotate(0)" > <text font-size="58.3333333333" fill="#088" font-family="monospace"  >
   D4
  </text> </g> 
  <circle cx="550" cy="-500" r="10"
    style="fill:none;stroke:#800;stroke-width:2"  />
  <line x1="-550" y1="400" x2="-400" y2="400" style="stroke:#800;stroke-width:10;stroke-opacity:1.000000;stroke-linecap:round"/>
  <g transform="translate(-524,394) rotate(0)" > <text font-size="58.3333333333" fill="#800" font-family="monospace"  >
   28
  </text> </g> 
  <g transform="translate(-382,427) rotate(0)" > <text font-size="58.3333333333" fill="#088" font-family="monospace"  >
   A13
  </text> </g> 
  <circle cx="-550" cy="400" r="10"
    style="fill:none;stroke:#800;stroke-width:2"  />
  <line x1="550" y1="-400" x2="400" y2="-400" style="stroke:#800;stroke-width:10;stroke-opacity:1.000000;stroke-linecap:round"/>
  <g transform="translate(425,-406) rotate(0)" > <text font-size="58.3333333333" fill="#800" font-family="monospace"  >
   19
  </text> </g> 
  <g transform="translate(290,-372) rotate(0)" > <text font-size="58.3333333333" fill="#088" font-family="monospace"  >
   D5
  </text> </g> 
  <circle cx="550" cy="-400" r="10"
    style="fill:none;stroke:#800;stroke-width:2"  />
  <line x1="550" y1="50" x2="400" y2="50" style="stroke:#800;stroke-width:10;stroke-opacity:1.000000;stroke-linecap:round"/>
  <g transform="translate(425,44) rotate(0)" > <text font-size="58.3333333333" fill="#800" font-family="monospace"  >
   29
  </text> </g> 
  <g transform="translate(255,77) rotate(0)" > <text font-size="58.3333333333" fill="#088" font-family="monospace"  >
   ~WE
  </text> </g> 
  <circle cx="550" cy="50" r="10"
    style="fill:none;stroke:#800;stroke-width:2"  />
 </g>
</svg>
