<?xml version="1.0"?>
<svg height="1275" width="1271"  >
 <g style="fill-opacity:1.0; stroke:black;
  stroke-width:1;" transform=" translate( 635.95,637.875 ) scale( 0.15,0.15 )">
  <g transform="translate(-35,-4015) rotate(0)" > <text font-size="116.666666667" fill="#088" font-family="monospace"  >
   U
  </text> </g> 
  <g transform="translate(-65,35) rotate(-90)" > <text font-size="116.666666667" fill="#088" font-family="monospace"  >
   CONN_20X4
  </text> </g> 
  <rect x="-200" y="-4000" height="8000"
    width="400" style="fill:none;stroke:#800;stroke-width:10" />
  <line x1="-500" y1="-3900" x2="-200" y2="-3900" style="stroke:#800;stroke-width:10;stroke-opacity:1.000000;stroke-linecap:round"/>
  <g transform="translate(-435,-3906) rotate(0)" > <text font-size="100.0" fill="#800" font-family="monospace"  >
   A1
  </text> </g> 
  <g transform="translate(-182,-3860) rotate(0)" > <text font-size="100.0" fill="#088" font-family="monospace"  >
   1A
  </text> </g> 
  <circle cx="-500" cy="-3900" r="10"
    style="fill:none;stroke:#800;stroke-width:2"  />
  <line x1="-500" y1="-3800" x2="-200" y2="-3800" style="stroke:#800;stroke-width:10;stroke-opacity:1.000000;stroke-linecap:round"/>
  <g transform="translate(-435,-3806) rotate(0)" > <text font-size="100.0" fill="#800" font-family="monospace"  >
   B1
  </text> </g> 
  <g transform="translate(-182,-3760) rotate(0)" > <text font-size="100.0" fill="#088" font-family="monospace"  >
   1B
  </text> </g> 
  <circle cx="-500" cy="-3800" r="10"
    style="fill:none;stroke:#800;stroke-width:2"  />
  <line x1="-500" y1="-3700" x2="-200" y2="-3700" style="stroke:#800;stroke-width:10;stroke-opacity:1.000000;stroke-linecap:round"/>
  <g transform="translate(-435,-3706) rotate(0)" > <text font-size="100.0" fill="#800" font-family="monospace"  >
   C1
  </text> </g> 
  <g transform="translate(-182,-3660) rotate(0)" > <text font-size="100.0" fill="#088" font-family="monospace"  >
   1C
  </text> </g> 
  <circle cx="-500" cy="-3700" r="10"
    style="fill:none;stroke:#800;stroke-width:2"  />
  <line x1="-500" y1="-3600" x2="-200" y2="-3600" style="stroke:#800;stroke-width:10;stroke-opacity:1.000000;stroke-linecap:round"/>
  <g transform="translate(-435,-3606) rotate(0)" > <text font-size="100.0" fill="#800" font-family="monospace"  >
   D1
  </text> </g> 
  <g transform="translate(-182,-3560) rotate(0)" > <text font-size="100.0" fill="#088" font-family="monospace"  >
   1D
  </text> </g> 
  <circle cx="-500" cy="-3600" r="10"
    style="fill:none;stroke:#800;stroke-width:2"  />
  <line x1="-500" y1="-3500" x2="-200" y2="-3500" style="stroke:#800;stroke-width:10;stroke-opacity:1.000000;stroke-linecap:round"/>
  <g transform="translate(-435,-3506) rotate(0)" > <text font-size="100.0" fill="#800" font-family="monospace"  >
   A2
  </text> </g> 
  <g transform="translate(-182,-3460) rotate(0)" > <text font-size="100.0" fill="#088" font-family="monospace"  >
   2A
  </text> </g> 
  <circle cx="-500" cy="-3500" r="10"
    style="fill:none;stroke:#800;stroke-width:2"  />
  <line x1="-500" y1="-3400" x2="-200" y2="-3400" style="stroke:#800;stroke-width:10;stroke-opacity:1.000000;stroke-linecap:round"/>
  <g transform="translate(-435,-3406) rotate(0)" > <text font-size="100.0" fill="#800" font-family="monospace"  >
   B2
  </text> </g> 
  <g transform="translate(-182,-3360) rotate(0)" > <text font-size="100.0" fill="#088" font-family="monospace"  >
   2B
  </text> </g> 
  <circle cx="-500" cy="-3400" r="10"
    style="fill:none;stroke:#800;stroke-width:2"  />
  <line x1="-500" y1="-3300" x2="-200" y2="-3300" style="stroke:#800;stroke-width:10;stroke-opacity:1.000000;stroke-linecap:round"/>
  <g transform="translate(-435,-3306) rotate(0)" > <text font-size="100.0" fill="#800" font-family="monospace"  >
   C2
  </text> </g> 
  <g transform="translate(-182,-3260) rotate(0)" > <text font-size="100.0" fill="#088" font-family="monospace"  >
   2C
  </text> </g> 
  <circle cx="-500" cy="-3300" r="10"
    style="fill:none;stroke:#800;stroke-width:2"  />
  <line x1="-500" y1="-3200" x2="-200" y2="-3200" style="stroke:#800;stroke-width:10;stroke-opacity:1.000000;stroke-linecap:round"/>
  <g transform="translate(-435,-3206) rotate(0)" > <text font-size="100.0" fill="#800" font-family="monospace"  >
   D2
  </text> </g> 
  <g transform="translate(-182,-3160) rotate(0)" > <text font-size="100.0" fill="#088" font-family="monospace"  >
   2D
  </text> </g> 
  <circle cx="-500" cy="-3200" r="10"
    style="fill:none;stroke:#800;stroke-width:2"  />
  <line x1="-500" y1="-3100" x2="-200" y2="-3100" style="stroke:#800;stroke-width:10;stroke-opacity:1.000000;stroke-linecap:round"/>
  <g transform="translate(-435,-3106) rotate(0)" > <text font-size="100.0" fill="#800" font-family="monospace"  >
   A3
  </text> </g> 
  <g transform="translate(-182,-3060) rotate(0)" > <text font-size="100.0" fill="#088" font-family="monospace"  >
   3A
  </text> </g> 
  <circle cx="-500" cy="-3100" r="10"
    style="fill:none;stroke:#800;stroke-width:2"  />
  <line x1="-500" y1="-3000" x2="-200" y2="-3000" style="stroke:#800;stroke-width:10;stroke-opacity:1.000000;stroke-linecap:round"/>
  <g transform="translate(-435,-3006) rotate(0)" > <text font-size="100.0" fill="#800" font-family="monospace"  >
   B3
  </text> </g> 
  <g transform="translate(-182,-2960) rotate(0)" > <text font-size="100.0" fill="#088" font-family="monospace"  >
   3B
  </text> </g> 
  <circle cx="-500" cy="-3000" r="10"
    style="fill:none;stroke:#800;stroke-width:2"  />
  <line x1="-500" y1="-2900" x2="-200" y2="-2900" style="stroke:#800;stroke-width:10;stroke-opacity:1.000000;stroke-linecap:round"/>
  <g transform="translate(-435,-2906) rotate(0)" > <text font-size="100.0" fill="#800" font-family="monospace"  >
   C3
  </text> </g> 
  <g transform="translate(-182,-2860) rotate(0)" > <text font-size="100.0" fill="#088" font-family="monospace"  >
   3C
  </text> </g> 
  <circle cx="-500" cy="-2900" r="10"
    style="fill:none;stroke:#800;stroke-width:2"  />
  <line x1="-500" y1="-2800" x2="-200" y2="-2800" style="stroke:#800;stroke-width:10;stroke-opacity:1.000000;stroke-linecap:round"/>
  <g transform="translate(-435,-2806) rotate(0)" > <text font-size="100.0" fill="#800" font-family="monospace"  >
   D3
  </text> </g> 
  <g transform="translate(-182,-2760) rotate(0)" > <text font-size="100.0" fill="#088" font-family="monospace"  >
   3D
  </text> </g> 
  <circle cx="-500" cy="-2800" r="10"
    style="fill:none;stroke:#800;stroke-width:2"  />
  <line x1="-500" y1="-2700" x2="-200" y2="-2700" style="stroke:#800;stroke-width:10;stroke-opacity:1.000000;stroke-linecap:round"/>
  <g transform="translate(-435,-2706) rotate(0)" > <text font-size="100.0" fill="#800" font-family="monospace"  >
   A4
  </text> </g> 
  <g transform="translate(-182,-2660) rotate(0)" > <text font-size="100.0" fill="#088" font-family="monospace"  >
   4A
  </text> </g> 
  <circle cx="-500" cy="-2700" r="10"
    style="fill:none;stroke:#800;stroke-width:2"  />
  <line x1="-500" y1="-2600" x2="-200" y2="-2600" style="stroke:#800;stroke-width:10;stroke-opacity:1.000000;stroke-linecap:round"/>
  <g transform="translate(-435,-2606) rotate(0)" > <text font-size="100.0" fill="#800" font-family="monospace"  >
   B4
  </text> </g> 
  <g transform="translate(-182,-2560) rotate(0)" > <text font-size="100.0" fill="#088" font-family="monospace"  >
   4B
  </text> </g> 
  <circle cx="-500" cy="-2600" r="10"
    style="fill:none;stroke:#800;stroke-width:2"  />
  <line x1="-500" y1="-2500" x2="-200" y2="-2500" style="stroke:#800;stroke-width:10;stroke-opacity:1.000000;stroke-linecap:round"/>
  <g transform="translate(-435,-2506) rotate(0)" > <text font-size="100.0" fill="#800" font-family="monospace"  >
   C4
  </text> </g> 
  <g transform="translate(-182,-2460) rotate(0)" > <text font-size="100.0" fill="#088" font-family="monospace"  >
   4C
  </text> </g> 
  <circle cx="-500" cy="-2500" r="10"
    style="fill:none;stroke:#800;stroke-width:2"  />
  <line x1="-500" y1="-2400" x2="-200" y2="-2400" style="stroke:#800;stroke-width:10;stroke-opacity:1.000000;stroke-linecap:round"/>
  <g transform="translate(-435,-2406) rotate(0)" > <text font-size="100.0" fill="#800" font-family="monospace"  >
   D4
  </text> </g> 
  <g transform="translate(-182,-2360) rotate(0)" > <text font-size="100.0" fill="#088" font-family="monospace"  >
   4D
  </text> </g> 
  <circle cx="-500" cy="-2400" r="10"
    style="fill:none;stroke:#800;stroke-width:2"  />
  <line x1="-500" y1="-2300" x2="-200" y2="-2300" style="stroke:#800;stroke-width:10;stroke-opacity:1.000000;stroke-linecap:round"/>
  <g transform="translate(-435,-2306) rotate(0)" > <text font-size="100.0" fill="#800" font-family="monospace"  >
   A5
  </text> </g> 
  <g transform="translate(-182,-2260) rotate(0)" > <text font-size="100.0" fill="#088" font-family="monospace"  >
   5A
  </text> </g> 
  <circle cx="-500" cy="-2300" r="10"
    style="fill:none;stroke:#800;stroke-width:2"  />
  <line x1="-500" y1="-2200" x2="-200" y2="-2200" style="stroke:#800;stroke-width:10;stroke-opacity:1.000000;stroke-linecap:round"/>
  <g transform="translate(-435,-2206) rotate(0)" > <text font-size="100.0" fill="#800" font-family="monospace"  >
   B5
  </text> </g> 
  <g transform="translate(-182,-2160) rotate(0)" > <text font-size="100.0" fill="#088" font-family="monospace"  >
   5B
  </text> </g> 
  <circle cx="-500" cy="-2200" r="10"
    style="fill:none;stroke:#800;stroke-width:2"  />
  <line x1="-500" y1="-2100" x2="-200" y2="-2100" style="stroke:#800;stroke-width:10;stroke-opacity:1.000000;stroke-linecap:round"/>
  <g transform="translate(-435,-2106) rotate(0)" > <text font-size="100.0" fill="#800" font-family="monospace"  >
   C5
  </text> </g> 
  <g transform="translate(-182,-2060) rotate(0)" > <text font-size="100.0" fill="#088" font-family="monospace"  >
   5C
  </text> </g> 
  <circle cx="-500" cy="-2100" r="10"
    style="fill:none;stroke:#800;stroke-width:2"  />
  <line x1="-500" y1="-2000" x2="-200" y2="-2000" style="stroke:#800;stroke-width:10;stroke-opacity:1.000000;stroke-linecap:round"/>
  <g transform="translate(-435,-2006) rotate(0)" > <text font-size="100.0" fill="#800" font-family="monospace"  >
   D5
  </text> </g> 
  <g transform="translate(-182,-1960) rotate(0)" > <text font-size="100.0" fill="#088" font-family="monospace"  >
   5D
  </text> </g> 
  <circle cx="-500" cy="-2000" r="10"
    style="fill:none;stroke:#800;stroke-width:2"  />
  <line x1="-500" y1="-1900" x2="-200" y2="-1900" style="stroke:#800;stroke-width:10;stroke-opacity:1.000000;stroke-linecap:round"/>
  <g transform="translate(-435,-1906) rotate(0)" > <text font-size="100.0" fill="#800" font-family="monospace"  >
   A6
  </text> </g> 
  <g transform="translate(-182,-1860) rotate(0)" > <text font-size="100.0" fill="#088" font-family="monospace"  >
   6A
  </text> </g> 
  <circle cx="-500" cy="-1900" r="10"
    style="fill:none;stroke:#800;stroke-width:2"  />
  <line x1="-500" y1="-1800" x2="-200" y2="-1800" style="stroke:#800;stroke-width:10;stroke-opacity:1.000000;stroke-linecap:round"/>
  <g transform="translate(-435,-1806) rotate(0)" > <text font-size="100.0" fill="#800" font-family="monospace"  >
   B6
  </text> </g> 
  <g transform="translate(-182,-1760) rotate(0)" > <text font-size="100.0" fill="#088" font-family="monospace"  >
   6B
  </text> </g> 
  <circle cx="-500" cy="-1800" r="10"
    style="fill:none;stroke:#800;stroke-width:2"  />
  <line x1="-500" y1="-1700" x2="-200" y2="-1700" style="stroke:#800;stroke-width:10;stroke-opacity:1.000000;stroke-linecap:round"/>
  <g transform="translate(-435,-1706) rotate(0)" > <text font-size="100.0" fill="#800" font-family="monospace"  >
   C6
  </text> </g> 
  <g transform="translate(-182,-1660) rotate(0)" > <text font-size="100.0" fill="#088" font-family="monospace"  >
   6C
  </text> </g> 
  <circle cx="-500" cy="-1700" r="10"
    style="fill:none;stroke:#800;stroke-width:2"  />
  <line x1="-500" y1="-1600" x2="-200" y2="-1600" style="stroke:#800;stroke-width:10;stroke-opacity:1.000000;stroke-linecap:round"/>
  <g transform="translate(-435,-1606) rotate(0)" > <text font-size="100.0" fill="#800" font-family="monospace"  >
   D6
  </text> </g> 
  <g transform="translate(-182,-1560) rotate(0)" > <text font-size="100.0" fill="#088" font-family="monospace"  >
   6D
  </text> </g> 
  <circle cx="-500" cy="-1600" r="10"
    style="fill:none;stroke:#800;stroke-width:2"  />
  <line x1="-500" y1="-1500" x2="-200" y2="-1500" style="stroke:#800;stroke-width:10;stroke-opacity:1.000000;stroke-linecap:round"/>
  <g transform="translate(-435,-1506) rotate(0)" > <text font-size="100.0" fill="#800" font-family="monospace"  >
   A7
  </text> </g> 
  <g transform="translate(-182,-1460) rotate(0)" > <text font-size="100.0" fill="#088" font-family="monospace"  >
   7A
  </text> </g> 
  <circle cx="-500" cy="-1500" r="10"
    style="fill:none;stroke:#800;stroke-width:2"  />
  <line x1="-500" y1="-1400" x2="-200" y2="-1400" style="stroke:#800;stroke-width:10;stroke-opacity:1.000000;stroke-linecap:round"/>
  <g transform="translate(-435,-1406) rotate(0)" > <text font-size="100.0" fill="#800" font-family="monospace"  >
   B7
  </text> </g> 
  <g transform="translate(-182,-1360) rotate(0)" > <text font-size="100.0" fill="#088" font-family="monospace"  >
   7B
  </text> </g> 
  <circle cx="-500" cy="-1400" r="10"
    style="fill:none;stroke:#800;stroke-width:2"  />
  <line x1="-500" y1="-1300" x2="-200" y2="-1300" style="stroke:#800;stroke-width:10;stroke-opacity:1.000000;stroke-linecap:round"/>
  <g transform="translate(-435,-1306) rotate(0)" > <text font-size="100.0" fill="#800" font-family="monospace"  >
   C7
  </text> </g> 
  <g transform="translate(-182,-1260) rotate(0)" > <text font-size="100.0" fill="#088" font-family="monospace"  >
   7C
  </text> </g> 
  <circle cx="-500" cy="-1300" r="10"
    style="fill:none;stroke:#800;stroke-width:2"  />
  <line x1="-500" y1="-1200" x2="-200" y2="-1200" style="stroke:#800;stroke-width:10;stroke-opacity:1.000000;stroke-linecap:round"/>
  <g transform="translate(-435,-1206) rotate(0)" > <text font-size="100.0" fill="#800" font-family="monospace"  >
   D7
  </text> </g> 
  <g transform="translate(-182,-1160) rotate(0)" > <text font-size="100.0" fill="#088" font-family="monospace"  >
   7D
  </text> </g> 
  <circle cx="-500" cy="-1200" r="10"
    style="fill:none;stroke:#800;stroke-width:2"  />
  <line x1="-500" y1="-1100" x2="-200" y2="-1100" style="stroke:#800;stroke-width:10;stroke-opacity:1.000000;stroke-linecap:round"/>
  <g transform="translate(-435,-1106) rotate(0)" > <text font-size="100.0" fill="#800" font-family="monospace"  >
   A8
  </text> </g> 
  <g transform="translate(-182,-1060) rotate(0)" > <text font-size="100.0" fill="#088" font-family="monospace"  >
   8A
  </text> </g> 
  <circle cx="-500" cy="-1100" r="10"
    style="fill:none;stroke:#800;stroke-width:2"  />
  <line x1="-500" y1="-1000" x2="-200" y2="-1000" style="stroke:#800;stroke-width:10;stroke-opacity:1.000000;stroke-linecap:round"/>
  <g transform="translate(-435,-1006) rotate(0)" > <text font-size="100.0" fill="#800" font-family="monospace"  >
   B8
  </text> </g> 
  <g transform="translate(-182,-960) rotate(0)" > <text font-size="100.0" fill="#088" font-family="monospace"  >
   8B
  </text> </g> 
  <circle cx="-500" cy="-1000" r="10"
    style="fill:none;stroke:#800;stroke-width:2"  />
  <line x1="-500" y1="-900" x2="-200" y2="-900" style="stroke:#800;stroke-width:10;stroke-opacity:1.000000;stroke-linecap:round"/>
  <g transform="translate(-435,-906) rotate(0)" > <text font-size="100.0" fill="#800" font-family="monospace"  >
   C8
  </text> </g> 
  <g transform="translate(-182,-860) rotate(0)" > <text font-size="100.0" fill="#088" font-family="monospace"  >
   8C
  </text> </g> 
  <circle cx="-500" cy="-900" r="10"
    style="fill:none;stroke:#800;stroke-width:2"  />
  <line x1="-500" y1="-800" x2="-200" y2="-800" style="stroke:#800;stroke-width:10;stroke-opacity:1.000000;stroke-linecap:round"/>
  <g transform="translate(-435,-806) rotate(0)" > <text font-size="100.0" fill="#800" font-family="monospace"  >
   D8
  </text> </g> 
  <g transform="translate(-182,-760) rotate(0)" > <text font-size="100.0" fill="#088" font-family="monospace"  >
   8D
  </text> </g> 
  <circle cx="-500" cy="-800" r="10"
    style="fill:none;stroke:#800;stroke-width:2"  />
  <line x1="-500" y1="-700" x2="-200" y2="-700" style="stroke:#800;stroke-width:10;stroke-opacity:1.000000;stroke-linecap:round"/>
  <g transform="translate(-435,-706) rotate(0)" > <text font-size="100.0" fill="#800" font-family="monospace"  >
   A9
  </text> </g> 
  <g transform="translate(-182,-660) rotate(0)" > <text font-size="100.0" fill="#088" font-family="monospace"  >
   9A
  </text> </g> 
  <circle cx="-500" cy="-700" r="10"
    style="fill:none;stroke:#800;stroke-width:2"  />
  <line x1="-500" y1="-600" x2="-200" y2="-600" style="stroke:#800;stroke-width:10;stroke-opacity:1.000000;stroke-linecap:round"/>
  <g transform="translate(-435,-606) rotate(0)" > <text font-size="100.0" fill="#800" font-family="monospace"  >
   B9
  </text> </g> 
  <g transform="translate(-182,-560) rotate(0)" > <text font-size="100.0" fill="#088" font-family="monospace"  >
   9B
  </text> </g> 
  <circle cx="-500" cy="-600" r="10"
    style="fill:none;stroke:#800;stroke-width:2"  />
  <line x1="-500" y1="-500" x2="-200" y2="-500" style="stroke:#800;stroke-width:10;stroke-opacity:1.000000;stroke-linecap:round"/>
  <g transform="translate(-435,-506) rotate(0)" > <text font-size="100.0" fill="#800" font-family="monospace"  >
   C9
  </text> </g> 
  <g transform="translate(-182,-460) rotate(0)" > <text font-size="100.0" fill="#088" font-family="monospace"  >
   9C
  </text> </g> 
  <circle cx="-500" cy="-500" r="10"
    style="fill:none;stroke:#800;stroke-width:2"  />
  <line x1="-500" y1="-400" x2="-200" y2="-400" style="stroke:#800;stroke-width:10;stroke-opacity:1.000000;stroke-linecap:round"/>
  <g transform="translate(-477,-406) rotate(0)" > <text font-size="100.0" fill="#800" font-family="monospace"  >
   A10
  </text> </g> 
  <g transform="translate(-182,-360) rotate(0)" > <text font-size="100.0" fill="#088" font-family="monospace"  >
   10A
  </text> </g> 
  <circle cx="-500" cy="-400" r="10"
    style="fill:none;stroke:#800;stroke-width:2"  />
  <line x1="-500" y1="-300" x2="-200" y2="-300" style="stroke:#800;stroke-width:10;stroke-opacity:1.000000;stroke-linecap:round"/>
  <g transform="translate(-477,-306) rotate(0)" > <text font-size="100.0" fill="#800" font-family="monospace"  >
   B10
  </text> </g> 
  <g transform="translate(-182,-260) rotate(0)" > <text font-size="100.0" fill="#088" font-family="monospace"  >
   10B
  </text> </g> 
  <circle cx="-500" cy="-300" r="10"
    style="fill:none;stroke:#800;stroke-width:2"  />
  <line x1="-500" y1="-200" x2="-200" y2="-200" style="stroke:#800;stroke-width:10;stroke-opacity:1.000000;stroke-linecap:round"/>
  <g transform="translate(-477,-206) rotate(0)" > <text font-size="100.0" fill="#800" font-family="monospace"  >
   C10
  </text> </g> 
  <g transform="translate(-182,-160) rotate(0)" > <text font-size="100.0" fill="#088" font-family="monospace"  >
   10C
  </text> </g> 
  <circle cx="-500" cy="-200" r="10"
    style="fill:none;stroke:#800;stroke-width:2"  />
  <line x1="-500" y1="-100" x2="-200" y2="-100" style="stroke:#800;stroke-width:10;stroke-opacity:1.000000;stroke-linecap:round"/>
  <g transform="translate(-477,-106) rotate(0)" > <text font-size="100.0" fill="#800" font-family="monospace"  >
   D10
  </text> </g> 
  <g transform="translate(-182,-60) rotate(0)" > <text font-size="100.0" fill="#088" font-family="monospace"  >
   10D
  </text> </g> 
  <circle cx="-500" cy="-100" r="10"
    style="fill:none;stroke:#800;stroke-width:2"  />
  <line x1="-500" y1="3600" x2="-200" y2="3600" style="stroke:#800;stroke-width:10;stroke-opacity:1.000000;stroke-linecap:round"/>
  <g transform="translate(-477,3594) rotate(0)" > <text font-size="100.0" fill="#800" font-family="monospace"  >
   A20
  </text> </g> 
  <g transform="translate(-182,3640) rotate(0)" > <text font-size="100.0" fill="#088" font-family="monospace"  >
   20A
  </text> </g> 
  <circle cx="-500" cy="3600" r="10"
    style="fill:none;stroke:#800;stroke-width:2"  />
  <line x1="-500" y1="3700" x2="-200" y2="3700" style="stroke:#800;stroke-width:10;stroke-opacity:1.000000;stroke-linecap:round"/>
  <g transform="translate(-477,3694) rotate(0)" > <text font-size="100.0" fill="#800" font-family="monospace"  >
   B20
  </text> </g> 
  <g transform="translate(-182,3740) rotate(0)" > <text font-size="100.0" fill="#088" font-family="monospace"  >
   20B
  </text> </g> 
  <circle cx="-500" cy="3700" r="10"
    style="fill:none;stroke:#800;stroke-width:2"  />
  <line x1="-500" y1="3800" x2="-200" y2="3800" style="stroke:#800;stroke-width:10;stroke-opacity:1.000000;stroke-linecap:round"/>
  <g transform="translate(-477,3794) rotate(0)" > <text font-size="100.0" fill="#800" font-family="monospace"  >
   C20
  </text> </g> 
  <g transform="translate(-182,3840) rotate(0)" > <text font-size="100.0" fill="#088" font-family="monospace"  >
   20C
  </text> </g> 
  <circle cx="-500" cy="3800" r="10"
    style="fill:none;stroke:#800;stroke-width:2"  />
  <line x1="-500" y1="3900" x2="-200" y2="3900" style="stroke:#800;stroke-width:10;stroke-opacity:1.000000;stroke-linecap:round"/>
  <g transform="translate(-477,3894) rotate(0)" > <text font-size="100.0" fill="#800" font-family="monospace"  >
   D20
  </text> </g> 
  <g transform="translate(-182,3940) rotate(0)" > <text font-size="100.0" fill="#088" font-family="monospace"  >
   20D
  </text> </g> 
  <circle cx="-500" cy="3900" r="10"
    style="fill:none;stroke:#800;stroke-width:2"  />
  <line x1="-500" y1="0" x2="-200" y2="0" style="stroke:#800;stroke-width:10;stroke-opacity:1.000000;stroke-linecap:round"/>
  <g transform="translate(-477,-6) rotate(0)" > <text font-size="100.0" fill="#800" font-family="monospace"  >
   A11
  </text> </g> 
  <g transform="translate(-182,40) rotate(0)" > <text font-size="100.0" fill="#088" font-family="monospace"  >
   11A
  </text> </g> 
  <circle cx="-500" cy="0" r="10"
    style="fill:none;stroke:#800;stroke-width:2"  />
  <line x1="-500" y1="100" x2="-200" y2="100" style="stroke:#800;stroke-width:10;stroke-opacity:1.000000;stroke-linecap:round"/>
  <g transform="translate(-477,94) rotate(0)" > <text font-size="100.0" fill="#800" font-family="monospace"  >
   B11
  </text> </g> 
  <g transform="translate(-182,140) rotate(0)" > <text font-size="100.0" fill="#088" font-family="monospace"  >
   11B
  </text> </g> 
  <circle cx="-500" cy="100" r="10"
    style="fill:none;stroke:#800;stroke-width:2"  />
  <line x1="-500" y1="200" x2="-200" y2="200" style="stroke:#800;stroke-width:10;stroke-opacity:1.000000;stroke-linecap:round"/>
  <g transform="translate(-477,194) rotate(0)" > <text font-size="100.0" fill="#800" font-family="monospace"  >
   C11
  </text> </g> 
  <g transform="translate(-182,240) rotate(0)" > <text font-size="100.0" fill="#088" font-family="monospace"  >
   11C
  </text> </g> 
  <circle cx="-500" cy="200" r="10"
    style="fill:none;stroke:#800;stroke-width:2"  />
  <line x1="-500" y1="300" x2="-200" y2="300" style="stroke:#800;stroke-width:10;stroke-opacity:1.000000;stroke-linecap:round"/>
  <g transform="translate(-477,294) rotate(0)" > <text font-size="100.0" fill="#800" font-family="monospace"  >
   D11
  </text> </g> 
  <g transform="translate(-182,340) rotate(0)" > <text font-size="100.0" fill="#088" font-family="monospace"  >
   11D
  </text> </g> 
  <circle cx="-500" cy="300" r="10"
    style="fill:none;stroke:#800;stroke-width:2"  />
  <line x1="-500" y1="400" x2="-200" y2="400" style="stroke:#800;stroke-width:10;stroke-opacity:1.000000;stroke-linecap:round"/>
  <g transform="translate(-477,394) rotate(0)" > <text font-size="100.0" fill="#800" font-family="monospace"  >
   A12
  </text> </g> 
  <g transform="translate(-182,440) rotate(0)" > <text font-size="100.0" fill="#088" font-family="monospace"  >
   12A
  </text> </g> 
  <circle cx="-500" cy="400" r="10"
    style="fill:none;stroke:#800;stroke-width:2"  />
  <line x1="-500" y1="500" x2="-200" y2="500" style="stroke:#800;stroke-width:10;stroke-opacity:1.000000;stroke-linecap:round"/>
  <g transform="translate(-477,494) rotate(0)" > <text font-size="100.0" fill="#800" font-family="monospace"  >
   B12
  </text> </g> 
  <g transform="translate(-182,540) rotate(0)" > <text font-size="100.0" fill="#088" font-family="monospace"  >
   12B
  </text> </g> 
  <circle cx="-500" cy="500" r="10"
    style="fill:none;stroke:#800;stroke-width:2"  />
  <line x1="-500" y1="600" x2="-200" y2="600" style="stroke:#800;stroke-width:10;stroke-opacity:1.000000;stroke-linecap:round"/>
  <g transform="translate(-477,594) rotate(0)" > <text font-size="100.0" fill="#800" font-family="monospace"  >
   C12
  </text> </g> 
  <g transform="translate(-182,640) rotate(0)" > <text font-size="100.0" fill="#088" font-family="monospace"  >
   12C
  </text> </g> 
  <circle cx="-500" cy="600" r="10"
    style="fill:none;stroke:#800;stroke-width:2"  />
  <line x1="-500" y1="700" x2="-200" y2="700" style="stroke:#800;stroke-width:10;stroke-opacity:1.000000;stroke-linecap:round"/>
  <g transform="translate(-477,694) rotate(0)" > <text font-size="100.0" fill="#800" font-family="monospace"  >
   D12
  </text> </g> 
  <g transform="translate(-182,740) rotate(0)" > <text font-size="100.0" fill="#088" font-family="monospace"  >
   12D
  </text> </g> 
  <circle cx="-500" cy="700" r="10"
    style="fill:none;stroke:#800;stroke-width:2"  />
  <line x1="-500" y1="800" x2="-200" y2="800" style="stroke:#800;stroke-width:10;stroke-opacity:1.000000;stroke-linecap:round"/>
  <g transform="translate(-477,794) rotate(0)" > <text font-size="100.0" fill="#800" font-family="monospace"  >
   A13
  </text> </g> 
  <g transform="translate(-182,840) rotate(0)" > <text font-size="100.0" fill="#088" font-family="monospace"  >
   13A
  </text> </g> 
  <circle cx="-500" cy="800" r="10"
    style="fill:none;stroke:#800;stroke-width:2"  />
  <line x1="-500" y1="900" x2="-200" y2="900" style="stroke:#800;stroke-width:10;stroke-opacity:1.000000;stroke-linecap:round"/>
  <g transform="translate(-477,894) rotate(0)" > <text font-size="100.0" fill="#800" font-family="monospace"  >
   B13
  </text> </g> 
  <g transform="translate(-182,940) rotate(0)" > <text font-size="100.0" fill="#088" font-family="monospace"  >
   13B
  </text> </g> 
  <circle cx="-500" cy="900" r="10"
    style="fill:none;stroke:#800;stroke-width:2"  />
  <line x1="-500" y1="1000" x2="-200" y2="1000" style="stroke:#800;stroke-width:10;stroke-opacity:1.000000;stroke-linecap:round"/>
  <g transform="translate(-477,994) rotate(0)" > <text font-size="100.0" fill="#800" font-family="monospace"  >
   C13
  </text> </g> 
  <g transform="translate(-182,1040) rotate(0)" > <text font-size="100.0" fill="#088" font-family="monospace"  >
   13C
  </text> </g> 
  <circle cx="-500" cy="1000" r="10"
    style="fill:none;stroke:#800;stroke-width:2"  />
  <line x1="-500" y1="1100" x2="-200" y2="1100" style="stroke:#800;stroke-width:10;stroke-opacity:1.000000;stroke-linecap:round"/>
  <g transform="translate(-477,1094) rotate(0)" > <text font-size="100.0" fill="#800" font-family="monospace"  >
   D13
  </text> </g> 
  <g transform="translate(-182,1140) rotate(0)" > <text font-size="100.0" fill="#088" font-family="monospace"  >
   13D
  </text> </g> 
  <circle cx="-500" cy="1100" r="10"
    style="fill:none;stroke:#800;stroke-width:2"  />
  <line x1="-500" y1="1200" x2="-200" y2="1200" style="stroke:#800;stroke-width:10;stroke-opacity:1.000000;stroke-linecap:round"/>
  <g transform="translate(-477,1194) rotate(0)" > <text font-size="100.0" fill="#800" font-family="monospace"  >
   A14
  </text> </g> 
  <g transform="translate(-182,1240) rotate(0)" > <text font-size="100.0" fill="#088" font-family="monospace"  >
   14A
  </text> </g> 
  <circle cx="-500" cy="1200" r="10"
    style="fill:none;stroke:#800;stroke-width:2"  />
  <line x1="-500" y1="1300" x2="-200" y2="1300" style="stroke:#800;stroke-width:10;stroke-opacity:1.000000;stroke-linecap:round"/>
  <g transform="translate(-477,1294) rotate(0)" > <text font-size="100.0" fill="#800" font-family="monospace"  >
   B14
  </text> </g> 
  <g transform="translate(-182,1340) rotate(0)" > <text font-size="100.0" fill="#088" font-family="monospace"  >
   14B
  </text> </g> 
  <circle cx="-500" cy="1300" r="10"
    style="fill:none;stroke:#800;stroke-width:2"  />
  <line x1="-500" y1="1400" x2="-200" y2="1400" style="stroke:#800;stroke-width:10;stroke-opacity:1.000000;stroke-linecap:round"/>
  <g transform="translate(-477,1394) rotate(0)" > <text font-size="100.0" fill="#800" font-family="monospace"  >
   C14
  </text> </g> 
  <g transform="translate(-182,1440) rotate(0)" > <text font-size="100.0" fill="#088" font-family="monospace"  >
   14C
  </text> </g> 
  <circle cx="-500" cy="1400" r="10"
    style="fill:none;stroke:#800;stroke-width:2"  />
  <line x1="-500" y1="1500" x2="-200" y2="1500" style="stroke:#800;stroke-width:10;stroke-opacity:1.000000;stroke-linecap:round"/>
  <g transform="translate(-477,1494) rotate(0)" > <text font-size="100.0" fill="#800" font-family="monospace"  >
   D14
  </text> </g> 
  <g transform="translate(-182,1540) rotate(0)" > <text font-size="100.0" fill="#088" font-family="monospace"  >
   14D
  </text> </g> 
  <circle cx="-500" cy="1500" r="10"
    style="fill:none;stroke:#800;stroke-width:2"  />
  <line x1="-500" y1="1600" x2="-200" y2="1600" style="stroke:#800;stroke-width:10;stroke-opacity:1.000000;stroke-linecap:round"/>
  <g transform="translate(-477,1594) rotate(0)" > <text font-size="100.0" fill="#800" font-family="monospace"  >
   A15
  </text> </g> 
  <g transform="translate(-182,1640) rotate(0)" > <text font-size="100.0" fill="#088" font-family="monospace"  >
   15A
  </text> </g> 
  <circle cx="-500" cy="1600" r="10"
    style="fill:none;stroke:#800;stroke-width:2"  />
  <line x1="-500" y1="1700" x2="-200" y2="1700" style="stroke:#800;stroke-width:10;stroke-opacity:1.000000;stroke-linecap:round"/>
  <g transform="translate(-477,1694) rotate(0)" > <text font-size="100.0" fill="#800" font-family="monospace"  >
   B15
  </text> </g> 
  <g transform="translate(-182,1740) rotate(0)" > <text font-size="100.0" fill="#088" font-family="monospace"  >
   15B
  </text> </g> 
  <circle cx="-500" cy="1700" r="10"
    style="fill:none;stroke:#800;stroke-width:2"  />
  <line x1="-500" y1="1800" x2="-200" y2="1800" style="stroke:#800;stroke-width:10;stroke-opacity:1.000000;stroke-linecap:round"/>
  <g transform="translate(-477,1794) rotate(0)" > <text font-size="100.0" fill="#800" font-family="monospace"  >
   C15
  </text> </g> 
  <g transform="translate(-182,1840) rotate(0)" > <text font-size="100.0" fill="#088" font-family="monospace"  >
   15C
  </text> </g> 
  <circle cx="-500" cy="1800" r="10"
    style="fill:none;stroke:#800;stroke-width:2"  />
  <line x1="-500" y1="1900" x2="-200" y2="1900" style="stroke:#800;stroke-width:10;stroke-opacity:1.000000;stroke-linecap:round"/>
  <g transform="translate(-477,1894) rotate(0)" > <text font-size="100.0" fill="#800" font-family="monospace"  >
   D15
  </text> </g> 
  <g transform="translate(-182,1940) rotate(0)" > <text font-size="100.0" fill="#088" font-family="monospace"  >
   15D
  </text> </g> 
  <circle cx="-500" cy="1900" r="10"
    style="fill:none;stroke:#800;stroke-width:2"  />
  <line x1="-500" y1="2000" x2="-200" y2="2000" style="stroke:#800;stroke-width:10;stroke-opacity:1.000000;stroke-linecap:round"/>
  <g transform="translate(-477,1994) rotate(0)" > <text font-size="100.0" fill="#800" font-family="monospace"  >
   A16
  </text> </g> 
  <g transform="translate(-182,2040) rotate(0)" > <text font-size="100.0" fill="#088" font-family="monospace"  >
   16A
  </text> </g> 
  <circle cx="-500" cy="2000" r="10"
    style="fill:none;stroke:#800;stroke-width:2"  />
  <line x1="-500" y1="2100" x2="-200" y2="2100" style="stroke:#800;stroke-width:10;stroke-opacity:1.000000;stroke-linecap:round"/>
  <g transform="translate(-477,2094) rotate(0)" > <text font-size="100.0" fill="#800" font-family="monospace"  >
   B16
  </text> </g> 
  <g transform="translate(-182,2140) rotate(0)" > <text font-size="100.0" fill="#088" font-family="monospace"  >
   16B
  </text> </g> 
  <circle cx="-500" cy="2100" r="10"
    style="fill:none;stroke:#800;stroke-width:2"  />
  <line x1="-500" y1="2200" x2="-200" y2="2200" style="stroke:#800;stroke-width:10;stroke-opacity:1.000000;stroke-linecap:round"/>
  <g transform="translate(-477,2194) rotate(0)" > <text font-size="100.0" fill="#800" font-family="monospace"  >
   C16
  </text> </g> 
  <g transform="translate(-182,2240) rotate(0)" > <text font-size="100.0" fill="#088" font-family="monospace"  >
   16C
  </text> </g> 
  <circle cx="-500" cy="2200" r="10"
    style="fill:none;stroke:#800;stroke-width:2"  />
  <line x1="-500" y1="2300" x2="-200" y2="2300" style="stroke:#800;stroke-width:10;stroke-opacity:1.000000;stroke-linecap:round"/>
  <g transform="translate(-477,2294) rotate(0)" > <text font-size="100.0" fill="#800" font-family="monospace"  >
   D16
  </text> </g> 
  <g transform="translate(-182,2340) rotate(0)" > <text font-size="100.0" fill="#088" font-family="monospace"  >
   16D
  </text> </g> 
  <circle cx="-500" cy="2300" r="10"
    style="fill:none;stroke:#800;stroke-width:2"  />
  <line x1="-500" y1="2400" x2="-200" y2="2400" style="stroke:#800;stroke-width:10;stroke-opacity:1.000000;stroke-linecap:round"/>
  <g transform="translate(-477,2394) rotate(0)" > <text font-size="100.0" fill="#800" font-family="monospace"  >
   A17
  </text> </g> 
  <g transform="translate(-182,2440) rotate(0)" > <text font-size="100.0" fill="#088" font-family="monospace"  >
   17A
  </text> </g> 
  <circle cx="-500" cy="2400" r="10"
    style="fill:none;stroke:#800;stroke-width:2"  />
  <line x1="-500" y1="2500" x2="-200" y2="2500" style="stroke:#800;stroke-width:10;stroke-opacity:1.000000;stroke-linecap:round"/>
  <g transform="translate(-477,2494) rotate(0)" > <text font-size="100.0" fill="#800" font-family="monospace"  >
   B17
  </text> </g> 
  <g transform="translate(-182,2540) rotate(0)" > <text font-size="100.0" fill="#088" font-family="monospace"  >
   17B
  </text> </g> 
  <circle cx="-500" cy="2500" r="10"
    style="fill:none;stroke:#800;stroke-width:2"  />
  <line x1="-500" y1="2600" x2="-200" y2="2600" style="stroke:#800;stroke-width:10;stroke-opacity:1.000000;stroke-linecap:round"/>
  <g transform="translate(-477,2594) rotate(0)" > <text font-size="100.0" fill="#800" font-family="monospace"  >
   C17
  </text> </g> 
  <g transform="translate(-182,2640) rotate(0)" > <text font-size="100.0" fill="#088" font-family="monospace"  >
   17C
  </text> </g> 
  <circle cx="-500" cy="2600" r="10"
    style="fill:none;stroke:#800;stroke-width:2"  />
  <line x1="-500" y1="2700" x2="-200" y2="2700" style="stroke:#800;stroke-width:10;stroke-opacity:1.000000;stroke-linecap:round"/>
  <g transform="translate(-477,2694) rotate(0)" > <text font-size="100.0" fill="#800" font-family="monospace"  >
   D17
  </text> </g> 
  <g transform="translate(-182,2740) rotate(0)" > <text font-size="100.0" fill="#088" font-family="monospace"  >
   17D
  </text> </g> 
  <circle cx="-500" cy="2700" r="10"
    style="fill:none;stroke:#800;stroke-width:2"  />
  <line x1="-500" y1="2800" x2="-200" y2="2800" style="stroke:#800;stroke-width:10;stroke-opacity:1.000000;stroke-linecap:round"/>
  <g transform="translate(-477,2794) rotate(0)" > <text font-size="100.0" fill="#800" font-family="monospace"  >
   A18
  </text> </g> 
  <g transform="translate(-182,2840) rotate(0)" > <text font-size="100.0" fill="#088" font-family="monospace"  >
   18A
  </text> </g> 
  <circle cx="-500" cy="2800" r="10"
    style="fill:none;stroke:#800;stroke-width:2"  />
  <line x1="-500" y1="2900" x2="-200" y2="2900" style="stroke:#800;stroke-width:10;stroke-opacity:1.000000;stroke-linecap:round"/>
  <g transform="translate(-477,2894) rotate(0)" > <text font-size="100.0" fill="#800" font-family="monospace"  >
   B18
  </text> </g> 
  <g transform="translate(-182,2940) rotate(0)" > <text font-size="100.0" fill="#088" font-family="monospace"  >
   18B
  </text> </g> 
  <circle cx="-500" cy="2900" r="10"
    style="fill:none;stroke:#800;stroke-width:2"  />
  <line x1="-500" y1="3000" x2="-200" y2="3000" style="stroke:#800;stroke-width:10;stroke-opacity:1.000000;stroke-linecap:round"/>
  <g transform="translate(-477,2994) rotate(0)" > <text font-size="100.0" fill="#800" font-family="monospace"  >
   C18
  </text> </g> 
  <g transform="translate(-182,3040) rotate(0)" > <text font-size="100.0" fill="#088" font-family="monospace"  >
   18C
  </text> </g> 
  <circle cx="-500" cy="3000" r="10"
    style="fill:none;stroke:#800;stroke-width:2"  />
  <line x1="-500" y1="3100" x2="-200" y2="3100" style="stroke:#800;stroke-width:10;stroke-opacity:1.000000;stroke-linecap:round"/>
  <g transform="translate(-477,3094) rotate(0)" > <text font-size="100.0" fill="#800" font-family="monospace"  >
   D18
  </text> </g> 
  <g transform="translate(-182,3140) rotate(0)" > <text font-size="100.0" fill="#088" font-family="monospace"  >
   18D
  </text> </g> 
  <circle cx="-500" cy="3100" r="10"
    style="fill:none;stroke:#800;stroke-width:2"  />
  <line x1="-500" y1="3200" x2="-200" y2="3200" style="stroke:#800;stroke-width:10;stroke-opacity:1.000000;stroke-linecap:round"/>
  <g transform="translate(-477,3194) rotate(0)" > <text font-size="100.0" fill="#800" font-family="monospace"  >
   A19
  </text> </g> 
  <g transform="translate(-182,3240) rotate(0)" > <text font-size="100.0" fill="#088" font-family="monospace"  >
   19A
  </text> </g> 
  <circle cx="-500" cy="3200" r="10"
    style="fill:none;stroke:#800;stroke-width:2"  />
  <line x1="-500" y1="3300" x2="-200" y2="3300" style="stroke:#800;stroke-width:10;stroke-opacity:1.000000;stroke-linecap:round"/>
  <g transform="translate(-477,3294) rotate(0)" > <text font-size="100.0" fill="#800" font-family="monospace"  >
   B19
  </text> </g> 
  <g transform="translate(-182,3340) rotate(0)" > <text font-size="100.0" fill="#088" font-family="monospace"  >
   19B
  </text> </g> 
  <circle cx="-500" cy="3300" r="10"
    style="fill:none;stroke:#800;stroke-width:2"  />
  <line x1="-500" y1="3400" x2="-200" y2="3400" style="stroke:#800;stroke-width:10;stroke-opacity:1.000000;stroke-linecap:round"/>
  <g transform="translate(-477,3394) rotate(0)" > <text font-size="100.0" fill="#800" font-family="monospace"  >
   C19
  </text> </g> 
  <g transform="translate(-182,3440) rotate(0)" > <text font-size="100.0" fill="#088" font-family="monospace"  >
   19C
  </text> </g> 
  <circle cx="-500" cy="3400" r="10"
    style="fill:none;stroke:#800;stroke-width:2"  />
  <line x1="-500" y1="3500" x2="-200" y2="3500" style="stroke:#800;stroke-width:10;stroke-opacity:1.000000;stroke-linecap:round"/>
  <g transform="translate(-477,3494) rotate(0)" > <text font-size="100.0" fill="#800" font-family="monospace"  >
   D19
  </text> </g> 
  <g transform="translate(-182,3540) rotate(0)" > <text font-size="100.0" fill="#088" font-family="monospace"  >
   19D
  </text> </g> 
  <circle cx="-500" cy="3500" r="10"
    style="fill:none;stroke:#800;stroke-width:2"  />
 </g>
</svg>
