<?xml version="1.0"?>
<svg height="688" width="611"  >
 <g style="fill-opacity:1.0; stroke:black;
  stroke-width:1;" transform=" translate( 305.95,344.325 ) scale( 0.15,0.15 )">
  <g transform="translate(65,-1865) rotate(0)" > <text font-size="116.666666667" fill="#088" font-family="monospace"  >
   J
  </text> </g> 
  <g transform="translate(-190,1985) rotate(0)" > <text font-size="116.666666667" fill="#088" font-family="monospace"  >
   DB37
  </text> </g> 
  <line x1="-149" y1="1859" x2="-149" y2="1863" style="stroke:#800;stroke-width:10;stroke-opacity:1.000000;stroke-linecap:round"/>
  <line x1="-149" y1="1863" x2="-148" y2="1867" style="stroke:#800;stroke-width:10;stroke-opacity:1.000000;stroke-linecap:round"/>
  <line x1="-148" y1="1867" x2="-147" y2="1870" style="stroke:#800;stroke-width:10;stroke-opacity:1.000000;stroke-linecap:round"/>
  <line x1="-147" y1="1870" x2="-145" y2="1874" style="stroke:#800;stroke-width:10;stroke-opacity:1.000000;stroke-linecap:round"/>
  <line x1="-145" y1="1874" x2="-143" y2="1877" style="stroke:#800;stroke-width:10;stroke-opacity:1.000000;stroke-linecap:round"/>
  <line x1="-143" y1="1877" x2="-141" y2="1880" style="stroke:#800;stroke-width:10;stroke-opacity:1.000000;stroke-linecap:round"/>
  <line x1="-141" y1="1880" x2="-139" y2="1883" style="stroke:#800;stroke-width:10;stroke-opacity:1.000000;stroke-linecap:round"/>
  <line x1="-139" y1="1883" x2="-137" y2="1886" style="stroke:#800;stroke-width:10;stroke-opacity:1.000000;stroke-linecap:round"/>
  <line x1="-137" y1="1886" x2="-134" y2="1888" style="stroke:#800;stroke-width:10;stroke-opacity:1.000000;stroke-linecap:round"/>
  <line x1="-134" y1="1888" x2="-131" y2="1890" style="stroke:#800;stroke-width:10;stroke-opacity:1.000000;stroke-linecap:round"/>
  <line x1="-131" y1="1890" x2="-128" y2="1892" style="stroke:#800;stroke-width:10;stroke-opacity:1.000000;stroke-linecap:round"/>
  <line x1="-128" y1="1892" x2="-125" y2="1894" style="stroke:#800;stroke-width:10;stroke-opacity:1.000000;stroke-linecap:round"/>
  <line x1="-125" y1="1894" x2="-121" y2="1896" style="stroke:#800;stroke-width:10;stroke-opacity:1.000000;stroke-linecap:round"/>
  <line x1="-121" y1="1896" x2="-118" y2="1897" style="stroke:#800;stroke-width:10;stroke-opacity:1.000000;stroke-linecap:round"/>
  <line x1="-118" y1="1897" x2="-114" y2="1898" style="stroke:#800;stroke-width:10;stroke-opacity:1.000000;stroke-linecap:round"/>
  <line x1="-114" y1="1898" x2="-111" y2="1898" style="stroke:#800;stroke-width:10;stroke-opacity:1.000000;stroke-linecap:round"/>
  <line x1="-111" y1="1898" x2="-107" y2="1898" style="stroke:#800;stroke-width:10;stroke-opacity:1.000000;stroke-linecap:round"/>
  <line x1="-107" y1="1898" x2="-103" y2="1898" style="stroke:#800;stroke-width:10;stroke-opacity:1.000000;stroke-linecap:round"/>
  <line x1="-103" y1="1898" x2="-100" y2="1898" style="stroke:#800;stroke-width:10;stroke-opacity:1.000000;stroke-linecap:round"/>
  <line x1="-100" y1="-1909" x2="-103" y2="-1909" style="stroke:#800;stroke-width:10;stroke-opacity:1.000000;stroke-linecap:round"/>
  <line x1="-103" y1="-1909" x2="-107" y2="-1909" style="stroke:#800;stroke-width:10;stroke-opacity:1.000000;stroke-linecap:round"/>
  <line x1="-107" y1="-1909" x2="-111" y2="-1909" style="stroke:#800;stroke-width:10;stroke-opacity:1.000000;stroke-linecap:round"/>
  <line x1="-111" y1="-1909" x2="-114" y2="-1909" style="stroke:#800;stroke-width:10;stroke-opacity:1.000000;stroke-linecap:round"/>
  <line x1="-114" y1="-1909" x2="-118" y2="-1908" style="stroke:#800;stroke-width:10;stroke-opacity:1.000000;stroke-linecap:round"/>
  <line x1="-118" y1="-1908" x2="-122" y2="-1906" style="stroke:#800;stroke-width:10;stroke-opacity:1.000000;stroke-linecap:round"/>
  <line x1="-122" y1="-1906" x2="-125" y2="-1905" style="stroke:#800;stroke-width:10;stroke-opacity:1.000000;stroke-linecap:round"/>
  <line x1="-125" y1="-1905" x2="-128" y2="-1903" style="stroke:#800;stroke-width:10;stroke-opacity:1.000000;stroke-linecap:round"/>
  <line x1="-128" y1="-1903" x2="-131" y2="-1901" style="stroke:#800;stroke-width:10;stroke-opacity:1.000000;stroke-linecap:round"/>
  <line x1="-131" y1="-1901" x2="-134" y2="-1899" style="stroke:#800;stroke-width:10;stroke-opacity:1.000000;stroke-linecap:round"/>
  <line x1="-134" y1="-1899" x2="-137" y2="-1896" style="stroke:#800;stroke-width:10;stroke-opacity:1.000000;stroke-linecap:round"/>
  <line x1="-137" y1="-1896" x2="-140" y2="-1893" style="stroke:#800;stroke-width:10;stroke-opacity:1.000000;stroke-linecap:round"/>
  <line x1="-140" y1="-1893" x2="-142" y2="-1890" style="stroke:#800;stroke-width:10;stroke-opacity:1.000000;stroke-linecap:round"/>
  <line x1="-142" y1="-1890" x2="-144" y2="-1887" style="stroke:#800;stroke-width:10;stroke-opacity:1.000000;stroke-linecap:round"/>
  <line x1="-144" y1="-1887" x2="-145" y2="-1884" style="stroke:#800;stroke-width:10;stroke-opacity:1.000000;stroke-linecap:round"/>
  <line x1="-145" y1="-1884" x2="-147" y2="-1880" style="stroke:#800;stroke-width:10;stroke-opacity:1.000000;stroke-linecap:round"/>
  <line x1="-147" y1="-1880" x2="-148" y2="-1877" style="stroke:#800;stroke-width:10;stroke-opacity:1.000000;stroke-linecap:round"/>
  <line x1="-148" y1="-1877" x2="-149" y2="-1873" style="stroke:#800;stroke-width:10;stroke-opacity:1.000000;stroke-linecap:round"/>
  <line x1="-149" y1="-1873" x2="-149" y2="-1870" style="stroke:#800;stroke-width:10;stroke-opacity:1.000000;stroke-linecap:round"/>
  <line x1="129" y1="1799" x2="131" y2="1798" style="stroke:#800;stroke-width:10;stroke-opacity:1.000000;stroke-linecap:round"/>
  <line x1="131" y1="1798" x2="133" y2="1797" style="stroke:#800;stroke-width:10;stroke-opacity:1.000000;stroke-linecap:round"/>
  <line x1="133" y1="1797" x2="135" y2="1796" style="stroke:#800;stroke-width:10;stroke-opacity:1.000000;stroke-linecap:round"/>
  <line x1="135" y1="1796" x2="136" y2="1795" style="stroke:#800;stroke-width:10;stroke-opacity:1.000000;stroke-linecap:round"/>
  <line x1="136" y1="1795" x2="138" y2="1794" style="stroke:#800;stroke-width:10;stroke-opacity:1.000000;stroke-linecap:round"/>
  <line x1="138" y1="1794" x2="139" y2="1792" style="stroke:#800;stroke-width:10;stroke-opacity:1.000000;stroke-linecap:round"/>
  <line x1="139" y1="1792" x2="140" y2="1791" style="stroke:#800;stroke-width:10;stroke-opacity:1.000000;stroke-linecap:round"/>
  <line x1="140" y1="1791" x2="142" y2="1789" style="stroke:#800;stroke-width:10;stroke-opacity:1.000000;stroke-linecap:round"/>
  <line x1="142" y1="1789" x2="143" y2="1788" style="stroke:#800;stroke-width:10;stroke-opacity:1.000000;stroke-linecap:round"/>
  <line x1="143" y1="1788" x2="144" y2="1786" style="stroke:#800;stroke-width:10;stroke-opacity:1.000000;stroke-linecap:round"/>
  <line x1="144" y1="1786" x2="145" y2="1785" style="stroke:#800;stroke-width:10;stroke-opacity:1.000000;stroke-linecap:round"/>
  <line x1="145" y1="1785" x2="146" y2="1783" style="stroke:#800;stroke-width:10;stroke-opacity:1.000000;stroke-linecap:round"/>
  <line x1="146" y1="1783" x2="147" y2="1781" style="stroke:#800;stroke-width:10;stroke-opacity:1.000000;stroke-linecap:round"/>
  <line x1="147" y1="1781" x2="148" y2="1779" style="stroke:#800;stroke-width:10;stroke-opacity:1.000000;stroke-linecap:round"/>
  <line x1="148" y1="1779" x2="148" y2="1777" style="stroke:#800;stroke-width:10;stroke-opacity:1.000000;stroke-linecap:round"/>
  <line x1="148" y1="1777" x2="149" y2="1775" style="stroke:#800;stroke-width:10;stroke-opacity:1.000000;stroke-linecap:round"/>
  <line x1="149" y1="1775" x2="149" y2="1773" style="stroke:#800;stroke-width:10;stroke-opacity:1.000000;stroke-linecap:round"/>
  <line x1="149" y1="1773" x2="149" y2="1771" style="stroke:#800;stroke-width:10;stroke-opacity:1.000000;stroke-linecap:round"/>
  <line x1="149" y1="1771" x2="149" y2="1769" style="stroke:#800;stroke-width:10;stroke-opacity:1.000000;stroke-linecap:round"/>
  <line x1="148" y1="-1770" x2="148" y2="-1772" style="stroke:#800;stroke-width:10;stroke-opacity:1.000000;stroke-linecap:round"/>
  <line x1="148" y1="-1772" x2="148" y2="-1773" style="stroke:#800;stroke-width:10;stroke-opacity:1.000000;stroke-linecap:round"/>
  <line x1="148" y1="-1773" x2="148" y2="-1775" style="stroke:#800;stroke-width:10;stroke-opacity:1.000000;stroke-linecap:round"/>
  <line x1="148" y1="-1775" x2="148" y2="-1777" style="stroke:#800;stroke-width:10;stroke-opacity:1.000000;stroke-linecap:round"/>
  <line x1="148" y1="-1777" x2="147" y2="-1779" style="stroke:#800;stroke-width:10;stroke-opacity:1.000000;stroke-linecap:round"/>
  <line x1="147" y1="-1779" x2="146" y2="-1781" style="stroke:#800;stroke-width:10;stroke-opacity:1.000000;stroke-linecap:round"/>
  <line x1="146" y1="-1781" x2="146" y2="-1783" style="stroke:#800;stroke-width:10;stroke-opacity:1.000000;stroke-linecap:round"/>
  <line x1="146" y1="-1783" x2="145" y2="-1785" style="stroke:#800;stroke-width:10;stroke-opacity:1.000000;stroke-linecap:round"/>
  <line x1="145" y1="-1785" x2="144" y2="-1786" style="stroke:#800;stroke-width:10;stroke-opacity:1.000000;stroke-linecap:round"/>
  <line x1="144" y1="-1786" x2="143" y2="-1788" style="stroke:#800;stroke-width:10;stroke-opacity:1.000000;stroke-linecap:round"/>
  <line x1="143" y1="-1788" x2="142" y2="-1789" style="stroke:#800;stroke-width:10;stroke-opacity:1.000000;stroke-linecap:round"/>
  <line x1="142" y1="-1789" x2="140" y2="-1791" style="stroke:#800;stroke-width:10;stroke-opacity:1.000000;stroke-linecap:round"/>
  <line x1="140" y1="-1791" x2="139" y2="-1792" style="stroke:#800;stroke-width:10;stroke-opacity:1.000000;stroke-linecap:round"/>
  <line x1="139" y1="-1792" x2="138" y2="-1794" style="stroke:#800;stroke-width:10;stroke-opacity:1.000000;stroke-linecap:round"/>
  <line x1="138" y1="-1794" x2="136" y2="-1795" style="stroke:#800;stroke-width:10;stroke-opacity:1.000000;stroke-linecap:round"/>
  <line x1="136" y1="-1795" x2="134" y2="-1796" style="stroke:#800;stroke-width:10;stroke-opacity:1.000000;stroke-linecap:round"/>
  <line x1="134" y1="-1796" x2="133" y2="-1797" style="stroke:#800;stroke-width:10;stroke-opacity:1.000000;stroke-linecap:round"/>
  <line x1="133" y1="-1797" x2="131" y2="-1798" style="stroke:#800;stroke-width:10;stroke-opacity:1.000000;stroke-linecap:round"/>
  <line x1="131" y1="-1798" x2="129" y2="-1799" style="stroke:#800;stroke-width:10;stroke-opacity:1.000000;stroke-linecap:round"/>
  <circle cx="-70" cy="1800" r="30"
    style="fill:none;stroke:#800;stroke-width:10"  />
  <circle cx="-70" cy="1600" r="30"
    style="fill:none;stroke:#800;stroke-width:10"  />
  <circle cx="-70" cy="1400" r="30"
    style="fill:none;stroke:#800;stroke-width:10"  />
  <circle cx="-70" cy="1200" r="30"
    style="fill:none;stroke:#800;stroke-width:10"  />
  <circle cx="-70" cy="1000" r="30"
    style="fill:none;stroke:#800;stroke-width:10"  />
  <circle cx="-70" cy="800" r="30"
    style="fill:none;stroke:#800;stroke-width:10"  />
  <circle cx="-70" cy="600" r="30"
    style="fill:none;stroke:#800;stroke-width:10"  />
  <circle cx="-70" cy="400" r="30"
    style="fill:none;stroke:#800;stroke-width:10"  />
  <circle cx="-70" cy="200" r="30"
    style="fill:none;stroke:#800;stroke-width:10"  />
  <circle cx="-70" cy="0" r="30"
    style="fill:none;stroke:#800;stroke-width:10"  />
  <circle cx="-70" cy="-200" r="30"
    style="fill:none;stroke:#800;stroke-width:10"  />
  <circle cx="-70" cy="-400" r="30"
    style="fill:none;stroke:#800;stroke-width:10"  />
  <circle cx="-70" cy="-600" r="30"
    style="fill:none;stroke:#800;stroke-width:10"  />
  <circle cx="-70" cy="-800" r="30"
    style="fill:none;stroke:#800;stroke-width:10"  />
  <circle cx="-70" cy="-1000" r="30"
    style="fill:none;stroke:#800;stroke-width:10"  />
  <circle cx="-70" cy="-1200" r="30"
    style="fill:none;stroke:#800;stroke-width:10"  />
  <circle cx="-70" cy="-1400" r="30"
    style="fill:none;stroke:#800;stroke-width:10"  />
  <circle cx="-70" cy="-1600" r="30"
    style="fill:none;stroke:#800;stroke-width:10"  />
  <circle cx="-70" cy="-1800" r="30"
    style="fill:none;stroke:#800;stroke-width:10"  />
  <circle cx="50" cy="1700" r="30"
    style="fill:none;stroke:#800;stroke-width:10"  />
  <circle cx="50" cy="1500" r="30"
    style="fill:none;stroke:#800;stroke-width:10"  />
  <circle cx="50" cy="1300" r="30"
    style="fill:none;stroke:#800;stroke-width:10"  />
  <circle cx="50" cy="1100" r="30"
    style="fill:none;stroke:#800;stroke-width:10"  />
  <circle cx="50" cy="900" r="30"
    style="fill:none;stroke:#800;stroke-width:10"  />
  <circle cx="50" cy="700" r="30"
    style="fill:none;stroke:#800;stroke-width:10"  />
  <circle cx="50" cy="500" r="30"
    style="fill:none;stroke:#800;stroke-width:10"  />
  <circle cx="50" cy="300" r="30"
    style="fill:none;stroke:#800;stroke-width:10"  />
  <circle cx="50" cy="100" r="30"
    style="fill:none;stroke:#800;stroke-width:10"  />
  <circle cx="50" cy="-100" r="30"
    style="fill:none;stroke:#800;stroke-width:10"  />
  <circle cx="50" cy="-300" r="30"
    style="fill:none;stroke:#800;stroke-width:10"  />
  <circle cx="50" cy="-500" r="30"
    style="fill:none;stroke:#800;stroke-width:10"  />
  <circle cx="50" cy="-700" r="30"
    style="fill:none;stroke:#800;stroke-width:10"  />
  <circle cx="50" cy="-900" r="30"
    style="fill:none;stroke:#800;stroke-width:10"  />
  <circle cx="50" cy="-1100" r="30"
    style="fill:none;stroke:#800;stroke-width:10"  />
  <circle cx="50" cy="-1300" r="30"
    style="fill:none;stroke:#800;stroke-width:10"  />
  <circle cx="50" cy="-1500" r="30"
    style="fill:none;stroke:#800;stroke-width:10"  />
  <circle cx="50" cy="-1700" r="30"
    style="fill:none;stroke:#800;stroke-width:10"  />
  <line x1="-150" y1="1800" x2="-100" y2="1800" style="stroke:#800;stroke-width:10;stroke-opacity:1.000000;stroke-linecap:round"/>
  <line x1="-150" y1="1700" x2="20" y2="1700" style="stroke:#800;stroke-width:10;stroke-opacity:1.000000;stroke-linecap:round"/>
  <line x1="-150" y1="1600" x2="-100" y2="1600" style="stroke:#800;stroke-width:10;stroke-opacity:1.000000;stroke-linecap:round"/>
  <line x1="-150" y1="1500" x2="20" y2="1500" style="stroke:#800;stroke-width:10;stroke-opacity:1.000000;stroke-linecap:round"/>
  <line x1="-150" y1="1400" x2="-100" y2="1400" style="stroke:#800;stroke-width:10;stroke-opacity:1.000000;stroke-linecap:round"/>
  <line x1="-150" y1="1300" x2="20" y2="1300" style="stroke:#800;stroke-width:10;stroke-opacity:1.000000;stroke-linecap:round"/>
  <line x1="-150" y1="1200" x2="-100" y2="1200" style="stroke:#800;stroke-width:10;stroke-opacity:1.000000;stroke-linecap:round"/>
  <line x1="-150" y1="1100" x2="20" y2="1100" style="stroke:#800;stroke-width:10;stroke-opacity:1.000000;stroke-linecap:round"/>
  <line x1="-150" y1="1000" x2="-100" y2="1000" style="stroke:#800;stroke-width:10;stroke-opacity:1.000000;stroke-linecap:round"/>
  <line x1="-150" y1="900" x2="20" y2="900" style="stroke:#800;stroke-width:10;stroke-opacity:1.000000;stroke-linecap:round"/>
  <line x1="-150" y1="800" x2="-100" y2="800" style="stroke:#800;stroke-width:10;stroke-opacity:1.000000;stroke-linecap:round"/>
  <line x1="-150" y1="700" x2="20" y2="700" style="stroke:#800;stroke-width:10;stroke-opacity:1.000000;stroke-linecap:round"/>
  <line x1="-150" y1="600" x2="-100" y2="600" style="stroke:#800;stroke-width:10;stroke-opacity:1.000000;stroke-linecap:round"/>
  <line x1="-150" y1="500" x2="20" y2="500" style="stroke:#800;stroke-width:10;stroke-opacity:1.000000;stroke-linecap:round"/>
  <line x1="-150" y1="400" x2="-100" y2="400" style="stroke:#800;stroke-width:10;stroke-opacity:1.000000;stroke-linecap:round"/>
  <line x1="-150" y1="300" x2="20" y2="300" style="stroke:#800;stroke-width:10;stroke-opacity:1.000000;stroke-linecap:round"/>
  <line x1="-150" y1="200" x2="-100" y2="200" style="stroke:#800;stroke-width:10;stroke-opacity:1.000000;stroke-linecap:round"/>
  <line x1="-150" y1="100" x2="20" y2="100" style="stroke:#800;stroke-width:10;stroke-opacity:1.000000;stroke-linecap:round"/>
  <line x1="-150" y1="0" x2="-100" y2="0" style="stroke:#800;stroke-width:10;stroke-opacity:1.000000;stroke-linecap:round"/>
  <line x1="-150" y1="-100" x2="20" y2="-100" style="stroke:#800;stroke-width:10;stroke-opacity:1.000000;stroke-linecap:round"/>
  <line x1="-150" y1="-200" x2="-100" y2="-200" style="stroke:#800;stroke-width:10;stroke-opacity:1.000000;stroke-linecap:round"/>
  <line x1="-150" y1="-300" x2="20" y2="-300" style="stroke:#800;stroke-width:10;stroke-opacity:1.000000;stroke-linecap:round"/>
  <line x1="-150" y1="-400" x2="-100" y2="-400" style="stroke:#800;stroke-width:10;stroke-opacity:1.000000;stroke-linecap:round"/>
  <line x1="-150" y1="-500" x2="20" y2="-500" style="stroke:#800;stroke-width:10;stroke-opacity:1.000000;stroke-linecap:round"/>
  <line x1="-150" y1="-600" x2="-100" y2="-600" style="stroke:#800;stroke-width:10;stroke-opacity:1.000000;stroke-linecap:round"/>
  <line x1="-150" y1="-700" x2="20" y2="-700" style="stroke:#800;stroke-width:10;stroke-opacity:1.000000;stroke-linecap:round"/>
  <line x1="-150" y1="-800" x2="-100" y2="-800" style="stroke:#800;stroke-width:10;stroke-opacity:1.000000;stroke-linecap:round"/>
  <line x1="-150" y1="-900" x2="20" y2="-900" style="stroke:#800;stroke-width:10;stroke-opacity:1.000000;stroke-linecap:round"/>
  <line x1="-150" y1="-1000" x2="-100" y2="-1000" style="stroke:#800;stroke-width:10;stroke-opacity:1.000000;stroke-linecap:round"/>
  <line x1="-150" y1="-1100" x2="20" y2="-1100" style="stroke:#800;stroke-width:10;stroke-opacity:1.000000;stroke-linecap:round"/>
  <line x1="-150" y1="-1200" x2="-100" y2="-1200" style="stroke:#800;stroke-width:10;stroke-opacity:1.000000;stroke-linecap:round"/>
  <line x1="-150" y1="-1300" x2="20" y2="-1300" style="stroke:#800;stroke-width:10;stroke-opacity:1.000000;stroke-linecap:round"/>
  <line x1="-150" y1="-1400" x2="-100" y2="-1400" style="stroke:#800;stroke-width:10;stroke-opacity:1.000000;stroke-linecap:round"/>
  <line x1="-150" y1="-1500" x2="20" y2="-1500" style="stroke:#800;stroke-width:10;stroke-opacity:1.000000;stroke-linecap:round"/>
  <line x1="-150" y1="-1600" x2="-100" y2="-1600" style="stroke:#800;stroke-width:10;stroke-opacity:1.000000;stroke-linecap:round"/>
  <line x1="-150" y1="-1700" x2="20" y2="-1700" style="stroke:#800;stroke-width:10;stroke-opacity:1.000000;stroke-linecap:round"/>
  <line x1="-150" y1="-1800" x2="-100" y2="-1800" style="stroke:#800;stroke-width:10;stroke-opacity:1.000000;stroke-linecap:round"/>
  <line x1="-150" y1="-1870" x2="-150" y2="1859" style="stroke:#800;stroke-width:10;stroke-opacity:1.000000;stroke-linecap:round"/>
  <line x1="-100" y1="1900" x2="130" y2="1800" style="stroke:#800;stroke-width:10;stroke-opacity:1.000000;stroke-linecap:round"/>
  <line x1="-100" y1="-1910" x2="130" y2="-1800" style="stroke:#800;stroke-width:10;stroke-opacity:1.000000;stroke-linecap:round"/>
  <line x1="150" y1="1770" x2="150" y2="-1770" style="stroke:#800;stroke-width:10;stroke-opacity:1.000000;stroke-linecap:round"/>
  <line x1="-450" y1="1800" x2="-150" y2="1800" style="stroke:#800;stroke-width:10;stroke-opacity:1.000000;stroke-linecap:round"/>
  <g transform="translate(-342,1794) rotate(0)" > <text font-size="100.0" fill="#800" font-family="monospace"  >
   1
  </text> </g> 
  <circle cx="-450" cy="1800" r="10"
    style="fill:none;stroke:#800;stroke-width:2"  />
  <line x1="-450" y1="1600" x2="-150" y2="1600" style="stroke:#800;stroke-width:10;stroke-opacity:1.000000;stroke-linecap:round"/>
  <g transform="translate(-342,1594) rotate(0)" > <text font-size="100.0" fill="#800" font-family="monospace"  >
   2
  </text> </g> 
  <circle cx="-450" cy="1600" r="10"
    style="fill:none;stroke:#800;stroke-width:2"  />
  <line x1="-450" y1="1400" x2="-150" y2="1400" style="stroke:#800;stroke-width:10;stroke-opacity:1.000000;stroke-linecap:round"/>
  <g transform="translate(-342,1394) rotate(0)" > <text font-size="100.0" fill="#800" font-family="monospace"  >
   3
  </text> </g> 
  <circle cx="-450" cy="1400" r="10"
    style="fill:none;stroke:#800;stroke-width:2"  />
  <line x1="-450" y1="1200" x2="-150" y2="1200" style="stroke:#800;stroke-width:10;stroke-opacity:1.000000;stroke-linecap:round"/>
  <g transform="translate(-342,1194) rotate(0)" > <text font-size="100.0" fill="#800" font-family="monospace"  >
   4
  </text> </g> 
  <circle cx="-450" cy="1200" r="10"
    style="fill:none;stroke:#800;stroke-width:2"  />
  <line x1="-450" y1="1000" x2="-150" y2="1000" style="stroke:#800;stroke-width:10;stroke-opacity:1.000000;stroke-linecap:round"/>
  <g transform="translate(-342,994) rotate(0)" > <text font-size="100.0" fill="#800" font-family="monospace"  >
   5
  </text> </g> 
  <circle cx="-450" cy="1000" r="10"
    style="fill:none;stroke:#800;stroke-width:2"  />
  <line x1="-450" y1="800" x2="-150" y2="800" style="stroke:#800;stroke-width:10;stroke-opacity:1.000000;stroke-linecap:round"/>
  <g transform="translate(-342,794) rotate(0)" > <text font-size="100.0" fill="#800" font-family="monospace"  >
   6
  </text> </g> 
  <circle cx="-450" cy="800" r="10"
    style="fill:none;stroke:#800;stroke-width:2"  />
  <line x1="-450" y1="600" x2="-150" y2="600" style="stroke:#800;stroke-width:10;stroke-opacity:1.000000;stroke-linecap:round"/>
  <g transform="translate(-342,594) rotate(0)" > <text font-size="100.0" fill="#800" font-family="monospace"  >
   7
  </text> </g> 
  <circle cx="-450" cy="600" r="10"
    style="fill:none;stroke:#800;stroke-width:2"  />
  <line x1="-450" y1="400" x2="-150" y2="400" style="stroke:#800;stroke-width:10;stroke-opacity:1.000000;stroke-linecap:round"/>
  <g transform="translate(-342,394) rotate(0)" > <text font-size="100.0" fill="#800" font-family="monospace"  >
   8
  </text> </g> 
  <circle cx="-450" cy="400" r="10"
    style="fill:none;stroke:#800;stroke-width:2"  />
  <line x1="-450" y1="200" x2="-150" y2="200" style="stroke:#800;stroke-width:10;stroke-opacity:1.000000;stroke-linecap:round"/>
  <g transform="translate(-342,194) rotate(0)" > <text font-size="100.0" fill="#800" font-family="monospace"  >
   9
  </text> </g> 
  <circle cx="-450" cy="200" r="10"
    style="fill:none;stroke:#800;stroke-width:2"  />
  <line x1="-450" y1="0" x2="-150" y2="0" style="stroke:#800;stroke-width:10;stroke-opacity:1.000000;stroke-linecap:round"/>
  <g transform="translate(-385,-6) rotate(0)" > <text font-size="100.0" fill="#800" font-family="monospace"  >
   10
  </text> </g> 
  <circle cx="-450" cy="0" r="10"
    style="fill:none;stroke:#800;stroke-width:2"  />
  <line x1="-450" y1="1700" x2="-150" y2="1700" style="stroke:#800;stroke-width:10;stroke-opacity:1.000000;stroke-linecap:round"/>
  <g transform="translate(-385,1694) rotate(0)" > <text font-size="100.0" fill="#800" font-family="monospace"  >
   20
  </text> </g> 
  <circle cx="-450" cy="1700" r="10"
    style="fill:none;stroke:#800;stroke-width:2"  />
  <line x1="-450" y1="-300" x2="-150" y2="-300" style="stroke:#800;stroke-width:10;stroke-opacity:1.000000;stroke-linecap:round"/>
  <g transform="translate(-385,-306) rotate(0)" > <text font-size="100.0" fill="#800" font-family="monospace"  >
   30
  </text> </g> 
  <circle cx="-450" cy="-300" r="10"
    style="fill:none;stroke:#800;stroke-width:2"  />
  <line x1="-450" y1="-200" x2="-150" y2="-200" style="stroke:#800;stroke-width:10;stroke-opacity:1.000000;stroke-linecap:round"/>
  <g transform="translate(-385,-206) rotate(0)" > <text font-size="100.0" fill="#800" font-family="monospace"  >
   11
  </text> </g> 
  <circle cx="-450" cy="-200" r="10"
    style="fill:none;stroke:#800;stroke-width:2"  />
  <line x1="-450" y1="1500" x2="-150" y2="1500" style="stroke:#800;stroke-width:10;stroke-opacity:1.000000;stroke-linecap:round"/>
  <g transform="translate(-385,1494) rotate(0)" > <text font-size="100.0" fill="#800" font-family="monospace"  >
   21
  </text> </g> 
  <circle cx="-450" cy="1500" r="10"
    style="fill:none;stroke:#800;stroke-width:2"  />
  <line x1="-450" y1="-500" x2="-150" y2="-500" style="stroke:#800;stroke-width:10;stroke-opacity:1.000000;stroke-linecap:round"/>
  <g transform="translate(-385,-506) rotate(0)" > <text font-size="100.0" fill="#800" font-family="monospace"  >
   31
  </text> </g> 
  <circle cx="-450" cy="-500" r="10"
    style="fill:none;stroke:#800;stroke-width:2"  />
  <line x1="-450" y1="-400" x2="-150" y2="-400" style="stroke:#800;stroke-width:10;stroke-opacity:1.000000;stroke-linecap:round"/>
  <g transform="translate(-385,-406) rotate(0)" > <text font-size="100.0" fill="#800" font-family="monospace"  >
   12
  </text> </g> 
  <circle cx="-450" cy="-400" r="10"
    style="fill:none;stroke:#800;stroke-width:2"  />
  <line x1="-450" y1="1300" x2="-150" y2="1300" style="stroke:#800;stroke-width:10;stroke-opacity:1.000000;stroke-linecap:round"/>
  <g transform="translate(-385,1294) rotate(0)" > <text font-size="100.0" fill="#800" font-family="monospace"  >
   22
  </text> </g> 
  <circle cx="-450" cy="1300" r="10"
    style="fill:none;stroke:#800;stroke-width:2"  />
  <line x1="-450" y1="-700" x2="-150" y2="-700" style="stroke:#800;stroke-width:10;stroke-opacity:1.000000;stroke-linecap:round"/>
  <g transform="translate(-385,-706) rotate(0)" > <text font-size="100.0" fill="#800" font-family="monospace"  >
   32
  </text> </g> 
  <circle cx="-450" cy="-700" r="10"
    style="fill:none;stroke:#800;stroke-width:2"  />
  <line x1="-450" y1="-600" x2="-150" y2="-600" style="stroke:#800;stroke-width:10;stroke-opacity:1.000000;stroke-linecap:round"/>
  <g transform="translate(-385,-606) rotate(0)" > <text font-size="100.0" fill="#800" font-family="monospace"  >
   13
  </text> </g> 
  <circle cx="-450" cy="-600" r="10"
    style="fill:none;stroke:#800;stroke-width:2"  />
  <line x1="-450" y1="1100" x2="-150" y2="1100" style="stroke:#800;stroke-width:10;stroke-opacity:1.000000;stroke-linecap:round"/>
  <g transform="translate(-385,1094) rotate(0)" > <text font-size="100.0" fill="#800" font-family="monospace"  >
   23
  </text> </g> 
  <circle cx="-450" cy="1100" r="10"
    style="fill:none;stroke:#800;stroke-width:2"  />
  <line x1="-450" y1="-900" x2="-150" y2="-900" style="stroke:#800;stroke-width:10;stroke-opacity:1.000000;stroke-linecap:round"/>
  <g transform="translate(-385,-906) rotate(0)" > <text font-size="100.0" fill="#800" font-family="monospace"  >
   33
  </text> </g> 
  <circle cx="-450" cy="-900" r="10"
    style="fill:none;stroke:#800;stroke-width:2"  />
  <line x1="-450" y1="-800" x2="-150" y2="-800" style="stroke:#800;stroke-width:10;stroke-opacity:1.000000;stroke-linecap:round"/>
  <g transform="translate(-385,-806) rotate(0)" > <text font-size="100.0" fill="#800" font-family="monospace"  >
   14
  </text> </g> 
  <circle cx="-450" cy="-800" r="10"
    style="fill:none;stroke:#800;stroke-width:2"  />
  <line x1="-450" y1="900" x2="-150" y2="900" style="stroke:#800;stroke-width:10;stroke-opacity:1.000000;stroke-linecap:round"/>
  <g transform="translate(-385,894) rotate(0)" > <text font-size="100.0" fill="#800" font-family="monospace"  >
   24
  </text> </g> 
  <circle cx="-450" cy="900" r="10"
    style="fill:none;stroke:#800;stroke-width:2"  />
  <line x1="-450" y1="-1100" x2="-150" y2="-1100" style="stroke:#800;stroke-width:10;stroke-opacity:1.000000;stroke-linecap:round"/>
  <g transform="translate(-385,-1106) rotate(0)" > <text font-size="100.0" fill="#800" font-family="monospace"  >
   34
  </text> </g> 
  <circle cx="-450" cy="-1100" r="10"
    style="fill:none;stroke:#800;stroke-width:2"  />
  <line x1="-450" y1="-1000" x2="-150" y2="-1000" style="stroke:#800;stroke-width:10;stroke-opacity:1.000000;stroke-linecap:round"/>
  <g transform="translate(-385,-1006) rotate(0)" > <text font-size="100.0" fill="#800" font-family="monospace"  >
   15
  </text> </g> 
  <circle cx="-450" cy="-1000" r="10"
    style="fill:none;stroke:#800;stroke-width:2"  />
  <line x1="-450" y1="700" x2="-150" y2="700" style="stroke:#800;stroke-width:10;stroke-opacity:1.000000;stroke-linecap:round"/>
  <g transform="translate(-385,694) rotate(0)" > <text font-size="100.0" fill="#800" font-family="monospace"  >
   25
  </text> </g> 
  <circle cx="-450" cy="700" r="10"
    style="fill:none;stroke:#800;stroke-width:2"  />
  <line x1="-450" y1="-1300" x2="-150" y2="-1300" style="stroke:#800;stroke-width:10;stroke-opacity:1.000000;stroke-linecap:round"/>
  <g transform="translate(-385,-1306) rotate(0)" > <text font-size="100.0" fill="#800" font-family="monospace"  >
   35
  </text> </g> 
  <circle cx="-450" cy="-1300" r="10"
    style="fill:none;stroke:#800;stroke-width:2"  />
  <line x1="-450" y1="-1200" x2="-150" y2="-1200" style="stroke:#800;stroke-width:10;stroke-opacity:1.000000;stroke-linecap:round"/>
  <g transform="translate(-385,-1206) rotate(0)" > <text font-size="100.0" fill="#800" font-family="monospace"  >
   16
  </text> </g> 
  <circle cx="-450" cy="-1200" r="10"
    style="fill:none;stroke:#800;stroke-width:2"  />
  <line x1="-450" y1="500" x2="-150" y2="500" style="stroke:#800;stroke-width:10;stroke-opacity:1.000000;stroke-linecap:round"/>
  <g transform="translate(-385,494) rotate(0)" > <text font-size="100.0" fill="#800" font-family="monospace"  >
   26
  </text> </g> 
  <circle cx="-450" cy="500" r="10"
    style="fill:none;stroke:#800;stroke-width:2"  />
  <line x1="-450" y1="-1500" x2="-150" y2="-1500" style="stroke:#800;stroke-width:10;stroke-opacity:1.000000;stroke-linecap:round"/>
  <g transform="translate(-385,-1506) rotate(0)" > <text font-size="100.0" fill="#800" font-family="monospace"  >
   36
  </text> </g> 
  <circle cx="-450" cy="-1500" r="10"
    style="fill:none;stroke:#800;stroke-width:2"  />
  <line x1="-450" y1="-1400" x2="-150" y2="-1400" style="stroke:#800;stroke-width:10;stroke-opacity:1.000000;stroke-linecap:round"/>
  <g transform="translate(-385,-1406) rotate(0)" > <text font-size="100.0" fill="#800" font-family="monospace"  >
   17
  </text> </g> 
  <circle cx="-450" cy="-1400" r="10"
    style="fill:none;stroke:#800;stroke-width:2"  />
  <line x1="-450" y1="300" x2="-150" y2="300" style="stroke:#800;stroke-width:10;stroke-opacity:1.000000;stroke-linecap:round"/>
  <g transform="translate(-385,294) rotate(0)" > <text font-size="100.0" fill="#800" font-family="monospace"  >
   27
  </text> </g> 
  <circle cx="-450" cy="300" r="10"
    style="fill:none;stroke:#800;stroke-width:2"  />
  <line x1="-450" y1="-1700" x2="-150" y2="-1700" style="stroke:#800;stroke-width:10;stroke-opacity:1.000000;stroke-linecap:round"/>
  <g transform="translate(-385,-1706) rotate(0)" > <text font-size="100.0" fill="#800" font-family="monospace"  >
   37
  </text> </g> 
  <circle cx="-450" cy="-1700" r="10"
    style="fill:none;stroke:#800;stroke-width:2"  />
  <line x1="-450" y1="-1600" x2="-150" y2="-1600" style="stroke:#800;stroke-width:10;stroke-opacity:1.000000;stroke-linecap:round"/>
  <g transform="translate(-385,-1606) rotate(0)" > <text font-size="100.0" fill="#800" font-family="monospace"  >
   18
  </text> </g> 
  <circle cx="-450" cy="-1600" r="10"
    style="fill:none;stroke:#800;stroke-width:2"  />
  <line x1="-450" y1="100" x2="-150" y2="100" style="stroke:#800;stroke-width:10;stroke-opacity:1.000000;stroke-linecap:round"/>
  <g transform="translate(-385,94) rotate(0)" > <text font-size="100.0" fill="#800" font-family="monospace"  >
   28
  </text> </g> 
  <circle cx="-450" cy="100" r="10"
    style="fill:none;stroke:#800;stroke-width:2"  />
  <line x1="-450" y1="-1800" x2="-150" y2="-1800" style="stroke:#800;stroke-width:10;stroke-opacity:1.000000;stroke-linecap:round"/>
  <g transform="translate(-385,-1806) rotate(0)" > <text font-size="100.0" fill="#800" font-family="monospace"  >
   19
  </text> </g> 
  <circle cx="-450" cy="-1800" r="10"
    style="fill:none;stroke:#800;stroke-width:2"  />
  <line x1="-450" y1="-100" x2="-150" y2="-100" style="stroke:#800;stroke-width:10;stroke-opacity:1.000000;stroke-linecap:round"/>
  <g transform="translate(-385,-106) rotate(0)" > <text font-size="100.0" fill="#800" font-family="monospace"  >
   29
  </text> </g> 
  <circle cx="-450" cy="-100" r="10"
    style="fill:none;stroke:#800;stroke-width:2"  />
 </g>
</svg>
