<?xml version="1.0"?>
<svg height="189" width="159"  >
 <g style="fill-opacity:1.0; stroke:black;
  stroke-width:1;" transform=" translate( 79.75,94.75 ) scale( 0.15,0.15 )">
  <g transform="translate(120,-220) rotate(0)" > <text font-size="100.0" fill="#088" font-family="monospace"  >
   K
  </text> </g> 
  <g transform="translate(80,280) rotate(0)" > <text font-size="100.0" fill="#088" font-family="monospace"  >
   XLR3
  </text> </g> 
  <circle cx="-130" cy="0" r="40"
    style="fill:none;stroke:#800;stroke-width:10"  />
  <circle cx="0" cy="130" r="40"
    style="fill:none;stroke:#800;stroke-width:10"  />
  <circle cx="0" cy="0" r="200"
    style="fill:#ff8;stroke:#800;stroke-width:10"  />
  <circle cx="129" cy="0" r="40"
    style="fill:none;stroke:#800;stroke-width:10"  />
  <g transform="translate(-120,-70) rotate(0)" > <text font-size="66.6666666667" fill="#800" font-family="monospace"  >
   1
  </text> </g> 
  <g transform="translate(80,-70) rotate(0)" > <text font-size="66.6666666667" fill="#800" font-family="monospace"  >
   2
  </text> </g> 
  <g transform="translate(-10,60) rotate(0)" > <text font-size="66.6666666667" fill="#800" font-family="monospace"  >
   3
  </text> </g> 
  <line x1="-350" y1="0" x2="-200" y2="0" style="stroke:#800;stroke-width:10;stroke-opacity:1.000000;stroke-linecap:round"/>
  <g transform="translate(-317,-6) rotate(0)" > <text font-size="100.0" fill="#800" font-family="monospace"  >
   1
  </text> </g> 
  <circle cx="-350" cy="0" r="10"
    style="fill:none;stroke:#800;stroke-width:2"  />
  <line x1="350" y1="0" x2="200" y2="0" style="stroke:#800;stroke-width:10;stroke-opacity:1.000000;stroke-linecap:round"/>
  <g transform="translate(232,-6) rotate(0)" > <text font-size="100.0" fill="#800" font-family="monospace"  >
   2
  </text> </g> 
  <circle cx="350" cy="0" r="10"
    style="fill:none;stroke:#800;stroke-width:2"  />
  <line x1="0" y1="350" x2="0" y2="200" style="stroke:#800;stroke-width:10;stroke-opacity:1.000000;stroke-linecap:round"/>
  <g transform="translate(-15,290) rotate(-90)" > <text font-size="100.0" fill="#800" font-family="monospace"  >
   3
  </text> </g> 
  <circle cx="0" cy="350" r="10"
    style="fill:none;stroke:#800;stroke-width:2"  />
 </g>
</svg>
