<?xml version="1.0"?>
<svg height="193" width="138"  >
 <g style="fill-opacity:1.0; stroke:black;
  stroke-width:1;" transform=" translate( 69.0,96.5 ) scale( 0.15,0.15 )">
  <g transform="translate(-120,-130) rotate(0)" > <text font-size="66.6666666667" fill="#088" font-family="monospace"  >
   U
  </text> </g> 
  <g transform="translate(-180,220) rotate(0)" > <text font-size="66.6666666667" fill="#088" font-family="monospace"  >
   74LVC1G18
  </text> </g> 
  <line x1="-50" y1="150" x2="0" y2="150" style="stroke:#800;stroke-width:10;stroke-opacity:1.000000;stroke-linecap:round"/>
  <line x1="0" y1="150" x2="0" y2="75" style="stroke:#800;stroke-width:10;stroke-opacity:1.000000;stroke-linecap:round"/>
  <line x1="-50" y1="-50" x2="-50" y2="50" style="stroke:#800;stroke-width:10;stroke-opacity:1.000000;stroke-linecap:round"/>
  <line x1="-50" y1="50" x2="50" y2="100" style="stroke:#800;stroke-width:10;stroke-opacity:1.000000;stroke-linecap:round"/>
  <line x1="50" y1="100" x2="50" y2="25" style="stroke:#800;stroke-width:10;stroke-opacity:1.000000;stroke-linecap:round"/>
  <line x1="50" y1="25" x2="50" y2="0" style="stroke:#800;stroke-width:10;stroke-opacity:1.000000;stroke-linecap:round"/>
  <line x1="50" y1="0" x2="50" y2="-25" style="stroke:#800;stroke-width:10;stroke-opacity:1.000000;stroke-linecap:round"/>
  <line x1="50" y1="-25" x2="50" y2="-100" style="stroke:#800;stroke-width:10;stroke-opacity:1.000000;stroke-linecap:round"/>
  <line x1="50" y1="-100" x2="-50" y2="-50" style="stroke:#800;stroke-width:10;stroke-opacity:1.000000;stroke-linecap:round"/>
  <line x1="-200" y1="150" x2="-50" y2="150" style="stroke:#800;stroke-width:10;stroke-opacity:1.000000;stroke-linecap:round"/>
  <g transform="translate(-153,144) rotate(0)" > <text font-size="66.6666666667" fill="#800" font-family="monospace"  >
   1
  </text> </g> 
  <circle cx="-200" cy="150" r="10"
    style="fill:none;stroke:#800;stroke-width:2"  />
  <g transform="translate(40,110) rotate(-90)" > <text font-size="66.6666666667" fill="#888" font-family="monospace"  >
   2
  </text> </g> 
  <g transform="translate(55,253) rotate(-90)" > <text font-size="66.6666666667" fill="#888" font-family="monospace"  >
   GND
  </text> </g> 
  <circle cx="50" cy="100" r="10"
    style="fill:none;stroke:#888;stroke-width:2"  />
  <line x1="-200" y1="0" x2="-50" y2="0" style="stroke:#800;stroke-width:10;stroke-opacity:1.000000;stroke-linecap:round"/>
  <g transform="translate(-153,-6) rotate(0)" > <text font-size="66.6666666667" fill="#800" font-family="monospace"  >
   3
  </text> </g> 
  <circle cx="-200" cy="0" r="10"
    style="fill:none;stroke:#800;stroke-width:2"  />
  <line x1="200" y1="50" x2="50" y2="50" style="stroke:#800;stroke-width:10;stroke-opacity:1.000000;stroke-linecap:round"/>
  <g transform="translate(96,44) rotate(0)" > <text font-size="66.6666666667" fill="#800" font-family="monospace"  >
   4
  </text> </g> 
  <circle cx="200" cy="50" r="10"
    style="fill:none;stroke:#800;stroke-width:2"  />
  <g transform="translate(40,-90) rotate(-90)" > <text font-size="66.6666666667" fill="#888" font-family="monospace"  >
   5
  </text> </g> 
  <g transform="translate(55,-133) rotate(-90)" > <text font-size="66.6666666667" fill="#888" font-family="monospace"  >
   VCC
  </text> </g> 
  <circle cx="50" cy="-100" r="10"
    style="fill:none;stroke:#888;stroke-width:2"  />
  <line x1="200" y1="-50" x2="50" y2="-50" style="stroke:#800;stroke-width:10;stroke-opacity:1.000000;stroke-linecap:round"/>
  <g transform="translate(96,-56) rotate(0)" > <text font-size="66.6666666667" fill="#800" font-family="monospace"  >
   6
  </text> </g> 
  <circle cx="200" cy="-50" r="10"
    style="fill:none;stroke:#800;stroke-width:2"  />
 </g>
</svg>
