<?xml version="1.0"?>
<svg height="161" width="120"  >
 <g style="fill-opacity:1.0; stroke:black;
  stroke-width:1;" transform=" translate( 60.0,80.625 ) scale( 0.15,0.15 )">
  <g transform="translate(-25,-225) rotate(0)" > <text font-size="83.3333333333" fill="#088" font-family="monospace"  >
   Q
  </text> </g> 
  <g transform="translate(-350,125) rotate(0)" > <text font-size="83.3333333333" fill="#088" font-family="monospace"  >
   DARL_N
  </text> </g> 
  <line x1="-150" y1="50" x2="-150" y2="-150" style="stroke:#800;stroke-width:10;stroke-opacity:1.000000;stroke-linecap:round"/>
  <line x1="50" y1="-50" x2="50" y2="150" style="stroke:#800;stroke-width:10;stroke-opacity:1.000000;stroke-linecap:round"/>
  <line x1="50" y1="50" x2="150" y2="150" style="stroke:#800;stroke-width:10;stroke-opacity:1.000000;stroke-linecap:round"/>
  <line x1="-150" y1="-50" x2="-50" y2="50" style="stroke:#800;stroke-width:10;stroke-opacity:1.000000;stroke-linecap:round"/>
  <line x1="-50" y1="50" x2="50" y2="50" style="stroke:#800;stroke-width:10;stroke-opacity:1.000000;stroke-linecap:round"/>
  <line x1="-150" y1="-50" x2="-50" y2="-150" style="stroke:#800;stroke-width:10;stroke-opacity:1.000000;stroke-linecap:round"/>
  <line x1="-50" y1="-150" x2="150" y2="-150" style="stroke:#800;stroke-width:10;stroke-opacity:1.000000;stroke-linecap:round"/>
<polygon points=" -50,50 -65,-30 -130,40" 
style="fill:#800;stroke:#800;stroke-width:10"/>
  <line x1="50" y1="50" x2="150" y2="-50" style="stroke:#800;stroke-width:10;stroke-opacity:1.000000;stroke-linecap:round"/>
  <line x1="150" y1="-50" x2="150" y2="-150" style="stroke:#800;stroke-width:10;stroke-opacity:1.000000;stroke-linecap:round"/>
<polygon points=" 150,150 135,70 70,135" 
style="fill:#800;stroke:#800;stroke-width:10"/>
  <line x1="250" y1="150" x2="150" y2="150" style="stroke:#800;stroke-width:10;stroke-opacity:1.000000;stroke-linecap:round"/>
  <g transform="translate(171,144) rotate(0)" > <text font-size="66.6666666667" fill="#800" font-family="monospace"  >
   1
  </text> </g> 
  <circle cx="250" cy="150" r="10"
    style="fill:none;stroke:#800;stroke-width:2"  />
  <line x1="-250" y1="-50" x2="-150" y2="-50" style="stroke:#800;stroke-width:10;stroke-opacity:1.000000;stroke-linecap:round"/>
  <g transform="translate(-228,-56) rotate(0)" > <text font-size="66.6666666667" fill="#800" font-family="monospace"  >
   2
  </text> </g> 
  <circle cx="-250" cy="-50" r="10"
    style="fill:none;stroke:#800;stroke-width:2"  />
  <line x1="150" y1="-250" x2="150" y2="-150" style="stroke:#800;stroke-width:10;stroke-opacity:1.000000;stroke-linecap:round"/>
  <g transform="translate(140,-190) rotate(-90)" > <text font-size="66.6666666667" fill="#800" font-family="monospace"  >
   3
  </text> </g> 
  <circle cx="150" cy="-250" r="10"
    style="fill:none;stroke:#800;stroke-width:2"  />
 </g>
</svg>
