<?xml version="1.0"?>
<svg height="228" width="157"  >
 <g style="fill-opacity:1.0; stroke:black;
  stroke-width:1;" transform=" translate( 78.75,114.375 ) scale( 0.15,0.15 )">
  <g transform="translate(75,-145) rotate(0)" > <text font-size="83.3333333333" fill="#088" font-family="monospace"  >
   D
  </text> </g> 
  <g transform="translate(-250,225) rotate(0)" > <text font-size="83.3333333333" fill="#088" font-family="monospace"  >
   DOUBLE_LED
  </text> </g> 
  <rect x="-50" y="-150" height="100"
    width="0" style="fill:none;stroke:#800;stroke-width:10" />
  <rect x="-50" y="-150" height="0"
    width="0" style="fill:none;stroke:#800;stroke-width:10" />
  <line x1="50" y1="50" x2="50" y2="150" style="stroke:#800;stroke-width:10;stroke-opacity:1.000000;stroke-linecap:round"/>
  <line x1="50" y1="-150" x2="50" y2="-50" style="stroke:#800;stroke-width:10;stroke-opacity:1.000000;stroke-linecap:round"/>
  <line x1="50" y1="-50" x2="50" y2="-50" style="stroke:#800;stroke-width:10;stroke-opacity:1.000000;stroke-linecap:round"/>
  <line x1="40" y1="20" x2="60" y2="20" style="stroke:#800;stroke-width:10;stroke-opacity:1.000000;stroke-linecap:round"/>
  <line x1="60" y1="20" x2="40" y2="30" style="stroke:#800;stroke-width:10;stroke-opacity:1.000000;stroke-linecap:round"/>
  <line x1="40" y1="30" x2="40" y2="30" style="stroke:#800;stroke-width:10;stroke-opacity:1.000000;stroke-linecap:round"/>
  <line x1="40" y1="-180" x2="60" y2="-180" style="stroke:#800;stroke-width:10;stroke-opacity:1.000000;stroke-linecap:round"/>
  <line x1="60" y1="-180" x2="40" y2="-170" style="stroke:#800;stroke-width:10;stroke-opacity:1.000000;stroke-linecap:round"/>
  <line x1="40" y1="-170" x2="40" y2="-170" style="stroke:#800;stroke-width:10;stroke-opacity:1.000000;stroke-linecap:round"/>
<polygon points=" -50,50 -50,150 50,100 -50,50 -50,50" 
style="fill:#800;stroke:#800;stroke-width:10"/>
  <line x1="-20" y1="50" x2="30" y2="40" style="stroke:#800;stroke-width:10;stroke-opacity:1.000000;stroke-linecap:round"/>
  <line x1="30" y1="40" x2="20" y2="30" style="stroke:#800;stroke-width:10;stroke-opacity:1.000000;stroke-linecap:round"/>
  <line x1="20" y1="30" x2="60" y2="20" style="stroke:#800;stroke-width:10;stroke-opacity:1.000000;stroke-linecap:round"/>
  <line x1="60" y1="20" x2="60" y2="20" style="stroke:#800;stroke-width:10;stroke-opacity:1.000000;stroke-linecap:round"/>
  <line x1="50" y1="-100" x2="100" y2="-100" style="stroke:#800;stroke-width:10;stroke-opacity:1.000000;stroke-linecap:round"/>
  <line x1="100" y1="-100" x2="100" y2="100" style="stroke:#800;stroke-width:10;stroke-opacity:1.000000;stroke-linecap:round"/>
  <line x1="100" y1="100" x2="50" y2="100" style="stroke:#800;stroke-width:10;stroke-opacity:1.000000;stroke-linecap:round"/>
  <line x1="50" y1="100" x2="50" y2="100" style="stroke:#800;stroke-width:10;stroke-opacity:1.000000;stroke-linecap:round"/>
<polygon points=" -50,-150 -50,-50 50,-100 -50,-150 -50,-150 -50,-150" 
style="fill:#800;stroke:#800;stroke-width:10"/>
  <line x1="-20" y1="-150" x2="30" y2="-160" style="stroke:#800;stroke-width:10;stroke-opacity:1.000000;stroke-linecap:round"/>
  <line x1="30" y1="-160" x2="20" y2="-170" style="stroke:#800;stroke-width:10;stroke-opacity:1.000000;stroke-linecap:round"/>
  <line x1="20" y1="-170" x2="60" y2="-180" style="stroke:#800;stroke-width:10;stroke-opacity:1.000000;stroke-linecap:round"/>
  <line x1="60" y1="-180" x2="60" y2="-180" style="stroke:#800;stroke-width:10;stroke-opacity:1.000000;stroke-linecap:round"/>
  <line x1="60" y1="-180" x2="60" y2="-180" style="stroke:#800;stroke-width:10;stroke-opacity:1.000000;stroke-linecap:round"/>
  <line x1="200" y1="0" x2="100" y2="0" style="stroke:#800;stroke-width:10;stroke-opacity:1.000000;stroke-linecap:round"/>
  <g transform="translate(121,-6) rotate(0)" > <text font-size="66.6666666667" fill="#800" font-family="monospace"  >
   K
  </text> </g> 
  <circle cx="200" cy="0" r="10"
    style="fill:none;stroke:#800;stroke-width:2"  />
  <line x1="-200" y1="100" x2="-50" y2="100" style="stroke:#800;stroke-width:10;stroke-opacity:1.000000;stroke-linecap:round"/>
  <g transform="translate(-181,94) rotate(0)" > <text font-size="66.6666666667" fill="#800" font-family="monospace"  >
   A1
  </text> </g> 
  <circle cx="-200" cy="100" r="10"
    style="fill:none;stroke:#800;stroke-width:2"  />
  <line x1="-200" y1="-100" x2="-50" y2="-100" style="stroke:#800;stroke-width:10;stroke-opacity:1.000000;stroke-linecap:round"/>
  <g transform="translate(-181,-106) rotate(0)" > <text font-size="66.6666666667" fill="#800" font-family="monospace"  >
   A2
  </text> </g> 
  <circle cx="-200" cy="-100" r="10"
    style="fill:none;stroke:#800;stroke-width:2"  />
 </g>
</svg>
