<?xml version="1.0"?>
<svg height="118" width="115"  >
 <g style="fill-opacity:1.0; stroke:black;
  stroke-width:1;" transform=" translate( 57.5,59.0 ) scale( 0.15,0.15 )">
  <g transform="translate(80,-30) rotate(0)" > <text font-size="66.6666666667" fill="#088" font-family="monospace"  >
   F
  </text> </g> 
  <g transform="translate(-180,70) rotate(0)" > <text font-size="66.6666666667" fill="#088" font-family="monospace"  >
   FUSE
  </text> </g> 
  <line x1="0" y1="0" x2="-1" y2="-12" style="stroke:#800;stroke-width:10;stroke-opacity:1.000000;stroke-linecap:round"/>
  <line x1="-1" y1="-12" x2="-4" y2="-24" style="stroke:#800;stroke-width:10;stroke-opacity:1.000000;stroke-linecap:round"/>
  <line x1="-4" y1="-24" x2="-9" y2="-35" style="stroke:#800;stroke-width:10;stroke-opacity:1.000000;stroke-linecap:round"/>
  <line x1="-9" y1="-35" x2="-15" y2="-46" style="stroke:#800;stroke-width:10;stroke-opacity:1.000000;stroke-linecap:round"/>
  <line x1="-15" y1="-46" x2="-24" y2="-55" style="stroke:#800;stroke-width:10;stroke-opacity:1.000000;stroke-linecap:round"/>
  <line x1="-24" y1="-55" x2="-34" y2="-62" style="stroke:#800;stroke-width:10;stroke-opacity:1.000000;stroke-linecap:round"/>
  <line x1="-34" y1="-62" x2="-44" y2="-68" style="stroke:#800;stroke-width:10;stroke-opacity:1.000000;stroke-linecap:round"/>
  <line x1="-44" y1="-68" x2="-56" y2="-72" style="stroke:#800;stroke-width:10;stroke-opacity:1.000000;stroke-linecap:round"/>
  <line x1="-56" y1="-72" x2="-68" y2="-74" style="stroke:#800;stroke-width:10;stroke-opacity:1.000000;stroke-linecap:round"/>
  <line x1="-68" y1="-74" x2="-81" y2="-74" style="stroke:#800;stroke-width:10;stroke-opacity:1.000000;stroke-linecap:round"/>
  <line x1="-81" y1="-74" x2="-93" y2="-72" style="stroke:#800;stroke-width:10;stroke-opacity:1.000000;stroke-linecap:round"/>
  <line x1="-93" y1="-72" x2="-105" y2="-68" style="stroke:#800;stroke-width:10;stroke-opacity:1.000000;stroke-linecap:round"/>
  <line x1="-105" y1="-68" x2="-115" y2="-62" style="stroke:#800;stroke-width:10;stroke-opacity:1.000000;stroke-linecap:round"/>
  <line x1="-115" y1="-62" x2="-125" y2="-55" style="stroke:#800;stroke-width:10;stroke-opacity:1.000000;stroke-linecap:round"/>
  <line x1="-125" y1="-55" x2="-134" y2="-46" style="stroke:#800;stroke-width:10;stroke-opacity:1.000000;stroke-linecap:round"/>
  <line x1="-134" y1="-46" x2="-140" y2="-35" style="stroke:#800;stroke-width:10;stroke-opacity:1.000000;stroke-linecap:round"/>
  <line x1="-140" y1="-35" x2="-145" y2="-24" style="stroke:#800;stroke-width:10;stroke-opacity:1.000000;stroke-linecap:round"/>
  <line x1="-145" y1="-24" x2="-148" y2="-12" style="stroke:#800;stroke-width:10;stroke-opacity:1.000000;stroke-linecap:round"/>
  <line x1="-148" y1="-12" x2="-149" y2="0" style="stroke:#800;stroke-width:10;stroke-opacity:1.000000;stroke-linecap:round"/>
  <line x1="0" y1="0" x2="1" y2="12" style="stroke:#800;stroke-width:10;stroke-opacity:1.000000;stroke-linecap:round"/>
  <line x1="1" y1="12" x2="4" y2="24" style="stroke:#800;stroke-width:10;stroke-opacity:1.000000;stroke-linecap:round"/>
  <line x1="4" y1="24" x2="9" y2="35" style="stroke:#800;stroke-width:10;stroke-opacity:1.000000;stroke-linecap:round"/>
  <line x1="9" y1="35" x2="15" y2="46" style="stroke:#800;stroke-width:10;stroke-opacity:1.000000;stroke-linecap:round"/>
  <line x1="15" y1="46" x2="24" y2="55" style="stroke:#800;stroke-width:10;stroke-opacity:1.000000;stroke-linecap:round"/>
  <line x1="24" y1="55" x2="34" y2="62" style="stroke:#800;stroke-width:10;stroke-opacity:1.000000;stroke-linecap:round"/>
  <line x1="34" y1="62" x2="44" y2="68" style="stroke:#800;stroke-width:10;stroke-opacity:1.000000;stroke-linecap:round"/>
  <line x1="44" y1="68" x2="56" y2="72" style="stroke:#800;stroke-width:10;stroke-opacity:1.000000;stroke-linecap:round"/>
  <line x1="56" y1="72" x2="68" y2="74" style="stroke:#800;stroke-width:10;stroke-opacity:1.000000;stroke-linecap:round"/>
  <line x1="68" y1="74" x2="81" y2="74" style="stroke:#800;stroke-width:10;stroke-opacity:1.000000;stroke-linecap:round"/>
  <line x1="81" y1="74" x2="93" y2="72" style="stroke:#800;stroke-width:10;stroke-opacity:1.000000;stroke-linecap:round"/>
  <line x1="93" y1="72" x2="105" y2="68" style="stroke:#800;stroke-width:10;stroke-opacity:1.000000;stroke-linecap:round"/>
  <line x1="105" y1="68" x2="115" y2="62" style="stroke:#800;stroke-width:10;stroke-opacity:1.000000;stroke-linecap:round"/>
  <line x1="115" y1="62" x2="125" y2="55" style="stroke:#800;stroke-width:10;stroke-opacity:1.000000;stroke-linecap:round"/>
  <line x1="125" y1="55" x2="134" y2="46" style="stroke:#800;stroke-width:10;stroke-opacity:1.000000;stroke-linecap:round"/>
  <line x1="134" y1="46" x2="140" y2="35" style="stroke:#800;stroke-width:10;stroke-opacity:1.000000;stroke-linecap:round"/>
  <line x1="140" y1="35" x2="145" y2="24" style="stroke:#800;stroke-width:10;stroke-opacity:1.000000;stroke-linecap:round"/>
  <line x1="145" y1="24" x2="148" y2="12" style="stroke:#800;stroke-width:10;stroke-opacity:1.000000;stroke-linecap:round"/>
  <line x1="148" y1="12" x2="149" y2="0" style="stroke:#800;stroke-width:10;stroke-opacity:1.000000;stroke-linecap:round"/>
  <line x1="-250" y1="0" x2="-150" y2="0" style="stroke:#800;stroke-width:10;stroke-opacity:1.000000;stroke-linecap:round"/>
  <g transform="translate(-228,-6) rotate(0)" > <text font-size="66.6666666667" fill="#800" font-family="monospace"  >
   1
  </text> </g> 
  <circle cx="-250" cy="0" r="10"
    style="fill:none;stroke:#800;stroke-width:2"  />
  <line x1="250" y1="0" x2="150" y2="0" style="stroke:#800;stroke-width:10;stroke-opacity:1.000000;stroke-linecap:round"/>
  <g transform="translate(171,-6) rotate(0)" > <text font-size="66.6666666667" fill="#800" font-family="monospace"  >
   2
  </text> </g> 
  <circle cx="250" cy="0" r="10"
    style="fill:none;stroke:#800;stroke-width:2"  />
 </g>
</svg>
