<?xml version="1.0"?>
<svg height="167" width="124"  >
 <g style="fill-opacity:1.0; stroke:black;
  stroke-width:1;" transform=" translate( 62.3125,83.9875 ) scale( 0.15,0.15 )">
  <g transform="translate(120,-95) rotate(0)" > <text font-size="50.0" fill="#088" font-family="monospace"  >
   SW
  </text> </g> 
  <g transform="translate(-195,94) rotate(0)" > <text font-size="50.0" fill="#088" font-family="monospace"  >
   SW_PUSH_SMALL
  </text> </g> 
  <circle cx="-60" cy="-60" r="10"
    style="fill:none;stroke:#800;stroke-width:10"  />
  <circle cx="60" cy="60" r="10"
    style="fill:none;stroke:#800;stroke-width:10"  />
  <line x1="-100" y1="-100" x2="-60" y2="-60" style="stroke:#800;stroke-width:10;stroke-opacity:1.000000;stroke-linecap:round"/>
  <line x1="-60" y1="-60" x2="-60" y2="-60" style="stroke:#800;stroke-width:10;stroke-opacity:1.000000;stroke-linecap:round"/>
  <line x1="60" y1="60" x2="100" y2="100" style="stroke:#800;stroke-width:10;stroke-opacity:1.000000;stroke-linecap:round"/>
  <line x1="100" y1="100" x2="100" y2="100" style="stroke:#800;stroke-width:10;stroke-opacity:1.000000;stroke-linecap:round"/>
  <line x1="100" y1="100" x2="100" y2="100" style="stroke:#800;stroke-width:10;stroke-opacity:1.000000;stroke-linecap:round"/>
  <line x1="-10" y1="-60" x2="10" y2="-70" style="stroke:#800;stroke-width:10;stroke-opacity:1.000000;stroke-linecap:round"/>
  <line x1="10" y1="-70" x2="70" y2="-10" style="stroke:#800;stroke-width:10;stroke-opacity:1.000000;stroke-linecap:round"/>
  <line x1="70" y1="-10" x2="60" y2="10" style="stroke:#800;stroke-width:10;stroke-opacity:1.000000;stroke-linecap:round"/>
  <line x1="60" y1="10" x2="60" y2="10" style="stroke:#800;stroke-width:10;stroke-opacity:1.000000;stroke-linecap:round"/>
  <line x1="60" y1="10" x2="60" y2="10" style="stroke:#800;stroke-width:10;stroke-opacity:1.000000;stroke-linecap:round"/>
  <line x1="-50" y1="-80" x2="80" y2="50" style="stroke:#800;stroke-width:10;stroke-opacity:1.000000;stroke-linecap:round"/>
  <line x1="80" y1="50" x2="90" y2="40" style="stroke:#800;stroke-width:10;stroke-opacity:1.000000;stroke-linecap:round"/>
  <line x1="90" y1="40" x2="-40" y2="-90" style="stroke:#800;stroke-width:10;stroke-opacity:1.000000;stroke-linecap:round"/>
  <line x1="-40" y1="-90" x2="-50" y2="-80" style="stroke:#800;stroke-width:10;stroke-opacity:1.000000;stroke-linecap:round"/>
  <line x1="-50" y1="-80" x2="-50" y2="-80" style="stroke:#800;stroke-width:10;stroke-opacity:1.000000;stroke-linecap:round"/>
  <line x1="-50" y1="-80" x2="-50" y2="-80" style="stroke:#800;stroke-width:10;stroke-opacity:1.000000;stroke-linecap:round"/>
  <circle cx="-100" cy="-100" r="10"
    style="fill:none;stroke:#888;stroke-width:2"  />
  <circle cx="100" cy="100" r="10"
    style="fill:none;stroke:#888;stroke-width:2"  />
 </g>
</svg>
