<?xml version="1.0"?>
<svg height="544" width="490"  >
 <g style="fill-opacity:1.0; stroke:black;
  stroke-width:1;" transform=" translate( 245.125,272.25 ) scale( 0.15,0.15 )">
  <g transform="translate(-30,-1270) rotate(0)" > <text font-size="100.0" fill="#088" font-family="monospace"  >
   U
  </text> </g> 
  <g transform="translate(-180,1330) rotate(0)" > <text font-size="100.0" fill="#088" font-family="monospace"  >
   XCF08P
  </text> </g> 
  <rect x="-350" y="-1250" height="2500"
    width="700" style="fill:none;stroke:#800;stroke-width:10" />
  <line x1="-650" y1="400" x2="-350" y2="400" style="stroke:#800;stroke-width:10;stroke-opacity:1.000000;stroke-linecap:round"/>
  <g transform="translate(-570,394) rotate(0)" > <text font-size="83.3333333333" fill="#800" font-family="monospace"  >
   A1
  </text> </g> 
  <g transform="translate(-332,435) rotate(0)" > <text font-size="83.3333333333" fill="#088" font-family="monospace"  >
   GND
  </text> </g> 
  <circle cx="-650" cy="400" r="10"
    style="fill:none;stroke:#800;stroke-width:2"  />
  <line x1="650" y1="400" x2="350" y2="400" style="stroke:#800;stroke-width:10;stroke-opacity:1.000000;stroke-linecap:round"/>
  <g transform="translate(429,394) rotate(0)" > <text font-size="83.3333333333" fill="#800" font-family="monospace"  >
   B1
  </text> </g> 
  <g transform="translate(9,435) rotate(0)" > <text font-size="83.3333333333" fill="#088" font-family="monospace"  >
   VCCINT
  </text> </g> 
  <circle cx="650" cy="400" r="10"
    style="fill:none;stroke:#800;stroke-width:2"  />
  <line x1="-650" y1="-700" x2="-350" y2="-700" style="stroke:#800;stroke-width:10;stroke-opacity:1.000000;stroke-linecap:round"/>
  <g transform="translate(-570,-706) rotate(0)" > <text font-size="83.3333333333" fill="#800" font-family="monospace"  >
   C1
  </text> </g> 
  <g transform="translate(-332,-665) rotate(0)" > <text font-size="83.3333333333" fill="#088" font-family="monospace"  >
   BUSY
  </text> </g> 
  <circle cx="-650" cy="-700" r="10"
    style="fill:none;stroke:#800;stroke-width:2"  />
  <line x1="-430" y1="200" x2="-430" y2="160" style="stroke:#800;stroke-width:10;stroke-opacity:1.000000;stroke-linecap:round"/>
  <line x1="-430" y1="160" x2="-350" y2="200" style="stroke:#800;stroke-width:10;stroke-opacity:1.000000;stroke-linecap:round"/>
  <line x1="-650" y1="200" x2="-350" y2="200" style="stroke:#800;stroke-width:10;stroke-opacity:1.000000;stroke-linecap:round"/>
  <g transform="translate(-570,194) rotate(0)" > <text font-size="83.3333333333" fill="#800" font-family="monospace"  >
   D1
  </text> </g> 
  <g transform="translate(-332,235) rotate(0)" > <text font-size="83.3333333333" fill="#088" font-family="monospace"  >
   CF
  </text> </g> 
  <circle cx="-650" cy="200" r="10"
    style="fill:none;stroke:#800;stroke-width:2"  />
  <line x1="650" y1="500" x2="350" y2="500" style="stroke:#800;stroke-width:10;stroke-opacity:1.000000;stroke-linecap:round"/>
  <g transform="translate(429,494) rotate(0)" > <text font-size="83.3333333333" fill="#800" font-family="monospace"  >
   E1
  </text> </g> 
  <g transform="translate(9,535) rotate(0)" > <text font-size="83.3333333333" fill="#088" font-family="monospace"  >
   VCCINT
  </text> </g> 
  <circle cx="650" cy="500" r="10"
    style="fill:none;stroke:#800;stroke-width:2"  />
  <line x1="-650" y1="700" x2="-350" y2="700" style="stroke:#800;stroke-width:10;stroke-opacity:1.000000;stroke-linecap:round"/>
  <g transform="translate(-570,694) rotate(0)" > <text font-size="83.3333333333" fill="#800" font-family="monospace"  >
   F1
  </text> </g> 
  <g transform="translate(-332,735) rotate(0)" > <text font-size="83.3333333333" fill="#088" font-family="monospace"  >
   GND
  </text> </g> 
  <circle cx="-650" cy="700" r="10"
    style="fill:none;stroke:#800;stroke-width:2"  />
  <line x1="-650" y1="-1000" x2="-350" y2="-1000" style="stroke:#800;stroke-width:10;stroke-opacity:1.000000;stroke-linecap:round"/>
  <g transform="translate(-570,-1006) rotate(0)" > <text font-size="83.3333333333" fill="#800" font-family="monospace"  >
   G1
  </text> </g> 
  <g transform="translate(-332,-965) rotate(0)" > <text font-size="83.3333333333" fill="#088" font-family="monospace"  >
   TDI
  </text> </g> 
  <circle cx="-650" cy="-1000" r="10"
    style="fill:none;stroke:#800;stroke-width:2"  />
  <line x1="-650" y1="1000" x2="-350" y2="1000" style="stroke:#800;stroke-width:10;stroke-opacity:1.000000;stroke-linecap:round"/>
  <g transform="translate(-570,994) rotate(0)" > <text font-size="83.3333333333" fill="#800" font-family="monospace"  >
   H1
  </text> </g> 
  <g transform="translate(-332,1035) rotate(0)" > <text font-size="83.3333333333" fill="#088" font-family="monospace"  >
   GND
  </text> </g> 
  <circle cx="-650" cy="1000" r="10"
    style="fill:none;stroke:#800;stroke-width:2"  />
  <line x1="-650" y1="500" x2="-350" y2="500" style="stroke:#800;stroke-width:10;stroke-opacity:1.000000;stroke-linecap:round"/>
  <g transform="translate(-570,494) rotate(0)" > <text font-size="83.3333333333" fill="#800" font-family="monospace"  >
   A2
  </text> </g> 
  <g transform="translate(-332,535) rotate(0)" > <text font-size="83.3333333333" fill="#088" font-family="monospace"  >
   GND
  </text> </g> 
  <circle cx="-650" cy="500" r="10"
    style="fill:none;stroke:#800;stroke-width:2"  />
  <line x1="650" y1="750" x2="350" y2="750" style="stroke:#800;stroke-width:10;stroke-opacity:1.000000;stroke-linecap:round"/>
  <g transform="translate(429,744) rotate(0)" > <text font-size="83.3333333333" fill="#800" font-family="monospace"  >
   B2
  </text> </g> 
  <g transform="translate(109,785) rotate(0)" > <text font-size="83.3333333333" fill="#088" font-family="monospace"  >
   VCCO
  </text> </g> 
  <circle cx="650" cy="750" r="10"
    style="fill:none;stroke:#800;stroke-width:2"  />
  <line x1="310" y1="0" x2="350" y2="40" style="stroke:#800;stroke-width:10;stroke-opacity:1.000000;stroke-linecap:round"/>
  <line x1="350" y1="40" x2="350" y2="-40" style="stroke:#800;stroke-width:10;stroke-opacity:1.000000;stroke-linecap:round"/>
  <line x1="350" y1="-40" x2="310" y2="0" style="stroke:#800;stroke-width:10;stroke-opacity:1.000000;stroke-linecap:round"/>
  <line x1="650" y1="0" x2="350" y2="0" style="stroke:#800;stroke-width:10;stroke-opacity:1.000000;stroke-linecap:round"/>
  <g transform="translate(429,-6) rotate(0)" > <text font-size="83.3333333333" fill="#800" font-family="monospace"  >
   C2
  </text> </g> 
  <g transform="translate(9,35) rotate(0)" > <text font-size="83.3333333333" fill="#088" font-family="monospace"  >
   CLKOUT
  </text> </g> 
  <circle cx="650" cy="0" r="10"
    style="fill:none;stroke:#800;stroke-width:2"  />
  <line x1="430" y1="100" x2="350" y2="60" style="stroke:#800;stroke-width:10;stroke-opacity:1.000000;stroke-linecap:round"/>
  <line x1="350" y1="60" x2="350" y2="100" style="stroke:#800;stroke-width:10;stroke-opacity:1.000000;stroke-linecap:round"/>
  <line x1="650" y1="100" x2="350" y2="100" style="stroke:#800;stroke-width:10;stroke-opacity:1.000000;stroke-linecap:round"/>
  <g transform="translate(429,94) rotate(0)" > <text font-size="83.3333333333" fill="#800" font-family="monospace"  >
   D2
  </text> </g> 
  <g transform="translate(159,135) rotate(0)" > <text font-size="83.3333333333" fill="#088" font-family="monospace"  >
   CEO
  </text> </g> 
  <circle cx="650" cy="100" r="10"
    style="fill:none;stroke:#800;stroke-width:2"  />
  <line x1="-650" y1="-1100" x2="-350" y2="-1100" style="stroke:#800;stroke-width:10;stroke-opacity:1.000000;stroke-linecap:round"/>
  <g transform="translate(-570,-1106) rotate(0)" > <text font-size="83.3333333333" fill="#800" font-family="monospace"  >
   E2
  </text> </g> 
  <g transform="translate(-332,-1065) rotate(0)" > <text font-size="83.3333333333" fill="#088" font-family="monospace"  >
   TMS
  </text> </g> 
  <circle cx="-650" cy="-1100" r="10"
    style="fill:none;stroke:#800;stroke-width:2"  />
  <line x1="650" y1="1200" x2="350" y2="1200" style="stroke:#800;stroke-width:10;stroke-opacity:1.000000;stroke-linecap:round"/>
  <g transform="translate(429,1194) rotate(0)" > <text font-size="83.3333333333" fill="#800" font-family="monospace"  >
   H2
  </text> </g> 
  <g transform="translate(109,1235) rotate(0)" > <text font-size="83.3333333333" fill="#088" font-family="monospace"  >
   VCCJ
  </text> </g> 
  <circle cx="650" cy="1200" r="10"
    style="fill:none;stroke:#800;stroke-width:2"  />
  <line x1="-650" y1="-600" x2="-350" y2="-600" style="stroke:#800;stroke-width:10;stroke-opacity:1.000000;stroke-linecap:round"/>
  <g transform="translate(-570,-606) rotate(0)" > <text font-size="83.3333333333" fill="#800" font-family="monospace"  >
   A3
  </text> </g> 
  <g transform="translate(-332,-565) rotate(0)" > <text font-size="83.3333333333" fill="#088" font-family="monospace"  >
   OE/RST
  </text> </g> 
  <circle cx="-650" cy="-600" r="10"
    style="fill:none;stroke:#800;stroke-width:2"  />
  <line x1="-310" y1="0" x2="-350" y2="40" style="stroke:#800;stroke-width:10;stroke-opacity:1.000000;stroke-linecap:round"/>
  <line x1="-350" y1="40" x2="-350" y2="-40" style="stroke:#800;stroke-width:10;stroke-opacity:1.000000;stroke-linecap:round"/>
  <line x1="-350" y1="-40" x2="-310" y2="0" style="stroke:#800;stroke-width:10;stroke-opacity:1.000000;stroke-linecap:round"/>
  <line x1="-650" y1="0" x2="-350" y2="0" style="stroke:#800;stroke-width:10;stroke-opacity:1.000000;stroke-linecap:round"/>
  <g transform="translate(-570,-6) rotate(0)" > <text font-size="83.3333333333" fill="#800" font-family="monospace"  >
   B3
  </text> </g> 
  <g transform="translate(-332,35) rotate(0)" > <text font-size="83.3333333333" fill="#088" font-family="monospace"  >
   CLK
  </text> </g> 
  <circle cx="-650" cy="0" r="10"
    style="fill:none;stroke:#800;stroke-width:2"  />
  <line x1="-650" y1="-400" x2="-350" y2="-400" style="stroke:#800;stroke-width:10;stroke-opacity:1.000000;stroke-linecap:round"/>
  <g transform="translate(-570,-406) rotate(0)" > <text font-size="83.3333333333" fill="#800" font-family="monospace"  >
   G3
  </text> </g> 
  <g transform="translate(-332,-365) rotate(0)" > <text font-size="83.3333333333" fill="#088" font-family="monospace"  >
   REV-SEL0
  </text> </g> 
  <circle cx="-650" cy="-400" r="10"
    style="fill:none;stroke:#800;stroke-width:2"  />
  <line x1="-650" y1="-1200" x2="-350" y2="-1200" style="stroke:#800;stroke-width:10;stroke-opacity:1.000000;stroke-linecap:round"/>
  <g transform="translate(-570,-1206) rotate(0)" > <text font-size="83.3333333333" fill="#800" font-family="monospace"  >
   H3
  </text> </g> 
  <g transform="translate(-332,-1165) rotate(0)" > <text font-size="83.3333333333" fill="#088" font-family="monospace"  >
   TCK
  </text> </g> 
  <circle cx="-650" cy="-1200" r="10"
    style="fill:none;stroke:#800;stroke-width:2"  />
  <line x1="-430" y1="100" x2="-430" y2="60" style="stroke:#800;stroke-width:10;stroke-opacity:1.000000;stroke-linecap:round"/>
  <line x1="-430" y1="60" x2="-350" y2="100" style="stroke:#800;stroke-width:10;stroke-opacity:1.000000;stroke-linecap:round"/>
  <line x1="-650" y1="100" x2="-350" y2="100" style="stroke:#800;stroke-width:10;stroke-opacity:1.000000;stroke-linecap:round"/>
  <g transform="translate(-570,94) rotate(0)" > <text font-size="83.3333333333" fill="#800" font-family="monospace"  >
   B4
  </text> </g> 
  <g transform="translate(-332,135) rotate(0)" > <text font-size="83.3333333333" fill="#088" font-family="monospace"  >
   CE
  </text> </g> 
  <circle cx="-650" cy="100" r="10"
    style="fill:none;stroke:#800;stroke-width:2"  />
  <line x1="-650" y1="-300" x2="-350" y2="-300" style="stroke:#800;stroke-width:10;stroke-opacity:1.000000;stroke-linecap:round"/>
  <g transform="translate(-570,-306) rotate(0)" > <text font-size="83.3333333333" fill="#800" font-family="monospace"  >
   G4
  </text> </g> 
  <g transform="translate(-332,-265) rotate(0)" > <text font-size="83.3333333333" fill="#088" font-family="monospace"  >
   REV-SEL1
  </text> </g> 
  <circle cx="-650" cy="-300" r="10"
    style="fill:none;stroke:#800;stroke-width:2"  />
  <line x1="-650" y1="-200" x2="-350" y2="-200" style="stroke:#800;stroke-width:10;stroke-opacity:1.000000;stroke-linecap:round"/>
  <g transform="translate(-570,-206) rotate(0)" > <text font-size="83.3333333333" fill="#800" font-family="monospace"  >
   H4
  </text> </g> 
  <g transform="translate(-332,-165) rotate(0)" > <text font-size="83.3333333333" fill="#088" font-family="monospace"  >
   /EN-EXT-SEL
  </text> </g> 
  <circle cx="-650" cy="-200" r="10"
    style="fill:none;stroke:#800;stroke-width:2"  />
  <line x1="650" y1="-600" x2="350" y2="-600" style="stroke:#800;stroke-width:10;stroke-opacity:1.000000;stroke-linecap:round"/>
  <g transform="translate(429,-606) rotate(0)" > <text font-size="83.3333333333" fill="#800" font-family="monospace"  >
   A5
  </text> </g> 
  <g transform="translate(210,-565) rotate(0)" > <text font-size="83.3333333333" fill="#088" font-family="monospace"  >
   D6
  </text> </g> 
  <circle cx="650" cy="-600" r="10"
    style="fill:none;stroke:#800;stroke-width:2"  />
  <line x1="650" y1="-700" x2="350" y2="-700" style="stroke:#800;stroke-width:10;stroke-opacity:1.000000;stroke-linecap:round"/>
  <g transform="translate(429,-706) rotate(0)" > <text font-size="83.3333333333" fill="#800" font-family="monospace"  >
   B5
  </text> </g> 
  <g transform="translate(210,-665) rotate(0)" > <text font-size="83.3333333333" fill="#088" font-family="monospace"  >
   D5
  </text> </g> 
  <circle cx="650" cy="-700" r="10"
    style="fill:none;stroke:#800;stroke-width:2"  />
  <line x1="650" y1="-800" x2="350" y2="-800" style="stroke:#800;stroke-width:10;stroke-opacity:1.000000;stroke-linecap:round"/>
  <g transform="translate(429,-806) rotate(0)" > <text font-size="83.3333333333" fill="#800" font-family="monospace"  >
   C5
  </text> </g> 
  <g transform="translate(210,-765) rotate(0)" > <text font-size="83.3333333333" fill="#088" font-family="monospace"  >
   D4
  </text> </g> 
  <circle cx="650" cy="-800" r="10"
    style="fill:none;stroke:#800;stroke-width:2"  />
  <line x1="650" y1="-900" x2="350" y2="-900" style="stroke:#800;stroke-width:10;stroke-opacity:1.000000;stroke-linecap:round"/>
  <g transform="translate(429,-906) rotate(0)" > <text font-size="83.3333333333" fill="#800" font-family="monospace"  >
   D5
  </text> </g> 
  <g transform="translate(210,-865) rotate(0)" > <text font-size="83.3333333333" fill="#088" font-family="monospace"  >
   D3
  </text> </g> 
  <circle cx="650" cy="-900" r="10"
    style="fill:none;stroke:#800;stroke-width:2"  />
  <line x1="650" y1="-1000" x2="350" y2="-1000" style="stroke:#800;stroke-width:10;stroke-opacity:1.000000;stroke-linecap:round"/>
  <g transform="translate(429,-1006) rotate(0)" > <text font-size="83.3333333333" fill="#800" font-family="monospace"  >
   E5
  </text> </g> 
  <g transform="translate(210,-965) rotate(0)" > <text font-size="83.3333333333" fill="#088" font-family="monospace"  >
   D2
  </text> </g> 
  <circle cx="650" cy="-1000" r="10"
    style="fill:none;stroke:#800;stroke-width:2"  />
  <line x1="-650" y1="800" x2="-350" y2="800" style="stroke:#800;stroke-width:10;stroke-opacity:1.000000;stroke-linecap:round"/>
  <g transform="translate(-570,794) rotate(0)" > <text font-size="83.3333333333" fill="#800" font-family="monospace"  >
   F5
  </text> </g> 
  <g transform="translate(-332,835) rotate(0)" > <text font-size="83.3333333333" fill="#088" font-family="monospace"  >
   GND
  </text> </g> 
  <circle cx="-650" cy="800" r="10"
    style="fill:none;stroke:#800;stroke-width:2"  />
  <line x1="650" y1="950" x2="350" y2="950" style="stroke:#800;stroke-width:10;stroke-opacity:1.000000;stroke-linecap:round"/>
  <g transform="translate(429,944) rotate(0)" > <text font-size="83.3333333333" fill="#800" font-family="monospace"  >
   G5
  </text> </g> 
  <g transform="translate(109,985) rotate(0)" > <text font-size="83.3333333333" fill="#088" font-family="monospace"  >
   VCCO
  </text> </g> 
  <circle cx="650" cy="950" r="10"
    style="fill:none;stroke:#800;stroke-width:2"  />
  <line x1="650" y1="-1100" x2="350" y2="-1100" style="stroke:#800;stroke-width:10;stroke-opacity:1.000000;stroke-linecap:round"/>
  <g transform="translate(429,-1106) rotate(0)" > <text font-size="83.3333333333" fill="#800" font-family="monospace"  >
   H5
  </text> </g> 
  <g transform="translate(210,-1065) rotate(0)" > <text font-size="83.3333333333" fill="#088" font-family="monospace"  >
   D1
  </text> </g> 
  <circle cx="650" cy="-1100" r="10"
    style="fill:none;stroke:#800;stroke-width:2"  />
  <line x1="650" y1="-500" x2="350" y2="-500" style="stroke:#800;stroke-width:10;stroke-opacity:1.000000;stroke-linecap:round"/>
  <g transform="translate(429,-506) rotate(0)" > <text font-size="83.3333333333" fill="#800" font-family="monospace"  >
   A6
  </text> </g> 
  <g transform="translate(210,-465) rotate(0)" > <text font-size="83.3333333333" fill="#088" font-family="monospace"  >
   D7
  </text> </g> 
  <circle cx="650" cy="-500" r="10"
    style="fill:none;stroke:#800;stroke-width:2"  />
  <line x1="-650" y1="600" x2="-350" y2="600" style="stroke:#800;stroke-width:10;stroke-opacity:1.000000;stroke-linecap:round"/>
  <g transform="translate(-570,594) rotate(0)" > <text font-size="83.3333333333" fill="#800" font-family="monospace"  >
   B6
  </text> </g> 
  <g transform="translate(-332,635) rotate(0)" > <text font-size="83.3333333333" fill="#088" font-family="monospace"  >
   GND
  </text> </g> 
  <circle cx="-650" cy="600" r="10"
    style="fill:none;stroke:#800;stroke-width:2"  />
  <line x1="650" y1="850" x2="350" y2="850" style="stroke:#800;stroke-width:10;stroke-opacity:1.000000;stroke-linecap:round"/>
  <g transform="translate(429,844) rotate(0)" > <text font-size="83.3333333333" fill="#800" font-family="monospace"  >
   C6
  </text> </g> 
  <g transform="translate(109,885) rotate(0)" > <text font-size="83.3333333333" fill="#088" font-family="monospace"  >
   VCCO
  </text> </g> 
  <circle cx="650" cy="850" r="10"
    style="fill:none;stroke:#800;stroke-width:2"  />
  <line x1="650" y1="1050" x2="350" y2="1050" style="stroke:#800;stroke-width:10;stroke-opacity:1.000000;stroke-linecap:round"/>
  <g transform="translate(429,1044) rotate(0)" > <text font-size="83.3333333333" fill="#800" font-family="monospace"  >
   D6
  </text> </g> 
  <g transform="translate(109,1085) rotate(0)" > <text font-size="83.3333333333" fill="#088" font-family="monospace"  >
   VCCO
  </text> </g> 
  <circle cx="650" cy="1050" r="10"
    style="fill:none;stroke:#800;stroke-width:2"  />
  <line x1="-650" y1="-900" x2="-350" y2="-900" style="stroke:#800;stroke-width:10;stroke-opacity:1.000000;stroke-linecap:round"/>
  <g transform="translate(-570,-906) rotate(0)" > <text font-size="83.3333333333" fill="#800" font-family="monospace"  >
   E6
  </text> </g> 
  <g transform="translate(-332,-865) rotate(0)" > <text font-size="83.3333333333" fill="#088" font-family="monospace"  >
   TDO
  </text> </g> 
  <circle cx="-650" cy="-900" r="10"
    style="fill:none;stroke:#800;stroke-width:2"  />
  <line x1="-650" y1="900" x2="-350" y2="900" style="stroke:#800;stroke-width:10;stroke-opacity:1.000000;stroke-linecap:round"/>
  <g transform="translate(-570,894) rotate(0)" > <text font-size="83.3333333333" fill="#800" font-family="monospace"  >
   F6
  </text> </g> 
  <g transform="translate(-332,935) rotate(0)" > <text font-size="83.3333333333" fill="#088" font-family="monospace"  >
   GND
  </text> </g> 
  <circle cx="-650" cy="900" r="10"
    style="fill:none;stroke:#800;stroke-width:2"  />
  <line x1="650" y1="600" x2="350" y2="600" style="stroke:#800;stroke-width:10;stroke-opacity:1.000000;stroke-linecap:round"/>
  <g transform="translate(429,594) rotate(0)" > <text font-size="83.3333333333" fill="#800" font-family="monospace"  >
   G6
  </text> </g> 
  <g transform="translate(9,635) rotate(0)" > <text font-size="83.3333333333" fill="#088" font-family="monospace"  >
   VCCINT
  </text> </g> 
  <circle cx="650" cy="600" r="10"
    style="fill:none;stroke:#800;stroke-width:2"  />
  <line x1="650" y1="-1200" x2="350" y2="-1200" style="stroke:#800;stroke-width:10;stroke-opacity:1.000000;stroke-linecap:round"/>
  <g transform="translate(429,-1206) rotate(0)" > <text font-size="83.3333333333" fill="#800" font-family="monospace"  >
   H6
  </text> </g> 
  <g transform="translate(210,-1165) rotate(0)" > <text font-size="83.3333333333" fill="#088" font-family="monospace"  >
   D0
  </text> </g> 
  <circle cx="650" cy="-1200" r="10"
    style="fill:none;stroke:#800;stroke-width:2"  />
 </g>
</svg>
