<?xml version="1.0"?>
<svg height="594" width="566"  >
 <g style="fill-opacity:1.0; stroke:black;
  stroke-width:1;" transform=" translate( 283.125,297.25 ) scale( 0.15,0.15 )">
  <g transform="translate(-630,-570) rotate(0)" > <text font-size="100.0" fill="#088" font-family="monospace"  >
   U
  </text> </g> 
  <g transform="translate(30,580) rotate(0)" > <text font-size="100.0" fill="#088" font-family="monospace"  >
   MSP430F2121IPW
  </text> </g> 
  <rect x="-650" y="-550" height="1050"
    width="1300" style="fill:none;stroke:#800;stroke-width:10" />
  <line x1="800" y1="-450" x2="650" y2="-450" style="stroke:#800;stroke-width:10;stroke-opacity:1.000000;stroke-linecap:round"/>
  <g transform="translate(700,-456) rotate(0)" > <text font-size="58.3333333333" fill="#800" font-family="monospace"  >
   1
  </text> </g> 
  <g transform="translate(470,-422) rotate(0)" > <text font-size="58.3333333333" fill="#088" font-family="monospace"  >
   TEST
  </text> </g> 
  <circle cx="800" cy="-450" r="10"
    style="fill:none;stroke:#800;stroke-width:2"  />
  <line x1="0" y1="-700" x2="0" y2="-550" style="stroke:#800;stroke-width:10;stroke-opacity:1.000000;stroke-linecap:round"/>
  <g transform="translate(-8,-616) rotate(-90)" > <text font-size="58.3333333333" fill="#800" font-family="monospace"  >
   2
  </text> </g> 
  <g transform="translate(4,-415) rotate(-90)" > <text font-size="58.3333333333" fill="#088" font-family="monospace"  >
   Vcc
  </text> </g> 
  <circle cx="0" cy="-700" r="10"
    style="fill:none;stroke:#800;stroke-width:2"  />
  <line x1="-800" y1="200" x2="-650" y2="200" style="stroke:#800;stroke-width:10;stroke-opacity:1.000000;stroke-linecap:round"/>
  <g transform="translate(-749,194) rotate(0)" > <text font-size="58.3333333333" fill="#800" font-family="monospace"  >
   3
  </text> </g> 
  <g transform="translate(-632,227) rotate(0)" > <text font-size="58.3333333333" fill="#088" font-family="monospace"  >
   P2.5/CA5
  </text> </g> 
  <circle cx="-800" cy="200" r="10"
    style="fill:none;stroke:#800;stroke-width:2"  />
  <line x1="0" y1="650" x2="0" y2="500" style="stroke:#800;stroke-width:10;stroke-opacity:1.000000;stroke-linecap:round"/>
  <g transform="translate(-8,583) rotate(-90)" > <text font-size="58.3333333333" fill="#800" font-family="monospace"  >
   4
  </text> </g> 
  <g transform="translate(4,470) rotate(-90)" > <text font-size="58.3333333333" fill="#088" font-family="monospace"  >
   Vss
  </text> </g> 
  <circle cx="0" cy="650" r="10"
    style="fill:none;stroke:#800;stroke-width:2"  />
  <line x1="-800" y1="400" x2="-650" y2="400" style="stroke:#800;stroke-width:10;stroke-opacity:1.000000;stroke-linecap:round"/>
  <g transform="translate(-749,394) rotate(0)" > <text font-size="58.3333333333" fill="#800" font-family="monospace"  >
   5
  </text> </g> 
  <g transform="translate(-632,427) rotate(0)" > <text font-size="58.3333333333" fill="#088" font-family="monospace"  >
   P2.7/XOUT/CA7
  </text> </g> 
  <circle cx="-800" cy="400" r="10"
    style="fill:none;stroke:#800;stroke-width:2"  />
  <line x1="-800" y1="300" x2="-650" y2="300" style="stroke:#800;stroke-width:10;stroke-opacity:1.000000;stroke-linecap:round"/>
  <g transform="translate(-749,294) rotate(0)" > <text font-size="58.3333333333" fill="#800" font-family="monospace"  >
   6
  </text> </g> 
  <g transform="translate(-632,327) rotate(0)" > <text font-size="58.3333333333" fill="#088" font-family="monospace"  >
   P2.6/XIN/CA6
  </text> </g> 
  <circle cx="-800" cy="300" r="10"
    style="fill:none;stroke:#800;stroke-width:2"  />
  <line x1="-800" y1="-450" x2="-650" y2="-450" style="stroke:#800;stroke-width:10;stroke-opacity:1.000000;stroke-linecap:round"/>
  <g transform="translate(-749,-456) rotate(0)" > <text font-size="58.3333333333" fill="#800" font-family="monospace"  >
   7
  </text> </g> 
  <g transform="translate(-632,-422) rotate(0)" > <text font-size="58.3333333333" fill="#088" font-family="monospace"  >
   ~RST~/NMI
  </text> </g> 
  <circle cx="-800" cy="-450" r="10"
    style="fill:none;stroke:#800;stroke-width:2"  />
  <line x1="-800" y1="-300" x2="-650" y2="-300" style="stroke:#800;stroke-width:10;stroke-opacity:1.000000;stroke-linecap:round"/>
  <g transform="translate(-749,-306) rotate(0)" > <text font-size="58.3333333333" fill="#800" font-family="monospace"  >
   8
  </text> </g> 
  <g transform="translate(-632,-272) rotate(0)" > <text font-size="58.3333333333" fill="#088" font-family="monospace"  >
   P2.0/ACLK/CA2
  </text> </g> 
  <circle cx="-800" cy="-300" r="10"
    style="fill:none;stroke:#800;stroke-width:2"  />
  <line x1="-800" y1="-200" x2="-650" y2="-200" style="stroke:#800;stroke-width:10;stroke-opacity:1.000000;stroke-linecap:round"/>
  <g transform="translate(-749,-206) rotate(0)" > <text font-size="58.3333333333" fill="#800" font-family="monospace"  >
   9
  </text> </g> 
  <g transform="translate(-632,-172) rotate(0)" > <text font-size="58.3333333333" fill="#088" font-family="monospace"  >
   P2.1/INCLK/CA3
  </text> </g> 
  <circle cx="-800" cy="-200" r="10"
    style="fill:none;stroke:#800;stroke-width:2"  />
  <line x1="-800" y1="-100" x2="-650" y2="-100" style="stroke:#800;stroke-width:10;stroke-opacity:1.000000;stroke-linecap:round"/>
  <g transform="translate(-774,-106) rotate(0)" > <text font-size="58.3333333333" fill="#800" font-family="monospace"  >
   10
  </text> </g> 
  <g transform="translate(-632,-72) rotate(0)" > <text font-size="58.3333333333" fill="#088" font-family="monospace"  >
   P2.2/CAOUT/TA0/CA4
  </text> </g> 
  <circle cx="-800" cy="-100" r="10"
    style="fill:none;stroke:#800;stroke-width:2"  />
  <line x1="800" y1="400" x2="650" y2="400" style="stroke:#800;stroke-width:10;stroke-opacity:1.000000;stroke-linecap:round"/>
  <g transform="translate(675,394) rotate(0)" > <text font-size="58.3333333333" fill="#800" font-family="monospace"  >
   20
  </text> </g> 
  <g transform="translate(50,427) rotate(0)" > <text font-size="58.3333333333" fill="#088" font-family="monospace"  >
   TA2/TDI/TDO/P1.7
  </text> </g> 
  <circle cx="800" cy="400" r="10"
    style="fill:none;stroke:#800;stroke-width:2"  />
  <line x1="-800" y1="0" x2="-650" y2="0" style="stroke:#800;stroke-width:10;stroke-opacity:1.000000;stroke-linecap:round"/>
  <g transform="translate(-774,-6) rotate(0)" > <text font-size="58.3333333333" fill="#800" font-family="monospace"  >
   11
  </text> </g> 
  <g transform="translate(-632,27) rotate(0)" > <text font-size="58.3333333333" fill="#088" font-family="monospace"  >
   P2.3/TA1/CA0
  </text> </g> 
  <circle cx="-800" cy="0" r="10"
    style="fill:none;stroke:#800;stroke-width:2"  />
  <line x1="-800" y1="100" x2="-650" y2="100" style="stroke:#800;stroke-width:10;stroke-opacity:1.000000;stroke-linecap:round"/>
  <g transform="translate(-774,94) rotate(0)" > <text font-size="58.3333333333" fill="#800" font-family="monospace"  >
   12
  </text> </g> 
  <g transform="translate(-632,127) rotate(0)" > <text font-size="58.3333333333" fill="#088" font-family="monospace"  >
   P2.4/TA2/CA1
  </text> </g> 
  <circle cx="-800" cy="100" r="10"
    style="fill:none;stroke:#800;stroke-width:2"  />
  <line x1="800" y1="-300" x2="650" y2="-300" style="stroke:#800;stroke-width:10;stroke-opacity:1.000000;stroke-linecap:round"/>
  <g transform="translate(675,-306) rotate(0)" > <text font-size="58.3333333333" fill="#800" font-family="monospace"  >
   13
  </text> </g> 
  <g transform="translate(260,-272) rotate(0)" > <text font-size="58.3333333333" fill="#088" font-family="monospace"  >
   TACLK/P1.0
  </text> </g> 
  <circle cx="800" cy="-300" r="10"
    style="fill:none;stroke:#800;stroke-width:2"  />
  <line x1="800" y1="-200" x2="650" y2="-200" style="stroke:#800;stroke-width:10;stroke-opacity:1.000000;stroke-linecap:round"/>
  <g transform="translate(675,-206) rotate(0)" > <text font-size="58.3333333333" fill="#800" font-family="monospace"  >
   14
  </text> </g> 
  <g transform="translate(330,-172) rotate(0)" > <text font-size="58.3333333333" fill="#088" font-family="monospace"  >
   TA0/P1.1
  </text> </g> 
  <circle cx="800" cy="-200" r="10"
    style="fill:none;stroke:#800;stroke-width:2"  />
  <line x1="800" y1="-100" x2="650" y2="-100" style="stroke:#800;stroke-width:10;stroke-opacity:1.000000;stroke-linecap:round"/>
  <g transform="translate(675,-106) rotate(0)" > <text font-size="58.3333333333" fill="#800" font-family="monospace"  >
   15
  </text> </g> 
  <g transform="translate(330,-72) rotate(0)" > <text font-size="58.3333333333" fill="#088" font-family="monospace"  >
   TA1/P1.2
  </text> </g> 
  <circle cx="800" cy="-100" r="10"
    style="fill:none;stroke:#800;stroke-width:2"  />
  <line x1="800" y1="0" x2="650" y2="0" style="stroke:#800;stroke-width:10;stroke-opacity:1.000000;stroke-linecap:round"/>
  <g transform="translate(675,-6) rotate(0)" > <text font-size="58.3333333333" fill="#800" font-family="monospace"  >
   16
  </text> </g> 
  <g transform="translate(330,27) rotate(0)" > <text font-size="58.3333333333" fill="#088" font-family="monospace"  >
   TA2/P1.3
  </text> </g> 
  <circle cx="800" cy="0" r="10"
    style="fill:none;stroke:#800;stroke-width:2"  />
  <line x1="800" y1="100" x2="650" y2="100" style="stroke:#800;stroke-width:10;stroke-opacity:1.000000;stroke-linecap:round"/>
  <g transform="translate(675,94) rotate(0)" > <text font-size="58.3333333333" fill="#800" font-family="monospace"  >
   17
  </text> </g> 
  <g transform="translate(120,127) rotate(0)" > <text font-size="58.3333333333" fill="#088" font-family="monospace"  >
   SMCLK/TCK/P1.4
  </text> </g> 
  <circle cx="800" cy="100" r="10"
    style="fill:none;stroke:#800;stroke-width:2"  />
  <line x1="800" y1="200" x2="650" y2="200" style="stroke:#800;stroke-width:10;stroke-opacity:1.000000;stroke-linecap:round"/>
  <g transform="translate(675,194) rotate(0)" > <text font-size="58.3333333333" fill="#800" font-family="monospace"  >
   18
  </text> </g> 
  <g transform="translate(190,227) rotate(0)" > <text font-size="58.3333333333" fill="#088" font-family="monospace"  >
   TA0/TMS/P1.5
  </text> </g> 
  <circle cx="800" cy="200" r="10"
    style="fill:none;stroke:#800;stroke-width:2"  />
  <line x1="800" y1="300" x2="650" y2="300" style="stroke:#800;stroke-width:10;stroke-opacity:1.000000;stroke-linecap:round"/>
  <g transform="translate(675,294) rotate(0)" > <text font-size="58.3333333333" fill="#800" font-family="monospace"  >
   19
  </text> </g> 
  <g transform="translate(15,327) rotate(0)" > <text font-size="58.3333333333" fill="#088" font-family="monospace"  >
   TA1/TCLK/TDI/P1.6
  </text> </g> 
  <circle cx="800" cy="300" r="10"
    style="fill:none;stroke:#800;stroke-width:2"  />
 </g>
</svg>
