<?xml version="1.0"?>
<svg height="731" width="731"  >
 <g style="fill-opacity:1.0; stroke:black;
  stroke-width:1;" transform=" translate( 365.5,365.5 ) scale( 0.15,0.15 )">
  <g transform="translate(-630,-570) rotate(0)" > <text font-size="100.0" fill="#088" font-family="monospace"  >
   U
  </text> </g> 
  <g transform="translate(30,680) rotate(0)" > <text font-size="100.0" fill="#088" font-family="monospace"  >
   MSP430F2012IPW
  </text> </g> 
  <rect x="-650" y="-550" height="1150"
    width="1300" style="fill:none;stroke:#800;stroke-width:10" />
  <line x1="0" y1="-700" x2="0" y2="-550" style="stroke:#800;stroke-width:10;stroke-opacity:1.000000;stroke-linecap:round"/>
  <g transform="translate(-8,-616) rotate(-90)" > <text font-size="58.3333333333" fill="#800" font-family="monospace"  >
   1
  </text> </g> 
  <g transform="translate(4,-415) rotate(-90)" > <text font-size="58.3333333333" fill="#088" font-family="monospace"  >
   Vcc
  </text> </g> 
  <circle cx="0" cy="-700" r="10"
    style="fill:none;stroke:#800;stroke-width:2"  />
  <line x1="800" y1="-300" x2="650" y2="-300" style="stroke:#800;stroke-width:10;stroke-opacity:1.000000;stroke-linecap:round"/>
  <g transform="translate(700,-306) rotate(0)" > <text font-size="58.3333333333" fill="#800" font-family="monospace"  >
   2
  </text> </g> 
  <g transform="translate(-55,-272) rotate(0)" > <text font-size="58.3333333333" fill="#088" font-family="monospace"  >
   A0/TA0CLK/ACLK/P1.0
  </text> </g> 
  <circle cx="800" cy="-300" r="10"
    style="fill:none;stroke:#800;stroke-width:2"  />
  <line x1="800" y1="-200" x2="650" y2="-200" style="stroke:#800;stroke-width:10;stroke-opacity:1.000000;stroke-linecap:round"/>
  <g transform="translate(700,-206) rotate(0)" > <text font-size="58.3333333333" fill="#800" font-family="monospace"  >
   3
  </text> </g> 
  <g transform="translate(225,-172) rotate(0)" > <text font-size="58.3333333333" fill="#088" font-family="monospace"  >
   A1/TA0/P1.1
  </text> </g> 
  <circle cx="800" cy="-200" r="10"
    style="fill:none;stroke:#800;stroke-width:2"  />
  <line x1="800" y1="-100" x2="650" y2="-100" style="stroke:#800;stroke-width:10;stroke-opacity:1.000000;stroke-linecap:round"/>
  <g transform="translate(700,-106) rotate(0)" > <text font-size="58.3333333333" fill="#800" font-family="monospace"  >
   4
  </text> </g> 
  <g transform="translate(225,-72) rotate(0)" > <text font-size="58.3333333333" fill="#088" font-family="monospace"  >
   A2/TA1/P1.2
  </text> </g> 
  <circle cx="800" cy="-100" r="10"
    style="fill:none;stroke:#800;stroke-width:2"  />
  <line x1="800" y1="0" x2="650" y2="0" style="stroke:#800;stroke-width:10;stroke-opacity:1.000000;stroke-linecap:round"/>
  <g transform="translate(700,-6) rotate(0)" > <text font-size="58.3333333333" fill="#800" font-family="monospace"  >
   5
  </text> </g> 
  <g transform="translate(-405,27) rotate(0)" > <text font-size="58.3333333333" fill="#088" font-family="monospace"  >
   ADC10CLK/A3/VREF-/VeREF-/P1.3
  </text> </g> 
  <circle cx="800" cy="0" r="10"
    style="fill:none;stroke:#800;stroke-width:2"  />
  <line x1="800" y1="100" x2="650" y2="100" style="stroke:#800;stroke-width:10;stroke-opacity:1.000000;stroke-linecap:round"/>
  <g transform="translate(700,94) rotate(0)" > <text font-size="58.3333333333" fill="#800" font-family="monospace"  >
   6
  </text> </g> 
  <g transform="translate(-440,127) rotate(0)" > <text font-size="58.3333333333" fill="#088" font-family="monospace"  >
   SMCLK/A4/VREF+/VeREF+/TCK/P1.4
  </text> </g> 
  <circle cx="800" cy="100" r="10"
    style="fill:none;stroke:#800;stroke-width:2"  />
  <line x1="800" y1="200" x2="650" y2="200" style="stroke:#800;stroke-width:10;stroke-opacity:1.000000;stroke-linecap:round"/>
  <g transform="translate(700,194) rotate(0)" > <text font-size="58.3333333333" fill="#800" font-family="monospace"  >
   7
  </text> </g> 
  <g transform="translate(-90,227) rotate(0)" > <text font-size="58.3333333333" fill="#088" font-family="monospace"  >
   TA0/A5/SCLK/TMS/P1.5
  </text> </g> 
  <circle cx="800" cy="200" r="10"
    style="fill:none;stroke:#800;stroke-width:2"  />
  <line x1="800" y1="300" x2="650" y2="300" style="stroke:#800;stroke-width:10;stroke-opacity:1.000000;stroke-linecap:round"/>
  <g transform="translate(700,294) rotate(0)" > <text font-size="58.3333333333" fill="#800" font-family="monospace"  >
   8
  </text> </g> 
  <g transform="translate(-370,327) rotate(0)" > <text font-size="58.3333333333" fill="#088" font-family="monospace"  >
   TA1/A6/SDO/SCL/TDI/TCLK/P1.6
  </text> </g> 
  <circle cx="800" cy="300" r="10"
    style="fill:none;stroke:#800;stroke-width:2"  />
  <line x1="800" y1="400" x2="650" y2="400" style="stroke:#800;stroke-width:10;stroke-opacity:1.000000;stroke-linecap:round"/>
  <g transform="translate(700,394) rotate(0)" > <text font-size="58.3333333333" fill="#800" font-family="monospace"  >
   9
  </text> </g> 
  <g transform="translate(-195,427) rotate(0)" > <text font-size="58.3333333333" fill="#088" font-family="monospace"  >
   A7/SDI/SDA/TDO/TDI/P1.7
  </text> </g> 
  <circle cx="800" cy="400" r="10"
    style="fill:none;stroke:#800;stroke-width:2"  />
  <line x1="-800" y1="-450" x2="-650" y2="-450" style="stroke:#800;stroke-width:10;stroke-opacity:1.000000;stroke-linecap:round"/>
  <g transform="translate(-774,-456) rotate(0)" > <text font-size="58.3333333333" fill="#800" font-family="monospace"  >
   10
  </text> </g> 
  <g transform="translate(-632,-422) rotate(0)" > <text font-size="58.3333333333" fill="#088" font-family="monospace"  >
   ~RST~/NMI/SBWTDIO
  </text> </g> 
  <circle cx="-800" cy="-450" r="10"
    style="fill:none;stroke:#800;stroke-width:2"  />
  <line x1="800" y1="-450" x2="650" y2="-450" style="stroke:#800;stroke-width:10;stroke-opacity:1.000000;stroke-linecap:round"/>
  <g transform="translate(675,-456) rotate(0)" > <text font-size="58.3333333333" fill="#800" font-family="monospace"  >
   11
  </text> </g> 
  <g transform="translate(225,-422) rotate(0)" > <text font-size="58.3333333333" fill="#088" font-family="monospace"  >
   SBWTCK/TEST
  </text> </g> 
  <circle cx="800" cy="-450" r="10"
    style="fill:none;stroke:#800;stroke-width:2"  />
  <line x1="-800" y1="400" x2="-650" y2="400" style="stroke:#800;stroke-width:10;stroke-opacity:1.000000;stroke-linecap:round"/>
  <g transform="translate(-774,394) rotate(0)" > <text font-size="58.3333333333" fill="#800" font-family="monospace"  >
   12
  </text> </g> 
  <g transform="translate(-632,427) rotate(0)" > <text font-size="58.3333333333" fill="#088" font-family="monospace"  >
   P2.7/XOUT
  </text> </g> 
  <circle cx="-800" cy="400" r="10"
    style="fill:none;stroke:#800;stroke-width:2"  />
  <line x1="-800" y1="200" x2="-650" y2="200" style="stroke:#800;stroke-width:10;stroke-opacity:1.000000;stroke-linecap:round"/>
  <g transform="translate(-774,194) rotate(0)" > <text font-size="58.3333333333" fill="#800" font-family="monospace"  >
   13
  </text> </g> 
  <g transform="translate(-632,227) rotate(0)" > <text font-size="58.3333333333" fill="#088" font-family="monospace"  >
   P2.6/XIN/TA1
  </text> </g> 
  <circle cx="-800" cy="200" r="10"
    style="fill:none;stroke:#800;stroke-width:2"  />
  <line x1="0" y1="750" x2="0" y2="600" style="stroke:#800;stroke-width:10;stroke-opacity:1.000000;stroke-linecap:round"/>
  <g transform="translate(-8,692) rotate(-90)" > <text font-size="58.3333333333" fill="#800" font-family="monospace"  >
   14
  </text> </g> 
  <g transform="translate(4,570) rotate(-90)" > <text font-size="58.3333333333" fill="#088" font-family="monospace"  >
   Vss
  </text> </g> 
  <circle cx="0" cy="750" r="10"
    style="fill:none;stroke:#800;stroke-width:2"  />
 </g>
</svg>
