<?xml version="1.0"?>
<svg height="783" width="783"  >
 <g style="fill-opacity:1.0; stroke:black;
  stroke-width:1;" transform=" translate( 391.875,391.875 ) scale( 0.15,0.15 )">
  <g transform="translate(-830,-970) rotate(0)" > <text font-size="100.0" fill="#088" font-family="monospace"  >
   U
  </text> </g> 
  <g transform="translate(80,1030) rotate(0)" > <text font-size="100.0" fill="#088" font-family="monospace"  >
   MSP430F2112IPW
  </text> </g> 
  <rect x="-850" y="-950" height="1900"
    width="1700" style="fill:none;stroke:#800;stroke-width:10" />
  <line x1="1000" y1="-850" x2="850" y2="-850" style="stroke:#800;stroke-width:10;stroke-opacity:1.000000;stroke-linecap:round"/>
  <g transform="translate(900,-856) rotate(0)" > <text font-size="58.3333333333" fill="#800" font-family="monospace"  >
   1
  </text> </g> 
  <g transform="translate(425,-822) rotate(0)" > <text font-size="58.3333333333" fill="#088" font-family="monospace"  >
   SBWTCK/TEST
  </text> </g> 
  <circle cx="1000" cy="-850" r="10"
    style="fill:none;stroke:#800;stroke-width:2"  />
  <line x1="0" y1="-1100" x2="0" y2="-950" style="stroke:#800;stroke-width:10;stroke-opacity:1.000000;stroke-linecap:round"/>
  <g transform="translate(-8,-1016) rotate(-90)" > <text font-size="58.3333333333" fill="#800" font-family="monospace"  >
   2
  </text> </g> 
  <g transform="translate(4,-780) rotate(-90)" > <text font-size="58.3333333333" fill="#088" font-family="monospace"  >
   DVcc
  </text> </g> 
  <circle cx="0" cy="-1100" r="10"
    style="fill:none;stroke:#800;stroke-width:2"  />
  <line x1="1000" y1="650" x2="850" y2="650" style="stroke:#800;stroke-width:10;stroke-opacity:1.000000;stroke-linecap:round"/>
  <g transform="translate(900,644) rotate(0)" > <text font-size="58.3333333333" fill="#800" font-family="monospace"  >
   3
  </text> </g> 
  <g transform="translate(355,677) rotate(0)" > <text font-size="58.3333333333" fill="#088" font-family="monospace"  >
   CA5/Rosc/P2.5
  </text> </g> 
  <circle cx="1000" cy="650" r="10"
    style="fill:none;stroke:#800;stroke-width:2"  />
  <line x1="0" y1="1100" x2="0" y2="950" style="stroke:#800;stroke-width:10;stroke-opacity:1.000000;stroke-linecap:round"/>
  <g transform="translate(-8,1033) rotate(-90)" > <text font-size="58.3333333333" fill="#800" font-family="monospace"  >
   4
  </text> </g> 
  <g transform="translate(4,920) rotate(-90)" > <text font-size="58.3333333333" fill="#088" font-family="monospace"  >
   DVss
  </text> </g> 
  <circle cx="0" cy="1100" r="10"
    style="fill:none;stroke:#800;stroke-width:2"  />
  <line x1="1000" y1="850" x2="850" y2="850" style="stroke:#800;stroke-width:10;stroke-opacity:1.000000;stroke-linecap:round"/>
  <g transform="translate(900,844) rotate(0)" > <text font-size="58.3333333333" fill="#800" font-family="monospace"  >
   5
  </text> </g> 
  <g transform="translate(355,877) rotate(0)" > <text font-size="58.3333333333" fill="#088" font-family="monospace"  >
   CA7/XOUT/P2.7
  </text> </g> 
  <circle cx="1000" cy="850" r="10"
    style="fill:none;stroke:#800;stroke-width:2"  />
  <line x1="1000" y1="750" x2="850" y2="750" style="stroke:#800;stroke-width:10;stroke-opacity:1.000000;stroke-linecap:round"/>
  <g transform="translate(900,744) rotate(0)" > <text font-size="58.3333333333" fill="#800" font-family="monospace"  >
   6
  </text> </g> 
  <g transform="translate(390,777) rotate(0)" > <text font-size="58.3333333333" fill="#088" font-family="monospace"  >
   CA6/XIN/P2.6
  </text> </g> 
  <circle cx="1000" cy="750" r="10"
    style="fill:none;stroke:#800;stroke-width:2"  />
  <line x1="-1000" y1="-850" x2="-850" y2="-850" style="stroke:#800;stroke-width:10;stroke-opacity:1.000000;stroke-linecap:round"/>
  <g transform="translate(-949,-856) rotate(0)" > <text font-size="58.3333333333" fill="#800" font-family="monospace"  >
   7
  </text> </g> 
  <g transform="translate(-832,-822) rotate(0)" > <text font-size="58.3333333333" fill="#088" font-family="monospace"  >
   ~RST~/NMI/SBWTDIO
  </text> </g> 
  <circle cx="-1000" cy="-850" r="10"
    style="fill:none;stroke:#800;stroke-width:2"  />
  <line x1="1000" y1="150" x2="850" y2="150" style="stroke:#800;stroke-width:10;stroke-opacity:1.000000;stroke-linecap:round"/>
  <g transform="translate(900,144) rotate(0)" > <text font-size="58.3333333333" fill="#800" font-family="monospace"  >
   8
  </text> </g> 
  <g transform="translate(250,177) rotate(0)" > <text font-size="58.3333333333" fill="#088" font-family="monospace"  >
   CA2/ACLK/A0/P2.0
  </text> </g> 
  <circle cx="1000" cy="150" r="10"
    style="fill:none;stroke:#800;stroke-width:2"  />
  <line x1="1000" y1="250" x2="850" y2="250" style="stroke:#800;stroke-width:10;stroke-opacity:1.000000;stroke-linecap:round"/>
  <g transform="translate(900,244) rotate(0)" > <text font-size="58.3333333333" fill="#800" font-family="monospace"  >
   9
  </text> </g> 
  <g transform="translate(-65,277) rotate(0)" > <text font-size="58.3333333333" fill="#088" font-family="monospace"  >
   CA3/TAINCLK/SMCLK/A1/P2.1
  </text> </g> 
  <circle cx="1000" cy="250" r="10"
    style="fill:none;stroke:#800;stroke-width:2"  />
  <line x1="1000" y1="350" x2="850" y2="350" style="stroke:#800;stroke-width:10;stroke-opacity:1.000000;stroke-linecap:round"/>
  <g transform="translate(875,344) rotate(0)" > <text font-size="58.3333333333" fill="#800" font-family="monospace"  >
   10
  </text> </g> 
  <g transform="translate(5,377) rotate(0)" > <text font-size="58.3333333333" fill="#088" font-family="monospace"  >
   CAOUT/CA4/TA0.0/A2/P2.2
  </text> </g> 
  <circle cx="1000" cy="350" r="10"
    style="fill:none;stroke:#800;stroke-width:2"  />
  <line x1="1000" y1="550" x2="850" y2="550" style="stroke:#800;stroke-width:10;stroke-opacity:1.000000;stroke-linecap:round"/>
  <g transform="translate(875,544) rotate(0)" > <text font-size="58.3333333333" fill="#800" font-family="monospace"  >
   20
  </text> </g> 
  <g transform="translate(-240,577) rotate(0)" > <text font-size="58.3333333333" fill="#088" font-family="monospace"  >
   CA1/TA0.2/A4/VREF+/VeREF+/P2.4
  </text> </g> 
  <circle cx="1000" cy="550" r="10"
    style="fill:none;stroke:#800;stroke-width:2"  />
  <line x1="-1000" y1="-700" x2="-850" y2="-700" style="stroke:#800;stroke-width:10;stroke-opacity:1.000000;stroke-linecap:round"/>
  <g transform="translate(-974,-706) rotate(0)" > <text font-size="58.3333333333" fill="#800" font-family="monospace"  >
   11
  </text> </g> 
  <g transform="translate(-832,-672) rotate(0)" > <text font-size="58.3333333333" fill="#088" font-family="monospace"  >
   P3.0/UCB0STE/UCA0CLK/A5
  </text> </g> 
  <circle cx="-1000" cy="-700" r="10"
    style="fill:none;stroke:#800;stroke-width:2"  />
  <line x1="1000" y1="-700" x2="850" y2="-700" style="stroke:#800;stroke-width:10;stroke-opacity:1.000000;stroke-linecap:round"/>
  <g transform="translate(875,-706) rotate(0)" > <text font-size="58.3333333333" fill="#800" font-family="monospace"  >
   21
  </text> </g> 
  <g transform="translate(-65,-672) rotate(0)" > <text font-size="58.3333333333" fill="#088" font-family="monospace"  >
   CAOUT/TACLK/ADC10CLK/P1.0
  </text> </g> 
  <circle cx="1000" cy="-700" r="10"
    style="fill:none;stroke:#800;stroke-width:2"  />
  <line x1="-1000" y1="-600" x2="-850" y2="-600" style="stroke:#800;stroke-width:10;stroke-opacity:1.000000;stroke-linecap:round"/>
  <g transform="translate(-974,-606) rotate(0)" > <text font-size="58.3333333333" fill="#800" font-family="monospace"  >
   12
  </text> </g> 
  <g transform="translate(-832,-572) rotate(0)" > <text font-size="58.3333333333" fill="#088" font-family="monospace"  >
   P3.1/UCB0SIMO/UCB0SDA
  </text> </g> 
  <circle cx="-1000" cy="-600" r="10"
    style="fill:none;stroke:#800;stroke-width:2"  />
  <line x1="1000" y1="-600" x2="850" y2="-600" style="stroke:#800;stroke-width:10;stroke-opacity:1.000000;stroke-linecap:round"/>
  <g transform="translate(875,-606) rotate(0)" > <text font-size="58.3333333333" fill="#800" font-family="monospace"  >
   22
  </text> </g> 
  <g transform="translate(250,-572) rotate(0)" > <text font-size="58.3333333333" fill="#088" font-family="monospace"  >
   TA1.0/TA0.0/P1.1
  </text> </g> 
  <circle cx="1000" cy="-600" r="10"
    style="fill:none;stroke:#800;stroke-width:2"  />
  <line x1="-1000" y1="-500" x2="-850" y2="-500" style="stroke:#800;stroke-width:10;stroke-opacity:1.000000;stroke-linecap:round"/>
  <g transform="translate(-974,-506) rotate(0)" > <text font-size="58.3333333333" fill="#800" font-family="monospace"  >
   13
  </text> </g> 
  <g transform="translate(-832,-472) rotate(0)" > <text font-size="58.3333333333" fill="#088" font-family="monospace"  >
   P3.2/UCB0SOMI/UCB0SCL
  </text> </g> 
  <circle cx="-1000" cy="-500" r="10"
    style="fill:none;stroke:#800;stroke-width:2"  />
  <line x1="1000" y1="-500" x2="850" y2="-500" style="stroke:#800;stroke-width:10;stroke-opacity:1.000000;stroke-linecap:round"/>
  <g transform="translate(875,-506) rotate(0)" > <text font-size="58.3333333333" fill="#800" font-family="monospace"  >
   23
  </text> </g> 
  <g transform="translate(460,-472) rotate(0)" > <text font-size="58.3333333333" fill="#088" font-family="monospace"  >
   TA0.1/P1.2
  </text> </g> 
  <circle cx="1000" cy="-500" r="10"
    style="fill:none;stroke:#800;stroke-width:2"  />
  <line x1="-1000" y1="-400" x2="-850" y2="-400" style="stroke:#800;stroke-width:10;stroke-opacity:1.000000;stroke-linecap:round"/>
  <g transform="translate(-974,-406) rotate(0)" > <text font-size="58.3333333333" fill="#800" font-family="monospace"  >
   14
  </text> </g> 
  <g transform="translate(-832,-372) rotate(0)" > <text font-size="58.3333333333" fill="#088" font-family="monospace"  >
   P3.3/UCB0CLK/UCA0STE
  </text> </g> 
  <circle cx="-1000" cy="-400" r="10"
    style="fill:none;stroke:#800;stroke-width:2"  />
  <line x1="1000" y1="-400" x2="850" y2="-400" style="stroke:#800;stroke-width:10;stroke-opacity:1.000000;stroke-linecap:round"/>
  <g transform="translate(875,-406) rotate(0)" > <text font-size="58.3333333333" fill="#800" font-family="monospace"  >
   24
  </text> </g> 
  <g transform="translate(460,-372) rotate(0)" > <text font-size="58.3333333333" fill="#088" font-family="monospace"  >
   TA0.2/P1.3
  </text> </g> 
  <circle cx="1000" cy="-400" r="10"
    style="fill:none;stroke:#800;stroke-width:2"  />
  <line x1="-1000" y1="-300" x2="-850" y2="-300" style="stroke:#800;stroke-width:10;stroke-opacity:1.000000;stroke-linecap:round"/>
  <g transform="translate(-974,-306) rotate(0)" > <text font-size="58.3333333333" fill="#800" font-family="monospace"  >
   15
  </text> </g> 
  <g transform="translate(-832,-272) rotate(0)" > <text font-size="58.3333333333" fill="#088" font-family="monospace"  >
   P3.4/UCA0TXD/UCA0SIMO
  </text> </g> 
  <circle cx="-1000" cy="-300" r="10"
    style="fill:none;stroke:#800;stroke-width:2"  />
  <line x1="1000" y1="-300" x2="850" y2="-300" style="stroke:#800;stroke-width:10;stroke-opacity:1.000000;stroke-linecap:round"/>
  <g transform="translate(875,-306) rotate(0)" > <text font-size="58.3333333333" fill="#800" font-family="monospace"  >
   25
  </text> </g> 
  <g transform="translate(320,-272) rotate(0)" > <text font-size="58.3333333333" fill="#088" font-family="monospace"  >
   SMCLK/TCK/P1.4
  </text> </g> 
  <circle cx="1000" cy="-300" r="10"
    style="fill:none;stroke:#800;stroke-width:2"  />
  <line x1="-1000" y1="-200" x2="-850" y2="-200" style="stroke:#800;stroke-width:10;stroke-opacity:1.000000;stroke-linecap:round"/>
  <g transform="translate(-974,-206) rotate(0)" > <text font-size="58.3333333333" fill="#800" font-family="monospace"  >
   16
  </text> </g> 
  <g transform="translate(-832,-172) rotate(0)" > <text font-size="58.3333333333" fill="#088" font-family="monospace"  >
   P3.5/UCA0RXD/UCA0SOMI
  </text> </g> 
  <circle cx="-1000" cy="-200" r="10"
    style="fill:none;stroke:#800;stroke-width:2"  />
  <line x1="1000" y1="-200" x2="850" y2="-200" style="stroke:#800;stroke-width:10;stroke-opacity:1.000000;stroke-linecap:round"/>
  <g transform="translate(875,-206) rotate(0)" > <text font-size="58.3333333333" fill="#800" font-family="monospace"  >
   26
  </text> </g> 
  <g transform="translate(320,-172) rotate(0)" > <text font-size="58.3333333333" fill="#088" font-family="monospace"  >
   TA0.0/TMS/P1.5
  </text> </g> 
  <circle cx="1000" cy="-200" r="10"
    style="fill:none;stroke:#800;stroke-width:2"  />
  <line x1="-1000" y1="-100" x2="-850" y2="-100" style="stroke:#800;stroke-width:10;stroke-opacity:1.000000;stroke-linecap:round"/>
  <g transform="translate(-974,-106) rotate(0)" > <text font-size="58.3333333333" fill="#800" font-family="monospace"  >
   17
  </text> </g> 
  <g transform="translate(-832,-72) rotate(0)" > <text font-size="58.3333333333" fill="#088" font-family="monospace"  >
   P3.6/A6/TA1.0
  </text> </g> 
  <circle cx="-1000" cy="-100" r="10"
    style="fill:none;stroke:#800;stroke-width:2"  />
  <line x1="1000" y1="-100" x2="850" y2="-100" style="stroke:#800;stroke-width:10;stroke-opacity:1.000000;stroke-linecap:round"/>
  <g transform="translate(875,-106) rotate(0)" > <text font-size="58.3333333333" fill="#800" font-family="monospace"  >
   27
  </text> </g> 
  <g transform="translate(320,-72) rotate(0)" > <text font-size="58.3333333333" fill="#088" font-family="monospace"  >
   TA0.1/TDI/P1.6
  </text> </g> 
  <circle cx="1000" cy="-100" r="10"
    style="fill:none;stroke:#800;stroke-width:2"  />
  <line x1="-1000" y1="0" x2="-850" y2="0" style="stroke:#800;stroke-width:10;stroke-opacity:1.000000;stroke-linecap:round"/>
  <g transform="translate(-974,-6) rotate(0)" > <text font-size="58.3333333333" fill="#800" font-family="monospace"  >
   18
  </text> </g> 
  <g transform="translate(-832,27) rotate(0)" > <text font-size="58.3333333333" fill="#088" font-family="monospace"  >
   P3.7/A7/TA1.1
  </text> </g> 
  <circle cx="-1000" cy="0" r="10"
    style="fill:none;stroke:#800;stroke-width:2"  />
  <line x1="1000" y1="0" x2="850" y2="0" style="stroke:#800;stroke-width:10;stroke-opacity:1.000000;stroke-linecap:round"/>
  <g transform="translate(875,-6) rotate(0)" > <text font-size="58.3333333333" fill="#800" font-family="monospace"  >
   28
  </text> </g> 
  <g transform="translate(180,27) rotate(0)" > <text font-size="58.3333333333" fill="#088" font-family="monospace"  >
   TA0.2/TDI/TDO/P1.7
  </text> </g> 
  <circle cx="1000" cy="0" r="10"
    style="fill:none;stroke:#800;stroke-width:2"  />
  <line x1="1000" y1="450" x2="850" y2="450" style="stroke:#800;stroke-width:10;stroke-opacity:1.000000;stroke-linecap:round"/>
  <g transform="translate(875,444) rotate(0)" > <text font-size="58.3333333333" fill="#800" font-family="monospace"  >
   19
  </text> </g> 
  <g transform="translate(-240,477) rotate(0)" > <text font-size="58.3333333333" fill="#088" font-family="monospace"  >
   CA0/TA0.1/A3/VREF-/VeREF-/P2.3
  </text> </g> 
  <circle cx="1000" cy="450" r="10"
    style="fill:none;stroke:#800;stroke-width:2"  />
 </g>
</svg>
