<?xml version="1.0"?>
<svg height="314" width="259"  >
 <g style="fill-opacity:1.0; stroke:black;
  stroke-width:1;" transform=" translate( 129.75,157.25 ) scale( 0.15,0.15 )">
  <g transform="translate(270,-270) rotate(0)" > <text font-size="100.0" fill="#088" font-family="monospace"  >
   U
  </text> </g> 
  <g transform="translate(180,880) rotate(0)" > <text font-size="100.0" fill="#088" font-family="monospace"  >
   4021
  </text> </g> 
  <rect x="-250" y="700" height="100"
    width="500" style="fill:none;stroke:#800;stroke-width:10" />
  <line x1="-120" y1="-200" x2="-80" y2="-240" style="stroke:#800;stroke-width:10;stroke-opacity:1.000000;stroke-linecap:round"/>
  <line x1="-80" y1="-240" x2="-80" y2="-240" style="stroke:#800;stroke-width:10;stroke-opacity:1.000000;stroke-linecap:round"/>
  <rect x="-250" y="200" height="100"
    width="500" style="fill:none;stroke:#800;stroke-width:10" />
  <line x1="-120" y1="-300" x2="-80" y2="-260" style="stroke:#800;stroke-width:10;stroke-opacity:1.000000;stroke-linecap:round"/>
  <line x1="-80" y1="-260" x2="-120" y2="-220" style="stroke:#800;stroke-width:10;stroke-opacity:1.000000;stroke-linecap:round"/>
  <line x1="-120" y1="-220" x2="-120" y2="-220" style="stroke:#800;stroke-width:10;stroke-opacity:1.000000;stroke-linecap:round"/>
  <rect x="-250" y="500" height="100"
    width="500" style="fill:none;stroke:#800;stroke-width:10" />
  <line x1="-200" y1="-100" x2="-200" y2="-150" style="stroke:#800;stroke-width:10;stroke-opacity:1.000000;stroke-linecap:round"/>
  <line x1="-200" y1="-150" x2="-250" y2="-150" style="stroke:#800;stroke-width:10;stroke-opacity:1.000000;stroke-linecap:round"/>
  <line x1="-250" y1="-150" x2="-250" y2="-350" style="stroke:#800;stroke-width:10;stroke-opacity:1.000000;stroke-linecap:round"/>
  <line x1="-250" y1="-350" x2="250" y2="-350" style="stroke:#800;stroke-width:10;stroke-opacity:1.000000;stroke-linecap:round"/>
  <line x1="250" y1="-350" x2="250" y2="-150" style="stroke:#800;stroke-width:10;stroke-opacity:1.000000;stroke-linecap:round"/>
  <line x1="250" y1="-150" x2="200" y2="-150" style="stroke:#800;stroke-width:10;stroke-opacity:1.000000;stroke-linecap:round"/>
  <line x1="200" y1="-150" x2="200" y2="-100" style="stroke:#800;stroke-width:10;stroke-opacity:1.000000;stroke-linecap:round"/>
  <line x1="200" y1="-100" x2="200" y2="-100" style="stroke:#800;stroke-width:10;stroke-opacity:1.000000;stroke-linecap:round"/>
  <rect x="-250" y="400" height="100"
    width="500" style="fill:none;stroke:#800;stroke-width:10" />
  <line x1="0" y1="-300" x2="50" y2="-250" style="stroke:#800;stroke-width:10;stroke-opacity:1.000000;stroke-linecap:round"/>
  <line x1="50" y1="-250" x2="0" y2="-200" style="stroke:#800;stroke-width:10;stroke-opacity:1.000000;stroke-linecap:round"/>
  <line x1="0" y1="-200" x2="0" y2="-200" style="stroke:#800;stroke-width:10;stroke-opacity:1.000000;stroke-linecap:round"/>
  <rect x="-250" y="-100" height="200"
    width="500" style="fill:none;stroke:#800;stroke-width:10" />
  <rect x="-250" y="300" height="100"
    width="500" style="fill:none;stroke:#800;stroke-width:10" />
  <line x1="-240" y1="-160" x2="-200" y2="-160" style="stroke:#800;stroke-width:10;stroke-opacity:1.000000;stroke-linecap:round"/>
  <line x1="-200" y1="-160" x2="-160" y2="-240" style="stroke:#800;stroke-width:10;stroke-opacity:1.000000;stroke-linecap:round"/>
  <line x1="-160" y1="-240" x2="-140" y2="-240" style="stroke:#800;stroke-width:10;stroke-opacity:1.000000;stroke-linecap:round"/>
  <line x1="-140" y1="-240" x2="-180" y2="-240" style="stroke:#800;stroke-width:10;stroke-opacity:1.000000;stroke-linecap:round"/>
  <line x1="-180" y1="-240" x2="-220" y2="-160" style="stroke:#800;stroke-width:10;stroke-opacity:1.000000;stroke-linecap:round"/>
  <line x1="-220" y1="-160" x2="-220" y2="-160" style="stroke:#800;stroke-width:10;stroke-opacity:1.000000;stroke-linecap:round"/>
  <line x1="0" y1="-350" x2="0" y2="-150" style="stroke:#800;stroke-width:10;stroke-opacity:1.000000;stroke-linecap:round"/>
  <line x1="0" y1="-150" x2="-200" y2="-150" style="stroke:#800;stroke-width:10;stroke-opacity:1.000000;stroke-linecap:round"/>
  <line x1="-200" y1="-150" x2="-200" y2="-150" style="stroke:#800;stroke-width:10;stroke-opacity:1.000000;stroke-linecap:round"/>
  <rect x="-250" y="100" height="100"
    width="500" style="fill:none;stroke:#800;stroke-width:10" />
  <rect x="-250" y="600" height="100"
    width="500" style="fill:none;stroke:#800;stroke-width:10" />
  <g transform="translate(-70,-230) rotate(0)" > <text font-size="100.0" fill="#800" font-family="monospace"  >
   1
  </text> </g> 
  <g transform="translate(40,-340) rotate(-90)" > <text font-size="66.6666666667" fill="#888" font-family="monospace"  >
   8
  </text> </g> 
  <g transform="translate(55,-196) rotate(-90)" > <text font-size="66.6666666667" fill="#888" font-family="monospace"  >
   Vss
  </text> </g> 
  <circle cx="50" cy="-350" r="10"
    style="fill:none;stroke:#888;stroke-width:2"  />
  <g transform="translate(140,-330) rotate(-90)" > <text font-size="66.6666666667" fill="#888" font-family="monospace"  >
   16
  </text> </g> 
  <g transform="translate(155,-196) rotate(-90)" > <text font-size="66.6666666667" fill="#888" font-family="monospace"  >
   Vdd
  </text> </g> 
  <circle cx="150" cy="-350" r="10"
    style="fill:none;stroke:#888;stroke-width:2"  />
  <line x1="550" y1="750" x2="250" y2="750" style="stroke:#800;stroke-width:10;stroke-opacity:1.000000;stroke-linecap:round"/>
  <g transform="translate(371,744) rotate(0)" > <text font-size="66.6666666667" fill="#800" font-family="monospace"  >
   3
  </text> </g> 
  <g transform="translate(130,780) rotate(0)" > <text font-size="66.6666666667" fill="#088" font-family="monospace"  >
   Q7
  </text> </g> 
  <circle cx="550" cy="750" r="10"
    style="fill:none;stroke:#800;stroke-width:2"  />
  <line x1="550" y1="650" x2="250" y2="650" style="stroke:#800;stroke-width:10;stroke-opacity:1.000000;stroke-linecap:round"/>
  <g transform="translate(343,644) rotate(0)" > <text font-size="66.6666666667" fill="#800" font-family="monospace"  >
   12
  </text> </g> 
  <g transform="translate(130,680) rotate(0)" > <text font-size="66.6666666667" fill="#088" font-family="monospace"  >
   Q6
  </text> </g> 
  <circle cx="550" cy="650" r="10"
    style="fill:none;stroke:#800;stroke-width:2"  />
  <line x1="550" y1="550" x2="250" y2="550" style="stroke:#800;stroke-width:10;stroke-opacity:1.000000;stroke-linecap:round"/>
  <g transform="translate(371,544) rotate(0)" > <text font-size="66.6666666667" fill="#800" font-family="monospace"  >
   2
  </text> </g> 
  <g transform="translate(130,580) rotate(0)" > <text font-size="66.6666666667" fill="#088" font-family="monospace"  >
   Q5
  </text> </g> 
  <circle cx="550" cy="550" r="10"
    style="fill:none;stroke:#800;stroke-width:2"  />
  <line x1="-550" y1="750" x2="-250" y2="750" style="stroke:#800;stroke-width:10;stroke-opacity:1.000000;stroke-linecap:round"/>
  <g transform="translate(-428,744) rotate(0)" > <text font-size="66.6666666667" fill="#800" font-family="monospace"  >
   1
  </text> </g> 
  <g transform="translate(-232,780) rotate(0)" > <text font-size="66.6666666667" fill="#088" font-family="monospace"  >
   P7
  </text> </g> 
  <circle cx="-550" cy="750" r="10"
    style="fill:none;stroke:#800;stroke-width:2"  />
  <line x1="-550" y1="650" x2="-250" y2="650" style="stroke:#800;stroke-width:10;stroke-opacity:1.000000;stroke-linecap:round"/>
  <g transform="translate(-456,644) rotate(0)" > <text font-size="66.6666666667" fill="#800" font-family="monospace"  >
   15
  </text> </g> 
  <g transform="translate(-232,680) rotate(0)" > <text font-size="66.6666666667" fill="#088" font-family="monospace"  >
   P6
  </text> </g> 
  <circle cx="-550" cy="650" r="10"
    style="fill:none;stroke:#800;stroke-width:2"  />
  <line x1="-550" y1="550" x2="-250" y2="550" style="stroke:#800;stroke-width:10;stroke-opacity:1.000000;stroke-linecap:round"/>
  <g transform="translate(-456,544) rotate(0)" > <text font-size="66.6666666667" fill="#800" font-family="monospace"  >
   14
  </text> </g> 
  <g transform="translate(-232,580) rotate(0)" > <text font-size="66.6666666667" fill="#088" font-family="monospace"  >
   P5
  </text> </g> 
  <circle cx="-550" cy="550" r="10"
    style="fill:none;stroke:#800;stroke-width:2"  />
  <line x1="-550" y1="450" x2="-250" y2="450" style="stroke:#800;stroke-width:10;stroke-opacity:1.000000;stroke-linecap:round"/>
  <g transform="translate(-456,444) rotate(0)" > <text font-size="66.6666666667" fill="#800" font-family="monospace"  >
   13
  </text> </g> 
  <g transform="translate(-232,480) rotate(0)" > <text font-size="66.6666666667" fill="#088" font-family="monospace"  >
   P4
  </text> </g> 
  <circle cx="-550" cy="450" r="10"
    style="fill:none;stroke:#800;stroke-width:2"  />
  <line x1="-550" y1="350" x2="-250" y2="350" style="stroke:#800;stroke-width:10;stroke-opacity:1.000000;stroke-linecap:round"/>
  <g transform="translate(-428,344) rotate(0)" > <text font-size="66.6666666667" fill="#800" font-family="monospace"  >
   4
  </text> </g> 
  <g transform="translate(-232,380) rotate(0)" > <text font-size="66.6666666667" fill="#088" font-family="monospace"  >
   P3
  </text> </g> 
  <circle cx="-550" cy="350" r="10"
    style="fill:none;stroke:#800;stroke-width:2"  />
  <line x1="-550" y1="250" x2="-250" y2="250" style="stroke:#800;stroke-width:10;stroke-opacity:1.000000;stroke-linecap:round"/>
  <g transform="translate(-428,244) rotate(0)" > <text font-size="66.6666666667" fill="#800" font-family="monospace"  >
   5
  </text> </g> 
  <g transform="translate(-232,280) rotate(0)" > <text font-size="66.6666666667" fill="#088" font-family="monospace"  >
   P2
  </text> </g> 
  <circle cx="-550" cy="250" r="10"
    style="fill:none;stroke:#800;stroke-width:2"  />
  <line x1="-550" y1="150" x2="-250" y2="150" style="stroke:#800;stroke-width:10;stroke-opacity:1.000000;stroke-linecap:round"/>
  <g transform="translate(-428,144) rotate(0)" > <text font-size="66.6666666667" fill="#800" font-family="monospace"  >
   6
  </text> </g> 
  <g transform="translate(-232,180) rotate(0)" > <text font-size="66.6666666667" fill="#088" font-family="monospace"  >
   P1
  </text> </g> 
  <circle cx="-550" cy="150" r="10"
    style="fill:none;stroke:#800;stroke-width:2"  />
  <line x1="-550" y1="50" x2="-250" y2="50" style="stroke:#800;stroke-width:10;stroke-opacity:1.000000;stroke-linecap:round"/>
  <g transform="translate(-428,44) rotate(0)" > <text font-size="66.6666666667" fill="#800" font-family="monospace"  >
   7
  </text> </g> 
  <g transform="translate(-232,80) rotate(0)" > <text font-size="66.6666666667" fill="#088" font-family="monospace"  >
   P0
  </text> </g> 
  <circle cx="-550" cy="50" r="10"
    style="fill:none;stroke:#800;stroke-width:2"  />
  <line x1="-550" y1="-50" x2="-250" y2="-50" style="stroke:#800;stroke-width:10;stroke-opacity:1.000000;stroke-linecap:round"/>
  <g transform="translate(-456,-56) rotate(0)" > <text font-size="66.6666666667" fill="#800" font-family="monospace"  >
   11
  </text> </g> 
  <g transform="translate(-232,-20) rotate(0)" > <text font-size="66.6666666667" fill="#088" font-family="monospace"  >
   DS
  </text> </g> 
  <circle cx="-550" cy="-50" r="10"
    style="fill:none;stroke:#800;stroke-width:2"  />
  <line x1="-550" y1="-200" x2="-250" y2="-200" style="stroke:#800;stroke-width:10;stroke-opacity:1.000000;stroke-linecap:round"/>
  <g transform="translate(-456,-206) rotate(0)" > <text font-size="66.6666666667" fill="#800" font-family="monospace"  >
   10
  </text> </g> 
  <g transform="translate(-232,-170) rotate(0)" > <text font-size="66.6666666667" fill="#088" font-family="monospace"  >
   CP
  </text> </g> 
  <circle cx="-550" cy="-200" r="10"
    style="fill:none;stroke:#800;stroke-width:2"  />
  <line x1="-550" y1="-300" x2="-250" y2="-300" style="stroke:#800;stroke-width:10;stroke-opacity:1.000000;stroke-linecap:round"/>
  <g transform="translate(-428,-306) rotate(0)" > <text font-size="66.6666666667" fill="#800" font-family="monospace"  >
   9
  </text> </g> 
  <g transform="translate(-232,-270) rotate(0)" > <text font-size="66.6666666667" fill="#088" font-family="monospace"  >
   PL
  </text> </g> 
  <circle cx="-550" cy="-300" r="10"
    style="fill:none;stroke:#800;stroke-width:2"  />
 </g>
</svg>
