<?xml version="1.0"?>
<svg height="287" width="237"  >
 <g style="fill-opacity:1.0; stroke:black;
  stroke-width:1;" transform=" translate( 118.875,143.5 ) scale( 0.15,0.15 )">
  <g transform="translate(270,-420) rotate(0)" > <text font-size="100.0" fill="#088" font-family="monospace"  >
   U
  </text> </g> 
  <g transform="translate(180,630) rotate(0)" > <text font-size="100.0" fill="#088" font-family="monospace"  >
   4042
  </text> </g> 
  <rect x="-200" y="-50" height="200"
    width="400" style="fill:none;stroke:#800;stroke-width:10" />
  <line x1="-150" y1="-250" x2="-150" y2="-300" style="stroke:#800;stroke-width:10;stroke-opacity:1.000000;stroke-linecap:round"/>
  <line x1="-150" y1="-300" x2="-200" y2="-300" style="stroke:#800;stroke-width:10;stroke-opacity:1.000000;stroke-linecap:round"/>
  <line x1="-200" y1="-300" x2="-200" y2="-500" style="stroke:#800;stroke-width:10;stroke-opacity:1.000000;stroke-linecap:round"/>
  <line x1="-200" y1="-500" x2="200" y2="-500" style="stroke:#800;stroke-width:10;stroke-opacity:1.000000;stroke-linecap:round"/>
  <line x1="200" y1="-500" x2="200" y2="-300" style="stroke:#800;stroke-width:10;stroke-opacity:1.000000;stroke-linecap:round"/>
  <line x1="200" y1="-300" x2="150" y2="-300" style="stroke:#800;stroke-width:10;stroke-opacity:1.000000;stroke-linecap:round"/>
  <line x1="150" y1="-300" x2="150" y2="-250" style="stroke:#800;stroke-width:10;stroke-opacity:1.000000;stroke-linecap:round"/>
  <line x1="150" y1="-250" x2="150" y2="-250" style="stroke:#800;stroke-width:10;stroke-opacity:1.000000;stroke-linecap:round"/>
  <line x1="-50" y1="-500" x2="-50" y2="-300" style="stroke:#800;stroke-width:10;stroke-opacity:1.000000;stroke-linecap:round"/>
  <line x1="-50" y1="-300" x2="-150" y2="-300" style="stroke:#800;stroke-width:10;stroke-opacity:1.000000;stroke-linecap:round"/>
  <line x1="-150" y1="-300" x2="-150" y2="-300" style="stroke:#800;stroke-width:10;stroke-opacity:1.000000;stroke-linecap:round"/>
  <rect x="-200" y="-250" height="200"
    width="400" style="fill:none;stroke:#800;stroke-width:10" />
  <rect x="-200" y="150" height="200"
    width="400" style="fill:none;stroke:#800;stroke-width:10" />
  <rect x="-200" y="350" height="200"
    width="400" style="fill:none;stroke:#800;stroke-width:10" />
  <circle cx="-30" cy="-400" r="20"
    style="fill:none;stroke:#800;stroke-width:10"  />
  <g transform="translate(-160,-370) rotate(0)" > <text font-size="100.0" fill="#800" font-family="monospace"  >
   =1
  </text> </g> 
  <g transform="translate(37,-487) rotate(-90)" > <text font-size="83.3333333333" fill="#888" font-family="monospace"  >
   8
  </text> </g> 
  <g transform="translate(56,-308) rotate(-90)" > <text font-size="83.3333333333" fill="#888" font-family="monospace"  >
   Vss
  </text> </g> 
  <circle cx="50" cy="-500" r="10"
    style="fill:none;stroke:#888;stroke-width:2"  />
  <g transform="translate(137,-475) rotate(-90)" > <text font-size="83.3333333333" fill="#888" font-family="monospace"  >
   16
  </text> </g> 
  <g transform="translate(156,-308) rotate(-90)" > <text font-size="83.3333333333" fill="#888" font-family="monospace"  >
   Vdd
  </text> </g> 
  <circle cx="150" cy="-500" r="10"
    style="fill:none;stroke:#888;stroke-width:2"  />
  <line x1="500" y1="500" x2="270" y2="500" style="stroke:#800;stroke-width:10;stroke-opacity:1.000000;stroke-linecap:round"/>
  <circle cx="235" cy="500" r="35"
    style="fill:none;stroke:#800;stroke-width:10"  />
  <g transform="translate(279,494) rotate(0)" > <text font-size="83.3333333333" fill="#800" font-family="monospace"  >
   15
  </text> </g> 
  <circle cx="500" cy="500" r="10"
    style="fill:none;stroke:#800;stroke-width:2"  />
  <line x1="500" y1="400" x2="200" y2="400" style="stroke:#800;stroke-width:10;stroke-opacity:1.000000;stroke-linecap:round"/>
  <g transform="translate(314,394) rotate(0)" > <text font-size="83.3333333333" fill="#800" font-family="monospace"  >
   1
  </text> </g> 
  <circle cx="500" cy="400" r="10"
    style="fill:none;stroke:#800;stroke-width:2"  />
  <line x1="500" y1="300" x2="270" y2="300" style="stroke:#800;stroke-width:10;stroke-opacity:1.000000;stroke-linecap:round"/>
  <circle cx="235" cy="300" r="35"
    style="fill:none;stroke:#800;stroke-width:10"  />
  <g transform="translate(279,294) rotate(0)" > <text font-size="83.3333333333" fill="#800" font-family="monospace"  >
   12
  </text> </g> 
  <circle cx="500" cy="300" r="10"
    style="fill:none;stroke:#800;stroke-width:2"  />
  <line x1="500" y1="200" x2="200" y2="200" style="stroke:#800;stroke-width:10;stroke-opacity:1.000000;stroke-linecap:round"/>
  <g transform="translate(279,194) rotate(0)" > <text font-size="83.3333333333" fill="#800" font-family="monospace"  >
   11
  </text> </g> 
  <circle cx="500" cy="200" r="10"
    style="fill:none;stroke:#800;stroke-width:2"  />
  <line x1="500" y1="100" x2="270" y2="100" style="stroke:#800;stroke-width:10;stroke-opacity:1.000000;stroke-linecap:round"/>
  <circle cx="235" cy="100" r="35"
    style="fill:none;stroke:#800;stroke-width:10"  />
  <g transform="translate(314,94) rotate(0)" > <text font-size="83.3333333333" fill="#800" font-family="monospace"  >
   9
  </text> </g> 
  <circle cx="500" cy="100" r="10"
    style="fill:none;stroke:#800;stroke-width:2"  />
  <line x1="500" y1="0" x2="200" y2="0" style="stroke:#800;stroke-width:10;stroke-opacity:1.000000;stroke-linecap:round"/>
  <g transform="translate(279,-6) rotate(0)" > <text font-size="83.3333333333" fill="#800" font-family="monospace"  >
   10
  </text> </g> 
  <circle cx="500" cy="0" r="10"
    style="fill:none;stroke:#800;stroke-width:2"  />
  <line x1="500" y1="-100" x2="270" y2="-100" style="stroke:#800;stroke-width:10;stroke-opacity:1.000000;stroke-linecap:round"/>
  <circle cx="235" cy="-100" r="35"
    style="fill:none;stroke:#800;stroke-width:10"  />
  <g transform="translate(314,-106) rotate(0)" > <text font-size="83.3333333333" fill="#800" font-family="monospace"  >
   3
  </text> </g> 
  <circle cx="500" cy="-100" r="10"
    style="fill:none;stroke:#800;stroke-width:2"  />
  <line x1="500" y1="-200" x2="200" y2="-200" style="stroke:#800;stroke-width:10;stroke-opacity:1.000000;stroke-linecap:round"/>
  <g transform="translate(314,-206) rotate(0)" > <text font-size="83.3333333333" fill="#800" font-family="monospace"  >
   2
  </text> </g> 
  <circle cx="500" cy="-200" r="10"
    style="fill:none;stroke:#800;stroke-width:2"  />
  <line x1="-500" y1="450" x2="-200" y2="450" style="stroke:#800;stroke-width:10;stroke-opacity:1.000000;stroke-linecap:round"/>
  <g transform="translate(-420,444) rotate(0)" > <text font-size="83.3333333333" fill="#800" font-family="monospace"  >
   14
  </text> </g> 
  <circle cx="-500" cy="450" r="10"
    style="fill:none;stroke:#800;stroke-width:2"  />
  <line x1="-500" y1="250" x2="-200" y2="250" style="stroke:#800;stroke-width:10;stroke-opacity:1.000000;stroke-linecap:round"/>
  <g transform="translate(-420,244) rotate(0)" > <text font-size="83.3333333333" fill="#800" font-family="monospace"  >
   13
  </text> </g> 
  <circle cx="-500" cy="250" r="10"
    style="fill:none;stroke:#800;stroke-width:2"  />
  <line x1="-500" y1="50" x2="-200" y2="50" style="stroke:#800;stroke-width:10;stroke-opacity:1.000000;stroke-linecap:round"/>
  <g transform="translate(-385,44) rotate(0)" > <text font-size="83.3333333333" fill="#800" font-family="monospace"  >
   7
  </text> </g> 
  <circle cx="-500" cy="50" r="10"
    style="fill:none;stroke:#800;stroke-width:2"  />
  <line x1="-500" y1="-150" x2="-200" y2="-150" style="stroke:#800;stroke-width:10;stroke-opacity:1.000000;stroke-linecap:round"/>
  <g transform="translate(-385,-156) rotate(0)" > <text font-size="83.3333333333" fill="#800" font-family="monospace"  >
   4
  </text> </g> 
  <circle cx="-500" cy="-150" r="10"
    style="fill:none;stroke:#800;stroke-width:2"  />
  <line x1="-500" y1="-350" x2="-200" y2="-350" style="stroke:#800;stroke-width:10;stroke-opacity:1.000000;stroke-linecap:round"/>
  <g transform="translate(-385,-356) rotate(0)" > <text font-size="83.3333333333" fill="#800" font-family="monospace"  >
   6
  </text> </g> 
  <g transform="translate(-182,-315) rotate(0)" > <text font-size="83.3333333333" fill="#088" font-family="monospace"  >
   E1
  </text> </g> 
  <circle cx="-500" cy="-350" r="10"
    style="fill:none;stroke:#800;stroke-width:2"  />
  <line x1="-160" y1="-450" x2="-200" y2="-410" style="stroke:#800;stroke-width:10;stroke-opacity:1.000000;stroke-linecap:round"/>
  <line x1="-200" y1="-410" x2="-200" y2="-490" style="stroke:#800;stroke-width:10;stroke-opacity:1.000000;stroke-linecap:round"/>
  <line x1="-200" y1="-490" x2="-160" y2="-450" style="stroke:#800;stroke-width:10;stroke-opacity:1.000000;stroke-linecap:round"/>
  <line x1="-500" y1="-450" x2="-200" y2="-450" style="stroke:#800;stroke-width:10;stroke-opacity:1.000000;stroke-linecap:round"/>
  <g transform="translate(-385,-456) rotate(0)" > <text font-size="83.3333333333" fill="#800" font-family="monospace"  >
   5
  </text> </g> 
  <g transform="translate(-182,-415) rotate(0)" > <text font-size="83.3333333333" fill="#088" font-family="monospace"  >
   E0
  </text> </g> 
  <circle cx="-500" cy="-450" r="10"
    style="fill:none;stroke:#800;stroke-width:2"  />
 </g>
</svg>
