<?xml version="1.0"?>
<svg height="377" width="338"  >
 <g style="fill-opacity:1.0; stroke:black;
  stroke-width:1;" transform=" translate( 169.375,188.5 ) scale( 0.15,0.15 )">
  <g transform="translate(220,-820) rotate(0)" > <text font-size="100.0" fill="#088" font-family="monospace"  >
   U
  </text> </g> 
  <g transform="translate(180,930) rotate(0)" > <text font-size="100.0" fill="#088" font-family="monospace"  >
   4067
  </text> </g> 
  <rect x="-300" y="-800" height="1600"
    width="600" style="fill:none;stroke:#800;stroke-width:10" />
  <g transform="translate(-12,-775) rotate(-90)" > <text font-size="83.3333333333" fill="#888" font-family="monospace"  >
   24
  </text> </g> 
  <g transform="translate(6,-608) rotate(-90)" > <text font-size="83.3333333333" fill="#888" font-family="monospace"  >
   Vdd
  </text> </g> 
  <circle cx="0" cy="-800" r="10"
    style="fill:none;stroke:#888;stroke-width:2"  />
  <line x1="600" y1="750" x2="300" y2="750" style="stroke:#800;stroke-width:10;stroke-opacity:1.000000;stroke-linecap:round"/>
  <g transform="translate(379,744) rotate(0)" > <text font-size="83.3333333333" fill="#800" font-family="monospace"  >
   17
  </text> </g> 
  <g transform="translate(109,785) rotate(0)" > <text font-size="83.3333333333" fill="#088" font-family="monospace"  >
   A15
  </text> </g> 
  <circle cx="600" cy="750" r="10"
    style="fill:none;stroke:#800;stroke-width:2"  />
  <line x1="600" y1="650" x2="300" y2="650" style="stroke:#800;stroke-width:10;stroke-opacity:1.000000;stroke-linecap:round"/>
  <g transform="translate(379,644) rotate(0)" > <text font-size="83.3333333333" fill="#800" font-family="monospace"  >
   18
  </text> </g> 
  <g transform="translate(109,685) rotate(0)" > <text font-size="83.3333333333" fill="#088" font-family="monospace"  >
   A14
  </text> </g> 
  <circle cx="600" cy="650" r="10"
    style="fill:none;stroke:#800;stroke-width:2"  />
  <line x1="600" y1="550" x2="300" y2="550" style="stroke:#800;stroke-width:10;stroke-opacity:1.000000;stroke-linecap:round"/>
  <g transform="translate(379,544) rotate(0)" > <text font-size="83.3333333333" fill="#800" font-family="monospace"  >
   19
  </text> </g> 
  <g transform="translate(109,585) rotate(0)" > <text font-size="83.3333333333" fill="#088" font-family="monospace"  >
   A13
  </text> </g> 
  <circle cx="600" cy="550" r="10"
    style="fill:none;stroke:#800;stroke-width:2"  />
  <line x1="600" y1="450" x2="300" y2="450" style="stroke:#800;stroke-width:10;stroke-opacity:1.000000;stroke-linecap:round"/>
  <g transform="translate(379,444) rotate(0)" > <text font-size="83.3333333333" fill="#800" font-family="monospace"  >
   14
  </text> </g> 
  <g transform="translate(109,485) rotate(0)" > <text font-size="83.3333333333" fill="#088" font-family="monospace"  >
   Q12
  </text> </g> 
  <circle cx="600" cy="450" r="10"
    style="fill:none;stroke:#800;stroke-width:2"  />
  <line x1="600" y1="350" x2="300" y2="350" style="stroke:#800;stroke-width:10;stroke-opacity:1.000000;stroke-linecap:round"/>
  <g transform="translate(379,344) rotate(0)" > <text font-size="83.3333333333" fill="#800" font-family="monospace"  >
   20
  </text> </g> 
  <g transform="translate(109,385) rotate(0)" > <text font-size="83.3333333333" fill="#088" font-family="monospace"  >
   A11
  </text> </g> 
  <circle cx="600" cy="350" r="10"
    style="fill:none;stroke:#800;stroke-width:2"  />
  <line x1="600" y1="250" x2="300" y2="250" style="stroke:#800;stroke-width:10;stroke-opacity:1.000000;stroke-linecap:round"/>
  <g transform="translate(379,244) rotate(0)" > <text font-size="83.3333333333" fill="#800" font-family="monospace"  >
   21
  </text> </g> 
  <g transform="translate(109,285) rotate(0)" > <text font-size="83.3333333333" fill="#088" font-family="monospace"  >
   A10
  </text> </g> 
  <circle cx="600" cy="250" r="10"
    style="fill:none;stroke:#800;stroke-width:2"  />
  <line x1="600" y1="150" x2="300" y2="150" style="stroke:#800;stroke-width:10;stroke-opacity:1.000000;stroke-linecap:round"/>
  <g transform="translate(379,144) rotate(0)" > <text font-size="83.3333333333" fill="#800" font-family="monospace"  >
   22
  </text> </g> 
  <g transform="translate(160,185) rotate(0)" > <text font-size="83.3333333333" fill="#088" font-family="monospace"  >
   A9
  </text> </g> 
  <circle cx="600" cy="150" r="10"
    style="fill:none;stroke:#800;stroke-width:2"  />
  <line x1="600" y1="50" x2="300" y2="50" style="stroke:#800;stroke-width:10;stroke-opacity:1.000000;stroke-linecap:round"/>
  <g transform="translate(379,44) rotate(0)" > <text font-size="83.3333333333" fill="#800" font-family="monospace"  >
   23
  </text> </g> 
  <g transform="translate(160,85) rotate(0)" > <text font-size="83.3333333333" fill="#088" font-family="monospace"  >
   A8
  </text> </g> 
  <circle cx="600" cy="50" r="10"
    style="fill:none;stroke:#800;stroke-width:2"  />
  <line x1="600" y1="-50" x2="300" y2="-50" style="stroke:#800;stroke-width:10;stroke-opacity:1.000000;stroke-linecap:round"/>
  <g transform="translate(414,-56) rotate(0)" > <text font-size="83.3333333333" fill="#800" font-family="monospace"  >
   2
  </text> </g> 
  <g transform="translate(160,-15) rotate(0)" > <text font-size="83.3333333333" fill="#088" font-family="monospace"  >
   A7
  </text> </g> 
  <circle cx="600" cy="-50" r="10"
    style="fill:none;stroke:#800;stroke-width:2"  />
  <line x1="600" y1="-150" x2="300" y2="-150" style="stroke:#800;stroke-width:10;stroke-opacity:1.000000;stroke-linecap:round"/>
  <g transform="translate(414,-156) rotate(0)" > <text font-size="83.3333333333" fill="#800" font-family="monospace"  >
   3
  </text> </g> 
  <g transform="translate(160,-115) rotate(0)" > <text font-size="83.3333333333" fill="#088" font-family="monospace"  >
   A3
  </text> </g> 
  <circle cx="600" cy="-150" r="10"
    style="fill:none;stroke:#800;stroke-width:2"  />
  <line x1="600" y1="-250" x2="300" y2="-250" style="stroke:#800;stroke-width:10;stroke-opacity:1.000000;stroke-linecap:round"/>
  <g transform="translate(414,-256) rotate(0)" > <text font-size="83.3333333333" fill="#800" font-family="monospace"  >
   4
  </text> </g> 
  <g transform="translate(160,-215) rotate(0)" > <text font-size="83.3333333333" fill="#088" font-family="monospace"  >
   A5
  </text> </g> 
  <circle cx="600" cy="-250" r="10"
    style="fill:none;stroke:#800;stroke-width:2"  />
  <line x1="600" y1="-350" x2="300" y2="-350" style="stroke:#800;stroke-width:10;stroke-opacity:1.000000;stroke-linecap:round"/>
  <g transform="translate(414,-356) rotate(0)" > <text font-size="83.3333333333" fill="#800" font-family="monospace"  >
   5
  </text> </g> 
  <g transform="translate(160,-315) rotate(0)" > <text font-size="83.3333333333" fill="#088" font-family="monospace"  >
   A4
  </text> </g> 
  <circle cx="600" cy="-350" r="10"
    style="fill:none;stroke:#800;stroke-width:2"  />
  <line x1="600" y1="-450" x2="300" y2="-450" style="stroke:#800;stroke-width:10;stroke-opacity:1.000000;stroke-linecap:round"/>
  <g transform="translate(414,-456) rotate(0)" > <text font-size="83.3333333333" fill="#800" font-family="monospace"  >
   6
  </text> </g> 
  <g transform="translate(160,-415) rotate(0)" > <text font-size="83.3333333333" fill="#088" font-family="monospace"  >
   A3
  </text> </g> 
  <circle cx="600" cy="-450" r="10"
    style="fill:none;stroke:#800;stroke-width:2"  />
  <line x1="600" y1="-550" x2="300" y2="-550" style="stroke:#800;stroke-width:10;stroke-opacity:1.000000;stroke-linecap:round"/>
  <g transform="translate(414,-556) rotate(0)" > <text font-size="83.3333333333" fill="#800" font-family="monospace"  >
   7
  </text> </g> 
  <g transform="translate(160,-515) rotate(0)" > <text font-size="83.3333333333" fill="#088" font-family="monospace"  >
   A2
  </text> </g> 
  <circle cx="600" cy="-550" r="10"
    style="fill:none;stroke:#800;stroke-width:2"  />
  <line x1="600" y1="-650" x2="300" y2="-650" style="stroke:#800;stroke-width:10;stroke-opacity:1.000000;stroke-linecap:round"/>
  <g transform="translate(414,-656) rotate(0)" > <text font-size="83.3333333333" fill="#800" font-family="monospace"  >
   8
  </text> </g> 
  <g transform="translate(160,-615) rotate(0)" > <text font-size="83.3333333333" fill="#088" font-family="monospace"  >
   A1
  </text> </g> 
  <circle cx="600" cy="-650" r="10"
    style="fill:none;stroke:#800;stroke-width:2"  />
  <line x1="600" y1="-750" x2="300" y2="-750" style="stroke:#800;stroke-width:10;stroke-opacity:1.000000;stroke-linecap:round"/>
  <g transform="translate(414,-756) rotate(0)" > <text font-size="83.3333333333" fill="#800" font-family="monospace"  >
   9
  </text> </g> 
  <g transform="translate(160,-715) rotate(0)" > <text font-size="83.3333333333" fill="#088" font-family="monospace"  >
   A0
  </text> </g> 
  <circle cx="600" cy="-750" r="10"
    style="fill:none;stroke:#800;stroke-width:2"  />
  <line x1="-600" y1="550" x2="-300" y2="550" style="stroke:#800;stroke-width:10;stroke-opacity:1.000000;stroke-linecap:round"/>
  <g transform="translate(-485,544) rotate(0)" > <text font-size="83.3333333333" fill="#800" font-family="monospace"  >
   1
  </text> </g> 
  <g transform="translate(-282,585) rotate(0)" > <text font-size="83.3333333333" fill="#088" font-family="monospace"  >
   Z
  </text> </g> 
  <circle cx="-600" cy="550" r="10"
    style="fill:none;stroke:#800;stroke-width:2"  />
  <line x1="-600" y1="150" x2="-300" y2="150" style="stroke:#800;stroke-width:10;stroke-opacity:1.000000;stroke-linecap:round"/>
  <g transform="translate(-520,144) rotate(0)" > <text font-size="83.3333333333" fill="#800" font-family="monospace"  >
   13
  </text> </g> 
  <g transform="translate(-282,185) rotate(0)" > <text font-size="83.3333333333" fill="#088" font-family="monospace"  >
   A3
  </text> </g> 
  <circle cx="-600" cy="150" r="10"
    style="fill:none;stroke:#800;stroke-width:2"  />
  <line x1="-600" y1="50" x2="-300" y2="50" style="stroke:#800;stroke-width:10;stroke-opacity:1.000000;stroke-linecap:round"/>
  <g transform="translate(-520,44) rotate(0)" > <text font-size="83.3333333333" fill="#800" font-family="monospace"  >
   14
  </text> </g> 
  <g transform="translate(-282,85) rotate(0)" > <text font-size="83.3333333333" fill="#088" font-family="monospace"  >
   A2
  </text> </g> 
  <circle cx="-600" cy="50" r="10"
    style="fill:none;stroke:#800;stroke-width:2"  />
  <line x1="-600" y1="-50" x2="-300" y2="-50" style="stroke:#800;stroke-width:10;stroke-opacity:1.000000;stroke-linecap:round"/>
  <g transform="translate(-520,-56) rotate(0)" > <text font-size="83.3333333333" fill="#800" font-family="monospace"  >
   11
  </text> </g> 
  <g transform="translate(-282,-15) rotate(0)" > <text font-size="83.3333333333" fill="#088" font-family="monospace"  >
   A1
  </text> </g> 
  <circle cx="-600" cy="-50" r="10"
    style="fill:none;stroke:#800;stroke-width:2"  />
  <line x1="-600" y1="-150" x2="-300" y2="-150" style="stroke:#800;stroke-width:10;stroke-opacity:1.000000;stroke-linecap:round"/>
  <g transform="translate(-520,-156) rotate(0)" > <text font-size="83.3333333333" fill="#800" font-family="monospace"  >
   10
  </text> </g> 
  <g transform="translate(-282,-115) rotate(0)" > <text font-size="83.3333333333" fill="#088" font-family="monospace"  >
   A0
  </text> </g> 
  <circle cx="-600" cy="-150" r="10"
    style="fill:none;stroke:#800;stroke-width:2"  />
  <line x1="-600" y1="-550" x2="-370" y2="-550" style="stroke:#800;stroke-width:10;stroke-opacity:1.000000;stroke-linecap:round"/>
  <circle cx="-335" cy="-550" r="35"
    style="fill:none;stroke:#800;stroke-width:10"  />
  <g transform="translate(-520,-556) rotate(0)" > <text font-size="83.3333333333" fill="#800" font-family="monospace"  >
   15
  </text> </g> 
  <g transform="translate(-282,-515) rotate(0)" > <text font-size="83.3333333333" fill="#088" font-family="monospace"  >
   ~E
  </text> </g> 
  <circle cx="-600" cy="-550" r="10"
    style="fill:none;stroke:#800;stroke-width:2"  />
  <g transform="translate(-12,825) rotate(-90)" > <text font-size="83.3333333333" fill="#888" font-family="monospace"  >
   12
  </text> </g> 
  <g transform="translate(6,758) rotate(-90)" > <text font-size="83.3333333333" fill="#888" font-family="monospace"  >
   Vss
  </text> </g> 
  <circle cx="0" cy="800" r="10"
    style="fill:none;stroke:#888;stroke-width:2"  />
 </g>
</svg>
