<?xml version="1.0"?>
<svg height="279" width="254"  >
 <g style="fill-opacity:1.0; stroke:black;
  stroke-width:1;" transform=" translate( 127.375,139.75 ) scale( 0.15,0.15 )">
  <g transform="translate(170,-470) rotate(0)" > <text font-size="100.0" fill="#088" font-family="monospace"  >
   U
  </text> </g> 
  <g transform="translate(230,530) rotate(0)" > <text font-size="100.0" fill="#088" font-family="monospace"  >
   4096
  </text> </g> 
  <rect x="0" y="150" height="300"
    width="0" style="fill:none;stroke:#800;stroke-width:10" />
  <rect x="-200" y="150" height="0"
    width="200" style="fill:none;stroke:#800;stroke-width:10" />
  <rect x="0" y="-150" height="300"
    width="0" style="fill:none;stroke:#800;stroke-width:10" />
  <rect x="-200" y="-150" height="0"
    width="200" style="fill:none;stroke:#800;stroke-width:10" />
  <rect x="-200" y="-450" height="900"
    width="400" style="fill:none;stroke:#800;stroke-width:10" />
  <g transform="translate(20,30) rotate(0)" > <text font-size="100.0" fill="#800" font-family="monospace"  >
   J
  </text> </g> 
  <g transform="translate(-80,30) rotate(0)" > <text font-size="100.0" fill="#800" font-family="monospace"  >
   &amp;
  </text> </g> 
  <g transform="translate(20,330) rotate(0)" > <text font-size="100.0" fill="#800" font-family="monospace"  >
   K
  </text> </g> 
  <g transform="translate(-80,330) rotate(0)" > <text font-size="100.0" fill="#800" font-family="monospace"  >
   &amp;
  </text> </g> 
  <g transform="translate(35,-420) rotate(-90)" > <text font-size="100.0" fill="#888" font-family="monospace"  >
   14
  </text> </g> 
  <g transform="translate(56,-258) rotate(-90)" > <text font-size="83.3333333333" fill="#888" font-family="monospace"  >
   Vdd
  </text> </g> 
  <circle cx="50" cy="-450" r="10"
    style="fill:none;stroke:#888;stroke-width:2"  />
  <line x1="500" y1="200" x2="270" y2="200" style="stroke:#800;stroke-width:10;stroke-opacity:1.000000;stroke-linecap:round"/>
  <circle cx="235" cy="200" r="35"
    style="fill:none;stroke:#800;stroke-width:10"  />
  <g transform="translate(307,194) rotate(0)" > <text font-size="100.0" fill="#800" font-family="monospace"  >
   6
  </text> </g> 
  <g transform="translate(60,235) rotate(0)" > <text font-size="83.3333333333" fill="#088" font-family="monospace"  >
   ~Q
  </text> </g> 
  <circle cx="500" cy="200" r="10"
    style="fill:none;stroke:#800;stroke-width:2"  />
  <line x1="500" y1="-200" x2="200" y2="-200" style="stroke:#800;stroke-width:10;stroke-opacity:1.000000;stroke-linecap:round"/>
  <g transform="translate(307,-206) rotate(0)" > <text font-size="100.0" fill="#800" font-family="monospace"  >
   8
  </text> </g> 
  <g transform="translate(110,-165) rotate(0)" > <text font-size="83.3333333333" fill="#088" font-family="monospace"  >
   Q
  </text> </g> 
  <circle cx="500" cy="-200" r="10"
    style="fill:none;stroke:#800;stroke-width:2"  />
  <line x1="-500" y1="400" x2="-270" y2="400" style="stroke:#800;stroke-width:10;stroke-opacity:1.000000;stroke-linecap:round"/>
  <circle cx="-235" cy="400" r="35"
    style="fill:none;stroke:#800;stroke-width:10"  />
  <g transform="translate(-392,394) rotate(0)" > <text font-size="100.0" fill="#800" font-family="monospace"  >
   9
  </text> </g> 
  <g transform="translate(-182,435) rotate(0)" > <text font-size="83.3333333333" fill="#088" font-family="monospace"  >
   ~K3
  </text> </g> 
  <circle cx="-500" cy="400" r="10"
    style="fill:none;stroke:#800;stroke-width:2"  />
  <line x1="-500" y1="300" x2="-200" y2="300" style="stroke:#800;stroke-width:10;stroke-opacity:1.000000;stroke-linecap:round"/>
  <g transform="translate(-435,294) rotate(0)" > <text font-size="100.0" fill="#800" font-family="monospace"  >
   10
  </text> </g> 
  <g transform="translate(-182,335) rotate(0)" > <text font-size="83.3333333333" fill="#088" font-family="monospace"  >
   K2
  </text> </g> 
  <circle cx="-500" cy="300" r="10"
    style="fill:none;stroke:#800;stroke-width:2"  />
  <line x1="-500" y1="200" x2="-200" y2="200" style="stroke:#800;stroke-width:10;stroke-opacity:1.000000;stroke-linecap:round"/>
  <g transform="translate(-435,194) rotate(0)" > <text font-size="100.0" fill="#800" font-family="monospace"  >
   11
  </text> </g> 
  <g transform="translate(-182,235) rotate(0)" > <text font-size="83.3333333333" fill="#088" font-family="monospace"  >
   K1
  </text> </g> 
  <circle cx="-500" cy="200" r="10"
    style="fill:none;stroke:#800;stroke-width:2"  />
  <line x1="-500" y1="100" x2="-270" y2="100" style="stroke:#800;stroke-width:10;stroke-opacity:1.000000;stroke-linecap:round"/>
  <circle cx="-235" cy="100" r="35"
    style="fill:none;stroke:#800;stroke-width:10"  />
  <g transform="translate(-392,94) rotate(0)" > <text font-size="100.0" fill="#800" font-family="monospace"  >
   5
  </text> </g> 
  <g transform="translate(-182,135) rotate(0)" > <text font-size="83.3333333333" fill="#088" font-family="monospace"  >
   ~J3
  </text> </g> 
  <circle cx="-500" cy="100" r="10"
    style="fill:none;stroke:#800;stroke-width:2"  />
  <line x1="-500" y1="0" x2="-200" y2="0" style="stroke:#800;stroke-width:10;stroke-opacity:1.000000;stroke-linecap:round"/>
  <g transform="translate(-392,-6) rotate(0)" > <text font-size="100.0" fill="#800" font-family="monospace"  >
   4
  </text> </g> 
  <g transform="translate(-182,35) rotate(0)" > <text font-size="83.3333333333" fill="#088" font-family="monospace"  >
   J2
  </text> </g> 
  <circle cx="-500" cy="0" r="10"
    style="fill:none;stroke:#800;stroke-width:2"  />
  <line x1="-500" y1="-100" x2="-200" y2="-100" style="stroke:#800;stroke-width:10;stroke-opacity:1.000000;stroke-linecap:round"/>
  <g transform="translate(-392,-106) rotate(0)" > <text font-size="100.0" fill="#800" font-family="monospace"  >
   3
  </text> </g> 
  <g transform="translate(-182,-65) rotate(0)" > <text font-size="83.3333333333" fill="#088" font-family="monospace"  >
   J1
  </text> </g> 
  <circle cx="-500" cy="-100" r="10"
    style="fill:none;stroke:#800;stroke-width:2"  />
  <line x1="-500" y1="-200" x2="-200" y2="-200" style="stroke:#800;stroke-width:10;stroke-opacity:1.000000;stroke-linecap:round"/>
  <g transform="translate(-392,-206) rotate(0)" > <text font-size="100.0" fill="#800" font-family="monospace"  >
   2
  </text> </g> 
  <g transform="translate(-182,-165) rotate(0)" > <text font-size="83.3333333333" fill="#088" font-family="monospace"  >
   R
  </text> </g> 
  <circle cx="-500" cy="-200" r="10"
    style="fill:none;stroke:#800;stroke-width:2"  />
  <line x1="-160" y1="-300" x2="-200" y2="-260" style="stroke:#800;stroke-width:10;stroke-opacity:1.000000;stroke-linecap:round"/>
  <line x1="-200" y1="-260" x2="-200" y2="-340" style="stroke:#800;stroke-width:10;stroke-opacity:1.000000;stroke-linecap:round"/>
  <line x1="-200" y1="-340" x2="-160" y2="-300" style="stroke:#800;stroke-width:10;stroke-opacity:1.000000;stroke-linecap:round"/>
  <line x1="-500" y1="-300" x2="-200" y2="-300" style="stroke:#800;stroke-width:10;stroke-opacity:1.000000;stroke-linecap:round"/>
  <g transform="translate(-435,-306) rotate(0)" > <text font-size="100.0" fill="#800" font-family="monospace"  >
   12
  </text> </g> 
  <g transform="translate(-182,-265) rotate(0)" > <text font-size="83.3333333333" fill="#088" font-family="monospace"  >
   CK
  </text> </g> 
  <circle cx="-500" cy="-300" r="10"
    style="fill:none;stroke:#800;stroke-width:2"  />
  <line x1="-500" y1="-400" x2="-200" y2="-400" style="stroke:#800;stroke-width:10;stroke-opacity:1.000000;stroke-linecap:round"/>
  <g transform="translate(-435,-406) rotate(0)" > <text font-size="100.0" fill="#800" font-family="monospace"  >
   13
  </text> </g> 
  <g transform="translate(-182,-365) rotate(0)" > <text font-size="83.3333333333" fill="#088" font-family="monospace"  >
   S
  </text> </g> 
  <circle cx="-500" cy="-400" r="10"
    style="fill:none;stroke:#800;stroke-width:2"  />
  <g transform="translate(135,465) rotate(-90)" > <text font-size="100.0" fill="#888" font-family="monospace"  >
   7
  </text> </g> 
  <g transform="translate(156,408) rotate(-90)" > <text font-size="83.3333333333" fill="#888" font-family="monospace"  >
   Vss
  </text> </g> 
  <circle cx="150" cy="450" r="10"
    style="fill:none;stroke:#888;stroke-width:2"  />
 </g>
</svg>
