<?xml version="1.0"?>
<svg height="317" width="255"  >
 <g style="fill-opacity:1.0; stroke:black;
  stroke-width:1;" transform=" translate( 127.625,158.5 ) scale( 0.15,0.15 )">
  <g transform="translate(320,-320) rotate(0)" > <text font-size="100.0" fill="#088" font-family="monospace"  >
   U
  </text> </g> 
  <g transform="translate(230,780) rotate(0)" > <text font-size="100.0" fill="#088" font-family="monospace"  >
   4160
  </text> </g> 
  <rect x="-300" y="550" height="100"
    width="600" style="fill:none;stroke:#800;stroke-width:10" />
  <rect x="-300" y="450" height="100"
    width="600" style="fill:none;stroke:#800;stroke-width:10" />
  <rect x="-300" y="350" height="100"
    width="600" style="fill:none;stroke:#800;stroke-width:10" />
  <rect x="-300" y="250" height="100"
    width="600" style="fill:none;stroke:#800;stroke-width:10" />
  <line x1="-250" y1="250" x2="-250" y2="200" style="stroke:#800;stroke-width:10;stroke-opacity:1.000000;stroke-linecap:round"/>
  <line x1="-250" y1="200" x2="-300" y2="200" style="stroke:#800;stroke-width:10;stroke-opacity:1.000000;stroke-linecap:round"/>
  <line x1="-300" y1="200" x2="-300" y2="-450" style="stroke:#800;stroke-width:10;stroke-opacity:1.000000;stroke-linecap:round"/>
  <line x1="-300" y1="-450" x2="300" y2="-450" style="stroke:#800;stroke-width:10;stroke-opacity:1.000000;stroke-linecap:round"/>
  <line x1="300" y1="-450" x2="300" y2="200" style="stroke:#800;stroke-width:10;stroke-opacity:1.000000;stroke-linecap:round"/>
  <line x1="300" y1="200" x2="250" y2="200" style="stroke:#800;stroke-width:10;stroke-opacity:1.000000;stroke-linecap:round"/>
  <line x1="250" y1="200" x2="250" y2="250" style="stroke:#800;stroke-width:10;stroke-opacity:1.000000;stroke-linecap:round"/>
  <line x1="250" y1="250" x2="250" y2="250" style="stroke:#800;stroke-width:10;stroke-opacity:1.000000;stroke-linecap:round"/>
  <g transform="translate(-25,325) rotate(0)" > <text font-size="83.3333333333" fill="#800" font-family="monospace"  >
   1
  </text> </g> 
  <g transform="translate(-25,625) rotate(0)" > <text font-size="83.3333333333" fill="#800" font-family="monospace"  >
   8
  </text> </g> 
  <g transform="translate(-25,525) rotate(0)" > <text font-size="83.3333333333" fill="#800" font-family="monospace"  >
   4
  </text> </g> 
  <g transform="translate(-25,425) rotate(0)" > <text font-size="83.3333333333" fill="#800" font-family="monospace"  >
   2
  </text> </g> 
  <g transform="translate(40,-440) rotate(-90)" > <text font-size="66.6666666667" fill="#888" font-family="monospace"  >
   8
  </text> </g> 
  <g transform="translate(56,-258) rotate(-90)" > <text font-size="83.3333333333" fill="#888" font-family="monospace"  >
   VSS
  </text> </g> 
  <circle cx="50" cy="-450" r="10"
    style="fill:none;stroke:#888;stroke-width:2"  />
  <g transform="translate(190,-430) rotate(-90)" > <text font-size="66.6666666667" fill="#888" font-family="monospace"  >
   16
  </text> </g> 
  <g transform="translate(206,-258) rotate(-90)" > <text font-size="83.3333333333" fill="#888" font-family="monospace"  >
   VDD
  </text> </g> 
  <circle cx="200" cy="-450" r="10"
    style="fill:none;stroke:#888;stroke-width:2"  />
  <line x1="600" y1="600" x2="300" y2="600" style="stroke:#800;stroke-width:10;stroke-opacity:1.000000;stroke-linecap:round"/>
  <g transform="translate(393,594) rotate(0)" > <text font-size="66.6666666667" fill="#800" font-family="monospace"  >
   11
  </text> </g> 
  <g transform="translate(160,635) rotate(0)" > <text font-size="83.3333333333" fill="#088" font-family="monospace"  >
   Q3
  </text> </g> 
  <circle cx="600" cy="600" r="10"
    style="fill:none;stroke:#800;stroke-width:2"  />
  <line x1="600" y1="500" x2="300" y2="500" style="stroke:#800;stroke-width:10;stroke-opacity:1.000000;stroke-linecap:round"/>
  <g transform="translate(393,494) rotate(0)" > <text font-size="66.6666666667" fill="#800" font-family="monospace"  >
   12
  </text> </g> 
  <g transform="translate(160,535) rotate(0)" > <text font-size="83.3333333333" fill="#088" font-family="monospace"  >
   Q2
  </text> </g> 
  <circle cx="600" cy="500" r="10"
    style="fill:none;stroke:#800;stroke-width:2"  />
  <line x1="600" y1="400" x2="300" y2="400" style="stroke:#800;stroke-width:10;stroke-opacity:1.000000;stroke-linecap:round"/>
  <g transform="translate(393,394) rotate(0)" > <text font-size="66.6666666667" fill="#800" font-family="monospace"  >
   13
  </text> </g> 
  <g transform="translate(160,435) rotate(0)" > <text font-size="83.3333333333" fill="#088" font-family="monospace"  >
   Q1
  </text> </g> 
  <circle cx="600" cy="400" r="10"
    style="fill:none;stroke:#800;stroke-width:2"  />
  <line x1="600" y1="300" x2="300" y2="300" style="stroke:#800;stroke-width:10;stroke-opacity:1.000000;stroke-linecap:round"/>
  <g transform="translate(393,294) rotate(0)" > <text font-size="66.6666666667" fill="#800" font-family="monospace"  >
   14
  </text> </g> 
  <g transform="translate(160,335) rotate(0)" > <text font-size="83.3333333333" fill="#088" font-family="monospace"  >
   Q0
  </text> </g> 
  <circle cx="600" cy="300" r="10"
    style="fill:none;stroke:#800;stroke-width:2"  />
  <line x1="600" y1="-150" x2="300" y2="-150" style="stroke:#800;stroke-width:10;stroke-opacity:1.000000;stroke-linecap:round"/>
  <g transform="translate(393,-156) rotate(0)" > <text font-size="66.6666666667" fill="#800" font-family="monospace"  >
   15
  </text> </g> 
  <g transform="translate(160,-115) rotate(0)" > <text font-size="83.3333333333" fill="#088" font-family="monospace"  >
   TC
  </text> </g> 
  <circle cx="600" cy="-150" r="10"
    style="fill:none;stroke:#800;stroke-width:2"  />
  <line x1="-600" y1="600" x2="-300" y2="600" style="stroke:#800;stroke-width:10;stroke-opacity:1.000000;stroke-linecap:round"/>
  <g transform="translate(-478,594) rotate(0)" > <text font-size="66.6666666667" fill="#800" font-family="monospace"  >
   6
  </text> </g> 
  <g transform="translate(-282,635) rotate(0)" > <text font-size="83.3333333333" fill="#088" font-family="monospace"  >
   P3
  </text> </g> 
  <circle cx="-600" cy="600" r="10"
    style="fill:none;stroke:#800;stroke-width:2"  />
  <line x1="-600" y1="500" x2="-300" y2="500" style="stroke:#800;stroke-width:10;stroke-opacity:1.000000;stroke-linecap:round"/>
  <g transform="translate(-478,494) rotate(0)" > <text font-size="66.6666666667" fill="#800" font-family="monospace"  >
   5
  </text> </g> 
  <g transform="translate(-282,535) rotate(0)" > <text font-size="83.3333333333" fill="#088" font-family="monospace"  >
   P2
  </text> </g> 
  <circle cx="-600" cy="500" r="10"
    style="fill:none;stroke:#800;stroke-width:2"  />
  <line x1="-600" y1="400" x2="-300" y2="400" style="stroke:#800;stroke-width:10;stroke-opacity:1.000000;stroke-linecap:round"/>
  <g transform="translate(-478,394) rotate(0)" > <text font-size="66.6666666667" fill="#800" font-family="monospace"  >
   4
  </text> </g> 
  <g transform="translate(-282,435) rotate(0)" > <text font-size="83.3333333333" fill="#088" font-family="monospace"  >
   P1
  </text> </g> 
  <circle cx="-600" cy="400" r="10"
    style="fill:none;stroke:#800;stroke-width:2"  />
  <line x1="-600" y1="300" x2="-300" y2="300" style="stroke:#800;stroke-width:10;stroke-opacity:1.000000;stroke-linecap:round"/>
  <g transform="translate(-478,294) rotate(0)" > <text font-size="66.6666666667" fill="#800" font-family="monospace"  >
   3
  </text> </g> 
  <g transform="translate(-282,335) rotate(0)" > <text font-size="83.3333333333" fill="#088" font-family="monospace"  >
   P0
  </text> </g> 
  <circle cx="-600" cy="300" r="10"
    style="fill:none;stroke:#800;stroke-width:2"  />
  <line x1="-260" y1="100" x2="-300" y2="140" style="stroke:#800;stroke-width:10;stroke-opacity:1.000000;stroke-linecap:round"/>
  <line x1="-300" y1="140" x2="-300" y2="60" style="stroke:#800;stroke-width:10;stroke-opacity:1.000000;stroke-linecap:round"/>
  <line x1="-300" y1="60" x2="-260" y2="100" style="stroke:#800;stroke-width:10;stroke-opacity:1.000000;stroke-linecap:round"/>
  <line x1="-600" y1="100" x2="-300" y2="100" style="stroke:#800;stroke-width:10;stroke-opacity:1.000000;stroke-linecap:round"/>
  <g transform="translate(-478,94) rotate(0)" > <text font-size="66.6666666667" fill="#800" font-family="monospace"  >
   2
  </text> </g> 
  <g transform="translate(-282,135) rotate(0)" > <text font-size="83.3333333333" fill="#088" font-family="monospace"  >
   CP
  </text> </g> 
  <circle cx="-600" cy="100" r="10"
    style="fill:none;stroke:#800;stroke-width:2"  />
  <line x1="-600" y1="0" x2="-300" y2="0" style="stroke:#800;stroke-width:10;stroke-opacity:1.000000;stroke-linecap:round"/>
  <g transform="translate(-478,-6) rotate(0)" > <text font-size="66.6666666667" fill="#800" font-family="monospace"  >
   7
  </text> </g> 
  <g transform="translate(-282,35) rotate(0)" > <text font-size="83.3333333333" fill="#088" font-family="monospace"  >
   CEP
  </text> </g> 
  <circle cx="-600" cy="0" r="10"
    style="fill:none;stroke:#800;stroke-width:2"  />
  <line x1="-600" y1="-100" x2="-300" y2="-100" style="stroke:#800;stroke-width:10;stroke-opacity:1.000000;stroke-linecap:round"/>
  <g transform="translate(-506,-106) rotate(0)" > <text font-size="66.6666666667" fill="#800" font-family="monospace"  >
   10
  </text> </g> 
  <g transform="translate(-282,-65) rotate(0)" > <text font-size="83.3333333333" fill="#088" font-family="monospace"  >
   CET
  </text> </g> 
  <circle cx="-600" cy="-100" r="10"
    style="fill:none;stroke:#800;stroke-width:2"  />
  <line x1="-380" y1="-200" x2="-380" y2="-240" style="stroke:#800;stroke-width:10;stroke-opacity:1.000000;stroke-linecap:round"/>
  <line x1="-380" y1="-240" x2="-300" y2="-200" style="stroke:#800;stroke-width:10;stroke-opacity:1.000000;stroke-linecap:round"/>
  <line x1="-600" y1="-200" x2="-300" y2="-200" style="stroke:#800;stroke-width:10;stroke-opacity:1.000000;stroke-linecap:round"/>
  <g transform="translate(-478,-206) rotate(0)" > <text font-size="66.6666666667" fill="#800" font-family="monospace"  >
   9
  </text> </g> 
  <g transform="translate(-282,-165) rotate(0)" > <text font-size="83.3333333333" fill="#088" font-family="monospace"  >
   PE
  </text> </g> 
  <circle cx="-600" cy="-200" r="10"
    style="fill:none;stroke:#800;stroke-width:2"  />
  <line x1="-380" y1="-300" x2="-380" y2="-340" style="stroke:#800;stroke-width:10;stroke-opacity:1.000000;stroke-linecap:round"/>
  <line x1="-380" y1="-340" x2="-300" y2="-300" style="stroke:#800;stroke-width:10;stroke-opacity:1.000000;stroke-linecap:round"/>
  <line x1="-600" y1="-300" x2="-300" y2="-300" style="stroke:#800;stroke-width:10;stroke-opacity:1.000000;stroke-linecap:round"/>
  <g transform="translate(-485,-306) rotate(0)" > <text font-size="83.3333333333" fill="#800" font-family="monospace"  >
   1
  </text> </g> 
  <g transform="translate(-282,-265) rotate(0)" > <text font-size="83.3333333333" fill="#088" font-family="monospace"  >
   MR
  </text> </g> 
  <circle cx="-600" cy="-300" r="10"
    style="fill:none;stroke:#800;stroke-width:2"  />
 </g>
</svg>
