<?xml version="1.0"?>
<svg height="272" width="247"  >
 <g style="fill-opacity:1.0; stroke:black;
  stroke-width:1;" transform=" translate( 123.75,136.0 ) scale( 0.15,0.15 )">
  <g transform="translate(270,-320) rotate(0)" > <text font-size="100.0" fill="#088" font-family="monospace"  >
   U
  </text> </g> 
  <g transform="translate(130,480) rotate(0)" > <text font-size="100.0" fill="#088" font-family="monospace"  >
   4508
  </text> </g> 
  <rect x="-250" y="200" height="100"
    width="500" style="fill:none;stroke:#800;stroke-width:10" />
  <rect x="-250" y="0" height="100"
    width="500" style="fill:none;stroke:#800;stroke-width:10" />
  <rect x="-250" y="100" height="100"
    width="500" style="fill:none;stroke:#800;stroke-width:10" />
  <line x1="-200" y1="0" x2="-200" y2="-50" style="stroke:#800;stroke-width:10;stroke-opacity:1.000000;stroke-linecap:round"/>
  <line x1="-200" y1="-50" x2="-250" y2="-50" style="stroke:#800;stroke-width:10;stroke-opacity:1.000000;stroke-linecap:round"/>
  <line x1="-250" y1="-50" x2="-250" y2="-400" style="stroke:#800;stroke-width:10;stroke-opacity:1.000000;stroke-linecap:round"/>
  <line x1="-250" y1="-400" x2="250" y2="-400" style="stroke:#800;stroke-width:10;stroke-opacity:1.000000;stroke-linecap:round"/>
  <line x1="250" y1="-400" x2="250" y2="-50" style="stroke:#800;stroke-width:10;stroke-opacity:1.000000;stroke-linecap:round"/>
  <line x1="250" y1="-50" x2="200" y2="-50" style="stroke:#800;stroke-width:10;stroke-opacity:1.000000;stroke-linecap:round"/>
  <line x1="200" y1="-50" x2="200" y2="0" style="stroke:#800;stroke-width:10;stroke-opacity:1.000000;stroke-linecap:round"/>
  <line x1="200" y1="0" x2="200" y2="0" style="stroke:#800;stroke-width:10;stroke-opacity:1.000000;stroke-linecap:round"/>
  <line x1="40" y1="20" x2="80" y2="80" style="stroke:#800;stroke-width:10;stroke-opacity:1.000000;stroke-linecap:round"/>
  <line x1="80" y1="80" x2="120" y2="20" style="stroke:#800;stroke-width:10;stroke-opacity:1.000000;stroke-linecap:round"/>
  <line x1="120" y1="20" x2="40" y2="20" style="stroke:#800;stroke-width:10;stroke-opacity:1.000000;stroke-linecap:round"/>
  <line x1="40" y1="20" x2="40" y2="20" style="stroke:#800;stroke-width:10;stroke-opacity:1.000000;stroke-linecap:round"/>
  <rect x="-250" y="300" height="100"
    width="500" style="fill:none;stroke:#800;stroke-width:10" />
  <g transform="translate(37,-375) rotate(-90)" > <text font-size="83.3333333333" fill="#888" font-family="monospace"  >
   12
  </text> </g> 
  <g transform="translate(56,-208) rotate(-90)" > <text font-size="83.3333333333" fill="#888" font-family="monospace"  >
   Vss
  </text> </g> 
  <circle cx="50" cy="-400" r="10"
    style="fill:none;stroke:#888;stroke-width:2"  />
  <g transform="translate(187,-375) rotate(-90)" > <text font-size="83.3333333333" fill="#888" font-family="monospace"  >
   24
  </text> </g> 
  <g transform="translate(206,-208) rotate(-90)" > <text font-size="83.3333333333" fill="#888" font-family="monospace"  >
   Vdd
  </text> </g> 
  <circle cx="200" cy="-400" r="10"
    style="fill:none;stroke:#888;stroke-width:2"  />
  <line x1="550" y1="350" x2="250" y2="350" style="stroke:#800;stroke-width:10;stroke-opacity:1.000000;stroke-linecap:round"/>
  <g transform="translate(329,344) rotate(0)" > <text font-size="83.3333333333" fill="#800" font-family="monospace"  >
   11
  </text> </g> 
  <g transform="translate(110,385) rotate(0)" > <text font-size="83.3333333333" fill="#088" font-family="monospace"  >
   Q3
  </text> </g> 
  <circle cx="550" cy="350" r="10"
    style="fill:none;stroke:#800;stroke-width:2"  />
  <line x1="550" y1="250" x2="250" y2="250" style="stroke:#800;stroke-width:10;stroke-opacity:1.000000;stroke-linecap:round"/>
  <g transform="translate(364,244) rotate(0)" > <text font-size="83.3333333333" fill="#800" font-family="monospace"  >
   9
  </text> </g> 
  <g transform="translate(110,285) rotate(0)" > <text font-size="83.3333333333" fill="#088" font-family="monospace"  >
   Q2
  </text> </g> 
  <circle cx="550" cy="250" r="10"
    style="fill:none;stroke:#800;stroke-width:2"  />
  <line x1="550" y1="150" x2="250" y2="150" style="stroke:#800;stroke-width:10;stroke-opacity:1.000000;stroke-linecap:round"/>
  <g transform="translate(364,144) rotate(0)" > <text font-size="83.3333333333" fill="#800" font-family="monospace"  >
   7
  </text> </g> 
  <g transform="translate(110,185) rotate(0)" > <text font-size="83.3333333333" fill="#088" font-family="monospace"  >
   Q1
  </text> </g> 
  <circle cx="550" cy="150" r="10"
    style="fill:none;stroke:#800;stroke-width:2"  />
  <line x1="550" y1="50" x2="250" y2="50" style="stroke:#800;stroke-width:10;stroke-opacity:1.000000;stroke-linecap:round"/>
  <g transform="translate(364,44) rotate(0)" > <text font-size="83.3333333333" fill="#800" font-family="monospace"  >
   5
  </text> </g> 
  <g transform="translate(110,85) rotate(0)" > <text font-size="83.3333333333" fill="#088" font-family="monospace"  >
   Q0
  </text> </g> 
  <circle cx="550" cy="50" r="10"
    style="fill:none;stroke:#800;stroke-width:2"  />
  <line x1="-550" y1="350" x2="-250" y2="350" style="stroke:#800;stroke-width:10;stroke-opacity:1.000000;stroke-linecap:round"/>
  <g transform="translate(-470,344) rotate(0)" > <text font-size="83.3333333333" fill="#800" font-family="monospace"  >
   10
  </text> </g> 
  <g transform="translate(-232,385) rotate(0)" > <text font-size="83.3333333333" fill="#088" font-family="monospace"  >
   D3
  </text> </g> 
  <circle cx="-550" cy="350" r="10"
    style="fill:none;stroke:#800;stroke-width:2"  />
  <line x1="-550" y1="250" x2="-250" y2="250" style="stroke:#800;stroke-width:10;stroke-opacity:1.000000;stroke-linecap:round"/>
  <g transform="translate(-435,244) rotate(0)" > <text font-size="83.3333333333" fill="#800" font-family="monospace"  >
   8
  </text> </g> 
  <g transform="translate(-232,285) rotate(0)" > <text font-size="83.3333333333" fill="#088" font-family="monospace"  >
   D2
  </text> </g> 
  <circle cx="-550" cy="250" r="10"
    style="fill:none;stroke:#800;stroke-width:2"  />
  <line x1="-550" y1="150" x2="-250" y2="150" style="stroke:#800;stroke-width:10;stroke-opacity:1.000000;stroke-linecap:round"/>
  <g transform="translate(-435,144) rotate(0)" > <text font-size="83.3333333333" fill="#800" font-family="monospace"  >
   6
  </text> </g> 
  <g transform="translate(-232,185) rotate(0)" > <text font-size="83.3333333333" fill="#088" font-family="monospace"  >
   D1
  </text> </g> 
  <circle cx="-550" cy="150" r="10"
    style="fill:none;stroke:#800;stroke-width:2"  />
  <line x1="-550" y1="50" x2="-250" y2="50" style="stroke:#800;stroke-width:10;stroke-opacity:1.000000;stroke-linecap:round"/>
  <g transform="translate(-435,44) rotate(0)" > <text font-size="83.3333333333" fill="#800" font-family="monospace"  >
   4
  </text> </g> 
  <g transform="translate(-232,85) rotate(0)" > <text font-size="83.3333333333" fill="#088" font-family="monospace"  >
   D0
  </text> </g> 
  <circle cx="-550" cy="50" r="10"
    style="fill:none;stroke:#800;stroke-width:2"  />
  <line x1="-550" y1="-100" x2="-250" y2="-100" style="stroke:#800;stroke-width:10;stroke-opacity:1.000000;stroke-linecap:round"/>
  <g transform="translate(-435,-106) rotate(0)" > <text font-size="83.3333333333" fill="#800" font-family="monospace"  >
   2
  </text> </g> 
  <g transform="translate(-232,-65) rotate(0)" > <text font-size="83.3333333333" fill="#088" font-family="monospace"  >
   ST
  </text> </g> 
  <circle cx="-550" cy="-100" r="10"
    style="fill:none;stroke:#800;stroke-width:2"  />
  <line x1="-550" y1="-200" x2="-250" y2="-200" style="stroke:#800;stroke-width:10;stroke-opacity:1.000000;stroke-linecap:round"/>
  <g transform="translate(-435,-206) rotate(0)" > <text font-size="83.3333333333" fill="#800" font-family="monospace"  >
   1
  </text> </g> 
  <g transform="translate(-232,-165) rotate(0)" > <text font-size="83.3333333333" fill="#088" font-family="monospace"  >
   MR
  </text> </g> 
  <circle cx="-550" cy="-200" r="10"
    style="fill:none;stroke:#800;stroke-width:2"  />
  <line x1="-550" y1="-300" x2="-320" y2="-300" style="stroke:#800;stroke-width:10;stroke-opacity:1.000000;stroke-linecap:round"/>
  <circle cx="-285" cy="-300" r="35"
    style="fill:none;stroke:#800;stroke-width:10"  />
  <g transform="translate(-435,-306) rotate(0)" > <text font-size="83.3333333333" fill="#800" font-family="monospace"  >
   6
  </text> </g> 
  <g transform="translate(-232,-265) rotate(0)" > <text font-size="83.3333333333" fill="#088" font-family="monospace"  >
   ~EN
  </text> </g> 
  <circle cx="-550" cy="-300" r="10"
    style="fill:none;stroke:#800;stroke-width:2"  />
 </g>
</svg>
