<?xml version="1.0"?>
<svg height="272" width="247"  >
 <g style="fill-opacity:1.0; stroke:black;
  stroke-width:1;" transform=" translate( 123.75,136.0 ) scale( 0.15,0.15 )">
  <g transform="translate(320,-420) rotate(0)" > <text font-size="100.0" fill="#088" font-family="monospace"  >
   U
  </text> </g> 
  <g transform="translate(230,480) rotate(0)" > <text font-size="100.0" fill="#088" font-family="monospace"  >
   4511
  </text> </g> 
  <rect x="-250" y="-350" height="700"
    width="500" style="fill:none;stroke:#800;stroke-width:10" />
  <g transform="translate(-12,-325) rotate(-90)" > <text font-size="83.3333333333" fill="#888" font-family="monospace"  >
   16
  </text> </g> 
  <g transform="translate(6,-158) rotate(-90)" > <text font-size="83.3333333333" fill="#888" font-family="monospace"  >
   Vdd
  </text> </g> 
  <circle cx="0" cy="-350" r="10"
    style="fill:none;stroke:#888;stroke-width:2"  />
  <line x1="550" y1="300" x2="250" y2="300" style="stroke:#800;stroke-width:10;stroke-opacity:1.000000;stroke-linecap:round"/>
  <g transform="translate(329,294) rotate(0)" > <text font-size="83.3333333333" fill="#800" font-family="monospace"  >
   14
  </text> </g> 
  <g transform="translate(110,335) rotate(0)" > <text font-size="83.3333333333" fill="#088" font-family="monospace"  >
   Qg
  </text> </g> 
  <circle cx="550" cy="300" r="10"
    style="fill:none;stroke:#800;stroke-width:2"  />
  <line x1="550" y1="200" x2="250" y2="200" style="stroke:#800;stroke-width:10;stroke-opacity:1.000000;stroke-linecap:round"/>
  <g transform="translate(329,194) rotate(0)" > <text font-size="83.3333333333" fill="#800" font-family="monospace"  >
   15
  </text> </g> 
  <g transform="translate(110,235) rotate(0)" > <text font-size="83.3333333333" fill="#088" font-family="monospace"  >
   Qf
  </text> </g> 
  <circle cx="550" cy="200" r="10"
    style="fill:none;stroke:#800;stroke-width:2"  />
  <line x1="550" y1="100" x2="250" y2="100" style="stroke:#800;stroke-width:10;stroke-opacity:1.000000;stroke-linecap:round"/>
  <g transform="translate(364,94) rotate(0)" > <text font-size="83.3333333333" fill="#800" font-family="monospace"  >
   9
  </text> </g> 
  <g transform="translate(110,135) rotate(0)" > <text font-size="83.3333333333" fill="#088" font-family="monospace"  >
   Qe
  </text> </g> 
  <circle cx="550" cy="100" r="10"
    style="fill:none;stroke:#800;stroke-width:2"  />
  <line x1="550" y1="0" x2="250" y2="0" style="stroke:#800;stroke-width:10;stroke-opacity:1.000000;stroke-linecap:round"/>
  <g transform="translate(329,-6) rotate(0)" > <text font-size="83.3333333333" fill="#800" font-family="monospace"  >
   10
  </text> </g> 
  <g transform="translate(110,35) rotate(0)" > <text font-size="83.3333333333" fill="#088" font-family="monospace"  >
   Qd
  </text> </g> 
  <circle cx="550" cy="0" r="10"
    style="fill:none;stroke:#800;stroke-width:2"  />
  <line x1="550" y1="-100" x2="250" y2="-100" style="stroke:#800;stroke-width:10;stroke-opacity:1.000000;stroke-linecap:round"/>
  <g transform="translate(329,-106) rotate(0)" > <text font-size="83.3333333333" fill="#800" font-family="monospace"  >
   11
  </text> </g> 
  <g transform="translate(110,-65) rotate(0)" > <text font-size="83.3333333333" fill="#088" font-family="monospace"  >
   Qc
  </text> </g> 
  <circle cx="550" cy="-100" r="10"
    style="fill:none;stroke:#800;stroke-width:2"  />
  <line x1="550" y1="-200" x2="250" y2="-200" style="stroke:#800;stroke-width:10;stroke-opacity:1.000000;stroke-linecap:round"/>
  <g transform="translate(329,-206) rotate(0)" > <text font-size="83.3333333333" fill="#800" font-family="monospace"  >
   12
  </text> </g> 
  <g transform="translate(110,-165) rotate(0)" > <text font-size="83.3333333333" fill="#088" font-family="monospace"  >
   Qb
  </text> </g> 
  <circle cx="550" cy="-200" r="10"
    style="fill:none;stroke:#800;stroke-width:2"  />
  <line x1="550" y1="-300" x2="250" y2="-300" style="stroke:#800;stroke-width:10;stroke-opacity:1.000000;stroke-linecap:round"/>
  <g transform="translate(329,-306) rotate(0)" > <text font-size="83.3333333333" fill="#800" font-family="monospace"  >
   13
  </text> </g> 
  <g transform="translate(110,-265) rotate(0)" > <text font-size="83.3333333333" fill="#088" font-family="monospace"  >
   Qa
  </text> </g> 
  <circle cx="550" cy="-300" r="10"
    style="fill:none;stroke:#800;stroke-width:2"  />
  <line x1="-550" y1="300" x2="-320" y2="300" style="stroke:#800;stroke-width:10;stroke-opacity:1.000000;stroke-linecap:round"/>
  <circle cx="-285" cy="300" r="35"
    style="fill:none;stroke:#800;stroke-width:10"  />
  <g transform="translate(-435,294) rotate(0)" > <text font-size="83.3333333333" fill="#800" font-family="monospace"  >
   4
  </text> </g> 
  <g transform="translate(-232,335) rotate(0)" > <text font-size="83.3333333333" fill="#088" font-family="monospace"  >
   ~BI
  </text> </g> 
  <circle cx="-550" cy="300" r="10"
    style="fill:none;stroke:#800;stroke-width:2"  />
  <line x1="-550" y1="200" x2="-320" y2="200" style="stroke:#800;stroke-width:10;stroke-opacity:1.000000;stroke-linecap:round"/>
  <circle cx="-285" cy="200" r="35"
    style="fill:none;stroke:#800;stroke-width:10"  />
  <g transform="translate(-435,194) rotate(0)" > <text font-size="83.3333333333" fill="#800" font-family="monospace"  >
   3
  </text> </g> 
  <g transform="translate(-232,235) rotate(0)" > <text font-size="83.3333333333" fill="#088" font-family="monospace"  >
   ~LT
  </text> </g> 
  <circle cx="-550" cy="200" r="10"
    style="fill:none;stroke:#800;stroke-width:2"  />
  <line x1="-550" y1="100" x2="-250" y2="100" style="stroke:#800;stroke-width:10;stroke-opacity:1.000000;stroke-linecap:round"/>
  <g transform="translate(-435,94) rotate(0)" > <text font-size="83.3333333333" fill="#800" font-family="monospace"  >
   6
  </text> </g> 
  <g transform="translate(-232,135) rotate(0)" > <text font-size="83.3333333333" fill="#088" font-family="monospace"  >
   DD
  </text> </g> 
  <circle cx="-550" cy="100" r="10"
    style="fill:none;stroke:#800;stroke-width:2"  />
  <line x1="-550" y1="0" x2="-250" y2="0" style="stroke:#800;stroke-width:10;stroke-opacity:1.000000;stroke-linecap:round"/>
  <g transform="translate(-435,-6) rotate(0)" > <text font-size="83.3333333333" fill="#800" font-family="monospace"  >
   2
  </text> </g> 
  <g transform="translate(-232,35) rotate(0)" > <text font-size="83.3333333333" fill="#088" font-family="monospace"  >
   DC
  </text> </g> 
  <circle cx="-550" cy="0" r="10"
    style="fill:none;stroke:#800;stroke-width:2"  />
  <line x1="-550" y1="-100" x2="-250" y2="-100" style="stroke:#800;stroke-width:10;stroke-opacity:1.000000;stroke-linecap:round"/>
  <g transform="translate(-435,-106) rotate(0)" > <text font-size="83.3333333333" fill="#800" font-family="monospace"  >
   1
  </text> </g> 
  <g transform="translate(-232,-65) rotate(0)" > <text font-size="83.3333333333" fill="#088" font-family="monospace"  >
   DB
  </text> </g> 
  <circle cx="-550" cy="-100" r="10"
    style="fill:none;stroke:#800;stroke-width:2"  />
  <line x1="-550" y1="-200" x2="-250" y2="-200" style="stroke:#800;stroke-width:10;stroke-opacity:1.000000;stroke-linecap:round"/>
  <g transform="translate(-435,-206) rotate(0)" > <text font-size="83.3333333333" fill="#800" font-family="monospace"  >
   7
  </text> </g> 
  <g transform="translate(-232,-165) rotate(0)" > <text font-size="83.3333333333" fill="#088" font-family="monospace"  >
   DA
  </text> </g> 
  <circle cx="-550" cy="-200" r="10"
    style="fill:none;stroke:#800;stroke-width:2"  />
  <line x1="-550" y1="-300" x2="-320" y2="-300" style="stroke:#800;stroke-width:10;stroke-opacity:1.000000;stroke-linecap:round"/>
  <circle cx="-285" cy="-300" r="35"
    style="fill:none;stroke:#800;stroke-width:10"  />
  <g transform="translate(-435,-306) rotate(0)" > <text font-size="83.3333333333" fill="#800" font-family="monospace"  >
   5
  </text> </g> 
  <g transform="translate(-232,-265) rotate(0)" > <text font-size="83.3333333333" fill="#088" font-family="monospace"  >
   ~EL
  </text> </g> 
  <circle cx="-550" cy="-300" r="10"
    style="fill:none;stroke:#800;stroke-width:2"  />
  <g transform="translate(-12,362) rotate(-90)" > <text font-size="83.3333333333" fill="#888" font-family="monospace"  >
   8
  </text> </g> 
  <g transform="translate(6,308) rotate(-90)" > <text font-size="83.3333333333" fill="#888" font-family="monospace"  >
   Vss
  </text> </g> 
  <circle cx="0" cy="350" r="10"
    style="fill:none;stroke:#888;stroke-width:2"  />
 </g>
</svg>
