<?xml version="1.0"?>
<svg height="259" width="257"  >
 <g style="fill-opacity:1.0; stroke:black;
  stroke-width:1;" transform=" translate( 128.75,129.75 ) scale( 0.15,0.15 )">
  <g transform="translate(20,-370) rotate(0)" > <text font-size="100.0" fill="#088" font-family="monospace"  >
   U
  </text> </g> 
  <g transform="translate(80,430) rotate(0)" > <text font-size="100.0" fill="#088" font-family="monospace"  >
   4538
  </text> </g> 
  <rect x="-300" y="-350" height="700"
    width="600" style="fill:none;stroke:#800;stroke-width:10" />
  <line x1="-200" y1="210" x2="-150" y2="160" style="stroke:#800;stroke-width:10;stroke-opacity:1.000000;stroke-linecap:round"/>
  <line x1="-150" y1="160" x2="-150" y2="160" style="stroke:#800;stroke-width:10;stroke-opacity:1.000000;stroke-linecap:round"/>
  <line x1="-200" y1="100" x2="-150" y2="150" style="stroke:#800;stroke-width:10;stroke-opacity:1.000000;stroke-linecap:round"/>
  <line x1="-150" y1="150" x2="-200" y2="200" style="stroke:#800;stroke-width:10;stroke-opacity:1.000000;stroke-linecap:round"/>
  <line x1="-200" y1="200" x2="-200" y2="200" style="stroke:#800;stroke-width:10;stroke-opacity:1.000000;stroke-linecap:round"/>
  <line x1="0" y1="100" x2="50" y2="150" style="stroke:#800;stroke-width:10;stroke-opacity:1.000000;stroke-linecap:round"/>
  <line x1="50" y1="150" x2="0" y2="200" style="stroke:#800;stroke-width:10;stroke-opacity:1.000000;stroke-linecap:round"/>
  <line x1="0" y1="200" x2="0" y2="200" style="stroke:#800;stroke-width:10;stroke-opacity:1.000000;stroke-linecap:round"/>
  <line x1="-300" y1="50" x2="0" y2="50" style="stroke:#800;stroke-width:10;stroke-opacity:1.000000;stroke-linecap:round"/>
  <line x1="0" y1="50" x2="0" y2="250" style="stroke:#800;stroke-width:10;stroke-opacity:1.000000;stroke-linecap:round"/>
  <line x1="0" y1="250" x2="-300" y2="250" style="stroke:#800;stroke-width:10;stroke-opacity:1.000000;stroke-linecap:round"/>
  <line x1="-300" y1="250" x2="-300" y2="250" style="stroke:#800;stroke-width:10;stroke-opacity:1.000000;stroke-linecap:round"/>
  <g transform="translate(-130,180) rotate(0)" > <text font-size="100.0" fill="#800" font-family="monospace"  >
   1
  </text> </g> 
  <g transform="translate(-12,-325) rotate(-90)" > <text font-size="83.3333333333" fill="#888" font-family="monospace"  >
   16
  </text> </g> 
  <g transform="translate(6,-158) rotate(-90)" > <text font-size="83.3333333333" fill="#888" font-family="monospace"  >
   VDD
  </text> </g> 
  <circle cx="0" cy="-350" r="10"
    style="fill:none;stroke:#888;stroke-width:2"  />
  <line x1="600" y1="150" x2="370" y2="150" style="stroke:#800;stroke-width:10;stroke-opacity:1.000000;stroke-linecap:round"/>
  <circle cx="335" cy="150" r="35"
    style="fill:none;stroke:#800;stroke-width:10"  />
  <g transform="translate(414,144) rotate(0)" > <text font-size="83.3333333333" fill="#800" font-family="monospace"  >
   7
  </text> </g> 
  <g transform="translate(160,185) rotate(0)" > <text font-size="83.3333333333" fill="#088" font-family="monospace"  >
   ~Q
  </text> </g> 
  <circle cx="600" cy="150" r="10"
    style="fill:none;stroke:#800;stroke-width:2"  />
  <line x1="600" y1="-150" x2="300" y2="-150" style="stroke:#800;stroke-width:10;stroke-opacity:1.000000;stroke-linecap:round"/>
  <g transform="translate(414,-156) rotate(0)" > <text font-size="83.3333333333" fill="#800" font-family="monospace"  >
   6
  </text> </g> 
  <g transform="translate(210,-115) rotate(0)" > <text font-size="83.3333333333" fill="#088" font-family="monospace"  >
   Q
  </text> </g> 
  <circle cx="600" cy="-150" r="10"
    style="fill:none;stroke:#800;stroke-width:2"  />
  <line x1="-600" y1="200" x2="-370" y2="200" style="stroke:#800;stroke-width:10;stroke-opacity:1.000000;stroke-linecap:round"/>
  <circle cx="-335" cy="200" r="35"
    style="fill:none;stroke:#800;stroke-width:10"  />
  <g transform="translate(-485,194) rotate(0)" > <text font-size="83.3333333333" fill="#800" font-family="monospace"  >
   5
  </text> </g> 
  <g transform="translate(-282,235) rotate(0)" > <text font-size="83.3333333333" fill="#088" font-family="monospace"  >
   ~A
  </text> </g> 
  <circle cx="-600" cy="200" r="10"
    style="fill:none;stroke:#800;stroke-width:2"  />
  <line x1="-600" y1="100" x2="-300" y2="100" style="stroke:#800;stroke-width:10;stroke-opacity:1.000000;stroke-linecap:round"/>
  <g transform="translate(-485,94) rotate(0)" > <text font-size="83.3333333333" fill="#800" font-family="monospace"  >
   4
  </text> </g> 
  <g transform="translate(-282,135) rotate(0)" > <text font-size="83.3333333333" fill="#088" font-family="monospace"  >
   B
  </text> </g> 
  <circle cx="-600" cy="100" r="10"
    style="fill:none;stroke:#800;stroke-width:2"  />
  <line x1="-600" y1="-100" x2="-300" y2="-100" style="stroke:#800;stroke-width:10;stroke-opacity:1.000000;stroke-linecap:round"/>
  <g transform="translate(-485,-106) rotate(0)" > <text font-size="83.3333333333" fill="#800" font-family="monospace"  >
   1
  </text> </g> 
  <g transform="translate(-282,-65) rotate(0)" > <text font-size="83.3333333333" fill="#088" font-family="monospace"  >
   CX
  </text> </g> 
  <circle cx="-600" cy="-100" r="10"
    style="fill:none;stroke:#800;stroke-width:2"  />
  <line x1="-600" y1="-300" x2="-300" y2="-300" style="stroke:#800;stroke-width:10;stroke-opacity:1.000000;stroke-linecap:round"/>
  <g transform="translate(-485,-306) rotate(0)" > <text font-size="83.3333333333" fill="#800" font-family="monospace"  >
   2
  </text> </g> 
  <g transform="translate(-282,-265) rotate(0)" > <text font-size="83.3333333333" fill="#088" font-family="monospace"  >
   Rx
  </text> </g> 
  <circle cx="-600" cy="-300" r="10"
    style="fill:none;stroke:#800;stroke-width:2"  />
  <line x1="-150" y1="650" x2="-150" y2="420" style="stroke:#800;stroke-width:10;stroke-opacity:1.000000;stroke-linecap:round"/>
  <circle cx="-150" cy="385" r="35"
    style="fill:none;stroke:#800;stroke-width:10"  />
  <g transform="translate(-162,512) rotate(-90)" > <text font-size="83.3333333333" fill="#800" font-family="monospace"  >
   3
  </text> </g> 
  <g transform="translate(-143,308) rotate(-90)" > <text font-size="83.3333333333" fill="#088" font-family="monospace"  >
   ~R
  </text> </g> 
  <circle cx="-150" cy="650" r="10"
    style="fill:none;stroke:#800;stroke-width:2"  />
  <g transform="translate(-12,362) rotate(-90)" > <text font-size="83.3333333333" fill="#888" font-family="monospace"  >
   8
  </text> </g> 
  <g transform="translate(6,308) rotate(-90)" > <text font-size="83.3333333333" fill="#888" font-family="monospace"  >
   VSS
  </text> </g> 
  <circle cx="0" cy="350" r="10"
    style="fill:none;stroke:#888;stroke-width:2"  />
 </g>
</svg>
