<?xml version="1.0"?>
<svg height="265" width="273"  >
 <g style="fill-opacity:1.0; stroke:black;
  stroke-width:1;" transform=" translate( 136.875,132.5 ) scale( 0.15,0.15 )">
  <g transform="translate(215,-215) rotate(0)" > <text font-size="116.666666667" fill="#088" font-family="monospace"  >
   U
  </text> </g> 
  <g transform="translate(75,-115) rotate(0)" > <text font-size="116.666666667" fill="#088" font-family="monospace"  >
   LF398
  </text> </g> 
  <line x1="0" y1="100" x2="100" y2="200" style="stroke:#800;stroke-width:10;stroke-opacity:1.000000;stroke-linecap:round"/>
  <line x1="-200" y1="-200" x2="200" y2="0" style="stroke:#800;stroke-width:10;stroke-opacity:1.000000;stroke-linecap:round"/>
  <line x1="200" y1="0" x2="-200" y2="200" style="stroke:#800;stroke-width:10;stroke-opacity:1.000000;stroke-linecap:round"/>
  <line x1="-200" y1="200" x2="-200" y2="-200" style="stroke:#800;stroke-width:10;stroke-opacity:1.000000;stroke-linecap:round"/>
  <line x1="-100" y1="-400" x2="-100" y2="-150" style="stroke:#800;stroke-width:10;stroke-opacity:1.000000;stroke-linecap:round"/>
  <g transform="translate(-110,-265) rotate(-90)" > <text font-size="66.6666666667" fill="#800" font-family="monospace"  >
   1
  </text> </g> 
  <g transform="translate(-95,-36) rotate(-90)" > <text font-size="66.6666666667" fill="#088" font-family="monospace"  >
   V+
  </text> </g> 
  <circle cx="-100" cy="-400" r="10"
    style="fill:none;stroke:#800;stroke-width:2"  />
  <line x1="-500" y1="-100" x2="-200" y2="-100" style="stroke:#800;stroke-width:10;stroke-opacity:1.000000;stroke-linecap:round"/>
  <g transform="translate(-378,-106) rotate(0)" > <text font-size="66.6666666667" fill="#800" font-family="monospace"  >
   3
  </text> </g> 
  <g transform="translate(-182,-70) rotate(0)" > <text font-size="66.6666666667" fill="#088" font-family="monospace"  >
   I
  </text> </g> 
  <circle cx="-500" cy="-100" r="10"
    style="fill:none;stroke:#800;stroke-width:2"  />
  <line x1="-100" y1="400" x2="-100" y2="150" style="stroke:#800;stroke-width:10;stroke-opacity:1.000000;stroke-linecap:round"/>
  <g transform="translate(-110,285) rotate(-90)" > <text font-size="66.6666666667" fill="#800" font-family="monospace"  >
   4
  </text> </g> 
  <g transform="translate(-95,116) rotate(-90)" > <text font-size="66.6666666667" fill="#088" font-family="monospace"  >
   V-
  </text> </g> 
  <circle cx="-100" cy="400" r="10"
    style="fill:none;stroke:#800;stroke-width:2"  />
  <line x1="500" y1="0" x2="200" y2="0" style="stroke:#800;stroke-width:10;stroke-opacity:1.000000;stroke-linecap:round"/>
  <g transform="translate(321,-6) rotate(0)" > <text font-size="66.6666666667" fill="#800" font-family="monospace"  >
   5
  </text> </g> 
  <circle cx="500" cy="0" r="10"
    style="fill:none;stroke:#800;stroke-width:2"  />
  <line x1="100" y1="400" x2="100" y2="200" style="stroke:#800;stroke-width:10;stroke-opacity:1.000000;stroke-linecap:round"/>
  <g transform="translate(90,310) rotate(-90)" > <text font-size="66.6666666667" fill="#800" font-family="monospace"  >
   6
  </text> </g> 
  <g transform="translate(103,175) rotate(-90)" > <text font-size="50.0" fill="#088" font-family="monospace"  >
   Cap
  </text> </g> 
  <circle cx="100" cy="400" r="10"
    style="fill:none;stroke:#800;stroke-width:2"  />
  <line x1="-500" y1="100" x2="-200" y2="100" style="stroke:#800;stroke-width:10;stroke-opacity:1.000000;stroke-linecap:round"/>
  <g transform="translate(-378,94) rotate(0)" > <text font-size="66.6666666667" fill="#800" font-family="monospace"  >
   7
  </text> </g> 
  <g transform="translate(-182,125) rotate(0)" > <text font-size="50.0" fill="#088" font-family="monospace"  >
   T
  </text> </g> 
  <circle cx="-500" cy="100" r="10"
    style="fill:none;stroke:#800;stroke-width:2"  />
  <line x1="-500" y1="0" x2="-200" y2="0" style="stroke:#800;stroke-width:10;stroke-opacity:1.000000;stroke-linecap:round"/>
  <g transform="translate(-378,-6) rotate(0)" > <text font-size="66.6666666667" fill="#800" font-family="monospace"  >
   8
  </text> </g> 
  <g transform="translate(-182,25) rotate(0)" > <text font-size="50.0" fill="#088" font-family="monospace"  >
   Ech/Hold
  </text> </g> 
  <circle cx="-500" cy="0" r="10"
    style="fill:none;stroke:#800;stroke-width:2"  />
 </g>
</svg>
