<?xml version="1.0"?>
<svg height="279" width="232"  >
 <g style="fill-opacity:1.0; stroke:black;
  stroke-width:1;" transform=" translate( 116.25,139.75 ) scale( 0.15,0.15 )">
  <g transform="translate(320,-370) rotate(0)" > <text font-size="100.0" fill="#088" font-family="monospace"  >
   U
  </text> </g> 
  <g transform="translate(150,480) rotate(0)" > <text font-size="100.0" fill="#088" font-family="monospace"  >
   74278
  </text> </g> 
  <rect x="-200" y="0" height="100"
    width="400" style="fill:none;stroke:#800;stroke-width:10" />
  <rect x="-200" y="200" height="100"
    width="400" style="fill:none;stroke:#800;stroke-width:10" />
  <line x1="0" y1="-100" x2="0" y2="300" style="stroke:#800;stroke-width:10;stroke-opacity:1.000000;stroke-linecap:round"/>
  <line x1="0" y1="300" x2="0" y2="300" style="stroke:#800;stroke-width:10;stroke-opacity:1.000000;stroke-linecap:round"/>
  <rect x="-200" y="100" height="100"
    width="400" style="fill:none;stroke:#800;stroke-width:10" />
  <rect x="-200" y="300" height="100"
    width="400" style="fill:none;stroke:#800;stroke-width:10" />
  <rect x="-200" y="-100" height="100"
    width="400" style="fill:none;stroke:#800;stroke-width:10" />
  <line x1="-150" y1="-100" x2="-150" y2="-150" style="stroke:#800;stroke-width:10;stroke-opacity:1.000000;stroke-linecap:round"/>
  <line x1="-150" y1="-150" x2="-200" y2="-150" style="stroke:#800;stroke-width:10;stroke-opacity:1.000000;stroke-linecap:round"/>
  <line x1="-200" y1="-150" x2="-200" y2="-300" style="stroke:#800;stroke-width:10;stroke-opacity:1.000000;stroke-linecap:round"/>
  <line x1="-200" y1="-300" x2="200" y2="-300" style="stroke:#800;stroke-width:10;stroke-opacity:1.000000;stroke-linecap:round"/>
  <line x1="200" y1="-300" x2="200" y2="-150" style="stroke:#800;stroke-width:10;stroke-opacity:1.000000;stroke-linecap:round"/>
  <line x1="200" y1="-150" x2="150" y2="-150" style="stroke:#800;stroke-width:10;stroke-opacity:1.000000;stroke-linecap:round"/>
  <line x1="150" y1="-150" x2="150" y2="-100" style="stroke:#800;stroke-width:10;stroke-opacity:1.000000;stroke-linecap:round"/>
  <line x1="150" y1="-100" x2="150" y2="-100" style="stroke:#800;stroke-width:10;stroke-opacity:1.000000;stroke-linecap:round"/>
  <g transform="translate(-12,-287) rotate(-90)" > <text font-size="83.3333333333" fill="#888" font-family="monospace"  >
   7
  </text> </g> 
  <g transform="translate(6,-108) rotate(-90)" > <text font-size="83.3333333333" fill="#888" font-family="monospace"  >
   Gnd
  </text> </g> 
  <circle cx="0" cy="-300" r="10"
    style="fill:none;stroke:#888;stroke-width:2"  />
  <g transform="translate(137,-275) rotate(-90)" > <text font-size="83.3333333333" fill="#888" font-family="monospace"  >
   14
  </text> </g> 
  <g transform="translate(156,-108) rotate(-90)" > <text font-size="83.3333333333" fill="#888" font-family="monospace"  >
   VCC
  </text> </g> 
  <circle cx="150" cy="-300" r="10"
    style="fill:none;stroke:#888;stroke-width:2"  />
  <line x1="500" y1="350" x2="270" y2="350" style="stroke:#800;stroke-width:10;stroke-opacity:1.000000;stroke-linecap:round"/>
  <circle cx="235" cy="350" r="35"
    style="fill:none;stroke:#800;stroke-width:10"  />
  <g transform="translate(314,344) rotate(0)" > <text font-size="83.3333333333" fill="#800" font-family="monospace"  >
   6
  </text> </g> 
  <g transform="translate(60,385) rotate(0)" > <text font-size="83.3333333333" fill="#088" font-family="monospace"  >
   P1
  </text> </g> 
  <circle cx="500" cy="350" r="10"
    style="fill:none;stroke:#800;stroke-width:2"  />
  <line x1="500" y1="250" x2="200" y2="250" style="stroke:#800;stroke-width:10;stroke-opacity:1.000000;stroke-linecap:round"/>
  <g transform="translate(279,244) rotate(0)" > <text font-size="83.3333333333" fill="#800" font-family="monospace"  >
   10
  </text> </g> 
  <g transform="translate(60,285) rotate(0)" > <text font-size="83.3333333333" fill="#088" font-family="monospace"  >
   Y1
  </text> </g> 
  <circle cx="500" cy="250" r="10"
    style="fill:none;stroke:#800;stroke-width:2"  />
  <line x1="500" y1="150" x2="200" y2="150" style="stroke:#800;stroke-width:10;stroke-opacity:1.000000;stroke-linecap:round"/>
  <g transform="translate(314,144) rotate(0)" > <text font-size="83.3333333333" fill="#800" font-family="monospace"  >
   9
  </text> </g> 
  <g transform="translate(60,185) rotate(0)" > <text font-size="83.3333333333" fill="#088" font-family="monospace"  >
   Y2
  </text> </g> 
  <circle cx="500" cy="150" r="10"
    style="fill:none;stroke:#800;stroke-width:2"  />
  <line x1="500" y1="50" x2="200" y2="50" style="stroke:#800;stroke-width:10;stroke-opacity:1.000000;stroke-linecap:round"/>
  <g transform="translate(314,44) rotate(0)" > <text font-size="83.3333333333" fill="#800" font-family="monospace"  >
   8
  </text> </g> 
  <g transform="translate(60,85) rotate(0)" > <text font-size="83.3333333333" fill="#088" font-family="monospace"  >
   Y3
  </text> </g> 
  <circle cx="500" cy="50" r="10"
    style="fill:none;stroke:#800;stroke-width:2"  />
  <line x1="500" y1="-50" x2="200" y2="-50" style="stroke:#800;stroke-width:10;stroke-opacity:1.000000;stroke-linecap:round"/>
  <g transform="translate(314,-56) rotate(0)" > <text font-size="83.3333333333" fill="#800" font-family="monospace"  >
   6
  </text> </g> 
  <g transform="translate(60,-15) rotate(0)" > <text font-size="83.3333333333" fill="#088" font-family="monospace"  >
   Y4
  </text> </g> 
  <circle cx="500" cy="-50" r="10"
    style="fill:none;stroke:#800;stroke-width:2"  />
  <line x1="-500" y1="350" x2="-270" y2="350" style="stroke:#800;stroke-width:10;stroke-opacity:1.000000;stroke-linecap:round"/>
  <circle cx="-235" cy="350" r="35"
    style="fill:none;stroke:#800;stroke-width:10"  />
  <g transform="translate(-385,344) rotate(0)" > <text font-size="83.3333333333" fill="#800" font-family="monospace"  >
   4
  </text> </g> 
  <g transform="translate(-182,385) rotate(0)" > <text font-size="83.3333333333" fill="#088" font-family="monospace"  >
   P0
  </text> </g> 
  <circle cx="-500" cy="350" r="10"
    style="fill:none;stroke:#800;stroke-width:2"  />
  <line x1="-500" y1="250" x2="-200" y2="250" style="stroke:#800;stroke-width:10;stroke-opacity:1.000000;stroke-linecap:round"/>
  <g transform="translate(-420,244) rotate(0)" > <text font-size="83.3333333333" fill="#800" font-family="monospace"  >
   12
  </text> </g> 
  <g transform="translate(-182,285) rotate(0)" > <text font-size="83.3333333333" fill="#088" font-family="monospace"  >
   D1
  </text> </g> 
  <circle cx="-500" cy="250" r="10"
    style="fill:none;stroke:#800;stroke-width:2"  />
  <line x1="-500" y1="150" x2="-200" y2="150" style="stroke:#800;stroke-width:10;stroke-opacity:1.000000;stroke-linecap:round"/>
  <g transform="translate(-420,144) rotate(0)" > <text font-size="83.3333333333" fill="#800" font-family="monospace"  >
   13
  </text> </g> 
  <g transform="translate(-182,185) rotate(0)" > <text font-size="83.3333333333" fill="#088" font-family="monospace"  >
   D2
  </text> </g> 
  <circle cx="-500" cy="150" r="10"
    style="fill:none;stroke:#800;stroke-width:2"  />
  <line x1="-500" y1="50" x2="-200" y2="50" style="stroke:#800;stroke-width:10;stroke-opacity:1.000000;stroke-linecap:round"/>
  <g transform="translate(-385,44) rotate(0)" > <text font-size="83.3333333333" fill="#800" font-family="monospace"  >
   2
  </text> </g> 
  <g transform="translate(-182,85) rotate(0)" > <text font-size="83.3333333333" fill="#088" font-family="monospace"  >
   D3
  </text> </g> 
  <circle cx="-500" cy="50" r="10"
    style="fill:none;stroke:#800;stroke-width:2"  />
  <line x1="-500" y1="-50" x2="-200" y2="-50" style="stroke:#800;stroke-width:10;stroke-opacity:1.000000;stroke-linecap:round"/>
  <g transform="translate(-385,-56) rotate(0)" > <text font-size="83.3333333333" fill="#800" font-family="monospace"  >
   3
  </text> </g> 
  <g transform="translate(-182,-15) rotate(0)" > <text font-size="83.3333333333" fill="#088" font-family="monospace"  >
   D4
  </text> </g> 
  <circle cx="-500" cy="-50" r="10"
    style="fill:none;stroke:#800;stroke-width:2"  />
  <line x1="-500" y1="-200" x2="-200" y2="-200" style="stroke:#800;stroke-width:10;stroke-opacity:1.000000;stroke-linecap:round"/>
  <g transform="translate(-385,-206) rotate(0)" > <text font-size="83.3333333333" fill="#800" font-family="monospace"  >
   1
  </text> </g> 
  <g transform="translate(-182,-165) rotate(0)" > <text font-size="83.3333333333" fill="#088" font-family="monospace"  >
   Str
  </text> </g> 
  <circle cx="-500" cy="-200" r="10"
    style="fill:none;stroke:#800;stroke-width:2"  />
 </g>
</svg>
