<?xml version="1.0"?>
<svg height="282" width="251"  >
 <g style="fill-opacity:1.0; stroke:black;
  stroke-width:1;" transform=" translate( 125.625,141.0 ) scale( 0.15,0.15 )">
  <g transform="translate(220,-520) rotate(0)" > <text font-size="100.0" fill="#088" font-family="monospace"  >
   U
  </text> </g> 
  <g transform="translate(180,580) rotate(0)" > <text font-size="100.0" fill="#088" font-family="monospace"  >
   7483
  </text> </g> 
  <line x1="-180" y1="480" x2="-160" y2="460" style="stroke:#800;stroke-width:10;stroke-opacity:1.000000;stroke-linecap:round"/>
  <line x1="-160" y1="460" x2="-160" y2="120" style="stroke:#800;stroke-width:10;stroke-opacity:1.000000;stroke-linecap:round"/>
  <line x1="-160" y1="120" x2="-180" y2="100" style="stroke:#800;stroke-width:10;stroke-opacity:1.000000;stroke-linecap:round"/>
  <line x1="-180" y1="100" x2="-180" y2="100" style="stroke:#800;stroke-width:10;stroke-opacity:1.000000;stroke-linecap:round"/>
  <line x1="-180" y1="-360" x2="-160" y2="-340" style="stroke:#800;stroke-width:10;stroke-opacity:1.000000;stroke-linecap:round"/>
  <line x1="-160" y1="-340" x2="-160" y2="40" style="stroke:#800;stroke-width:10;stroke-opacity:1.000000;stroke-linecap:round"/>
  <line x1="-160" y1="40" x2="-180" y2="60" style="stroke:#800;stroke-width:10;stroke-opacity:1.000000;stroke-linecap:round"/>
  <line x1="-180" y1="60" x2="-180" y2="60" style="stroke:#800;stroke-width:10;stroke-opacity:1.000000;stroke-linecap:round"/>
  <line x1="180" y1="-420" x2="160" y2="-400" style="stroke:#800;stroke-width:10;stroke-opacity:1.000000;stroke-linecap:round"/>
  <line x1="160" y1="-400" x2="160" y2="0" style="stroke:#800;stroke-width:10;stroke-opacity:1.000000;stroke-linecap:round"/>
  <line x1="160" y1="0" x2="180" y2="20" style="stroke:#800;stroke-width:10;stroke-opacity:1.000000;stroke-linecap:round"/>
  <line x1="180" y1="20" x2="180" y2="20" style="stroke:#800;stroke-width:10;stroke-opacity:1.000000;stroke-linecap:round"/>
  <line x1="150" y1="-240" x2="110" y2="-240" style="stroke:#800;stroke-width:10;stroke-opacity:1.000000;stroke-linecap:round"/>
  <line x1="110" y1="-240" x2="150" y2="-220" style="stroke:#800;stroke-width:10;stroke-opacity:1.000000;stroke-linecap:round"/>
  <line x1="150" y1="-220" x2="110" y2="-200" style="stroke:#800;stroke-width:10;stroke-opacity:1.000000;stroke-linecap:round"/>
  <line x1="110" y1="-200" x2="150" y2="-200" style="stroke:#800;stroke-width:10;stroke-opacity:1.000000;stroke-linecap:round"/>
  <line x1="150" y1="-200" x2="150" y2="-200" style="stroke:#800;stroke-width:10;stroke-opacity:1.000000;stroke-linecap:round"/>
  <rect x="-300" y="-500" height="1000"
    width="600" style="fill:none;stroke:#800;stroke-width:10" />
  <g transform="translate(-130,330) rotate(0)" > <text font-size="100.0" fill="#800" font-family="monospace"  >
   P
  </text> </g> 
  <g transform="translate(-150,-130) rotate(0)" > <text font-size="100.0" fill="#800" font-family="monospace"  >
   Q
  </text> </g> 
  <g transform="translate(-12,-487) rotate(-90)" > <text font-size="83.3333333333" fill="#888" font-family="monospace"  >
   5
  </text> </g> 
  <g transform="translate(6,-308) rotate(-90)" > <text font-size="83.3333333333" fill="#888" font-family="monospace"  >
   VCC
  </text> </g> 
  <circle cx="0" cy="-500" r="10"
    style="fill:none;stroke:#888;stroke-width:2"  />
  <line x1="600" y1="150" x2="300" y2="150" style="stroke:#800;stroke-width:10;stroke-opacity:1.000000;stroke-linecap:round"/>
  <g transform="translate(379,144) rotate(0)" > <text font-size="83.3333333333" fill="#800" font-family="monospace"  >
   14
  </text> </g> 
  <g transform="translate(160,185) rotate(0)" > <text font-size="83.3333333333" fill="#088" font-family="monospace"  >
   C4
  </text> </g> 
  <circle cx="600" cy="150" r="10"
    style="fill:none;stroke:#800;stroke-width:2"  />
  <line x1="600" y1="-50" x2="300" y2="-50" style="stroke:#800;stroke-width:10;stroke-opacity:1.000000;stroke-linecap:round"/>
  <g transform="translate(379,-56) rotate(0)" > <text font-size="83.3333333333" fill="#800" font-family="monospace"  >
   15
  </text> </g> 
  <g transform="translate(160,-15) rotate(0)" > <text font-size="83.3333333333" fill="#088" font-family="monospace"  >
   S4
  </text> </g> 
  <circle cx="600" cy="-50" r="10"
    style="fill:none;stroke:#800;stroke-width:2"  />
  <line x1="600" y1="-150" x2="300" y2="-150" style="stroke:#800;stroke-width:10;stroke-opacity:1.000000;stroke-linecap:round"/>
  <g transform="translate(414,-156) rotate(0)" > <text font-size="83.3333333333" fill="#800" font-family="monospace"  >
   2
  </text> </g> 
  <g transform="translate(160,-115) rotate(0)" > <text font-size="83.3333333333" fill="#088" font-family="monospace"  >
   S3
  </text> </g> 
  <circle cx="600" cy="-150" r="10"
    style="fill:none;stroke:#800;stroke-width:2"  />
  <line x1="600" y1="-250" x2="300" y2="-250" style="stroke:#800;stroke-width:10;stroke-opacity:1.000000;stroke-linecap:round"/>
  <g transform="translate(414,-256) rotate(0)" > <text font-size="83.3333333333" fill="#800" font-family="monospace"  >
   6
  </text> </g> 
  <g transform="translate(160,-215) rotate(0)" > <text font-size="83.3333333333" fill="#088" font-family="monospace"  >
   S2
  </text> </g> 
  <circle cx="600" cy="-250" r="10"
    style="fill:none;stroke:#800;stroke-width:2"  />
  <line x1="600" y1="-350" x2="300" y2="-350" style="stroke:#800;stroke-width:10;stroke-opacity:1.000000;stroke-linecap:round"/>
  <g transform="translate(414,-356) rotate(0)" > <text font-size="83.3333333333" fill="#800" font-family="monospace"  >
   9
  </text> </g> 
  <g transform="translate(160,-315) rotate(0)" > <text font-size="83.3333333333" fill="#088" font-family="monospace"  >
   S1
  </text> </g> 
  <circle cx="600" cy="-350" r="10"
    style="fill:none;stroke:#800;stroke-width:2"  />
  <line x1="-600" y1="450" x2="-300" y2="450" style="stroke:#800;stroke-width:10;stroke-opacity:1.000000;stroke-linecap:round"/>
  <g transform="translate(-485,444) rotate(0)" > <text font-size="83.3333333333" fill="#800" font-family="monospace"  >
   1
  </text> </g> 
  <g transform="translate(-282,485) rotate(0)" > <text font-size="83.3333333333" fill="#088" font-family="monospace"  >
   A4
  </text> </g> 
  <circle cx="-600" cy="450" r="10"
    style="fill:none;stroke:#800;stroke-width:2"  />
  <line x1="-600" y1="350" x2="-300" y2="350" style="stroke:#800;stroke-width:10;stroke-opacity:1.000000;stroke-linecap:round"/>
  <g transform="translate(-485,344) rotate(0)" > <text font-size="83.3333333333" fill="#800" font-family="monospace"  >
   3
  </text> </g> 
  <g transform="translate(-282,385) rotate(0)" > <text font-size="83.3333333333" fill="#088" font-family="monospace"  >
   A3
  </text> </g> 
  <circle cx="-600" cy="350" r="10"
    style="fill:none;stroke:#800;stroke-width:2"  />
  <line x1="-600" y1="250" x2="-300" y2="250" style="stroke:#800;stroke-width:10;stroke-opacity:1.000000;stroke-linecap:round"/>
  <g transform="translate(-485,244) rotate(0)" > <text font-size="83.3333333333" fill="#800" font-family="monospace"  >
   8
  </text> </g> 
  <g transform="translate(-282,285) rotate(0)" > <text font-size="83.3333333333" fill="#088" font-family="monospace"  >
   A2
  </text> </g> 
  <circle cx="-600" cy="250" r="10"
    style="fill:none;stroke:#800;stroke-width:2"  />
  <line x1="-600" y1="150" x2="-300" y2="150" style="stroke:#800;stroke-width:10;stroke-opacity:1.000000;stroke-linecap:round"/>
  <g transform="translate(-520,144) rotate(0)" > <text font-size="83.3333333333" fill="#800" font-family="monospace"  >
   10
  </text> </g> 
  <g transform="translate(-282,185) rotate(0)" > <text font-size="83.3333333333" fill="#088" font-family="monospace"  >
   A1
  </text> </g> 
  <circle cx="-600" cy="150" r="10"
    style="fill:none;stroke:#800;stroke-width:2"  />
  <line x1="-600" y1="0" x2="-300" y2="0" style="stroke:#800;stroke-width:10;stroke-opacity:1.000000;stroke-linecap:round"/>
  <g transform="translate(-520,-6) rotate(0)" > <text font-size="83.3333333333" fill="#800" font-family="monospace"  >
   16
  </text> </g> 
  <g transform="translate(-282,35) rotate(0)" > <text font-size="83.3333333333" fill="#088" font-family="monospace"  >
   B4
  </text> </g> 
  <circle cx="-600" cy="0" r="10"
    style="fill:none;stroke:#800;stroke-width:2"  />
  <line x1="-600" y1="-100" x2="-300" y2="-100" style="stroke:#800;stroke-width:10;stroke-opacity:1.000000;stroke-linecap:round"/>
  <g transform="translate(-485,-106) rotate(0)" > <text font-size="83.3333333333" fill="#800" font-family="monospace"  >
   4
  </text> </g> 
  <g transform="translate(-282,-65) rotate(0)" > <text font-size="83.3333333333" fill="#088" font-family="monospace"  >
   B3
  </text> </g> 
  <circle cx="-600" cy="-100" r="10"
    style="fill:none;stroke:#800;stroke-width:2"  />
  <line x1="-600" y1="-200" x2="-300" y2="-200" style="stroke:#800;stroke-width:10;stroke-opacity:1.000000;stroke-linecap:round"/>
  <g transform="translate(-485,-206) rotate(0)" > <text font-size="83.3333333333" fill="#800" font-family="monospace"  >
   7
  </text> </g> 
  <g transform="translate(-282,-165) rotate(0)" > <text font-size="83.3333333333" fill="#088" font-family="monospace"  >
   B2
  </text> </g> 
  <circle cx="-600" cy="-200" r="10"
    style="fill:none;stroke:#800;stroke-width:2"  />
  <line x1="-600" y1="-300" x2="-300" y2="-300" style="stroke:#800;stroke-width:10;stroke-opacity:1.000000;stroke-linecap:round"/>
  <g transform="translate(-520,-306) rotate(0)" > <text font-size="83.3333333333" fill="#800" font-family="monospace"  >
   11
  </text> </g> 
  <g transform="translate(-282,-265) rotate(0)" > <text font-size="83.3333333333" fill="#088" font-family="monospace"  >
   B1
  </text> </g> 
  <circle cx="-600" cy="-300" r="10"
    style="fill:none;stroke:#800;stroke-width:2"  />
  <line x1="-600" y1="-450" x2="-300" y2="-450" style="stroke:#800;stroke-width:10;stroke-opacity:1.000000;stroke-linecap:round"/>
  <g transform="translate(-520,-456) rotate(0)" > <text font-size="83.3333333333" fill="#800" font-family="monospace"  >
   13
  </text> </g> 
  <g transform="translate(-282,-415) rotate(0)" > <text font-size="83.3333333333" fill="#088" font-family="monospace"  >
   C0
  </text> </g> 
  <circle cx="-600" cy="-450" r="10"
    style="fill:none;stroke:#800;stroke-width:2"  />
  <g transform="translate(-12,525) rotate(-90)" > <text font-size="83.3333333333" fill="#888" font-family="monospace"  >
   12
  </text> </g> 
  <g transform="translate(6,458) rotate(-90)" > <text font-size="83.3333333333" fill="#888" font-family="monospace"  >
   GND
  </text> </g> 
  <circle cx="0" cy="500" r="10"
    style="fill:none;stroke:#888;stroke-width:2"  />
 </g>
</svg>
