<?xml version="1.0"?>
<svg height="307" width="263"  >
 <g style="fill-opacity:1.0; stroke:black;
  stroke-width:1;" transform=" translate( 131.75,153.5 ) scale( 0.15,0.15 )">
  <g transform="translate(320,-370) rotate(0)" > <text font-size="100.0" fill="#088" font-family="monospace"  >
   U
  </text> </g> 
  <g transform="translate(40,330) rotate(0)" > <text font-size="100.0" fill="#088" font-family="monospace"  >
   74LS390
  </text> </g> 
  <rect x="-250" y="-100" height="300"
    width="500" style="fill:none;stroke:#800;stroke-width:10" />
  <rect x="-250" y="-200" height="100"
    width="500" style="fill:none;stroke:#800;stroke-width:10" />
  <line x1="-200" y1="-200" x2="-200" y2="-250" style="stroke:#800;stroke-width:10;stroke-opacity:1.000000;stroke-linecap:round"/>
  <line x1="-200" y1="-250" x2="-250" y2="-250" style="stroke:#800;stroke-width:10;stroke-opacity:1.000000;stroke-linecap:round"/>
  <line x1="-250" y1="-250" x2="-250" y2="-400" style="stroke:#800;stroke-width:10;stroke-opacity:1.000000;stroke-linecap:round"/>
  <line x1="-250" y1="-400" x2="250" y2="-400" style="stroke:#800;stroke-width:10;stroke-opacity:1.000000;stroke-linecap:round"/>
  <line x1="250" y1="-400" x2="250" y2="-250" style="stroke:#800;stroke-width:10;stroke-opacity:1.000000;stroke-linecap:round"/>
  <line x1="250" y1="-250" x2="200" y2="-250" style="stroke:#800;stroke-width:10;stroke-opacity:1.000000;stroke-linecap:round"/>
  <line x1="200" y1="-250" x2="200" y2="-200" style="stroke:#800;stroke-width:10;stroke-opacity:1.000000;stroke-linecap:round"/>
  <line x1="200" y1="-200" x2="200" y2="-200" style="stroke:#800;stroke-width:10;stroke-opacity:1.000000;stroke-linecap:round"/>
  <g transform="translate(-80,70) rotate(0)" > <text font-size="66.6666666667" fill="#800" font-family="monospace"  >
   DIV5
  </text> </g> 
  <g transform="translate(-80,-130) rotate(0)" > <text font-size="66.6666666667" fill="#800" font-family="monospace"  >
   DIV2
  </text> </g> 
  <g transform="translate(37,-387) rotate(-90)" > <text font-size="83.3333333333" fill="#888" font-family="monospace"  >
   8
  </text> </g> 
  <g transform="translate(55,-246) rotate(-90)" > <text font-size="66.6666666667" fill="#888" font-family="monospace"  >
   GND
  </text> </g> 
  <circle cx="50" cy="-400" r="10"
    style="fill:none;stroke:#888;stroke-width:2"  />
  <g transform="translate(137,-375) rotate(-90)" > <text font-size="83.3333333333" fill="#888" font-family="monospace"  >
   16
  </text> </g> 
  <g transform="translate(155,-246) rotate(-90)" > <text font-size="66.6666666667" fill="#888" font-family="monospace"  >
   VCC
  </text> </g> 
  <circle cx="150" cy="-400" r="10"
    style="fill:none;stroke:#888;stroke-width:2"  />
  <line x1="550" y1="150" x2="250" y2="150" style="stroke:#800;stroke-width:10;stroke-opacity:1.000000;stroke-linecap:round"/>
  <g transform="translate(364,144) rotate(0)" > <text font-size="83.3333333333" fill="#800" font-family="monospace"  >
   7
  </text> </g> 
  <g transform="translate(130,180) rotate(0)" > <text font-size="66.6666666667" fill="#088" font-family="monospace"  >
   Q3
  </text> </g> 
  <circle cx="550" cy="150" r="10"
    style="fill:none;stroke:#800;stroke-width:2"  />
  <line x1="550" y1="50" x2="250" y2="50" style="stroke:#800;stroke-width:10;stroke-opacity:1.000000;stroke-linecap:round"/>
  <g transform="translate(364,44) rotate(0)" > <text font-size="83.3333333333" fill="#800" font-family="monospace"  >
   6
  </text> </g> 
  <g transform="translate(130,80) rotate(0)" > <text font-size="66.6666666667" fill="#088" font-family="monospace"  >
   Q2
  </text> </g> 
  <circle cx="550" cy="50" r="10"
    style="fill:none;stroke:#800;stroke-width:2"  />
  <line x1="550" y1="-50" x2="250" y2="-50" style="stroke:#800;stroke-width:10;stroke-opacity:1.000000;stroke-linecap:round"/>
  <g transform="translate(364,-56) rotate(0)" > <text font-size="83.3333333333" fill="#800" font-family="monospace"  >
   5
  </text> </g> 
  <g transform="translate(130,-20) rotate(0)" > <text font-size="66.6666666667" fill="#088" font-family="monospace"  >
   Q1
  </text> </g> 
  <circle cx="550" cy="-50" r="10"
    style="fill:none;stroke:#800;stroke-width:2"  />
  <line x1="550" y1="-150" x2="250" y2="-150" style="stroke:#800;stroke-width:10;stroke-opacity:1.000000;stroke-linecap:round"/>
  <g transform="translate(364,-156) rotate(0)" > <text font-size="83.3333333333" fill="#800" font-family="monospace"  >
   3
  </text> </g> 
  <g transform="translate(130,-120) rotate(0)" > <text font-size="66.6666666667" fill="#088" font-family="monospace"  >
   Q0
  </text> </g> 
  <circle cx="550" cy="-150" r="10"
    style="fill:none;stroke:#800;stroke-width:2"  />
  <line x1="-210" y1="50" x2="-250" y2="90" style="stroke:#800;stroke-width:10;stroke-opacity:1.000000;stroke-linecap:round"/>
  <line x1="-250" y1="90" x2="-250" y2="10" style="stroke:#800;stroke-width:10;stroke-opacity:1.000000;stroke-linecap:round"/>
  <line x1="-250" y1="10" x2="-210" y2="50" style="stroke:#800;stroke-width:10;stroke-opacity:1.000000;stroke-linecap:round"/>
  <line x1="-550" y1="50" x2="-320" y2="50" style="stroke:#800;stroke-width:10;stroke-opacity:1.000000;stroke-linecap:round"/>
  <circle cx="-285" cy="50" r="35"
    style="fill:none;stroke:#800;stroke-width:10"  />
  <g transform="translate(-435,44) rotate(0)" > <text font-size="83.3333333333" fill="#800" font-family="monospace"  >
   4
  </text> </g> 
  <g transform="translate(-232,80) rotate(0)" > <text font-size="66.6666666667" fill="#088" font-family="monospace"  >
   ~Ck1
  </text> </g> 
  <circle cx="-550" cy="50" r="10"
    style="fill:none;stroke:#800;stroke-width:2"  />
  <line x1="-210" y1="-150" x2="-250" y2="-110" style="stroke:#800;stroke-width:10;stroke-opacity:1.000000;stroke-linecap:round"/>
  <line x1="-250" y1="-110" x2="-250" y2="-190" style="stroke:#800;stroke-width:10;stroke-opacity:1.000000;stroke-linecap:round"/>
  <line x1="-250" y1="-190" x2="-210" y2="-150" style="stroke:#800;stroke-width:10;stroke-opacity:1.000000;stroke-linecap:round"/>
  <line x1="-550" y1="-150" x2="-320" y2="-150" style="stroke:#800;stroke-width:10;stroke-opacity:1.000000;stroke-linecap:round"/>
  <circle cx="-285" cy="-150" r="35"
    style="fill:none;stroke:#800;stroke-width:10"  />
  <g transform="translate(-435,-156) rotate(0)" > <text font-size="83.3333333333" fill="#800" font-family="monospace"  >
   1
  </text> </g> 
  <g transform="translate(-232,-120) rotate(0)" > <text font-size="66.6666666667" fill="#088" font-family="monospace"  >
   ~CK0
  </text> </g> 
  <circle cx="-550" cy="-150" r="10"
    style="fill:none;stroke:#800;stroke-width:2"  />
  <line x1="-550" y1="-300" x2="-250" y2="-300" style="stroke:#800;stroke-width:10;stroke-opacity:1.000000;stroke-linecap:round"/>
  <g transform="translate(-435,-306) rotate(0)" > <text font-size="83.3333333333" fill="#800" font-family="monospace"  >
   2
  </text> </g> 
  <g transform="translate(-232,-270) rotate(0)" > <text font-size="66.6666666667" fill="#088" font-family="monospace"  >
   CLR
  </text> </g> 
  <circle cx="-550" cy="-300" r="10"
    style="fill:none;stroke:#800;stroke-width:2"  />
 </g>
</svg>
