<?xml version="1.0"?>
<svg height="417" width="335"  >
 <g style="fill-opacity:1.0; stroke:black;
  stroke-width:1;" transform=" translate( 167.625,208.875 ) scale( 0.15,0.15 )">
  <g transform="translate(265,-765) rotate(0)" > <text font-size="116.666666667" fill="#088" font-family="monospace"  >
   U
  </text> </g> 
  <g transform="translate(55,835) rotate(0)" > <text font-size="116.666666667" fill="#088" font-family="monospace"  >
   74LS599
  </text> </g> 
  <line x1="-90" y1="650" x2="-150" y2="620" style="stroke:#800;stroke-width:10;stroke-opacity:1.000000;stroke-linecap:round"/>
  <line x1="-150" y1="620" x2="-150" y2="680" style="stroke:#800;stroke-width:10;stroke-opacity:1.000000;stroke-linecap:round"/>
  <line x1="-150" y1="680" x2="-90" y2="650" style="stroke:#800;stroke-width:10;stroke-opacity:1.000000;stroke-linecap:round"/>
  <line x1="-90" y1="650" x2="-90" y2="650" style="stroke:#800;stroke-width:10;stroke-opacity:1.000000;stroke-linecap:round"/>
  <rect x="-50" y="400" height="100"
    width="300" style="fill:none;stroke:#800;stroke-width:10" />
  <rect x="-50" y="-100" height="100"
    width="300" style="fill:none;stroke:#800;stroke-width:10" />
  <rect x="-50" y="300" height="100"
    width="300" style="fill:none;stroke:#800;stroke-width:10" />
  <rect x="-50" y="200" height="100"
    width="300" style="fill:none;stroke:#800;stroke-width:10" />
  <rect x="-50" y="100" height="100"
    width="300" style="fill:none;stroke:#800;stroke-width:10" />
  <rect x="-250" y="-200" height="900"
    width="500" style="fill:none;stroke:#800;stroke-width:10" />
  <line x1="-200" y1="-200" x2="-200" y2="-250" style="stroke:#800;stroke-width:10;stroke-opacity:1.000000;stroke-linecap:round"/>
  <line x1="-200" y1="-250" x2="-250" y2="-250" style="stroke:#800;stroke-width:10;stroke-opacity:1.000000;stroke-linecap:round"/>
  <line x1="-250" y1="-250" x2="-250" y2="-750" style="stroke:#800;stroke-width:10;stroke-opacity:1.000000;stroke-linecap:round"/>
  <line x1="-250" y1="-750" x2="250" y2="-750" style="stroke:#800;stroke-width:10;stroke-opacity:1.000000;stroke-linecap:round"/>
  <line x1="250" y1="-750" x2="250" y2="-250" style="stroke:#800;stroke-width:10;stroke-opacity:1.000000;stroke-linecap:round"/>
  <line x1="250" y1="-250" x2="200" y2="-250" style="stroke:#800;stroke-width:10;stroke-opacity:1.000000;stroke-linecap:round"/>
  <line x1="200" y1="-250" x2="200" y2="-200" style="stroke:#800;stroke-width:10;stroke-opacity:1.000000;stroke-linecap:round"/>
  <line x1="200" y1="-200" x2="200" y2="-200" style="stroke:#800;stroke-width:10;stroke-opacity:1.000000;stroke-linecap:round"/>
  <line x1="-20" y1="-180" x2="-20" y2="-120" style="stroke:#800;stroke-width:10;stroke-opacity:1.000000;stroke-linecap:round"/>
  <line x1="-20" y1="-120" x2="40" y2="-150" style="stroke:#800;stroke-width:10;stroke-opacity:1.000000;stroke-linecap:round"/>
  <line x1="40" y1="-150" x2="-20" y2="-180" style="stroke:#800;stroke-width:10;stroke-opacity:1.000000;stroke-linecap:round"/>
  <line x1="-20" y1="-180" x2="-20" y2="-180" style="stroke:#800;stroke-width:10;stroke-opacity:1.000000;stroke-linecap:round"/>
  <line x1="110" y1="-130" x2="50" y2="-130" style="stroke:#800;stroke-width:10;stroke-opacity:1.000000;stroke-linecap:round"/>
  <line x1="50" y1="-130" x2="70" y2="-130" style="stroke:#800;stroke-width:10;stroke-opacity:1.000000;stroke-linecap:round"/>
  <line x1="70" y1="-130" x2="50" y2="-150" style="stroke:#800;stroke-width:10;stroke-opacity:1.000000;stroke-linecap:round"/>
  <line x1="50" y1="-150" x2="80" y2="-180" style="stroke:#800;stroke-width:10;stroke-opacity:1.000000;stroke-linecap:round"/>
  <line x1="80" y1="-180" x2="110" y2="-150" style="stroke:#800;stroke-width:10;stroke-opacity:1.000000;stroke-linecap:round"/>
  <line x1="110" y1="-150" x2="90" y2="-130" style="stroke:#800;stroke-width:10;stroke-opacity:1.000000;stroke-linecap:round"/>
  <line x1="90" y1="-130" x2="90" y2="-130" style="stroke:#800;stroke-width:10;stroke-opacity:1.000000;stroke-linecap:round"/>
  <rect x="-50" y="0" height="100"
    width="300" style="fill:none;stroke:#800;stroke-width:10" />
  <rect x="-50" y="500" height="100"
    width="300" style="fill:none;stroke:#800;stroke-width:10" />
  <rect x="-50" y="-200" height="100"
    width="300" style="fill:none;stroke:#800;stroke-width:10" />
  <line x1="-250" y1="-500" x2="0" y2="-500" style="stroke:#800;stroke-width:10;stroke-opacity:1.000000;stroke-linecap:round"/>
  <line x1="0" y1="-500" x2="0" y2="-250" style="stroke:#800;stroke-width:10;stroke-opacity:1.000000;stroke-linecap:round"/>
  <line x1="0" y1="-250" x2="-50" y2="-250" style="stroke:#800;stroke-width:10;stroke-opacity:1.000000;stroke-linecap:round"/>
  <line x1="-50" y1="-250" x2="-50" y2="-200" style="stroke:#800;stroke-width:10;stroke-opacity:1.000000;stroke-linecap:round"/>
  <line x1="-50" y1="-200" x2="-50" y2="-200" style="stroke:#800;stroke-width:10;stroke-opacity:1.000000;stroke-linecap:round"/>
  <g transform="translate(-12,-737) rotate(-90)" > <text font-size="83.3333333333" fill="#888" font-family="monospace"  >
   8
  </text> </g> 
  <g transform="translate(6,-558) rotate(-90)" > <text font-size="83.3333333333" fill="#888" font-family="monospace"  >
   GND
  </text> </g> 
  <circle cx="0" cy="-750" r="10"
    style="fill:none;stroke:#888;stroke-width:2"  />
  <g transform="translate(137,-725) rotate(-90)" > <text font-size="83.3333333333" fill="#888" font-family="monospace"  >
   16
  </text> </g> 
  <g transform="translate(156,-558) rotate(-90)" > <text font-size="83.3333333333" fill="#888" font-family="monospace"  >
   VCC
  </text> </g> 
  <circle cx="150" cy="-750" r="10"
    style="fill:none;stroke:#888;stroke-width:2"  />
  <line x1="550" y1="650" x2="250" y2="650" style="stroke:#800;stroke-width:10;stroke-opacity:1.000000;stroke-linecap:round"/>
  <g transform="translate(364,644) rotate(0)" > <text font-size="83.3333333333" fill="#800" font-family="monospace"  >
   9
  </text> </g> 
  <g transform="translate(-40,685) rotate(0)" > <text font-size="83.3333333333" fill="#088" font-family="monospace"  >
   QHser
  </text> </g> 
  <circle cx="550" cy="650" r="10"
    style="fill:none;stroke:#800;stroke-width:2"  />
  <line x1="550" y1="550" x2="250" y2="550" style="stroke:#800;stroke-width:10;stroke-opacity:1.000000;stroke-linecap:round"/>
  <g transform="translate(364,544) rotate(0)" > <text font-size="83.3333333333" fill="#800" font-family="monospace"  >
   7
  </text> </g> 
  <g transform="translate(110,585) rotate(0)" > <text font-size="83.3333333333" fill="#088" font-family="monospace"  >
   QH
  </text> </g> 
  <circle cx="550" cy="550" r="10"
    style="fill:none;stroke:#800;stroke-width:2"  />
  <line x1="550" y1="450" x2="250" y2="450" style="stroke:#800;stroke-width:10;stroke-opacity:1.000000;stroke-linecap:round"/>
  <g transform="translate(364,444) rotate(0)" > <text font-size="83.3333333333" fill="#800" font-family="monospace"  >
   6
  </text> </g> 
  <g transform="translate(110,485) rotate(0)" > <text font-size="83.3333333333" fill="#088" font-family="monospace"  >
   QG
  </text> </g> 
  <circle cx="550" cy="450" r="10"
    style="fill:none;stroke:#800;stroke-width:2"  />
  <line x1="550" y1="350" x2="250" y2="350" style="stroke:#800;stroke-width:10;stroke-opacity:1.000000;stroke-linecap:round"/>
  <g transform="translate(364,344) rotate(0)" > <text font-size="83.3333333333" fill="#800" font-family="monospace"  >
   5
  </text> </g> 
  <g transform="translate(110,385) rotate(0)" > <text font-size="83.3333333333" fill="#088" font-family="monospace"  >
   QF
  </text> </g> 
  <circle cx="550" cy="350" r="10"
    style="fill:none;stroke:#800;stroke-width:2"  />
  <line x1="550" y1="250" x2="250" y2="250" style="stroke:#800;stroke-width:10;stroke-opacity:1.000000;stroke-linecap:round"/>
  <g transform="translate(364,244) rotate(0)" > <text font-size="83.3333333333" fill="#800" font-family="monospace"  >
   4
  </text> </g> 
  <g transform="translate(110,285) rotate(0)" > <text font-size="83.3333333333" fill="#088" font-family="monospace"  >
   QE
  </text> </g> 
  <circle cx="550" cy="250" r="10"
    style="fill:none;stroke:#800;stroke-width:2"  />
  <line x1="550" y1="150" x2="250" y2="150" style="stroke:#800;stroke-width:10;stroke-opacity:1.000000;stroke-linecap:round"/>
  <g transform="translate(364,144) rotate(0)" > <text font-size="83.3333333333" fill="#800" font-family="monospace"  >
   3
  </text> </g> 
  <g transform="translate(110,185) rotate(0)" > <text font-size="83.3333333333" fill="#088" font-family="monospace"  >
   QD
  </text> </g> 
  <circle cx="550" cy="150" r="10"
    style="fill:none;stroke:#800;stroke-width:2"  />
  <line x1="550" y1="50" x2="250" y2="50" style="stroke:#800;stroke-width:10;stroke-opacity:1.000000;stroke-linecap:round"/>
  <g transform="translate(364,44) rotate(0)" > <text font-size="83.3333333333" fill="#800" font-family="monospace"  >
   2
  </text> </g> 
  <g transform="translate(110,85) rotate(0)" > <text font-size="83.3333333333" fill="#088" font-family="monospace"  >
   QC
  </text> </g> 
  <circle cx="550" cy="50" r="10"
    style="fill:none;stroke:#800;stroke-width:2"  />
  <line x1="550" y1="-50" x2="250" y2="-50" style="stroke:#800;stroke-width:10;stroke-opacity:1.000000;stroke-linecap:round"/>
  <g transform="translate(364,-56) rotate(0)" > <text font-size="83.3333333333" fill="#800" font-family="monospace"  >
   1
  </text> </g> 
  <g transform="translate(110,-15) rotate(0)" > <text font-size="83.3333333333" fill="#088" font-family="monospace"  >
   QB
  </text> </g> 
  <circle cx="550" cy="-50" r="10"
    style="fill:none;stroke:#800;stroke-width:2"  />
  <line x1="550" y1="-150" x2="250" y2="-150" style="stroke:#800;stroke-width:10;stroke-opacity:1.000000;stroke-linecap:round"/>
  <g transform="translate(329,-156) rotate(0)" > <text font-size="83.3333333333" fill="#800" font-family="monospace"  >
   15
  </text> </g> 
  <g transform="translate(110,-115) rotate(0)" > <text font-size="83.3333333333" fill="#088" font-family="monospace"  >
   QA
  </text> </g> 
  <circle cx="550" cy="-150" r="10"
    style="fill:none;stroke:#800;stroke-width:2"  />
  <line x1="-550" y1="250" x2="-250" y2="250" style="stroke:#800;stroke-width:10;stroke-opacity:1.000000;stroke-linecap:round"/>
  <g transform="translate(-470,244) rotate(0)" > <text font-size="83.3333333333" fill="#800" font-family="monospace"  >
   14
  </text> </g> 
  <g transform="translate(-232,285) rotate(0)" > <text font-size="83.3333333333" fill="#088" font-family="monospace"  >
   SER
  </text> </g> 
  <circle cx="-550" cy="250" r="10"
    style="fill:none;stroke:#800;stroke-width:2"  />
  <line x1="-210" y1="-350" x2="-250" y2="-310" style="stroke:#800;stroke-width:10;stroke-opacity:1.000000;stroke-linecap:round"/>
  <line x1="-250" y1="-310" x2="-250" y2="-390" style="stroke:#800;stroke-width:10;stroke-opacity:1.000000;stroke-linecap:round"/>
  <line x1="-250" y1="-390" x2="-210" y2="-350" style="stroke:#800;stroke-width:10;stroke-opacity:1.000000;stroke-linecap:round"/>
  <line x1="-550" y1="-350" x2="-250" y2="-350" style="stroke:#800;stroke-width:10;stroke-opacity:1.000000;stroke-linecap:round"/>
  <g transform="translate(-470,-356) rotate(0)" > <text font-size="83.3333333333" fill="#800" font-family="monospace"  >
   11
  </text> </g> 
  <g transform="translate(-232,-315) rotate(0)" > <text font-size="83.3333333333" fill="#088" font-family="monospace"  >
   SCLK
  </text> </g> 
  <circle cx="-550" cy="-350" r="10"
    style="fill:none;stroke:#800;stroke-width:2"  />
  <line x1="-550" y1="-450" x2="-320" y2="-450" style="stroke:#800;stroke-width:10;stroke-opacity:1.000000;stroke-linecap:round"/>
  <circle cx="-285" cy="-450" r="35"
    style="fill:none;stroke:#800;stroke-width:10"  />
  <g transform="translate(-470,-456) rotate(0)" > <text font-size="83.3333333333" fill="#800" font-family="monospace"  >
   10
  </text> </g> 
  <g transform="translate(-232,-415) rotate(0)" > <text font-size="83.3333333333" fill="#088" font-family="monospace"  >
   ~SCLR
  </text> </g> 
  <circle cx="-550" cy="-450" r="10"
    style="fill:none;stroke:#800;stroke-width:2"  />
  <line x1="-210" y1="-600" x2="-250" y2="-560" style="stroke:#800;stroke-width:10;stroke-opacity:1.000000;stroke-linecap:round"/>
  <line x1="-250" y1="-560" x2="-250" y2="-640" style="stroke:#800;stroke-width:10;stroke-opacity:1.000000;stroke-linecap:round"/>
  <line x1="-250" y1="-640" x2="-210" y2="-600" style="stroke:#800;stroke-width:10;stroke-opacity:1.000000;stroke-linecap:round"/>
  <line x1="-550" y1="-600" x2="-250" y2="-600" style="stroke:#800;stroke-width:10;stroke-opacity:1.000000;stroke-linecap:round"/>
  <g transform="translate(-470,-606) rotate(0)" > <text font-size="83.3333333333" fill="#800" font-family="monospace"  >
   12
  </text> </g> 
  <g transform="translate(-232,-565) rotate(0)" > <text font-size="83.3333333333" fill="#088" font-family="monospace"  >
   RCLK
  </text> </g> 
  <circle cx="-550" cy="-600" r="10"
    style="fill:none;stroke:#800;stroke-width:2"  />
  <line x1="-550" y1="-700" x2="-320" y2="-700" style="stroke:#800;stroke-width:10;stroke-opacity:1.000000;stroke-linecap:round"/>
  <circle cx="-285" cy="-700" r="35"
    style="fill:none;stroke:#800;stroke-width:10"  />
  <g transform="translate(-470,-706) rotate(0)" > <text font-size="83.3333333333" fill="#800" font-family="monospace"  >
   13
  </text> </g> 
  <g transform="translate(-232,-665) rotate(0)" > <text font-size="83.3333333333" fill="#088" font-family="monospace"  >
   ~G
  </text> </g> 
  <circle cx="-550" cy="-700" r="10"
    style="fill:none;stroke:#800;stroke-width:2"  />
 </g>
</svg>
