<?xml version="1.0"?>
<svg height="369" width="300"  >
 <g style="fill-opacity:1.0; stroke:black;
  stroke-width:1;" transform=" translate( 150.125,184.75 ) scale( 0.15,0.15 )">
  <g transform="translate(270,-320) rotate(0)" > <text font-size="100.0" fill="#088" font-family="monospace"  >
   U
  </text> </g> 
  <g transform="translate(140,830) rotate(0)" > <text font-size="100.0" fill="#088" font-family="monospace"  >
   74LS368
  </text> </g> 
  <rect x="-250" y="50" height="100"
    width="500" style="fill:none;stroke:#800;stroke-width:10" />
  <rect x="-250" y="-50" height="100"
    width="500" style="fill:none;stroke:#800;stroke-width:10" />
  <rect x="-250" y="650" height="100"
    width="500" style="fill:none;stroke:#800;stroke-width:10" />
  <line x1="0" y1="570" x2="60" y2="570" style="stroke:#800;stroke-width:10;stroke-opacity:1.000000;stroke-linecap:round"/>
  <line x1="60" y1="570" x2="30" y2="620" style="stroke:#800;stroke-width:10;stroke-opacity:1.000000;stroke-linecap:round"/>
  <line x1="30" y1="620" x2="0" y2="570" style="stroke:#800;stroke-width:10;stroke-opacity:1.000000;stroke-linecap:round"/>
  <line x1="0" y1="570" x2="0" y2="570" style="stroke:#800;stroke-width:10;stroke-opacity:1.000000;stroke-linecap:round"/>
  <line x1="-200" y1="550" x2="-200" y2="500" style="stroke:#800;stroke-width:10;stroke-opacity:1.000000;stroke-linecap:round"/>
  <line x1="-200" y1="500" x2="-250" y2="500" style="stroke:#800;stroke-width:10;stroke-opacity:1.000000;stroke-linecap:round"/>
  <line x1="-250" y1="500" x2="-250" y2="350" style="stroke:#800;stroke-width:10;stroke-opacity:1.000000;stroke-linecap:round"/>
  <line x1="-250" y1="350" x2="250" y2="350" style="stroke:#800;stroke-width:10;stroke-opacity:1.000000;stroke-linecap:round"/>
  <line x1="250" y1="350" x2="250" y2="500" style="stroke:#800;stroke-width:10;stroke-opacity:1.000000;stroke-linecap:round"/>
  <line x1="250" y1="500" x2="200" y2="500" style="stroke:#800;stroke-width:10;stroke-opacity:1.000000;stroke-linecap:round"/>
  <line x1="200" y1="500" x2="200" y2="550" style="stroke:#800;stroke-width:10;stroke-opacity:1.000000;stroke-linecap:round"/>
  <line x1="200" y1="550" x2="200" y2="550" style="stroke:#800;stroke-width:10;stroke-opacity:1.000000;stroke-linecap:round"/>
  <line x1="-60" y1="-130" x2="0" y2="-100" style="stroke:#800;stroke-width:10;stroke-opacity:1.000000;stroke-linecap:round"/>
  <line x1="0" y1="-100" x2="-60" y2="-70" style="stroke:#800;stroke-width:10;stroke-opacity:1.000000;stroke-linecap:round"/>
  <line x1="-60" y1="-70" x2="-60" y2="-130" style="stroke:#800;stroke-width:10;stroke-opacity:1.000000;stroke-linecap:round"/>
  <line x1="-60" y1="-130" x2="-60" y2="-130" style="stroke:#800;stroke-width:10;stroke-opacity:1.000000;stroke-linecap:round"/>
  <rect x="-250" y="-150" height="100"
    width="500" style="fill:none;stroke:#800;stroke-width:10" />
  <line x1="0" y1="-130" x2="60" y2="-130" style="stroke:#800;stroke-width:10;stroke-opacity:1.000000;stroke-linecap:round"/>
  <line x1="60" y1="-130" x2="30" y2="-80" style="stroke:#800;stroke-width:10;stroke-opacity:1.000000;stroke-linecap:round"/>
  <line x1="30" y1="-80" x2="0" y2="-130" style="stroke:#800;stroke-width:10;stroke-opacity:1.000000;stroke-linecap:round"/>
  <line x1="0" y1="-130" x2="10" y2="-130" style="stroke:#800;stroke-width:10;stroke-opacity:1.000000;stroke-linecap:round"/>
  <line x1="-60" y1="570" x2="-60" y2="630" style="stroke:#800;stroke-width:10;stroke-opacity:1.000000;stroke-linecap:round"/>
  <line x1="-60" y1="630" x2="0" y2="600" style="stroke:#800;stroke-width:10;stroke-opacity:1.000000;stroke-linecap:round"/>
  <line x1="0" y1="600" x2="-60" y2="570" style="stroke:#800;stroke-width:10;stroke-opacity:1.000000;stroke-linecap:round"/>
  <line x1="-60" y1="570" x2="-60" y2="570" style="stroke:#800;stroke-width:10;stroke-opacity:1.000000;stroke-linecap:round"/>
  <rect x="-250" y="550" height="100"
    width="500" style="fill:none;stroke:#800;stroke-width:10" />
  <line x1="-200" y1="-150" x2="-200" y2="-200" style="stroke:#800;stroke-width:10;stroke-opacity:1.000000;stroke-linecap:round"/>
  <line x1="-200" y1="-200" x2="-250" y2="-200" style="stroke:#800;stroke-width:10;stroke-opacity:1.000000;stroke-linecap:round"/>
  <line x1="-250" y1="-200" x2="-250" y2="-350" style="stroke:#800;stroke-width:10;stroke-opacity:1.000000;stroke-linecap:round"/>
  <line x1="-250" y1="-350" x2="250" y2="-350" style="stroke:#800;stroke-width:10;stroke-opacity:1.000000;stroke-linecap:round"/>
  <line x1="250" y1="-350" x2="250" y2="-200" style="stroke:#800;stroke-width:10;stroke-opacity:1.000000;stroke-linecap:round"/>
  <line x1="250" y1="-200" x2="200" y2="-200" style="stroke:#800;stroke-width:10;stroke-opacity:1.000000;stroke-linecap:round"/>
  <line x1="200" y1="-200" x2="200" y2="-150" style="stroke:#800;stroke-width:10;stroke-opacity:1.000000;stroke-linecap:round"/>
  <line x1="200" y1="-150" x2="200" y2="-150" style="stroke:#800;stroke-width:10;stroke-opacity:1.000000;stroke-linecap:round"/>
  <rect x="-250" y="150" height="100"
    width="500" style="fill:none;stroke:#800;stroke-width:10" />
  <g transform="translate(-12,-337) rotate(-90)" > <text font-size="83.3333333333" fill="#888" font-family="monospace"  >
   8
  </text> </g> 
  <g transform="translate(6,-158) rotate(-90)" > <text font-size="83.3333333333" fill="#888" font-family="monospace"  >
   GND
  </text> </g> 
  <circle cx="0" cy="-350" r="10"
    style="fill:none;stroke:#888;stroke-width:2"  />
  <g transform="translate(137,-325) rotate(-90)" > <text font-size="83.3333333333" fill="#888" font-family="monospace"  >
   16
  </text> </g> 
  <g transform="translate(156,-158) rotate(-90)" > <text font-size="83.3333333333" fill="#888" font-family="monospace"  >
   VCC
  </text> </g> 
  <circle cx="150" cy="-350" r="10"
    style="fill:none;stroke:#888;stroke-width:2"  />
  <line x1="550" y1="700" x2="320" y2="700" style="stroke:#800;stroke-width:10;stroke-opacity:1.000000;stroke-linecap:round"/>
  <circle cx="285" cy="700" r="35"
    style="fill:none;stroke:#800;stroke-width:10"  />
  <g transform="translate(329,694) rotate(0)" > <text font-size="83.3333333333" fill="#800" font-family="monospace"  >
   13
  </text> </g> 
  <g transform="translate(9,735) rotate(0)" > <text font-size="83.3333333333" fill="#088" font-family="monospace"  >
   ~2Y2
  </text> </g> 
  <circle cx="550" cy="700" r="10"
    style="fill:none;stroke:#800;stroke-width:2"  />
  <line x1="550" y1="600" x2="320" y2="600" style="stroke:#800;stroke-width:10;stroke-opacity:1.000000;stroke-linecap:round"/>
  <circle cx="285" cy="600" r="35"
    style="fill:none;stroke:#800;stroke-width:10"  />
  <g transform="translate(329,594) rotate(0)" > <text font-size="83.3333333333" fill="#800" font-family="monospace"  >
   11
  </text> </g> 
  <g transform="translate(9,635) rotate(0)" > <text font-size="83.3333333333" fill="#088" font-family="monospace"  >
   ~2Y1
  </text> </g> 
  <circle cx="550" cy="600" r="10"
    style="fill:none;stroke:#800;stroke-width:2"  />
  <line x1="550" y1="200" x2="320" y2="200" style="stroke:#800;stroke-width:10;stroke-opacity:1.000000;stroke-linecap:round"/>
  <circle cx="285" cy="200" r="35"
    style="fill:none;stroke:#800;stroke-width:10"  />
  <g transform="translate(364,194) rotate(0)" > <text font-size="83.3333333333" fill="#800" font-family="monospace"  >
   9
  </text> </g> 
  <g transform="translate(9,235) rotate(0)" > <text font-size="83.3333333333" fill="#088" font-family="monospace"  >
   ~1Y4
  </text> </g> 
  <circle cx="550" cy="200" r="10"
    style="fill:none;stroke:#800;stroke-width:2"  />
  <line x1="550" y1="100" x2="320" y2="100" style="stroke:#800;stroke-width:10;stroke-opacity:1.000000;stroke-linecap:round"/>
  <circle cx="285" cy="100" r="35"
    style="fill:none;stroke:#800;stroke-width:10"  />
  <g transform="translate(364,94) rotate(0)" > <text font-size="83.3333333333" fill="#800" font-family="monospace"  >
   7
  </text> </g> 
  <g transform="translate(9,135) rotate(0)" > <text font-size="83.3333333333" fill="#088" font-family="monospace"  >
   ~1Y3
  </text> </g> 
  <circle cx="550" cy="100" r="10"
    style="fill:none;stroke:#800;stroke-width:2"  />
  <line x1="550" y1="0" x2="320" y2="0" style="stroke:#800;stroke-width:10;stroke-opacity:1.000000;stroke-linecap:round"/>
  <circle cx="285" cy="0" r="35"
    style="fill:none;stroke:#800;stroke-width:10"  />
  <g transform="translate(364,-6) rotate(0)" > <text font-size="83.3333333333" fill="#800" font-family="monospace"  >
   5
  </text> </g> 
  <g transform="translate(9,35) rotate(0)" > <text font-size="83.3333333333" fill="#088" font-family="monospace"  >
   ~1Y2
  </text> </g> 
  <circle cx="550" cy="0" r="10"
    style="fill:none;stroke:#800;stroke-width:2"  />
  <line x1="550" y1="-100" x2="320" y2="-100" style="stroke:#800;stroke-width:10;stroke-opacity:1.000000;stroke-linecap:round"/>
  <circle cx="285" cy="-100" r="35"
    style="fill:none;stroke:#800;stroke-width:10"  />
  <g transform="translate(364,-106) rotate(0)" > <text font-size="83.3333333333" fill="#800" font-family="monospace"  >
   3
  </text> </g> 
  <g transform="translate(9,-65) rotate(0)" > <text font-size="83.3333333333" fill="#088" font-family="monospace"  >
   ~1Y1
  </text> </g> 
  <circle cx="550" cy="-100" r="10"
    style="fill:none;stroke:#800;stroke-width:2"  />
  <line x1="-550" y1="700" x2="-250" y2="700" style="stroke:#800;stroke-width:10;stroke-opacity:1.000000;stroke-linecap:round"/>
  <g transform="translate(-470,694) rotate(0)" > <text font-size="83.3333333333" fill="#800" font-family="monospace"  >
   14
  </text> </g> 
  <g transform="translate(-232,735) rotate(0)" > <text font-size="83.3333333333" fill="#088" font-family="monospace"  >
   2I2
  </text> </g> 
  <circle cx="-550" cy="700" r="10"
    style="fill:none;stroke:#800;stroke-width:2"  />
  <line x1="-550" y1="600" x2="-250" y2="600" style="stroke:#800;stroke-width:10;stroke-opacity:1.000000;stroke-linecap:round"/>
  <g transform="translate(-470,594) rotate(0)" > <text font-size="83.3333333333" fill="#800" font-family="monospace"  >
   12
  </text> </g> 
  <g transform="translate(-232,635) rotate(0)" > <text font-size="83.3333333333" fill="#088" font-family="monospace"  >
   2I1
  </text> </g> 
  <circle cx="-550" cy="600" r="10"
    style="fill:none;stroke:#800;stroke-width:2"  />
  <line x1="-550" y1="450" x2="-320" y2="450" style="stroke:#800;stroke-width:10;stroke-opacity:1.000000;stroke-linecap:round"/>
  <circle cx="-285" cy="450" r="35"
    style="fill:none;stroke:#800;stroke-width:10"  />
  <g transform="translate(-470,444) rotate(0)" > <text font-size="83.3333333333" fill="#800" font-family="monospace"  >
   15
  </text> </g> 
  <g transform="translate(-232,485) rotate(0)" > <text font-size="83.3333333333" fill="#088" font-family="monospace"  >
   ~2G
  </text> </g> 
  <circle cx="-550" cy="450" r="10"
    style="fill:none;stroke:#800;stroke-width:2"  />
  <line x1="-550" y1="200" x2="-250" y2="200" style="stroke:#800;stroke-width:10;stroke-opacity:1.000000;stroke-linecap:round"/>
  <g transform="translate(-470,194) rotate(0)" > <text font-size="83.3333333333" fill="#800" font-family="monospace"  >
   10
  </text> </g> 
  <g transform="translate(-232,235) rotate(0)" > <text font-size="83.3333333333" fill="#088" font-family="monospace"  >
   1I4
  </text> </g> 
  <circle cx="-550" cy="200" r="10"
    style="fill:none;stroke:#800;stroke-width:2"  />
  <line x1="-550" y1="100" x2="-250" y2="100" style="stroke:#800;stroke-width:10;stroke-opacity:1.000000;stroke-linecap:round"/>
  <g transform="translate(-435,94) rotate(0)" > <text font-size="83.3333333333" fill="#800" font-family="monospace"  >
   6
  </text> </g> 
  <g transform="translate(-232,135) rotate(0)" > <text font-size="83.3333333333" fill="#088" font-family="monospace"  >
   1I3
  </text> </g> 
  <circle cx="-550" cy="100" r="10"
    style="fill:none;stroke:#800;stroke-width:2"  />
  <line x1="-550" y1="0" x2="-250" y2="0" style="stroke:#800;stroke-width:10;stroke-opacity:1.000000;stroke-linecap:round"/>
  <g transform="translate(-435,-6) rotate(0)" > <text font-size="83.3333333333" fill="#800" font-family="monospace"  >
   4
  </text> </g> 
  <g transform="translate(-232,35) rotate(0)" > <text font-size="83.3333333333" fill="#088" font-family="monospace"  >
   1I2
  </text> </g> 
  <circle cx="-550" cy="0" r="10"
    style="fill:none;stroke:#800;stroke-width:2"  />
  <line x1="-550" y1="-100" x2="-250" y2="-100" style="stroke:#800;stroke-width:10;stroke-opacity:1.000000;stroke-linecap:round"/>
  <g transform="translate(-435,-106) rotate(0)" > <text font-size="83.3333333333" fill="#800" font-family="monospace"  >
   2
  </text> </g> 
  <g transform="translate(-232,-65) rotate(0)" > <text font-size="83.3333333333" fill="#088" font-family="monospace"  >
   1I1
  </text> </g> 
  <circle cx="-550" cy="-100" r="10"
    style="fill:none;stroke:#800;stroke-width:2"  />
  <line x1="-550" y1="-250" x2="-320" y2="-250" style="stroke:#800;stroke-width:10;stroke-opacity:1.000000;stroke-linecap:round"/>
  <circle cx="-285" cy="-250" r="35"
    style="fill:none;stroke:#800;stroke-width:10"  />
  <g transform="translate(-435,-256) rotate(0)" > <text font-size="83.3333333333" fill="#800" font-family="monospace"  >
   1
  </text> </g> 
  <g transform="translate(-232,-215) rotate(0)" > <text font-size="83.3333333333" fill="#088" font-family="monospace"  >
   ~1G
  </text> </g> 
  <circle cx="-550" cy="-250" r="10"
    style="fill:none;stroke:#800;stroke-width:2"  />
 </g>
</svg>
