<?xml version="1.0"?>
<svg height="177" width="196"  >
 <g style="fill-opacity:1.0; stroke:black;
  stroke-width:1;" transform=" translate( 98.25,88.5 ) scale( 0.15,0.15 )">
  <g transform="translate(230,70) rotate(0)" > <text font-size="66.6666666667" fill="#088" font-family="monospace"  >
   Q
  </text> </g> 
  <g transform="translate(110,-20) rotate(0)" > <text font-size="100.0" fill="#088" font-family="monospace"  >
   MOSN-SO8
  </text> </g> 
  <line x1="-50" y1="100" x2="-50" y2="-100" style="stroke:#800;stroke-width:10;stroke-opacity:1.000000;stroke-linecap:round"/>
  <line x1="0" y1="150" x2="0" y2="-150" style="stroke:#800;stroke-width:10;stroke-opacity:1.000000;stroke-linecap:round"/>
  <line x1="100" y1="100" x2="0" y2="100" style="stroke:#800;stroke-width:10;stroke-opacity:1.000000;stroke-linecap:round"/>
  <line x1="100" y1="-100" x2="0" y2="-100" style="stroke:#800;stroke-width:10;stroke-opacity:1.000000;stroke-linecap:round"/>
<polygon points=" 50,30 0,0 50,-30" 
style="fill:#800;stroke:#800;stroke-width:10"/>
  <line x1="100" y1="100" x2="100" y2="0" style="stroke:#800;stroke-width:10;stroke-opacity:1.000000;stroke-linecap:round"/>
  <line x1="100" y1="0" x2="50" y2="0" style="stroke:#800;stroke-width:10;stroke-opacity:1.000000;stroke-linecap:round"/>
  <line x1="100" y1="100" x2="200" y2="100" style="stroke:#800;stroke-width:10;stroke-opacity:1.000000;stroke-linecap:round"/>
  <line x1="200" y1="100" x2="200" y2="100" style="stroke:#800;stroke-width:10;stroke-opacity:1.000000;stroke-linecap:round"/>
  <line x1="100" y1="-100" x2="200" y2="-100" style="stroke:#800;stroke-width:10;stroke-opacity:1.000000;stroke-linecap:round"/>
  <line x1="200" y1="-100" x2="200" y2="-100" style="stroke:#800;stroke-width:10;stroke-opacity:1.000000;stroke-linecap:round"/>
  <line x1="200" y1="100" x2="300" y2="100" style="stroke:#800;stroke-width:10;stroke-opacity:1.000000;stroke-linecap:round"/>
  <line x1="300" y1="100" x2="300" y2="100" style="stroke:#800;stroke-width:10;stroke-opacity:1.000000;stroke-linecap:round"/>
  <line x1="200" y1="-100" x2="300" y2="-100" style="stroke:#800;stroke-width:10;stroke-opacity:1.000000;stroke-linecap:round"/>
  <line x1="300" y1="-100" x2="300" y2="-100" style="stroke:#800;stroke-width:10;stroke-opacity:1.000000;stroke-linecap:round"/>
  <line x1="300" y1="-100" x2="400" y2="-100" style="stroke:#800;stroke-width:10;stroke-opacity:1.000000;stroke-linecap:round"/>
  <line x1="400" y1="-100" x2="400" y2="-100" style="stroke:#800;stroke-width:10;stroke-opacity:1.000000;stroke-linecap:round"/>
  <line x1="100" y1="200" x2="100" y2="100" style="stroke:#800;stroke-width:10;stroke-opacity:1.000000;stroke-linecap:round"/>
  <g transform="translate(92,157) rotate(-90)" > <text font-size="50.0" fill="#800" font-family="monospace"  >
   1
  </text> </g> 
  <g transform="translate(103,75) rotate(-90)" > <text font-size="50.0" fill="#088" font-family="monospace"  >
   S
  </text> </g> 
  <circle cx="100" cy="200" r="10"
    style="fill:none;stroke:#800;stroke-width:2"  />
  <line x1="200" y1="200" x2="200" y2="100" style="stroke:#800;stroke-width:10;stroke-opacity:1.000000;stroke-linecap:round"/>
  <g transform="translate(192,157) rotate(-90)" > <text font-size="50.0" fill="#800" font-family="monospace"  >
   2
  </text> </g> 
  <g transform="translate(203,75) rotate(-90)" > <text font-size="50.0" fill="#088" font-family="monospace"  >
   S
  </text> </g> 
  <circle cx="200" cy="200" r="10"
    style="fill:none;stroke:#800;stroke-width:2"  />
  <line x1="300" y1="200" x2="300" y2="100" style="stroke:#800;stroke-width:10;stroke-opacity:1.000000;stroke-linecap:round"/>
  <g transform="translate(292,157) rotate(-90)" > <text font-size="50.0" fill="#800" font-family="monospace"  >
   3
  </text> </g> 
  <g transform="translate(303,75) rotate(-90)" > <text font-size="50.0" fill="#088" font-family="monospace"  >
   S
  </text> </g> 
  <circle cx="300" cy="200" r="10"
    style="fill:none;stroke:#800;stroke-width:2"  />
  <line x1="-200" y1="0" x2="-50" y2="0" style="stroke:#800;stroke-width:10;stroke-opacity:1.000000;stroke-linecap:round"/>
  <g transform="translate(-153,-6) rotate(0)" > <text font-size="66.6666666667" fill="#800" font-family="monospace"  >
   4
  </text> </g> 
  <g transform="translate(-32,30) rotate(0)" > <text font-size="66.6666666667" fill="#088" font-family="monospace"  >
   G
  </text> </g> 
  <circle cx="-200" cy="0" r="10"
    style="fill:none;stroke:#800;stroke-width:2"  />
  <line x1="100" y1="-200" x2="100" y2="-100" style="stroke:#800;stroke-width:10;stroke-opacity:1.000000;stroke-linecap:round"/>
  <g transform="translate(92,-142) rotate(-90)" > <text font-size="50.0" fill="#800" font-family="monospace"  >
   5
  </text> </g> 
  <g transform="translate(103,-45) rotate(-90)" > <text font-size="50.0" fill="#088" font-family="monospace"  >
   D
  </text> </g> 
  <circle cx="100" cy="-200" r="10"
    style="fill:none;stroke:#800;stroke-width:2"  />
  <line x1="200" y1="-200" x2="200" y2="-100" style="stroke:#800;stroke-width:10;stroke-opacity:1.000000;stroke-linecap:round"/>
  <g transform="translate(192,-142) rotate(-90)" > <text font-size="50.0" fill="#800" font-family="monospace"  >
   6
  </text> </g> 
  <g transform="translate(203,-45) rotate(-90)" > <text font-size="50.0" fill="#088" font-family="monospace"  >
   D
  </text> </g> 
  <circle cx="200" cy="-200" r="10"
    style="fill:none;stroke:#800;stroke-width:2"  />
  <line x1="300" y1="-200" x2="300" y2="-100" style="stroke:#800;stroke-width:10;stroke-opacity:1.000000;stroke-linecap:round"/>
  <g transform="translate(292,-142) rotate(-90)" > <text font-size="50.0" fill="#800" font-family="monospace"  >
   7
  </text> </g> 
  <g transform="translate(303,-45) rotate(-90)" > <text font-size="50.0" fill="#088" font-family="monospace"  >
   D
  </text> </g> 
  <circle cx="300" cy="-200" r="10"
    style="fill:none;stroke:#800;stroke-width:2"  />
  <line x1="400" y1="-200" x2="400" y2="-100" style="stroke:#800;stroke-width:10;stroke-opacity:1.000000;stroke-linecap:round"/>
  <g transform="translate(392,-142) rotate(-90)" > <text font-size="50.0" fill="#800" font-family="monospace"  >
   8
  </text> </g> 
  <g transform="translate(403,-45) rotate(-90)" > <text font-size="50.0" fill="#088" font-family="monospace"  >
   D
  </text> </g> 
  <circle cx="400" cy="-200" r="10"
    style="fill:none;stroke:#800;stroke-width:2"  />
 </g>
</svg>
