<?xml version="1.0"?>
<svg height="132" width="145"  >
 <g style="fill-opacity:1.0; stroke:black;
  stroke-width:1;" transform=" translate( 72.75,66.0 ) scale( 0.15,0.15 )">
  <g transform="translate(120,180) rotate(0)" > <text font-size="100.0" fill="#088" font-family="monospace"  >
   Q
  </text> </g> 
  <g transform="translate(-30,-120) rotate(0)" > <text font-size="100.0" fill="#088" font-family="monospace"  >
   MPSA42
  </text> </g> 
  <circle cx="50" cy="0" r="111"
    style="fill:none;stroke:#800;stroke-width:10"  />
  <line x1="0" y1="0" x2="100" y2="-100" style="stroke:#800;stroke-width:10;stroke-opacity:1.000000;stroke-linecap:round"/>
  <line x1="0" y1="-75" x2="0" y2="75" style="stroke:#800;stroke-width:10;stroke-opacity:1.000000;stroke-linecap:round"/>
  <line x1="0" y1="75" x2="0" y2="75" style="stroke:#800;stroke-width:10;stroke-opacity:1.000000;stroke-linecap:round"/>
  <line x1="50" y1="50" x2="0" y2="0" style="stroke:#800;stroke-width:10;stroke-opacity:1.000000;stroke-linecap:round"/>
  <line x1="0" y1="0" x2="0" y2="0" style="stroke:#800;stroke-width:10;stroke-opacity:1.000000;stroke-linecap:round"/>
  <line x1="90" y1="90" x2="100" y2="100" style="stroke:#800;stroke-width:10;stroke-opacity:1.000000;stroke-linecap:round"/>
  <line x1="100" y1="100" x2="100" y2="100" style="stroke:#800;stroke-width:10;stroke-opacity:1.000000;stroke-linecap:round"/>
<polygon points=" 90,90 70,30 30,70 90,90 90,90" 
style="fill:#800;stroke:#800;stroke-width:10"/>
  <line x1="-200" y1="0" x2="0" y2="0" style="stroke:#800;stroke-width:10;stroke-opacity:1.000000;stroke-linecap:round"/>
  <g transform="translate(-128,-6) rotate(0)" > <text font-size="66.6666666667" fill="#800" font-family="monospace"  >
   B
  </text> </g> 
  <circle cx="-200" cy="0" r="10"
    style="fill:none;stroke:#800;stroke-width:2"  />
  <line x1="100" y1="-200" x2="100" y2="-100" style="stroke:#800;stroke-width:10;stroke-opacity:1.000000;stroke-linecap:round"/>
  <g transform="translate(90,-140) rotate(-90)" > <text font-size="66.6666666667" fill="#800" font-family="monospace"  >
   C
  </text> </g> 
  <circle cx="100" cy="-200" r="10"
    style="fill:none;stroke:#800;stroke-width:2"  />
  <line x1="100" y1="200" x2="100" y2="100" style="stroke:#800;stroke-width:10;stroke-opacity:1.000000;stroke-linecap:round"/>
  <g transform="translate(90,160) rotate(-90)" > <text font-size="66.6666666667" fill="#800" font-family="monospace"  >
   E
  </text> </g> 
  <circle cx="100" cy="200" r="10"
    style="fill:none;stroke:#800;stroke-width:2"  />
 </g>
</svg>
