<?xml version="1.0"?>
<svg height="100" width="102"  >
 <g style="fill-opacity:1.0; stroke:black;
  stroke-width:1;" transform=" translate( 51.0,50.25 ) scale( 0.15,0.15 )">
  <g transform="translate(-70,170) rotate(0)" > <text font-size="66.6666666667" fill="#088" font-family="monospace"  >
   Q
  </text> </g> 
  <g transform="translate(-120,-130) rotate(0)" > <text font-size="66.6666666667" fill="#088" font-family="monospace"  >
   TIP125
  </text> </g> 
  <circle cx="-30" cy="0" r="5"
    style="fill:none;stroke:#800;stroke-width:10"  />
  <circle cx="30" cy="80" r="5"
    style="fill:none;stroke:#800;stroke-width:10"  />
  <circle cx="30" cy="10" r="5"
    style="fill:none;stroke:#800;stroke-width:10"  />
  <circle cx="50" cy="0" r="125"
    style="fill:none;stroke:#800;stroke-width:10"  />
  <circle cx="100" cy="80" r="5"
    style="fill:none;stroke:#800;stroke-width:10"  />
  <circle cx="100" cy="60" r="5"
    style="fill:none;stroke:#800;stroke-width:10"  />
  <circle cx="100" cy="-40" r="5"
    style="fill:none;stroke:#800;stroke-width:10"  />
  <circle cx="100" cy="-90" r="5"
    style="fill:none;stroke:#800;stroke-width:10"  />
  <line x1="-50" y1="0" x2="-35" y2="0" style="stroke:#800;stroke-width:10;stroke-opacity:1.000000;stroke-linecap:round"/>
  <line x1="100" y1="80" x2="100" y2="100" style="stroke:#800;stroke-width:10;stroke-opacity:1.000000;stroke-linecap:round"/>
  <line x1="100" y1="60" x2="125" y2="60" style="stroke:#800;stroke-width:10;stroke-opacity:1.000000;stroke-linecap:round"/>
  <line x1="110" y1="25" x2="140" y2="25" style="stroke:#800;stroke-width:10;stroke-opacity:1.000000;stroke-linecap:round"/>
  <line x1="125" y1="60" x2="125" y2="25" style="stroke:#800;stroke-width:10;stroke-opacity:1.000000;stroke-linecap:round"/>
  <line x1="125" y1="-5" x2="125" y2="-40" style="stroke:#800;stroke-width:10;stroke-opacity:1.000000;stroke-linecap:round"/>
  <line x1="125" y1="-40" x2="100" y2="-40" style="stroke:#800;stroke-width:10;stroke-opacity:1.000000;stroke-linecap:round"/>
  <line x1="125" y1="-105" x2="145" y2="-130" style="stroke:#800;stroke-width:10;stroke-opacity:1.000000;stroke-linecap:round"/>
  <line x1="130" y1="100" x2="150" y2="125" style="stroke:#800;stroke-width:10;stroke-opacity:1.000000;stroke-linecap:round"/>
  <line x1="165" y1="60" x2="190" y2="75" style="stroke:#800;stroke-width:10;stroke-opacity:1.000000;stroke-linecap:round"/>
  <line x1="165" y1="-60" x2="190" y2="-75" style="stroke:#800;stroke-width:10;stroke-opacity:1.000000;stroke-linecap:round"/>
  <line x1="180" y1="0" x2="210" y2="0" style="stroke:#800;stroke-width:10;stroke-opacity:1.000000;stroke-linecap:round"/>
  <line x1="-10" y1="-30" x2="30" y2="10" style="stroke:#800;stroke-width:10;stroke-opacity:1.000000;stroke-linecap:round"/>
  <line x1="30" y1="10" x2="50" y2="10" style="stroke:#800;stroke-width:10;stroke-opacity:1.000000;stroke-linecap:round"/>
  <line x1="-10" y1="-40" x2="-30" y2="-40" style="stroke:#800;stroke-width:10;stroke-opacity:1.000000;stroke-linecap:round"/>
  <line x1="-30" y1="-40" x2="-30" y2="80" style="stroke:#800;stroke-width:10;stroke-opacity:1.000000;stroke-linecap:round"/>
  <line x1="-10" y1="-50" x2="30" y2="-90" style="stroke:#800;stroke-width:10;stroke-opacity:1.000000;stroke-linecap:round"/>
  <line x1="30" y1="-90" x2="100" y2="-90" style="stroke:#800;stroke-width:10;stroke-opacity:1.000000;stroke-linecap:round"/>
  <line x1="-10" y1="-80" x2="-10" y2="0" style="stroke:#800;stroke-width:10;stroke-opacity:1.000000;stroke-linecap:round"/>
  <line x1="-10" y1="0" x2="-10" y2="0" style="stroke:#800;stroke-width:10;stroke-opacity:1.000000;stroke-linecap:round"/>
  <line x1="50" y1="-30" x2="50" y2="50" style="stroke:#800;stroke-width:10;stroke-opacity:1.000000;stroke-linecap:round"/>
  <line x1="50" y1="50" x2="50" y2="50" style="stroke:#800;stroke-width:10;stroke-opacity:1.000000;stroke-linecap:round"/>
  <line x1="0" y1="-20" x2="10" y2="0" style="stroke:#800;stroke-width:10;stroke-opacity:1.000000;stroke-linecap:round"/>
  <line x1="10" y1="0" x2="20" y2="-10" style="stroke:#800;stroke-width:10;stroke-opacity:1.000000;stroke-linecap:round"/>
  <line x1="20" y1="-10" x2="0" y2="-20" style="stroke:#800;stroke-width:10;stroke-opacity:1.000000;stroke-linecap:round"/>
  <line x1="50" y1="20" x2="90" y2="60" style="stroke:#800;stroke-width:10;stroke-opacity:1.000000;stroke-linecap:round"/>
  <line x1="90" y1="60" x2="100" y2="60" style="stroke:#800;stroke-width:10;stroke-opacity:1.000000;stroke-linecap:round"/>
  <line x1="100" y1="60" x2="100" y2="80" style="stroke:#800;stroke-width:10;stroke-opacity:1.000000;stroke-linecap:round"/>
  <line x1="50" y1="0" x2="90" y2="-40" style="stroke:#800;stroke-width:10;stroke-opacity:1.000000;stroke-linecap:round"/>
  <line x1="90" y1="-40" x2="100" y2="-40" style="stroke:#800;stroke-width:10;stroke-opacity:1.000000;stroke-linecap:round"/>
  <line x1="100" y1="-40" x2="100" y2="-90" style="stroke:#800;stroke-width:10;stroke-opacity:1.000000;stroke-linecap:round"/>
  <line x1="60" y1="30" x2="70" y2="50" style="stroke:#800;stroke-width:10;stroke-opacity:1.000000;stroke-linecap:round"/>
  <line x1="70" y1="50" x2="80" y2="40" style="stroke:#800;stroke-width:10;stroke-opacity:1.000000;stroke-linecap:round"/>
  <line x1="80" y1="40" x2="60" y2="30" style="stroke:#800;stroke-width:10;stroke-opacity:1.000000;stroke-linecap:round"/>
<polygon points=" 125,25 110,-5 140,-5 125,25" 
style="fill:#800;stroke:#800;stroke-width:10"/>
  <line x1="30" y1="80" x2="15" y2="80" style="stroke:#800;stroke-width:10;stroke-opacity:1.000000;stroke-linecap:round"/>
  <line x1="15" y1="80" x2="10" y2="90" style="stroke:#800;stroke-width:10;stroke-opacity:1.000000;stroke-linecap:round"/>
  <line x1="10" y1="90" x2="5" y2="70" style="stroke:#800;stroke-width:10;stroke-opacity:1.000000;stroke-linecap:round"/>
  <line x1="5" y1="70" x2="0" y2="90" style="stroke:#800;stroke-width:10;stroke-opacity:1.000000;stroke-linecap:round"/>
  <line x1="0" y1="90" x2="-5" y2="70" style="stroke:#800;stroke-width:10;stroke-opacity:1.000000;stroke-linecap:round"/>
  <line x1="-5" y1="70" x2="-10" y2="90" style="stroke:#800;stroke-width:10;stroke-opacity:1.000000;stroke-linecap:round"/>
  <line x1="-10" y1="90" x2="-15" y2="70" style="stroke:#800;stroke-width:10;stroke-opacity:1.000000;stroke-linecap:round"/>
  <line x1="-15" y1="70" x2="-20" y2="80" style="stroke:#800;stroke-width:10;stroke-opacity:1.000000;stroke-linecap:round"/>
  <line x1="-20" y1="80" x2="-30" y2="80" style="stroke:#800;stroke-width:10;stroke-opacity:1.000000;stroke-linecap:round"/>
  <line x1="30" y1="10" x2="30" y2="80" style="stroke:#800;stroke-width:10;stroke-opacity:1.000000;stroke-linecap:round"/>
  <line x1="30" y1="80" x2="45" y2="80" style="stroke:#800;stroke-width:10;stroke-opacity:1.000000;stroke-linecap:round"/>
  <line x1="45" y1="80" x2="50" y2="70" style="stroke:#800;stroke-width:10;stroke-opacity:1.000000;stroke-linecap:round"/>
  <line x1="50" y1="70" x2="55" y2="90" style="stroke:#800;stroke-width:10;stroke-opacity:1.000000;stroke-linecap:round"/>
  <line x1="55" y1="90" x2="60" y2="70" style="stroke:#800;stroke-width:10;stroke-opacity:1.000000;stroke-linecap:round"/>
  <line x1="60" y1="70" x2="65" y2="90" style="stroke:#800;stroke-width:10;stroke-opacity:1.000000;stroke-linecap:round"/>
  <line x1="65" y1="90" x2="70" y2="70" style="stroke:#800;stroke-width:10;stroke-opacity:1.000000;stroke-linecap:round"/>
  <line x1="70" y1="70" x2="75" y2="90" style="stroke:#800;stroke-width:10;stroke-opacity:1.000000;stroke-linecap:round"/>
  <line x1="75" y1="90" x2="80" y2="80" style="stroke:#800;stroke-width:10;stroke-opacity:1.000000;stroke-linecap:round"/>
  <line x1="80" y1="80" x2="100" y2="80" style="stroke:#800;stroke-width:10;stroke-opacity:1.000000;stroke-linecap:round"/>
  <line x1="-200" y1="0" x2="-50" y2="0" style="stroke:#800;stroke-width:10;stroke-opacity:1.000000;stroke-linecap:round"/>
  <g transform="translate(-153,-6) rotate(0)" > <text font-size="66.6666666667" fill="#800" font-family="monospace"  >
   1
  </text> </g> 
  <g transform="translate(-32,30) rotate(0)" > <text font-size="66.6666666667" fill="#088" font-family="monospace"  >
   B
  </text> </g> 
  <circle cx="-200" cy="0" r="10"
    style="fill:none;stroke:#800;stroke-width:2"  />
  <line x1="100" y1="-200" x2="100" y2="-95" style="stroke:#800;stroke-width:10;stroke-opacity:1.000000;stroke-linecap:round"/>
  <g transform="translate(90,-137) rotate(-90)" > <text font-size="66.6666666667" fill="#800" font-family="monospace"  >
   2
  </text> </g> 
  <g transform="translate(105,-21) rotate(-90)" > <text font-size="66.6666666667" fill="#088" font-family="monospace"  >
   C
  </text> </g> 
  <circle cx="100" cy="-200" r="10"
    style="fill:none;stroke:#800;stroke-width:2"  />
  <line x1="100" y1="200" x2="100" y2="100" style="stroke:#800;stroke-width:10;stroke-opacity:1.000000;stroke-linecap:round"/>
  <g transform="translate(90,160) rotate(-90)" > <text font-size="66.6666666667" fill="#800" font-family="monospace"  >
   3
  </text> </g> 
  <g transform="translate(105,66) rotate(-90)" > <text font-size="66.6666666667" fill="#088" font-family="monospace"  >
   E
  </text> </g> 
  <circle cx="100" cy="200" r="10"
    style="fill:none;stroke:#800;stroke-width:2"  />
 </g>
</svg>
