<?xml version="1.0"?>
<svg height="980" width="980"  >
 <g style="fill-opacity:1.0; stroke:black;
  stroke-width:1;" transform=" translate( 490.0,490.0 ) scale( 0.15,0.15 )">
  <g transform="translate(-35,-65) rotate(0)" > <text font-size="116.666666667" fill="#088" font-family="monospace"  >
   U
  </text> </g> 
  <g transform="translate(0,100) rotate(0)" > <text font-size="116.666666667" fill="#088" font-family="monospace"  >
   BT253
  </text> </g> 
  <rect x="-750" y="-2600" height="5200"
    width="1500" style="fill:none;stroke:#800;stroke-width:10" />
  <line x1="150" y1="2900" x2="150" y2="2600" style="stroke:#800;stroke-width:10;stroke-opacity:1.000000;stroke-linecap:round"/>
  <g transform="translate(135,2780) rotate(-90)" > <text font-size="100.0" fill="#800" font-family="monospace"  >
   42
  </text> </g> 
  <g transform="translate(157,2550) rotate(-90)" > <text font-size="100.0" fill="#088" font-family="monospace"  >
   GND
  </text> </g> 
  <circle cx="150" cy="2900" r="10"
    style="fill:none;stroke:#800;stroke-width:2"  />
  <line x1="50" y1="2900" x2="50" y2="2600" style="stroke:#800;stroke-width:10;stroke-opacity:1.000000;stroke-linecap:round"/>
  <g transform="translate(35,2780) rotate(-90)" > <text font-size="100.0" fill="#800" font-family="monospace"  >
   41
  </text> </g> 
  <g transform="translate(57,2550) rotate(-90)" > <text font-size="100.0" fill="#088" font-family="monospace"  >
   GND
  </text> </g> 
  <circle cx="50" cy="2900" r="10"
    style="fill:none;stroke:#800;stroke-width:2"  />
  <line x1="-50" y1="2900" x2="-50" y2="2600" style="stroke:#800;stroke-width:10;stroke-opacity:1.000000;stroke-linecap:round"/>
  <g transform="translate(-65,2765) rotate(-90)" > <text font-size="100.0" fill="#800" font-family="monospace"  >
   3
  </text> </g> 
  <g transform="translate(-42,2550) rotate(-90)" > <text font-size="100.0" fill="#088" font-family="monospace"  >
   GND
  </text> </g> 
  <circle cx="-50" cy="2900" r="10"
    style="fill:none;stroke:#800;stroke-width:2"  />
  <line x1="-150" y1="2900" x2="-150" y2="2600" style="stroke:#800;stroke-width:10;stroke-opacity:1.000000;stroke-linecap:round"/>
  <g transform="translate(-165,2765) rotate(-90)" > <text font-size="100.0" fill="#800" font-family="monospace"  >
   2
  </text> </g> 
  <g transform="translate(-142,2550) rotate(-90)" > <text font-size="100.0" fill="#088" font-family="monospace"  >
   GND
  </text> </g> 
  <circle cx="-150" cy="2900" r="10"
    style="fill:none;stroke:#800;stroke-width:2"  />
  <line x1="150" y1="-2900" x2="150" y2="-2600" style="stroke:#800;stroke-width:10;stroke-opacity:1.000000;stroke-linecap:round"/>
  <g transform="translate(135,-2720) rotate(-90)" > <text font-size="100.0" fill="#800" font-family="monospace"  >
   44
  </text> </g> 
  <g transform="translate(157,-2370) rotate(-90)" > <text font-size="100.0" fill="#088" font-family="monospace"  >
   VAA
  </text> </g> 
  <circle cx="150" cy="-2900" r="10"
    style="fill:none;stroke:#800;stroke-width:2"  />
  <line x1="50" y1="-2900" x2="50" y2="-2600" style="stroke:#800;stroke-width:10;stroke-opacity:1.000000;stroke-linecap:round"/>
  <g transform="translate(35,-2720) rotate(-90)" > <text font-size="100.0" fill="#800" font-family="monospace"  >
   43
  </text> </g> 
  <g transform="translate(57,-2370) rotate(-90)" > <text font-size="100.0" fill="#088" font-family="monospace"  >
   VAA
  </text> </g> 
  <circle cx="50" cy="-2900" r="10"
    style="fill:none;stroke:#800;stroke-width:2"  />
  <line x1="-50" y1="-2900" x2="-50" y2="-2600" style="stroke:#800;stroke-width:10;stroke-opacity:1.000000;stroke-linecap:round"/>
  <g transform="translate(-65,-2735) rotate(-90)" > <text font-size="100.0" fill="#800" font-family="monospace"  >
   1
  </text> </g> 
  <g transform="translate(-42,-2370) rotate(-90)" > <text font-size="100.0" fill="#088" font-family="monospace"  >
   VAA
  </text> </g> 
  <circle cx="-50" cy="-2900" r="10"
    style="fill:none;stroke:#800;stroke-width:2"  />
  <line x1="-150" y1="-2900" x2="-150" y2="-2600" style="stroke:#800;stroke-width:10;stroke-opacity:1.000000;stroke-linecap:round"/>
  <g transform="translate(-165,-2720) rotate(-90)" > <text font-size="100.0" fill="#800" font-family="monospace"  >
   84
  </text> </g> 
  <g transform="translate(-142,-2370) rotate(-90)" > <text font-size="100.0" fill="#088" font-family="monospace"  >
   VAA
  </text> </g> 
  <circle cx="-150" cy="-2900" r="10"
    style="fill:none;stroke:#800;stroke-width:2"  />
  <line x1="-1050" y1="2000" x2="-750" y2="2000" style="stroke:#800;stroke-width:10;stroke-opacity:1.000000;stroke-linecap:round"/>
  <g transform="translate(-985,1994) rotate(0)" > <text font-size="100.0" fill="#800" font-family="monospace"  >
   19
  </text> </g> 
  <g transform="translate(-732,2040) rotate(0)" > <text font-size="100.0" fill="#088" font-family="monospace"  >
   A2
  </text> </g> 
  <circle cx="-1050" cy="2000" r="10"
    style="fill:none;stroke:#800;stroke-width:2"  />
  <line x1="-1050" y1="1900" x2="-750" y2="1900" style="stroke:#800;stroke-width:10;stroke-opacity:1.000000;stroke-linecap:round"/>
  <g transform="translate(-985,1894) rotate(0)" > <text font-size="100.0" fill="#800" font-family="monospace"  >
   18
  </text> </g> 
  <g transform="translate(-732,1940) rotate(0)" > <text font-size="100.0" fill="#088" font-family="monospace"  >
   A1
  </text> </g> 
  <circle cx="-1050" cy="1900" r="10"
    style="fill:none;stroke:#800;stroke-width:2"  />
  <line x1="-1050" y1="1800" x2="-750" y2="1800" style="stroke:#800;stroke-width:10;stroke-opacity:1.000000;stroke-linecap:round"/>
  <g transform="translate(-985,1794) rotate(0)" > <text font-size="100.0" fill="#800" font-family="monospace"  >
   17
  </text> </g> 
  <g transform="translate(-732,1840) rotate(0)" > <text font-size="100.0" fill="#088" font-family="monospace"  >
   A0
  </text> </g> 
  <circle cx="-1050" cy="1800" r="10"
    style="fill:none;stroke:#800;stroke-width:2"  />
  <line x1="-1050" y1="1600" x2="-820" y2="1600" style="stroke:#800;stroke-width:10;stroke-opacity:1.000000;stroke-linecap:round"/>
  <circle cx="-785" cy="1600" r="35"
    style="fill:none;stroke:#800;stroke-width:10"  />
  <g transform="translate(-985,1594) rotate(0)" > <text font-size="100.0" fill="#800" font-family="monospace"  >
   24
  </text> </g> 
  <g transform="translate(-732,1640) rotate(0)" > <text font-size="100.0" fill="#088" font-family="monospace"  >
   WR
  </text> </g> 
  <circle cx="-1050" cy="1600" r="10"
    style="fill:none;stroke:#800;stroke-width:2"  />
  <line x1="-1050" y1="1500" x2="-820" y2="1500" style="stroke:#800;stroke-width:10;stroke-opacity:1.000000;stroke-linecap:round"/>
  <circle cx="-785" cy="1500" r="35"
    style="fill:none;stroke:#800;stroke-width:10"  />
  <g transform="translate(-985,1494) rotate(0)" > <text font-size="100.0" fill="#800" font-family="monospace"  >
   20
  </text> </g> 
  <g transform="translate(-732,1540) rotate(0)" > <text font-size="100.0" fill="#088" font-family="monospace"  >
   RD
  </text> </g> 
  <circle cx="-1050" cy="1500" r="10"
    style="fill:none;stroke:#800;stroke-width:2"  />
  <line x1="-1050" y1="1300" x2="-750" y2="1300" style="stroke:#800;stroke-width:10;stroke-opacity:1.000000;stroke-linecap:round"/>
  <g transform="translate(-942,1294) rotate(0)" > <text font-size="100.0" fill="#800" font-family="monospace"  >
   9
  </text> </g> 
  <g transform="translate(-732,1340) rotate(0)" > <text font-size="100.0" fill="#088" font-family="monospace"  >
   D7
  </text> </g> 
  <circle cx="-1050" cy="1300" r="10"
    style="fill:none;stroke:#800;stroke-width:2"  />
  <line x1="-1050" y1="1200" x2="-750" y2="1200" style="stroke:#800;stroke-width:10;stroke-opacity:1.000000;stroke-linecap:round"/>
  <g transform="translate(-985,1194) rotate(0)" > <text font-size="100.0" fill="#800" font-family="monospace"  >
   10
  </text> </g> 
  <g transform="translate(-732,1240) rotate(0)" > <text font-size="100.0" fill="#088" font-family="monospace"  >
   D6
  </text> </g> 
  <circle cx="-1050" cy="1200" r="10"
    style="fill:none;stroke:#800;stroke-width:2"  />
  <line x1="-1050" y1="1100" x2="-750" y2="1100" style="stroke:#800;stroke-width:10;stroke-opacity:1.000000;stroke-linecap:round"/>
  <g transform="translate(-985,1094) rotate(0)" > <text font-size="100.0" fill="#800" font-family="monospace"  >
   11
  </text> </g> 
  <g transform="translate(-732,1140) rotate(0)" > <text font-size="100.0" fill="#088" font-family="monospace"  >
   D5
  </text> </g> 
  <circle cx="-1050" cy="1100" r="10"
    style="fill:none;stroke:#800;stroke-width:2"  />
  <line x1="-1050" y1="1000" x2="-750" y2="1000" style="stroke:#800;stroke-width:10;stroke-opacity:1.000000;stroke-linecap:round"/>
  <g transform="translate(-985,994) rotate(0)" > <text font-size="100.0" fill="#800" font-family="monospace"  >
   12
  </text> </g> 
  <g transform="translate(-732,1040) rotate(0)" > <text font-size="100.0" fill="#088" font-family="monospace"  >
   D4
  </text> </g> 
  <circle cx="-1050" cy="1000" r="10"
    style="fill:none;stroke:#800;stroke-width:2"  />
  <line x1="-1050" y1="900" x2="-750" y2="900" style="stroke:#800;stroke-width:10;stroke-opacity:1.000000;stroke-linecap:round"/>
  <g transform="translate(-985,894) rotate(0)" > <text font-size="100.0" fill="#800" font-family="monospace"  >
   13
  </text> </g> 
  <g transform="translate(-732,940) rotate(0)" > <text font-size="100.0" fill="#088" font-family="monospace"  >
   D3
  </text> </g> 
  <circle cx="-1050" cy="900" r="10"
    style="fill:none;stroke:#800;stroke-width:2"  />
  <line x1="-1050" y1="800" x2="-750" y2="800" style="stroke:#800;stroke-width:10;stroke-opacity:1.000000;stroke-linecap:round"/>
  <g transform="translate(-985,794) rotate(0)" > <text font-size="100.0" fill="#800" font-family="monospace"  >
   14
  </text> </g> 
  <g transform="translate(-732,840) rotate(0)" > <text font-size="100.0" fill="#088" font-family="monospace"  >
   D2
  </text> </g> 
  <circle cx="-1050" cy="800" r="10"
    style="fill:none;stroke:#800;stroke-width:2"  />
  <line x1="-1050" y1="700" x2="-750" y2="700" style="stroke:#800;stroke-width:10;stroke-opacity:1.000000;stroke-linecap:round"/>
  <g transform="translate(-985,694) rotate(0)" > <text font-size="100.0" fill="#800" font-family="monospace"  >
   15
  </text> </g> 
  <g transform="translate(-732,740) rotate(0)" > <text font-size="100.0" fill="#088" font-family="monospace"  >
   D1
  </text> </g> 
  <circle cx="-1050" cy="700" r="10"
    style="fill:none;stroke:#800;stroke-width:2"  />
  <line x1="-1050" y1="600" x2="-750" y2="600" style="stroke:#800;stroke-width:10;stroke-opacity:1.000000;stroke-linecap:round"/>
  <g transform="translate(-985,594) rotate(0)" > <text font-size="100.0" fill="#800" font-family="monospace"  >
   16
  </text> </g> 
  <g transform="translate(-732,640) rotate(0)" > <text font-size="100.0" fill="#088" font-family="monospace"  >
   D0
  </text> </g> 
  <circle cx="-1050" cy="600" r="10"
    style="fill:none;stroke:#800;stroke-width:2"  />
  <line x1="1050" y1="2500" x2="820" y2="2500" style="stroke:#800;stroke-width:10;stroke-opacity:1.000000;stroke-linecap:round"/>
  <circle cx="785" cy="2500" r="35"
    style="fill:none;stroke:#800;stroke-width:10"  />
  <g transform="translate(815,2494) rotate(0)" > <text font-size="100.0" fill="#800" font-family="monospace"  >
   57
  </text> </g> 
  <g transform="translate(590,2540) rotate(0)" > <text font-size="100.0" fill="#088" font-family="monospace"  >
   OE
  </text> </g> 
  <circle cx="1050" cy="2500" r="10"
    style="fill:none;stroke:#800;stroke-width:2"  />
  <line x1="1050" y1="2300" x2="750" y2="2300" style="stroke:#800;stroke-width:10;stroke-opacity:1.000000;stroke-linecap:round"/>
  <g transform="translate(815,2294) rotate(0)" > <text font-size="100.0" fill="#800" font-family="monospace"  >
   25
  </text> </g> 
  <g transform="translate(590,2340) rotate(0)" > <text font-size="100.0" fill="#088" font-family="monospace"  >
   B7
  </text> </g> 
  <circle cx="1050" cy="2300" r="10"
    style="fill:none;stroke:#800;stroke-width:2"  />
  <line x1="1050" y1="2200" x2="750" y2="2200" style="stroke:#800;stroke-width:10;stroke-opacity:1.000000;stroke-linecap:round"/>
  <g transform="translate(815,2194) rotate(0)" > <text font-size="100.0" fill="#800" font-family="monospace"  >
   26
  </text> </g> 
  <g transform="translate(590,2240) rotate(0)" > <text font-size="100.0" fill="#088" font-family="monospace"  >
   B6
  </text> </g> 
  <circle cx="1050" cy="2200" r="10"
    style="fill:none;stroke:#800;stroke-width:2"  />
  <line x1="1050" y1="2100" x2="750" y2="2100" style="stroke:#800;stroke-width:10;stroke-opacity:1.000000;stroke-linecap:round"/>
  <g transform="translate(815,2094) rotate(0)" > <text font-size="100.0" fill="#800" font-family="monospace"  >
   27
  </text> </g> 
  <g transform="translate(590,2140) rotate(0)" > <text font-size="100.0" fill="#088" font-family="monospace"  >
   B5
  </text> </g> 
  <circle cx="1050" cy="2100" r="10"
    style="fill:none;stroke:#800;stroke-width:2"  />
  <line x1="1050" y1="2000" x2="750" y2="2000" style="stroke:#800;stroke-width:10;stroke-opacity:1.000000;stroke-linecap:round"/>
  <g transform="translate(815,1994) rotate(0)" > <text font-size="100.0" fill="#800" font-family="monospace"  >
   28
  </text> </g> 
  <g transform="translate(590,2040) rotate(0)" > <text font-size="100.0" fill="#088" font-family="monospace"  >
   B4
  </text> </g> 
  <circle cx="1050" cy="2000" r="10"
    style="fill:none;stroke:#800;stroke-width:2"  />
  <line x1="1050" y1="1900" x2="750" y2="1900" style="stroke:#800;stroke-width:10;stroke-opacity:1.000000;stroke-linecap:round"/>
  <g transform="translate(815,1894) rotate(0)" > <text font-size="100.0" fill="#800" font-family="monospace"  >
   29
  </text> </g> 
  <g transform="translate(590,1940) rotate(0)" > <text font-size="100.0" fill="#088" font-family="monospace"  >
   B3
  </text> </g> 
  <circle cx="1050" cy="1900" r="10"
    style="fill:none;stroke:#800;stroke-width:2"  />
  <line x1="1050" y1="1800" x2="750" y2="1800" style="stroke:#800;stroke-width:10;stroke-opacity:1.000000;stroke-linecap:round"/>
  <g transform="translate(815,1794) rotate(0)" > <text font-size="100.0" fill="#800" font-family="monospace"  >
   30
  </text> </g> 
  <g transform="translate(590,1840) rotate(0)" > <text font-size="100.0" fill="#088" font-family="monospace"  >
   B2
  </text> </g> 
  <circle cx="1050" cy="1800" r="10"
    style="fill:none;stroke:#800;stroke-width:2"  />
  <line x1="1050" y1="1700" x2="750" y2="1700" style="stroke:#800;stroke-width:10;stroke-opacity:1.000000;stroke-linecap:round"/>
  <g transform="translate(815,1694) rotate(0)" > <text font-size="100.0" fill="#800" font-family="monospace"  >
   31
  </text> </g> 
  <g transform="translate(590,1740) rotate(0)" > <text font-size="100.0" fill="#088" font-family="monospace"  >
   B1
  </text> </g> 
  <circle cx="1050" cy="1700" r="10"
    style="fill:none;stroke:#800;stroke-width:2"  />
  <line x1="1050" y1="1600" x2="750" y2="1600" style="stroke:#800;stroke-width:10;stroke-opacity:1.000000;stroke-linecap:round"/>
  <g transform="translate(815,1594) rotate(0)" > <text font-size="100.0" fill="#800" font-family="monospace"  >
   32
  </text> </g> 
  <g transform="translate(590,1640) rotate(0)" > <text font-size="100.0" fill="#088" font-family="monospace"  >
   B0
  </text> </g> 
  <circle cx="1050" cy="1600" r="10"
    style="fill:none;stroke:#800;stroke-width:2"  />
  <line x1="1050" y1="1400" x2="750" y2="1400" style="stroke:#800;stroke-width:10;stroke-opacity:1.000000;stroke-linecap:round"/>
  <g transform="translate(815,1394) rotate(0)" > <text font-size="100.0" fill="#800" font-family="monospace"  >
   33
  </text> </g> 
  <g transform="translate(590,1440) rotate(0)" > <text font-size="100.0" fill="#088" font-family="monospace"  >
   G7
  </text> </g> 
  <circle cx="1050" cy="1400" r="10"
    style="fill:none;stroke:#800;stroke-width:2"  />
  <line x1="1050" y1="1300" x2="750" y2="1300" style="stroke:#800;stroke-width:10;stroke-opacity:1.000000;stroke-linecap:round"/>
  <g transform="translate(815,1294) rotate(0)" > <text font-size="100.0" fill="#800" font-family="monospace"  >
   34
  </text> </g> 
  <g transform="translate(590,1340) rotate(0)" > <text font-size="100.0" fill="#088" font-family="monospace"  >
   G6
  </text> </g> 
  <circle cx="1050" cy="1300" r="10"
    style="fill:none;stroke:#800;stroke-width:2"  />
  <line x1="1050" y1="1200" x2="750" y2="1200" style="stroke:#800;stroke-width:10;stroke-opacity:1.000000;stroke-linecap:round"/>
  <g transform="translate(815,1194) rotate(0)" > <text font-size="100.0" fill="#800" font-family="monospace"  >
   35
  </text> </g> 
  <g transform="translate(590,1240) rotate(0)" > <text font-size="100.0" fill="#088" font-family="monospace"  >
   G5
  </text> </g> 
  <circle cx="1050" cy="1200" r="10"
    style="fill:none;stroke:#800;stroke-width:2"  />
  <line x1="1050" y1="1100" x2="750" y2="1100" style="stroke:#800;stroke-width:10;stroke-opacity:1.000000;stroke-linecap:round"/>
  <g transform="translate(815,1094) rotate(0)" > <text font-size="100.0" fill="#800" font-family="monospace"  >
   36
  </text> </g> 
  <g transform="translate(590,1140) rotate(0)" > <text font-size="100.0" fill="#088" font-family="monospace"  >
   G4
  </text> </g> 
  <circle cx="1050" cy="1100" r="10"
    style="fill:none;stroke:#800;stroke-width:2"  />
  <line x1="1050" y1="1000" x2="750" y2="1000" style="stroke:#800;stroke-width:10;stroke-opacity:1.000000;stroke-linecap:round"/>
  <g transform="translate(815,994) rotate(0)" > <text font-size="100.0" fill="#800" font-family="monospace"  >
   45
  </text> </g> 
  <g transform="translate(590,1040) rotate(0)" > <text font-size="100.0" fill="#088" font-family="monospace"  >
   G3
  </text> </g> 
  <circle cx="1050" cy="1000" r="10"
    style="fill:none;stroke:#800;stroke-width:2"  />
  <line x1="1050" y1="900" x2="750" y2="900" style="stroke:#800;stroke-width:10;stroke-opacity:1.000000;stroke-linecap:round"/>
  <g transform="translate(815,894) rotate(0)" > <text font-size="100.0" fill="#800" font-family="monospace"  >
   46
  </text> </g> 
  <g transform="translate(590,940) rotate(0)" > <text font-size="100.0" fill="#088" font-family="monospace"  >
   G2
  </text> </g> 
  <circle cx="1050" cy="900" r="10"
    style="fill:none;stroke:#800;stroke-width:2"  />
  <line x1="1050" y1="800" x2="750" y2="800" style="stroke:#800;stroke-width:10;stroke-opacity:1.000000;stroke-linecap:round"/>
  <g transform="translate(815,794) rotate(0)" > <text font-size="100.0" fill="#800" font-family="monospace"  >
   47
  </text> </g> 
  <g transform="translate(590,840) rotate(0)" > <text font-size="100.0" fill="#088" font-family="monospace"  >
   G1
  </text> </g> 
  <circle cx="1050" cy="800" r="10"
    style="fill:none;stroke:#800;stroke-width:2"  />
  <line x1="1050" y1="700" x2="750" y2="700" style="stroke:#800;stroke-width:10;stroke-opacity:1.000000;stroke-linecap:round"/>
  <g transform="translate(815,694) rotate(0)" > <text font-size="100.0" fill="#800" font-family="monospace"  >
   48
  </text> </g> 
  <g transform="translate(590,740) rotate(0)" > <text font-size="100.0" fill="#088" font-family="monospace"  >
   G0
  </text> </g> 
  <circle cx="1050" cy="700" r="10"
    style="fill:none;stroke:#800;stroke-width:2"  />
  <line x1="1050" y1="500" x2="750" y2="500" style="stroke:#800;stroke-width:10;stroke-opacity:1.000000;stroke-linecap:round"/>
  <g transform="translate(815,494) rotate(0)" > <text font-size="100.0" fill="#800" font-family="monospace"  >
   49
  </text> </g> 
  <g transform="translate(590,540) rotate(0)" > <text font-size="100.0" fill="#088" font-family="monospace"  >
   R7
  </text> </g> 
  <circle cx="1050" cy="500" r="10"
    style="fill:none;stroke:#800;stroke-width:2"  />
  <line x1="1050" y1="400" x2="750" y2="400" style="stroke:#800;stroke-width:10;stroke-opacity:1.000000;stroke-linecap:round"/>
  <g transform="translate(815,394) rotate(0)" > <text font-size="100.0" fill="#800" font-family="monospace"  >
   50
  </text> </g> 
  <g transform="translate(590,440) rotate(0)" > <text font-size="100.0" fill="#088" font-family="monospace"  >
   R6
  </text> </g> 
  <circle cx="1050" cy="400" r="10"
    style="fill:none;stroke:#800;stroke-width:2"  />
  <line x1="1050" y1="300" x2="750" y2="300" style="stroke:#800;stroke-width:10;stroke-opacity:1.000000;stroke-linecap:round"/>
  <g transform="translate(815,294) rotate(0)" > <text font-size="100.0" fill="#800" font-family="monospace"  >
   51
  </text> </g> 
  <g transform="translate(590,340) rotate(0)" > <text font-size="100.0" fill="#088" font-family="monospace"  >
   R5
  </text> </g> 
  <circle cx="1050" cy="300" r="10"
    style="fill:none;stroke:#800;stroke-width:2"  />
  <line x1="1050" y1="200" x2="750" y2="200" style="stroke:#800;stroke-width:10;stroke-opacity:1.000000;stroke-linecap:round"/>
  <g transform="translate(815,194) rotate(0)" > <text font-size="100.0" fill="#800" font-family="monospace"  >
   52
  </text> </g> 
  <g transform="translate(590,240) rotate(0)" > <text font-size="100.0" fill="#088" font-family="monospace"  >
   R4
  </text> </g> 
  <circle cx="1050" cy="200" r="10"
    style="fill:none;stroke:#800;stroke-width:2"  />
  <line x1="1050" y1="100" x2="750" y2="100" style="stroke:#800;stroke-width:10;stroke-opacity:1.000000;stroke-linecap:round"/>
  <g transform="translate(815,94) rotate(0)" > <text font-size="100.0" fill="#800" font-family="monospace"  >
   53
  </text> </g> 
  <g transform="translate(590,140) rotate(0)" > <text font-size="100.0" fill="#088" font-family="monospace"  >
   R3
  </text> </g> 
  <circle cx="1050" cy="100" r="10"
    style="fill:none;stroke:#800;stroke-width:2"  />
  <line x1="1050" y1="0" x2="750" y2="0" style="stroke:#800;stroke-width:10;stroke-opacity:1.000000;stroke-linecap:round"/>
  <g transform="translate(815,-6) rotate(0)" > <text font-size="100.0" fill="#800" font-family="monospace"  >
   54
  </text> </g> 
  <g transform="translate(590,40) rotate(0)" > <text font-size="100.0" fill="#088" font-family="monospace"  >
   R2
  </text> </g> 
  <circle cx="1050" cy="0" r="10"
    style="fill:none;stroke:#800;stroke-width:2"  />
  <line x1="1050" y1="-100" x2="750" y2="-100" style="stroke:#800;stroke-width:10;stroke-opacity:1.000000;stroke-linecap:round"/>
  <g transform="translate(815,-106) rotate(0)" > <text font-size="100.0" fill="#800" font-family="monospace"  >
   55
  </text> </g> 
  <g transform="translate(590,-60) rotate(0)" > <text font-size="100.0" fill="#088" font-family="monospace"  >
   R1
  </text> </g> 
  <circle cx="1050" cy="-100" r="10"
    style="fill:none;stroke:#800;stroke-width:2"  />
  <line x1="1050" y1="-200" x2="750" y2="-200" style="stroke:#800;stroke-width:10;stroke-opacity:1.000000;stroke-linecap:round"/>
  <g transform="translate(815,-206) rotate(0)" > <text font-size="100.0" fill="#800" font-family="monospace"  >
   56
  </text> </g> 
  <g transform="translate(590,-160) rotate(0)" > <text font-size="100.0" fill="#088" font-family="monospace"  >
   R0
  </text> </g> 
  <circle cx="1050" cy="-200" r="10"
    style="fill:none;stroke:#800;stroke-width:2"  />
  <line x1="710" y1="-400" x2="750" y2="-360" style="stroke:#800;stroke-width:10;stroke-opacity:1.000000;stroke-linecap:round"/>
  <line x1="750" y1="-360" x2="750" y2="-440" style="stroke:#800;stroke-width:10;stroke-opacity:1.000000;stroke-linecap:round"/>
  <line x1="750" y1="-440" x2="710" y2="-400" style="stroke:#800;stroke-width:10;stroke-opacity:1.000000;stroke-linecap:round"/>
  <line x1="1050" y1="-400" x2="750" y2="-400" style="stroke:#800;stroke-width:10;stroke-opacity:1.000000;stroke-linecap:round"/>
  <g transform="translate(815,-406) rotate(0)" > <text font-size="100.0" fill="#800" font-family="monospace"  >
   38
  </text> </g> 
  <g transform="translate(350,-360) rotate(0)" > <text font-size="100.0" fill="#088" font-family="monospace"  >
   BCLOCK
  </text> </g> 
  <circle cx="1050" cy="-400" r="10"
    style="fill:none;stroke:#800;stroke-width:2"  />
  <line x1="710" y1="-500" x2="750" y2="-460" style="stroke:#800;stroke-width:10;stroke-opacity:1.000000;stroke-linecap:round"/>
  <line x1="750" y1="-460" x2="750" y2="-540" style="stroke:#800;stroke-width:10;stroke-opacity:1.000000;stroke-linecap:round"/>
  <line x1="750" y1="-540" x2="710" y2="-500" style="stroke:#800;stroke-width:10;stroke-opacity:1.000000;stroke-linecap:round"/>
  <line x1="1050" y1="-500" x2="750" y2="-500" style="stroke:#800;stroke-width:10;stroke-opacity:1.000000;stroke-linecap:round"/>
  <g transform="translate(815,-506) rotate(0)" > <text font-size="100.0" fill="#800" font-family="monospace"  >
   39
  </text> </g> 
  <g transform="translate(350,-460) rotate(0)" > <text font-size="100.0" fill="#088" font-family="monospace"  >
   GCLOCK
  </text> </g> 
  <circle cx="1050" cy="-500" r="10"
    style="fill:none;stroke:#800;stroke-width:2"  />
  <line x1="710" y1="-600" x2="750" y2="-560" style="stroke:#800;stroke-width:10;stroke-opacity:1.000000;stroke-linecap:round"/>
  <line x1="750" y1="-560" x2="750" y2="-640" style="stroke:#800;stroke-width:10;stroke-opacity:1.000000;stroke-linecap:round"/>
  <line x1="750" y1="-640" x2="710" y2="-600" style="stroke:#800;stroke-width:10;stroke-opacity:1.000000;stroke-linecap:round"/>
  <line x1="1050" y1="-600" x2="750" y2="-600" style="stroke:#800;stroke-width:10;stroke-opacity:1.000000;stroke-linecap:round"/>
  <g transform="translate(815,-606) rotate(0)" > <text font-size="100.0" fill="#800" font-family="monospace"  >
   40
  </text> </g> 
  <g transform="translate(350,-560) rotate(0)" > <text font-size="100.0" fill="#088" font-family="monospace"  >
   RCLOCK
  </text> </g> 
  <circle cx="1050" cy="-600" r="10"
    style="fill:none;stroke:#800;stroke-width:2"  />
  <line x1="1050" y1="-800" x2="750" y2="-800" style="stroke:#800;stroke-width:10;stroke-opacity:1.000000;stroke-linecap:round"/>
  <g transform="translate(815,-806) rotate(0)" > <text font-size="100.0" fill="#800" font-family="monospace"  >
   61
  </text> </g> 
  <g transform="translate(350,-760) rotate(0)" > <text font-size="100.0" fill="#088" font-family="monospace"  >
   BLEVEL
  </text> </g> 
  <circle cx="1050" cy="-800" r="10"
    style="fill:none;stroke:#800;stroke-width:2"  />
  <line x1="1050" y1="-900" x2="750" y2="-900" style="stroke:#800;stroke-width:10;stroke-opacity:1.000000;stroke-linecap:round"/>
  <g transform="translate(815,-906) rotate(0)" > <text font-size="100.0" fill="#800" font-family="monospace"  >
   63
  </text> </g> 
  <g transform="translate(350,-860) rotate(0)" > <text font-size="100.0" fill="#088" font-family="monospace"  >
   GLEVEL
  </text> </g> 
  <circle cx="1050" cy="-900" r="10"
    style="fill:none;stroke:#800;stroke-width:2"  />
  <line x1="1050" y1="-1000" x2="750" y2="-1000" style="stroke:#800;stroke-width:10;stroke-opacity:1.000000;stroke-linecap:round"/>
  <g transform="translate(815,-1006) rotate(0)" > <text font-size="100.0" fill="#800" font-family="monospace"  >
   67
  </text> </g> 
  <g transform="translate(350,-960) rotate(0)" > <text font-size="100.0" fill="#088" font-family="monospace"  >
   RLEVEL
  </text> </g> 
  <circle cx="1050" cy="-1000" r="10"
    style="fill:none;stroke:#800;stroke-width:2"  />
  <line x1="1050" y1="-1100" x2="750" y2="-1100" style="stroke:#800;stroke-width:10;stroke-opacity:1.000000;stroke-linecap:round"/>
  <g transform="translate(815,-1106) rotate(0)" > <text font-size="100.0" fill="#800" font-family="monospace"  >
   37
  </text> </g> 
  <g transform="translate(470,-1060) rotate(0)" > <text font-size="100.0" fill="#088" font-family="monospace"  >
   ZERO
  </text> </g> 
  <circle cx="1050" cy="-1100" r="10"
    style="fill:none;stroke:#800;stroke-width:2"  />
  <line x1="1050" y1="-1200" x2="750" y2="-1200" style="stroke:#800;stroke-width:10;stroke-opacity:1.000000;stroke-linecap:round"/>
  <g transform="translate(815,-1206) rotate(0)" > <text font-size="100.0" fill="#800" font-family="monospace"  >
   59
  </text> </g> 
  <g transform="translate(410,-1160) rotate(0)" > <text font-size="100.0" fill="#088" font-family="monospace"  >
   CLAMP
  </text> </g> 
  <circle cx="1050" cy="-1200" r="10"
    style="fill:none;stroke:#800;stroke-width:2"  />
  <line x1="-1050" y1="-1600" x2="-750" y2="-1600" style="stroke:#800;stroke-width:10;stroke-opacity:1.000000;stroke-linecap:round"/>
  <g transform="translate(-985,-1606) rotate(0)" > <text font-size="100.0" fill="#800" font-family="monospace"  >
   71
  </text> </g> 
  <g transform="translate(-732,-1560) rotate(0)" > <text font-size="100.0" fill="#088" font-family="monospace"  >
   IOUT5
  </text> </g> 
  <circle cx="-1050" cy="-1600" r="10"
    style="fill:none;stroke:#800;stroke-width:2"  />
  <line x1="-1050" y1="-1700" x2="-750" y2="-1700" style="stroke:#800;stroke-width:10;stroke-opacity:1.000000;stroke-linecap:round"/>
  <g transform="translate(-985,-1706) rotate(0)" > <text font-size="100.0" fill="#800" font-family="monospace"  >
   73
  </text> </g> 
  <g transform="translate(-732,-1660) rotate(0)" > <text font-size="100.0" fill="#088" font-family="monospace"  >
   IOUT4
  </text> </g> 
  <circle cx="-1050" cy="-1700" r="10"
    style="fill:none;stroke:#800;stroke-width:2"  />
  <line x1="-1050" y1="-1800" x2="-750" y2="-1800" style="stroke:#800;stroke-width:10;stroke-opacity:1.000000;stroke-linecap:round"/>
  <g transform="translate(-985,-1806) rotate(0)" > <text font-size="100.0" fill="#800" font-family="monospace"  >
   76
  </text> </g> 
  <g transform="translate(-732,-1760) rotate(0)" > <text font-size="100.0" fill="#088" font-family="monospace"  >
   IOUT3
  </text> </g> 
  <circle cx="-1050" cy="-1800" r="10"
    style="fill:none;stroke:#800;stroke-width:2"  />
  <line x1="-1050" y1="-1900" x2="-750" y2="-1900" style="stroke:#800;stroke-width:10;stroke-opacity:1.000000;stroke-linecap:round"/>
  <g transform="translate(-985,-1906) rotate(0)" > <text font-size="100.0" fill="#800" font-family="monospace"  >
   78
  </text> </g> 
  <g transform="translate(-732,-1860) rotate(0)" > <text font-size="100.0" fill="#088" font-family="monospace"  >
   IOUT2
  </text> </g> 
  <circle cx="-1050" cy="-1900" r="10"
    style="fill:none;stroke:#800;stroke-width:2"  />
  <line x1="-1050" y1="-2000" x2="-750" y2="-2000" style="stroke:#800;stroke-width:10;stroke-opacity:1.000000;stroke-linecap:round"/>
  <g transform="translate(-985,-2006) rotate(0)" > <text font-size="100.0" fill="#800" font-family="monospace"  >
   80
  </text> </g> 
  <g transform="translate(-732,-1960) rotate(0)" > <text font-size="100.0" fill="#088" font-family="monospace"  >
   IOUT1
  </text> </g> 
  <circle cx="-1050" cy="-2000" r="10"
    style="fill:none;stroke:#800;stroke-width:2"  />
  <line x1="-1050" y1="-2100" x2="-750" y2="-2100" style="stroke:#800;stroke-width:10;stroke-opacity:1.000000;stroke-linecap:round"/>
  <g transform="translate(-985,-2106) rotate(0)" > <text font-size="100.0" fill="#800" font-family="monospace"  >
   82
  </text> </g> 
  <g transform="translate(-732,-2060) rotate(0)" > <text font-size="100.0" fill="#088" font-family="monospace"  >
   IOUT0
  </text> </g> 
  <circle cx="-1050" cy="-2100" r="10"
    style="fill:none;stroke:#800;stroke-width:2"  />
  <line x1="-1050" y1="-2300" x2="-750" y2="-2300" style="stroke:#800;stroke-width:10;stroke-opacity:1.000000;stroke-linecap:round"/>
  <g transform="translate(-985,-2306) rotate(0)" > <text font-size="100.0" fill="#800" font-family="monospace"  >
   69
  </text> </g> 
  <g transform="translate(-732,-2260) rotate(0)" > <text font-size="100.0" fill="#088" font-family="monospace"  >
   RSET
  </text> </g> 
  <circle cx="-1050" cy="-2300" r="10"
    style="fill:none;stroke:#800;stroke-width:2"  />
  <line x1="1050" y1="-1400" x2="750" y2="-1400" style="stroke:#800;stroke-width:10;stroke-opacity:1.000000;stroke-linecap:round"/>
  <g transform="translate(815,-1406) rotate(0)" > <text font-size="100.0" fill="#800" font-family="monospace"  >
   58
  </text> </g> 
  <g transform="translate(530,-1360) rotate(0)" > <text font-size="100.0" fill="#088" font-family="monospace"  >
   BIN
  </text> </g> 
  <circle cx="1050" cy="-1400" r="10"
    style="fill:none;stroke:#800;stroke-width:2"  />
  <line x1="1050" y1="-1500" x2="750" y2="-1500" style="stroke:#800;stroke-width:10;stroke-opacity:1.000000;stroke-linecap:round"/>
  <g transform="translate(815,-1506) rotate(0)" > <text font-size="100.0" fill="#800" font-family="monospace"  >
   68
  </text> </g> 
  <g transform="translate(470,-1460) rotate(0)" > <text font-size="100.0" fill="#088" font-family="monospace"  >
   BOUT
  </text> </g> 
  <circle cx="1050" cy="-1500" r="10"
    style="fill:none;stroke:#800;stroke-width:2"  />
  <line x1="1050" y1="-1700" x2="750" y2="-1700" style="stroke:#800;stroke-width:10;stroke-opacity:1.000000;stroke-linecap:round"/>
  <g transform="translate(815,-1706) rotate(0)" > <text font-size="100.0" fill="#800" font-family="monospace"  >
   60
  </text> </g> 
  <g transform="translate(530,-1660) rotate(0)" > <text font-size="100.0" fill="#088" font-family="monospace"  >
   GIN
  </text> </g> 
  <circle cx="1050" cy="-1700" r="10"
    style="fill:none;stroke:#800;stroke-width:2"  />
  <line x1="1050" y1="-1800" x2="750" y2="-1800" style="stroke:#800;stroke-width:10;stroke-opacity:1.000000;stroke-linecap:round"/>
  <g transform="translate(815,-1806) rotate(0)" > <text font-size="100.0" fill="#800" font-family="monospace"  >
   70
  </text> </g> 
  <g transform="translate(470,-1760) rotate(0)" > <text font-size="100.0" fill="#088" font-family="monospace"  >
   GOUT
  </text> </g> 
  <circle cx="1050" cy="-1800" r="10"
    style="fill:none;stroke:#800;stroke-width:2"  />
  <line x1="1050" y1="-2000" x2="750" y2="-2000" style="stroke:#800;stroke-width:10;stroke-opacity:1.000000;stroke-linecap:round"/>
  <g transform="translate(815,-2006) rotate(0)" > <text font-size="100.0" fill="#800" font-family="monospace"  >
   62
  </text> </g> 
  <g transform="translate(530,-1960) rotate(0)" > <text font-size="100.0" fill="#088" font-family="monospace"  >
   RIN
  </text> </g> 
  <circle cx="1050" cy="-2000" r="10"
    style="fill:none;stroke:#800;stroke-width:2"  />
  <line x1="1050" y1="-2100" x2="750" y2="-2100" style="stroke:#800;stroke-width:10;stroke-opacity:1.000000;stroke-linecap:round"/>
  <g transform="translate(815,-2106) rotate(0)" > <text font-size="100.0" fill="#800" font-family="monospace"  >
   72
  </text> </g> 
  <g transform="translate(470,-2060) rotate(0)" > <text font-size="100.0" fill="#088" font-family="monospace"  >
   ROUT
  </text> </g> 
  <circle cx="1050" cy="-2100" r="10"
    style="fill:none;stroke:#800;stroke-width:2"  />
  <line x1="-1050" y1="-2400" x2="-750" y2="-2400" style="stroke:#800;stroke-width:10;stroke-opacity:1.000000;stroke-linecap:round"/>
  <g transform="translate(-942,-2406) rotate(0)" > <text font-size="100.0" fill="#800" font-family="monospace"  >
   6
  </text> </g> 
  <g transform="translate(-732,-2360) rotate(0)" > <text font-size="100.0" fill="#088" font-family="monospace"  >
   CEXT1
  </text> </g> 
  <circle cx="-1050" cy="-2400" r="10"
    style="fill:none;stroke:#800;stroke-width:2"  />
  <line x1="-1050" y1="-2500" x2="-750" y2="-2500" style="stroke:#800;stroke-width:10;stroke-opacity:1.000000;stroke-linecap:round"/>
  <g transform="translate(-942,-2506) rotate(0)" > <text font-size="100.0" fill="#800" font-family="monospace"  >
   7
  </text> </g> 
  <g transform="translate(-732,-2460) rotate(0)" > <text font-size="100.0" fill="#088" font-family="monospace"  >
   CEXT2
  </text> </g> 
  <circle cx="-1050" cy="-2500" r="10"
    style="fill:none;stroke:#800;stroke-width:2"  />
  <line x1="-1050" y1="-800" x2="-750" y2="-800" style="stroke:#800;stroke-width:10;stroke-opacity:1.000000;stroke-linecap:round"/>
  <g transform="translate(-985,-806) rotate(0)" > <text font-size="100.0" fill="#800" font-family="monospace"  >
   23
  </text> </g> 
  <g transform="translate(-732,-760) rotate(0)" > <text font-size="100.0" fill="#088" font-family="monospace"  >
   BREF-
  </text> </g> 
  <circle cx="-1050" cy="-800" r="10"
    style="fill:none;stroke:#800;stroke-width:2"  />
  <line x1="-1050" y1="-900" x2="-750" y2="-900" style="stroke:#800;stroke-width:10;stroke-opacity:1.000000;stroke-linecap:round"/>
  <g transform="translate(-985,-906) rotate(0)" > <text font-size="100.0" fill="#800" font-family="monospace"  >
   22
  </text> </g> 
  <g transform="translate(-732,-860) rotate(0)" > <text font-size="100.0" fill="#088" font-family="monospace"  >
   GREF-
  </text> </g> 
  <circle cx="-1050" cy="-900" r="10"
    style="fill:none;stroke:#800;stroke-width:2"  />
  <line x1="-1050" y1="-1000" x2="-750" y2="-1000" style="stroke:#800;stroke-width:10;stroke-opacity:1.000000;stroke-linecap:round"/>
  <g transform="translate(-985,-1006) rotate(0)" > <text font-size="100.0" fill="#800" font-family="monospace"  >
   21
  </text> </g> 
  <g transform="translate(-732,-960) rotate(0)" > <text font-size="100.0" fill="#088" font-family="monospace"  >
   RREF-
  </text> </g> 
  <circle cx="-1050" cy="-1000" r="10"
    style="fill:none;stroke:#800;stroke-width:2"  />
  <line x1="-1050" y1="-1200" x2="-750" y2="-1200" style="stroke:#800;stroke-width:10;stroke-opacity:1.000000;stroke-linecap:round"/>
  <g transform="translate(-985,-1206) rotate(0)" > <text font-size="100.0" fill="#800" font-family="monospace"  >
   64
  </text> </g> 
  <g transform="translate(-732,-1160) rotate(0)" > <text font-size="100.0" fill="#088" font-family="monospace"  >
   BREF+
  </text> </g> 
  <circle cx="-1050" cy="-1200" r="10"
    style="fill:none;stroke:#800;stroke-width:2"  />
  <line x1="-1050" y1="-1300" x2="-750" y2="-1300" style="stroke:#800;stroke-width:10;stroke-opacity:1.000000;stroke-linecap:round"/>
  <g transform="translate(-985,-1306) rotate(0)" > <text font-size="100.0" fill="#800" font-family="monospace"  >
   65
  </text> </g> 
  <g transform="translate(-732,-1260) rotate(0)" > <text font-size="100.0" fill="#088" font-family="monospace"  >
   GREF+
  </text> </g> 
  <circle cx="-1050" cy="-1300" r="10"
    style="fill:none;stroke:#800;stroke-width:2"  />
  <line x1="-1050" y1="-1400" x2="-750" y2="-1400" style="stroke:#800;stroke-width:10;stroke-opacity:1.000000;stroke-linecap:round"/>
  <g transform="translate(-985,-1406) rotate(0)" > <text font-size="100.0" fill="#800" font-family="monospace"  >
   66
  </text> </g> 
  <g transform="translate(-732,-1360) rotate(0)" > <text font-size="100.0" fill="#088" font-family="monospace"  >
   RREF+
  </text> </g> 
  <circle cx="-1050" cy="-1400" r="10"
    style="fill:none;stroke:#800;stroke-width:2"  />
  <line x1="-1050" y1="200" x2="-820" y2="200" style="stroke:#800;stroke-width:10;stroke-opacity:1.000000;stroke-linecap:round"/>
  <circle cx="-785" cy="200" r="35"
    style="fill:none;stroke:#800;stroke-width:10"  />
  <g transform="translate(-942,194) rotate(0)" > <text font-size="100.0" fill="#800" font-family="monospace"  >
   5
  </text> </g> 
  <g transform="translate(-732,240) rotate(0)" > <text font-size="100.0" fill="#088" font-family="monospace"  >
   SYNC1
  </text> </g> 
  <circle cx="-1050" cy="200" r="10"
    style="fill:none;stroke:#800;stroke-width:2"  />
  <line x1="-1050" y1="100" x2="-750" y2="100" style="stroke:#800;stroke-width:10;stroke-opacity:1.000000;stroke-linecap:round"/>
  <g transform="translate(-985,94) rotate(0)" > <text font-size="100.0" fill="#800" font-family="monospace"  >
   74
  </text> </g> 
  <g transform="translate(-732,140) rotate(0)" > <text font-size="100.0" fill="#088" font-family="monospace"  >
   BVID1
  </text> </g> 
  <circle cx="-1050" cy="100" r="10"
    style="fill:none;stroke:#800;stroke-width:2"  />
  <line x1="-1050" y1="0" x2="-750" y2="0" style="stroke:#800;stroke-width:10;stroke-opacity:1.000000;stroke-linecap:round"/>
  <g transform="translate(-985,-6) rotate(0)" > <text font-size="100.0" fill="#800" font-family="monospace"  >
   77
  </text> </g> 
  <g transform="translate(-732,40) rotate(0)" > <text font-size="100.0" fill="#088" font-family="monospace"  >
   GVID1
  </text> </g> 
  <circle cx="-1050" cy="0" r="10"
    style="fill:none;stroke:#800;stroke-width:2"  />
  <line x1="-1050" y1="-100" x2="-750" y2="-100" style="stroke:#800;stroke-width:10;stroke-opacity:1.000000;stroke-linecap:round"/>
  <g transform="translate(-985,-106) rotate(0)" > <text font-size="100.0" fill="#800" font-family="monospace"  >
   81
  </text> </g> 
  <g transform="translate(-732,-60) rotate(0)" > <text font-size="100.0" fill="#088" font-family="monospace"  >
   RVID1
  </text> </g> 
  <circle cx="-1050" cy="-100" r="10"
    style="fill:none;stroke:#800;stroke-width:2"  />
  <line x1="-1050" y1="-300" x2="-820" y2="-300" style="stroke:#800;stroke-width:10;stroke-opacity:1.000000;stroke-linecap:round"/>
  <circle cx="-785" cy="-300" r="35"
    style="fill:none;stroke:#800;stroke-width:10"  />
  <g transform="translate(-942,-306) rotate(0)" > <text font-size="100.0" fill="#800" font-family="monospace"  >
   4
  </text> </g> 
  <g transform="translate(-732,-260) rotate(0)" > <text font-size="100.0" fill="#088" font-family="monospace"  >
   SYNC0
  </text> </g> 
  <circle cx="-1050" cy="-300" r="10"
    style="fill:none;stroke:#800;stroke-width:2"  />
  <line x1="-1050" y1="-400" x2="-750" y2="-400" style="stroke:#800;stroke-width:10;stroke-opacity:1.000000;stroke-linecap:round"/>
  <g transform="translate(-985,-406) rotate(0)" > <text font-size="100.0" fill="#800" font-family="monospace"  >
   75
  </text> </g> 
  <g transform="translate(-732,-360) rotate(0)" > <text font-size="100.0" fill="#088" font-family="monospace"  >
   BVID0
  </text> </g> 
  <circle cx="-1050" cy="-400" r="10"
    style="fill:none;stroke:#800;stroke-width:2"  />
  <line x1="-1050" y1="-500" x2="-750" y2="-500" style="stroke:#800;stroke-width:10;stroke-opacity:1.000000;stroke-linecap:round"/>
  <g transform="translate(-985,-506) rotate(0)" > <text font-size="100.0" fill="#800" font-family="monospace"  >
   79
  </text> </g> 
  <g transform="translate(-732,-460) rotate(0)" > <text font-size="100.0" fill="#088" font-family="monospace"  >
   GVID0
  </text> </g> 
  <circle cx="-1050" cy="-500" r="10"
    style="fill:none;stroke:#800;stroke-width:2"  />
  <line x1="-1050" y1="-600" x2="-750" y2="-600" style="stroke:#800;stroke-width:10;stroke-opacity:1.000000;stroke-linecap:round"/>
  <g transform="translate(-985,-606) rotate(0)" > <text font-size="100.0" fill="#800" font-family="monospace"  >
   83
  </text> </g> 
  <g transform="translate(-732,-560) rotate(0)" > <text font-size="100.0" fill="#088" font-family="monospace"  >
   RVID0
  </text> </g> 
  <circle cx="-1050" cy="-600" r="10"
    style="fill:none;stroke:#800;stroke-width:2"  />
  <line x1="1050" y1="-2500" x2="820" y2="-2500" style="stroke:#800;stroke-width:10;stroke-opacity:1.000000;stroke-linecap:round"/>
  <circle cx="785" cy="-2500" r="35"
    style="fill:none;stroke:#800;stroke-width:10"  />
  <g transform="translate(857,-2506) rotate(0)" > <text font-size="100.0" fill="#800" font-family="monospace"  >
   8
  </text> </g> 
  <g transform="translate(410,-2460) rotate(0)" > <text font-size="100.0" fill="#088" font-family="monospace"  >
   CSYNC
  </text> </g> 
  <circle cx="1050" cy="-2500" r="10"
    style="fill:none;stroke:#800;stroke-width:2"  />
 </g>
</svg>
