<?xml version="1.0"?>
<svg height="695" width="695"  >
 <g style="fill-opacity:1.0; stroke:black;
  stroke-width:1;" transform=" translate( 347.5,347.5 ) scale( 0.15,0.15 )">
  <g transform="translate(-35,-65) rotate(0)" > <text font-size="116.666666667" fill="#088" font-family="monospace"  >
   U
  </text> </g> 
  <g transform="translate(0,100) rotate(0)" > <text font-size="116.666666667" fill="#088" font-family="monospace"  >
   BT251
  </text> </g> 
  <rect x="-750" y="-1650" height="3300"
    width="1500" style="fill:none;stroke:#800;stroke-width:10" />
  <line x1="50" y1="1950" x2="50" y2="1650" style="stroke:#800;stroke-width:10;stroke-opacity:1.000000;stroke-linecap:round"/>
  <g transform="translate(35,1830) rotate(-90)" > <text font-size="100.0" fill="#800" font-family="monospace"  >
   35
  </text> </g> 
  <g transform="translate(57,1600) rotate(-90)" > <text font-size="100.0" fill="#088" font-family="monospace"  >
   GND
  </text> </g> 
  <circle cx="50" cy="1950" r="10"
    style="fill:none;stroke:#800;stroke-width:2"  />
  <line x1="-50" y1="1950" x2="-50" y2="1650" style="stroke:#800;stroke-width:10;stroke-opacity:1.000000;stroke-linecap:round"/>
  <g transform="translate(-65,1830) rotate(-90)" > <text font-size="100.0" fill="#800" font-family="monospace"  >
   34
  </text> </g> 
  <g transform="translate(-42,1600) rotate(-90)" > <text font-size="100.0" fill="#088" font-family="monospace"  >
   GND
  </text> </g> 
  <circle cx="-50" cy="1950" r="10"
    style="fill:none;stroke:#800;stroke-width:2"  />
  <line x1="50" y1="-1950" x2="50" y2="-1650" style="stroke:#800;stroke-width:10;stroke-opacity:1.000000;stroke-linecap:round"/>
  <g transform="translate(35,-1770) rotate(-90)" > <text font-size="100.0" fill="#800" font-family="monospace"  >
   37
  </text> </g> 
  <g transform="translate(57,-1420) rotate(-90)" > <text font-size="100.0" fill="#088" font-family="monospace"  >
   VCC
  </text> </g> 
  <circle cx="50" cy="-1950" r="10"
    style="fill:none;stroke:#800;stroke-width:2"  />
  <line x1="-50" y1="-1950" x2="-50" y2="-1650" style="stroke:#800;stroke-width:10;stroke-opacity:1.000000;stroke-linecap:round"/>
  <g transform="translate(-65,-1770) rotate(-90)" > <text font-size="100.0" fill="#800" font-family="monospace"  >
   36
  </text> </g> 
  <g transform="translate(-42,-1420) rotate(-90)" > <text font-size="100.0" fill="#088" font-family="monospace"  >
   VCC
  </text> </g> 
  <circle cx="-50" cy="-1950" r="10"
    style="fill:none;stroke:#800;stroke-width:2"  />
  <line x1="-1050" y1="1550" x2="-750" y2="1550" style="stroke:#800;stroke-width:10;stroke-opacity:1.000000;stroke-linecap:round"/>
  <g transform="translate(-985,1544) rotate(0)" > <text font-size="100.0" fill="#800" font-family="monospace"  >
   24
  </text> </g> 
  <g transform="translate(-732,1590) rotate(0)" > <text font-size="100.0" fill="#088" font-family="monospace"  >
   A1
  </text> </g> 
  <circle cx="-1050" cy="1550" r="10"
    style="fill:none;stroke:#800;stroke-width:2"  />
  <line x1="-1050" y1="1450" x2="-750" y2="1450" style="stroke:#800;stroke-width:10;stroke-opacity:1.000000;stroke-linecap:round"/>
  <g transform="translate(-985,1444) rotate(0)" > <text font-size="100.0" fill="#800" font-family="monospace"  >
   25
  </text> </g> 
  <g transform="translate(-732,1490) rotate(0)" > <text font-size="100.0" fill="#088" font-family="monospace"  >
   A0
  </text> </g> 
  <circle cx="-1050" cy="1450" r="10"
    style="fill:none;stroke:#800;stroke-width:2"  />
  <line x1="-1050" y1="1250" x2="-820" y2="1250" style="stroke:#800;stroke-width:10;stroke-opacity:1.000000;stroke-linecap:round"/>
  <circle cx="-785" cy="1250" r="35"
    style="fill:none;stroke:#800;stroke-width:10"  />
  <g transform="translate(-985,1244) rotate(0)" > <text font-size="100.0" fill="#800" font-family="monospace"  >
   22
  </text> </g> 
  <g transform="translate(-732,1290) rotate(0)" > <text font-size="100.0" fill="#088" font-family="monospace"  >
   WR
  </text> </g> 
  <circle cx="-1050" cy="1250" r="10"
    style="fill:none;stroke:#800;stroke-width:2"  />
  <line x1="-1050" y1="1150" x2="-820" y2="1150" style="stroke:#800;stroke-width:10;stroke-opacity:1.000000;stroke-linecap:round"/>
  <circle cx="-785" cy="1150" r="35"
    style="fill:none;stroke:#800;stroke-width:10"  />
  <g transform="translate(-985,1144) rotate(0)" > <text font-size="100.0" fill="#800" font-family="monospace"  >
   23
  </text> </g> 
  <g transform="translate(-732,1190) rotate(0)" > <text font-size="100.0" fill="#088" font-family="monospace"  >
   RD
  </text> </g> 
  <circle cx="-1050" cy="1150" r="10"
    style="fill:none;stroke:#800;stroke-width:2"  />
  <line x1="-1050" y1="950" x2="-750" y2="950" style="stroke:#800;stroke-width:10;stroke-opacity:1.000000;stroke-linecap:round"/>
  <g transform="translate(-985,944) rotate(0)" > <text font-size="100.0" fill="#800" font-family="monospace"  >
   26
  </text> </g> 
  <g transform="translate(-732,990) rotate(0)" > <text font-size="100.0" fill="#088" font-family="monospace"  >
   D7
  </text> </g> 
  <circle cx="-1050" cy="950" r="10"
    style="fill:none;stroke:#800;stroke-width:2"  />
  <line x1="-1050" y1="850" x2="-750" y2="850" style="stroke:#800;stroke-width:10;stroke-opacity:1.000000;stroke-linecap:round"/>
  <g transform="translate(-985,844) rotate(0)" > <text font-size="100.0" fill="#800" font-family="monospace"  >
   27
  </text> </g> 
  <g transform="translate(-732,890) rotate(0)" > <text font-size="100.0" fill="#088" font-family="monospace"  >
   D6
  </text> </g> 
  <circle cx="-1050" cy="850" r="10"
    style="fill:none;stroke:#800;stroke-width:2"  />
  <line x1="-1050" y1="750" x2="-750" y2="750" style="stroke:#800;stroke-width:10;stroke-opacity:1.000000;stroke-linecap:round"/>
  <g transform="translate(-985,744) rotate(0)" > <text font-size="100.0" fill="#800" font-family="monospace"  >
   28
  </text> </g> 
  <g transform="translate(-732,790) rotate(0)" > <text font-size="100.0" fill="#088" font-family="monospace"  >
   D5
  </text> </g> 
  <circle cx="-1050" cy="750" r="10"
    style="fill:none;stroke:#800;stroke-width:2"  />
  <line x1="-1050" y1="650" x2="-750" y2="650" style="stroke:#800;stroke-width:10;stroke-opacity:1.000000;stroke-linecap:round"/>
  <g transform="translate(-985,644) rotate(0)" > <text font-size="100.0" fill="#800" font-family="monospace"  >
   29
  </text> </g> 
  <g transform="translate(-732,690) rotate(0)" > <text font-size="100.0" fill="#088" font-family="monospace"  >
   D4
  </text> </g> 
  <circle cx="-1050" cy="650" r="10"
    style="fill:none;stroke:#800;stroke-width:2"  />
  <line x1="-1050" y1="550" x2="-750" y2="550" style="stroke:#800;stroke-width:10;stroke-opacity:1.000000;stroke-linecap:round"/>
  <g transform="translate(-985,544) rotate(0)" > <text font-size="100.0" fill="#800" font-family="monospace"  >
   30
  </text> </g> 
  <g transform="translate(-732,590) rotate(0)" > <text font-size="100.0" fill="#088" font-family="monospace"  >
   D3
  </text> </g> 
  <circle cx="-1050" cy="550" r="10"
    style="fill:none;stroke:#800;stroke-width:2"  />
  <line x1="-1050" y1="450" x2="-750" y2="450" style="stroke:#800;stroke-width:10;stroke-opacity:1.000000;stroke-linecap:round"/>
  <g transform="translate(-985,444) rotate(0)" > <text font-size="100.0" fill="#800" font-family="monospace"  >
   31
  </text> </g> 
  <g transform="translate(-732,490) rotate(0)" > <text font-size="100.0" fill="#088" font-family="monospace"  >
   D2
  </text> </g> 
  <circle cx="-1050" cy="450" r="10"
    style="fill:none;stroke:#800;stroke-width:2"  />
  <line x1="-1050" y1="350" x2="-750" y2="350" style="stroke:#800;stroke-width:10;stroke-opacity:1.000000;stroke-linecap:round"/>
  <g transform="translate(-985,344) rotate(0)" > <text font-size="100.0" fill="#800" font-family="monospace"  >
   32
  </text> </g> 
  <g transform="translate(-732,390) rotate(0)" > <text font-size="100.0" fill="#088" font-family="monospace"  >
   D1
  </text> </g> 
  <circle cx="-1050" cy="350" r="10"
    style="fill:none;stroke:#800;stroke-width:2"  />
  <line x1="-1050" y1="250" x2="-750" y2="250" style="stroke:#800;stroke-width:10;stroke-opacity:1.000000;stroke-linecap:round"/>
  <g transform="translate(-985,244) rotate(0)" > <text font-size="100.0" fill="#800" font-family="monospace"  >
   33
  </text> </g> 
  <g transform="translate(-732,290) rotate(0)" > <text font-size="100.0" fill="#088" font-family="monospace"  >
   D0
  </text> </g> 
  <circle cx="-1050" cy="250" r="10"
    style="fill:none;stroke:#800;stroke-width:2"  />
  <line x1="1050" y1="1150" x2="820" y2="1150" style="stroke:#800;stroke-width:10;stroke-opacity:1.000000;stroke-linecap:round"/>
  <circle cx="785" cy="1150" r="35"
    style="fill:none;stroke:#800;stroke-width:10"  />
  <g transform="translate(857,1144) rotate(0)" > <text font-size="100.0" fill="#800" font-family="monospace"  >
   8
  </text> </g> 
  <g transform="translate(590,1190) rotate(0)" > <text font-size="100.0" fill="#088" font-family="monospace"  >
   OE
  </text> </g> 
  <circle cx="1050" cy="1150" r="10"
    style="fill:none;stroke:#800;stroke-width:2"  />
  <line x1="1050" y1="950" x2="750" y2="950" style="stroke:#800;stroke-width:10;stroke-opacity:1.000000;stroke-linecap:round"/>
  <g transform="translate(815,944) rotate(0)" > <text font-size="100.0" fill="#800" font-family="monospace"  >
   21
  </text> </g> 
  <g transform="translate(590,990) rotate(0)" > <text font-size="100.0" fill="#088" font-family="monospace"  >
   P7
  </text> </g> 
  <circle cx="1050" cy="950" r="10"
    style="fill:none;stroke:#800;stroke-width:2"  />
  <line x1="1050" y1="850" x2="750" y2="850" style="stroke:#800;stroke-width:10;stroke-opacity:1.000000;stroke-linecap:round"/>
  <g transform="translate(815,844) rotate(0)" > <text font-size="100.0" fill="#800" font-family="monospace"  >
   20
  </text> </g> 
  <g transform="translate(590,890) rotate(0)" > <text font-size="100.0" fill="#088" font-family="monospace"  >
   P6
  </text> </g> 
  <circle cx="1050" cy="850" r="10"
    style="fill:none;stroke:#800;stroke-width:2"  />
  <line x1="1050" y1="750" x2="750" y2="750" style="stroke:#800;stroke-width:10;stroke-opacity:1.000000;stroke-linecap:round"/>
  <g transform="translate(815,744) rotate(0)" > <text font-size="100.0" fill="#800" font-family="monospace"  >
   19
  </text> </g> 
  <g transform="translate(590,790) rotate(0)" > <text font-size="100.0" fill="#088" font-family="monospace"  >
   P5
  </text> </g> 
  <circle cx="1050" cy="750" r="10"
    style="fill:none;stroke:#800;stroke-width:2"  />
  <line x1="1050" y1="650" x2="750" y2="650" style="stroke:#800;stroke-width:10;stroke-opacity:1.000000;stroke-linecap:round"/>
  <g transform="translate(815,644) rotate(0)" > <text font-size="100.0" fill="#800" font-family="monospace"  >
   18
  </text> </g> 
  <g transform="translate(590,690) rotate(0)" > <text font-size="100.0" fill="#088" font-family="monospace"  >
   P4
  </text> </g> 
  <circle cx="1050" cy="650" r="10"
    style="fill:none;stroke:#800;stroke-width:2"  />
  <line x1="1050" y1="550" x2="750" y2="550" style="stroke:#800;stroke-width:10;stroke-opacity:1.000000;stroke-linecap:round"/>
  <g transform="translate(815,544) rotate(0)" > <text font-size="100.0" fill="#800" font-family="monospace"  >
   17
  </text> </g> 
  <g transform="translate(590,590) rotate(0)" > <text font-size="100.0" fill="#088" font-family="monospace"  >
   P3
  </text> </g> 
  <circle cx="1050" cy="550" r="10"
    style="fill:none;stroke:#800;stroke-width:2"  />
  <line x1="1050" y1="450" x2="750" y2="450" style="stroke:#800;stroke-width:10;stroke-opacity:1.000000;stroke-linecap:round"/>
  <g transform="translate(815,444) rotate(0)" > <text font-size="100.0" fill="#800" font-family="monospace"  >
   16
  </text> </g> 
  <g transform="translate(590,490) rotate(0)" > <text font-size="100.0" fill="#088" font-family="monospace"  >
   P2
  </text> </g> 
  <circle cx="1050" cy="450" r="10"
    style="fill:none;stroke:#800;stroke-width:2"  />
  <line x1="1050" y1="350" x2="750" y2="350" style="stroke:#800;stroke-width:10;stroke-opacity:1.000000;stroke-linecap:round"/>
  <g transform="translate(815,344) rotate(0)" > <text font-size="100.0" fill="#800" font-family="monospace"  >
   15
  </text> </g> 
  <g transform="translate(590,390) rotate(0)" > <text font-size="100.0" fill="#088" font-family="monospace"  >
   P1
  </text> </g> 
  <circle cx="1050" cy="350" r="10"
    style="fill:none;stroke:#800;stroke-width:2"  />
  <line x1="1050" y1="250" x2="750" y2="250" style="stroke:#800;stroke-width:10;stroke-opacity:1.000000;stroke-linecap:round"/>
  <g transform="translate(815,244) rotate(0)" > <text font-size="100.0" fill="#800" font-family="monospace"  >
   14
  </text> </g> 
  <g transform="translate(590,290) rotate(0)" > <text font-size="100.0" fill="#088" font-family="monospace"  >
   P0
  </text> </g> 
  <circle cx="1050" cy="250" r="10"
    style="fill:none;stroke:#800;stroke-width:2"  />
  <line x1="710" y1="50" x2="750" y2="90" style="stroke:#800;stroke-width:10;stroke-opacity:1.000000;stroke-linecap:round"/>
  <line x1="750" y1="90" x2="750" y2="10" style="stroke:#800;stroke-width:10;stroke-opacity:1.000000;stroke-linecap:round"/>
  <line x1="750" y1="10" x2="710" y2="50" style="stroke:#800;stroke-width:10;stroke-opacity:1.000000;stroke-linecap:round"/>
  <line x1="1050" y1="50" x2="750" y2="50" style="stroke:#800;stroke-width:10;stroke-opacity:1.000000;stroke-linecap:round"/>
  <g transform="translate(815,44) rotate(0)" > <text font-size="100.0" fill="#800" font-family="monospace"  >
   13
  </text> </g> 
  <g transform="translate(410,90) rotate(0)" > <text font-size="100.0" fill="#088" font-family="monospace"  >
   CLOCK
  </text> </g> 
  <circle cx="1050" cy="50" r="10"
    style="fill:none;stroke:#800;stroke-width:2"  />
  <line x1="1050" y1="-150" x2="750" y2="-150" style="stroke:#800;stroke-width:10;stroke-opacity:1.000000;stroke-linecap:round"/>
  <g transform="translate(815,-156) rotate(0)" > <text font-size="100.0" fill="#800" font-family="monospace"  >
   12
  </text> </g> 
  <g transform="translate(470,-110) rotate(0)" > <text font-size="100.0" fill="#088" font-family="monospace"  >
   ZERO
  </text> </g> 
  <circle cx="1050" cy="-150" r="10"
    style="fill:none;stroke:#800;stroke-width:2"  />
  <line x1="1050" y1="-350" x2="750" y2="-350" style="stroke:#800;stroke-width:10;stroke-opacity:1.000000;stroke-linecap:round"/>
  <g transform="translate(857,-356) rotate(0)" > <text font-size="100.0" fill="#800" font-family="monospace"  >
   5
  </text> </g> 
  <g transform="translate(410,-310) rotate(0)" > <text font-size="100.0" fill="#088" font-family="monospace"  >
   LEVEL
  </text> </g> 
  <circle cx="1050" cy="-350" r="10"
    style="fill:none;stroke:#800;stroke-width:2"  />
  <line x1="1050" y1="-550" x2="750" y2="-550" style="stroke:#800;stroke-width:10;stroke-opacity:1.000000;stroke-linecap:round"/>
  <g transform="translate(857,-556) rotate(0)" > <text font-size="100.0" fill="#800" font-family="monospace"  >
   3
  </text> </g> 
  <g transform="translate(410,-510) rotate(0)" > <text font-size="100.0" fill="#088" font-family="monospace"  >
   CLAMP
  </text> </g> 
  <circle cx="1050" cy="-550" r="10"
    style="fill:none;stroke:#800;stroke-width:2"  />
  <line x1="1050" y1="-950" x2="750" y2="-950" style="stroke:#800;stroke-width:10;stroke-opacity:1.000000;stroke-linecap:round"/>
  <g transform="translate(815,-956) rotate(0)" > <text font-size="100.0" fill="#800" font-family="monospace"  >
   40
  </text> </g> 
  <g transform="translate(410,-910) rotate(0)" > <text font-size="100.0" fill="#088" font-family="monospace"  >
   VIDIN
  </text> </g> 
  <circle cx="1050" cy="-950" r="10"
    style="fill:none;stroke:#800;stroke-width:2"  />
  <line x1="1050" y1="-1150" x2="750" y2="-1150" style="stroke:#800;stroke-width:10;stroke-opacity:1.000000;stroke-linecap:round"/>
  <g transform="translate(815,-1156) rotate(0)" > <text font-size="100.0" fill="#800" font-family="monospace"  >
   42
  </text> </g> 
  <g transform="translate(350,-1110) rotate(0)" > <text font-size="100.0" fill="#088" font-family="monospace"  >
   VIDOUT
  </text> </g> 
  <circle cx="1050" cy="-1150" r="10"
    style="fill:none;stroke:#800;stroke-width:2"  />
  <line x1="1050" y1="-1550" x2="820" y2="-1550" style="stroke:#800;stroke-width:10;stroke-opacity:1.000000;stroke-linecap:round"/>
  <circle cx="785" cy="-1550" r="35"
    style="fill:none;stroke:#800;stroke-width:10"  />
  <g transform="translate(815,-1556) rotate(0)" > <text font-size="100.0" fill="#800" font-family="monospace"  >
   11
  </text> </g> 
  <g transform="translate(410,-1510) rotate(0)" > <text font-size="100.0" fill="#088" font-family="monospace"  >
   CSYNC
  </text> </g> 
  <circle cx="1050" cy="-1550" r="10"
    style="fill:none;stroke:#800;stroke-width:2"  />
  <line x1="-1050" y1="50" x2="-750" y2="50" style="stroke:#800;stroke-width:10;stroke-opacity:1.000000;stroke-linecap:round"/>
  <g transform="translate(-942,44) rotate(0)" > <text font-size="100.0" fill="#800" font-family="monospace"  >
   6
  </text> </g> 
  <g transform="translate(-732,90) rotate(0)" > <text font-size="100.0" fill="#088" font-family="monospace"  >
   VID3
  </text> </g> 
  <circle cx="-1050" cy="50" r="10"
    style="fill:none;stroke:#800;stroke-width:2"  />
  <line x1="-1050" y1="-50" x2="-750" y2="-50" style="stroke:#800;stroke-width:10;stroke-opacity:1.000000;stroke-linecap:round"/>
  <g transform="translate(-942,-56) rotate(0)" > <text font-size="100.0" fill="#800" font-family="monospace"  >
   4
  </text> </g> 
  <g transform="translate(-732,-10) rotate(0)" > <text font-size="100.0" fill="#088" font-family="monospace"  >
   VID2
  </text> </g> 
  <circle cx="-1050" cy="-50" r="10"
    style="fill:none;stroke:#800;stroke-width:2"  />
  <line x1="-1050" y1="-150" x2="-750" y2="-150" style="stroke:#800;stroke-width:10;stroke-opacity:1.000000;stroke-linecap:round"/>
  <g transform="translate(-942,-156) rotate(0)" > <text font-size="100.0" fill="#800" font-family="monospace"  >
   2
  </text> </g> 
  <g transform="translate(-732,-110) rotate(0)" > <text font-size="100.0" fill="#088" font-family="monospace"  >
   VID1
  </text> </g> 
  <circle cx="-1050" cy="-150" r="10"
    style="fill:none;stroke:#800;stroke-width:2"  />
  <line x1="-1050" y1="-250" x2="-750" y2="-250" style="stroke:#800;stroke-width:10;stroke-opacity:1.000000;stroke-linecap:round"/>
  <g transform="translate(-985,-256) rotate(0)" > <text font-size="100.0" fill="#800" font-family="monospace"  >
   44
  </text> </g> 
  <g transform="translate(-732,-210) rotate(0)" > <text font-size="100.0" fill="#088" font-family="monospace"  >
   VID0
  </text> </g> 
  <circle cx="-1050" cy="-250" r="10"
    style="fill:none;stroke:#800;stroke-width:2"  />
  <line x1="-1050" y1="-450" x2="-750" y2="-450" style="stroke:#800;stroke-width:10;stroke-opacity:1.000000;stroke-linecap:round"/>
  <g transform="translate(-942,-456) rotate(0)" > <text font-size="100.0" fill="#800" font-family="monospace"  >
   7
  </text> </g> 
  <g transform="translate(-732,-410) rotate(0)" > <text font-size="100.0" fill="#088" font-family="monospace"  >
   REF-
  </text> </g> 
  <circle cx="-1050" cy="-450" r="10"
    style="fill:none;stroke:#800;stroke-width:2"  />
  <line x1="-1050" y1="-650" x2="-750" y2="-650" style="stroke:#800;stroke-width:10;stroke-opacity:1.000000;stroke-linecap:round"/>
  <g transform="translate(-985,-656) rotate(0)" > <text font-size="100.0" fill="#800" font-family="monospace"  >
   38
  </text> </g> 
  <g transform="translate(-732,-610) rotate(0)" > <text font-size="100.0" fill="#088" font-family="monospace"  >
   REF+
  </text> </g> 
  <circle cx="-1050" cy="-650" r="10"
    style="fill:none;stroke:#800;stroke-width:2"  />
  <line x1="-1050" y1="-850" x2="-750" y2="-850" style="stroke:#800;stroke-width:10;stroke-opacity:1.000000;stroke-linecap:round"/>
  <g transform="translate(-942,-856) rotate(0)" > <text font-size="100.0" fill="#800" font-family="monospace"  >
   1
  </text> </g> 
  <g transform="translate(-732,-810) rotate(0)" > <text font-size="100.0" fill="#088" font-family="monospace"  >
   IOUT1
  </text> </g> 
  <circle cx="-1050" cy="-850" r="10"
    style="fill:none;stroke:#800;stroke-width:2"  />
  <line x1="-1050" y1="-1050" x2="-750" y2="-1050" style="stroke:#800;stroke-width:10;stroke-opacity:1.000000;stroke-linecap:round"/>
  <g transform="translate(-985,-1056) rotate(0)" > <text font-size="100.0" fill="#800" font-family="monospace"  >
   43
  </text> </g> 
  <g transform="translate(-732,-1010) rotate(0)" > <text font-size="100.0" fill="#088" font-family="monospace"  >
   IOUT0
  </text> </g> 
  <circle cx="-1050" cy="-1050" r="10"
    style="fill:none;stroke:#800;stroke-width:2"  />
  <line x1="-1050" y1="-1250" x2="-750" y2="-1250" style="stroke:#800;stroke-width:10;stroke-opacity:1.000000;stroke-linecap:round"/>
  <g transform="translate(-985,-1256) rotate(0)" > <text font-size="100.0" fill="#800" font-family="monospace"  >
   10
  </text> </g> 
  <g transform="translate(-732,-1210) rotate(0)" > <text font-size="100.0" fill="#088" font-family="monospace"  >
   CEXT1
  </text> </g> 
  <circle cx="-1050" cy="-1250" r="10"
    style="fill:none;stroke:#800;stroke-width:2"  />
  <line x1="-1050" y1="-1350" x2="-750" y2="-1350" style="stroke:#800;stroke-width:10;stroke-opacity:1.000000;stroke-linecap:round"/>
  <g transform="translate(-942,-1356) rotate(0)" > <text font-size="100.0" fill="#800" font-family="monospace"  >
   9
  </text> </g> 
  <g transform="translate(-732,-1310) rotate(0)" > <text font-size="100.0" fill="#088" font-family="monospace"  >
   CEXT2
  </text> </g> 
  <circle cx="-1050" cy="-1350" r="10"
    style="fill:none;stroke:#800;stroke-width:2"  />
  <line x1="-1050" y1="-1550" x2="-750" y2="-1550" style="stroke:#800;stroke-width:10;stroke-opacity:1.000000;stroke-linecap:round"/>
  <g transform="translate(-985,-1556) rotate(0)" > <text font-size="100.0" fill="#800" font-family="monospace"  >
   41
  </text> </g> 
  <g transform="translate(-732,-1510) rotate(0)" > <text font-size="100.0" fill="#088" font-family="monospace"  >
   RSET
  </text> </g> 
  <circle cx="-1050" cy="-1550" r="10"
    style="fill:none;stroke:#800;stroke-width:2"  />
 </g>
</svg>
