<?xml version="1.0"?>
<svg height="920" width="920"  >
 <g style="fill-opacity:1.0; stroke:black;
  stroke-width:1;" transform=" translate( 460.0,460.0 ) scale( 0.15,0.15 )">
  <g transform="translate(-35,-65) rotate(0)" > <text font-size="116.666666667" fill="#088" font-family="monospace"  >
   U
  </text> </g> 
  <g transform="translate(0,100) rotate(0)" > <text font-size="116.666666667" fill="#088" font-family="monospace"  >
   BT473
  </text> </g> 
  <rect x="-700" y="-2400" height="4800"
    width="1400" style="fill:none;stroke:#800;stroke-width:10" />
  <line x1="1000" y1="1600" x2="700" y2="1600" style="stroke:#800;stroke-width:10;stroke-opacity:1.000000;stroke-linecap:round"/>
  <g transform="translate(807,1594) rotate(0)" > <text font-size="100.0" fill="#800" font-family="monospace"  >
   6
  </text> </g> 
  <g transform="translate(540,1640) rotate(0)" > <text font-size="100.0" fill="#088" font-family="monospace"  >
   S1
  </text> </g> 
  <circle cx="1000" cy="1600" r="10"
    style="fill:none;stroke:#800;stroke-width:2"  />
  <line x1="1000" y1="1500" x2="700" y2="1500" style="stroke:#800;stroke-width:10;stroke-opacity:1.000000;stroke-linecap:round"/>
  <g transform="translate(807,1494) rotate(0)" > <text font-size="100.0" fill="#800" font-family="monospace"  >
   5
  </text> </g> 
  <g transform="translate(540,1540) rotate(0)" > <text font-size="100.0" fill="#088" font-family="monospace"  >
   S0
  </text> </g> 
  <circle cx="1000" cy="1500" r="10"
    style="fill:none;stroke:#800;stroke-width:2"  />
  <line x1="100" y1="2700" x2="100" y2="2400" style="stroke:#800;stroke-width:10;stroke-opacity:1.000000;stroke-linecap:round"/>
  <g transform="translate(85,2580) rotate(-90)" > <text font-size="100.0" fill="#800" font-family="monospace"  >
   32
  </text> </g> 
  <g transform="translate(107,2350) rotate(-90)" > <text font-size="100.0" fill="#088" font-family="monospace"  >
   GND
  </text> </g> 
  <circle cx="100" cy="2700" r="10"
    style="fill:none;stroke:#800;stroke-width:2"  />
  <line x1="0" y1="2700" x2="0" y2="2400" style="stroke:#800;stroke-width:10;stroke-opacity:1.000000;stroke-linecap:round"/>
  <g transform="translate(-15,2580) rotate(-90)" > <text font-size="100.0" fill="#800" font-family="monospace"  >
   31
  </text> </g> 
  <g transform="translate(7,2350) rotate(-90)" > <text font-size="100.0" fill="#088" font-family="monospace"  >
   GND
  </text> </g> 
  <circle cx="0" cy="2700" r="10"
    style="fill:none;stroke:#800;stroke-width:2"  />
  <line x1="-100" y1="2700" x2="-100" y2="2400" style="stroke:#800;stroke-width:10;stroke-opacity:1.000000;stroke-linecap:round"/>
  <g transform="translate(-115,2565) rotate(-90)" > <text font-size="100.0" fill="#800" font-family="monospace"  >
   4
  </text> </g> 
  <g transform="translate(-92,2350) rotate(-90)" > <text font-size="100.0" fill="#088" font-family="monospace"  >
   GND
  </text> </g> 
  <circle cx="-100" cy="2700" r="10"
    style="fill:none;stroke:#800;stroke-width:2"  />
  <line x1="-200" y1="2700" x2="-200" y2="2400" style="stroke:#800;stroke-width:10;stroke-opacity:1.000000;stroke-linecap:round"/>
  <g transform="translate(-215,2565) rotate(-90)" > <text font-size="100.0" fill="#800" font-family="monospace"  >
   3
  </text> </g> 
  <g transform="translate(-192,2350) rotate(-90)" > <text font-size="100.0" fill="#088" font-family="monospace"  >
   GND
  </text> </g> 
  <circle cx="-200" cy="2700" r="10"
    style="fill:none;stroke:#800;stroke-width:2"  />
  <line x1="200" y1="-2700" x2="200" y2="-2400" style="stroke:#800;stroke-width:10;stroke-opacity:1.000000;stroke-linecap:round"/>
  <g transform="translate(185,-2520) rotate(-90)" > <text font-size="100.0" fill="#800" font-family="monospace"  >
   36
  </text> </g> 
  <g transform="translate(207,-2170) rotate(-90)" > <text font-size="100.0" fill="#088" font-family="monospace"  >
   VAA
  </text> </g> 
  <circle cx="200" cy="-2700" r="10"
    style="fill:none;stroke:#800;stroke-width:2"  />
  <line x1="100" y1="-2700" x2="100" y2="-2400" style="stroke:#800;stroke-width:10;stroke-opacity:1.000000;stroke-linecap:round"/>
  <g transform="translate(85,-2520) rotate(-90)" > <text font-size="100.0" fill="#800" font-family="monospace"  >
   35
  </text> </g> 
  <g transform="translate(107,-2170) rotate(-90)" > <text font-size="100.0" fill="#088" font-family="monospace"  >
   VAA
  </text> </g> 
  <circle cx="100" cy="-2700" r="10"
    style="fill:none;stroke:#800;stroke-width:2"  />
  <line x1="0" y1="-2700" x2="0" y2="-2400" style="stroke:#800;stroke-width:10;stroke-opacity:1.000000;stroke-linecap:round"/>
  <g transform="translate(-15,-2520) rotate(-90)" > <text font-size="100.0" fill="#800" font-family="monospace"  >
   34
  </text> </g> 
  <g transform="translate(7,-2170) rotate(-90)" > <text font-size="100.0" fill="#088" font-family="monospace"  >
   VAA
  </text> </g> 
  <circle cx="0" cy="-2700" r="10"
    style="fill:none;stroke:#800;stroke-width:2"  />
  <line x1="-100" y1="-2700" x2="-100" y2="-2400" style="stroke:#800;stroke-width:10;stroke-opacity:1.000000;stroke-linecap:round"/>
  <g transform="translate(-115,-2520) rotate(-90)" > <text font-size="100.0" fill="#800" font-family="monospace"  >
   33
  </text> </g> 
  <g transform="translate(-92,-2170) rotate(-90)" > <text font-size="100.0" fill="#088" font-family="monospace"  >
   VAA
  </text> </g> 
  <circle cx="-100" cy="-2700" r="10"
    style="fill:none;stroke:#800;stroke-width:2"  />
  <line x1="-200" y1="-2700" x2="-200" y2="-2400" style="stroke:#800;stroke-width:10;stroke-opacity:1.000000;stroke-linecap:round"/>
  <g transform="translate(-215,-2535) rotate(-90)" > <text font-size="100.0" fill="#800" font-family="monospace"  >
   2
  </text> </g> 
  <g transform="translate(-192,-2170) rotate(-90)" > <text font-size="100.0" fill="#088" font-family="monospace"  >
   VAA
  </text> </g> 
  <circle cx="-200" cy="-2700" r="10"
    style="fill:none;stroke:#800;stroke-width:2"  />
  <line x1="-300" y1="-2700" x2="-300" y2="-2400" style="stroke:#800;stroke-width:10;stroke-opacity:1.000000;stroke-linecap:round"/>
  <g transform="translate(-315,-2535) rotate(-90)" > <text font-size="100.0" fill="#800" font-family="monospace"  >
   1
  </text> </g> 
  <g transform="translate(-292,-2170) rotate(-90)" > <text font-size="100.0" fill="#088" font-family="monospace"  >
   VAA
  </text> </g> 
  <circle cx="-300" cy="-2700" r="10"
    style="fill:none;stroke:#800;stroke-width:2"  />
  <line x1="1000" y1="1100" x2="700" y2="1100" style="stroke:#800;stroke-width:10;stroke-opacity:1.000000;stroke-linecap:round"/>
  <g transform="translate(765,1094) rotate(0)" > <text font-size="100.0" fill="#800" font-family="monospace"  >
   30
  </text> </g> 
  <g transform="translate(480,1140) rotate(0)" > <text font-size="100.0" fill="#088" font-family="monospace"  >
   CR3
  </text> </g> 
  <circle cx="1000" cy="1100" r="10"
    style="fill:none;stroke:#800;stroke-width:2"  />
  <line x1="1000" y1="1000" x2="700" y2="1000" style="stroke:#800;stroke-width:10;stroke-opacity:1.000000;stroke-linecap:round"/>
  <g transform="translate(765,994) rotate(0)" > <text font-size="100.0" fill="#800" font-family="monospace"  >
   29
  </text> </g> 
  <g transform="translate(480,1040) rotate(0)" > <text font-size="100.0" fill="#088" font-family="monospace"  >
   CR2
  </text> </g> 
  <circle cx="1000" cy="1000" r="10"
    style="fill:none;stroke:#800;stroke-width:2"  />
  <line x1="1000" y1="900" x2="700" y2="900" style="stroke:#800;stroke-width:10;stroke-opacity:1.000000;stroke-linecap:round"/>
  <g transform="translate(765,894) rotate(0)" > <text font-size="100.0" fill="#800" font-family="monospace"  >
   28
  </text> </g> 
  <g transform="translate(480,940) rotate(0)" > <text font-size="100.0" fill="#088" font-family="monospace"  >
   CR1
  </text> </g> 
  <circle cx="1000" cy="900" r="10"
    style="fill:none;stroke:#800;stroke-width:2"  />
  <line x1="1000" y1="800" x2="700" y2="800" style="stroke:#800;stroke-width:10;stroke-opacity:1.000000;stroke-linecap:round"/>
  <g transform="translate(765,794) rotate(0)" > <text font-size="100.0" fill="#800" font-family="monospace"  >
   27
  </text> </g> 
  <g transform="translate(480,840) rotate(0)" > <text font-size="100.0" fill="#088" font-family="monospace"  >
   CR0
  </text> </g> 
  <circle cx="1000" cy="800" r="10"
    style="fill:none;stroke:#800;stroke-width:2"  />
  <line x1="660" y1="400" x2="700" y2="440" style="stroke:#800;stroke-width:10;stroke-opacity:1.000000;stroke-linecap:round"/>
  <line x1="700" y1="440" x2="700" y2="360" style="stroke:#800;stroke-width:10;stroke-opacity:1.000000;stroke-linecap:round"/>
  <line x1="700" y1="360" x2="660" y2="400" style="stroke:#800;stroke-width:10;stroke-opacity:1.000000;stroke-linecap:round"/>
  <line x1="1000" y1="400" x2="700" y2="400" style="stroke:#800;stroke-width:10;stroke-opacity:1.000000;stroke-linecap:round"/>
  <g transform="translate(807,394) rotate(0)" > <text font-size="100.0" fill="#800" font-family="monospace"  >
   9
  </text> </g> 
  <g transform="translate(360,440) rotate(0)" > <text font-size="100.0" fill="#088" font-family="monospace"  >
   CLOCK
  </text> </g> 
  <circle cx="1000" cy="400" r="10"
    style="fill:none;stroke:#800;stroke-width:2"  />
  <line x1="1000" y1="200" x2="770" y2="200" style="stroke:#800;stroke-width:10;stroke-opacity:1.000000;stroke-linecap:round"/>
  <circle cx="735" cy="200" r="35"
    style="fill:none;stroke:#800;stroke-width:10"  />
  <g transform="translate(807,194) rotate(0)" > <text font-size="100.0" fill="#800" font-family="monospace"  >
   7
  </text> </g> 
  <g transform="translate(360,240) rotate(0)" > <text font-size="100.0" fill="#088" font-family="monospace"  >
   BLANK
  </text> </g> 
  <circle cx="1000" cy="200" r="10"
    style="fill:none;stroke:#800;stroke-width:2"  />
  <line x1="1000" y1="0" x2="770" y2="0" style="stroke:#800;stroke-width:10;stroke-opacity:1.000000;stroke-linecap:round"/>
  <circle cx="735" cy="0" r="35"
    style="fill:none;stroke:#800;stroke-width:10"  />
  <g transform="translate(807,-6) rotate(0)" > <text font-size="100.0" fill="#800" font-family="monospace"  >
   8
  </text> </g> 
  <g transform="translate(420,40) rotate(0)" > <text font-size="100.0" fill="#088" font-family="monospace"  >
   SYNC
  </text> </g> 
  <circle cx="1000" cy="0" r="10"
    style="fill:none;stroke:#800;stroke-width:2"  />
  <line x1="1000" y1="-400" x2="700" y2="-400" style="stroke:#800;stroke-width:10;stroke-opacity:1.000000;stroke-linecap:round"/>
  <g transform="translate(765,-406) rotate(0)" > <text font-size="100.0" fill="#800" font-family="monospace"  >
   44
  </text> </g> 
  <g transform="translate(240,-360) rotate(0)" > <text font-size="100.0" fill="#088" font-family="monospace"  >
   VREFOUT
  </text> </g> 
  <circle cx="1000" cy="-400" r="10"
    style="fill:none;stroke:#800;stroke-width:2"  />
  <line x1="1000" y1="-600" x2="700" y2="-600" style="stroke:#800;stroke-width:10;stroke-opacity:1.000000;stroke-linecap:round"/>
  <g transform="translate(765,-606) rotate(0)" > <text font-size="100.0" fill="#800" font-family="monospace"  >
   42
  </text> </g> 
  <g transform="translate(480,-560) rotate(0)" > <text font-size="100.0" fill="#088" font-family="monospace"  >
   OPA
  </text> </g> 
  <circle cx="1000" cy="-600" r="10"
    style="fill:none;stroke:#800;stroke-width:2"  />
  <line x1="1000" y1="-800" x2="700" y2="-800" style="stroke:#800;stroke-width:10;stroke-opacity:1.000000;stroke-linecap:round"/>
  <g transform="translate(765,-806) rotate(0)" > <text font-size="100.0" fill="#800" font-family="monospace"  >
   41
  </text> </g> 
  <g transform="translate(420,-760) rotate(0)" > <text font-size="100.0" fill="#088" font-family="monospace"  >
   COMP
  </text> </g> 
  <circle cx="1000" cy="-800" r="10"
    style="fill:none;stroke:#800;stroke-width:2"  />
  <line x1="1000" y1="-1000" x2="700" y2="-1000" style="stroke:#800;stroke-width:10;stroke-opacity:1.000000;stroke-linecap:round"/>
  <g transform="translate(765,-1006) rotate(0)" > <text font-size="100.0" fill="#800" font-family="monospace"  >
   43
  </text> </g> 
  <g transform="translate(420,-960) rotate(0)" > <text font-size="100.0" fill="#088" font-family="monospace"  >
   VREF
  </text> </g> 
  <circle cx="1000" cy="-1000" r="10"
    style="fill:none;stroke:#800;stroke-width:2"  />
  <line x1="1000" y1="-1200" x2="700" y2="-1200" style="stroke:#800;stroke-width:10;stroke-opacity:1.000000;stroke-linecap:round"/>
  <g transform="translate(765,-1206) rotate(0)" > <text font-size="100.0" fill="#800" font-family="monospace"  >
   40
  </text> </g> 
  <g transform="translate(420,-1160) rotate(0)" > <text font-size="100.0" fill="#088" font-family="monospace"  >
   IREF
  </text> </g> 
  <circle cx="1000" cy="-1200" r="10"
    style="fill:none;stroke:#800;stroke-width:2"  />
  <line x1="1000" y1="-1600" x2="700" y2="-1600" style="stroke:#800;stroke-width:10;stroke-opacity:1.000000;stroke-linecap:round"/>
  <g transform="translate(765,-1606) rotate(0)" > <text font-size="100.0" fill="#800" font-family="monospace"  >
   39
  </text> </g> 
  <g transform="translate(480,-1560) rotate(0)" > <text font-size="100.0" fill="#088" font-family="monospace"  >
   BLU
  </text> </g> 
  <circle cx="1000" cy="-1600" r="10"
    style="fill:none;stroke:#800;stroke-width:2"  />
  <line x1="1000" y1="-1800" x2="700" y2="-1800" style="stroke:#800;stroke-width:10;stroke-opacity:1.000000;stroke-linecap:round"/>
  <g transform="translate(765,-1806) rotate(0)" > <text font-size="100.0" fill="#800" font-family="monospace"  >
   38
  </text> </g> 
  <g transform="translate(480,-1760) rotate(0)" > <text font-size="100.0" fill="#088" font-family="monospace"  >
   GRE
  </text> </g> 
  <circle cx="1000" cy="-1800" r="10"
    style="fill:none;stroke:#800;stroke-width:2"  />
  <line x1="1000" y1="-2000" x2="700" y2="-2000" style="stroke:#800;stroke-width:10;stroke-opacity:1.000000;stroke-linecap:round"/>
  <g transform="translate(765,-2006) rotate(0)" > <text font-size="100.0" fill="#800" font-family="monospace"  >
   37
  </text> </g> 
  <g transform="translate(480,-1960) rotate(0)" > <text font-size="100.0" fill="#088" font-family="monospace"  >
   RED
  </text> </g> 
  <circle cx="1000" cy="-2000" r="10"
    style="fill:none;stroke:#800;stroke-width:2"  />
  <line x1="-1000" y1="2300" x2="-700" y2="2300" style="stroke:#800;stroke-width:10;stroke-opacity:1.000000;stroke-linecap:round"/>
  <g transform="translate(-935,2294) rotate(0)" > <text font-size="100.0" fill="#800" font-family="monospace"  >
   13
  </text> </g> 
  <g transform="translate(-682,2340) rotate(0)" > <text font-size="100.0" fill="#088" font-family="monospace"  >
   OL3
  </text> </g> 
  <circle cx="-1000" cy="2300" r="10"
    style="fill:none;stroke:#800;stroke-width:2"  />
  <line x1="-1000" y1="2200" x2="-700" y2="2200" style="stroke:#800;stroke-width:10;stroke-opacity:1.000000;stroke-linecap:round"/>
  <g transform="translate(-935,2194) rotate(0)" > <text font-size="100.0" fill="#800" font-family="monospace"  >
   12
  </text> </g> 
  <g transform="translate(-682,2240) rotate(0)" > <text font-size="100.0" fill="#088" font-family="monospace"  >
   OL2
  </text> </g> 
  <circle cx="-1000" cy="2200" r="10"
    style="fill:none;stroke:#800;stroke-width:2"  />
  <line x1="-1000" y1="2100" x2="-700" y2="2100" style="stroke:#800;stroke-width:10;stroke-opacity:1.000000;stroke-linecap:round"/>
  <g transform="translate(-935,2094) rotate(0)" > <text font-size="100.0" fill="#800" font-family="monospace"  >
   11
  </text> </g> 
  <g transform="translate(-682,2140) rotate(0)" > <text font-size="100.0" fill="#088" font-family="monospace"  >
   OL1
  </text> </g> 
  <circle cx="-1000" cy="2100" r="10"
    style="fill:none;stroke:#800;stroke-width:2"  />
  <line x1="-1000" y1="2000" x2="-700" y2="2000" style="stroke:#800;stroke-width:10;stroke-opacity:1.000000;stroke-linecap:round"/>
  <g transform="translate(-935,1994) rotate(0)" > <text font-size="100.0" fill="#800" font-family="monospace"  >
   10
  </text> </g> 
  <g transform="translate(-682,2040) rotate(0)" > <text font-size="100.0" fill="#088" font-family="monospace"  >
   OL0
  </text> </g> 
  <circle cx="-1000" cy="2000" r="10"
    style="fill:none;stroke:#800;stroke-width:2"  />
  <line x1="-1000" y1="1800" x2="-770" y2="1800" style="stroke:#800;stroke-width:10;stroke-opacity:1.000000;stroke-linecap:round"/>
  <circle cx="-735" cy="1800" r="35"
    style="fill:none;stroke:#800;stroke-width:10"  />
  <g transform="translate(-935,1794) rotate(0)" > <text font-size="100.0" fill="#800" font-family="monospace"  >
   23
  </text> </g> 
  <g transform="translate(-682,1840) rotate(0)" > <text font-size="100.0" fill="#088" font-family="monospace"  >
   RD
  </text> </g> 
  <circle cx="-1000" cy="1800" r="10"
    style="fill:none;stroke:#800;stroke-width:2"  />
  <line x1="-1000" y1="1700" x2="-770" y2="1700" style="stroke:#800;stroke-width:10;stroke-opacity:1.000000;stroke-linecap:round"/>
  <circle cx="-735" cy="1700" r="35"
    style="fill:none;stroke:#800;stroke-width:10"  />
  <g transform="translate(-935,1694) rotate(0)" > <text font-size="100.0" fill="#800" font-family="monospace"  >
   22
  </text> </g> 
  <g transform="translate(-682,1740) rotate(0)" > <text font-size="100.0" fill="#088" font-family="monospace"  >
   WR
  </text> </g> 
  <circle cx="-1000" cy="1700" r="10"
    style="fill:none;stroke:#800;stroke-width:2"  />
  <line x1="-1000" y1="1500" x2="-700" y2="1500" style="stroke:#800;stroke-width:10;stroke-opacity:1.000000;stroke-linecap:round"/>
  <g transform="translate(-935,1494) rotate(0)" > <text font-size="100.0" fill="#800" font-family="monospace"  >
   26
  </text> </g> 
  <g transform="translate(-682,1540) rotate(0)" > <text font-size="100.0" fill="#088" font-family="monospace"  >
   RS2
  </text> </g> 
  <circle cx="-1000" cy="1500" r="10"
    style="fill:none;stroke:#800;stroke-width:2"  />
  <line x1="-1000" y1="1400" x2="-700" y2="1400" style="stroke:#800;stroke-width:10;stroke-opacity:1.000000;stroke-linecap:round"/>
  <g transform="translate(-935,1394) rotate(0)" > <text font-size="100.0" fill="#800" font-family="monospace"  >
   25
  </text> </g> 
  <g transform="translate(-682,1440) rotate(0)" > <text font-size="100.0" fill="#088" font-family="monospace"  >
   RS1
  </text> </g> 
  <circle cx="-1000" cy="1400" r="10"
    style="fill:none;stroke:#800;stroke-width:2"  />
  <line x1="-1000" y1="1300" x2="-700" y2="1300" style="stroke:#800;stroke-width:10;stroke-opacity:1.000000;stroke-linecap:round"/>
  <g transform="translate(-935,1294) rotate(0)" > <text font-size="100.0" fill="#800" font-family="monospace"  >
   24
  </text> </g> 
  <g transform="translate(-682,1340) rotate(0)" > <text font-size="100.0" fill="#088" font-family="monospace"  >
   RS0
  </text> </g> 
  <circle cx="-1000" cy="1300" r="10"
    style="fill:none;stroke:#800;stroke-width:2"  />
  <line x1="-1000" y1="1100" x2="-700" y2="1100" style="stroke:#800;stroke-width:10;stroke-opacity:1.000000;stroke-linecap:round"/>
  <g transform="translate(-935,1094) rotate(0)" > <text font-size="100.0" fill="#800" font-family="monospace"  >
   21
  </text> </g> 
  <g transform="translate(-682,1140) rotate(0)" > <text font-size="100.0" fill="#088" font-family="monospace"  >
   D7
  </text> </g> 
  <circle cx="-1000" cy="1100" r="10"
    style="fill:none;stroke:#800;stroke-width:2"  />
  <line x1="-1000" y1="1000" x2="-700" y2="1000" style="stroke:#800;stroke-width:10;stroke-opacity:1.000000;stroke-linecap:round"/>
  <g transform="translate(-935,994) rotate(0)" > <text font-size="100.0" fill="#800" font-family="monospace"  >
   20
  </text> </g> 
  <g transform="translate(-682,1040) rotate(0)" > <text font-size="100.0" fill="#088" font-family="monospace"  >
   D6
  </text> </g> 
  <circle cx="-1000" cy="1000" r="10"
    style="fill:none;stroke:#800;stroke-width:2"  />
  <line x1="-1000" y1="900" x2="-700" y2="900" style="stroke:#800;stroke-width:10;stroke-opacity:1.000000;stroke-linecap:round"/>
  <g transform="translate(-935,894) rotate(0)" > <text font-size="100.0" fill="#800" font-family="monospace"  >
   19
  </text> </g> 
  <g transform="translate(-682,940) rotate(0)" > <text font-size="100.0" fill="#088" font-family="monospace"  >
   D5
  </text> </g> 
  <circle cx="-1000" cy="900" r="10"
    style="fill:none;stroke:#800;stroke-width:2"  />
  <line x1="-1000" y1="800" x2="-700" y2="800" style="stroke:#800;stroke-width:10;stroke-opacity:1.000000;stroke-linecap:round"/>
  <g transform="translate(-935,794) rotate(0)" > <text font-size="100.0" fill="#800" font-family="monospace"  >
   18
  </text> </g> 
  <g transform="translate(-682,840) rotate(0)" > <text font-size="100.0" fill="#088" font-family="monospace"  >
   D4
  </text> </g> 
  <circle cx="-1000" cy="800" r="10"
    style="fill:none;stroke:#800;stroke-width:2"  />
  <line x1="-1000" y1="700" x2="-700" y2="700" style="stroke:#800;stroke-width:10;stroke-opacity:1.000000;stroke-linecap:round"/>
  <g transform="translate(-935,694) rotate(0)" > <text font-size="100.0" fill="#800" font-family="monospace"  >
   17
  </text> </g> 
  <g transform="translate(-682,740) rotate(0)" > <text font-size="100.0" fill="#088" font-family="monospace"  >
   D3
  </text> </g> 
  <circle cx="-1000" cy="700" r="10"
    style="fill:none;stroke:#800;stroke-width:2"  />
  <line x1="-1000" y1="600" x2="-700" y2="600" style="stroke:#800;stroke-width:10;stroke-opacity:1.000000;stroke-linecap:round"/>
  <g transform="translate(-935,594) rotate(0)" > <text font-size="100.0" fill="#800" font-family="monospace"  >
   16
  </text> </g> 
  <g transform="translate(-682,640) rotate(0)" > <text font-size="100.0" fill="#088" font-family="monospace"  >
   D2
  </text> </g> 
  <circle cx="-1000" cy="600" r="10"
    style="fill:none;stroke:#800;stroke-width:2"  />
  <line x1="-1000" y1="500" x2="-700" y2="500" style="stroke:#800;stroke-width:10;stroke-opacity:1.000000;stroke-linecap:round"/>
  <g transform="translate(-935,494) rotate(0)" > <text font-size="100.0" fill="#800" font-family="monospace"  >
   15
  </text> </g> 
  <g transform="translate(-682,540) rotate(0)" > <text font-size="100.0" fill="#088" font-family="monospace"  >
   D1
  </text> </g> 
  <circle cx="-1000" cy="500" r="10"
    style="fill:none;stroke:#800;stroke-width:2"  />
  <line x1="-1000" y1="400" x2="-700" y2="400" style="stroke:#800;stroke-width:10;stroke-opacity:1.000000;stroke-linecap:round"/>
  <g transform="translate(-935,394) rotate(0)" > <text font-size="100.0" fill="#800" font-family="monospace"  >
   14
  </text> </g> 
  <g transform="translate(-682,440) rotate(0)" > <text font-size="100.0" fill="#088" font-family="monospace"  >
   D0
  </text> </g> 
  <circle cx="-1000" cy="400" r="10"
    style="fill:none;stroke:#800;stroke-width:2"  />
  <line x1="-1000" y1="200" x2="-700" y2="200" style="stroke:#800;stroke-width:10;stroke-opacity:1.000000;stroke-linecap:round"/>
  <g transform="translate(-935,194) rotate(0)" > <text font-size="100.0" fill="#800" font-family="monospace"  >
   68
  </text> </g> 
  <g transform="translate(-682,240) rotate(0)" > <text font-size="100.0" fill="#088" font-family="monospace"  >
   B7
  </text> </g> 
  <circle cx="-1000" cy="200" r="10"
    style="fill:none;stroke:#800;stroke-width:2"  />
  <line x1="-1000" y1="100" x2="-700" y2="100" style="stroke:#800;stroke-width:10;stroke-opacity:1.000000;stroke-linecap:round"/>
  <g transform="translate(-935,94) rotate(0)" > <text font-size="100.0" fill="#800" font-family="monospace"  >
   67
  </text> </g> 
  <g transform="translate(-682,140) rotate(0)" > <text font-size="100.0" fill="#088" font-family="monospace"  >
   B6
  </text> </g> 
  <circle cx="-1000" cy="100" r="10"
    style="fill:none;stroke:#800;stroke-width:2"  />
  <line x1="-1000" y1="0" x2="-700" y2="0" style="stroke:#800;stroke-width:10;stroke-opacity:1.000000;stroke-linecap:round"/>
  <g transform="translate(-935,-6) rotate(0)" > <text font-size="100.0" fill="#800" font-family="monospace"  >
   66
  </text> </g> 
  <g transform="translate(-682,40) rotate(0)" > <text font-size="100.0" fill="#088" font-family="monospace"  >
   B5
  </text> </g> 
  <circle cx="-1000" cy="0" r="10"
    style="fill:none;stroke:#800;stroke-width:2"  />
  <line x1="-1000" y1="-100" x2="-700" y2="-100" style="stroke:#800;stroke-width:10;stroke-opacity:1.000000;stroke-linecap:round"/>
  <g transform="translate(-935,-106) rotate(0)" > <text font-size="100.0" fill="#800" font-family="monospace"  >
   65
  </text> </g> 
  <g transform="translate(-682,-60) rotate(0)" > <text font-size="100.0" fill="#088" font-family="monospace"  >
   B4
  </text> </g> 
  <circle cx="-1000" cy="-100" r="10"
    style="fill:none;stroke:#800;stroke-width:2"  />
  <line x1="-1000" y1="-200" x2="-700" y2="-200" style="stroke:#800;stroke-width:10;stroke-opacity:1.000000;stroke-linecap:round"/>
  <g transform="translate(-935,-206) rotate(0)" > <text font-size="100.0" fill="#800" font-family="monospace"  >
   64
  </text> </g> 
  <g transform="translate(-682,-160) rotate(0)" > <text font-size="100.0" fill="#088" font-family="monospace"  >
   B3
  </text> </g> 
  <circle cx="-1000" cy="-200" r="10"
    style="fill:none;stroke:#800;stroke-width:2"  />
  <line x1="-1000" y1="-300" x2="-700" y2="-300" style="stroke:#800;stroke-width:10;stroke-opacity:1.000000;stroke-linecap:round"/>
  <g transform="translate(-935,-306) rotate(0)" > <text font-size="100.0" fill="#800" font-family="monospace"  >
   63
  </text> </g> 
  <g transform="translate(-682,-260) rotate(0)" > <text font-size="100.0" fill="#088" font-family="monospace"  >
   B2
  </text> </g> 
  <circle cx="-1000" cy="-300" r="10"
    style="fill:none;stroke:#800;stroke-width:2"  />
  <line x1="-1000" y1="-400" x2="-700" y2="-400" style="stroke:#800;stroke-width:10;stroke-opacity:1.000000;stroke-linecap:round"/>
  <g transform="translate(-935,-406) rotate(0)" > <text font-size="100.0" fill="#800" font-family="monospace"  >
   62
  </text> </g> 
  <g transform="translate(-682,-360) rotate(0)" > <text font-size="100.0" fill="#088" font-family="monospace"  >
   B1
  </text> </g> 
  <circle cx="-1000" cy="-400" r="10"
    style="fill:none;stroke:#800;stroke-width:2"  />
  <line x1="-1000" y1="-500" x2="-700" y2="-500" style="stroke:#800;stroke-width:10;stroke-opacity:1.000000;stroke-linecap:round"/>
  <g transform="translate(-935,-506) rotate(0)" > <text font-size="100.0" fill="#800" font-family="monospace"  >
   61
  </text> </g> 
  <g transform="translate(-682,-460) rotate(0)" > <text font-size="100.0" fill="#088" font-family="monospace"  >
   B0
  </text> </g> 
  <circle cx="-1000" cy="-500" r="10"
    style="fill:none;stroke:#800;stroke-width:2"  />
  <line x1="-1000" y1="-700" x2="-700" y2="-700" style="stroke:#800;stroke-width:10;stroke-opacity:1.000000;stroke-linecap:round"/>
  <g transform="translate(-935,-706) rotate(0)" > <text font-size="100.0" fill="#800" font-family="monospace"  >
   60
  </text> </g> 
  <g transform="translate(-682,-660) rotate(0)" > <text font-size="100.0" fill="#088" font-family="monospace"  >
   G7
  </text> </g> 
  <circle cx="-1000" cy="-700" r="10"
    style="fill:none;stroke:#800;stroke-width:2"  />
  <line x1="-1000" y1="-800" x2="-700" y2="-800" style="stroke:#800;stroke-width:10;stroke-opacity:1.000000;stroke-linecap:round"/>
  <g transform="translate(-935,-806) rotate(0)" > <text font-size="100.0" fill="#800" font-family="monospace"  >
   59
  </text> </g> 
  <g transform="translate(-682,-760) rotate(0)" > <text font-size="100.0" fill="#088" font-family="monospace"  >
   G6
  </text> </g> 
  <circle cx="-1000" cy="-800" r="10"
    style="fill:none;stroke:#800;stroke-width:2"  />
  <line x1="-1000" y1="-900" x2="-700" y2="-900" style="stroke:#800;stroke-width:10;stroke-opacity:1.000000;stroke-linecap:round"/>
  <g transform="translate(-935,-906) rotate(0)" > <text font-size="100.0" fill="#800" font-family="monospace"  >
   58
  </text> </g> 
  <g transform="translate(-682,-860) rotate(0)" > <text font-size="100.0" fill="#088" font-family="monospace"  >
   G5
  </text> </g> 
  <circle cx="-1000" cy="-900" r="10"
    style="fill:none;stroke:#800;stroke-width:2"  />
  <line x1="-1000" y1="-1000" x2="-700" y2="-1000" style="stroke:#800;stroke-width:10;stroke-opacity:1.000000;stroke-linecap:round"/>
  <g transform="translate(-935,-1006) rotate(0)" > <text font-size="100.0" fill="#800" font-family="monospace"  >
   57
  </text> </g> 
  <g transform="translate(-682,-960) rotate(0)" > <text font-size="100.0" fill="#088" font-family="monospace"  >
   G4
  </text> </g> 
  <circle cx="-1000" cy="-1000" r="10"
    style="fill:none;stroke:#800;stroke-width:2"  />
  <line x1="-1000" y1="-1100" x2="-700" y2="-1100" style="stroke:#800;stroke-width:10;stroke-opacity:1.000000;stroke-linecap:round"/>
  <g transform="translate(-935,-1106) rotate(0)" > <text font-size="100.0" fill="#800" font-family="monospace"  >
   56
  </text> </g> 
  <g transform="translate(-682,-1060) rotate(0)" > <text font-size="100.0" fill="#088" font-family="monospace"  >
   G3
  </text> </g> 
  <circle cx="-1000" cy="-1100" r="10"
    style="fill:none;stroke:#800;stroke-width:2"  />
  <line x1="-1000" y1="-1200" x2="-700" y2="-1200" style="stroke:#800;stroke-width:10;stroke-opacity:1.000000;stroke-linecap:round"/>
  <g transform="translate(-935,-1206) rotate(0)" > <text font-size="100.0" fill="#800" font-family="monospace"  >
   55
  </text> </g> 
  <g transform="translate(-682,-1160) rotate(0)" > <text font-size="100.0" fill="#088" font-family="monospace"  >
   G2
  </text> </g> 
  <circle cx="-1000" cy="-1200" r="10"
    style="fill:none;stroke:#800;stroke-width:2"  />
  <line x1="-1000" y1="-1300" x2="-700" y2="-1300" style="stroke:#800;stroke-width:10;stroke-opacity:1.000000;stroke-linecap:round"/>
  <g transform="translate(-935,-1306) rotate(0)" > <text font-size="100.0" fill="#800" font-family="monospace"  >
   54
  </text> </g> 
  <g transform="translate(-682,-1260) rotate(0)" > <text font-size="100.0" fill="#088" font-family="monospace"  >
   G1
  </text> </g> 
  <circle cx="-1000" cy="-1300" r="10"
    style="fill:none;stroke:#800;stroke-width:2"  />
  <line x1="-1000" y1="-1400" x2="-700" y2="-1400" style="stroke:#800;stroke-width:10;stroke-opacity:1.000000;stroke-linecap:round"/>
  <g transform="translate(-935,-1406) rotate(0)" > <text font-size="100.0" fill="#800" font-family="monospace"  >
   53
  </text> </g> 
  <g transform="translate(-682,-1360) rotate(0)" > <text font-size="100.0" fill="#088" font-family="monospace"  >
   G0
  </text> </g> 
  <circle cx="-1000" cy="-1400" r="10"
    style="fill:none;stroke:#800;stroke-width:2"  />
  <line x1="-1000" y1="-1600" x2="-700" y2="-1600" style="stroke:#800;stroke-width:10;stroke-opacity:1.000000;stroke-linecap:round"/>
  <g transform="translate(-935,-1606) rotate(0)" > <text font-size="100.0" fill="#800" font-family="monospace"  >
   52
  </text> </g> 
  <g transform="translate(-682,-1560) rotate(0)" > <text font-size="100.0" fill="#088" font-family="monospace"  >
   R7
  </text> </g> 
  <circle cx="-1000" cy="-1600" r="10"
    style="fill:none;stroke:#800;stroke-width:2"  />
  <line x1="-1000" y1="-1700" x2="-700" y2="-1700" style="stroke:#800;stroke-width:10;stroke-opacity:1.000000;stroke-linecap:round"/>
  <g transform="translate(-935,-1706) rotate(0)" > <text font-size="100.0" fill="#800" font-family="monospace"  >
   51
  </text> </g> 
  <g transform="translate(-682,-1660) rotate(0)" > <text font-size="100.0" fill="#088" font-family="monospace"  >
   R6
  </text> </g> 
  <circle cx="-1000" cy="-1700" r="10"
    style="fill:none;stroke:#800;stroke-width:2"  />
  <line x1="-1000" y1="-1800" x2="-700" y2="-1800" style="stroke:#800;stroke-width:10;stroke-opacity:1.000000;stroke-linecap:round"/>
  <g transform="translate(-935,-1806) rotate(0)" > <text font-size="100.0" fill="#800" font-family="monospace"  >
   50
  </text> </g> 
  <g transform="translate(-682,-1760) rotate(0)" > <text font-size="100.0" fill="#088" font-family="monospace"  >
   R5
  </text> </g> 
  <circle cx="-1000" cy="-1800" r="10"
    style="fill:none;stroke:#800;stroke-width:2"  />
  <line x1="-1000" y1="-1900" x2="-700" y2="-1900" style="stroke:#800;stroke-width:10;stroke-opacity:1.000000;stroke-linecap:round"/>
  <g transform="translate(-935,-1906) rotate(0)" > <text font-size="100.0" fill="#800" font-family="monospace"  >
   49
  </text> </g> 
  <g transform="translate(-682,-1860) rotate(0)" > <text font-size="100.0" fill="#088" font-family="monospace"  >
   R4
  </text> </g> 
  <circle cx="-1000" cy="-1900" r="10"
    style="fill:none;stroke:#800;stroke-width:2"  />
  <line x1="-1000" y1="-2000" x2="-700" y2="-2000" style="stroke:#800;stroke-width:10;stroke-opacity:1.000000;stroke-linecap:round"/>
  <g transform="translate(-935,-2006) rotate(0)" > <text font-size="100.0" fill="#800" font-family="monospace"  >
   48
  </text> </g> 
  <g transform="translate(-682,-1960) rotate(0)" > <text font-size="100.0" fill="#088" font-family="monospace"  >
   R3
  </text> </g> 
  <circle cx="-1000" cy="-2000" r="10"
    style="fill:none;stroke:#800;stroke-width:2"  />
  <line x1="-1000" y1="-2100" x2="-700" y2="-2100" style="stroke:#800;stroke-width:10;stroke-opacity:1.000000;stroke-linecap:round"/>
  <g transform="translate(-935,-2106) rotate(0)" > <text font-size="100.0" fill="#800" font-family="monospace"  >
   47
  </text> </g> 
  <g transform="translate(-682,-2060) rotate(0)" > <text font-size="100.0" fill="#088" font-family="monospace"  >
   R2
  </text> </g> 
  <circle cx="-1000" cy="-2100" r="10"
    style="fill:none;stroke:#800;stroke-width:2"  />
  <line x1="-1000" y1="-2200" x2="-700" y2="-2200" style="stroke:#800;stroke-width:10;stroke-opacity:1.000000;stroke-linecap:round"/>
  <g transform="translate(-935,-2206) rotate(0)" > <text font-size="100.0" fill="#800" font-family="monospace"  >
   46
  </text> </g> 
  <g transform="translate(-682,-2160) rotate(0)" > <text font-size="100.0" fill="#088" font-family="monospace"  >
   R1
  </text> </g> 
  <circle cx="-1000" cy="-2200" r="10"
    style="fill:none;stroke:#800;stroke-width:2"  />
  <line x1="-1000" y1="-2300" x2="-700" y2="-2300" style="stroke:#800;stroke-width:10;stroke-opacity:1.000000;stroke-linecap:round"/>
  <g transform="translate(-935,-2306) rotate(0)" > <text font-size="100.0" fill="#800" font-family="monospace"  >
   45
  </text> </g> 
  <g transform="translate(-682,-2260) rotate(0)" > <text font-size="100.0" fill="#088" font-family="monospace"  >
   R0
  </text> </g> 
  <circle cx="-1000" cy="-2300" r="10"
    style="fill:none;stroke:#800;stroke-width:2"  />
 </g>
</svg>
