<?xml version="1.0"?>
<svg height="329" width="250"  >
 <g style="fill-opacity:1.0; stroke:black;
  stroke-width:1;" transform=" translate( 125.0,164.75 ) scale( 0.15,0.15 )">
  <g transform="translate(170,-270) rotate(0)" > <text font-size="100.0" fill="#088" font-family="monospace"  >
   U
  </text> </g> 
  <g transform="translate(-200,330) rotate(0)" > <text font-size="100.0" fill="#088" font-family="monospace"  >
   OPTO-TRIAC
  </text> </g> 
  <rect x="-350" y="-250" height="500"
    width="650" style="fill:none;stroke:#800;stroke-width:10" />
  <rect x="50" y="0" height="10"
    width="210" style="fill:none;stroke:#800;stroke-width:10" />
  <rect x="50" y="-60" height="10"
    width="200" style="fill:none;stroke:#800;stroke-width:10" />
  <line x1="-300" y1="0" x2="-100" y2="0" style="stroke:#800;stroke-width:10;stroke-opacity:1.000000;stroke-linecap:round"/>
  <line x1="-350" y1="100" x2="-300" y2="100" style="stroke:#800;stroke-width:10;stroke-opacity:1.000000;stroke-linecap:round"/>
  <line x1="-300" y1="100" x2="-300" y2="100" style="stroke:#800;stroke-width:10;stroke-opacity:1.000000;stroke-linecap:round"/>
  <line x1="-300" y1="-200" x2="-350" y2="-200" style="stroke:#800;stroke-width:10;stroke-opacity:1.000000;stroke-linecap:round"/>
  <line x1="-350" y1="-200" x2="-350" y2="-200" style="stroke:#800;stroke-width:10;stroke-opacity:1.000000;stroke-linecap:round"/>
  <line x1="-60" y1="40" x2="-40" y2="20" style="stroke:#800;stroke-width:10;stroke-opacity:1.000000;stroke-linecap:round"/>
  <line x1="-40" y1="20" x2="-40" y2="20" style="stroke:#800;stroke-width:10;stroke-opacity:1.000000;stroke-linecap:round"/>
  <line x1="250" y1="-200" x2="300" y2="-200" style="stroke:#800;stroke-width:10;stroke-opacity:1.000000;stroke-linecap:round"/>
  <line x1="300" y1="-200" x2="300" y2="-200" style="stroke:#800;stroke-width:10;stroke-opacity:1.000000;stroke-linecap:round"/>
  <line x1="300" y1="200" x2="250" y2="200" style="stroke:#800;stroke-width:10;stroke-opacity:1.000000;stroke-linecap:round"/>
  <line x1="250" y1="200" x2="250" y2="200" style="stroke:#800;stroke-width:10;stroke-opacity:1.000000;stroke-linecap:round"/>
  <line x1="-200" y1="0" x2="-200" y2="100" style="stroke:#800;stroke-width:10;stroke-opacity:1.000000;stroke-linecap:round"/>
  <line x1="-200" y1="100" x2="-300" y2="100" style="stroke:#800;stroke-width:10;stroke-opacity:1.000000;stroke-linecap:round"/>
  <line x1="-300" y1="100" x2="-300" y2="100" style="stroke:#800;stroke-width:10;stroke-opacity:1.000000;stroke-linecap:round"/>
  <line x1="150" y1="10" x2="150" y2="200" style="stroke:#800;stroke-width:10;stroke-opacity:1.000000;stroke-linecap:round"/>
  <line x1="150" y1="200" x2="250" y2="200" style="stroke:#800;stroke-width:10;stroke-opacity:1.000000;stroke-linecap:round"/>
  <line x1="250" y1="200" x2="250" y2="200" style="stroke:#800;stroke-width:10;stroke-opacity:1.000000;stroke-linecap:round"/>
  <line x1="150" y1="-60" x2="150" y2="-200" style="stroke:#800;stroke-width:10;stroke-opacity:1.000000;stroke-linecap:round"/>
  <line x1="150" y1="-200" x2="250" y2="-200" style="stroke:#800;stroke-width:10;stroke-opacity:1.000000;stroke-linecap:round"/>
  <line x1="250" y1="-200" x2="250" y2="-200" style="stroke:#800;stroke-width:10;stroke-opacity:1.000000;stroke-linecap:round"/>
<polygon points=" 50,-50 100,0 150,-50 50,-50 50,-50" 
style="fill:#800;stroke:#800;stroke-width:10"/>
<polygon points=" 150,0 250,0 200,-50 150,0 150,0" 
style="fill:#800;stroke:#800;stroke-width:10"/>
  <line x1="-120" y1="-40" x2="-40" y2="40" style="stroke:#800;stroke-width:10;stroke-opacity:1.000000;stroke-linecap:round"/>
  <line x1="-40" y1="40" x2="-40" y2="20" style="stroke:#800;stroke-width:10;stroke-opacity:1.000000;stroke-linecap:round"/>
  <line x1="-40" y1="20" x2="-40" y2="40" style="stroke:#800;stroke-width:10;stroke-opacity:1.000000;stroke-linecap:round"/>
  <line x1="-40" y1="40" x2="-60" y2="40" style="stroke:#800;stroke-width:10;stroke-opacity:1.000000;stroke-linecap:round"/>
  <line x1="-60" y1="40" x2="-60" y2="40" style="stroke:#800;stroke-width:10;stroke-opacity:1.000000;stroke-linecap:round"/>
  <line x1="-120" y1="20" x2="-40" y2="100" style="stroke:#800;stroke-width:10;stroke-opacity:1.000000;stroke-linecap:round"/>
  <line x1="-40" y1="100" x2="-40" y2="80" style="stroke:#800;stroke-width:10;stroke-opacity:1.000000;stroke-linecap:round"/>
  <line x1="-40" y1="80" x2="-40" y2="100" style="stroke:#800;stroke-width:10;stroke-opacity:1.000000;stroke-linecap:round"/>
  <line x1="-40" y1="100" x2="-60" y2="100" style="stroke:#800;stroke-width:10;stroke-opacity:1.000000;stroke-linecap:round"/>
  <line x1="-60" y1="100" x2="-40" y2="80" style="stroke:#800;stroke-width:10;stroke-opacity:1.000000;stroke-linecap:round"/>
  <line x1="-40" y1="80" x2="-40" y2="80" style="stroke:#800;stroke-width:10;stroke-opacity:1.000000;stroke-linecap:round"/>
  <line x1="-300" y1="-200" x2="-200" y2="-200" style="stroke:#800;stroke-width:10;stroke-opacity:1.000000;stroke-linecap:round"/>
  <line x1="-200" y1="-200" x2="-200" y2="-100" style="stroke:#800;stroke-width:10;stroke-opacity:1.000000;stroke-linecap:round"/>
  <line x1="-200" y1="-100" x2="-300" y2="-100" style="stroke:#800;stroke-width:10;stroke-opacity:1.000000;stroke-linecap:round"/>
  <line x1="-300" y1="-100" x2="-200" y2="0" style="stroke:#800;stroke-width:10;stroke-opacity:1.000000;stroke-linecap:round"/>
  <line x1="-200" y1="0" x2="-100" y2="-100" style="stroke:#800;stroke-width:10;stroke-opacity:1.000000;stroke-linecap:round"/>
  <line x1="-100" y1="-100" x2="-200" y2="-100" style="stroke:#800;stroke-width:10;stroke-opacity:1.000000;stroke-linecap:round"/>
  <line x1="-200" y1="-100" x2="-200" y2="-100" style="stroke:#800;stroke-width:10;stroke-opacity:1.000000;stroke-linecap:round"/>
  <line x1="-650" y1="-200" x2="-350" y2="-200" style="stroke:#800;stroke-width:10;stroke-opacity:1.000000;stroke-linecap:round"/>
  <g transform="translate(-535,-206) rotate(0)" > <text font-size="83.3333333333" fill="#800" font-family="monospace"  >
   1
  </text> </g> 
  <g transform="translate(-332,-165) rotate(0)" > <text font-size="83.3333333333" fill="#088" font-family="monospace"  >
   A
  </text> </g> 
  <circle cx="-650" cy="-200" r="10"
    style="fill:none;stroke:#800;stroke-width:2"  />
  <line x1="-650" y1="100" x2="-350" y2="100" style="stroke:#800;stroke-width:10;stroke-opacity:1.000000;stroke-linecap:round"/>
  <g transform="translate(-535,94) rotate(0)" > <text font-size="83.3333333333" fill="#800" font-family="monospace"  >
   2
  </text> </g> 
  <g transform="translate(-332,135) rotate(0)" > <text font-size="83.3333333333" fill="#088" font-family="monospace"  >
   K
  </text> </g> 
  <circle cx="-650" cy="100" r="10"
    style="fill:none;stroke:#800;stroke-width:2"  />
  <line x1="-450" y1="150" x2="-350" y2="150" style="stroke:#800;stroke-width:10;stroke-opacity:1.000000;stroke-linecap:round"/>
  <g transform="translate(-414,144) rotate(0)" > <text font-size="33.3333333333" fill="#800" font-family="monospace"  >
   3
  </text> </g> 
  <g transform="translate(-332,170) rotate(0)" > <text font-size="33.3333333333" fill="#088" font-family="monospace"  >
   NC
  </text> </g> 
  <circle cx="-450" cy="150" r="10"
    style="fill:none;stroke:#800;stroke-width:2"  />
  <line x1="600" y1="200" x2="300" y2="200" style="stroke:#800;stroke-width:10;stroke-opacity:1.000000;stroke-linecap:round"/>
  <g transform="translate(414,194) rotate(0)" > <text font-size="83.3333333333" fill="#800" font-family="monospace"  >
   4
  </text> </g> 
  <g transform="translate(160,235) rotate(0)" > <text font-size="83.3333333333" fill="#088" font-family="monospace"  >
   S2
  </text> </g> 
  <circle cx="600" cy="200" r="10"
    style="fill:none;stroke:#800;stroke-width:2"  />
  <line x1="-450" y1="200" x2="-350" y2="200" style="stroke:#800;stroke-width:10;stroke-opacity:1.000000;stroke-linecap:round"/>
  <g transform="translate(-414,194) rotate(0)" > <text font-size="33.3333333333" fill="#800" font-family="monospace"  >
   5
  </text> </g> 
  <g transform="translate(-332,220) rotate(0)" > <text font-size="33.3333333333" fill="#088" font-family="monospace"  >
   NC
  </text> </g> 
  <circle cx="-450" cy="200" r="10"
    style="fill:none;stroke:#800;stroke-width:2"  />
  <line x1="600" y1="-200" x2="300" y2="-200" style="stroke:#800;stroke-width:10;stroke-opacity:1.000000;stroke-linecap:round"/>
  <g transform="translate(414,-206) rotate(0)" > <text font-size="83.3333333333" fill="#800" font-family="monospace"  >
   6
  </text> </g> 
  <g transform="translate(160,-165) rotate(0)" > <text font-size="83.3333333333" fill="#088" font-family="monospace"  >
   S1
  </text> </g> 
  <circle cx="600" cy="-200" r="10"
    style="fill:none;stroke:#800;stroke-width:2"  />
 </g>
</svg>
