<?xml version="1.0"?>
<svg height="183" width="151"  >
 <g style="fill-opacity:1.0; stroke:black;
  stroke-width:1;" transform=" translate( 75.5,91.625 ) scale( 0.15,0.15 )">
  <g transform="translate(-254,-159) rotate(0)" > <text font-size="66.6666666667" fill="#088" font-family="monospace"  >
   IC
  </text> </g> 
  <g transform="translate(-10,205) rotate(0)" > <text font-size="66.6666666667" fill="#088" font-family="monospace"  >
   TLP175A
  </text> </g> 
  <circle cx="160" cy="25" r="5"
    style="fill:none;stroke:#800;stroke-width:10"  />
  <circle cx="160" cy="0" r="5"
    style="fill:none;stroke:#800;stroke-width:10"  />
  <circle cx="160" cy="-25" r="5"
    style="fill:none;stroke:#800;stroke-width:10"  />
  <circle cx="200" cy="100" r="5"
    style="fill:none;stroke:#800;stroke-width:10"  />
  <circle cx="200" cy="0" r="5"
    style="fill:none;stroke:#800;stroke-width:10"  />
  <circle cx="200" cy="-100" r="5"
    style="fill:none;stroke:#800;stroke-width:10"  />
  <rect x="-250" y="-150" height="300"
    width="500" style="fill:none;stroke:#800;stroke-width:10" />
  <line x1="-150" y1="25" x2="-100" y2="25" style="stroke:#800;stroke-width:10;stroke-opacity:1.000000;stroke-linecap:round"/>
  <line x1="90" y1="25" x2="90" y2="85" style="stroke:#800;stroke-width:10;stroke-opacity:1.000000;stroke-linecap:round"/>
  <line x1="90" y1="-85" x2="90" y2="-25" style="stroke:#800;stroke-width:10;stroke-opacity:1.000000;stroke-linecap:round"/>
  <line x1="110" y1="20" x2="110" y2="30" style="stroke:#800;stroke-width:10;stroke-opacity:1.000000;stroke-linecap:round"/>
  <line x1="160" y1="0" x2="200" y2="0" style="stroke:#800;stroke-width:10;stroke-opacity:1.000000;stroke-linecap:round"/>
  <line x1="185" y1="65" x2="215" y2="65" style="stroke:#800;stroke-width:10;stroke-opacity:1.000000;stroke-linecap:round"/>
  <line x1="185" y1="-65" x2="215" y2="-65" style="stroke:#800;stroke-width:10;stroke-opacity:1.000000;stroke-linecap:round"/>
  <line x1="200" y1="0" x2="200" y2="100" style="stroke:#800;stroke-width:10;stroke-opacity:1.000000;stroke-linecap:round"/>
  <line x1="200" y1="0" x2="200" y2="-100" style="stroke:#800;stroke-width:10;stroke-opacity:1.000000;stroke-linecap:round"/>
  <line x1="-250" y1="-100" x2="-125" y2="-100" style="stroke:#800;stroke-width:10;stroke-opacity:1.000000;stroke-linecap:round"/>
  <line x1="-125" y1="-100" x2="-125" y2="-25" style="stroke:#800;stroke-width:10;stroke-opacity:1.000000;stroke-linecap:round"/>
  <line x1="-125" y1="25" x2="-125" y2="100" style="stroke:#800;stroke-width:10;stroke-opacity:1.000000;stroke-linecap:round"/>
  <line x1="-125" y1="100" x2="-250" y2="100" style="stroke:#800;stroke-width:10;stroke-opacity:1.000000;stroke-linecap:round"/>
  <line x1="110" y1="80" x2="110" y2="90" style="stroke:#800;stroke-width:10;stroke-opacity:1.000000;stroke-linecap:round"/>
  <line x1="110" y1="90" x2="110" y2="90" style="stroke:#800;stroke-width:10;stroke-opacity:1.000000;stroke-linecap:round"/>
  <line x1="110" y1="50" x2="110" y2="60" style="stroke:#800;stroke-width:10;stroke-opacity:1.000000;stroke-linecap:round"/>
  <line x1="110" y1="60" x2="110" y2="60" style="stroke:#800;stroke-width:10;stroke-opacity:1.000000;stroke-linecap:round"/>
  <line x1="110" y1="-30" x2="110" y2="-20" style="stroke:#800;stroke-width:10;stroke-opacity:1.000000;stroke-linecap:round"/>
  <line x1="110" y1="-20" x2="110" y2="-20" style="stroke:#800;stroke-width:10;stroke-opacity:1.000000;stroke-linecap:round"/>
  <line x1="110" y1="-60" x2="110" y2="-50" style="stroke:#800;stroke-width:10;stroke-opacity:1.000000;stroke-linecap:round"/>
  <line x1="110" y1="-50" x2="110" y2="-50" style="stroke:#800;stroke-width:10;stroke-opacity:1.000000;stroke-linecap:round"/>
  <line x1="110" y1="-90" x2="110" y2="-80" style="stroke:#800;stroke-width:10;stroke-opacity:1.000000;stroke-linecap:round"/>
  <line x1="110" y1="-80" x2="110" y2="-80" style="stroke:#800;stroke-width:10;stroke-opacity:1.000000;stroke-linecap:round"/>
  <line x1="115" y1="55" x2="160" y2="55" style="stroke:#800;stroke-width:10;stroke-opacity:1.000000;stroke-linecap:round"/>
  <line x1="160" y1="55" x2="160" y2="25" style="stroke:#800;stroke-width:10;stroke-opacity:1.000000;stroke-linecap:round"/>
  <line x1="115" y1="-55" x2="160" y2="-55" style="stroke:#800;stroke-width:10;stroke-opacity:1.000000;stroke-linecap:round"/>
  <line x1="160" y1="-55" x2="160" y2="-25" style="stroke:#800;stroke-width:10;stroke-opacity:1.000000;stroke-linecap:round"/>
<polygon points=" -125,25 -150,-25 -100,-25 -125,25" 
style="fill:#800;stroke:#800;stroke-width:10"/>
  <line x1="-25" y1="-10" x2="-4" y2="-30" style="stroke:#800;stroke-width:10;stroke-opacity:1.000000;stroke-linecap:round"/>
  <line x1="-4" y1="-30" x2="-4" y2="-10" style="stroke:#800;stroke-width:10;stroke-opacity:1.000000;stroke-linecap:round"/>
  <line x1="-4" y1="-10" x2="26" y2="-40" style="stroke:#800;stroke-width:10;stroke-opacity:1.000000;stroke-linecap:round"/>
  <line x1="26" y1="-40" x2="6" y2="-30" style="stroke:#800;stroke-width:10;stroke-opacity:1.000000;stroke-linecap:round"/>
  <line x1="6" y1="-30" x2="16" y2="-20" style="stroke:#800;stroke-width:10;stroke-opacity:1.000000;stroke-linecap:round"/>
  <line x1="16" y1="-20" x2="26" y2="-40" style="stroke:#800;stroke-width:10;stroke-opacity:1.000000;stroke-linecap:round"/>
  <line x1="90" y1="55" x2="70" y2="55" style="stroke:#800;stroke-width:10;stroke-opacity:1.000000;stroke-linecap:round"/>
  <line x1="70" y1="55" x2="70" y2="-55" style="stroke:#800;stroke-width:10;stroke-opacity:1.000000;stroke-linecap:round"/>
  <line x1="70" y1="-55" x2="90" y2="-55" style="stroke:#800;stroke-width:10;stroke-opacity:1.000000;stroke-linecap:round"/>
  <line x1="115" y1="85" x2="160" y2="85" style="stroke:#800;stroke-width:10;stroke-opacity:1.000000;stroke-linecap:round"/>
  <line x1="160" y1="85" x2="160" y2="100" style="stroke:#800;stroke-width:10;stroke-opacity:1.000000;stroke-linecap:round"/>
  <line x1="160" y1="100" x2="250" y2="100" style="stroke:#800;stroke-width:10;stroke-opacity:1.000000;stroke-linecap:round"/>
  <line x1="115" y1="25" x2="160" y2="25" style="stroke:#800;stroke-width:10;stroke-opacity:1.000000;stroke-linecap:round"/>
  <line x1="160" y1="25" x2="160" y2="-25" style="stroke:#800;stroke-width:10;stroke-opacity:1.000000;stroke-linecap:round"/>
  <line x1="160" y1="-25" x2="115" y2="-25" style="stroke:#800;stroke-width:10;stroke-opacity:1.000000;stroke-linecap:round"/>
  <line x1="115" y1="-85" x2="160" y2="-85" style="stroke:#800;stroke-width:10;stroke-opacity:1.000000;stroke-linecap:round"/>
  <line x1="160" y1="-85" x2="160" y2="-100" style="stroke:#800;stroke-width:10;stroke-opacity:1.000000;stroke-linecap:round"/>
  <line x1="160" y1="-100" x2="250" y2="-100" style="stroke:#800;stroke-width:10;stroke-opacity:1.000000;stroke-linecap:round"/>
  <line x1="120" y1="55" x2="140" y2="50" style="stroke:#800;stroke-width:10;stroke-opacity:1.000000;stroke-linecap:round"/>
  <line x1="140" y1="50" x2="140" y2="60" style="stroke:#800;stroke-width:10;stroke-opacity:1.000000;stroke-linecap:round"/>
  <line x1="140" y1="60" x2="120" y2="55" style="stroke:#800;stroke-width:10;stroke-opacity:1.000000;stroke-linecap:round"/>
  <line x1="120" y1="-55" x2="140" y2="-60" style="stroke:#800;stroke-width:10;stroke-opacity:1.000000;stroke-linecap:round"/>
  <line x1="140" y1="-60" x2="140" y2="-50" style="stroke:#800;stroke-width:10;stroke-opacity:1.000000;stroke-linecap:round"/>
  <line x1="140" y1="-50" x2="120" y2="-55" style="stroke:#800;stroke-width:10;stroke-opacity:1.000000;stroke-linecap:round"/>
<polygon points=" 200,65 185,35 215,35 200,65" 
style="fill:#800;stroke:#800;stroke-width:10"/>
<polygon points=" 200,-65 185,-35 215,-35 200,-65" 
style="fill:#800;stroke:#800;stroke-width:10"/>
  <line x1="-25" y1="30" x2="-4" y2="10" style="stroke:#800;stroke-width:10;stroke-opacity:1.000000;stroke-linecap:round"/>
  <line x1="-4" y1="10" x2="-4" y2="30" style="stroke:#800;stroke-width:10;stroke-opacity:1.000000;stroke-linecap:round"/>
  <line x1="-4" y1="30" x2="26" y2="0" style="stroke:#800;stroke-width:10;stroke-opacity:1.000000;stroke-linecap:round"/>
  <line x1="26" y1="0" x2="6" y2="10" style="stroke:#800;stroke-width:10;stroke-opacity:1.000000;stroke-linecap:round"/>
  <line x1="6" y1="10" x2="16" y2="20" style="stroke:#800;stroke-width:10;stroke-opacity:1.000000;stroke-linecap:round"/>
  <line x1="16" y1="20" x2="26" y2="0" style="stroke:#800;stroke-width:10;stroke-opacity:1.000000;stroke-linecap:round"/>
  <line x1="-350" y1="-100" x2="-250" y2="-100" style="stroke:#800;stroke-width:10;stroke-opacity:1.000000;stroke-linecap:round"/>
  <g transform="translate(-328,-106) rotate(0)" > <text font-size="66.6666666667" fill="#800" font-family="monospace"  >
   1
  </text> </g> 
  <circle cx="-350" cy="-100" r="10"
    style="fill:none;stroke:#800;stroke-width:2"  />
  <line x1="-350" y1="100" x2="-250" y2="100" style="stroke:#800;stroke-width:10;stroke-opacity:1.000000;stroke-linecap:round"/>
  <g transform="translate(-328,94) rotate(0)" > <text font-size="66.6666666667" fill="#800" font-family="monospace"  >
   3
  </text> </g> 
  <circle cx="-350" cy="100" r="10"
    style="fill:none;stroke:#800;stroke-width:2"  />
  <line x1="350" y1="100" x2="250" y2="100" style="stroke:#800;stroke-width:10;stroke-opacity:1.000000;stroke-linecap:round"/>
  <g transform="translate(271,94) rotate(0)" > <text font-size="66.6666666667" fill="#800" font-family="monospace"  >
   4
  </text> </g> 
  <circle cx="350" cy="100" r="10"
    style="fill:none;stroke:#800;stroke-width:2"  />
  <line x1="350" y1="-100" x2="250" y2="-100" style="stroke:#800;stroke-width:10;stroke-opacity:1.000000;stroke-linecap:round"/>
  <g transform="translate(271,-106) rotate(0)" > <text font-size="66.6666666667" fill="#800" font-family="monospace"  >
   6
  </text> </g> 
  <circle cx="350" cy="-100" r="10"
    style="fill:none;stroke:#800;stroke-width:2"  />
 </g>
</svg>
