<?xml version="1.0"?>
<svg height="947" width="881"  >
 <g style="fill-opacity:1.0; stroke:black;
  stroke-width:1;" transform=" translate( 440.95,473.95 ) scale( 0.15,0.15 )">
  <g transform="translate(-30,-2470) rotate(0)" > <text font-size="100.0" fill="#088" font-family="monospace"  >
   U
  </text> </g> 
  <g transform="translate(-180,2530) rotate(0)" > <text font-size="100.0" fill="#088" font-family="monospace"  >
   GS9020
  </text> </g> 
  <rect x="-1000" y="-2450" height="4900"
    width="2000" style="fill:none;stroke:#800;stroke-width:10" />
  <line x1="-1300" y1="1750" x2="-1000" y2="1750" style="stroke:#800;stroke-width:10;stroke-opacity:1.000000;stroke-linecap:round"/>
  <g transform="translate(-1192,1744) rotate(0)" > <text font-size="100.0" fill="#800" font-family="monospace"  >
   1
  </text> </g> 
  <g transform="translate(-982,1790) rotate(0)" > <text font-size="100.0" fill="#088" font-family="monospace"  >
   VDD
  </text> </g> 
  <circle cx="-1300" cy="1750" r="10"
    style="fill:none;stroke:#800;stroke-width:2"  />
  <line x1="-1300" y1="2150" x2="-1000" y2="2150" style="stroke:#800;stroke-width:10;stroke-opacity:1.000000;stroke-linecap:round"/>
  <g transform="translate(-1192,2144) rotate(0)" > <text font-size="100.0" fill="#800" font-family="monospace"  >
   2
  </text> </g> 
  <g transform="translate(-982,2190) rotate(0)" > <text font-size="100.0" fill="#088" font-family="monospace"  >
   GND
  </text> </g> 
  <circle cx="-1300" cy="2150" r="10"
    style="fill:none;stroke:#800;stroke-width:2"  />
  <line x1="-1300" y1="2250" x2="-1000" y2="2250" style="stroke:#800;stroke-width:10;stroke-opacity:1.000000;stroke-linecap:round"/>
  <g transform="translate(-1192,2244) rotate(0)" > <text font-size="100.0" fill="#800" font-family="monospace"  >
   3
  </text> </g> 
  <g transform="translate(-982,2290) rotate(0)" > <text font-size="100.0" fill="#088" font-family="monospace"  >
   GND
  </text> </g> 
  <circle cx="-1300" cy="2250" r="10"
    style="fill:none;stroke:#800;stroke-width:2"  />
  <line x1="-1300" y1="1850" x2="-1000" y2="1850" style="stroke:#800;stroke-width:10;stroke-opacity:1.000000;stroke-linecap:round"/>
  <g transform="translate(-1192,1844) rotate(0)" > <text font-size="100.0" fill="#800" font-family="monospace"  >
   4
  </text> </g> 
  <g transform="translate(-982,1890) rotate(0)" > <text font-size="100.0" fill="#088" font-family="monospace"  >
   VDD
  </text> </g> 
  <circle cx="-1300" cy="1850" r="10"
    style="fill:none;stroke:#800;stroke-width:2"  />
  <line x1="-1300" y1="-2350" x2="-1000" y2="-2350" style="stroke:#800;stroke-width:10;stroke-opacity:1.000000;stroke-linecap:round"/>
  <g transform="translate(-1192,-2356) rotate(0)" > <text font-size="100.0" fill="#800" font-family="monospace"  >
   5
  </text> </g> 
  <g transform="translate(-982,-2310) rotate(0)" > <text font-size="100.0" fill="#088" font-family="monospace"  >
   VDD_SDI
  </text> </g> 
  <circle cx="-1300" cy="-2350" r="10"
    style="fill:none;stroke:#800;stroke-width:2"  />
  <line x1="-1300" y1="-2250" x2="-1000" y2="-2250" style="stroke:#800;stroke-width:10;stroke-opacity:1.000000;stroke-linecap:round"/>
  <g transform="translate(-1192,-2256) rotate(0)" > <text font-size="100.0" fill="#800" font-family="monospace"  >
   6
  </text> </g> 
  <g transform="translate(-982,-2210) rotate(0)" > <text font-size="100.0" fill="#088" font-family="monospace"  >
   SDI
  </text> </g> 
  <circle cx="-1300" cy="-2250" r="10"
    style="fill:none;stroke:#800;stroke-width:2"  />
  <line x1="-1300" y1="-2150" x2="-1070" y2="-2150" style="stroke:#800;stroke-width:10;stroke-opacity:1.000000;stroke-linecap:round"/>
  <circle cx="-1035" cy="-2150" r="35"
    style="fill:none;stroke:#800;stroke-width:10"  />
  <g transform="translate(-1192,-2156) rotate(0)" > <text font-size="100.0" fill="#800" font-family="monospace"  >
   7
  </text> </g> 
  <g transform="translate(-982,-2110) rotate(0)" > <text font-size="100.0" fill="#088" font-family="monospace"  >
   SDI
  </text> </g> 
  <circle cx="-1300" cy="-2150" r="10"
    style="fill:none;stroke:#800;stroke-width:2"  />
  <line x1="-1300" y1="-2050" x2="-1000" y2="-2050" style="stroke:#800;stroke-width:10;stroke-opacity:1.000000;stroke-linecap:round"/>
  <g transform="translate(-1192,-2056) rotate(0)" > <text font-size="100.0" fill="#800" font-family="monospace"  >
   8
  </text> </g> 
  <g transform="translate(-982,-2010) rotate(0)" > <text font-size="100.0" fill="#088" font-family="monospace"  >
   VDD_SDI
  </text> </g> 
  <circle cx="-1300" cy="-2050" r="10"
    style="fill:none;stroke:#800;stroke-width:2"  />
  <line x1="-1300" y1="-1850" x2="-1000" y2="-1850" style="stroke:#800;stroke-width:10;stroke-opacity:1.000000;stroke-linecap:round"/>
  <g transform="translate(-1192,-1856) rotate(0)" > <text font-size="100.0" fill="#800" font-family="monospace"  >
   9
  </text> </g> 
  <g transform="translate(-982,-1810) rotate(0)" > <text font-size="100.0" fill="#088" font-family="monospace"  >
   VDD_SCI
  </text> </g> 
  <circle cx="-1300" cy="-1850" r="10"
    style="fill:none;stroke:#800;stroke-width:2"  />
  <line x1="-1300" y1="-1750" x2="-1000" y2="-1750" style="stroke:#800;stroke-width:10;stroke-opacity:1.000000;stroke-linecap:round"/>
  <g transform="translate(-1235,-1756) rotate(0)" > <text font-size="100.0" fill="#800" font-family="monospace"  >
   10
  </text> </g> 
  <g transform="translate(-982,-1710) rotate(0)" > <text font-size="100.0" fill="#088" font-family="monospace"  >
   SCI
  </text> </g> 
  <circle cx="-1300" cy="-1750" r="10"
    style="fill:none;stroke:#800;stroke-width:2"  />
  <line x1="-1300" y1="1050" x2="-1000" y2="1050" style="stroke:#800;stroke-width:10;stroke-opacity:1.000000;stroke-linecap:round"/>
  <g transform="translate(-1235,1044) rotate(0)" > <text font-size="100.0" fill="#800" font-family="monospace"  >
   20
  </text> </g> 
  <g transform="translate(-982,1090) rotate(0)" > <text font-size="100.0" fill="#088" font-family="monospace"  >
   P5
  </text> </g> 
  <circle cx="-1300" cy="1050" r="10"
    style="fill:none;stroke:#800;stroke-width:2"  />
  <line x1="1300" y1="2150" x2="1000" y2="2150" style="stroke:#800;stroke-width:10;stroke-opacity:1.000000;stroke-linecap:round"/>
  <g transform="translate(1065,2144) rotate(0)" > <text font-size="100.0" fill="#800" font-family="monospace"  >
   30
  </text> </g> 
  <g transform="translate(780,2190) rotate(0)" > <text font-size="100.0" fill="#088" font-family="monospace"  >
   GND
  </text> </g> 
  <circle cx="1300" cy="2150" r="10"
    style="fill:none;stroke:#800;stroke-width:2"  />
  <line x1="1300" y1="1150" x2="1000" y2="1150" style="stroke:#800;stroke-width:10;stroke-opacity:1.000000;stroke-linecap:round"/>
  <g transform="translate(1065,1144) rotate(0)" > <text font-size="100.0" fill="#800" font-family="monospace"  >
   40
  </text> </g> 
  <g transform="translate(780,1190) rotate(0)" > <text font-size="100.0" fill="#088" font-family="monospace"  >
   FL0
  </text> </g> 
  <circle cx="1300" cy="1150" r="10"
    style="fill:none;stroke:#800;stroke-width:2"  />
  <line x1="1300" y1="2250" x2="1000" y2="2250" style="stroke:#800;stroke-width:10;stroke-opacity:1.000000;stroke-linecap:round"/>
  <g transform="translate(1065,2244) rotate(0)" > <text font-size="100.0" fill="#800" font-family="monospace"  >
   50
  </text> </g> 
  <g transform="translate(780,2290) rotate(0)" > <text font-size="100.0" fill="#088" font-family="monospace"  >
   GND
  </text> </g> 
  <circle cx="1300" cy="2250" r="10"
    style="fill:none;stroke:#800;stroke-width:2"  />
  <line x1="1300" y1="-1450" x2="1000" y2="-1450" style="stroke:#800;stroke-width:10;stroke-opacity:1.000000;stroke-linecap:round"/>
  <g transform="translate(1065,-1456) rotate(0)" > <text font-size="100.0" fill="#800" font-family="monospace"  >
   60
  </text> </g> 
  <g transform="translate(660,-1410) rotate(0)" > <text font-size="100.0" fill="#088" font-family="monospace"  >
   DOUT9
  </text> </g> 
  <circle cx="1300" cy="-1450" r="10"
    style="fill:none;stroke:#800;stroke-width:2"  />
  <line x1="1300" y1="50" x2="1000" y2="50" style="stroke:#800;stroke-width:10;stroke-opacity:1.000000;stroke-linecap:round"/>
  <g transform="translate(1065,44) rotate(0)" > <text font-size="100.0" fill="#800" font-family="monospace"  >
   70
  </text> </g> 
  <g transform="translate(780,90) rotate(0)" > <text font-size="100.0" fill="#088" font-family="monospace"  >
   SDO
  </text> </g> 
  <circle cx="1300" cy="50" r="10"
    style="fill:none;stroke:#800;stroke-width:2"  />
  <line x1="1300" y1="950" x2="1000" y2="950" style="stroke:#800;stroke-width:10;stroke-opacity:1.000000;stroke-linecap:round"/>
  <g transform="translate(1065,944) rotate(0)" > <text font-size="100.0" fill="#800" font-family="monospace"  >
   80
  </text> </g> 
  <g transform="translate(480,990) rotate(0)" > <text font-size="100.0" fill="#088" font-family="monospace"  >
   ANC_DATA
  </text> </g> 
  <circle cx="1300" cy="950" r="10"
    style="fill:none;stroke:#800;stroke-width:2"  />
  <line x1="-1300" y1="-1650" x2="-1070" y2="-1650" style="stroke:#800;stroke-width:10;stroke-opacity:1.000000;stroke-linecap:round"/>
  <circle cx="-1035" cy="-1650" r="35"
    style="fill:none;stroke:#800;stroke-width:10"  />
  <g transform="translate(-1235,-1656) rotate(0)" > <text font-size="100.0" fill="#800" font-family="monospace"  >
   11
  </text> </g> 
  <g transform="translate(-982,-1610) rotate(0)" > <text font-size="100.0" fill="#088" font-family="monospace"  >
   SCI
  </text> </g> 
  <circle cx="-1300" cy="-1650" r="10"
    style="fill:none;stroke:#800;stroke-width:2"  />
  <line x1="-1300" y1="850" x2="-1000" y2="850" style="stroke:#800;stroke-width:10;stroke-opacity:1.000000;stroke-linecap:round"/>
  <g transform="translate(-1235,844) rotate(0)" > <text font-size="100.0" fill="#800" font-family="monospace"  >
   21
  </text> </g> 
  <g transform="translate(-982,890) rotate(0)" > <text font-size="100.0" fill="#088" font-family="monospace"  >
   SCL/P4
  </text> </g> 
  <circle cx="-1300" cy="850" r="10"
    style="fill:none;stroke:#800;stroke-width:2"  />
  <line x1="-1300" y1="-750" x2="-1070" y2="-750" style="stroke:#800;stroke-width:10;stroke-opacity:1.000000;stroke-linecap:round"/>
  <circle cx="-1035" cy="-750" r="35"
    style="fill:none;stroke:#800;stroke-width:10"  />
  <g transform="translate(-1235,-756) rotate(0)" > <text font-size="100.0" fill="#800" font-family="monospace"  >
   31
  </text> </g> 
  <g transform="translate(-982,-710) rotate(0)" > <text font-size="100.0" fill="#088" font-family="monospace"  >
   RESET
  </text> </g> 
  <circle cx="-1300" cy="-750" r="10"
    style="fill:none;stroke:#800;stroke-width:2"  />
  <line x1="-1300" y1="1550" x2="-1000" y2="1550" style="stroke:#800;stroke-width:10;stroke-opacity:1.000000;stroke-linecap:round"/>
  <g transform="translate(-1235,1544) rotate(0)" > <text font-size="100.0" fill="#800" font-family="monospace"  >
   41
  </text> </g> 
  <g transform="translate(-982,1590) rotate(0)" > <text font-size="100.0" fill="#088" font-family="monospace"  >
   S1
  </text> </g> 
  <circle cx="-1300" cy="1550" r="10"
    style="fill:none;stroke:#800;stroke-width:2"  />
  <line x1="1300" y1="1850" x2="1000" y2="1850" style="stroke:#800;stroke-width:10;stroke-opacity:1.000000;stroke-linecap:round"/>
  <g transform="translate(1065,1844) rotate(0)" > <text font-size="100.0" fill="#800" font-family="monospace"  >
   51
  </text> </g> 
  <g transform="translate(780,1890) rotate(0)" > <text font-size="100.0" fill="#088" font-family="monospace"  >
   VDD
  </text> </g> 
  <circle cx="1300" cy="1850" r="10"
    style="fill:none;stroke:#800;stroke-width:2"  />
  <line x1="1300" y1="-750" x2="1000" y2="-750" style="stroke:#800;stroke-width:10;stroke-opacity:1.000000;stroke-linecap:round"/>
  <g transform="translate(1065,-756) rotate(0)" > <text font-size="100.0" fill="#800" font-family="monospace"  >
   61
  </text> </g> 
  <g transform="translate(900,-710) rotate(0)" > <text font-size="100.0" fill="#088" font-family="monospace"  >
   V
  </text> </g> 
  <circle cx="1300" cy="-750" r="10"
    style="fill:none;stroke:#800;stroke-width:2"  />
  <line x1="1300" y1="150" x2="1070" y2="150" style="stroke:#800;stroke-width:10;stroke-opacity:1.000000;stroke-linecap:round"/>
  <circle cx="1035" cy="150" r="35"
    style="fill:none;stroke:#800;stroke-width:10"  />
  <g transform="translate(1065,144) rotate(0)" > <text font-size="100.0" fill="#800" font-family="monospace"  >
   71
  </text> </g> 
  <g transform="translate(780,190) rotate(0)" > <text font-size="100.0" fill="#088" font-family="monospace"  >
   SDO
  </text> </g> 
  <circle cx="1300" cy="150" r="10"
    style="fill:none;stroke:#800;stroke-width:2"  />
  <line x1="-1300" y1="-1550" x2="-1000" y2="-1550" style="stroke:#800;stroke-width:10;stroke-opacity:1.000000;stroke-linecap:round"/>
  <g transform="translate(-1235,-1556) rotate(0)" > <text font-size="100.0" fill="#800" font-family="monospace"  >
   12
  </text> </g> 
  <g transform="translate(-982,-1510) rotate(0)" > <text font-size="100.0" fill="#088" font-family="monospace"  >
   VDD_SCI
  </text> </g> 
  <circle cx="-1300" cy="-1550" r="10"
    style="fill:none;stroke:#800;stroke-width:2"  />
  <line x1="-1300" y1="750" x2="-1000" y2="750" style="stroke:#800;stroke-width:10;stroke-opacity:1.000000;stroke-linecap:round"/>
  <g transform="translate(-1235,744) rotate(0)" > <text font-size="100.0" fill="#800" font-family="monospace"  >
   22
  </text> </g> 
  <g transform="translate(-982,790) rotate(0)" > <text font-size="100.0" fill="#088" font-family="monospace"  >
   SDA/P3
  </text> </g> 
  <circle cx="-1300" cy="750" r="10"
    style="fill:none;stroke:#800;stroke-width:2"  />
  <line x1="1300" y1="-950" x2="1000" y2="-950" style="stroke:#800;stroke-width:10;stroke-opacity:1.000000;stroke-linecap:round"/>
  <g transform="translate(1065,-956) rotate(0)" > <text font-size="100.0" fill="#800" font-family="monospace"  >
   32
  </text> </g> 
  <g transform="translate(720,-910) rotate(0)" > <text font-size="100.0" fill="#088" font-family="monospace"  >
   STD3
  </text> </g> 
  <circle cx="1300" cy="-950" r="10"
    style="fill:none;stroke:#800;stroke-width:2"  />
  <line x1="-1300" y1="1450" x2="-1000" y2="1450" style="stroke:#800;stroke-width:10;stroke-opacity:1.000000;stroke-linecap:round"/>
  <g transform="translate(-1235,1444) rotate(0)" > <text font-size="100.0" fill="#800" font-family="monospace"  >
   42
  </text> </g> 
  <g transform="translate(-982,1490) rotate(0)" > <text font-size="100.0" fill="#088" font-family="monospace"  >
   S0
  </text> </g> 
  <circle cx="-1300" cy="1450" r="10"
    style="fill:none;stroke:#800;stroke-width:2"  />
  <line x1="1300" y1="-2250" x2="1000" y2="-2250" style="stroke:#800;stroke-width:10;stroke-opacity:1.000000;stroke-linecap:round"/>
  <g transform="translate(1065,-2256) rotate(0)" > <text font-size="100.0" fill="#800" font-family="monospace"  >
   52
  </text> </g> 
  <g transform="translate(660,-2210) rotate(0)" > <text font-size="100.0" fill="#088" font-family="monospace"  >
   DOUT1
  </text> </g> 
  <circle cx="1300" cy="-2250" r="10"
    style="fill:none;stroke:#800;stroke-width:2"  />
  <line x1="1300" y1="-650" x2="1000" y2="-650" style="stroke:#800;stroke-width:10;stroke-opacity:1.000000;stroke-linecap:round"/>
  <g transform="translate(1065,-656) rotate(0)" > <text font-size="100.0" fill="#800" font-family="monospace"  >
   62
  </text> </g> 
  <g transform="translate(900,-610) rotate(0)" > <text font-size="100.0" fill="#088" font-family="monospace"  >
   H
  </text> </g> 
  <circle cx="1300" cy="-650" r="10"
    style="fill:none;stroke:#800;stroke-width:2"  />
  <line x1="1300" y1="250" x2="1000" y2="250" style="stroke:#800;stroke-width:10;stroke-opacity:1.000000;stroke-linecap:round"/>
  <g transform="translate(1065,244) rotate(0)" > <text font-size="100.0" fill="#800" font-family="monospace"  >
   72
  </text> </g> 
  <g transform="translate(720,290) rotate(0)" > <text font-size="100.0" fill="#088" font-family="monospace"  >
   SGND
  </text> </g> 
  <circle cx="1300" cy="250" r="10"
    style="fill:none;stroke:#800;stroke-width:2"  />
  <line x1="-1300" y1="1950" x2="-1000" y2="1950" style="stroke:#800;stroke-width:10;stroke-opacity:1.000000;stroke-linecap:round"/>
  <g transform="translate(-1235,1944) rotate(0)" > <text font-size="100.0" fill="#800" font-family="monospace"  >
   13
  </text> </g> 
  <g transform="translate(-982,1990) rotate(0)" > <text font-size="100.0" fill="#088" font-family="monospace"  >
   VDD
  </text> </g> 
  <circle cx="-1300" cy="1950" r="10"
    style="fill:none;stroke:#800;stroke-width:2"  />
  <line x1="-1300" y1="550" x2="-1000" y2="550" style="stroke:#800;stroke-width:10;stroke-opacity:1.000000;stroke-linecap:round"/>
  <g transform="translate(-1235,544) rotate(0)" > <text font-size="100.0" fill="#800" font-family="monospace"  >
   23
  </text> </g> 
  <g transform="translate(-982,590) rotate(0)" > <text font-size="100.0" fill="#088" font-family="monospace"  >
   A2/P2
  </text> </g> 
  <circle cx="-1300" cy="550" r="10"
    style="fill:none;stroke:#800;stroke-width:2"  />
  <line x1="1300" y1="-1050" x2="1000" y2="-1050" style="stroke:#800;stroke-width:10;stroke-opacity:1.000000;stroke-linecap:round"/>
  <g transform="translate(1065,-1056) rotate(0)" > <text font-size="100.0" fill="#800" font-family="monospace"  >
   33
  </text> </g> 
  <g transform="translate(720,-1010) rotate(0)" > <text font-size="100.0" fill="#088" font-family="monospace"  >
   STD2
  </text> </g> 
  <circle cx="1300" cy="-1050" r="10"
    style="fill:none;stroke:#800;stroke-width:2"  />
  <line x1="-1300" y1="-650" x2="-1000" y2="-650" style="stroke:#800;stroke-width:10;stroke-opacity:1.000000;stroke-linecap:round"/>
  <g transform="translate(-1235,-656) rotate(0)" > <text font-size="100.0" fill="#800" font-family="monospace"  >
   43
  </text> </g> 
  <g transform="translate(-982,-610) rotate(0)" > <text font-size="100.0" fill="#088" font-family="monospace"  >
   F_R/W
  </text> </g> 
  <circle cx="-1300" cy="-650" r="10"
    style="fill:none;stroke:#800;stroke-width:2"  />
  <line x1="1300" y1="-2150" x2="1000" y2="-2150" style="stroke:#800;stroke-width:10;stroke-opacity:1.000000;stroke-linecap:round"/>
  <g transform="translate(1065,-2156) rotate(0)" > <text font-size="100.0" fill="#800" font-family="monospace"  >
   53
  </text> </g> 
  <g transform="translate(660,-2110) rotate(0)" > <text font-size="100.0" fill="#088" font-family="monospace"  >
   DOUT2
  </text> </g> 
  <circle cx="1300" cy="-2150" r="10"
    style="fill:none;stroke:#800;stroke-width:2"  />
  <line x1="1300" y1="-450" x2="1000" y2="-450" style="stroke:#800;stroke-width:10;stroke-opacity:1.000000;stroke-linecap:round"/>
  <g transform="translate(1065,-456) rotate(0)" > <text font-size="100.0" fill="#800" font-family="monospace"  >
   63
  </text> </g> 
  <g transform="translate(840,-410) rotate(0)" > <text font-size="100.0" fill="#088" font-family="monospace"  >
   F0
  </text> </g> 
  <circle cx="1300" cy="-450" r="10"
    style="fill:none;stroke:#800;stroke-width:2"  />
  <line x1="-1300" y1="-350" x2="-1000" y2="-350" style="stroke:#800;stroke-width:10;stroke-opacity:1.000000;stroke-linecap:round"/>
  <g transform="translate(-1235,-356) rotate(0)" > <text font-size="100.0" fill="#800" font-family="monospace"  >
   73
  </text> </g> 
  <g transform="translate(-982,-310) rotate(0)" > <text font-size="100.0" fill="#088" font-family="monospace"  >
   VBLANKS/L
  </text> </g> 
  <circle cx="-1300" cy="-350" r="10"
    style="fill:none;stroke:#800;stroke-width:2"  />
  <line x1="-1300" y1="2350" x2="-1000" y2="2350" style="stroke:#800;stroke-width:10;stroke-opacity:1.000000;stroke-linecap:round"/>
  <g transform="translate(-1235,2344) rotate(0)" > <text font-size="100.0" fill="#800" font-family="monospace"  >
   14
  </text> </g> 
  <g transform="translate(-982,2390) rotate(0)" > <text font-size="100.0" fill="#088" font-family="monospace"  >
   GND
  </text> </g> 
  <circle cx="-1300" cy="2350" r="10"
    style="fill:none;stroke:#800;stroke-width:2"  />
  <line x1="-1300" y1="450" x2="-1000" y2="450" style="stroke:#800;stroke-width:10;stroke-opacity:1.000000;stroke-linecap:round"/>
  <g transform="translate(-1235,444) rotate(0)" > <text font-size="100.0" fill="#800" font-family="monospace"  >
   24
  </text> </g> 
  <g transform="translate(-982,490) rotate(0)" > <text font-size="100.0" fill="#088" font-family="monospace"  >
   A1/P1
  </text> </g> 
  <circle cx="-1300" cy="450" r="10"
    style="fill:none;stroke:#800;stroke-width:2"  />
  <line x1="1300" y1="-1150" x2="1000" y2="-1150" style="stroke:#800;stroke-width:10;stroke-opacity:1.000000;stroke-linecap:round"/>
  <g transform="translate(1065,-1156) rotate(0)" > <text font-size="100.0" fill="#800" font-family="monospace"  >
   34
  </text> </g> 
  <g transform="translate(720,-1110) rotate(0)" > <text font-size="100.0" fill="#088" font-family="monospace"  >
   STD1
  </text> </g> 
  <circle cx="1300" cy="-1150" r="10"
    style="fill:none;stroke:#800;stroke-width:2"  />
  <line x1="1300" y1="450" x2="1070" y2="450" style="stroke:#800;stroke-width:10;stroke-opacity:1.000000;stroke-linecap:round"/>
  <circle cx="1035" cy="450" r="35"
    style="fill:none;stroke:#800;stroke-width:10"  />
  <g transform="translate(1065,444) rotate(0)" > <text font-size="100.0" fill="#800" font-family="monospace"  >
   44
  </text> </g> 
  <g transform="translate(420,490) rotate(0)" > <text font-size="100.0" fill="#088" font-family="monospace"  >
   INTERRUPT
  </text> </g> 
  <circle cx="1300" cy="450" r="10"
    style="fill:none;stroke:#800;stroke-width:2"  />
  <line x1="1300" y1="-2050" x2="1000" y2="-2050" style="stroke:#800;stroke-width:10;stroke-opacity:1.000000;stroke-linecap:round"/>
  <g transform="translate(1065,-2056) rotate(0)" > <text font-size="100.0" fill="#800" font-family="monospace"  >
   54
  </text> </g> 
  <g transform="translate(660,-2010) rotate(0)" > <text font-size="100.0" fill="#088" font-family="monospace"  >
   DOUT3
  </text> </g> 
  <circle cx="1300" cy="-2050" r="10"
    style="fill:none;stroke:#800;stroke-width:2"  />
  <line x1="1300" y1="-350" x2="1000" y2="-350" style="stroke:#800;stroke-width:10;stroke-opacity:1.000000;stroke-linecap:round"/>
  <g transform="translate(1065,-356) rotate(0)" > <text font-size="100.0" fill="#800" font-family="monospace"  >
   64
  </text> </g> 
  <g transform="translate(840,-310) rotate(0)" > <text font-size="100.0" fill="#088" font-family="monospace"  >
   F1
  </text> </g> 
  <circle cx="1300" cy="-350" r="10"
    style="fill:none;stroke:#800;stroke-width:2"  />
  <line x1="-1300" y1="-250" x2="-1000" y2="-250" style="stroke:#800;stroke-width:10;stroke-opacity:1.000000;stroke-linecap:round"/>
  <g transform="translate(-1235,-256) rotate(0)" > <text font-size="100.0" fill="#800" font-family="monospace"  >
   74
  </text> </g> 
  <g transform="translate(-982,-210) rotate(0)" > <text font-size="100.0" fill="#088" font-family="monospace"  >
   BYPASS_EDH
  </text> </g> 
  <circle cx="-1300" cy="-250" r="10"
    style="fill:none;stroke:#800;stroke-width:2"  />
  <line x1="-1300" y1="-1350" x2="-1000" y2="-1350" style="stroke:#800;stroke-width:10;stroke-opacity:1.000000;stroke-linecap:round"/>
  <g transform="translate(-1235,-1356) rotate(0)" > <text font-size="100.0" fill="#800" font-family="monospace"  >
   15
  </text> </g> 
  <g transform="translate(-982,-1310) rotate(0)" > <text font-size="100.0" fill="#088" font-family="monospace"  >
   HOSTIF_MODE
  </text> </g> 
  <circle cx="-1300" cy="-1350" r="10"
    style="fill:none;stroke:#800;stroke-width:2"  />
  <line x1="-1300" y1="350" x2="-1000" y2="350" style="stroke:#800;stroke-width:10;stroke-opacity:1.000000;stroke-linecap:round"/>
  <g transform="translate(-1235,344) rotate(0)" > <text font-size="100.0" fill="#800" font-family="monospace"  >
   25
  </text> </g> 
  <g transform="translate(-982,390) rotate(0)" > <text font-size="100.0" fill="#088" font-family="monospace"  >
   A0/P0
  </text> </g> 
  <circle cx="-1300" cy="350" r="10"
    style="fill:none;stroke:#800;stroke-width:2"  />
  <line x1="1300" y1="-1250" x2="1000" y2="-1250" style="stroke:#800;stroke-width:10;stroke-opacity:1.000000;stroke-linecap:round"/>
  <g transform="translate(1065,-1256) rotate(0)" > <text font-size="100.0" fill="#800" font-family="monospace"  >
   35
  </text> </g> 
  <g transform="translate(720,-1210) rotate(0)" > <text font-size="100.0" fill="#088" font-family="monospace"  >
   STD0
  </text> </g> 
  <circle cx="1300" cy="-1250" r="10"
    style="fill:none;stroke:#800;stroke-width:2"  />
  <line x1="-1300" y1="-550" x2="-1000" y2="-550" style="stroke:#800;stroke-width:10;stroke-opacity:1.000000;stroke-linecap:round"/>
  <g transform="translate(-1235,-556) rotate(0)" > <text font-size="100.0" fill="#800" font-family="monospace"  >
   45
  </text> </g> 
  <g transform="translate(-982,-510) rotate(0)" > <text font-size="100.0" fill="#088" font-family="monospace"  >
   FLYWDIS
  </text> </g> 
  <circle cx="-1300" cy="-550" r="10"
    style="fill:none;stroke:#800;stroke-width:2"  />
  <line x1="1300" y1="-1950" x2="1000" y2="-1950" style="stroke:#800;stroke-width:10;stroke-opacity:1.000000;stroke-linecap:round"/>
  <g transform="translate(1065,-1956) rotate(0)" > <text font-size="100.0" fill="#800" font-family="monospace"  >
   55
  </text> </g> 
  <g transform="translate(660,-1910) rotate(0)" > <text font-size="100.0" fill="#088" font-family="monospace"  >
   DOUT4
  </text> </g> 
  <circle cx="1300" cy="-1950" r="10"
    style="fill:none;stroke:#800;stroke-width:2"  />
  <line x1="1300" y1="-250" x2="1000" y2="-250" style="stroke:#800;stroke-width:10;stroke-opacity:1.000000;stroke-linecap:round"/>
  <g transform="translate(1065,-256) rotate(0)" > <text font-size="100.0" fill="#800" font-family="monospace"  >
   65
  </text> </g> 
  <g transform="translate(840,-210) rotate(0)" > <text font-size="100.0" fill="#088" font-family="monospace"  >
   F2
  </text> </g> 
  <circle cx="1300" cy="-250" r="10"
    style="fill:none;stroke:#800;stroke-width:2"  />
  <line x1="-1300" y1="-150" x2="-1000" y2="-150" style="stroke:#800;stroke-width:10;stroke-opacity:1.000000;stroke-linecap:round"/>
  <g transform="translate(-1235,-156) rotate(0)" > <text font-size="100.0" fill="#800" font-family="monospace"  >
   75
  </text> </g> 
  <g transform="translate(-982,-110) rotate(0)" > <text font-size="100.0" fill="#088" font-family="monospace"  >
   SDOMODE
  </text> </g> 
  <circle cx="-1300" cy="-150" r="10"
    style="fill:none;stroke:#800;stroke-width:2"  />
  <line x1="-1300" y1="-1250" x2="-1000" y2="-1250" style="stroke:#800;stroke-width:10;stroke-opacity:1.000000;stroke-linecap:round"/>
  <g transform="translate(-1235,-1256) rotate(0)" > <text font-size="100.0" fill="#800" font-family="monospace"  >
   16
  </text> </g> 
  <g transform="translate(-982,-1210) rotate(0)" > <text font-size="100.0" fill="#088" font-family="monospace"  >
   FIFOE/S
  </text> </g> 
  <circle cx="-1300" cy="-1250" r="10"
    style="fill:none;stroke:#800;stroke-width:2"  />
  <line x1="-1300" y1="-1050" x2="-1000" y2="-1050" style="stroke:#800;stroke-width:10;stroke-opacity:1.000000;stroke-linecap:round"/>
  <g transform="translate(-1235,-1056) rotate(0)" > <text font-size="100.0" fill="#800" font-family="monospace"  >
   26
  </text> </g> 
  <g transform="translate(-982,-1010) rotate(0)" > <text font-size="100.0" fill="#088" font-family="monospace"  >
   R/W
  </text> </g> 
  <circle cx="-1300" cy="-1050" r="10"
    style="fill:none;stroke:#800;stroke-width:2"  />
  <line x1="1300" y1="1550" x2="1000" y2="1550" style="stroke:#800;stroke-width:10;stroke-opacity:1.000000;stroke-linecap:round"/>
  <g transform="translate(1065,1544) rotate(0)" > <text font-size="100.0" fill="#800" font-family="monospace"  >
   36
  </text> </g> 
  <g transform="translate(780,1590) rotate(0)" > <text font-size="100.0" fill="#088" font-family="monospace"  >
   FL4
  </text> </g> 
  <circle cx="1300" cy="1550" r="10"
    style="fill:none;stroke:#800;stroke-width:2"  />
  <line x1="1300" y1="550" x2="1000" y2="550" style="stroke:#800;stroke-width:10;stroke-opacity:1.000000;stroke-linecap:round"/>
  <g transform="translate(1065,544) rotate(0)" > <text font-size="100.0" fill="#800" font-family="monospace"  >
   46
  </text> </g> 
  <g transform="translate(600,590) rotate(0)" > <text font-size="100.0" fill="#088" font-family="monospace"  >
   NO_EDH
  </text> </g> 
  <circle cx="1300" cy="550" r="10"
    style="fill:none;stroke:#800;stroke-width:2"  />
  <line x1="1300" y1="-1850" x2="1000" y2="-1850" style="stroke:#800;stroke-width:10;stroke-opacity:1.000000;stroke-linecap:round"/>
  <g transform="translate(1065,-1856) rotate(0)" > <text font-size="100.0" fill="#800" font-family="monospace"  >
   56
  </text> </g> 
  <g transform="translate(660,-1810) rotate(0)" > <text font-size="100.0" fill="#088" font-family="monospace"  >
   DOUT5
  </text> </g> 
  <circle cx="1300" cy="-1850" r="10"
    style="fill:none;stroke:#800;stroke-width:2"  />
  <line x1="-1300" y1="-450" x2="-1000" y2="-450" style="stroke:#800;stroke-width:10;stroke-opacity:1.000000;stroke-linecap:round"/>
  <g transform="translate(-1235,-456) rotate(0)" > <text font-size="100.0" fill="#800" font-family="monospace"  >
   66
  </text> </g> 
  <g transform="translate(-982,-410) rotate(0)" > <text font-size="100.0" fill="#088" font-family="monospace"  >
   FLAG_MAP
  </text> </g> 
  <circle cx="-1300" cy="-450" r="10"
    style="fill:none;stroke:#800;stroke-width:2"  />
  <line x1="-1300" y1="-50" x2="-1070" y2="-50" style="stroke:#800;stroke-width:10;stroke-opacity:1.000000;stroke-linecap:round"/>
  <circle cx="-1035" cy="-50" r="35"
    style="fill:none;stroke:#800;stroke-width:10"  />
  <g transform="translate(-1235,-56) rotate(0)" > <text font-size="100.0" fill="#800" font-family="monospace"  >
   76
  </text> </g> 
  <g transform="translate(-982,-10) rotate(0)" > <text font-size="100.0" fill="#088" font-family="monospace"  >
   BLANK_EN
  </text> </g> 
  <circle cx="-1300" cy="-50" r="10"
    style="fill:none;stroke:#800;stroke-width:2"  />
  <line x1="-1300" y1="-1150" x2="-1000" y2="-1150" style="stroke:#800;stroke-width:10;stroke-opacity:1.000000;stroke-linecap:round"/>
  <g transform="translate(-1235,-1156) rotate(0)" > <text font-size="100.0" fill="#800" font-family="monospace"  >
   17
  </text> </g> 
  <g transform="translate(-982,-1110) rotate(0)" > <text font-size="100.0" fill="#088" font-family="monospace"  >
   CRC_MODE
  </text> </g> 
  <circle cx="-1300" cy="-1150" r="10"
    style="fill:none;stroke:#800;stroke-width:2"  />
  <line x1="-1300" y1="-950" x2="-1000" y2="-950" style="stroke:#800;stroke-width:10;stroke-opacity:1.000000;stroke-linecap:round"/>
  <g transform="translate(-1235,-956) rotate(0)" > <text font-size="100.0" fill="#800" font-family="monospace"  >
   27
  </text> </g> 
  <g transform="translate(-982,-910) rotate(0)" > <text font-size="100.0" fill="#088" font-family="monospace"  >
   A/D
  </text> </g> 
  <circle cx="-1300" cy="-950" r="10"
    style="fill:none;stroke:#800;stroke-width:2"  />
  <line x1="1300" y1="1450" x2="1000" y2="1450" style="stroke:#800;stroke-width:10;stroke-opacity:1.000000;stroke-linecap:round"/>
  <g transform="translate(1065,1444) rotate(0)" > <text font-size="100.0" fill="#800" font-family="monospace"  >
   37
  </text> </g> 
  <g transform="translate(780,1490) rotate(0)" > <text font-size="100.0" fill="#088" font-family="monospace"  >
   FL3
  </text> </g> 
  <circle cx="1300" cy="1450" r="10"
    style="fill:none;stroke:#800;stroke-width:2"  />
  <line x1="1300" y1="650" x2="1070" y2="650" style="stroke:#800;stroke-width:10;stroke-opacity:1.000000;stroke-linecap:round"/>
  <circle cx="1035" cy="650" r="35"
    style="fill:none;stroke:#800;stroke-width:10"  />
  <g transform="translate(1065,644) rotate(0)" > <text font-size="100.0" fill="#800" font-family="monospace"  >
   47
  </text> </g> 
  <g transform="translate(360,690) rotate(0)" > <text font-size="100.0" fill="#088" font-family="monospace"  >
   FIFO_RESET
  </text> </g> 
  <circle cx="1300" cy="650" r="10"
    style="fill:none;stroke:#800;stroke-width:2"  />
  <line x1="1300" y1="-1750" x2="1000" y2="-1750" style="stroke:#800;stroke-width:10;stroke-opacity:1.000000;stroke-linecap:round"/>
  <g transform="translate(1065,-1756) rotate(0)" > <text font-size="100.0" fill="#800" font-family="monospace"  >
   57
  </text> </g> 
  <g transform="translate(660,-1710) rotate(0)" > <text font-size="100.0" fill="#088" font-family="monospace"  >
   DOUT6
  </text> </g> 
  <circle cx="1300" cy="-1750" r="10"
    style="fill:none;stroke:#800;stroke-width:2"  />
  <line x1="1300" y1="2350" x2="1000" y2="2350" style="stroke:#800;stroke-width:10;stroke-opacity:1.000000;stroke-linecap:round"/>
  <g transform="translate(1065,2344) rotate(0)" > <text font-size="100.0" fill="#800" font-family="monospace"  >
   67
  </text> </g> 
  <g transform="translate(780,2390) rotate(0)" > <text font-size="100.0" fill="#088" font-family="monospace"  >
   GND
  </text> </g> 
  <circle cx="1300" cy="2350" r="10"
    style="fill:none;stroke:#800;stroke-width:2"  />
  <line x1="-1300" y1="50" x2="-1000" y2="50" style="stroke:#800;stroke-width:10;stroke-opacity:1.000000;stroke-linecap:round"/>
  <g transform="translate(-1235,44) rotate(0)" > <text font-size="100.0" fill="#800" font-family="monospace"  >
   77
  </text> </g> 
  <g transform="translate(-982,90) rotate(0)" > <text font-size="100.0" fill="#088" font-family="monospace"  >
   ANC_CHKSM
  </text> </g> 
  <circle cx="-1300" cy="50" r="10"
    style="fill:none;stroke:#800;stroke-width:2"  />
  <line x1="-1300" y1="1250" x2="-1000" y2="1250" style="stroke:#800;stroke-width:10;stroke-opacity:1.000000;stroke-linecap:round"/>
  <g transform="translate(-1235,1244) rotate(0)" > <text font-size="100.0" fill="#800" font-family="monospace"  >
   18
  </text> </g> 
  <g transform="translate(-982,1290) rotate(0)" > <text font-size="100.0" fill="#088" font-family="monospace"  >
   P7
  </text> </g> 
  <circle cx="-1300" cy="1250" r="10"
    style="fill:none;stroke:#800;stroke-width:2"  />
  <line x1="-1300" y1="-850" x2="-1070" y2="-850" style="stroke:#800;stroke-width:10;stroke-opacity:1.000000;stroke-linecap:round"/>
  <circle cx="-1035" cy="-850" r="35"
    style="fill:none;stroke:#800;stroke-width:10"  />
  <g transform="translate(-1235,-856) rotate(0)" > <text font-size="100.0" fill="#800" font-family="monospace"  >
   28
  </text> </g> 
  <g transform="translate(-982,-810) rotate(0)" > <text font-size="100.0" fill="#088" font-family="monospace"  >
   CS
  </text> </g> 
  <circle cx="-1300" cy="-850" r="10"
    style="fill:none;stroke:#800;stroke-width:2"  />
  <line x1="1300" y1="1350" x2="1000" y2="1350" style="stroke:#800;stroke-width:10;stroke-opacity:1.000000;stroke-linecap:round"/>
  <g transform="translate(1065,1344) rotate(0)" > <text font-size="100.0" fill="#800" font-family="monospace"  >
   38
  </text> </g> 
  <g transform="translate(780,1390) rotate(0)" > <text font-size="100.0" fill="#088" font-family="monospace"  >
   FL2
  </text> </g> 
  <circle cx="1300" cy="1350" r="10"
    style="fill:none;stroke:#800;stroke-width:2"  />
  <line x1="1300" y1="750" x2="1000" y2="750" style="stroke:#800;stroke-width:10;stroke-opacity:1.000000;stroke-linecap:round"/>
  <g transform="translate(1065,744) rotate(0)" > <text font-size="100.0" fill="#800" font-family="monospace"  >
   48
  </text> </g> 
  <g transform="translate(540,790) rotate(0)" > <text font-size="100.0" fill="#088" font-family="monospace"  >
   PCLKOUT
  </text> </g> 
  <circle cx="1300" cy="750" r="10"
    style="fill:none;stroke:#800;stroke-width:2"  />
  <line x1="1300" y1="-1650" x2="1000" y2="-1650" style="stroke:#800;stroke-width:10;stroke-opacity:1.000000;stroke-linecap:round"/>
  <g transform="translate(1065,-1656) rotate(0)" > <text font-size="100.0" fill="#800" font-family="monospace"  >
   58
  </text> </g> 
  <g transform="translate(660,-1610) rotate(0)" > <text font-size="100.0" fill="#088" font-family="monospace"  >
   DOUT7
  </text> </g> 
  <circle cx="1300" cy="-1650" r="10"
    style="fill:none;stroke:#800;stroke-width:2"  />
  <line x1="1300" y1="1950" x2="1000" y2="1950" style="stroke:#800;stroke-width:10;stroke-opacity:1.000000;stroke-linecap:round"/>
  <g transform="translate(1065,1944) rotate(0)" > <text font-size="100.0" fill="#800" font-family="monospace"  >
   68
  </text> </g> 
  <g transform="translate(780,1990) rotate(0)" > <text font-size="100.0" fill="#088" font-family="monospace"  >
   VDD
  </text> </g> 
  <circle cx="1300" cy="1950" r="10"
    style="fill:none;stroke:#800;stroke-width:2"  />
  <line x1="-1300" y1="150" x2="-1000" y2="150" style="stroke:#800;stroke-width:10;stroke-opacity:1.000000;stroke-linecap:round"/>
  <g transform="translate(-1235,144) rotate(0)" > <text font-size="100.0" fill="#800" font-family="monospace"  >
   78
  </text> </g> 
  <g transform="translate(-982,190) rotate(0)" > <text font-size="100.0" fill="#088" font-family="monospace"  >
   CLIP_TRS
  </text> </g> 
  <circle cx="-1300" cy="150" r="10"
    style="fill:none;stroke:#800;stroke-width:2"  />
  <line x1="-1300" y1="1150" x2="-1000" y2="1150" style="stroke:#800;stroke-width:10;stroke-opacity:1.000000;stroke-linecap:round"/>
  <g transform="translate(-1235,1144) rotate(0)" > <text font-size="100.0" fill="#800" font-family="monospace"  >
   19
  </text> </g> 
  <g transform="translate(-982,1190) rotate(0)" > <text font-size="100.0" fill="#088" font-family="monospace"  >
   P6
  </text> </g> 
  <circle cx="-1300" cy="1150" r="10"
    style="fill:none;stroke:#800;stroke-width:2"  />
  <line x1="1300" y1="1750" x2="1000" y2="1750" style="stroke:#800;stroke-width:10;stroke-opacity:1.000000;stroke-linecap:round"/>
  <g transform="translate(1065,1744) rotate(0)" > <text font-size="100.0" fill="#800" font-family="monospace"  >
   29
  </text> </g> 
  <g transform="translate(780,1790) rotate(0)" > <text font-size="100.0" fill="#088" font-family="monospace"  >
   VDD
  </text> </g> 
  <circle cx="1300" cy="1750" r="10"
    style="fill:none;stroke:#800;stroke-width:2"  />
  <line x1="1300" y1="1250" x2="1000" y2="1250" style="stroke:#800;stroke-width:10;stroke-opacity:1.000000;stroke-linecap:round"/>
  <g transform="translate(1065,1244) rotate(0)" > <text font-size="100.0" fill="#800" font-family="monospace"  >
   39
  </text> </g> 
  <g transform="translate(780,1290) rotate(0)" > <text font-size="100.0" fill="#088" font-family="monospace"  >
   FL1
  </text> </g> 
  <circle cx="1300" cy="1250" r="10"
    style="fill:none;stroke:#800;stroke-width:2"  />
  <line x1="1300" y1="-2350" x2="1000" y2="-2350" style="stroke:#800;stroke-width:10;stroke-opacity:1.000000;stroke-linecap:round"/>
  <g transform="translate(1065,-2356) rotate(0)" > <text font-size="100.0" fill="#800" font-family="monospace"  >
   49
  </text> </g> 
  <g transform="translate(660,-2310) rotate(0)" > <text font-size="100.0" fill="#088" font-family="monospace"  >
   DOUT0
  </text> </g> 
  <circle cx="1300" cy="-2350" r="10"
    style="fill:none;stroke:#800;stroke-width:2"  />
  <line x1="1300" y1="-1550" x2="1000" y2="-1550" style="stroke:#800;stroke-width:10;stroke-opacity:1.000000;stroke-linecap:round"/>
  <g transform="translate(1065,-1556) rotate(0)" > <text font-size="100.0" fill="#800" font-family="monospace"  >
   59
  </text> </g> 
  <g transform="translate(660,-1510) rotate(0)" > <text font-size="100.0" fill="#088" font-family="monospace"  >
   DOUT8
  </text> </g> 
  <circle cx="1300" cy="-1550" r="10"
    style="fill:none;stroke:#800;stroke-width:2"  />
  <line x1="1300" y1="-50" x2="1000" y2="-50" style="stroke:#800;stroke-width:10;stroke-opacity:1.000000;stroke-linecap:round"/>
  <g transform="translate(1065,-56) rotate(0)" > <text font-size="100.0" fill="#800" font-family="monospace"  >
   69
  </text> </g> 
  <g transform="translate(720,-10) rotate(0)" > <text font-size="100.0" fill="#088" font-family="monospace"  >
   SVDD
  </text> </g> 
  <circle cx="1300" cy="-50" r="10"
    style="fill:none;stroke:#800;stroke-width:2"  />
  <line x1="1300" y1="850" x2="1000" y2="850" style="stroke:#800;stroke-width:10;stroke-opacity:1.000000;stroke-linecap:round"/>
  <g transform="translate(1065,844) rotate(0)" > <text font-size="100.0" fill="#800" font-family="monospace"  >
   79
  </text> </g> 
  <g transform="translate(540,890) rotate(0)" > <text font-size="100.0" fill="#088" font-family="monospace"  >
   TRS_ERR
  </text> </g> 
  <circle cx="1300" cy="850" r="10"
    style="fill:none;stroke:#800;stroke-width:2"  />
 </g>
</svg>
