<?xml version="1.0"?>
<svg height="723" width="723"  >
 <g style="fill-opacity:1.0; stroke:black;
  stroke-width:1;" transform=" translate( 361.75,361.75 ) scale( 0.15,0.15 )">
  <g transform="translate(-30,-1770) rotate(0)" > <text font-size="100.0" fill="#088" font-family="monospace"  >
   U
  </text> </g> 
  <g transform="translate(-180,1830) rotate(0)" > <text font-size="100.0" fill="#088" font-family="monospace"  >
   GS9032
  </text> </g> 
  <rect x="-800" y="-1750" height="3500"
    width="1600" style="fill:none;stroke:#800;stroke-width:10" />
  <line x1="-1100" y1="-750" x2="-800" y2="-750" style="stroke:#800;stroke-width:10;stroke-opacity:1.000000;stroke-linecap:round"/>
  <g transform="translate(-992,-756) rotate(0)" > <text font-size="100.0" fill="#800" font-family="monospace"  >
   1
  </text> </g> 
  <g transform="translate(-782,-710) rotate(0)" > <text font-size="100.0" fill="#088" font-family="monospace"  >
   PD9
  </text> </g> 
  <circle cx="-1100" cy="-750" r="10"
    style="fill:none;stroke:#800;stroke-width:2"  />
  <line x1="-1100" y1="-850" x2="-800" y2="-850" style="stroke:#800;stroke-width:10;stroke-opacity:1.000000;stroke-linecap:round"/>
  <g transform="translate(-992,-856) rotate(0)" > <text font-size="100.0" fill="#800" font-family="monospace"  >
   2
  </text> </g> 
  <g transform="translate(-782,-810) rotate(0)" > <text font-size="100.0" fill="#088" font-family="monospace"  >
   PD8
  </text> </g> 
  <circle cx="-1100" cy="-850" r="10"
    style="fill:none;stroke:#800;stroke-width:2"  />
  <line x1="-1100" y1="-950" x2="-800" y2="-950" style="stroke:#800;stroke-width:10;stroke-opacity:1.000000;stroke-linecap:round"/>
  <g transform="translate(-992,-956) rotate(0)" > <text font-size="100.0" fill="#800" font-family="monospace"  >
   3
  </text> </g> 
  <g transform="translate(-782,-910) rotate(0)" > <text font-size="100.0" fill="#088" font-family="monospace"  >
   PD7
  </text> </g> 
  <circle cx="-1100" cy="-950" r="10"
    style="fill:none;stroke:#800;stroke-width:2"  />
  <line x1="-1100" y1="-1050" x2="-800" y2="-1050" style="stroke:#800;stroke-width:10;stroke-opacity:1.000000;stroke-linecap:round"/>
  <g transform="translate(-992,-1056) rotate(0)" > <text font-size="100.0" fill="#800" font-family="monospace"  >
   4
  </text> </g> 
  <g transform="translate(-782,-1010) rotate(0)" > <text font-size="100.0" fill="#088" font-family="monospace"  >
   PD6
  </text> </g> 
  <circle cx="-1100" cy="-1050" r="10"
    style="fill:none;stroke:#800;stroke-width:2"  />
  <line x1="-1100" y1="-1150" x2="-800" y2="-1150" style="stroke:#800;stroke-width:10;stroke-opacity:1.000000;stroke-linecap:round"/>
  <g transform="translate(-992,-1156) rotate(0)" > <text font-size="100.0" fill="#800" font-family="monospace"  >
   5
  </text> </g> 
  <g transform="translate(-782,-1110) rotate(0)" > <text font-size="100.0" fill="#088" font-family="monospace"  >
   PD5
  </text> </g> 
  <circle cx="-1100" cy="-1150" r="10"
    style="fill:none;stroke:#800;stroke-width:2"  />
  <line x1="-1100" y1="-1250" x2="-800" y2="-1250" style="stroke:#800;stroke-width:10;stroke-opacity:1.000000;stroke-linecap:round"/>
  <g transform="translate(-992,-1256) rotate(0)" > <text font-size="100.0" fill="#800" font-family="monospace"  >
   6
  </text> </g> 
  <g transform="translate(-782,-1210) rotate(0)" > <text font-size="100.0" fill="#088" font-family="monospace"  >
   PD4
  </text> </g> 
  <circle cx="-1100" cy="-1250" r="10"
    style="fill:none;stroke:#800;stroke-width:2"  />
  <line x1="-1100" y1="-1350" x2="-800" y2="-1350" style="stroke:#800;stroke-width:10;stroke-opacity:1.000000;stroke-linecap:round"/>
  <g transform="translate(-992,-1356) rotate(0)" > <text font-size="100.0" fill="#800" font-family="monospace"  >
   7
  </text> </g> 
  <g transform="translate(-782,-1310) rotate(0)" > <text font-size="100.0" fill="#088" font-family="monospace"  >
   PD3
  </text> </g> 
  <circle cx="-1100" cy="-1350" r="10"
    style="fill:none;stroke:#800;stroke-width:2"  />
  <line x1="-1100" y1="-1450" x2="-800" y2="-1450" style="stroke:#800;stroke-width:10;stroke-opacity:1.000000;stroke-linecap:round"/>
  <g transform="translate(-992,-1456) rotate(0)" > <text font-size="100.0" fill="#800" font-family="monospace"  >
   8
  </text> </g> 
  <g transform="translate(-782,-1410) rotate(0)" > <text font-size="100.0" fill="#088" font-family="monospace"  >
   PD2
  </text> </g> 
  <circle cx="-1100" cy="-1450" r="10"
    style="fill:none;stroke:#800;stroke-width:2"  />
  <line x1="-1100" y1="-1550" x2="-800" y2="-1550" style="stroke:#800;stroke-width:10;stroke-opacity:1.000000;stroke-linecap:round"/>
  <g transform="translate(-992,-1556) rotate(0)" > <text font-size="100.0" fill="#800" font-family="monospace"  >
   9
  </text> </g> 
  <g transform="translate(-782,-1510) rotate(0)" > <text font-size="100.0" fill="#088" font-family="monospace"  >
   PD1
  </text> </g> 
  <circle cx="-1100" cy="-1550" r="10"
    style="fill:none;stroke:#800;stroke-width:2"  />
  <line x1="-1100" y1="-1650" x2="-800" y2="-1650" style="stroke:#800;stroke-width:10;stroke-opacity:1.000000;stroke-linecap:round"/>
  <g transform="translate(-1035,-1656) rotate(0)" > <text font-size="100.0" fill="#800" font-family="monospace"  >
   10
  </text> </g> 
  <g transform="translate(-782,-1610) rotate(0)" > <text font-size="100.0" fill="#088" font-family="monospace"  >
   PD0
  </text> </g> 
  <circle cx="-1100" cy="-1650" r="10"
    style="fill:none;stroke:#800;stroke-width:2"  />
  <line x1="1100" y1="-1050" x2="800" y2="-1050" style="stroke:#800;stroke-width:10;stroke-opacity:1.000000;stroke-linecap:round"/>
  <g transform="translate(865,-1056) rotate(0)" > <text font-size="100.0" fill="#800" font-family="monospace"  >
   20
  </text> </g> 
  <g transform="translate(280,-1010) rotate(0)" > <text font-size="100.0" fill="#088" font-family="monospace"  >
   LOCK_DET
  </text> </g> 
  <circle cx="1100" cy="-1050" r="10"
    style="fill:none;stroke:#800;stroke-width:2"  />
  <line x1="-1100" y1="150" x2="-800" y2="150" style="stroke:#800;stroke-width:10;stroke-opacity:1.000000;stroke-linecap:round"/>
  <g transform="translate(-1035,144) rotate(0)" > <text font-size="100.0" fill="#800" font-family="monospace"  >
   30
  </text> </g> 
  <g transform="translate(-782,190) rotate(0)" > <text font-size="100.0" fill="#088" font-family="monospace"  >
   R_SET1
  </text> </g> 
  <circle cx="-1100" cy="150" r="10"
    style="fill:none;stroke:#800;stroke-width:2"  />
  <line x1="-1100" y1="1550" x2="-800" y2="1550" style="stroke:#800;stroke-width:10;stroke-opacity:1.000000;stroke-linecap:round"/>
  <g transform="translate(-1035,1544) rotate(0)" > <text font-size="100.0" fill="#800" font-family="monospace"  >
   40
  </text> </g> 
  <g transform="translate(-782,1590) rotate(0)" > <text font-size="100.0" fill="#088" font-family="monospace"  >
   LBWC
  </text> </g> 
  <circle cx="-1100" cy="1550" r="10"
    style="fill:none;stroke:#800;stroke-width:2"  />
  <line x1="-1100" y1="-550" x2="-800" y2="-550" style="stroke:#800;stroke-width:10;stroke-opacity:1.000000;stroke-linecap:round"/>
  <g transform="translate(-1035,-556) rotate(0)" > <text font-size="100.0" fill="#800" font-family="monospace"  >
   11
  </text> </g> 
  <g transform="translate(-782,-510) rotate(0)" > <text font-size="100.0" fill="#088" font-family="monospace"  >
   PCLKIN
  </text> </g> 
  <circle cx="-1100" cy="-550" r="10"
    style="fill:none;stroke:#800;stroke-width:2"  />
  <line x1="-1100" y1="-350" x2="-800" y2="-350" style="stroke:#800;stroke-width:10;stroke-opacity:1.000000;stroke-linecap:round"/>
  <g transform="translate(-1035,-356) rotate(0)" > <text font-size="100.0" fill="#800" font-family="monospace"  >
   21
  </text> </g> 
  <g transform="translate(-782,-310) rotate(0)" > <text font-size="100.0" fill="#088" font-family="monospace"  >
   SS0
  </text> </g> 
  <circle cx="-1100" cy="-350" r="10"
    style="fill:none;stroke:#800;stroke-width:2"  />
  <line x1="-1100" y1="1150" x2="-800" y2="1150" style="stroke:#800;stroke-width:10;stroke-opacity:1.000000;stroke-linecap:round"/>
  <g transform="translate(-1035,1144) rotate(0)" > <text font-size="100.0" fill="#800" font-family="monospace"  >
   31
  </text> </g> 
  <g transform="translate(-782,1190) rotate(0)" > <text font-size="100.0" fill="#088" font-family="monospace"  >
   BYPASS
  </text> </g> 
  <circle cx="-1100" cy="1150" r="10"
    style="fill:none;stroke:#800;stroke-width:2"  />
  <line x1="-1100" y1="650" x2="-800" y2="650" style="stroke:#800;stroke-width:10;stroke-opacity:1.000000;stroke-linecap:round"/>
  <g transform="translate(-1035,644) rotate(0)" > <text font-size="100.0" fill="#800" font-family="monospace"  >
   41
  </text> </g> 
  <g transform="translate(-782,690) rotate(0)" > <text font-size="100.0" fill="#088" font-family="monospace"  >
   LF+
  </text> </g> 
  <circle cx="-1100" cy="650" r="10"
    style="fill:none;stroke:#800;stroke-width:2"  />
  <line x1="1100" y1="850" x2="800" y2="850" style="stroke:#800;stroke-width:10;stroke-opacity:1.000000;stroke-linecap:round"/>
  <g transform="translate(865,844) rotate(0)" > <text font-size="100.0" fill="#800" font-family="monospace"  >
   12
  </text> </g> 
  <g transform="translate(520,890) rotate(0)" > <text font-size="100.0" fill="#088" font-family="monospace"  >
   VEE3
  </text> </g> 
  <circle cx="1100" cy="850" r="10"
    style="fill:none;stroke:#800;stroke-width:2"  />
  <line x1="-1100" y1="50" x2="-800" y2="50" style="stroke:#800;stroke-width:10;stroke-opacity:1.000000;stroke-linecap:round"/>
  <g transform="translate(-1035,44) rotate(0)" > <text font-size="100.0" fill="#800" font-family="monospace"  >
   22
  </text> </g> 
  <g transform="translate(-782,90) rotate(0)" > <text font-size="100.0" fill="#088" font-family="monospace"  >
   R_SET0
  </text> </g> 
  <circle cx="-1100" cy="50" r="10"
    style="fill:none;stroke:#800;stroke-width:2"  />
  <line x1="-1100" y1="1250" x2="-800" y2="1250" style="stroke:#800;stroke-width:10;stroke-opacity:1.000000;stroke-linecap:round"/>
  <g transform="translate(-1035,1244) rotate(0)" > <text font-size="100.0" fill="#800" font-family="monospace"  >
   32
  </text> </g> 
  <g transform="translate(-782,1290) rotate(0)" > <text font-size="100.0" fill="#088" font-family="monospace"  >
   AUTO/MAN
  </text> </g> 
  <circle cx="-1100" cy="1250" r="10"
    style="fill:none;stroke:#800;stroke-width:2"  />
  <line x1="-1100" y1="750" x2="-800" y2="750" style="stroke:#800;stroke-width:10;stroke-opacity:1.000000;stroke-linecap:round"/>
  <g transform="translate(-1035,744) rotate(0)" > <text font-size="100.0" fill="#800" font-family="monospace"  >
   42
  </text> </g> 
  <g transform="translate(-782,790) rotate(0)" > <text font-size="100.0" fill="#088" font-family="monospace"  >
   LF-
  </text> </g> 
  <circle cx="-1100" cy="750" r="10"
    style="fill:none;stroke:#800;stroke-width:2"  />
  <line x1="1100" y1="550" x2="800" y2="550" style="stroke:#800;stroke-width:10;stroke-opacity:1.000000;stroke-linecap:round"/>
  <g transform="translate(865,544) rotate(0)" > <text font-size="100.0" fill="#800" font-family="monospace"  >
   13
  </text> </g> 
  <g transform="translate(520,590) rotate(0)" > <text font-size="100.0" fill="#088" font-family="monospace"  >
   VCC3
  </text> </g> 
  <circle cx="1100" cy="550" r="10"
    style="fill:none;stroke:#800;stroke-width:2"  />
  <line x1="1100" y1="1150" x2="800" y2="1150" style="stroke:#800;stroke-width:10;stroke-opacity:1.000000;stroke-linecap:round"/>
  <g transform="translate(865,1144) rotate(0)" > <text font-size="100.0" fill="#800" font-family="monospace"  >
   23
  </text> </g> 
  <g transform="translate(580,1190) rotate(0)" > <text font-size="100.0" fill="#088" font-family="monospace"  >
   VEE
  </text> </g> 
  <circle cx="1100" cy="1150" r="10"
    style="fill:none;stroke:#800;stroke-width:2"  />
  <line x1="-1100" y1="1350" x2="-800" y2="1350" style="stroke:#800;stroke-width:10;stroke-opacity:1.000000;stroke-linecap:round"/>
  <g transform="translate(-1035,1344) rotate(0)" > <text font-size="100.0" fill="#800" font-family="monospace"  >
   33
  </text> </g> 
  <g transform="translate(-782,1390) rotate(0)" > <text font-size="100.0" fill="#088" font-family="monospace"  >
   RESET
  </text> </g> 
  <circle cx="-1100" cy="1350" r="10"
    style="fill:none;stroke:#800;stroke-width:2"  />
  <line x1="1100" y1="1650" x2="800" y2="1650" style="stroke:#800;stroke-width:10;stroke-opacity:1.000000;stroke-linecap:round"/>
  <g transform="translate(865,1644) rotate(0)" > <text font-size="100.0" fill="#800" font-family="monospace"  >
   43
  </text> </g> 
  <g transform="translate(580,1690) rotate(0)" > <text font-size="100.0" fill="#088" font-family="monospace"  >
   VEE
  </text> </g> 
  <circle cx="1100" cy="1650" r="10"
    style="fill:none;stroke:#800;stroke-width:2"  />
  <line x1="-1100" y1="950" x2="-800" y2="950" style="stroke:#800;stroke-width:10;stroke-opacity:1.000000;stroke-linecap:round"/>
  <g transform="translate(-1035,944) rotate(0)" > <text font-size="100.0" fill="#800" font-family="monospace"  >
   14
  </text> </g> 
  <g transform="translate(-782,990) rotate(0)" > <text font-size="100.0" fill="#088" font-family="monospace"  >
   C_OSC
  </text> </g> 
  <circle cx="-1100" cy="950" r="10"
    style="fill:none;stroke:#800;stroke-width:2"  />
  <line x1="1100" y1="-1550" x2="870" y2="-1550" style="stroke:#800;stroke-width:10;stroke-opacity:1.000000;stroke-linecap:round"/>
  <circle cx="835" cy="-1550" r="35"
    style="fill:none;stroke:#800;stroke-width:10"  />
  <g transform="translate(865,-1556) rotate(0)" > <text font-size="100.0" fill="#800" font-family="monospace"  >
   24
  </text> </g> 
  <g transform="translate(520,-1510) rotate(0)" > <text font-size="100.0" fill="#088" font-family="monospace"  >
   SDO0
  </text> </g> 
  <circle cx="1100" cy="-1550" r="10"
    style="fill:none;stroke:#800;stroke-width:2"  />
  <line x1="1100" y1="-650" x2="800" y2="-650" style="stroke:#800;stroke-width:10;stroke-opacity:1.000000;stroke-linecap:round"/>
  <g transform="translate(865,-656) rotate(0)" > <text font-size="100.0" fill="#800" font-family="monospace"  >
   34
  </text> </g> 
  <g transform="translate(520,-610) rotate(0)" > <text font-size="100.0" fill="#088" font-family="monospace"  >
   VCC1
  </text> </g> 
  <circle cx="1100" cy="-650" r="10"
    style="fill:none;stroke:#800;stroke-width:2"  />
  <line x1="-1100" y1="1650" x2="-800" y2="1650" style="stroke:#800;stroke-width:10;stroke-opacity:1.000000;stroke-linecap:round"/>
  <g transform="translate(-1035,1644) rotate(0)" > <text font-size="100.0" fill="#800" font-family="monospace"  >
   44
  </text> </g> 
  <g transform="translate(-782,1690) rotate(0)" > <text font-size="100.0" fill="#088" font-family="monospace"  >
   SYNC_DIS
  </text> </g> 
  <circle cx="-1100" cy="1650" r="10"
    style="fill:none;stroke:#800;stroke-width:2"  />
  <line x1="-1100" y1="-150" x2="-800" y2="-150" style="stroke:#800;stroke-width:10;stroke-opacity:1.000000;stroke-linecap:round"/>
  <g transform="translate(-1035,-156) rotate(0)" > <text font-size="100.0" fill="#800" font-family="monospace"  >
   15
  </text> </g> 
  <g transform="translate(-782,-110) rotate(0)" > <text font-size="100.0" fill="#088" font-family="monospace"  >
   SS2
  </text> </g> 
  <circle cx="-1100" cy="-150" r="10"
    style="fill:none;stroke:#800;stroke-width:2"  />
  <line x1="1100" y1="-1650" x2="800" y2="-1650" style="stroke:#800;stroke-width:10;stroke-opacity:1.000000;stroke-linecap:round"/>
  <g transform="translate(865,-1656) rotate(0)" > <text font-size="100.0" fill="#800" font-family="monospace"  >
   25
  </text> </g> 
  <g transform="translate(520,-1610) rotate(0)" > <text font-size="100.0" fill="#088" font-family="monospace"  >
   SDO0
  </text> </g> 
  <circle cx="1100" cy="-1650" r="10"
    style="fill:none;stroke:#800;stroke-width:2"  />
  <line x1="1100" y1="-350" x2="800" y2="-350" style="stroke:#800;stroke-width:10;stroke-opacity:1.000000;stroke-linecap:round"/>
  <g transform="translate(865,-356) rotate(0)" > <text font-size="100.0" fill="#800" font-family="monospace"  >
   35
  </text> </g> 
  <g transform="translate(520,-310) rotate(0)" > <text font-size="100.0" fill="#088" font-family="monospace"  >
   VEE1
  </text> </g> 
  <circle cx="1100" cy="-350" r="10"
    style="fill:none;stroke:#800;stroke-width:2"  />
  <line x1="-1100" y1="-250" x2="-800" y2="-250" style="stroke:#800;stroke-width:10;stroke-opacity:1.000000;stroke-linecap:round"/>
  <g transform="translate(-1035,-256) rotate(0)" > <text font-size="100.0" fill="#800" font-family="monospace"  >
   16
  </text> </g> 
  <g transform="translate(-782,-210) rotate(0)" > <text font-size="100.0" fill="#088" font-family="monospace"  >
   SS1
  </text> </g> 
  <circle cx="-1100" cy="-250" r="10"
    style="fill:none;stroke:#800;stroke-width:2"  />
  <line x1="1100" y1="1250" x2="800" y2="1250" style="stroke:#800;stroke-width:10;stroke-opacity:1.000000;stroke-linecap:round"/>
  <g transform="translate(865,1244) rotate(0)" > <text font-size="100.0" fill="#800" font-family="monospace"  >
   26
  </text> </g> 
  <g transform="translate(580,1290) rotate(0)" > <text font-size="100.0" fill="#088" font-family="monospace"  >
   VEE
  </text> </g> 
  <circle cx="1100" cy="1250" r="10"
    style="fill:none;stroke:#800;stroke-width:2"  />
  <line x1="-1100" y1="350" x2="-800" y2="350" style="stroke:#800;stroke-width:10;stroke-opacity:1.000000;stroke-linecap:round"/>
  <g transform="translate(-1035,344) rotate(0)" > <text font-size="100.0" fill="#800" font-family="monospace"  >
   36
  </text> </g> 
  <g transform="translate(-782,390) rotate(0)" > <text font-size="100.0" fill="#088" font-family="monospace"  >
   R_VCO+
  </text> </g> 
  <circle cx="-1100" cy="350" r="10"
    style="fill:none;stroke:#800;stroke-width:2"  />
  <line x1="1100" y1="-50" x2="800" y2="-50" style="stroke:#800;stroke-width:10;stroke-opacity:1.000000;stroke-linecap:round"/>
  <g transform="translate(865,-56) rotate(0)" > <text font-size="100.0" fill="#800" font-family="monospace"  >
   17
  </text> </g> 
  <g transform="translate(520,-10) rotate(0)" > <text font-size="100.0" fill="#088" font-family="monospace"  >
   VCC2
  </text> </g> 
  <circle cx="1100" cy="-50" r="10"
    style="fill:none;stroke:#800;stroke-width:2"  />
  <line x1="1100" y1="-1250" x2="870" y2="-1250" style="stroke:#800;stroke-width:10;stroke-opacity:1.000000;stroke-linecap:round"/>
  <circle cx="835" cy="-1250" r="35"
    style="fill:none;stroke:#800;stroke-width:10"  />
  <g transform="translate(865,-1256) rotate(0)" > <text font-size="100.0" fill="#800" font-family="monospace"  >
   27
  </text> </g> 
  <g transform="translate(520,-1210) rotate(0)" > <text font-size="100.0" fill="#088" font-family="monospace"  >
   SDO1
  </text> </g> 
  <circle cx="1100" cy="-1250" r="10"
    style="fill:none;stroke:#800;stroke-width:2"  />
  <line x1="-1100" y1="1450" x2="-800" y2="1450" style="stroke:#800;stroke-width:10;stroke-opacity:1.000000;stroke-linecap:round"/>
  <g transform="translate(-1035,1444) rotate(0)" > <text font-size="100.0" fill="#800" font-family="monospace"  >
   37
  </text> </g> 
  <g transform="translate(-782,1490) rotate(0)" > <text font-size="100.0" fill="#088" font-family="monospace"  >
   C_BG
  </text> </g> 
  <circle cx="-1100" cy="1450" r="10"
    style="fill:none;stroke:#800;stroke-width:2"  />
  <line x1="1100" y1="250" x2="800" y2="250" style="stroke:#800;stroke-width:10;stroke-opacity:1.000000;stroke-linecap:round"/>
  <g transform="translate(865,244) rotate(0)" > <text font-size="100.0" fill="#800" font-family="monospace"  >
   18
  </text> </g> 
  <g transform="translate(520,290) rotate(0)" > <text font-size="100.0" fill="#088" font-family="monospace"  >
   VEE2
  </text> </g> 
  <circle cx="1100" cy="250" r="10"
    style="fill:none;stroke:#800;stroke-width:2"  />
  <line x1="1100" y1="-1350" x2="800" y2="-1350" style="stroke:#800;stroke-width:10;stroke-opacity:1.000000;stroke-linecap:round"/>
  <g transform="translate(865,-1356) rotate(0)" > <text font-size="100.0" fill="#800" font-family="monospace"  >
   28
  </text> </g> 
  <g transform="translate(520,-1310) rotate(0)" > <text font-size="100.0" fill="#088" font-family="monospace"  >
   SDO1
  </text> </g> 
  <circle cx="1100" cy="-1350" r="10"
    style="fill:none;stroke:#800;stroke-width:2"  />
  <line x1="-1100" y1="450" x2="-800" y2="450" style="stroke:#800;stroke-width:10;stroke-opacity:1.000000;stroke-linecap:round"/>
  <g transform="translate(-1035,444) rotate(0)" > <text font-size="100.0" fill="#800" font-family="monospace"  >
   38
  </text> </g> 
  <g transform="translate(-782,490) rotate(0)" > <text font-size="100.0" fill="#088" font-family="monospace"  >
   R_VCO-
  </text> </g> 
  <circle cx="-1100" cy="450" r="10"
    style="fill:none;stroke:#800;stroke-width:2"  />
  <line x1="-1100" y1="1050" x2="-800" y2="1050" style="stroke:#800;stroke-width:10;stroke-opacity:1.000000;stroke-linecap:round"/>
  <g transform="translate(-1035,1044) rotate(0)" > <text font-size="100.0" fill="#800" font-family="monospace"  >
   19
  </text> </g> 
  <g transform="translate(-782,1090) rotate(0)" > <text font-size="100.0" fill="#088" font-family="monospace"  >
   SDO1_ENABLE
  </text> </g> 
  <circle cx="-1100" cy="1050" r="10"
    style="fill:none;stroke:#800;stroke-width:2"  />
  <line x1="1100" y1="1350" x2="800" y2="1350" style="stroke:#800;stroke-width:10;stroke-opacity:1.000000;stroke-linecap:round"/>
  <g transform="translate(865,1344) rotate(0)" > <text font-size="100.0" fill="#800" font-family="monospace"  >
   29
  </text> </g> 
  <g transform="translate(580,1390) rotate(0)" > <text font-size="100.0" fill="#088" font-family="monospace"  >
   VEE
  </text> </g> 
  <circle cx="1100" cy="1350" r="10"
    style="fill:none;stroke:#800;stroke-width:2"  />
  <line x1="1100" y1="1550" x2="800" y2="1550" style="stroke:#800;stroke-width:10;stroke-opacity:1.000000;stroke-linecap:round"/>
  <g transform="translate(865,1544) rotate(0)" > <text font-size="100.0" fill="#800" font-family="monospace"  >
   39
  </text> </g> 
  <g transform="translate(580,1590) rotate(0)" > <text font-size="100.0" fill="#088" font-family="monospace"  >
   VEE
  </text> </g> 
  <circle cx="1100" cy="1550" r="10"
    style="fill:none;stroke:#800;stroke-width:2"  />
 </g>
</svg>
