<?xml version="1.0"?>
<svg height="289" width="250"  >
 <g style="fill-opacity:1.0; stroke:black;
  stroke-width:1;" transform=" translate( 125.0,144.75 ) scale( 0.15,0.15 )">
  <g transform="translate(170,-470) rotate(0)" > <text font-size="100.0" fill="#088" font-family="monospace"  >
   U
  </text> </g> 
  <g transform="translate(150,530) rotate(0)" > <text font-size="100.0" fill="#088" font-family="monospace"  >
   74147
  </text> </g> 
  <rect x="-300" y="-450" height="900"
    width="600" style="fill:none;stroke:#800;stroke-width:10" />
  <g transform="translate(-200,-125) rotate(0)" > <text font-size="83.3333333333" fill="#800" font-family="monospace"  >
   HPRI/BCD
  </text> </g> 
  <g transform="translate(-12,-425) rotate(-90)" > <text font-size="83.3333333333" fill="#888" font-family="monospace"  >
   16
  </text> </g> 
  <g transform="translate(6,-258) rotate(-90)" > <text font-size="83.3333333333" fill="#888" font-family="monospace"  >
   VCC
  </text> </g> 
  <circle cx="0" cy="-450" r="10"
    style="fill:none;stroke:#888;stroke-width:2"  />
  <line x1="600" y1="300" x2="370" y2="300" style="stroke:#800;stroke-width:10;stroke-opacity:1.000000;stroke-linecap:round"/>
  <circle cx="335" cy="300" r="35"
    style="fill:none;stroke:#800;stroke-width:10"  />
  <g transform="translate(379,294) rotate(0)" > <text font-size="83.3333333333" fill="#800" font-family="monospace"  >
   14
  </text> </g> 
  <g transform="translate(160,335) rotate(0)" > <text font-size="83.3333333333" fill="#088" font-family="monospace"  >
   S3
  </text> </g> 
  <circle cx="600" cy="300" r="10"
    style="fill:none;stroke:#800;stroke-width:2"  />
  <line x1="600" y1="100" x2="370" y2="100" style="stroke:#800;stroke-width:10;stroke-opacity:1.000000;stroke-linecap:round"/>
  <circle cx="335" cy="100" r="35"
    style="fill:none;stroke:#800;stroke-width:10"  />
  <g transform="translate(414,94) rotate(0)" > <text font-size="83.3333333333" fill="#800" font-family="monospace"  >
   6
  </text> </g> 
  <g transform="translate(160,135) rotate(0)" > <text font-size="83.3333333333" fill="#088" font-family="monospace"  >
   S2
  </text> </g> 
  <circle cx="600" cy="100" r="10"
    style="fill:none;stroke:#800;stroke-width:2"  />
  <line x1="600" y1="-100" x2="370" y2="-100" style="stroke:#800;stroke-width:10;stroke-opacity:1.000000;stroke-linecap:round"/>
  <circle cx="335" cy="-100" r="35"
    style="fill:none;stroke:#800;stroke-width:10"  />
  <g transform="translate(414,-106) rotate(0)" > <text font-size="83.3333333333" fill="#800" font-family="monospace"  >
   7
  </text> </g> 
  <g transform="translate(160,-65) rotate(0)" > <text font-size="83.3333333333" fill="#088" font-family="monospace"  >
   S1
  </text> </g> 
  <circle cx="600" cy="-100" r="10"
    style="fill:none;stroke:#800;stroke-width:2"  />
  <line x1="600" y1="-300" x2="370" y2="-300" style="stroke:#800;stroke-width:10;stroke-opacity:1.000000;stroke-linecap:round"/>
  <circle cx="335" cy="-300" r="35"
    style="fill:none;stroke:#800;stroke-width:10"  />
  <g transform="translate(414,-306) rotate(0)" > <text font-size="83.3333333333" fill="#800" font-family="monospace"  >
   9
  </text> </g> 
  <g transform="translate(160,-265) rotate(0)" > <text font-size="83.3333333333" fill="#088" font-family="monospace"  >
   S0
  </text> </g> 
  <circle cx="600" cy="-300" r="10"
    style="fill:none;stroke:#800;stroke-width:2"  />
  <line x1="-600" y1="400" x2="-370" y2="400" style="stroke:#800;stroke-width:10;stroke-opacity:1.000000;stroke-linecap:round"/>
  <circle cx="-335" cy="400" r="35"
    style="fill:none;stroke:#800;stroke-width:10"  />
  <g transform="translate(-520,394) rotate(0)" > <text font-size="83.3333333333" fill="#800" font-family="monospace"  >
   10
  </text> </g> 
  <g transform="translate(-282,435) rotate(0)" > <text font-size="83.3333333333" fill="#088" font-family="monospace"  >
   E9
  </text> </g> 
  <circle cx="-600" cy="400" r="10"
    style="fill:none;stroke:#800;stroke-width:2"  />
  <line x1="-600" y1="300" x2="-370" y2="300" style="stroke:#800;stroke-width:10;stroke-opacity:1.000000;stroke-linecap:round"/>
  <circle cx="-335" cy="300" r="35"
    style="fill:none;stroke:#800;stroke-width:10"  />
  <g transform="translate(-485,294) rotate(0)" > <text font-size="83.3333333333" fill="#800" font-family="monospace"  >
   5
  </text> </g> 
  <g transform="translate(-282,335) rotate(0)" > <text font-size="83.3333333333" fill="#088" font-family="monospace"  >
   E8
  </text> </g> 
  <circle cx="-600" cy="300" r="10"
    style="fill:none;stroke:#800;stroke-width:2"  />
  <line x1="-600" y1="200" x2="-370" y2="200" style="stroke:#800;stroke-width:10;stroke-opacity:1.000000;stroke-linecap:round"/>
  <circle cx="-335" cy="200" r="35"
    style="fill:none;stroke:#800;stroke-width:10"  />
  <g transform="translate(-485,194) rotate(0)" > <text font-size="83.3333333333" fill="#800" font-family="monospace"  >
   4
  </text> </g> 
  <g transform="translate(-282,235) rotate(0)" > <text font-size="83.3333333333" fill="#088" font-family="monospace"  >
   E7
  </text> </g> 
  <circle cx="-600" cy="200" r="10"
    style="fill:none;stroke:#800;stroke-width:2"  />
  <line x1="-600" y1="100" x2="-370" y2="100" style="stroke:#800;stroke-width:10;stroke-opacity:1.000000;stroke-linecap:round"/>
  <circle cx="-335" cy="100" r="35"
    style="fill:none;stroke:#800;stroke-width:10"  />
  <g transform="translate(-485,94) rotate(0)" > <text font-size="83.3333333333" fill="#800" font-family="monospace"  >
   3
  </text> </g> 
  <g transform="translate(-282,135) rotate(0)" > <text font-size="83.3333333333" fill="#088" font-family="monospace"  >
   E6
  </text> </g> 
  <circle cx="-600" cy="100" r="10"
    style="fill:none;stroke:#800;stroke-width:2"  />
  <line x1="-600" y1="0" x2="-370" y2="0" style="stroke:#800;stroke-width:10;stroke-opacity:1.000000;stroke-linecap:round"/>
  <circle cx="-335" cy="0" r="35"
    style="fill:none;stroke:#800;stroke-width:10"  />
  <g transform="translate(-485,-6) rotate(0)" > <text font-size="83.3333333333" fill="#800" font-family="monospace"  >
   2
  </text> </g> 
  <g transform="translate(-282,35) rotate(0)" > <text font-size="83.3333333333" fill="#088" font-family="monospace"  >
   E5
  </text> </g> 
  <circle cx="-600" cy="0" r="10"
    style="fill:none;stroke:#800;stroke-width:2"  />
  <line x1="-600" y1="-100" x2="-370" y2="-100" style="stroke:#800;stroke-width:10;stroke-opacity:1.000000;stroke-linecap:round"/>
  <circle cx="-335" cy="-100" r="35"
    style="fill:none;stroke:#800;stroke-width:10"  />
  <g transform="translate(-485,-106) rotate(0)" > <text font-size="83.3333333333" fill="#800" font-family="monospace"  >
   1
  </text> </g> 
  <g transform="translate(-282,-65) rotate(0)" > <text font-size="83.3333333333" fill="#088" font-family="monospace"  >
   E4
  </text> </g> 
  <circle cx="-600" cy="-100" r="10"
    style="fill:none;stroke:#800;stroke-width:2"  />
  <line x1="-600" y1="-200" x2="-370" y2="-200" style="stroke:#800;stroke-width:10;stroke-opacity:1.000000;stroke-linecap:round"/>
  <circle cx="-335" cy="-200" r="35"
    style="fill:none;stroke:#800;stroke-width:10"  />
  <g transform="translate(-520,-206) rotate(0)" > <text font-size="83.3333333333" fill="#800" font-family="monospace"  >
   13
  </text> </g> 
  <g transform="translate(-282,-165) rotate(0)" > <text font-size="83.3333333333" fill="#088" font-family="monospace"  >
   E3
  </text> </g> 
  <circle cx="-600" cy="-200" r="10"
    style="fill:none;stroke:#800;stroke-width:2"  />
  <line x1="-600" y1="-300" x2="-370" y2="-300" style="stroke:#800;stroke-width:10;stroke-opacity:1.000000;stroke-linecap:round"/>
  <circle cx="-335" cy="-300" r="35"
    style="fill:none;stroke:#800;stroke-width:10"  />
  <g transform="translate(-520,-306) rotate(0)" > <text font-size="83.3333333333" fill="#800" font-family="monospace"  >
   12
  </text> </g> 
  <g transform="translate(-282,-265) rotate(0)" > <text font-size="83.3333333333" fill="#088" font-family="monospace"  >
   E2
  </text> </g> 
  <circle cx="-600" cy="-300" r="10"
    style="fill:none;stroke:#800;stroke-width:2"  />
  <line x1="-600" y1="-400" x2="-370" y2="-400" style="stroke:#800;stroke-width:10;stroke-opacity:1.000000;stroke-linecap:round"/>
  <circle cx="-335" cy="-400" r="35"
    style="fill:none;stroke:#800;stroke-width:10"  />
  <g transform="translate(-520,-406) rotate(0)" > <text font-size="83.3333333333" fill="#800" font-family="monospace"  >
   11
  </text> </g> 
  <g transform="translate(-282,-365) rotate(0)" > <text font-size="83.3333333333" fill="#088" font-family="monospace"  >
   E1
  </text> </g> 
  <circle cx="-600" cy="-400" r="10"
    style="fill:none;stroke:#800;stroke-width:2"  />
  <g transform="translate(-12,462) rotate(-90)" > <text font-size="83.3333333333" fill="#888" font-family="monospace"  >
   8
  </text> </g> 
  <g transform="translate(6,408) rotate(-90)" > <text font-size="83.3333333333" fill="#888" font-family="monospace"  >
   GND
  </text> </g> 
  <circle cx="0" cy="450" r="10"
    style="fill:none;stroke:#888;stroke-width:2"  />
 </g>
</svg>
