<?xml version="1.0"?>
<svg height="317" width="265"  >
 <g style="fill-opacity:1.0; stroke:black;
  stroke-width:1;" transform=" translate( 132.625,158.5 ) scale( 0.15,0.15 )">
  <g transform="translate(270,-370) rotate(0)" > <text font-size="100.0" fill="#088" font-family="monospace"  >
   U
  </text> </g> 
  <g transform="translate(100,680) rotate(0)" > <text font-size="100.0" fill="#088" font-family="monospace"  >
   74157
  </text> </g> 
  <rect x="-250" y="400" height="200"
    width="500" style="fill:none;stroke:#800;stroke-width:10" />
  <rect x="-250" y="200" height="200"
    width="500" style="fill:none;stroke:#800;stroke-width:10" />
  <rect x="-250" y="0" height="200"
    width="500" style="fill:none;stroke:#800;stroke-width:10" />
  <rect x="-250" y="-200" height="200"
    width="500" style="fill:none;stroke:#800;stroke-width:10" />
  <line x1="-200" y1="-200" x2="-200" y2="-250" style="stroke:#800;stroke-width:10;stroke-opacity:1.000000;stroke-linecap:round"/>
  <line x1="-200" y1="-250" x2="-250" y2="-250" style="stroke:#800;stroke-width:10;stroke-opacity:1.000000;stroke-linecap:round"/>
  <line x1="-250" y1="-250" x2="-250" y2="-500" style="stroke:#800;stroke-width:10;stroke-opacity:1.000000;stroke-linecap:round"/>
  <line x1="-250" y1="-500" x2="250" y2="-500" style="stroke:#800;stroke-width:10;stroke-opacity:1.000000;stroke-linecap:round"/>
  <line x1="250" y1="-500" x2="250" y2="-250" style="stroke:#800;stroke-width:10;stroke-opacity:1.000000;stroke-linecap:round"/>
  <line x1="250" y1="-250" x2="200" y2="-250" style="stroke:#800;stroke-width:10;stroke-opacity:1.000000;stroke-linecap:round"/>
  <line x1="200" y1="-250" x2="200" y2="-200" style="stroke:#800;stroke-width:10;stroke-opacity:1.000000;stroke-linecap:round"/>
  <line x1="200" y1="-200" x2="200" y2="-200" style="stroke:#800;stroke-width:10;stroke-opacity:1.000000;stroke-linecap:round"/>
  <g transform="translate(-90,-70) rotate(0)" > <text font-size="100.0" fill="#800" font-family="monospace"  >
   MUX
  </text> </g> 
  <g transform="translate(-12,-487) rotate(-90)" > <text font-size="83.3333333333" fill="#888" font-family="monospace"  >
   8
  </text> </g> 
  <g transform="translate(6,-308) rotate(-90)" > <text font-size="83.3333333333" fill="#888" font-family="monospace"  >
   GND
  </text> </g> 
  <circle cx="0" cy="-500" r="10"
    style="fill:none;stroke:#888;stroke-width:2"  />
  <g transform="translate(137,-475) rotate(-90)" > <text font-size="83.3333333333" fill="#888" font-family="monospace"  >
   16
  </text> </g> 
  <g transform="translate(156,-308) rotate(-90)" > <text font-size="83.3333333333" fill="#888" font-family="monospace"  >
   VCC
  </text> </g> 
  <circle cx="150" cy="-500" r="10"
    style="fill:none;stroke:#888;stroke-width:2"  />
  <line x1="550" y1="500" x2="250" y2="500" style="stroke:#800;stroke-width:10;stroke-opacity:1.000000;stroke-linecap:round"/>
  <g transform="translate(364,494) rotate(0)" > <text font-size="83.3333333333" fill="#800" font-family="monospace"  >
   9
  </text> </g> 
  <g transform="translate(110,535) rotate(0)" > <text font-size="83.3333333333" fill="#088" font-family="monospace"  >
   Qd
  </text> </g> 
  <circle cx="550" cy="500" r="10"
    style="fill:none;stroke:#800;stroke-width:2"  />
  <line x1="550" y1="300" x2="250" y2="300" style="stroke:#800;stroke-width:10;stroke-opacity:1.000000;stroke-linecap:round"/>
  <g transform="translate(329,294) rotate(0)" > <text font-size="83.3333333333" fill="#800" font-family="monospace"  >
   12
  </text> </g> 
  <g transform="translate(110,335) rotate(0)" > <text font-size="83.3333333333" fill="#088" font-family="monospace"  >
   Qc
  </text> </g> 
  <circle cx="550" cy="300" r="10"
    style="fill:none;stroke:#800;stroke-width:2"  />
  <line x1="550" y1="100" x2="250" y2="100" style="stroke:#800;stroke-width:10;stroke-opacity:1.000000;stroke-linecap:round"/>
  <g transform="translate(364,94) rotate(0)" > <text font-size="83.3333333333" fill="#800" font-family="monospace"  >
   7
  </text> </g> 
  <g transform="translate(110,135) rotate(0)" > <text font-size="83.3333333333" fill="#088" font-family="monospace"  >
   Qb
  </text> </g> 
  <circle cx="550" cy="100" r="10"
    style="fill:none;stroke:#800;stroke-width:2"  />
  <line x1="550" y1="-100" x2="250" y2="-100" style="stroke:#800;stroke-width:10;stroke-opacity:1.000000;stroke-linecap:round"/>
  <g transform="translate(364,-106) rotate(0)" > <text font-size="83.3333333333" fill="#800" font-family="monospace"  >
   4
  </text> </g> 
  <g transform="translate(110,-65) rotate(0)" > <text font-size="83.3333333333" fill="#088" font-family="monospace"  >
   Qa
  </text> </g> 
  <circle cx="550" cy="-100" r="10"
    style="fill:none;stroke:#800;stroke-width:2"  />
  <line x1="-550" y1="550" x2="-250" y2="550" style="stroke:#800;stroke-width:10;stroke-opacity:1.000000;stroke-linecap:round"/>
  <g transform="translate(-470,544) rotate(0)" > <text font-size="83.3333333333" fill="#800" font-family="monospace"  >
   10
  </text> </g> 
  <g transform="translate(-232,585) rotate(0)" > <text font-size="83.3333333333" fill="#088" font-family="monospace"  >
   I1d
  </text> </g> 
  <circle cx="-550" cy="550" r="10"
    style="fill:none;stroke:#800;stroke-width:2"  />
  <line x1="-550" y1="450" x2="-250" y2="450" style="stroke:#800;stroke-width:10;stroke-opacity:1.000000;stroke-linecap:round"/>
  <g transform="translate(-470,444) rotate(0)" > <text font-size="83.3333333333" fill="#800" font-family="monospace"  >
   11
  </text> </g> 
  <g transform="translate(-232,485) rotate(0)" > <text font-size="83.3333333333" fill="#088" font-family="monospace"  >
   I0d
  </text> </g> 
  <circle cx="-550" cy="450" r="10"
    style="fill:none;stroke:#800;stroke-width:2"  />
  <line x1="-550" y1="350" x2="-250" y2="350" style="stroke:#800;stroke-width:10;stroke-opacity:1.000000;stroke-linecap:round"/>
  <g transform="translate(-470,344) rotate(0)" > <text font-size="83.3333333333" fill="#800" font-family="monospace"  >
   13
  </text> </g> 
  <g transform="translate(-232,385) rotate(0)" > <text font-size="83.3333333333" fill="#088" font-family="monospace"  >
   I1c
  </text> </g> 
  <circle cx="-550" cy="350" r="10"
    style="fill:none;stroke:#800;stroke-width:2"  />
  <line x1="-550" y1="250" x2="-250" y2="250" style="stroke:#800;stroke-width:10;stroke-opacity:1.000000;stroke-linecap:round"/>
  <g transform="translate(-470,244) rotate(0)" > <text font-size="83.3333333333" fill="#800" font-family="monospace"  >
   14
  </text> </g> 
  <g transform="translate(-232,285) rotate(0)" > <text font-size="83.3333333333" fill="#088" font-family="monospace"  >
   I0c
  </text> </g> 
  <circle cx="-550" cy="250" r="10"
    style="fill:none;stroke:#800;stroke-width:2"  />
  <line x1="-550" y1="150" x2="-250" y2="150" style="stroke:#800;stroke-width:10;stroke-opacity:1.000000;stroke-linecap:round"/>
  <g transform="translate(-435,144) rotate(0)" > <text font-size="83.3333333333" fill="#800" font-family="monospace"  >
   6
  </text> </g> 
  <g transform="translate(-232,185) rotate(0)" > <text font-size="83.3333333333" fill="#088" font-family="monospace"  >
   I1b
  </text> </g> 
  <circle cx="-550" cy="150" r="10"
    style="fill:none;stroke:#800;stroke-width:2"  />
  <line x1="-550" y1="50" x2="-250" y2="50" style="stroke:#800;stroke-width:10;stroke-opacity:1.000000;stroke-linecap:round"/>
  <g transform="translate(-435,44) rotate(0)" > <text font-size="83.3333333333" fill="#800" font-family="monospace"  >
   5
  </text> </g> 
  <g transform="translate(-232,85) rotate(0)" > <text font-size="83.3333333333" fill="#088" font-family="monospace"  >
   I0b
  </text> </g> 
  <circle cx="-550" cy="50" r="10"
    style="fill:none;stroke:#800;stroke-width:2"  />
  <line x1="-550" y1="-50" x2="-250" y2="-50" style="stroke:#800;stroke-width:10;stroke-opacity:1.000000;stroke-linecap:round"/>
  <g transform="translate(-435,-56) rotate(0)" > <text font-size="83.3333333333" fill="#800" font-family="monospace"  >
   3
  </text> </g> 
  <g transform="translate(-232,-15) rotate(0)" > <text font-size="83.3333333333" fill="#088" font-family="monospace"  >
   I1a
  </text> </g> 
  <circle cx="-550" cy="-50" r="10"
    style="fill:none;stroke:#800;stroke-width:2"  />
  <line x1="-550" y1="-150" x2="-250" y2="-150" style="stroke:#800;stroke-width:10;stroke-opacity:1.000000;stroke-linecap:round"/>
  <g transform="translate(-435,-156) rotate(0)" > <text font-size="83.3333333333" fill="#800" font-family="monospace"  >
   2
  </text> </g> 
  <g transform="translate(-232,-115) rotate(0)" > <text font-size="83.3333333333" fill="#088" font-family="monospace"  >
   I0a
  </text> </g> 
  <circle cx="-550" cy="-150" r="10"
    style="fill:none;stroke:#800;stroke-width:2"  />
  <line x1="-550" y1="-300" x2="-250" y2="-300" style="stroke:#800;stroke-width:10;stroke-opacity:1.000000;stroke-linecap:round"/>
  <g transform="translate(-435,-306) rotate(0)" > <text font-size="83.3333333333" fill="#800" font-family="monospace"  >
   1
  </text> </g> 
  <g transform="translate(-232,-265) rotate(0)" > <text font-size="83.3333333333" fill="#088" font-family="monospace"  >
   A/B
  </text> </g> 
  <circle cx="-550" cy="-300" r="10"
    style="fill:none;stroke:#800;stroke-width:2"  />
  <line x1="-550" y1="-400" x2="-320" y2="-400" style="stroke:#800;stroke-width:10;stroke-opacity:1.000000;stroke-linecap:round"/>
  <circle cx="-285" cy="-400" r="35"
    style="fill:none;stroke:#800;stroke-width:10"  />
  <g transform="translate(-470,-406) rotate(0)" > <text font-size="83.3333333333" fill="#800" font-family="monospace"  >
   15
  </text> </g> 
  <g transform="translate(-232,-365) rotate(0)" > <text font-size="83.3333333333" fill="#088" font-family="monospace"  >
   ~EN
  </text> </g> 
  <circle cx="-550" cy="-400" r="10"
    style="fill:none;stroke:#800;stroke-width:2"  />
 </g>
</svg>
