<?xml version="1.0"?>
<svg height="342" width="277"  >
 <g style="fill-opacity:1.0; stroke:black;
  stroke-width:1;" transform=" translate( 138.875,171.0 ) scale( 0.15,0.15 )">
  <g transform="translate(320,-220) rotate(0)" > <text font-size="100.0" fill="#088" font-family="monospace"  >
   U
  </text> </g> 
  <g transform="translate(100,930) rotate(0)" > <text font-size="100.0" fill="#088" font-family="monospace"  >
   74164
  </text> </g> 
  <rect x="-250" y="150" height="100"
    width="500" style="fill:none;stroke:#800;stroke-width:10" />
  <line x1="-100" y1="-50" x2="-100" y2="150" style="stroke:#800;stroke-width:10;stroke-opacity:1.000000;stroke-linecap:round"/>
  <line x1="-100" y1="150" x2="-100" y2="150" style="stroke:#800;stroke-width:10;stroke-opacity:1.000000;stroke-linecap:round"/>
  <rect x="-250" y="550" height="100"
    width="500" style="fill:none;stroke:#800;stroke-width:10" />
  <line x1="-200" y1="-50" x2="-200" y2="-100" style="stroke:#800;stroke-width:10;stroke-opacity:1.000000;stroke-linecap:round"/>
  <line x1="-200" y1="-100" x2="-250" y2="-100" style="stroke:#800;stroke-width:10;stroke-opacity:1.000000;stroke-linecap:round"/>
  <line x1="-250" y1="-100" x2="-250" y2="-350" style="stroke:#800;stroke-width:10;stroke-opacity:1.000000;stroke-linecap:round"/>
  <line x1="-250" y1="-350" x2="250" y2="-350" style="stroke:#800;stroke-width:10;stroke-opacity:1.000000;stroke-linecap:round"/>
  <line x1="250" y1="-350" x2="250" y2="-100" style="stroke:#800;stroke-width:10;stroke-opacity:1.000000;stroke-linecap:round"/>
  <line x1="250" y1="-100" x2="200" y2="-100" style="stroke:#800;stroke-width:10;stroke-opacity:1.000000;stroke-linecap:round"/>
  <line x1="200" y1="-100" x2="200" y2="-50" style="stroke:#800;stroke-width:10;stroke-opacity:1.000000;stroke-linecap:round"/>
  <line x1="200" y1="-50" x2="200" y2="-50" style="stroke:#800;stroke-width:10;stroke-opacity:1.000000;stroke-linecap:round"/>
  <rect x="-250" y="650" height="100"
    width="500" style="fill:none;stroke:#800;stroke-width:10" />
  <rect x="-250" y="250" height="100"
    width="500" style="fill:none;stroke:#800;stroke-width:10" />
  <rect x="-250" y="350" height="100"
    width="500" style="fill:none;stroke:#800;stroke-width:10" />
  <rect x="-250" y="-50" height="200"
    width="500" style="fill:none;stroke:#800;stroke-width:10" />
  <rect x="-250" y="750" height="100"
    width="500" style="fill:none;stroke:#800;stroke-width:10" />
  <rect x="-250" y="450" height="100"
    width="500" style="fill:none;stroke:#800;stroke-width:10" />
  <g transform="translate(-200,70) rotate(0)" > <text font-size="100.0" fill="#800" font-family="monospace"  >
   &amp;
  </text> </g> 
  <g transform="translate(-12,-337) rotate(-90)" > <text font-size="83.3333333333" fill="#888" font-family="monospace"  >
   7
  </text> </g> 
  <g transform="translate(6,-158) rotate(-90)" > <text font-size="83.3333333333" fill="#888" font-family="monospace"  >
   Vss
  </text> </g> 
  <circle cx="0" cy="-350" r="10"
    style="fill:none;stroke:#888;stroke-width:2"  />
  <g transform="translate(187,-325) rotate(-90)" > <text font-size="83.3333333333" fill="#888" font-family="monospace"  >
   14
  </text> </g> 
  <g transform="translate(206,-158) rotate(-90)" > <text font-size="83.3333333333" fill="#888" font-family="monospace"  >
   Vdd
  </text> </g> 
  <circle cx="200" cy="-350" r="10"
    style="fill:none;stroke:#888;stroke-width:2"  />
  <line x1="550" y1="800" x2="250" y2="800" style="stroke:#800;stroke-width:10;stroke-opacity:1.000000;stroke-linecap:round"/>
  <g transform="translate(329,794) rotate(0)" > <text font-size="83.3333333333" fill="#800" font-family="monospace"  >
   13
  </text> </g> 
  <g transform="translate(110,835) rotate(0)" > <text font-size="83.3333333333" fill="#088" font-family="monospace"  >
   Qh
  </text> </g> 
  <circle cx="550" cy="800" r="10"
    style="fill:none;stroke:#800;stroke-width:2"  />
  <line x1="550" y1="700" x2="250" y2="700" style="stroke:#800;stroke-width:10;stroke-opacity:1.000000;stroke-linecap:round"/>
  <g transform="translate(329,694) rotate(0)" > <text font-size="83.3333333333" fill="#800" font-family="monospace"  >
   12
  </text> </g> 
  <g transform="translate(110,735) rotate(0)" > <text font-size="83.3333333333" fill="#088" font-family="monospace"  >
   Qg
  </text> </g> 
  <circle cx="550" cy="700" r="10"
    style="fill:none;stroke:#800;stroke-width:2"  />
  <line x1="550" y1="600" x2="250" y2="600" style="stroke:#800;stroke-width:10;stroke-opacity:1.000000;stroke-linecap:round"/>
  <g transform="translate(329,594) rotate(0)" > <text font-size="83.3333333333" fill="#800" font-family="monospace"  >
   11
  </text> </g> 
  <g transform="translate(110,635) rotate(0)" > <text font-size="83.3333333333" fill="#088" font-family="monospace"  >
   Qf
  </text> </g> 
  <circle cx="550" cy="600" r="10"
    style="fill:none;stroke:#800;stroke-width:2"  />
  <line x1="550" y1="500" x2="250" y2="500" style="stroke:#800;stroke-width:10;stroke-opacity:1.000000;stroke-linecap:round"/>
  <g transform="translate(329,494) rotate(0)" > <text font-size="83.3333333333" fill="#800" font-family="monospace"  >
   10
  </text> </g> 
  <g transform="translate(110,535) rotate(0)" > <text font-size="83.3333333333" fill="#088" font-family="monospace"  >
   Qe
  </text> </g> 
  <circle cx="550" cy="500" r="10"
    style="fill:none;stroke:#800;stroke-width:2"  />
  <line x1="550" y1="400" x2="250" y2="400" style="stroke:#800;stroke-width:10;stroke-opacity:1.000000;stroke-linecap:round"/>
  <g transform="translate(364,394) rotate(0)" > <text font-size="83.3333333333" fill="#800" font-family="monospace"  >
   6
  </text> </g> 
  <g transform="translate(110,435) rotate(0)" > <text font-size="83.3333333333" fill="#088" font-family="monospace"  >
   Qd
  </text> </g> 
  <circle cx="550" cy="400" r="10"
    style="fill:none;stroke:#800;stroke-width:2"  />
  <line x1="550" y1="300" x2="250" y2="300" style="stroke:#800;stroke-width:10;stroke-opacity:1.000000;stroke-linecap:round"/>
  <g transform="translate(364,294) rotate(0)" > <text font-size="83.3333333333" fill="#800" font-family="monospace"  >
   5
  </text> </g> 
  <g transform="translate(110,335) rotate(0)" > <text font-size="83.3333333333" fill="#088" font-family="monospace"  >
   Qc
  </text> </g> 
  <circle cx="550" cy="300" r="10"
    style="fill:none;stroke:#800;stroke-width:2"  />
  <line x1="550" y1="200" x2="250" y2="200" style="stroke:#800;stroke-width:10;stroke-opacity:1.000000;stroke-linecap:round"/>
  <g transform="translate(364,194) rotate(0)" > <text font-size="83.3333333333" fill="#800" font-family="monospace"  >
   4
  </text> </g> 
  <g transform="translate(110,235) rotate(0)" > <text font-size="83.3333333333" fill="#088" font-family="monospace"  >
   Qb
  </text> </g> 
  <circle cx="550" cy="200" r="10"
    style="fill:none;stroke:#800;stroke-width:2"  />
  <line x1="550" y1="50" x2="250" y2="50" style="stroke:#800;stroke-width:10;stroke-opacity:1.000000;stroke-linecap:round"/>
  <g transform="translate(364,44) rotate(0)" > <text font-size="83.3333333333" fill="#800" font-family="monospace"  >
   3
  </text> </g> 
  <g transform="translate(110,85) rotate(0)" > <text font-size="83.3333333333" fill="#088" font-family="monospace"  >
   Qa
  </text> </g> 
  <circle cx="550" cy="50" r="10"
    style="fill:none;stroke:#800;stroke-width:2"  />
  <line x1="-550" y1="100" x2="-250" y2="100" style="stroke:#800;stroke-width:10;stroke-opacity:1.000000;stroke-linecap:round"/>
  <g transform="translate(-435,94) rotate(0)" > <text font-size="83.3333333333" fill="#800" font-family="monospace"  >
   2
  </text> </g> 
  <g transform="translate(-232,135) rotate(0)" > <text font-size="83.3333333333" fill="#088" font-family="monospace"  >
   B
  </text> </g> 
  <circle cx="-550" cy="100" r="10"
    style="fill:none;stroke:#800;stroke-width:2"  />
  <line x1="-550" y1="0" x2="-250" y2="0" style="stroke:#800;stroke-width:10;stroke-opacity:1.000000;stroke-linecap:round"/>
  <g transform="translate(-435,-6) rotate(0)" > <text font-size="83.3333333333" fill="#800" font-family="monospace"  >
   1
  </text> </g> 
  <g transform="translate(-232,35) rotate(0)" > <text font-size="83.3333333333" fill="#088" font-family="monospace"  >
   A
  </text> </g> 
  <circle cx="-550" cy="0" r="10"
    style="fill:none;stroke:#800;stroke-width:2"  />
  <line x1="-210" y1="-150" x2="-250" y2="-110" style="stroke:#800;stroke-width:10;stroke-opacity:1.000000;stroke-linecap:round"/>
  <line x1="-250" y1="-110" x2="-250" y2="-190" style="stroke:#800;stroke-width:10;stroke-opacity:1.000000;stroke-linecap:round"/>
  <line x1="-250" y1="-190" x2="-210" y2="-150" style="stroke:#800;stroke-width:10;stroke-opacity:1.000000;stroke-linecap:round"/>
  <line x1="-550" y1="-150" x2="-250" y2="-150" style="stroke:#800;stroke-width:10;stroke-opacity:1.000000;stroke-linecap:round"/>
  <g transform="translate(-435,-156) rotate(0)" > <text font-size="83.3333333333" fill="#800" font-family="monospace"  >
   8
  </text> </g> 
  <g transform="translate(-232,-115) rotate(0)" > <text font-size="83.3333333333" fill="#088" font-family="monospace"  >
   CK
  </text> </g> 
  <circle cx="-550" cy="-150" r="10"
    style="fill:none;stroke:#800;stroke-width:2"  />
  <line x1="-550" y1="-250" x2="-320" y2="-250" style="stroke:#800;stroke-width:10;stroke-opacity:1.000000;stroke-linecap:round"/>
  <circle cx="-285" cy="-250" r="35"
    style="fill:none;stroke:#800;stroke-width:10"  />
  <g transform="translate(-435,-256) rotate(0)" > <text font-size="83.3333333333" fill="#800" font-family="monospace"  >
   9
  </text> </g> 
  <g transform="translate(-232,-215) rotate(0)" > <text font-size="83.3333333333" fill="#088" font-family="monospace"  >
   ~R
  </text> </g> 
  <circle cx="-550" cy="-250" r="10"
    style="fill:none;stroke:#800;stroke-width:2"  />
 </g>
</svg>
