<?xml version="1.0"?>
<svg height="247" width="247"  >
 <g style="fill-opacity:1.0; stroke:black;
  stroke-width:1;" transform=" translate( 123.75,123.75 ) scale( 0.15,0.15 )">
  <g transform="translate(270,-320) rotate(0)" > <text font-size="100.0" fill="#088" font-family="monospace"  >
   U
  </text> </g> 
  <g transform="translate(130,380) rotate(0)" > <text font-size="100.0" fill="#088" font-family="monospace"  >
   7491
  </text> </g> 
  <line x1="-100" y1="-300" x2="-100" y2="0" style="stroke:#800;stroke-width:10;stroke-opacity:1.000000;stroke-linecap:round"/>
  <line x1="-100" y1="0" x2="-250" y2="0" style="stroke:#800;stroke-width:10;stroke-opacity:1.000000;stroke-linecap:round"/>
  <line x1="-250" y1="0" x2="-250" y2="0" style="stroke:#800;stroke-width:10;stroke-opacity:1.000000;stroke-linecap:round"/>
  <rect x="-250" y="-300" height="600"
    width="500" style="fill:none;stroke:#800;stroke-width:10" />
  <g transform="translate(-80,-70) rotate(0)" > <text font-size="100.0" fill="#800" font-family="monospace"  >
   D
  </text> </g> 
  <g transform="translate(-20,30) rotate(0)" > <text font-size="100.0" fill="#800" font-family="monospace"  >
   SRG8
  </text> </g> 
  <g transform="translate(-180,-120) rotate(0)" > <text font-size="100.0" fill="#800" font-family="monospace"  >
   &amp;
  </text> </g> 
  <g transform="translate(-12,-287) rotate(-90)" > <text font-size="83.3333333333" fill="#888" font-family="monospace"  >
   5
  </text> </g> 
  <g transform="translate(6,-108) rotate(-90)" > <text font-size="83.3333333333" fill="#888" font-family="monospace"  >
   VCC
  </text> </g> 
  <circle cx="0" cy="-300" r="10"
    style="fill:none;stroke:#888;stroke-width:2"  />
  <line x1="550" y1="100" x2="320" y2="100" style="stroke:#800;stroke-width:10;stroke-opacity:1.000000;stroke-linecap:round"/>
  <circle cx="285" cy="100" r="35"
    style="fill:none;stroke:#800;stroke-width:10"  />
  <g transform="translate(329,94) rotate(0)" > <text font-size="83.3333333333" fill="#800" font-family="monospace"  >
   14
  </text> </g> 
  <g transform="translate(59,135) rotate(0)" > <text font-size="83.3333333333" fill="#088" font-family="monospace"  >
   ~Qh
  </text> </g> 
  <circle cx="550" cy="100" r="10"
    style="fill:none;stroke:#800;stroke-width:2"  />
  <line x1="550" y1="-100" x2="250" y2="-100" style="stroke:#800;stroke-width:10;stroke-opacity:1.000000;stroke-linecap:round"/>
  <g transform="translate(329,-106) rotate(0)" > <text font-size="83.3333333333" fill="#800" font-family="monospace"  >
   13
  </text> </g> 
  <g transform="translate(110,-65) rotate(0)" > <text font-size="83.3333333333" fill="#088" font-family="monospace"  >
   Qh
  </text> </g> 
  <circle cx="550" cy="-100" r="10"
    style="fill:none;stroke:#800;stroke-width:2"  />
  <line x1="-210" y1="100" x2="-250" y2="140" style="stroke:#800;stroke-width:10;stroke-opacity:1.000000;stroke-linecap:round"/>
  <line x1="-250" y1="140" x2="-250" y2="60" style="stroke:#800;stroke-width:10;stroke-opacity:1.000000;stroke-linecap:round"/>
  <line x1="-250" y1="60" x2="-210" y2="100" style="stroke:#800;stroke-width:10;stroke-opacity:1.000000;stroke-linecap:round"/>
  <line x1="-550" y1="100" x2="-250" y2="100" style="stroke:#800;stroke-width:10;stroke-opacity:1.000000;stroke-linecap:round"/>
  <g transform="translate(-435,94) rotate(0)" > <text font-size="83.3333333333" fill="#800" font-family="monospace"  >
   9
  </text> </g> 
  <g transform="translate(-232,135) rotate(0)" > <text font-size="83.3333333333" fill="#088" font-family="monospace"  >
   Ck
  </text> </g> 
  <circle cx="-550" cy="100" r="10"
    style="fill:none;stroke:#800;stroke-width:2"  />
  <line x1="-550" y1="-100" x2="-250" y2="-100" style="stroke:#800;stroke-width:10;stroke-opacity:1.000000;stroke-linecap:round"/>
  <g transform="translate(-470,-106) rotate(0)" > <text font-size="83.3333333333" fill="#800" font-family="monospace"  >
   11
  </text> </g> 
  <g transform="translate(-232,-65) rotate(0)" > <text font-size="83.3333333333" fill="#088" font-family="monospace"  >
   B
  </text> </g> 
  <circle cx="-550" cy="-100" r="10"
    style="fill:none;stroke:#800;stroke-width:2"  />
  <line x1="-550" y1="-200" x2="-250" y2="-200" style="stroke:#800;stroke-width:10;stroke-opacity:1.000000;stroke-linecap:round"/>
  <g transform="translate(-470,-206) rotate(0)" > <text font-size="83.3333333333" fill="#800" font-family="monospace"  >
   12
  </text> </g> 
  <g transform="translate(-232,-165) rotate(0)" > <text font-size="83.3333333333" fill="#088" font-family="monospace"  >
   A
  </text> </g> 
  <circle cx="-550" cy="-200" r="10"
    style="fill:none;stroke:#800;stroke-width:2"  />
  <g transform="translate(-12,325) rotate(-90)" > <text font-size="83.3333333333" fill="#888" font-family="monospace"  >
   10
  </text> </g> 
  <g transform="translate(6,258) rotate(-90)" > <text font-size="83.3333333333" fill="#888" font-family="monospace"  >
   GND
  </text> </g> 
  <circle cx="0" cy="300" r="10"
    style="fill:none;stroke:#888;stroke-width:2"  />
 </g>
</svg>
