<?xml version="1.0"?>
<svg height="247" width="211"  >
 <g style="fill-opacity:1.0; stroke:black;
  stroke-width:1;" transform=" translate( 105.5,123.5 ) scale( 0.15,0.15 )">
  <g transform="translate(120,-220) rotate(0)" > <text font-size="100.0" fill="#088" font-family="monospace"  >
   U
  </text> </g> 
  <g transform="translate(40,280) rotate(0)" > <text font-size="100.0" fill="#088" font-family="monospace"  >
   74HC804
  </text> </g> 
  <rect x="-150" y="-200" height="400"
    width="300" style="fill:none;stroke:#800;stroke-width:10" />
  <line x1="50" y1="0" x2="50" y2="-100" style="stroke:#800;stroke-width:10;stroke-opacity:1.000000;stroke-linecap:round"/>
  <line x1="50" y1="-100" x2="100" y2="-50" style="stroke:#800;stroke-width:10;stroke-opacity:1.000000;stroke-linecap:round"/>
  <line x1="100" y1="-50" x2="50" y2="0" style="stroke:#800;stroke-width:10;stroke-opacity:1.000000;stroke-linecap:round"/>
  <line x1="50" y1="0" x2="50" y2="0" style="stroke:#800;stroke-width:10;stroke-opacity:1.000000;stroke-linecap:round"/>
  <g transform="translate(-50,50) rotate(0)" > <text font-size="166.666666667" fill="#800" font-family="monospace"  >
   &amp;
  </text> </g> 
  <g transform="translate(-12,-175) rotate(-90)" > <text font-size="83.3333333333" fill="#888" font-family="monospace"  >
   20
  </text> </g> 
  <g transform="translate(6,-8) rotate(-90)" > <text font-size="83.3333333333" fill="#888" font-family="monospace"  >
   Vcc
  </text> </g> 
  <circle cx="0" cy="-200" r="10"
    style="fill:none;stroke:#888;stroke-width:2"  />
  <line x1="450" y1="0" x2="220" y2="0" style="stroke:#800;stroke-width:10;stroke-opacity:1.000000;stroke-linecap:round"/>
  <circle cx="185" cy="0" r="35"
    style="fill:none;stroke:#800;stroke-width:10"  />
  <g transform="translate(264,-6) rotate(0)" > <text font-size="83.3333333333" fill="#800" font-family="monospace"  >
   3
  </text> </g> 
  <circle cx="450" cy="0" r="10"
    style="fill:none;stroke:#800;stroke-width:2"  />
  <line x1="-450" y1="100" x2="-150" y2="100" style="stroke:#800;stroke-width:10;stroke-opacity:1.000000;stroke-linecap:round"/>
  <g transform="translate(-335,94) rotate(0)" > <text font-size="83.3333333333" fill="#800" font-family="monospace"  >
   2
  </text> </g> 
  <circle cx="-450" cy="100" r="10"
    style="fill:none;stroke:#800;stroke-width:2"  />
  <line x1="-450" y1="-100" x2="-150" y2="-100" style="stroke:#800;stroke-width:10;stroke-opacity:1.000000;stroke-linecap:round"/>
  <g transform="translate(-335,-106) rotate(0)" > <text font-size="83.3333333333" fill="#800" font-family="monospace"  >
   1
  </text> </g> 
  <circle cx="-450" cy="-100" r="10"
    style="fill:none;stroke:#800;stroke-width:2"  />
  <g transform="translate(-12,225) rotate(-90)" > <text font-size="83.3333333333" fill="#888" font-family="monospace"  >
   10
  </text> </g> 
  <g transform="translate(6,158) rotate(-90)" > <text font-size="83.3333333333" fill="#888" font-family="monospace"  >
   Gnd
  </text> </g> 
  <circle cx="0" cy="200" r="10"
    style="fill:none;stroke:#888;stroke-width:2"  />
 </g>
</svg>
