<?xml version="1.0"?>
<svg height="435" width="352"  >
 <g style="fill-opacity:1.0; stroke:black;
  stroke-width:1;" transform=" translate( 176.375,217.625 ) scale( 0.15,0.15 )">
  <g transform="translate(265,-615) rotate(0)" > <text font-size="116.666666667" fill="#088" font-family="monospace"  >
   U
  </text> </g> 
  <g transform="translate(55,985) rotate(0)" > <text font-size="116.666666667" fill="#088" font-family="monospace"  >
   74LS594
  </text> </g> 
  <line x1="-250" y1="-350" x2="0" y2="-350" style="stroke:#800;stroke-width:10;stroke-opacity:1.000000;stroke-linecap:round"/>
  <line x1="0" y1="-350" x2="0" y2="-100" style="stroke:#800;stroke-width:10;stroke-opacity:1.000000;stroke-linecap:round"/>
  <line x1="0" y1="-100" x2="-50" y2="-100" style="stroke:#800;stroke-width:10;stroke-opacity:1.000000;stroke-linecap:round"/>
  <line x1="-50" y1="-100" x2="-50" y2="-50" style="stroke:#800;stroke-width:10;stroke-opacity:1.000000;stroke-linecap:round"/>
  <line x1="-50" y1="-50" x2="-50" y2="-50" style="stroke:#800;stroke-width:10;stroke-opacity:1.000000;stroke-linecap:round"/>
  <line x1="20" y1="-30" x2="20" y2="30" style="stroke:#800;stroke-width:10;stroke-opacity:1.000000;stroke-linecap:round"/>
  <line x1="20" y1="30" x2="80" y2="0" style="stroke:#800;stroke-width:10;stroke-opacity:1.000000;stroke-linecap:round"/>
  <line x1="80" y1="0" x2="20" y2="-30" style="stroke:#800;stroke-width:10;stroke-opacity:1.000000;stroke-linecap:round"/>
  <line x1="20" y1="-30" x2="20" y2="-30" style="stroke:#800;stroke-width:10;stroke-opacity:1.000000;stroke-linecap:round"/>
  <rect x="0" y="650" height="100"
    width="250" style="fill:none;stroke:#800;stroke-width:10" />
  <rect x="0" y="350" height="100"
    width="250" style="fill:none;stroke:#800;stroke-width:10" />
  <rect x="0" y="50" height="100"
    width="250" style="fill:none;stroke:#800;stroke-width:10" />
  <rect x="0" y="150" height="100"
    width="250" style="fill:none;stroke:#800;stroke-width:10" />
  <rect x="0" y="-50" height="100"
    width="250" style="fill:none;stroke:#800;stroke-width:10" />
  <line x1="-90" y1="800" x2="-150" y2="770" style="stroke:#800;stroke-width:10;stroke-opacity:1.000000;stroke-linecap:round"/>
  <line x1="-150" y1="770" x2="-150" y2="830" style="stroke:#800;stroke-width:10;stroke-opacity:1.000000;stroke-linecap:round"/>
  <line x1="-150" y1="830" x2="-90" y2="800" style="stroke:#800;stroke-width:10;stroke-opacity:1.000000;stroke-linecap:round"/>
  <line x1="-90" y1="800" x2="-90" y2="800" style="stroke:#800;stroke-width:10;stroke-opacity:1.000000;stroke-linecap:round"/>
  <line x1="-200" y1="-50" x2="-200" y2="-100" style="stroke:#800;stroke-width:10;stroke-opacity:1.000000;stroke-linecap:round"/>
  <line x1="-200" y1="-100" x2="-250" y2="-100" style="stroke:#800;stroke-width:10;stroke-opacity:1.000000;stroke-linecap:round"/>
  <line x1="-250" y1="-100" x2="-250" y2="-600" style="stroke:#800;stroke-width:10;stroke-opacity:1.000000;stroke-linecap:round"/>
  <line x1="-250" y1="-600" x2="250" y2="-600" style="stroke:#800;stroke-width:10;stroke-opacity:1.000000;stroke-linecap:round"/>
  <line x1="250" y1="-600" x2="250" y2="-100" style="stroke:#800;stroke-width:10;stroke-opacity:1.000000;stroke-linecap:round"/>
  <line x1="250" y1="-100" x2="200" y2="-100" style="stroke:#800;stroke-width:10;stroke-opacity:1.000000;stroke-linecap:round"/>
  <line x1="200" y1="-100" x2="200" y2="-50" style="stroke:#800;stroke-width:10;stroke-opacity:1.000000;stroke-linecap:round"/>
  <line x1="200" y1="-50" x2="200" y2="-50" style="stroke:#800;stroke-width:10;stroke-opacity:1.000000;stroke-linecap:round"/>
  <rect x="0" y="250" height="100"
    width="250" style="fill:none;stroke:#800;stroke-width:10" />
  <rect x="0" y="450" height="100"
    width="250" style="fill:none;stroke:#800;stroke-width:10" />
  <rect x="0" y="550" height="100"
    width="250" style="fill:none;stroke:#800;stroke-width:10" />
  <rect x="-250" y="-50" height="900"
    width="500" style="fill:none;stroke:#800;stroke-width:10" />
  <g transform="translate(-12,-587) rotate(-90)" > <text font-size="83.3333333333" fill="#888" font-family="monospace"  >
   8
  </text> </g> 
  <g transform="translate(6,-408) rotate(-90)" > <text font-size="83.3333333333" fill="#888" font-family="monospace"  >
   GND
  </text> </g> 
  <circle cx="0" cy="-600" r="10"
    style="fill:none;stroke:#888;stroke-width:2"  />
  <g transform="translate(137,-575) rotate(-90)" > <text font-size="83.3333333333" fill="#888" font-family="monospace"  >
   16
  </text> </g> 
  <g transform="translate(156,-408) rotate(-90)" > <text font-size="83.3333333333" fill="#888" font-family="monospace"  >
   VCC
  </text> </g> 
  <circle cx="150" cy="-600" r="10"
    style="fill:none;stroke:#888;stroke-width:2"  />
  <line x1="550" y1="800" x2="250" y2="800" style="stroke:#800;stroke-width:10;stroke-opacity:1.000000;stroke-linecap:round"/>
  <g transform="translate(364,794) rotate(0)" > <text font-size="83.3333333333" fill="#800" font-family="monospace"  >
   9
  </text> </g> 
  <g transform="translate(-40,835) rotate(0)" > <text font-size="83.3333333333" fill="#088" font-family="monospace"  >
   QHser
  </text> </g> 
  <circle cx="550" cy="800" r="10"
    style="fill:none;stroke:#800;stroke-width:2"  />
  <line x1="550" y1="700" x2="250" y2="700" style="stroke:#800;stroke-width:10;stroke-opacity:1.000000;stroke-linecap:round"/>
  <g transform="translate(364,694) rotate(0)" > <text font-size="83.3333333333" fill="#800" font-family="monospace"  >
   7
  </text> </g> 
  <g transform="translate(110,735) rotate(0)" > <text font-size="83.3333333333" fill="#088" font-family="monospace"  >
   QH
  </text> </g> 
  <circle cx="550" cy="700" r="10"
    style="fill:none;stroke:#800;stroke-width:2"  />
  <line x1="550" y1="600" x2="250" y2="600" style="stroke:#800;stroke-width:10;stroke-opacity:1.000000;stroke-linecap:round"/>
  <g transform="translate(364,594) rotate(0)" > <text font-size="83.3333333333" fill="#800" font-family="monospace"  >
   6
  </text> </g> 
  <g transform="translate(110,635) rotate(0)" > <text font-size="83.3333333333" fill="#088" font-family="monospace"  >
   QG
  </text> </g> 
  <circle cx="550" cy="600" r="10"
    style="fill:none;stroke:#800;stroke-width:2"  />
  <line x1="550" y1="500" x2="250" y2="500" style="stroke:#800;stroke-width:10;stroke-opacity:1.000000;stroke-linecap:round"/>
  <g transform="translate(364,494) rotate(0)" > <text font-size="83.3333333333" fill="#800" font-family="monospace"  >
   5
  </text> </g> 
  <g transform="translate(110,535) rotate(0)" > <text font-size="83.3333333333" fill="#088" font-family="monospace"  >
   QF
  </text> </g> 
  <circle cx="550" cy="500" r="10"
    style="fill:none;stroke:#800;stroke-width:2"  />
  <line x1="550" y1="400" x2="250" y2="400" style="stroke:#800;stroke-width:10;stroke-opacity:1.000000;stroke-linecap:round"/>
  <g transform="translate(364,394) rotate(0)" > <text font-size="83.3333333333" fill="#800" font-family="monospace"  >
   4
  </text> </g> 
  <g transform="translate(110,435) rotate(0)" > <text font-size="83.3333333333" fill="#088" font-family="monospace"  >
   QE
  </text> </g> 
  <circle cx="550" cy="400" r="10"
    style="fill:none;stroke:#800;stroke-width:2"  />
  <line x1="550" y1="300" x2="250" y2="300" style="stroke:#800;stroke-width:10;stroke-opacity:1.000000;stroke-linecap:round"/>
  <g transform="translate(364,294) rotate(0)" > <text font-size="83.3333333333" fill="#800" font-family="monospace"  >
   3
  </text> </g> 
  <g transform="translate(110,335) rotate(0)" > <text font-size="83.3333333333" fill="#088" font-family="monospace"  >
   QD
  </text> </g> 
  <circle cx="550" cy="300" r="10"
    style="fill:none;stroke:#800;stroke-width:2"  />
  <line x1="550" y1="200" x2="250" y2="200" style="stroke:#800;stroke-width:10;stroke-opacity:1.000000;stroke-linecap:round"/>
  <g transform="translate(364,194) rotate(0)" > <text font-size="83.3333333333" fill="#800" font-family="monospace"  >
   2
  </text> </g> 
  <g transform="translate(110,235) rotate(0)" > <text font-size="83.3333333333" fill="#088" font-family="monospace"  >
   QC
  </text> </g> 
  <circle cx="550" cy="200" r="10"
    style="fill:none;stroke:#800;stroke-width:2"  />
  <line x1="550" y1="100" x2="250" y2="100" style="stroke:#800;stroke-width:10;stroke-opacity:1.000000;stroke-linecap:round"/>
  <g transform="translate(364,94) rotate(0)" > <text font-size="83.3333333333" fill="#800" font-family="monospace"  >
   1
  </text> </g> 
  <g transform="translate(110,135) rotate(0)" > <text font-size="83.3333333333" fill="#088" font-family="monospace"  >
   QB
  </text> </g> 
  <circle cx="550" cy="100" r="10"
    style="fill:none;stroke:#800;stroke-width:2"  />
  <line x1="550" y1="0" x2="250" y2="0" style="stroke:#800;stroke-width:10;stroke-opacity:1.000000;stroke-linecap:round"/>
  <g transform="translate(329,-6) rotate(0)" > <text font-size="83.3333333333" fill="#800" font-family="monospace"  >
   15
  </text> </g> 
  <g transform="translate(110,35) rotate(0)" > <text font-size="83.3333333333" fill="#088" font-family="monospace"  >
   QA
  </text> </g> 
  <circle cx="550" cy="0" r="10"
    style="fill:none;stroke:#800;stroke-width:2"  />
  <line x1="-550" y1="400" x2="-250" y2="400" style="stroke:#800;stroke-width:10;stroke-opacity:1.000000;stroke-linecap:round"/>
  <g transform="translate(-470,394) rotate(0)" > <text font-size="83.3333333333" fill="#800" font-family="monospace"  >
   14
  </text> </g> 
  <g transform="translate(-232,435) rotate(0)" > <text font-size="83.3333333333" fill="#088" font-family="monospace"  >
   SER
  </text> </g> 
  <circle cx="-550" cy="400" r="10"
    style="fill:none;stroke:#800;stroke-width:2"  />
  <line x1="-210" y1="-200" x2="-250" y2="-160" style="stroke:#800;stroke-width:10;stroke-opacity:1.000000;stroke-linecap:round"/>
  <line x1="-250" y1="-160" x2="-250" y2="-240" style="stroke:#800;stroke-width:10;stroke-opacity:1.000000;stroke-linecap:round"/>
  <line x1="-250" y1="-240" x2="-210" y2="-200" style="stroke:#800;stroke-width:10;stroke-opacity:1.000000;stroke-linecap:round"/>
  <line x1="-550" y1="-200" x2="-250" y2="-200" style="stroke:#800;stroke-width:10;stroke-opacity:1.000000;stroke-linecap:round"/>
  <g transform="translate(-470,-206) rotate(0)" > <text font-size="83.3333333333" fill="#800" font-family="monospace"  >
   11
  </text> </g> 
  <g transform="translate(-232,-165) rotate(0)" > <text font-size="83.3333333333" fill="#088" font-family="monospace"  >
   SCLK
  </text> </g> 
  <circle cx="-550" cy="-200" r="10"
    style="fill:none;stroke:#800;stroke-width:2"  />
  <line x1="-550" y1="-300" x2="-320" y2="-300" style="stroke:#800;stroke-width:10;stroke-opacity:1.000000;stroke-linecap:round"/>
  <circle cx="-285" cy="-300" r="35"
    style="fill:none;stroke:#800;stroke-width:10"  />
  <g transform="translate(-470,-306) rotate(0)" > <text font-size="83.3333333333" fill="#800" font-family="monospace"  >
   10
  </text> </g> 
  <g transform="translate(-232,-265) rotate(0)" > <text font-size="83.3333333333" fill="#088" font-family="monospace"  >
   ~SCLR
  </text> </g> 
  <circle cx="-550" cy="-300" r="10"
    style="fill:none;stroke:#800;stroke-width:2"  />
  <line x1="-210" y1="-450" x2="-250" y2="-410" style="stroke:#800;stroke-width:10;stroke-opacity:1.000000;stroke-linecap:round"/>
  <line x1="-250" y1="-410" x2="-250" y2="-490" style="stroke:#800;stroke-width:10;stroke-opacity:1.000000;stroke-linecap:round"/>
  <line x1="-250" y1="-490" x2="-210" y2="-450" style="stroke:#800;stroke-width:10;stroke-opacity:1.000000;stroke-linecap:round"/>
  <line x1="-550" y1="-450" x2="-250" y2="-450" style="stroke:#800;stroke-width:10;stroke-opacity:1.000000;stroke-linecap:round"/>
  <g transform="translate(-470,-456) rotate(0)" > <text font-size="83.3333333333" fill="#800" font-family="monospace"  >
   12
  </text> </g> 
  <g transform="translate(-232,-415) rotate(0)" > <text font-size="83.3333333333" fill="#088" font-family="monospace"  >
   RCLK
  </text> </g> 
  <circle cx="-550" cy="-450" r="10"
    style="fill:none;stroke:#800;stroke-width:2"  />
  <line x1="-550" y1="-550" x2="-320" y2="-550" style="stroke:#800;stroke-width:10;stroke-opacity:1.000000;stroke-linecap:round"/>
  <circle cx="-285" cy="-550" r="35"
    style="fill:none;stroke:#800;stroke-width:10"  />
  <g transform="translate(-470,-556) rotate(0)" > <text font-size="83.3333333333" fill="#800" font-family="monospace"  >
   13
  </text> </g> 
  <g transform="translate(-232,-515) rotate(0)" > <text font-size="83.3333333333" fill="#088" font-family="monospace"  >
   ~G
  </text> </g> 
  <circle cx="-550" cy="-550" r="10"
    style="fill:none;stroke:#800;stroke-width:2"  />
 </g>
</svg>
