<?xml version="1.0"?>
<svg height="289" width="220"  >
 <g style="fill-opacity:1.0; stroke:black;
  stroke-width:1;" transform=" translate( 110.25,144.75 ) scale( 0.15,0.15 )">
  <g transform="translate(120,-470) rotate(0)" > <text font-size="100.0" fill="#088" font-family="monospace"  >
   U
  </text> </g> 
  <g transform="translate(70,530) rotate(0)" > <text font-size="100.0" fill="#088" font-family="monospace"  >
   74LS55
  </text> </g> 
  <line x1="0" y1="60" x2="50" y2="10" style="stroke:#800;stroke-width:10;stroke-opacity:1.000000;stroke-linecap:round"/>
  <line x1="-100" y1="-400" x2="-100" y2="0" style="stroke:#800;stroke-width:10;stroke-opacity:1.000000;stroke-linecap:round"/>
  <line x1="-100" y1="0" x2="-200" y2="0" style="stroke:#800;stroke-width:10;stroke-opacity:1.000000;stroke-linecap:round"/>
  <line x1="-200" y1="0" x2="-100" y2="0" style="stroke:#800;stroke-width:10;stroke-opacity:1.000000;stroke-linecap:round"/>
  <line x1="-100" y1="0" x2="-100" y2="400" style="stroke:#800;stroke-width:10;stroke-opacity:1.000000;stroke-linecap:round"/>
  <line x1="-100" y1="400" x2="-100" y2="400" style="stroke:#800;stroke-width:10;stroke-opacity:1.000000;stroke-linecap:round"/>
  <line x1="-10" y1="-50" x2="40" y2="0" style="stroke:#800;stroke-width:10;stroke-opacity:1.000000;stroke-linecap:round"/>
  <line x1="40" y1="0" x2="-10" y2="50" style="stroke:#800;stroke-width:10;stroke-opacity:1.000000;stroke-linecap:round"/>
  <line x1="-10" y1="50" x2="-10" y2="50" style="stroke:#800;stroke-width:10;stroke-opacity:1.000000;stroke-linecap:round"/>
  <rect x="-200" y="-400" height="800"
    width="400" style="fill:none;stroke:#800;stroke-width:10" />
  <g transform="translate(-190,230) rotate(0)" > <text font-size="133.333333333" fill="#800" font-family="monospace"  >
   &amp;
  </text> </g> 
  <g transform="translate(49,40) rotate(0)" > <text font-size="166.666666667" fill="#800" font-family="monospace"  >
   1
  </text> </g> 
  <g transform="translate(-180,-180) rotate(0)" > <text font-size="133.333333333" fill="#800" font-family="monospace"  >
   &amp;
  </text> </g> 
  <g transform="translate(-12,-375) rotate(-90)" > <text font-size="83.3333333333" fill="#888" font-family="monospace"  >
   14
  </text> </g> 
  <g transform="translate(6,-208) rotate(-90)" > <text font-size="83.3333333333" fill="#888" font-family="monospace"  >
   VCC
  </text> </g> 
  <circle cx="0" cy="-400" r="10"
    style="fill:none;stroke:#888;stroke-width:2"  />
  <line x1="500" y1="0" x2="270" y2="0" style="stroke:#800;stroke-width:10;stroke-opacity:1.000000;stroke-linecap:round"/>
  <circle cx="235" cy="0" r="35"
    style="fill:none;stroke:#800;stroke-width:10"  />
  <g transform="translate(314,-6) rotate(0)" > <text font-size="83.3333333333" fill="#800" font-family="monospace"  >
   8
  </text> </g> 
  <g transform="translate(110,35) rotate(0)" > <text font-size="83.3333333333" fill="#088" font-family="monospace"  >
   Y
  </text> </g> 
  <circle cx="500" cy="0" r="10"
    style="fill:none;stroke:#800;stroke-width:2"  />
  <line x1="-500" y1="350" x2="-200" y2="350" style="stroke:#800;stroke-width:10;stroke-opacity:1.000000;stroke-linecap:round"/>
  <g transform="translate(-420,344) rotate(0)" > <text font-size="83.3333333333" fill="#800" font-family="monospace"  >
   13
  </text> </g> 
  <circle cx="-500" cy="350" r="10"
    style="fill:none;stroke:#800;stroke-width:2"  />
  <line x1="-500" y1="250" x2="-200" y2="250" style="stroke:#800;stroke-width:10;stroke-opacity:1.000000;stroke-linecap:round"/>
  <g transform="translate(-420,244) rotate(0)" > <text font-size="83.3333333333" fill="#800" font-family="monospace"  >
   12
  </text> </g> 
  <circle cx="-500" cy="250" r="10"
    style="fill:none;stroke:#800;stroke-width:2"  />
  <line x1="-500" y1="150" x2="-200" y2="150" style="stroke:#800;stroke-width:10;stroke-opacity:1.000000;stroke-linecap:round"/>
  <g transform="translate(-420,144) rotate(0)" > <text font-size="83.3333333333" fill="#800" font-family="monospace"  >
   11
  </text> </g> 
  <circle cx="-500" cy="150" r="10"
    style="fill:none;stroke:#800;stroke-width:2"  />
  <line x1="-500" y1="50" x2="-200" y2="50" style="stroke:#800;stroke-width:10;stroke-opacity:1.000000;stroke-linecap:round"/>
  <g transform="translate(-420,44) rotate(0)" > <text font-size="83.3333333333" fill="#800" font-family="monospace"  >
   10
  </text> </g> 
  <circle cx="-500" cy="50" r="10"
    style="fill:none;stroke:#800;stroke-width:2"  />
  <line x1="-500" y1="-50" x2="-200" y2="-50" style="stroke:#800;stroke-width:10;stroke-opacity:1.000000;stroke-linecap:round"/>
  <g transform="translate(-385,-56) rotate(0)" > <text font-size="83.3333333333" fill="#800" font-family="monospace"  >
   4
  </text> </g> 
  <circle cx="-500" cy="-50" r="10"
    style="fill:none;stroke:#800;stroke-width:2"  />
  <line x1="-500" y1="-150" x2="-200" y2="-150" style="stroke:#800;stroke-width:10;stroke-opacity:1.000000;stroke-linecap:round"/>
  <g transform="translate(-385,-156) rotate(0)" > <text font-size="83.3333333333" fill="#800" font-family="monospace"  >
   3
  </text> </g> 
  <circle cx="-500" cy="-150" r="10"
    style="fill:none;stroke:#800;stroke-width:2"  />
  <line x1="-500" y1="-250" x2="-200" y2="-250" style="stroke:#800;stroke-width:10;stroke-opacity:1.000000;stroke-linecap:round"/>
  <g transform="translate(-385,-256) rotate(0)" > <text font-size="83.3333333333" fill="#800" font-family="monospace"  >
   2
  </text> </g> 
  <circle cx="-500" cy="-250" r="10"
    style="fill:none;stroke:#800;stroke-width:2"  />
  <line x1="-500" y1="-350" x2="-200" y2="-350" style="stroke:#800;stroke-width:10;stroke-opacity:1.000000;stroke-linecap:round"/>
  <g transform="translate(-385,-356) rotate(0)" > <text font-size="83.3333333333" fill="#800" font-family="monospace"  >
   1
  </text> </g> 
  <circle cx="-500" cy="-350" r="10"
    style="fill:none;stroke:#800;stroke-width:2"  />
  <g transform="translate(-12,412) rotate(-90)" > <text font-size="83.3333333333" fill="#888" font-family="monospace"  >
   7
  </text> </g> 
  <g transform="translate(6,358) rotate(-90)" > <text font-size="83.3333333333" fill="#888" font-family="monospace"  >
   GND
  </text> </g> 
  <circle cx="0" cy="400" r="10"
    style="fill:none;stroke:#888;stroke-width:2"  />
 </g>
</svg>
