<?xml version="1.0"?>
<svg height="349" width="272"  >
 <g style="fill-opacity:1.0; stroke:black;
  stroke-width:1;" transform=" translate( 136.25,174.75 ) scale( 0.15,0.15 )">
  <g transform="translate(270,-470) rotate(0)" > <text font-size="100.0" fill="#088" font-family="monospace"  >
   U
  </text> </g> 
  <g transform="translate(-10,530) rotate(0)" > <text font-size="100.0" fill="#088" font-family="monospace"  >
   74LS290
  </text> </g> 
  <line x1="0" y1="-450" x2="0" y2="0" style="stroke:#800;stroke-width:10;stroke-opacity:1.000000;stroke-linecap:round"/>
  <line x1="0" y1="0" x2="-200" y2="0" style="stroke:#800;stroke-width:10;stroke-opacity:1.000000;stroke-linecap:round"/>
  <line x1="-200" y1="0" x2="-200" y2="0" style="stroke:#800;stroke-width:10;stroke-opacity:1.000000;stroke-linecap:round"/>
  <line x1="0" y1="-200" x2="-250" y2="-200" style="stroke:#800;stroke-width:10;stroke-opacity:1.000000;stroke-linecap:round"/>
  <line x1="-250" y1="-200" x2="-250" y2="-200" style="stroke:#800;stroke-width:10;stroke-opacity:1.000000;stroke-linecap:round"/>
  <rect x="-250" y="150" height="300"
    width="500" style="fill:none;stroke:#800;stroke-width:10" />
  <rect x="-250" y="50" height="100"
    width="500" style="fill:none;stroke:#800;stroke-width:10" />
  <line x1="-200" y1="50" x2="-200" y2="0" style="stroke:#800;stroke-width:10;stroke-opacity:1.000000;stroke-linecap:round"/>
  <line x1="-200" y1="0" x2="-250" y2="0" style="stroke:#800;stroke-width:10;stroke-opacity:1.000000;stroke-linecap:round"/>
  <line x1="-250" y1="0" x2="-250" y2="-450" style="stroke:#800;stroke-width:10;stroke-opacity:1.000000;stroke-linecap:round"/>
  <line x1="-250" y1="-450" x2="250" y2="-450" style="stroke:#800;stroke-width:10;stroke-opacity:1.000000;stroke-linecap:round"/>
  <line x1="250" y1="-450" x2="250" y2="0" style="stroke:#800;stroke-width:10;stroke-opacity:1.000000;stroke-linecap:round"/>
  <line x1="250" y1="0" x2="200" y2="0" style="stroke:#800;stroke-width:10;stroke-opacity:1.000000;stroke-linecap:round"/>
  <line x1="200" y1="0" x2="200" y2="50" style="stroke:#800;stroke-width:10;stroke-opacity:1.000000;stroke-linecap:round"/>
  <line x1="200" y1="50" x2="200" y2="50" style="stroke:#800;stroke-width:10;stroke-opacity:1.000000;stroke-linecap:round"/>
  <g transform="translate(-170,-280) rotate(0)" > <text font-size="66.6666666667" fill="#800" font-family="monospace"  >
   &amp;
  </text> </g> 
  <g transform="translate(-80,120) rotate(0)" > <text font-size="66.6666666667" fill="#800" font-family="monospace"  >
   DIV2
  </text> </g> 
  <g transform="translate(-80,320) rotate(0)" > <text font-size="66.6666666667" fill="#800" font-family="monospace"  >
   DIV5
  </text> </g> 
  <g transform="translate(60,-80) rotate(0)" > <text font-size="66.6666666667" fill="#800" font-family="monospace"  >
   Z3
  </text> </g> 
  <g transform="translate(20,-230) rotate(0)" > <text font-size="66.6666666667" fill="#800" font-family="monospace"  >
   CT=0
  </text> </g> 
  <g transform="translate(-170,-80) rotate(0)" > <text font-size="66.6666666667" fill="#800" font-family="monospace"  >
   &amp;
  </text> </g> 
  <g transform="translate(37,-437) rotate(-90)" > <text font-size="83.3333333333" fill="#888" font-family="monospace"  >
   8
  </text> </g> 
  <g transform="translate(55,-296) rotate(-90)" > <text font-size="66.6666666667" fill="#888" font-family="monospace"  >
   GND
  </text> </g> 
  <circle cx="50" cy="-450" r="10"
    style="fill:none;stroke:#888;stroke-width:2"  />
  <g transform="translate(187,-425) rotate(-90)" > <text font-size="83.3333333333" fill="#888" font-family="monospace"  >
   16
  </text> </g> 
  <g transform="translate(205,-296) rotate(-90)" > <text font-size="66.6666666667" fill="#888" font-family="monospace"  >
   VCC
  </text> </g> 
  <circle cx="200" cy="-450" r="10"
    style="fill:none;stroke:#888;stroke-width:2"  />
  <line x1="550" y1="400" x2="250" y2="400" style="stroke:#800;stroke-width:10;stroke-opacity:1.000000;stroke-linecap:round"/>
  <g transform="translate(364,394) rotate(0)" > <text font-size="83.3333333333" fill="#800" font-family="monospace"  >
   8
  </text> </g> 
  <g transform="translate(130,430) rotate(0)" > <text font-size="66.6666666667" fill="#088" font-family="monospace"  >
   Q3
  </text> </g> 
  <circle cx="550" cy="400" r="10"
    style="fill:none;stroke:#800;stroke-width:2"  />
  <line x1="550" y1="300" x2="250" y2="300" style="stroke:#800;stroke-width:10;stroke-opacity:1.000000;stroke-linecap:round"/>
  <g transform="translate(364,294) rotate(0)" > <text font-size="83.3333333333" fill="#800" font-family="monospace"  >
   4
  </text> </g> 
  <g transform="translate(130,330) rotate(0)" > <text font-size="66.6666666667" fill="#088" font-family="monospace"  >
   Q2
  </text> </g> 
  <circle cx="550" cy="300" r="10"
    style="fill:none;stroke:#800;stroke-width:2"  />
  <line x1="550" y1="200" x2="250" y2="200" style="stroke:#800;stroke-width:10;stroke-opacity:1.000000;stroke-linecap:round"/>
  <g transform="translate(364,194) rotate(0)" > <text font-size="83.3333333333" fill="#800" font-family="monospace"  >
   5
  </text> </g> 
  <g transform="translate(130,230) rotate(0)" > <text font-size="66.6666666667" fill="#088" font-family="monospace"  >
   Q1
  </text> </g> 
  <circle cx="550" cy="200" r="10"
    style="fill:none;stroke:#800;stroke-width:2"  />
  <line x1="550" y1="100" x2="250" y2="100" style="stroke:#800;stroke-width:10;stroke-opacity:1.000000;stroke-linecap:round"/>
  <g transform="translate(364,94) rotate(0)" > <text font-size="83.3333333333" fill="#800" font-family="monospace"  >
   9
  </text> </g> 
  <g transform="translate(130,130) rotate(0)" > <text font-size="66.6666666667" fill="#088" font-family="monospace"  >
   Q0
  </text> </g> 
  <circle cx="550" cy="100" r="10"
    style="fill:none;stroke:#800;stroke-width:2"  />
  <line x1="-210" y1="300" x2="-250" y2="340" style="stroke:#800;stroke-width:10;stroke-opacity:1.000000;stroke-linecap:round"/>
  <line x1="-250" y1="340" x2="-250" y2="260" style="stroke:#800;stroke-width:10;stroke-opacity:1.000000;stroke-linecap:round"/>
  <line x1="-250" y1="260" x2="-210" y2="300" style="stroke:#800;stroke-width:10;stroke-opacity:1.000000;stroke-linecap:round"/>
  <line x1="-550" y1="300" x2="-320" y2="300" style="stroke:#800;stroke-width:10;stroke-opacity:1.000000;stroke-linecap:round"/>
  <circle cx="-285" cy="300" r="35"
    style="fill:none;stroke:#800;stroke-width:10"  />
  <g transform="translate(-470,294) rotate(0)" > <text font-size="83.3333333333" fill="#800" font-family="monospace"  >
   11
  </text> </g> 
  <g transform="translate(-232,330) rotate(0)" > <text font-size="66.6666666667" fill="#088" font-family="monospace"  >
   ~CKB
  </text> </g> 
  <circle cx="-550" cy="300" r="10"
    style="fill:none;stroke:#800;stroke-width:2"  />
  <line x1="-210" y1="100" x2="-250" y2="140" style="stroke:#800;stroke-width:10;stroke-opacity:1.000000;stroke-linecap:round"/>
  <line x1="-250" y1="140" x2="-250" y2="60" style="stroke:#800;stroke-width:10;stroke-opacity:1.000000;stroke-linecap:round"/>
  <line x1="-250" y1="60" x2="-210" y2="100" style="stroke:#800;stroke-width:10;stroke-opacity:1.000000;stroke-linecap:round"/>
  <line x1="-550" y1="100" x2="-320" y2="100" style="stroke:#800;stroke-width:10;stroke-opacity:1.000000;stroke-linecap:round"/>
  <circle cx="-285" cy="100" r="35"
    style="fill:none;stroke:#800;stroke-width:10"  />
  <g transform="translate(-470,94) rotate(0)" > <text font-size="83.3333333333" fill="#800" font-family="monospace"  >
   10
  </text> </g> 
  <g transform="translate(-232,130) rotate(0)" > <text font-size="66.6666666667" fill="#088" font-family="monospace"  >
   ~CKA
  </text> </g> 
  <circle cx="-550" cy="100" r="10"
    style="fill:none;stroke:#800;stroke-width:2"  />
  <line x1="-550" y1="-50" x2="-250" y2="-50" style="stroke:#800;stroke-width:10;stroke-opacity:1.000000;stroke-linecap:round"/>
  <g transform="translate(-435,-56) rotate(0)" > <text font-size="83.3333333333" fill="#800" font-family="monospace"  >
   3
  </text> </g> 
  <g transform="translate(-232,-20) rotate(0)" > <text font-size="66.6666666667" fill="#088" font-family="monospace"  >
   R9(2)
  </text> </g> 
  <circle cx="-550" cy="-50" r="10"
    style="fill:none;stroke:#800;stroke-width:2"  />
  <line x1="-550" y1="-150" x2="-250" y2="-150" style="stroke:#800;stroke-width:10;stroke-opacity:1.000000;stroke-linecap:round"/>
  <g transform="translate(-435,-156) rotate(0)" > <text font-size="83.3333333333" fill="#800" font-family="monospace"  >
   1
  </text> </g> 
  <g transform="translate(-232,-120) rotate(0)" > <text font-size="66.6666666667" fill="#088" font-family="monospace"  >
   R9(1)
  </text> </g> 
  <circle cx="-550" cy="-150" r="10"
    style="fill:none;stroke:#800;stroke-width:2"  />
  <line x1="-550" y1="-250" x2="-250" y2="-250" style="stroke:#800;stroke-width:10;stroke-opacity:1.000000;stroke-linecap:round"/>
  <g transform="translate(-470,-256) rotate(0)" > <text font-size="83.3333333333" fill="#800" font-family="monospace"  >
   13
  </text> </g> 
  <g transform="translate(-232,-220) rotate(0)" > <text font-size="66.6666666667" fill="#088" font-family="monospace"  >
   R0(2)
  </text> </g> 
  <circle cx="-550" cy="-250" r="10"
    style="fill:none;stroke:#800;stroke-width:2"  />
  <line x1="-550" y1="-350" x2="-250" y2="-350" style="stroke:#800;stroke-width:10;stroke-opacity:1.000000;stroke-linecap:round"/>
  <g transform="translate(-470,-356) rotate(0)" > <text font-size="83.3333333333" fill="#800" font-family="monospace"  >
   12
  </text> </g> 
  <g transform="translate(-232,-320) rotate(0)" > <text font-size="66.6666666667" fill="#088" font-family="monospace"  >
   R0(1)
  </text> </g> 
  <circle cx="-550" cy="-350" r="10"
    style="fill:none;stroke:#800;stroke-width:2"  />
 </g>
</svg>
