<?xml version="1.0"?>
<svg height="247" width="208"  >
 <g style="fill-opacity:1.0; stroke:black;
  stroke-width:1;" transform=" translate( 104.0,123.5 ) scale( 0.15,0.15 )">
  <g transform="translate(120,-270) rotate(0)" > <text font-size="100.0" fill="#088" font-family="monospace"  >
   U
  </text> </g> 
  <g transform="translate(70,330) rotate(0)" > <text font-size="100.0" fill="#088" font-family="monospace"  >
   74S140
  </text> </g> 
  <rect x="-200" y="-250" height="500"
    width="400" style="fill:none;stroke:#800;stroke-width:10" />
  <rect x="300" y="0" height="0"
    width="50" style="fill:none;stroke:#800;stroke-width:10" />
  <line x1="50" y1="0" x2="50" y2="-100" style="stroke:#800;stroke-width:10;stroke-opacity:1.000000;stroke-linecap:round"/>
  <line x1="50" y1="-100" x2="100" y2="-50" style="stroke:#800;stroke-width:10;stroke-opacity:1.000000;stroke-linecap:round"/>
  <line x1="100" y1="-50" x2="50" y2="0" style="stroke:#800;stroke-width:10;stroke-opacity:1.000000;stroke-linecap:round"/>
  <line x1="50" y1="0" x2="50" y2="0" style="stroke:#800;stroke-width:10;stroke-opacity:1.000000;stroke-linecap:round"/>
  <g transform="translate(-90,50) rotate(0)" > <text font-size="166.666666667" fill="#800" font-family="monospace"  >
   &amp;
  </text> </g> 
  <g transform="translate(-12,-225) rotate(-90)" > <text font-size="83.3333333333" fill="#888" font-family="monospace"  >
   14
  </text> </g> 
  <g transform="translate(6,-58) rotate(-90)" > <text font-size="83.3333333333" fill="#888" font-family="monospace"  >
   Vcc
  </text> </g> 
  <circle cx="0" cy="-250" r="10"
    style="fill:none;stroke:#888;stroke-width:2"  />
  <line x1="500" y1="0" x2="270" y2="0" style="stroke:#800;stroke-width:10;stroke-opacity:1.000000;stroke-linecap:round"/>
  <circle cx="235" cy="0" r="35"
    style="fill:none;stroke:#800;stroke-width:10"  />
  <g transform="translate(314,-6) rotate(0)" > <text font-size="83.3333333333" fill="#800" font-family="monospace"  >
   6
  </text> </g> 
  <circle cx="500" cy="0" r="10"
    style="fill:none;stroke:#800;stroke-width:2"  />
  <line x1="-500" y1="150" x2="-200" y2="150" style="stroke:#800;stroke-width:10;stroke-opacity:1.000000;stroke-linecap:round"/>
  <g transform="translate(-385,144) rotate(0)" > <text font-size="83.3333333333" fill="#800" font-family="monospace"  >
   5
  </text> </g> 
  <circle cx="-500" cy="150" r="10"
    style="fill:none;stroke:#800;stroke-width:2"  />
  <line x1="-500" y1="50" x2="-200" y2="50" style="stroke:#800;stroke-width:10;stroke-opacity:1.000000;stroke-linecap:round"/>
  <g transform="translate(-385,44) rotate(0)" > <text font-size="83.3333333333" fill="#800" font-family="monospace"  >
   4
  </text> </g> 
  <circle cx="-500" cy="50" r="10"
    style="fill:none;stroke:#800;stroke-width:2"  />
  <line x1="-500" y1="-50" x2="-200" y2="-50" style="stroke:#800;stroke-width:10;stroke-opacity:1.000000;stroke-linecap:round"/>
  <g transform="translate(-385,-56) rotate(0)" > <text font-size="83.3333333333" fill="#800" font-family="monospace"  >
   2
  </text> </g> 
  <circle cx="-500" cy="-50" r="10"
    style="fill:none;stroke:#800;stroke-width:2"  />
  <line x1="-500" y1="-150" x2="-200" y2="-150" style="stroke:#800;stroke-width:10;stroke-opacity:1.000000;stroke-linecap:round"/>
  <g transform="translate(-385,-156) rotate(0)" > <text font-size="83.3333333333" fill="#800" font-family="monospace"  >
   1
  </text> </g> 
  <circle cx="-500" cy="-150" r="10"
    style="fill:none;stroke:#800;stroke-width:2"  />
  <g transform="translate(-12,262) rotate(-90)" > <text font-size="83.3333333333" fill="#888" font-family="monospace"  >
   7
  </text> </g> 
  <g transform="translate(6,208) rotate(-90)" > <text font-size="83.3333333333" fill="#888" font-family="monospace"  >
   Gnd
  </text> </g> 
  <circle cx="0" cy="250" r="10"
    style="fill:none;stroke:#888;stroke-width:2"  />
 </g>
</svg>
