<?xml version="1.0"?>
<svg height="1082" width="963"  >
 <g style="fill-opacity:1.0; stroke:black;
  stroke-width:1;" transform=" translate( 481.825,541.15 ) scale( 0.15,0.15 )">
  <g transform="translate(570,-2220) rotate(0)" > <text font-size="100.0" fill="#088" font-family="monospace"  >
   U
  </text> </g> 
  <g transform="translate(80,2276) rotate(0)" > <text font-size="100.0" fill="#088" font-family="monospace"  >
   TMS320LF2406PZ
  </text> </g> 
  <line x1="-450" y1="-2200" x2="-450" y2="-100" style="stroke:#800;stroke-width:10;stroke-opacity:1.000000;stroke-linecap:round"/>
  <line x1="-450" y1="-100" x2="-900" y2="-100" style="stroke:#800;stroke-width:10;stroke-opacity:1.000000;stroke-linecap:round"/>
  <line x1="-900" y1="-100" x2="-900" y2="100" style="stroke:#800;stroke-width:10;stroke-opacity:1.000000;stroke-linecap:round"/>
  <rect x="-900" y="-2200" height="4400"
    width="1800" style="fill:none;stroke:#800;stroke-width:10" />
  <g transform="translate(-357,-2185) rotate(-90)" > <text font-size="50.0" fill="#888" font-family="monospace"  >
   20
  </text> </g> 
  <g transform="translate(-346,-2085) rotate(-90)" > <text font-size="50.0" fill="#888" font-family="monospace"  >
   VCC
  </text> </g> 
  <circle cx="-350" cy="-2200" r="10"
    style="fill:none;stroke:#888;stroke-width:2"  />
  <g transform="translate(-307,-2185) rotate(-90)" > <text font-size="50.0" fill="#888" font-family="monospace"  >
   35
  </text> </g> 
  <g transform="translate(-296,-2085) rotate(-90)" > <text font-size="50.0" fill="#888" font-family="monospace"  >
   VCC
  </text> </g> 
  <circle cx="-300" cy="-2200" r="10"
    style="fill:none;stroke:#888;stroke-width:2"  />
  <g transform="translate(-257,-2185) rotate(-90)" > <text font-size="50.0" fill="#888" font-family="monospace"  >
   59
  </text> </g> 
  <g transform="translate(-246,-2085) rotate(-90)" > <text font-size="50.0" fill="#888" font-family="monospace"  >
   VCC
  </text> </g> 
  <circle cx="-250" cy="-2200" r="10"
    style="fill:none;stroke:#888;stroke-width:2"  />
  <g transform="translate(-207,-2185) rotate(-90)" > <text font-size="50.0" fill="#888" font-family="monospace"  >
   91
  </text> </g> 
  <g transform="translate(-196,-2085) rotate(-90)" > <text font-size="50.0" fill="#888" font-family="monospace"  >
   VCC
  </text> </g> 
  <circle cx="-200" cy="-2200" r="10"
    style="fill:none;stroke:#888;stroke-width:2"  />
  <g transform="translate(-157,-2192) rotate(-90)" > <text font-size="50.0" fill="#888" font-family="monospace"  >
   4
  </text> </g> 
  <g transform="translate(-146,-2085) rotate(-90)" > <text font-size="50.0" fill="#888" font-family="monospace"  >
   VCC
  </text> </g> 
  <circle cx="-150" cy="-2200" r="10"
    style="fill:none;stroke:#888;stroke-width:2"  />
  <g transform="translate(-107,-2185) rotate(-90)" > <text font-size="50.0" fill="#888" font-family="monospace"  >
   30
  </text> </g> 
  <g transform="translate(-96,-2085) rotate(-90)" > <text font-size="50.0" fill="#888" font-family="monospace"  >
   VCC
  </text> </g> 
  <circle cx="-100" cy="-2200" r="10"
    style="fill:none;stroke:#888;stroke-width:2"  />
  <g transform="translate(-57,-2185) rotate(-90)" > <text font-size="50.0" fill="#888" font-family="monospace"  >
   47
  </text> </g> 
  <g transform="translate(-46,-2085) rotate(-90)" > <text font-size="50.0" fill="#888" font-family="monospace"  >
   VCC
  </text> </g> 
  <circle cx="-50" cy="-2200" r="10"
    style="fill:none;stroke:#888;stroke-width:2"  />
  <g transform="translate(-7,-2185) rotate(-90)" > <text font-size="50.0" fill="#888" font-family="monospace"  >
   54
  </text> </g> 
  <g transform="translate(3,-2085) rotate(-90)" > <text font-size="50.0" fill="#888" font-family="monospace"  >
   VCC
  </text> </g> 
  <circle cx="0" cy="-2200" r="10"
    style="fill:none;stroke:#888;stroke-width:2"  />
  <g transform="translate(42,-2185) rotate(-90)" > <text font-size="50.0" fill="#888" font-family="monospace"  >
   64
  </text> </g> 
  <g transform="translate(53,-2085) rotate(-90)" > <text font-size="50.0" fill="#888" font-family="monospace"  >
   VCC
  </text> </g> 
  <circle cx="50" cy="-2200" r="10"
    style="fill:none;stroke:#888;stroke-width:2"  />
  <g transform="translate(92,-2185) rotate(-90)" > <text font-size="50.0" fill="#888" font-family="monospace"  >
   98
  </text> </g> 
  <g transform="translate(103,-2085) rotate(-90)" > <text font-size="50.0" fill="#888" font-family="monospace"  >
   VCC
  </text> </g> 
  <circle cx="100" cy="-2200" r="10"
    style="fill:none;stroke:#888;stroke-width:2"  />
  <line x1="1200" y1="2150" x2="970" y2="2150" style="stroke:#800;stroke-width:10;stroke-opacity:1.000000;stroke-linecap:round"/>
  <circle cx="935" cy="2150" r="35"
    style="fill:none;stroke:#800;stroke-width:10"  />
  <g transform="translate(1014,2144) rotate(0)" > <text font-size="83.3333333333" fill="#800" font-family="monospace"  >
   1
  </text> </g> 
  <g transform="translate(660,2185) rotate(0)" > <text font-size="83.3333333333" fill="#088" font-family="monospace"  >
   TRST
  </text> </g> 
  <circle cx="1200" cy="2150" r="10"
    style="fill:none;stroke:#800;stroke-width:2"  />
  <line x1="1200" y1="2050" x2="900" y2="2050" style="stroke:#800;stroke-width:10;stroke-opacity:1.000000;stroke-linecap:round"/>
  <g transform="translate(979,2044) rotate(0)" > <text font-size="83.3333333333" fill="#800" font-family="monospace"  >
   25
  </text> </g> 
  <g transform="translate(660,2085) rotate(0)" > <text font-size="83.3333333333" fill="#088" font-family="monospace"  >
   TMS2
  </text> </g> 
  <circle cx="1200" cy="2050" r="10"
    style="fill:none;stroke:#800;stroke-width:2"  />
  <line x1="1200" y1="1950" x2="900" y2="1950" style="stroke:#800;stroke-width:10;stroke-opacity:1.000000;stroke-linecap:round"/>
  <g transform="translate(979,1944) rotate(0)" > <text font-size="83.3333333333" fill="#800" font-family="monospace"  >
   99
  </text> </g> 
  <g transform="translate(710,1985) rotate(0)" > <text font-size="83.3333333333" fill="#088" font-family="monospace"  >
   TDO
  </text> </g> 
  <circle cx="1200" cy="1950" r="10"
    style="fill:none;stroke:#800;stroke-width:2"  />
  <line x1="1200" y1="1850" x2="900" y2="1850" style="stroke:#800;stroke-width:10;stroke-opacity:1.000000;stroke-linecap:round"/>
  <g transform="translate(943,1844) rotate(0)" > <text font-size="83.3333333333" fill="#800" font-family="monospace"  >
   100
  </text> </g> 
  <g transform="translate(710,1885) rotate(0)" > <text font-size="83.3333333333" fill="#088" font-family="monospace"  >
   TMS
  </text> </g> 
  <circle cx="1200" cy="1850" r="10"
    style="fill:none;stroke:#800;stroke-width:2"  />
  <line x1="1200" y1="1750" x2="900" y2="1750" style="stroke:#800;stroke-width:10;stroke-opacity:1.000000;stroke-linecap:round"/>
  <g transform="translate(979,1744) rotate(0)" > <text font-size="83.3333333333" fill="#800" font-family="monospace"  >
   96
  </text> </g> 
  <g transform="translate(710,1785) rotate(0)" > <text font-size="83.3333333333" fill="#088" font-family="monospace"  >
   TDI
  </text> </g> 
  <circle cx="1200" cy="1750" r="10"
    style="fill:none;stroke:#800;stroke-width:2"  />
  <line x1="1200" y1="1650" x2="900" y2="1650" style="stroke:#800;stroke-width:10;stroke-opacity:1.000000;stroke-linecap:round"/>
  <g transform="translate(979,1644) rotate(0)" > <text font-size="83.3333333333" fill="#800" font-family="monospace"  >
   94
  </text> </g> 
  <g transform="translate(710,1685) rotate(0)" > <text font-size="83.3333333333" fill="#088" font-family="monospace"  >
   TCK
  </text> </g> 
  <circle cx="1200" cy="1650" r="10"
    style="fill:none;stroke:#800;stroke-width:2"  />
  <line x1="1200" y1="1500" x2="900" y2="1500" style="stroke:#800;stroke-width:10;stroke-opacity:1.000000;stroke-linecap:round"/>
  <g transform="translate(979,1494) rotate(0)" > <text font-size="83.3333333333" fill="#800" font-family="monospace"  >
   85
  </text> </g> 
  <g transform="translate(360,1535) rotate(0)" > <text font-size="83.3333333333" fill="#088" font-family="monospace"  >
   BIO-/IOPC1
  </text> </g> 
  <circle cx="1200" cy="1500" r="10"
    style="fill:none;stroke:#800;stroke-width:2"  />
  <line x1="1200" y1="1400" x2="900" y2="1400" style="stroke:#800;stroke-width:10;stroke-opacity:1.000000;stroke-linecap:round"/>
  <g transform="translate(979,1394) rotate(0)" > <text font-size="83.3333333333" fill="#800" font-family="monospace"  >
   15
  </text> </g> 
  <g transform="translate(309,1435) rotate(0)" > <text font-size="83.3333333333" fill="#088" font-family="monospace"  >
   XINT2/IOPD0
  </text> </g> 
  <circle cx="1200" cy="1400" r="10"
    style="fill:none;stroke:#800;stroke-width:2"  />
  <line x1="1200" y1="1300" x2="900" y2="1300" style="stroke:#800;stroke-width:10;stroke-opacity:1.000000;stroke-linecap:round"/>
  <g transform="translate(979,1294) rotate(0)" > <text font-size="83.3333333333" fill="#800" font-family="monospace"  >
   16
  </text> </g> 
  <g transform="translate(309,1335) rotate(0)" > <text font-size="83.3333333333" fill="#088" font-family="monospace"  >
   XINT1/IOPA2
  </text> </g> 
  <circle cx="1200" cy="1300" r="10"
    style="fill:none;stroke:#800;stroke-width:2"  />
  <line x1="1200" y1="1200" x2="900" y2="1200" style="stroke:#800;stroke-width:10;stroke-opacity:1.000000;stroke-linecap:round"/>
  <g transform="translate(979,1194) rotate(0)" > <text font-size="83.3333333333" fill="#800" font-family="monospace"  >
   51
  </text> </g> 
  <g transform="translate(259,1235) rotate(0)" > <text font-size="83.3333333333" fill="#088" font-family="monospace"  >
   CLKOUT/IOPE0
  </text> </g> 
  <circle cx="1200" cy="1200" r="10"
    style="fill:none;stroke:#800;stroke-width:2"  />
  <line x1="860" y1="1050" x2="900" y2="1090" style="stroke:#800;stroke-width:10;stroke-opacity:1.000000;stroke-linecap:round"/>
  <line x1="900" y1="1090" x2="900" y2="1010" style="stroke:#800;stroke-width:10;stroke-opacity:1.000000;stroke-linecap:round"/>
  <line x1="900" y1="1010" x2="860" y2="1050" style="stroke:#800;stroke-width:10;stroke-opacity:1.000000;stroke-linecap:round"/>
  <line x1="1200" y1="1050" x2="970" y2="1050" style="stroke:#800;stroke-width:10;stroke-opacity:1.000000;stroke-linecap:round"/>
  <circle cx="935" cy="1050" r="35"
    style="fill:none;stroke:#800;stroke-width:10"  />
  <g transform="translate(979,1044) rotate(0)" > <text font-size="83.3333333333" fill="#800" font-family="monospace"  >
   95
  </text> </g> 
  <g transform="translate(509,1085) rotate(0)" > <text font-size="83.3333333333" fill="#088" font-family="monospace"  >
   PDPINTB
  </text> </g> 
  <circle cx="1200" cy="1050" r="10"
    style="fill:none;stroke:#800;stroke-width:2"  />
  <line x1="860" y1="950" x2="900" y2="990" style="stroke:#800;stroke-width:10;stroke-opacity:1.000000;stroke-linecap:round"/>
  <line x1="900" y1="990" x2="900" y2="910" style="stroke:#800;stroke-width:10;stroke-opacity:1.000000;stroke-linecap:round"/>
  <line x1="900" y1="910" x2="860" y2="950" style="stroke:#800;stroke-width:10;stroke-opacity:1.000000;stroke-linecap:round"/>
  <line x1="1200" y1="950" x2="970" y2="950" style="stroke:#800;stroke-width:10;stroke-opacity:1.000000;stroke-linecap:round"/>
  <circle cx="935" cy="950" r="35"
    style="fill:none;stroke:#800;stroke-width:10"  />
  <g transform="translate(1014,944) rotate(0)" > <text font-size="83.3333333333" fill="#800" font-family="monospace"  >
   6
  </text> </g> 
  <g transform="translate(509,985) rotate(0)" > <text font-size="83.3333333333" fill="#088" font-family="monospace"  >
   PDPINTA
  </text> </g> 
  <circle cx="1200" cy="950" r="10"
    style="fill:none;stroke:#800;stroke-width:2"  />
  <line x1="1200" y1="850" x2="900" y2="850" style="stroke:#800;stroke-width:10;stroke-opacity:1.000000;stroke-linecap:round"/>
  <g transform="translate(979,844) rotate(0)" > <text font-size="83.3333333333" fill="#800" font-family="monospace"  >
   14
  </text> </g> 
  <g transform="translate(610,885) rotate(0)" > <text font-size="83.3333333333" fill="#088" font-family="monospace"  >
   IOPC0
  </text> </g> 
  <circle cx="1200" cy="850" r="10"
    style="fill:none;stroke:#800;stroke-width:2"  />
  <line x1="1200" y1="750" x2="900" y2="750" style="stroke:#800;stroke-width:10;stroke-opacity:1.000000;stroke-linecap:round"/>
  <g transform="translate(979,744) rotate(0)" > <text font-size="83.3333333333" fill="#800" font-family="monospace"  >
   92
  </text> </g> 
  <g transform="translate(610,785) rotate(0)" > <text font-size="83.3333333333" fill="#088" font-family="monospace"  >
   IOPF6
  </text> </g> 
  <circle cx="1200" cy="750" r="10"
    style="fill:none;stroke:#800;stroke-width:2"  />
  <line x1="1200" y1="600" x2="900" y2="600" style="stroke:#800;stroke-width:10;stroke-opacity:1.000000;stroke-linecap:round"/>
  <g transform="translate(979,594) rotate(0)" > <text font-size="83.3333333333" fill="#800" font-family="monospace"  >
   89
  </text> </g> 
  <g transform="translate(209,635) rotate(0)" > <text font-size="83.3333333333" fill="#088" font-family="monospace"  >
   TCLKINB/IOPF5
  </text> </g> 
  <circle cx="1200" cy="600" r="10"
    style="fill:none;stroke:#800;stroke-width:2"  />
  <line x1="1200" y1="500" x2="900" y2="500" style="stroke:#800;stroke-width:10;stroke-opacity:1.000000;stroke-linecap:round"/>
  <g transform="translate(1014,494) rotate(0)" > <text font-size="83.3333333333" fill="#800" font-family="monospace"  >
   2
  </text> </g> 
  <g transform="translate(309,535) rotate(0)" > <text font-size="83.3333333333" fill="#088" font-family="monospace"  >
   TDIRB/IOPF4
  </text> </g> 
  <circle cx="1200" cy="500" r="10"
    style="fill:none;stroke:#800;stroke-width:2"  />
  <line x1="1200" y1="400" x2="900" y2="400" style="stroke:#800;stroke-width:10;stroke-opacity:1.000000;stroke-linecap:round"/>
  <g transform="translate(1014,394) rotate(0)" > <text font-size="83.3333333333" fill="#800" font-family="monospace"  >
   5
  </text> </g> 
  <g transform="translate(9,435) rotate(0)" > <text font-size="83.3333333333" fill="#088" font-family="monospace"  >
   T4PWM/T4CMP/IOPF3
  </text> </g> 
  <circle cx="1200" cy="400" r="10"
    style="fill:none;stroke:#800;stroke-width:2"  />
  <line x1="1200" y1="300" x2="900" y2="300" style="stroke:#800;stroke-width:10;stroke-opacity:1.000000;stroke-linecap:round"/>
  <g transform="translate(1014,294) rotate(0)" > <text font-size="83.3333333333" fill="#800" font-family="monospace"  >
   7
  </text> </g> 
  <g transform="translate(9,335) rotate(0)" > <text font-size="83.3333333333" fill="#088" font-family="monospace"  >
   T3PWM/T3CMP/IOPF2
  </text> </g> 
  <circle cx="1200" cy="300" r="10"
    style="fill:none;stroke:#800;stroke-width:2"  />
  <line x1="1200" y1="150" x2="900" y2="150" style="stroke:#800;stroke-width:10;stroke-opacity:1.000000;stroke-linecap:round"/>
  <g transform="translate(979,144) rotate(0)" > <text font-size="83.3333333333" fill="#800" font-family="monospace"  >
   27
  </text> </g> 
  <g transform="translate(309,185) rotate(0)" > <text font-size="83.3333333333" fill="#088" font-family="monospace"  >
   PWM12/IOPE6
  </text> </g> 
  <circle cx="1200" cy="150" r="10"
    style="fill:none;stroke:#800;stroke-width:2"  />
  <line x1="1200" y1="50" x2="900" y2="50" style="stroke:#800;stroke-width:10;stroke-opacity:1.000000;stroke-linecap:round"/>
  <g transform="translate(979,44) rotate(0)" > <text font-size="83.3333333333" fill="#800" font-family="monospace"  >
   32
  </text> </g> 
  <g transform="translate(309,85) rotate(0)" > <text font-size="83.3333333333" fill="#088" font-family="monospace"  >
   PWM11/IOPE5
  </text> </g> 
  <circle cx="1200" cy="50" r="10"
    style="fill:none;stroke:#800;stroke-width:2"  />
  <line x1="1200" y1="-50" x2="900" y2="-50" style="stroke:#800;stroke-width:10;stroke-opacity:1.000000;stroke-linecap:round"/>
  <g transform="translate(979,-56) rotate(0)" > <text font-size="83.3333333333" fill="#800" font-family="monospace"  >
   38
  </text> </g> 
  <g transform="translate(309,-15) rotate(0)" > <text font-size="83.3333333333" fill="#088" font-family="monospace"  >
   PWM10/IOPE4
  </text> </g> 
  <circle cx="1200" cy="-50" r="10"
    style="fill:none;stroke:#800;stroke-width:2"  />
  <line x1="1200" y1="-150" x2="900" y2="-150" style="stroke:#800;stroke-width:10;stroke-opacity:1.000000;stroke-linecap:round"/>
  <g transform="translate(979,-156) rotate(0)" > <text font-size="83.3333333333" fill="#800" font-family="monospace"  >
   41
  </text> </g> 
  <g transform="translate(360,-115) rotate(0)" > <text font-size="83.3333333333" fill="#088" font-family="monospace"  >
   PWM9/IOPE3
  </text> </g> 
  <circle cx="1200" cy="-150" r="10"
    style="fill:none;stroke:#800;stroke-width:2"  />
  <line x1="1200" y1="-250" x2="900" y2="-250" style="stroke:#800;stroke-width:10;stroke-opacity:1.000000;stroke-linecap:round"/>
  <g transform="translate(979,-256) rotate(0)" > <text font-size="83.3333333333" fill="#800" font-family="monospace"  >
   43
  </text> </g> 
  <g transform="translate(360,-215) rotate(0)" > <text font-size="83.3333333333" fill="#088" font-family="monospace"  >
   PWM8/IOPE2
  </text> </g> 
  <circle cx="1200" cy="-250" r="10"
    style="fill:none;stroke:#800;stroke-width:2"  />
  <line x1="1200" y1="-350" x2="900" y2="-350" style="stroke:#800;stroke-width:10;stroke-opacity:1.000000;stroke-linecap:round"/>
  <g transform="translate(979,-356) rotate(0)" > <text font-size="83.3333333333" fill="#800" font-family="monospace"  >
   45
  </text> </g> 
  <g transform="translate(360,-315) rotate(0)" > <text font-size="83.3333333333" fill="#088" font-family="monospace"  >
   PWM7/IOPE1
  </text> </g> 
  <circle cx="1200" cy="-350" r="10"
    style="fill:none;stroke:#800;stroke-width:2"  />
  <line x1="1200" y1="-450" x2="900" y2="-450" style="stroke:#800;stroke-width:10;stroke-opacity:1.000000;stroke-linecap:round"/>
  <g transform="translate(979,-456) rotate(0)" > <text font-size="83.3333333333" fill="#800" font-family="monospace"  >
   48
  </text> </g> 
  <g transform="translate(360,-415) rotate(0)" > <text font-size="83.3333333333" fill="#088" font-family="monospace"  >
   CAP6/IOPF1
  </text> </g> 
  <circle cx="1200" cy="-450" r="10"
    style="fill:none;stroke:#800;stroke-width:2"  />
  <line x1="1200" y1="-550" x2="900" y2="-550" style="stroke:#800;stroke-width:10;stroke-opacity:1.000000;stroke-linecap:round"/>
  <g transform="translate(979,-556) rotate(0)" > <text font-size="83.3333333333" fill="#800" font-family="monospace"  >
   56
  </text> </g> 
  <g transform="translate(109,-515) rotate(0)" > <text font-size="83.3333333333" fill="#088" font-family="monospace"  >
   CAP5/QEP4/IOPF0
  </text> </g> 
  <circle cx="1200" cy="-550" r="10"
    style="fill:none;stroke:#800;stroke-width:2"  />
  <line x1="1200" y1="-650" x2="900" y2="-650" style="stroke:#800;stroke-width:10;stroke-opacity:1.000000;stroke-linecap:round"/>
  <g transform="translate(979,-656) rotate(0)" > <text font-size="83.3333333333" fill="#800" font-family="monospace"  >
   60
  </text> </g> 
  <g transform="translate(109,-615) rotate(0)" > <text font-size="83.3333333333" fill="#088" font-family="monospace"  >
   CAP4/QEP3/IOPE7
  </text> </g> 
  <circle cx="1200" cy="-650" r="10"
    style="fill:none;stroke:#800;stroke-width:2"  />
  <line x1="1200" y1="-850" x2="900" y2="-850" style="stroke:#800;stroke-width:10;stroke-opacity:1.000000;stroke-linecap:round"/>
  <g transform="translate(979,-856) rotate(0)" > <text font-size="83.3333333333" fill="#800" font-family="monospace"  >
   26
  </text> </g> 
  <g transform="translate(209,-815) rotate(0)" > <text font-size="83.3333333333" fill="#088" font-family="monospace"  >
   TCLKINA/IOPB7
  </text> </g> 
  <circle cx="1200" cy="-850" r="10"
    style="fill:none;stroke:#800;stroke-width:2"  />
  <line x1="1200" y1="-950" x2="900" y2="-950" style="stroke:#800;stroke-width:10;stroke-opacity:1.000000;stroke-linecap:round"/>
  <g transform="translate(979,-956) rotate(0)" > <text font-size="83.3333333333" fill="#800" font-family="monospace"  >
   11
  </text> </g> 
  <g transform="translate(309,-915) rotate(0)" > <text font-size="83.3333333333" fill="#088" font-family="monospace"  >
   TDIRA/IOPB6
  </text> </g> 
  <circle cx="1200" cy="-950" r="10"
    style="fill:none;stroke:#800;stroke-width:2"  />
  <line x1="1200" y1="-1050" x2="900" y2="-1050" style="stroke:#800;stroke-width:10;stroke-opacity:1.000000;stroke-linecap:round"/>
  <g transform="translate(979,-1056) rotate(0)" > <text font-size="83.3333333333" fill="#800" font-family="monospace"  >
   13
  </text> </g> 
  <g transform="translate(9,-1015) rotate(0)" > <text font-size="83.3333333333" fill="#088" font-family="monospace"  >
   T2PWM/T2CMP/IOPB5
  </text> </g> 
  <circle cx="1200" cy="-1050" r="10"
    style="fill:none;stroke:#800;stroke-width:2"  />
  <line x1="1200" y1="-1150" x2="900" y2="-1150" style="stroke:#800;stroke-width:10;stroke-opacity:1.000000;stroke-linecap:round"/>
  <g transform="translate(979,-1156) rotate(0)" > <text font-size="83.3333333333" fill="#800" font-family="monospace"  >
   12
  </text> </g> 
  <g transform="translate(9,-1115) rotate(0)" > <text font-size="83.3333333333" fill="#088" font-family="monospace"  >
   T1PWM/T1CMP/IOPB4
  </text> </g> 
  <circle cx="1200" cy="-1150" r="10"
    style="fill:none;stroke:#800;stroke-width:2"  />
  <line x1="1200" y1="-1300" x2="900" y2="-1300" style="stroke:#800;stroke-width:10;stroke-opacity:1.000000;stroke-linecap:round"/>
  <g transform="translate(979,-1306) rotate(0)" > <text font-size="83.3333333333" fill="#800" font-family="monospace"  >
   28
  </text> </g> 
  <g transform="translate(360,-1265) rotate(0)" > <text font-size="83.3333333333" fill="#088" font-family="monospace"  >
   PWM6/IOPB3
  </text> </g> 
  <circle cx="1200" cy="-1300" r="10"
    style="fill:none;stroke:#800;stroke-width:2"  />
  <line x1="1200" y1="-1400" x2="900" y2="-1400" style="stroke:#800;stroke-width:10;stroke-opacity:1.000000;stroke-linecap:round"/>
  <g transform="translate(979,-1406) rotate(0)" > <text font-size="83.3333333333" fill="#800" font-family="monospace"  >
   31
  </text> </g> 
  <g transform="translate(360,-1365) rotate(0)" > <text font-size="83.3333333333" fill="#088" font-family="monospace"  >
   PWM5/IOPB2
  </text> </g> 
  <circle cx="1200" cy="-1400" r="10"
    style="fill:none;stroke:#800;stroke-width:2"  />
  <line x1="1200" y1="-1500" x2="900" y2="-1500" style="stroke:#800;stroke-width:10;stroke-opacity:1.000000;stroke-linecap:round"/>
  <g transform="translate(979,-1506) rotate(0)" > <text font-size="83.3333333333" fill="#800" font-family="monospace"  >
   33
  </text> </g> 
  <g transform="translate(360,-1465) rotate(0)" > <text font-size="83.3333333333" fill="#088" font-family="monospace"  >
   PWM4/IOPB1
  </text> </g> 
  <circle cx="1200" cy="-1500" r="10"
    style="fill:none;stroke:#800;stroke-width:2"  />
  <line x1="1200" y1="-1600" x2="900" y2="-1600" style="stroke:#800;stroke-width:10;stroke-opacity:1.000000;stroke-linecap:round"/>
  <g transform="translate(979,-1606) rotate(0)" > <text font-size="83.3333333333" fill="#800" font-family="monospace"  >
   36
  </text> </g> 
  <g transform="translate(360,-1565) rotate(0)" > <text font-size="83.3333333333" fill="#088" font-family="monospace"  >
   PWM3/IOPB0
  </text> </g> 
  <circle cx="1200" cy="-1600" r="10"
    style="fill:none;stroke:#800;stroke-width:2"  />
  <line x1="1200" y1="-1700" x2="900" y2="-1700" style="stroke:#800;stroke-width:10;stroke-opacity:1.000000;stroke-linecap:round"/>
  <g transform="translate(979,-1706) rotate(0)" > <text font-size="83.3333333333" fill="#800" font-family="monospace"  >
   37
  </text> </g> 
  <g transform="translate(360,-1665) rotate(0)" > <text font-size="83.3333333333" fill="#088" font-family="monospace"  >
   PWM2/IOPA7
  </text> </g> 
  <circle cx="1200" cy="-1700" r="10"
    style="fill:none;stroke:#800;stroke-width:2"  />
  <line x1="1200" y1="-1800" x2="900" y2="-1800" style="stroke:#800;stroke-width:10;stroke-opacity:1.000000;stroke-linecap:round"/>
  <g transform="translate(979,-1806) rotate(0)" > <text font-size="83.3333333333" fill="#800" font-family="monospace"  >
   39
  </text> </g> 
  <g transform="translate(360,-1765) rotate(0)" > <text font-size="83.3333333333" fill="#088" font-family="monospace"  >
   PWM1/IOPA6
  </text> </g> 
  <circle cx="1200" cy="-1800" r="10"
    style="fill:none;stroke:#800;stroke-width:2"  />
  <line x1="1200" y1="-1950" x2="900" y2="-1950" style="stroke:#800;stroke-width:10;stroke-opacity:1.000000;stroke-linecap:round"/>
  <g transform="translate(979,-1956) rotate(0)" > <text font-size="83.3333333333" fill="#800" font-family="monospace"  >
   52
  </text> </g> 
  <g transform="translate(360,-1915) rotate(0)" > <text font-size="83.3333333333" fill="#088" font-family="monospace"  >
   CAP3/IOPA5
  </text> </g> 
  <circle cx="1200" cy="-1950" r="10"
    style="fill:none;stroke:#800;stroke-width:2"  />
  <line x1="1200" y1="-2050" x2="900" y2="-2050" style="stroke:#800;stroke-width:10;stroke-opacity:1.000000;stroke-linecap:round"/>
  <g transform="translate(979,-2056) rotate(0)" > <text font-size="83.3333333333" fill="#800" font-family="monospace"  >
   55
  </text> </g> 
  <g transform="translate(109,-2015) rotate(0)" > <text font-size="83.3333333333" fill="#088" font-family="monospace"  >
   CAP2/QEP2/IOPA4
  </text> </g> 
  <circle cx="1200" cy="-2050" r="10"
    style="fill:none;stroke:#800;stroke-width:2"  />
  <line x1="1200" y1="-2150" x2="900" y2="-2150" style="stroke:#800;stroke-width:10;stroke-opacity:1.000000;stroke-linecap:round"/>
  <g transform="translate(979,-2156) rotate(0)" > <text font-size="83.3333333333" fill="#800" font-family="monospace"  >
   57
  </text> </g> 
  <g transform="translate(109,-2115) rotate(0)" > <text font-size="83.3333333333" fill="#088" font-family="monospace"  >
   CAP1/QEP1/IOPA3
  </text> </g> 
  <circle cx="1200" cy="-2150" r="10"
    style="fill:none;stroke:#800;stroke-width:2"  />
  <line x1="-1200" y1="2100" x2="-900" y2="2100" style="stroke:#800;stroke-width:10;stroke-opacity:1.000000;stroke-linecap:round"/>
  <g transform="translate(-1120,2094) rotate(0)" > <text font-size="83.3333333333" fill="#800" font-family="monospace"  >
   62
  </text> </g> 
  <g transform="translate(-882,2135) rotate(0)" > <text font-size="83.3333333333" fill="#088" font-family="monospace"  >
   EMU1/OFF-
  </text> </g> 
  <circle cx="-1200" cy="2100" r="10"
    style="fill:none;stroke:#800;stroke-width:2"  />
  <line x1="-1200" y1="2000" x2="-900" y2="2000" style="stroke:#800;stroke-width:10;stroke-opacity:1.000000;stroke-linecap:round"/>
  <g transform="translate(-1120,1994) rotate(0)" > <text font-size="83.3333333333" fill="#800" font-family="monospace"  >
   61
  </text> </g> 
  <g transform="translate(-882,2035) rotate(0)" > <text font-size="83.3333333333" fill="#088" font-family="monospace"  >
   EMU0
  </text> </g> 
  <circle cx="-1200" cy="2000" r="10"
    style="fill:none;stroke:#800;stroke-width:2"  />
  <line x1="-1200" y1="1850" x2="-900" y2="1850" style="stroke:#800;stroke-width:10;stroke-opacity:1.000000;stroke-linecap:round"/>
  <g transform="translate(-1120,1844) rotate(0)" > <text font-size="83.3333333333" fill="#800" font-family="monospace"  >
   40
  </text> </g> 
  <g transform="translate(-882,1885) rotate(0)" > <text font-size="83.3333333333" fill="#088" font-family="monospace"  >
   VccPROG_5V
  </text> </g> 
  <circle cx="-1200" cy="1850" r="10"
    style="fill:none;stroke:#800;stroke-width:2"  />
  <line x1="-1200" y1="1700" x2="-900" y2="1700" style="stroke:#800;stroke-width:10;stroke-opacity:1.000000;stroke-linecap:round"/>
  <g transform="translate(-1120,1694) rotate(0)" > <text font-size="83.3333333333" fill="#800" font-family="monospace"  >
   10
  </text> </g> 
  <g transform="translate(-882,1735) rotate(0)" > <text font-size="83.3333333333" fill="#088" font-family="monospace"  >
   PLLVcca
  </text> </g> 
  <circle cx="-1200" cy="1700" r="10"
    style="fill:none;stroke:#800;stroke-width:2"  />
  <line x1="-1200" y1="1600" x2="-900" y2="1600" style="stroke:#800;stroke-width:10;stroke-opacity:1.000000;stroke-linecap:round"/>
  <g transform="translate(-1085,1594) rotate(0)" > <text font-size="83.3333333333" fill="#800" font-family="monospace"  >
   8
  </text> </g> 
  <g transform="translate(-882,1635) rotate(0)" > <text font-size="83.3333333333" fill="#088" font-family="monospace"  >
   PLLF2
  </text> </g> 
  <circle cx="-1200" cy="1600" r="10"
    style="fill:none;stroke:#800;stroke-width:2"  />
  <line x1="-1200" y1="1500" x2="-900" y2="1500" style="stroke:#800;stroke-width:10;stroke-opacity:1.000000;stroke-linecap:round"/>
  <g transform="translate(-1085,1494) rotate(0)" > <text font-size="83.3333333333" fill="#800" font-family="monospace"  >
   9
  </text> </g> 
  <g transform="translate(-882,1535) rotate(0)" > <text font-size="83.3333333333" fill="#088" font-family="monospace"  >
   PLLF
  </text> </g> 
  <circle cx="-1200" cy="1500" r="10"
    style="fill:none;stroke:#800;stroke-width:2"  />
  <line x1="-1200" y1="1350" x2="-900" y2="1350" style="stroke:#800;stroke-width:10;stroke-opacity:1.000000;stroke-linecap:round"/>
  <g transform="translate(-1120,1344) rotate(0)" > <text font-size="83.3333333333" fill="#800" font-family="monospace"  >
   86
  </text> </g> 
  <g transform="translate(-882,1385) rotate(0)" > <text font-size="83.3333333333" fill="#088" font-family="monospace"  >
   ~BOOT_EN~/XF
  </text> </g> 
  <circle cx="-1200" cy="1350" r="10"
    style="fill:none;stroke:#800;stroke-width:2"  />
  <line x1="-1200" y1="1200" x2="-900" y2="1200" style="stroke:#800;stroke-width:10;stroke-opacity:1.000000;stroke-linecap:round"/>
  <g transform="translate(-1120,1194) rotate(0)" > <text font-size="83.3333333333" fill="#800" font-family="monospace"  >
   88
  </text> </g> 
  <g transform="translate(-882,1235) rotate(0)" > <text font-size="83.3333333333" fill="#088" font-family="monospace"  >
   XTAL2
  </text> </g> 
  <circle cx="-1200" cy="1200" r="10"
    style="fill:none;stroke:#800;stroke-width:2"  />
  <line x1="-860" y1="1100" x2="-900" y2="1140" style="stroke:#800;stroke-width:10;stroke-opacity:1.000000;stroke-linecap:round"/>
  <line x1="-900" y1="1140" x2="-900" y2="1060" style="stroke:#800;stroke-width:10;stroke-opacity:1.000000;stroke-linecap:round"/>
  <line x1="-900" y1="1060" x2="-860" y2="1100" style="stroke:#800;stroke-width:10;stroke-opacity:1.000000;stroke-linecap:round"/>
  <line x1="-1200" y1="1100" x2="-900" y2="1100" style="stroke:#800;stroke-width:10;stroke-opacity:1.000000;stroke-linecap:round"/>
  <g transform="translate(-1120,1094) rotate(0)" > <text font-size="83.3333333333" fill="#800" font-family="monospace"  >
   87
  </text> </g> 
  <g transform="translate(-882,1135) rotate(0)" > <text font-size="83.3333333333" fill="#088" font-family="monospace"  >
   XTAL/CLKIN
  </text> </g> 
  <circle cx="-1200" cy="1100" r="10"
    style="fill:none;stroke:#800;stroke-width:2"  />
  <line x1="-1200" y1="950" x2="-970" y2="950" style="stroke:#800;stroke-width:10;stroke-opacity:1.000000;stroke-linecap:round"/>
  <circle cx="-935" cy="950" r="35"
    style="fill:none;stroke:#800;stroke-width:10"  />
  <g transform="translate(-1120,944) rotate(0)" > <text font-size="83.3333333333" fill="#800" font-family="monospace"  >
   93
  </text> </g> 
  <g transform="translate(-882,985) rotate(0)" > <text font-size="83.3333333333" fill="#088" font-family="monospace"  >
   RESET
  </text> </g> 
  <circle cx="-1200" cy="950" r="10"
    style="fill:none;stroke:#800;stroke-width:2"  />
  <line x1="-1200" y1="800" x2="-900" y2="800" style="stroke:#800;stroke-width:10;stroke-opacity:1.000000;stroke-linecap:round"/>
  <g transform="translate(-1120,794) rotate(0)" > <text font-size="83.3333333333" fill="#800" font-family="monospace"  >
   23
  </text> </g> 
  <g transform="translate(-882,835) rotate(0)" > <text font-size="83.3333333333" fill="#088" font-family="monospace"  >
   SPI_TE-/IOPC5
  </text> </g> 
  <circle cx="-1200" cy="800" r="10"
    style="fill:none;stroke:#800;stroke-width:2"  />
  <line x1="-1200" y1="700" x2="-900" y2="700" style="stroke:#800;stroke-width:10;stroke-opacity:1.000000;stroke-linecap:round"/>
  <g transform="translate(-1120,694) rotate(0)" > <text font-size="83.3333333333" fill="#800" font-family="monospace"  >
   24
  </text> </g> 
  <g transform="translate(-882,735) rotate(0)" > <text font-size="83.3333333333" fill="#088" font-family="monospace"  >
   SPI_CLK/IOPC4
  </text> </g> 
  <circle cx="-1200" cy="700" r="10"
    style="fill:none;stroke:#800;stroke-width:2"  />
  <line x1="-1200" y1="600" x2="-900" y2="600" style="stroke:#800;stroke-width:10;stroke-opacity:1.000000;stroke-linecap:round"/>
  <g transform="translate(-1120,594) rotate(0)" > <text font-size="83.3333333333" fill="#800" font-family="monospace"  >
   22
  </text> </g> 
  <g transform="translate(-882,635) rotate(0)" > <text font-size="83.3333333333" fill="#088" font-family="monospace"  >
   SPI_SOMI/IOPC3
  </text> </g> 
  <circle cx="-1200" cy="600" r="10"
    style="fill:none;stroke:#800;stroke-width:2"  />
  <line x1="-1200" y1="500" x2="-900" y2="500" style="stroke:#800;stroke-width:10;stroke-opacity:1.000000;stroke-linecap:round"/>
  <g transform="translate(-1120,494) rotate(0)" > <text font-size="83.3333333333" fill="#800" font-family="monospace"  >
   21
  </text> </g> 
  <g transform="translate(-882,535) rotate(0)" > <text font-size="83.3333333333" fill="#088" font-family="monospace"  >
   SPI_SIMO/IOPC2
  </text> </g> 
  <circle cx="-1200" cy="500" r="10"
    style="fill:none;stroke:#800;stroke-width:2"  />
  <line x1="-1200" y1="350" x2="-900" y2="350" style="stroke:#800;stroke-width:10;stroke-opacity:1.000000;stroke-linecap:round"/>
  <g transform="translate(-1120,344) rotate(0)" > <text font-size="83.3333333333" fill="#800" font-family="monospace"  >
   18
  </text> </g> 
  <g transform="translate(-882,385) rotate(0)" > <text font-size="83.3333333333" fill="#088" font-family="monospace"  >
   RXD/IOPA1
  </text> </g> 
  <circle cx="-1200" cy="350" r="10"
    style="fill:none;stroke:#800;stroke-width:2"  />
  <line x1="-1200" y1="250" x2="-900" y2="250" style="stroke:#800;stroke-width:10;stroke-opacity:1.000000;stroke-linecap:round"/>
  <g transform="translate(-1120,244) rotate(0)" > <text font-size="83.3333333333" fill="#800" font-family="monospace"  >
   17
  </text> </g> 
  <g transform="translate(-882,285) rotate(0)" > <text font-size="83.3333333333" fill="#088" font-family="monospace"  >
   TXD/IOPA0
  </text> </g> 
  <circle cx="-1200" cy="250" r="10"
    style="fill:none;stroke:#800;stroke-width:2"  />
  <line x1="-1200" y1="100" x2="-900" y2="100" style="stroke:#800;stroke-width:10;stroke-opacity:1.000000;stroke-linecap:round"/>
  <g transform="translate(-1120,94) rotate(0)" > <text font-size="83.3333333333" fill="#800" font-family="monospace"  >
   50
  </text> </g> 
  <g transform="translate(-882,135) rotate(0)" > <text font-size="83.3333333333" fill="#088" font-family="monospace"  >
   CANTX/IOPC6
  </text> </g> 
  <circle cx="-1200" cy="100" r="10"
    style="fill:none;stroke:#800;stroke-width:2"  />
  <line x1="-1200" y1="0" x2="-900" y2="0" style="stroke:#800;stroke-width:10;stroke-opacity:1.000000;stroke-linecap:round"/>
  <g transform="translate(-1120,-6) rotate(0)" > <text font-size="83.3333333333" fill="#800" font-family="monospace"  >
   49
  </text> </g> 
  <g transform="translate(-882,35) rotate(0)" > <text font-size="83.3333333333" fill="#088" font-family="monospace"  >
   CANRX/IOPC7
  </text> </g> 
  <circle cx="-1200" cy="0" r="10"
    style="fill:none;stroke:#800;stroke-width:2"  />
  <line x1="-1200" y1="-150" x2="-900" y2="-150" style="stroke:#800;stroke-width:10;stroke-opacity:1.000000;stroke-linecap:round"/>
  <g transform="translate(-1120,-156) rotate(0)" > <text font-size="83.3333333333" fill="#800" font-family="monospace"  >
   84
  </text> </g> 
  <g transform="translate(-882,-115) rotate(0)" > <text font-size="83.3333333333" fill="#088" font-family="monospace"  >
   VSSA
  </text> </g> 
  <circle cx="-1200" cy="-150" r="10"
    style="fill:none;stroke:#800;stroke-width:2"  />
  <line x1="-1200" y1="-250" x2="-900" y2="-250" style="stroke:#800;stroke-width:10;stroke-opacity:1.000000;stroke-linecap:round"/>
  <g transform="translate(-1120,-256) rotate(0)" > <text font-size="83.3333333333" fill="#800" font-family="monospace"  >
   83
  </text> </g> 
  <g transform="translate(-882,-215) rotate(0)" > <text font-size="83.3333333333" fill="#088" font-family="monospace"  >
   VCCA
  </text> </g> 
  <circle cx="-1200" cy="-250" r="10"
    style="fill:none;stroke:#800;stroke-width:2"  />
  <line x1="-1200" y1="-400" x2="-900" y2="-400" style="stroke:#800;stroke-width:10;stroke-opacity:1.000000;stroke-linecap:round"/>
  <g transform="translate(-1120,-406) rotate(0)" > <text font-size="83.3333333333" fill="#800" font-family="monospace"  >
   81
  </text> </g> 
  <g transform="translate(-882,-365) rotate(0)" > <text font-size="83.3333333333" fill="#088" font-family="monospace"  >
   VrefLO
  </text> </g> 
  <circle cx="-1200" cy="-400" r="10"
    style="fill:none;stroke:#800;stroke-width:2"  />
  <line x1="-1200" y1="-500" x2="-900" y2="-500" style="stroke:#800;stroke-width:10;stroke-opacity:1.000000;stroke-linecap:round"/>
  <g transform="translate(-1120,-506) rotate(0)" > <text font-size="83.3333333333" fill="#800" font-family="monospace"  >
   82
  </text> </g> 
  <g transform="translate(-882,-465) rotate(0)" > <text font-size="83.3333333333" fill="#088" font-family="monospace"  >
   VrefHI
  </text> </g> 
  <circle cx="-1200" cy="-500" r="10"
    style="fill:none;stroke:#800;stroke-width:2"  />
  <line x1="-1200" y1="-650" x2="-900" y2="-650" style="stroke:#800;stroke-width:10;stroke-opacity:1.000000;stroke-linecap:round"/>
  <g transform="translate(-1120,-656) rotate(0)" > <text font-size="83.3333333333" fill="#800" font-family="monospace"  >
   65
  </text> </g> 
  <g transform="translate(-882,-615) rotate(0)" > <text font-size="83.3333333333" fill="#088" font-family="monospace"  >
   ADCIN15
  </text> </g> 
  <circle cx="-1200" cy="-650" r="10"
    style="fill:none;stroke:#800;stroke-width:2"  />
  <line x1="-1200" y1="-750" x2="-900" y2="-750" style="stroke:#800;stroke-width:10;stroke-opacity:1.000000;stroke-linecap:round"/>
  <g transform="translate(-1120,-756) rotate(0)" > <text font-size="83.3333333333" fill="#800" font-family="monospace"  >
   68
  </text> </g> 
  <g transform="translate(-882,-715) rotate(0)" > <text font-size="83.3333333333" fill="#088" font-family="monospace"  >
   ADCIN14
  </text> </g> 
  <circle cx="-1200" cy="-750" r="10"
    style="fill:none;stroke:#800;stroke-width:2"  />
  <line x1="-1200" y1="-850" x2="-900" y2="-850" style="stroke:#800;stroke-width:10;stroke-opacity:1.000000;stroke-linecap:round"/>
  <g transform="translate(-1120,-856) rotate(0)" > <text font-size="83.3333333333" fill="#800" font-family="monospace"  >
   71
  </text> </g> 
  <g transform="translate(-882,-815) rotate(0)" > <text font-size="83.3333333333" fill="#088" font-family="monospace"  >
   ADCIN13
  </text> </g> 
  <circle cx="-1200" cy="-850" r="10"
    style="fill:none;stroke:#800;stroke-width:2"  />
  <line x1="-1200" y1="-950" x2="-900" y2="-950" style="stroke:#800;stroke-width:10;stroke-opacity:1.000000;stroke-linecap:round"/>
  <g transform="translate(-1120,-956) rotate(0)" > <text font-size="83.3333333333" fill="#800" font-family="monospace"  >
   73
  </text> </g> 
  <g transform="translate(-882,-915) rotate(0)" > <text font-size="83.3333333333" fill="#088" font-family="monospace"  >
   ADCIN12
  </text> </g> 
  <circle cx="-1200" cy="-950" r="10"
    style="fill:none;stroke:#800;stroke-width:2"  />
  <line x1="-1200" y1="-1050" x2="-900" y2="-1050" style="stroke:#800;stroke-width:10;stroke-opacity:1.000000;stroke-linecap:round"/>
  <g transform="translate(-1120,-1056) rotate(0)" > <text font-size="83.3333333333" fill="#800" font-family="monospace"  >
   75
  </text> </g> 
  <g transform="translate(-882,-1015) rotate(0)" > <text font-size="83.3333333333" fill="#088" font-family="monospace"  >
   ADCIN11
  </text> </g> 
  <circle cx="-1200" cy="-1050" r="10"
    style="fill:none;stroke:#800;stroke-width:2"  />
  <line x1="-1200" y1="-1150" x2="-900" y2="-1150" style="stroke:#800;stroke-width:10;stroke-opacity:1.000000;stroke-linecap:round"/>
  <g transform="translate(-1120,-1156) rotate(0)" > <text font-size="83.3333333333" fill="#800" font-family="monospace"  >
   76
  </text> </g> 
  <g transform="translate(-882,-1115) rotate(0)" > <text font-size="83.3333333333" fill="#088" font-family="monospace"  >
   ADCIN10
  </text> </g> 
  <circle cx="-1200" cy="-1150" r="10"
    style="fill:none;stroke:#800;stroke-width:2"  />
  <line x1="-1200" y1="-1250" x2="-900" y2="-1250" style="stroke:#800;stroke-width:10;stroke-opacity:1.000000;stroke-linecap:round"/>
  <g transform="translate(-1120,-1256) rotate(0)" > <text font-size="83.3333333333" fill="#800" font-family="monospace"  >
   78
  </text> </g> 
  <g transform="translate(-882,-1215) rotate(0)" > <text font-size="83.3333333333" fill="#088" font-family="monospace"  >
   ADCIN09
  </text> </g> 
  <circle cx="-1200" cy="-1250" r="10"
    style="fill:none;stroke:#800;stroke-width:2"  />
  <line x1="-1200" y1="-1350" x2="-900" y2="-1350" style="stroke:#800;stroke-width:10;stroke-opacity:1.000000;stroke-linecap:round"/>
  <g transform="translate(-1120,-1356) rotate(0)" > <text font-size="83.3333333333" fill="#800" font-family="monospace"  >
   80
  </text> </g> 
  <g transform="translate(-882,-1315) rotate(0)" > <text font-size="83.3333333333" fill="#088" font-family="monospace"  >
   ADCIN08
  </text> </g> 
  <circle cx="-1200" cy="-1350" r="10"
    style="fill:none;stroke:#800;stroke-width:2"  />
  <line x1="-1200" y1="-1450" x2="-900" y2="-1450" style="stroke:#800;stroke-width:10;stroke-opacity:1.000000;stroke-linecap:round"/>
  <g transform="translate(-1120,-1456) rotate(0)" > <text font-size="83.3333333333" fill="#800" font-family="monospace"  >
   66
  </text> </g> 
  <g transform="translate(-882,-1415) rotate(0)" > <text font-size="83.3333333333" fill="#088" font-family="monospace"  >
   ADCIN07
  </text> </g> 
  <circle cx="-1200" cy="-1450" r="10"
    style="fill:none;stroke:#800;stroke-width:2"  />
  <line x1="-1200" y1="-1550" x2="-900" y2="-1550" style="stroke:#800;stroke-width:10;stroke-opacity:1.000000;stroke-linecap:round"/>
  <g transform="translate(-1120,-1556) rotate(0)" > <text font-size="83.3333333333" fill="#800" font-family="monospace"  >
   67
  </text> </g> 
  <g transform="translate(-882,-1515) rotate(0)" > <text font-size="83.3333333333" fill="#088" font-family="monospace"  >
   ADCIN06
  </text> </g> 
  <circle cx="-1200" cy="-1550" r="10"
    style="fill:none;stroke:#800;stroke-width:2"  />
  <line x1="-1200" y1="-1650" x2="-900" y2="-1650" style="stroke:#800;stroke-width:10;stroke-opacity:1.000000;stroke-linecap:round"/>
  <g transform="translate(-1120,-1656) rotate(0)" > <text font-size="83.3333333333" fill="#800" font-family="monospace"  >
   69
  </text> </g> 
  <g transform="translate(-882,-1615) rotate(0)" > <text font-size="83.3333333333" fill="#088" font-family="monospace"  >
   ADCIN05
  </text> </g> 
  <circle cx="-1200" cy="-1650" r="10"
    style="fill:none;stroke:#800;stroke-width:2"  />
  <line x1="-1200" y1="-1750" x2="-900" y2="-1750" style="stroke:#800;stroke-width:10;stroke-opacity:1.000000;stroke-linecap:round"/>
  <g transform="translate(-1120,-1756) rotate(0)" > <text font-size="83.3333333333" fill="#800" font-family="monospace"  >
   70
  </text> </g> 
  <g transform="translate(-882,-1715) rotate(0)" > <text font-size="83.3333333333" fill="#088" font-family="monospace"  >
   ADCIN04
  </text> </g> 
  <circle cx="-1200" cy="-1750" r="10"
    style="fill:none;stroke:#800;stroke-width:2"  />
  <line x1="-1200" y1="-1850" x2="-900" y2="-1850" style="stroke:#800;stroke-width:10;stroke-opacity:1.000000;stroke-linecap:round"/>
  <g transform="translate(-1120,-1856) rotate(0)" > <text font-size="83.3333333333" fill="#800" font-family="monospace"  >
   72
  </text> </g> 
  <g transform="translate(-882,-1815) rotate(0)" > <text font-size="83.3333333333" fill="#088" font-family="monospace"  >
   ADCIN03
  </text> </g> 
  <circle cx="-1200" cy="-1850" r="10"
    style="fill:none;stroke:#800;stroke-width:2"  />
  <line x1="-1200" y1="-1950" x2="-900" y2="-1950" style="stroke:#800;stroke-width:10;stroke-opacity:1.000000;stroke-linecap:round"/>
  <g transform="translate(-1120,-1956) rotate(0)" > <text font-size="83.3333333333" fill="#800" font-family="monospace"  >
   74
  </text> </g> 
  <g transform="translate(-882,-1915) rotate(0)" > <text font-size="83.3333333333" fill="#088" font-family="monospace"  >
   ADCIN02
  </text> </g> 
  <circle cx="-1200" cy="-1950" r="10"
    style="fill:none;stroke:#800;stroke-width:2"  />
  <line x1="-1200" y1="-2050" x2="-900" y2="-2050" style="stroke:#800;stroke-width:10;stroke-opacity:1.000000;stroke-linecap:round"/>
  <g transform="translate(-1120,-2056) rotate(0)" > <text font-size="83.3333333333" fill="#800" font-family="monospace"  >
   77
  </text> </g> 
  <g transform="translate(-882,-2015) rotate(0)" > <text font-size="83.3333333333" fill="#088" font-family="monospace"  >
   ADCIN01
  </text> </g> 
  <circle cx="-1200" cy="-2050" r="10"
    style="fill:none;stroke:#800;stroke-width:2"  />
  <line x1="-1200" y1="-2150" x2="-900" y2="-2150" style="stroke:#800;stroke-width:10;stroke-opacity:1.000000;stroke-linecap:round"/>
  <g transform="translate(-1120,-2156) rotate(0)" > <text font-size="83.3333333333" fill="#800" font-family="monospace"  >
   79
  </text> </g> 
  <g transform="translate(-882,-2115) rotate(0)" > <text font-size="83.3333333333" fill="#088" font-family="monospace"  >
   ADCIN00
  </text> </g> 
  <circle cx="-1200" cy="-2150" r="10"
    style="fill:none;stroke:#800;stroke-width:2"  />
  <g transform="translate(-407,2215) rotate(-90)" > <text font-size="50.0" fill="#888" font-family="monospace"  >
   19
  </text> </g> 
  <g transform="translate(-396,2175) rotate(-90)" > <text font-size="50.0" fill="#888" font-family="monospace"  >
   GND
  </text> </g> 
  <circle cx="-400" cy="2200" r="10"
    style="fill:none;stroke:#888;stroke-width:2"  />
  <g transform="translate(-357,2215) rotate(-90)" > <text font-size="50.0" fill="#888" font-family="monospace"  >
   34
  </text> </g> 
  <g transform="translate(-346,2175) rotate(-90)" > <text font-size="50.0" fill="#888" font-family="monospace"  >
   GND
  </text> </g> 
  <circle cx="-350" cy="2200" r="10"
    style="fill:none;stroke:#888;stroke-width:2"  />
  <g transform="translate(-307,2215) rotate(-90)" > <text font-size="50.0" fill="#888" font-family="monospace"  >
   58
  </text> </g> 
  <g transform="translate(-296,2175) rotate(-90)" > <text font-size="50.0" fill="#888" font-family="monospace"  >
   GND
  </text> </g> 
  <circle cx="-300" cy="2200" r="10"
    style="fill:none;stroke:#888;stroke-width:2"  />
  <g transform="translate(-257,2215) rotate(-90)" > <text font-size="50.0" fill="#888" font-family="monospace"  >
   90
  </text> </g> 
  <g transform="translate(-246,2175) rotate(-90)" > <text font-size="50.0" fill="#888" font-family="monospace"  >
   GND
  </text> </g> 
  <circle cx="-250" cy="2200" r="10"
    style="fill:none;stroke:#888;stroke-width:2"  />
  <g transform="translate(-157,2207) rotate(-90)" > <text font-size="50.0" fill="#888" font-family="monospace"  >
   3
  </text> </g> 
  <g transform="translate(-146,2175) rotate(-90)" > <text font-size="50.0" fill="#888" font-family="monospace"  >
   GND
  </text> </g> 
  <circle cx="-150" cy="2200" r="10"
    style="fill:none;stroke:#888;stroke-width:2"  />
  <g transform="translate(-107,2215) rotate(-90)" > <text font-size="50.0" fill="#888" font-family="monospace"  >
   29
  </text> </g> 
  <g transform="translate(-96,2175) rotate(-90)" > <text font-size="50.0" fill="#888" font-family="monospace"  >
   GND
  </text> </g> 
  <circle cx="-100" cy="2200" r="10"
    style="fill:none;stroke:#888;stroke-width:2"  />
  <g transform="translate(-57,2215) rotate(-90)" > <text font-size="50.0" fill="#888" font-family="monospace"  >
   46
  </text> </g> 
  <g transform="translate(-46,2175) rotate(-90)" > <text font-size="50.0" fill="#888" font-family="monospace"  >
   GND
  </text> </g> 
  <circle cx="-50" cy="2200" r="10"
    style="fill:none;stroke:#888;stroke-width:2"  />
  <g transform="translate(-7,2215) rotate(-90)" > <text font-size="50.0" fill="#888" font-family="monospace"  >
   53
  </text> </g> 
  <g transform="translate(3,2175) rotate(-90)" > <text font-size="50.0" fill="#888" font-family="monospace"  >
   GND
  </text> </g> 
  <circle cx="0" cy="2200" r="10"
    style="fill:none;stroke:#888;stroke-width:2"  />
  <g transform="translate(42,2215) rotate(-90)" > <text font-size="50.0" fill="#888" font-family="monospace"  >
   63
  </text> </g> 
  <g transform="translate(53,2175) rotate(-90)" > <text font-size="50.0" fill="#888" font-family="monospace"  >
   GND
  </text> </g> 
  <circle cx="50" cy="2200" r="10"
    style="fill:none;stroke:#888;stroke-width:2"  />
  <g transform="translate(92,2215) rotate(-90)" > <text font-size="50.0" fill="#888" font-family="monospace"  >
   97
  </text> </g> 
  <g transform="translate(103,2175) rotate(-90)" > <text font-size="50.0" fill="#888" font-family="monospace"  >
   GND
  </text> </g> 
  <circle cx="100" cy="2200" r="10"
    style="fill:none;stroke:#888;stroke-width:2"  />
 </g>
</svg>
