<?xml version="1.0"?>
<svg height="310" width="310"  >
 <g style="fill-opacity:1.0; stroke:black;
  stroke-width:1;" transform=" translate( 155.0,155.0 ) scale( 0.15,0.15 )">
  <g transform="translate(-35,-15) rotate(0)" > <text font-size="116.666666667" fill="#088" font-family="monospace"  >
   D
  </text> </g> 
  <g transform="translate(-210,85) rotate(0)" > <text font-size="116.666666667" fill="#088" font-family="monospace"  >
   BRIDGE
  </text> </g> 
  <line x1="-550" y1="0" x2="-350" y2="200" style="stroke:#800;stroke-width:10;stroke-opacity:1.000000;stroke-linecap:round"/>
  <line x1="-550" y1="0" x2="-350" y2="-200" style="stroke:#800;stroke-width:10;stroke-opacity:1.000000;stroke-linecap:round"/>
  <line x1="-300" y1="-450" x2="-100" y2="-250" style="stroke:#800;stroke-width:10;stroke-opacity:1.000000;stroke-linecap:round"/>
  <line x1="-100" y1="250" x2="-300" y2="450" style="stroke:#800;stroke-width:10;stroke-opacity:1.000000;stroke-linecap:round"/>
  <line x1="-100" y1="250" x2="-300" y2="450" style="stroke:#800;stroke-width:10;stroke-opacity:1.000000;stroke-linecap:round"/>
  <line x1="0" y1="550" x2="200" y2="350" style="stroke:#800;stroke-width:10;stroke-opacity:1.000000;stroke-linecap:round"/>
  <line x1="0" y1="550" x2="200" y2="350" style="stroke:#800;stroke-width:10;stroke-opacity:1.000000;stroke-linecap:round"/>
  <line x1="0" y1="-550" x2="200" y2="-350" style="stroke:#800;stroke-width:10;stroke-opacity:1.000000;stroke-linecap:round"/>
  <line x1="250" y1="100" x2="450" y2="300" style="stroke:#800;stroke-width:10;stroke-opacity:1.000000;stroke-linecap:round"/>
  <line x1="350" y1="-200" x2="550" y2="0" style="stroke:#800;stroke-width:10;stroke-opacity:1.000000;stroke-linecap:round"/>
  <line x1="450" y1="-300" x2="250" y2="-100" style="stroke:#800;stroke-width:10;stroke-opacity:1.000000;stroke-linecap:round"/>
  <line x1="450" y1="-300" x2="250" y2="-100" style="stroke:#800;stroke-width:10;stroke-opacity:1.000000;stroke-linecap:round"/>
  <line x1="550" y1="0" x2="350" y2="200" style="stroke:#800;stroke-width:10;stroke-opacity:1.000000;stroke-linecap:round"/>
<polygon points=" -450,-300 -200,-350 -250,-100 -450,-300 -450,-300" 
style="fill:#800;stroke:#800;stroke-width:10"/>
<polygon points=" -250,100 -200,350 -450,300 -250,100 -250,100" 
style="fill:#800;stroke:#800;stroke-width:10"/>
<polygon points=" 100,250 350,200 300,450 100,250 100,250" 
style="fill:#800;stroke:#800;stroke-width:10"/>
<polygon points=" 300,-450 350,-200 100,-250 300,-450 300,-450" 
style="fill:#800;stroke:#800;stroke-width:10"/>
  <line x1="-200" y1="350" x2="0" y2="550" style="stroke:#800;stroke-width:10;stroke-opacity:1.000000;stroke-linecap:round"/>
  <line x1="-200" y1="-350" x2="0" y2="-550" style="stroke:#800;stroke-width:10;stroke-opacity:1.000000;stroke-linecap:round"/>
  <line x1="-850" y1="0" x2="-550" y2="0" style="stroke:#800;stroke-width:10;stroke-opacity:1.000000;stroke-linecap:round"/>
  <g transform="translate(-749,-6) rotate(0)" > <text font-size="116.666666667" fill="#800" font-family="monospace"  >
   1
  </text> </g> 
  <g transform="translate(-532,45) rotate(0)" > <text font-size="116.666666667" fill="#088" font-family="monospace"  >
   -
  </text> </g> 
  <circle cx="-850" cy="0" r="10"
    style="fill:none;stroke:#800;stroke-width:2"  />
  <line x1="0" y1="850" x2="0" y2="550" style="stroke:#800;stroke-width:10;stroke-opacity:1.000000;stroke-linecap:round"/>
  <g transform="translate(-17,717) rotate(-90)" > <text font-size="116.666666667" fill="#800" font-family="monospace"  >
   2
  </text> </g> 
  <circle cx="0" cy="850" r="10"
    style="fill:none;stroke:#800;stroke-width:2"  />
  <line x1="850" y1="0" x2="550" y2="0" style="stroke:#800;stroke-width:10;stroke-opacity:1.000000;stroke-linecap:round"/>
  <g transform="translate(650,-6) rotate(0)" > <text font-size="116.666666667" fill="#800" font-family="monospace"  >
   3
  </text> </g> 
  <g transform="translate(440,45) rotate(0)" > <text font-size="116.666666667" fill="#088" font-family="monospace"  >
   +
  </text> </g> 
  <circle cx="850" cy="0" r="10"
    style="fill:none;stroke:#800;stroke-width:2"  />
  <line x1="0" y1="-850" x2="0" y2="-550" style="stroke:#800;stroke-width:10;stroke-opacity:1.000000;stroke-linecap:round"/>
  <g transform="translate(-17,-682) rotate(-90)" > <text font-size="116.666666667" fill="#800" font-family="monospace"  >
   4
  </text> </g> 
  <circle cx="0" cy="-850" r="10"
    style="fill:none;stroke:#800;stroke-width:2"  />
 </g>
</svg>
