<?xml version="1.0"?>
<svg height="607" width="580"  >
 <g style="fill-opacity:1.0; stroke:black;
  stroke-width:1;" transform=" translate( 290.0,303.5 ) scale( 0.15,0.15 )">
  <g transform="translate(-1080,-720) rotate(0)" > <text font-size="100.0" fill="#088" font-family="monospace"  >
   S
  </text> </g> 
  <g transform="translate(-50,780) rotate(0)" > <text font-size="100.0" fill="#088" font-family="monospace"  >
   DISPLAY_BL
  </text> </g> 
  <rect x="-1550" y="-700" height="1400"
    width="2750" style="fill:none;stroke:#800;stroke-width:10" />
  <line x1="-1050" y1="0" x2="-600" y2="0" style="stroke:#800;stroke-width:10;stroke-opacity:1.000000;stroke-linecap:round"/>
  <line x1="-500" y1="0" x2="-50" y2="0" style="stroke:#800;stroke-width:10;stroke-opacity:1.000000;stroke-linecap:round"/>
  <line x1="50" y1="0" x2="500" y2="0" style="stroke:#800;stroke-width:10;stroke-opacity:1.000000;stroke-linecap:round"/>
  <line x1="600" y1="0" x2="1050" y2="0" style="stroke:#800;stroke-width:10;stroke-opacity:1.000000;stroke-linecap:round"/>
<polygon points=" 1080,100 1130,150 1180,100" 
style="fill:#800;stroke:#800;stroke-width:10"/>
  <line x1="1130" y1="160" x2="1130" y2="300" style="stroke:#800;stroke-width:10;stroke-opacity:1.000000;stroke-linecap:round"/>
  <line x1="1130" y1="300" x2="1200" y2="300" style="stroke:#800;stroke-width:10;stroke-opacity:1.000000;stroke-linecap:round"/>
  <line x1="1130" y1="100" x2="1130" y2="-100" style="stroke:#800;stroke-width:10;stroke-opacity:1.000000;stroke-linecap:round"/>
  <line x1="1130" y1="-100" x2="1200" y2="-100" style="stroke:#800;stroke-width:10;stroke-opacity:1.000000;stroke-linecap:round"/>
<polygon points=" 1080,150 1180,150 1180,160 1080,160" 
style="fill:#800;stroke:#800;stroke-width:10"/>
  <line x1="-1100" y1="550" x2="-1000" y2="-550" style="stroke:#800;stroke-width:10;stroke-opacity:1.000000;stroke-linecap:round"/>
  <line x1="-1000" y1="-550" x2="-550" y2="-550" style="stroke:#800;stroke-width:10;stroke-opacity:1.000000;stroke-linecap:round"/>
  <line x1="-550" y1="-550" x2="-650" y2="550" style="stroke:#800;stroke-width:10;stroke-opacity:1.000000;stroke-linecap:round"/>
  <line x1="-650" y1="550" x2="-1100" y2="550" style="stroke:#800;stroke-width:10;stroke-opacity:1.000000;stroke-linecap:round"/>
  <line x1="-550" y1="550" x2="-450" y2="-550" style="stroke:#800;stroke-width:10;stroke-opacity:1.000000;stroke-linecap:round"/>
  <line x1="-450" y1="-550" x2="0" y2="-550" style="stroke:#800;stroke-width:10;stroke-opacity:1.000000;stroke-linecap:round"/>
  <line x1="0" y1="-550" x2="-100" y2="550" style="stroke:#800;stroke-width:10;stroke-opacity:1.000000;stroke-linecap:round"/>
  <line x1="-100" y1="550" x2="-550" y2="550" style="stroke:#800;stroke-width:10;stroke-opacity:1.000000;stroke-linecap:round"/>
  <line x1="0" y1="550" x2="100" y2="-550" style="stroke:#800;stroke-width:10;stroke-opacity:1.000000;stroke-linecap:round"/>
  <line x1="100" y1="-550" x2="550" y2="-550" style="stroke:#800;stroke-width:10;stroke-opacity:1.000000;stroke-linecap:round"/>
  <line x1="550" y1="-550" x2="450" y2="550" style="stroke:#800;stroke-width:10;stroke-opacity:1.000000;stroke-linecap:round"/>
  <line x1="450" y1="550" x2="0" y2="550" style="stroke:#800;stroke-width:10;stroke-opacity:1.000000;stroke-linecap:round"/>
  <line x1="650" y1="-550" x2="550" y2="550" style="stroke:#800;stroke-width:10;stroke-opacity:1.000000;stroke-linecap:round"/>
  <line x1="550" y1="550" x2="1000" y2="550" style="stroke:#800;stroke-width:10;stroke-opacity:1.000000;stroke-linecap:round"/>
  <line x1="1000" y1="550" x2="1100" y2="-550" style="stroke:#800;stroke-width:10;stroke-opacity:1.000000;stroke-linecap:round"/>
  <line x1="1100" y1="-550" x2="650" y2="-550" style="stroke:#800;stroke-width:10;stroke-opacity:1.000000;stroke-linecap:round"/>
  <line x1="-1800" y1="-650" x2="-1550" y2="-650" style="stroke:#800;stroke-width:10;stroke-opacity:1.000000;stroke-linecap:round"/>
  <g transform="translate(-1710,-656) rotate(0)" > <text font-size="83.3333333333" fill="#800" font-family="monospace"  >
   1
  </text> </g> 
  <g transform="translate(-1532,-615) rotate(0)" > <text font-size="83.3333333333" fill="#088" font-family="monospace"  >
   GND
  </text> </g> 
  <circle cx="-1800" cy="-650" r="10"
    style="fill:none;stroke:#800;stroke-width:2"  />
  <line x1="-1800" y1="-550" x2="-1550" y2="-550" style="stroke:#800;stroke-width:10;stroke-opacity:1.000000;stroke-linecap:round"/>
  <g transform="translate(-1710,-556) rotate(0)" > <text font-size="83.3333333333" fill="#800" font-family="monospace"  >
   2
  </text> </g> 
  <g transform="translate(-1532,-515) rotate(0)" > <text font-size="83.3333333333" fill="#088" font-family="monospace"  >
   VCC
  </text> </g> 
  <circle cx="-1800" cy="-550" r="10"
    style="fill:none;stroke:#800;stroke-width:2"  />
  <line x1="-1800" y1="-450" x2="-1550" y2="-450" style="stroke:#800;stroke-width:10;stroke-opacity:1.000000;stroke-linecap:round"/>
  <g transform="translate(-1710,-456) rotate(0)" > <text font-size="83.3333333333" fill="#800" font-family="monospace"  >
   3
  </text> </g> 
  <g transform="translate(-1532,-415) rotate(0)" > <text font-size="83.3333333333" fill="#088" font-family="monospace"  >
   VLCD
  </text> </g> 
  <circle cx="-1800" cy="-450" r="10"
    style="fill:none;stroke:#800;stroke-width:2"  />
  <line x1="-1800" y1="-350" x2="-1550" y2="-350" style="stroke:#800;stroke-width:10;stroke-opacity:1.000000;stroke-linecap:round"/>
  <g transform="translate(-1710,-356) rotate(0)" > <text font-size="83.3333333333" fill="#800" font-family="monospace"  >
   4
  </text> </g> 
  <g transform="translate(-1532,-315) rotate(0)" > <text font-size="83.3333333333" fill="#088" font-family="monospace"  >
   RS
  </text> </g> 
  <circle cx="-1800" cy="-350" r="10"
    style="fill:none;stroke:#800;stroke-width:2"  />
  <line x1="-1800" y1="-250" x2="-1550" y2="-250" style="stroke:#800;stroke-width:10;stroke-opacity:1.000000;stroke-linecap:round"/>
  <g transform="translate(-1710,-256) rotate(0)" > <text font-size="83.3333333333" fill="#800" font-family="monospace"  >
   5
  </text> </g> 
  <g transform="translate(-1532,-215) rotate(0)" > <text font-size="83.3333333333" fill="#088" font-family="monospace"  >
   R/W
  </text> </g> 
  <circle cx="-1800" cy="-250" r="10"
    style="fill:none;stroke:#800;stroke-width:2"  />
  <line x1="-1800" y1="-150" x2="-1550" y2="-150" style="stroke:#800;stroke-width:10;stroke-opacity:1.000000;stroke-linecap:round"/>
  <g transform="translate(-1710,-156) rotate(0)" > <text font-size="83.3333333333" fill="#800" font-family="monospace"  >
   6
  </text> </g> 
  <g transform="translate(-1532,-115) rotate(0)" > <text font-size="83.3333333333" fill="#088" font-family="monospace"  >
   CS
  </text> </g> 
  <circle cx="-1800" cy="-150" r="10"
    style="fill:none;stroke:#800;stroke-width:2"  />
  <line x1="-1800" y1="-50" x2="-1550" y2="-50" style="stroke:#800;stroke-width:10;stroke-opacity:1.000000;stroke-linecap:round"/>
  <g transform="translate(-1710,-56) rotate(0)" > <text font-size="83.3333333333" fill="#800" font-family="monospace"  >
   7
  </text> </g> 
  <g transform="translate(-1532,-15) rotate(0)" > <text font-size="83.3333333333" fill="#088" font-family="monospace"  >
   D0
  </text> </g> 
  <circle cx="-1800" cy="-50" r="10"
    style="fill:none;stroke:#800;stroke-width:2"  />
  <line x1="-1800" y1="50" x2="-1550" y2="50" style="stroke:#800;stroke-width:10;stroke-opacity:1.000000;stroke-linecap:round"/>
  <g transform="translate(-1710,44) rotate(0)" > <text font-size="83.3333333333" fill="#800" font-family="monospace"  >
   8
  </text> </g> 
  <g transform="translate(-1532,85) rotate(0)" > <text font-size="83.3333333333" fill="#088" font-family="monospace"  >
   D1
  </text> </g> 
  <circle cx="-1800" cy="50" r="10"
    style="fill:none;stroke:#800;stroke-width:2"  />
  <line x1="-1800" y1="150" x2="-1550" y2="150" style="stroke:#800;stroke-width:10;stroke-opacity:1.000000;stroke-linecap:round"/>
  <g transform="translate(-1710,144) rotate(0)" > <text font-size="83.3333333333" fill="#800" font-family="monospace"  >
   9
  </text> </g> 
  <g transform="translate(-1532,185) rotate(0)" > <text font-size="83.3333333333" fill="#088" font-family="monospace"  >
   D2
  </text> </g> 
  <circle cx="-1800" cy="150" r="10"
    style="fill:none;stroke:#800;stroke-width:2"  />
  <line x1="1500" y1="-100" x2="1200" y2="-100" style="stroke:#800;stroke-width:10;stroke-opacity:1.000000;stroke-linecap:round"/>
  <g transform="translate(1307,-106) rotate(0)" > <text font-size="100.0" fill="#800" font-family="monospace"  >
   A
  </text> </g> 
  <circle cx="1500" cy="-100" r="10"
    style="fill:none;stroke:#800;stroke-width:2"  />
  <line x1="1500" y1="300" x2="1200" y2="300" style="stroke:#800;stroke-width:10;stroke-opacity:1.000000;stroke-linecap:round"/>
  <g transform="translate(1307,294) rotate(0)" > <text font-size="100.0" fill="#800" font-family="monospace"  >
   K
  </text> </g> 
  <circle cx="1500" cy="300" r="10"
    style="fill:none;stroke:#800;stroke-width:2"  />
  <line x1="-1800" y1="250" x2="-1550" y2="250" style="stroke:#800;stroke-width:10;stroke-opacity:1.000000;stroke-linecap:round"/>
  <g transform="translate(-1745,244) rotate(0)" > <text font-size="83.3333333333" fill="#800" font-family="monospace"  >
   10
  </text> </g> 
  <g transform="translate(-1532,285) rotate(0)" > <text font-size="83.3333333333" fill="#088" font-family="monospace"  >
   D3
  </text> </g> 
  <circle cx="-1800" cy="250" r="10"
    style="fill:none;stroke:#800;stroke-width:2"  />
  <line x1="-1800" y1="350" x2="-1550" y2="350" style="stroke:#800;stroke-width:10;stroke-opacity:1.000000;stroke-linecap:round"/>
  <g transform="translate(-1745,344) rotate(0)" > <text font-size="83.3333333333" fill="#800" font-family="monospace"  >
   11
  </text> </g> 
  <g transform="translate(-1532,385) rotate(0)" > <text font-size="83.3333333333" fill="#088" font-family="monospace"  >
   D4
  </text> </g> 
  <circle cx="-1800" cy="350" r="10"
    style="fill:none;stroke:#800;stroke-width:2"  />
  <line x1="-1800" y1="450" x2="-1550" y2="450" style="stroke:#800;stroke-width:10;stroke-opacity:1.000000;stroke-linecap:round"/>
  <g transform="translate(-1745,444) rotate(0)" > <text font-size="83.3333333333" fill="#800" font-family="monospace"  >
   12
  </text> </g> 
  <g transform="translate(-1532,485) rotate(0)" > <text font-size="83.3333333333" fill="#088" font-family="monospace"  >
   D5
  </text> </g> 
  <circle cx="-1800" cy="450" r="10"
    style="fill:none;stroke:#800;stroke-width:2"  />
  <line x1="-1800" y1="550" x2="-1550" y2="550" style="stroke:#800;stroke-width:10;stroke-opacity:1.000000;stroke-linecap:round"/>
  <g transform="translate(-1745,544) rotate(0)" > <text font-size="83.3333333333" fill="#800" font-family="monospace"  >
   13
  </text> </g> 
  <g transform="translate(-1532,585) rotate(0)" > <text font-size="83.3333333333" fill="#088" font-family="monospace"  >
   D6
  </text> </g> 
  <circle cx="-1800" cy="550" r="10"
    style="fill:none;stroke:#800;stroke-width:2"  />
  <line x1="-1800" y1="650" x2="-1550" y2="650" style="stroke:#800;stroke-width:10;stroke-opacity:1.000000;stroke-linecap:round"/>
  <g transform="translate(-1745,644) rotate(0)" > <text font-size="83.3333333333" fill="#800" font-family="monospace"  >
   14
  </text> </g> 
  <g transform="translate(-1532,685) rotate(0)" > <text font-size="83.3333333333" fill="#088" font-family="monospace"  >
   D7
  </text> </g> 
  <circle cx="-1800" cy="650" r="10"
    style="fill:none;stroke:#800;stroke-width:2"  />
 </g>
</svg>
