<?xml version="1.0"?>
<svg height="125" width="116"  >
 <g style="fill-opacity:1.0; stroke:black;
  stroke-width:1;" transform=" translate( 58.25,62.75 ) scale( 0.15,0.15 )">
  <g transform="translate(10,120) rotate(0)" > <text font-size="66.6666666667" fill="#088" font-family="monospace"  >
   JP
  </text> </g> 
  <g transform="translate(-140,-80) rotate(0)" > <text font-size="66.6666666667" fill="#088" font-family="monospace"  >
   JUMPER3
  </text> </g> 
  <line x1="-9" y1="-49" x2="-13" y2="-54" style="stroke:#800;stroke-width:10;stroke-opacity:1.000000;stroke-linecap:round"/>
  <line x1="-13" y1="-54" x2="-18" y2="-58" style="stroke:#800;stroke-width:10;stroke-opacity:1.000000;stroke-linecap:round"/>
  <line x1="-18" y1="-58" x2="-23" y2="-62" style="stroke:#800;stroke-width:10;stroke-opacity:1.000000;stroke-linecap:round"/>
  <line x1="-23" y1="-62" x2="-28" y2="-65" style="stroke:#800;stroke-width:10;stroke-opacity:1.000000;stroke-linecap:round"/>
  <line x1="-28" y1="-65" x2="-33" y2="-68" style="stroke:#800;stroke-width:10;stroke-opacity:1.000000;stroke-linecap:round"/>
  <line x1="-33" y1="-68" x2="-39" y2="-70" style="stroke:#800;stroke-width:10;stroke-opacity:1.000000;stroke-linecap:round"/>
  <line x1="-39" y1="-70" x2="-44" y2="-72" style="stroke:#800;stroke-width:10;stroke-opacity:1.000000;stroke-linecap:round"/>
  <line x1="-44" y1="-72" x2="-50" y2="-73" style="stroke:#800;stroke-width:10;stroke-opacity:1.000000;stroke-linecap:round"/>
  <line x1="-50" y1="-73" x2="-56" y2="-73" style="stroke:#800;stroke-width:10;stroke-opacity:1.000000;stroke-linecap:round"/>
  <line x1="-56" y1="-73" x2="-62" y2="-73" style="stroke:#800;stroke-width:10;stroke-opacity:1.000000;stroke-linecap:round"/>
  <line x1="-62" y1="-73" x2="-68" y2="-73" style="stroke:#800;stroke-width:10;stroke-opacity:1.000000;stroke-linecap:round"/>
  <line x1="-68" y1="-73" x2="-74" y2="-72" style="stroke:#800;stroke-width:10;stroke-opacity:1.000000;stroke-linecap:round"/>
  <line x1="-74" y1="-72" x2="-80" y2="-70" style="stroke:#800;stroke-width:10;stroke-opacity:1.000000;stroke-linecap:round"/>
  <line x1="-80" y1="-70" x2="-86" y2="-68" style="stroke:#800;stroke-width:10;stroke-opacity:1.000000;stroke-linecap:round"/>
  <line x1="-86" y1="-68" x2="-91" y2="-65" style="stroke:#800;stroke-width:10;stroke-opacity:1.000000;stroke-linecap:round"/>
  <line x1="-91" y1="-65" x2="-96" y2="-62" style="stroke:#800;stroke-width:10;stroke-opacity:1.000000;stroke-linecap:round"/>
  <line x1="-96" y1="-62" x2="-101" y2="-58" style="stroke:#800;stroke-width:10;stroke-opacity:1.000000;stroke-linecap:round"/>
  <line x1="-101" y1="-58" x2="-105" y2="-54" style="stroke:#800;stroke-width:10;stroke-opacity:1.000000;stroke-linecap:round"/>
  <line x1="-105" y1="-54" x2="-109" y2="-50" style="stroke:#800;stroke-width:10;stroke-opacity:1.000000;stroke-linecap:round"/>
  <line x1="110" y1="-49" x2="106" y2="-54" style="stroke:#800;stroke-width:10;stroke-opacity:1.000000;stroke-linecap:round"/>
  <line x1="106" y1="-54" x2="101" y2="-58" style="stroke:#800;stroke-width:10;stroke-opacity:1.000000;stroke-linecap:round"/>
  <line x1="101" y1="-58" x2="96" y2="-62" style="stroke:#800;stroke-width:10;stroke-opacity:1.000000;stroke-linecap:round"/>
  <line x1="96" y1="-62" x2="91" y2="-65" style="stroke:#800;stroke-width:10;stroke-opacity:1.000000;stroke-linecap:round"/>
  <line x1="91" y1="-65" x2="86" y2="-68" style="stroke:#800;stroke-width:10;stroke-opacity:1.000000;stroke-linecap:round"/>
  <line x1="86" y1="-68" x2="80" y2="-70" style="stroke:#800;stroke-width:10;stroke-opacity:1.000000;stroke-linecap:round"/>
  <line x1="80" y1="-70" x2="75" y2="-72" style="stroke:#800;stroke-width:10;stroke-opacity:1.000000;stroke-linecap:round"/>
  <line x1="75" y1="-72" x2="69" y2="-73" style="stroke:#800;stroke-width:10;stroke-opacity:1.000000;stroke-linecap:round"/>
  <line x1="69" y1="-73" x2="63" y2="-73" style="stroke:#800;stroke-width:10;stroke-opacity:1.000000;stroke-linecap:round"/>
  <line x1="63" y1="-73" x2="57" y2="-73" style="stroke:#800;stroke-width:10;stroke-opacity:1.000000;stroke-linecap:round"/>
  <line x1="57" y1="-73" x2="51" y2="-73" style="stroke:#800;stroke-width:10;stroke-opacity:1.000000;stroke-linecap:round"/>
  <line x1="51" y1="-73" x2="45" y2="-72" style="stroke:#800;stroke-width:10;stroke-opacity:1.000000;stroke-linecap:round"/>
  <line x1="45" y1="-72" x2="39" y2="-70" style="stroke:#800;stroke-width:10;stroke-opacity:1.000000;stroke-linecap:round"/>
  <line x1="39" y1="-70" x2="33" y2="-68" style="stroke:#800;stroke-width:10;stroke-opacity:1.000000;stroke-linecap:round"/>
  <line x1="33" y1="-68" x2="28" y2="-65" style="stroke:#800;stroke-width:10;stroke-opacity:1.000000;stroke-linecap:round"/>
  <line x1="28" y1="-65" x2="23" y2="-62" style="stroke:#800;stroke-width:10;stroke-opacity:1.000000;stroke-linecap:round"/>
  <line x1="23" y1="-62" x2="18" y2="-58" style="stroke:#800;stroke-width:10;stroke-opacity:1.000000;stroke-linecap:round"/>
  <line x1="18" y1="-58" x2="14" y2="-54" style="stroke:#800;stroke-width:10;stroke-opacity:1.000000;stroke-linecap:round"/>
  <line x1="14" y1="-54" x2="10" y2="-50" style="stroke:#800;stroke-width:10;stroke-opacity:1.000000;stroke-linecap:round"/>
  <circle cx="-120" cy="0" r="35"
    style="fill:none;stroke:#800;stroke-width:10"  />
  <circle cx="0" cy="0" r="36"
    style="fill:none;stroke:#800;stroke-width:10"  />
  <circle cx="120" cy="0" r="35"
    style="fill:none;stroke:#800;stroke-width:10"  />
  <line x1="-250" y1="0" x2="-155" y2="0" style="stroke:#800;stroke-width:10;stroke-opacity:1.000000;stroke-linecap:round"/>
  <g transform="translate(-230,-6) rotate(0)" > <text font-size="66.6666666667" fill="#800" font-family="monospace"  >
   1
  </text> </g> 
  <circle cx="-250" cy="0" r="10"
    style="fill:none;stroke:#800;stroke-width:2"  />
  <line x1="0" y1="100" x2="0" y2="40" style="stroke:#800;stroke-width:10;stroke-opacity:1.000000;stroke-linecap:round"/>
  <g transform="translate(-10,80) rotate(-90)" > <text font-size="66.6666666667" fill="#800" font-family="monospace"  >
   2
  </text> </g> 
  <circle cx="0" cy="100" r="10"
    style="fill:none;stroke:#800;stroke-width:2"  />
  <line x1="250" y1="0" x2="155" y2="0" style="stroke:#800;stroke-width:10;stroke-opacity:1.000000;stroke-linecap:round"/>
  <g transform="translate(174,-6) rotate(0)" > <text font-size="66.6666666667" fill="#800" font-family="monospace"  >
   3
  </text> </g> 
  <circle cx="250" cy="0" r="10"
    style="fill:none;stroke:#800;stroke-width:2"  />
 </g>
</svg>
