<?xml version="1.0"?>
<svg height="438" width="438"  >
 <g style="fill-opacity:1.0; stroke:black;
  stroke-width:1;" transform=" translate( 219.25,219.25 ) scale( 0.15,0.15 )">
  <g transform="translate(-425,-275) rotate(0)" > <text font-size="83.3333333333" fill="#088" font-family="monospace"  >
   U
  </text> </g> 
  <g transform="translate(-200,325) rotate(0)" > <text font-size="83.3333333333" fill="#088" font-family="monospace"  >
   PIC10F222-I/MC
  </text> </g> 
  <rect x="-450" y="-250" height="500"
    width="900" style="fill:none;stroke:#800;stroke-width:10" />
  <line x1="-600" y1="-150" x2="-450" y2="-150" style="stroke:#800;stroke-width:10;stroke-opacity:1.000000;stroke-linecap:round"/>
  <g transform="translate(-553,-156) rotate(0)" > <text font-size="66.6666666667" fill="#800" font-family="monospace"  >
   2
  </text> </g> 
  <g transform="translate(-432,-120) rotate(0)" > <text font-size="66.6666666667" fill="#088" font-family="monospace"  >
   VDD
  </text> </g> 
  <circle cx="-600" cy="-150" r="10"
    style="fill:none;stroke:#800;stroke-width:2"  />
  <line x1="600" y1="50" x2="450" y2="50" style="stroke:#800;stroke-width:10;stroke-opacity:1.000000;stroke-linecap:round"/>
  <g transform="translate(496,44) rotate(0)" > <text font-size="66.6666666667" fill="#800" font-family="monospace"  >
   3
  </text> </g> 
  <g transform="translate(-190,80) rotate(0)" > <text font-size="66.6666666667" fill="#088" font-family="monospace"  >
   GP2/T0CKI/FOSC4
  </text> </g> 
  <circle cx="600" cy="50" r="10"
    style="fill:none;stroke:#800;stroke-width:2"  />
  <line x1="600" y1="-50" x2="450" y2="-50" style="stroke:#800;stroke-width:10;stroke-opacity:1.000000;stroke-linecap:round"/>
  <g transform="translate(496,-56) rotate(0)" > <text font-size="66.6666666667" fill="#800" font-family="monospace"  >
   4
  </text> </g> 
  <g transform="translate(-190,-20) rotate(0)" > <text font-size="66.6666666667" fill="#088" font-family="monospace"  >
   GP1/AN1/ICSPCLK
  </text> </g> 
  <circle cx="600" cy="-50" r="10"
    style="fill:none;stroke:#800;stroke-width:2"  />
  <line x1="600" y1="-150" x2="450" y2="-150" style="stroke:#800;stroke-width:10;stroke-opacity:1.000000;stroke-linecap:round"/>
  <g transform="translate(496,-156) rotate(0)" > <text font-size="66.6666666667" fill="#800" font-family="monospace"  >
   5
  </text> </g> 
  <g transform="translate(-190,-120) rotate(0)" > <text font-size="66.6666666667" fill="#088" font-family="monospace"  >
   GP0/AN0/ICSPDAT
  </text> </g> 
  <circle cx="600" cy="-150" r="10"
    style="fill:none;stroke:#800;stroke-width:2"  />
  <line x1="-600" y1="150" x2="-450" y2="150" style="stroke:#800;stroke-width:10;stroke-opacity:1.000000;stroke-linecap:round"/>
  <g transform="translate(-553,144) rotate(0)" > <text font-size="66.6666666667" fill="#800" font-family="monospace"  >
   7
  </text> </g> 
  <g transform="translate(-432,180) rotate(0)" > <text font-size="66.6666666667" fill="#088" font-family="monospace"  >
   VSS
  </text> </g> 
  <circle cx="-600" cy="150" r="10"
    style="fill:none;stroke:#800;stroke-width:2"  />
  <line x1="600" y1="150" x2="450" y2="150" style="stroke:#800;stroke-width:10;stroke-opacity:1.000000;stroke-linecap:round"/>
  <g transform="translate(496,144) rotate(0)" > <text font-size="66.6666666667" fill="#800" font-family="monospace"  >
   8
  </text> </g> 
  <g transform="translate(-150,180) rotate(0)" > <text font-size="66.6666666667" fill="#088" font-family="monospace"  >
   GP3/~MCLR~/Vpp
  </text> </g> 
  <circle cx="600" cy="150" r="10"
    style="fill:none;stroke:#800;stroke-width:2"  />
 </g>
</svg>
