<?xml version="1.0"?>
<svg height="275" width="275"  >
 <g style="fill-opacity:1.0; stroke:black;
  stroke-width:1;" transform=" translate( 137.5,137.5 ) scale( 0.15,0.15 )">
  <g transform="translate(-320,-380) rotate(0)" > <text font-size="66.6666666667" fill="#088" font-family="monospace"  >
   U
  </text> </g> 
  <g transform="translate(-520,-330) rotate(0)" > <text font-size="66.6666666667" fill="#088" font-family="monospace"  >
   MAX5035AUPA
  </text> </g> 
  <rect x="-300" y="-300" height="600"
    width="600" style="fill:none;stroke:#800;stroke-width:10" />
  <line x1="450" y1="-200" x2="300" y2="-200" style="stroke:#800;stroke-width:10;stroke-opacity:1.000000;stroke-linecap:round"/>
  <g transform="translate(346,-206) rotate(0)" > <text font-size="66.6666666667" fill="#800" font-family="monospace"  >
   1
  </text> </g> 
  <g transform="translate(140,-170) rotate(0)" > <text font-size="66.6666666667" fill="#088" font-family="monospace"  >
   BST
  </text> </g> 
  <circle cx="450" cy="-200" r="10"
    style="fill:none;stroke:#800;stroke-width:2"  />
  <line x1="-450" y1="200" x2="-300" y2="200" style="stroke:#800;stroke-width:10;stroke-opacity:1.000000;stroke-linecap:round"/>
  <g transform="translate(-403,194) rotate(0)" > <text font-size="66.6666666667" fill="#800" font-family="monospace"  >
   2
  </text> </g> 
  <g transform="translate(-282,230) rotate(0)" > <text font-size="66.6666666667" fill="#088" font-family="monospace"  >
   VD
  </text> </g> 
  <circle cx="-450" cy="200" r="10"
    style="fill:none;stroke:#800;stroke-width:2"  />
  <line x1="-50" y1="450" x2="-50" y2="300" style="stroke:#800;stroke-width:10;stroke-opacity:1.000000;stroke-linecap:round"/>
  <g transform="translate(-60,385) rotate(-90)" > <text font-size="66.6666666667" fill="#800" font-family="monospace"  >
   3
  </text> </g> 
  <g transform="translate(-45,266) rotate(-90)" > <text font-size="66.6666666667" fill="#088" font-family="monospace"  >
   SGND
  </text> </g> 
  <circle cx="-50" cy="450" r="10"
    style="fill:none;stroke:#800;stroke-width:2"  />
  <line x1="450" y1="200" x2="300" y2="200" style="stroke:#800;stroke-width:10;stroke-opacity:1.000000;stroke-linecap:round"/>
  <g transform="translate(346,194) rotate(0)" > <text font-size="66.6666666667" fill="#800" font-family="monospace"  >
   4
  </text> </g> 
  <g transform="translate(180,230) rotate(0)" > <text font-size="66.6666666667" fill="#088" font-family="monospace"  >
   FB
  </text> </g> 
  <circle cx="450" cy="200" r="10"
    style="fill:none;stroke:#800;stroke-width:2"  />
  <line x1="-450" y1="0" x2="-300" y2="0" style="stroke:#800;stroke-width:10;stroke-opacity:1.000000;stroke-linecap:round"/>
  <g transform="translate(-403,-6) rotate(0)" > <text font-size="66.6666666667" fill="#800" font-family="monospace"  >
   5
  </text> </g> 
  <g transform="translate(-282,30) rotate(0)" > <text font-size="66.6666666667" fill="#088" font-family="monospace"  >
   ON/~OFF~
  </text> </g> 
  <circle cx="-450" cy="0" r="10"
    style="fill:none;stroke:#800;stroke-width:2"  />
  <line x1="100" y1="450" x2="100" y2="300" style="stroke:#800;stroke-width:10;stroke-opacity:1.000000;stroke-linecap:round"/>
  <g transform="translate(90,385) rotate(-90)" > <text font-size="66.6666666667" fill="#800" font-family="monospace"  >
   6
  </text> </g> 
  <g transform="translate(105,266) rotate(-90)" > <text font-size="66.6666666667" fill="#088" font-family="monospace"  >
   GND
  </text> </g> 
  <circle cx="100" cy="450" r="10"
    style="fill:none;stroke:#800;stroke-width:2"  />
  <line x1="-450" y1="-200" x2="-300" y2="-200" style="stroke:#800;stroke-width:10;stroke-opacity:1.000000;stroke-linecap:round"/>
  <g transform="translate(-403,-206) rotate(0)" > <text font-size="66.6666666667" fill="#800" font-family="monospace"  >
   7
  </text> </g> 
  <g transform="translate(-282,-170) rotate(0)" > <text font-size="66.6666666667" fill="#088" font-family="monospace"  >
   VIN
  </text> </g> 
  <circle cx="-450" cy="-200" r="10"
    style="fill:none;stroke:#800;stroke-width:2"  />
  <line x1="450" y1="-50" x2="300" y2="-50" style="stroke:#800;stroke-width:10;stroke-opacity:1.000000;stroke-linecap:round"/>
  <g transform="translate(346,-56) rotate(0)" > <text font-size="66.6666666667" fill="#800" font-family="monospace"  >
   8
  </text> </g> 
  <g transform="translate(180,-20) rotate(0)" > <text font-size="66.6666666667" fill="#088" font-family="monospace"  >
   LX
  </text> </g> 
  <circle cx="450" cy="-50" r="10"
    style="fill:none;stroke:#800;stroke-width:2"  />
 </g>
</svg>
