<?xml version="1.0"?>
<svg height="210" width="210"  >
 <g style="fill-opacity:1.0; stroke:black;
  stroke-width:1;" transform=" translate( 105.0,105.0 ) scale( 0.15,0.15 )">
  <g transform="translate(-240,-279) rotate(0)" > <text font-size="66.6666666667" fill="#088" font-family="monospace"  >
   IC
  </text> </g> 
  <g transform="translate(-80,-280) rotate(0)" > <text font-size="66.6666666667" fill="#088" font-family="monospace"  >
   ST1S14PHR
  </text> </g> 
  <rect x="-250" y="-250" height="500"
    width="500" style="fill:none;stroke:#800;stroke-width:10" />
  <line x1="400" y1="-200" x2="251" y2="-200" style="stroke:#800;stroke-width:10;stroke-opacity:1.000000;stroke-linecap:round"/>
  <g transform="translate(300,-206) rotate(0)" > <text font-size="58.3333333333" fill="#800" font-family="monospace"  >
   1
  </text> </g> 
  <g transform="translate(106,-172) rotate(0)" > <text font-size="58.3333333333" fill="#088" font-family="monospace"  >
   BST
  </text> </g> 
  <circle cx="400" cy="-200" r="10"
    style="fill:none;stroke:#800;stroke-width:2"  />
  <line x1="-400" y1="200" x2="-251" y2="200" style="stroke:#800;stroke-width:10;stroke-opacity:1.000000;stroke-linecap:round"/>
  <g transform="translate(-350,194) rotate(0)" > <text font-size="58.3333333333" fill="#800" font-family="monospace"  >
   2
  </text> </g> 
  <g transform="translate(-233,227) rotate(0)" > <text font-size="58.3333333333" fill="#088" font-family="monospace"  >
   PG
  </text> </g> 
  <circle cx="-400" cy="200" r="10"
    style="fill:none;stroke:#800;stroke-width:2"  />
  <line x1="-400" y1="-50" x2="-251" y2="-50" style="stroke:#800;stroke-width:10;stroke-opacity:1.000000;stroke-linecap:round"/>
  <g transform="translate(-350,-56) rotate(0)" > <text font-size="58.3333333333" fill="#800" font-family="monospace"  >
   3
  </text> </g> 
  <g transform="translate(-233,-22) rotate(0)" > <text font-size="58.3333333333" fill="#088" font-family="monospace"  >
   ~EN1~
  </text> </g> 
  <circle cx="-400" cy="-50" r="10"
    style="fill:none;stroke:#800;stroke-width:2"  />
  <line x1="400" y1="200" x2="251" y2="200" style="stroke:#800;stroke-width:10;stroke-opacity:1.000000;stroke-linecap:round"/>
  <g transform="translate(300,194) rotate(0)" > <text font-size="58.3333333333" fill="#800" font-family="monospace"  >
   4
  </text> </g> 
  <g transform="translate(141,227) rotate(0)" > <text font-size="58.3333333333" fill="#088" font-family="monospace"  >
   FB
  </text> </g> 
  <circle cx="400" cy="200" r="10"
    style="fill:none;stroke:#800;stroke-width:2"  />
  <line x1="-400" y1="50" x2="-251" y2="50" style="stroke:#800;stroke-width:10;stroke-opacity:1.000000;stroke-linecap:round"/>
  <g transform="translate(-350,44) rotate(0)" > <text font-size="58.3333333333" fill="#800" font-family="monospace"  >
   5
  </text> </g> 
  <g transform="translate(-233,77) rotate(0)" > <text font-size="58.3333333333" fill="#088" font-family="monospace"  >
   EN2
  </text> </g> 
  <circle cx="-400" cy="50" r="10"
    style="fill:none;stroke:#800;stroke-width:2"  />
  <line x1="0" y1="400" x2="0" y2="251" style="stroke:#800;stroke-width:10;stroke-opacity:1.000000;stroke-linecap:round"/>
  <g transform="translate(-8,334) rotate(-90)" > <text font-size="58.3333333333" fill="#800" font-family="monospace"  >
   6
  </text> </g> 
  <g transform="translate(4,221) rotate(-90)" > <text font-size="58.3333333333" fill="#088" font-family="monospace"  >
   GND
  </text> </g> 
  <circle cx="0" cy="400" r="10"
    style="fill:none;stroke:#800;stroke-width:2"  />
  <line x1="-400" y1="-200" x2="-252" y2="-200" style="stroke:#800;stroke-width:10;stroke-opacity:1.000000;stroke-linecap:round"/>
  <g transform="translate(-350,-206) rotate(0)" > <text font-size="58.3333333333" fill="#800" font-family="monospace"  >
   7
  </text> </g> 
  <g transform="translate(-234,-172) rotate(0)" > <text font-size="58.3333333333" fill="#088" font-family="monospace"  >
   VIN
  </text> </g> 
  <circle cx="-400" cy="-200" r="10"
    style="fill:none;stroke:#800;stroke-width:2"  />
  <line x1="400" y1="-50" x2="251" y2="-50" style="stroke:#800;stroke-width:10;stroke-opacity:1.000000;stroke-linecap:round"/>
  <g transform="translate(300,-56) rotate(0)" > <text font-size="58.3333333333" fill="#800" font-family="monospace"  >
   8
  </text> </g> 
  <g transform="translate(141,-22) rotate(0)" > <text font-size="58.3333333333" fill="#088" font-family="monospace"  >
   SW
  </text> </g> 
  <circle cx="400" cy="-50" r="10"
    style="fill:none;stroke:#800;stroke-width:2"  />
 </g>
</svg>
