<?xml version="1.0"?>
<svg height="320" width="285"  >
 <g style="fill-opacity:1.0; stroke:black;
  stroke-width:1;" transform=" translate( 142.5,160.25 ) scale( 0.15,0.15 )">
  <g transform="translate(-470,420) rotate(0)" > <text font-size="66.6666666667" fill="#088" font-family="monospace"  >
   U
  </text> </g> 
  <g transform="translate(80,420) rotate(0)" > <text font-size="66.6666666667" fill="#088" font-family="monospace"  >
   TPS60500DGS
  </text> </g> 
  <rect x="-500" y="-350" height="700"
    width="1000" style="fill:none;stroke:#800;stroke-width:10" />
  <line x1="-650" y1="250" x2="-500" y2="250" style="stroke:#800;stroke-width:10;stroke-opacity:1.000000;stroke-linecap:round"/>
  <g transform="translate(-603,244) rotate(0)" > <text font-size="66.6666666667" fill="#800" font-family="monospace"  >
   1
  </text> </g> 
  <g transform="translate(-482,280) rotate(0)" > <text font-size="66.6666666667" fill="#088" font-family="monospace"  >
   ~EN
  </text> </g> 
  <circle cx="-650" cy="250" r="10"
    style="fill:none;stroke:#800;stroke-width:2"  />
  <line x1="650" y1="250" x2="500" y2="250" style="stroke:#800;stroke-width:10;stroke-opacity:1.000000;stroke-linecap:round"/>
  <g transform="translate(546,244) rotate(0)" > <text font-size="66.6666666667" fill="#800" font-family="monospace"  >
   2
  </text> </g> 
  <g transform="translate(380,280) rotate(0)" > <text font-size="66.6666666667" fill="#088" font-family="monospace"  >
   PG
  </text> </g> 
  <circle cx="650" cy="250" r="10"
    style="fill:none;stroke:#800;stroke-width:2"  />
  <line x1="100" y1="-500" x2="100" y2="-350" style="stroke:#800;stroke-width:10;stroke-opacity:1.000000;stroke-linecap:round"/>
  <g transform="translate(90,-415) rotate(-90)" > <text font-size="66.6666666667" fill="#800" font-family="monospace"  >
   3
  </text> </g> 
  <g transform="translate(105,-196) rotate(-90)" > <text font-size="66.6666666667" fill="#088" font-family="monospace"  >
   C2-
  </text> </g> 
  <circle cx="100" cy="-500" r="10"
    style="fill:none;stroke:#800;stroke-width:2"  />
  <line x1="400" y1="-500" x2="400" y2="-350" style="stroke:#800;stroke-width:10;stroke-opacity:1.000000;stroke-linecap:round"/>
  <g transform="translate(390,-415) rotate(-90)" > <text font-size="66.6666666667" fill="#800" font-family="monospace"  >
   4
  </text> </g> 
  <g transform="translate(405,-196) rotate(-90)" > <text font-size="66.6666666667" fill="#088" font-family="monospace"  >
   C2+
  </text> </g> 
  <circle cx="400" cy="-500" r="10"
    style="fill:none;stroke:#800;stroke-width:2"  />
  <line x1="-650" y1="-100" x2="-500" y2="-100" style="stroke:#800;stroke-width:10;stroke-opacity:1.000000;stroke-linecap:round"/>
  <g transform="translate(-603,-106) rotate(0)" > <text font-size="66.6666666667" fill="#800" font-family="monospace"  >
   5
  </text> </g> 
  <g transform="translate(-482,-70) rotate(0)" > <text font-size="66.6666666667" fill="#088" font-family="monospace"  >
   VIN
  </text> </g> 
  <circle cx="-650" cy="-100" r="10"
    style="fill:none;stroke:#800;stroke-width:2"  />
  <line x1="-100" y1="-500" x2="-100" y2="-350" style="stroke:#800;stroke-width:10;stroke-opacity:1.000000;stroke-linecap:round"/>
  <g transform="translate(-110,-415) rotate(-90)" > <text font-size="66.6666666667" fill="#800" font-family="monospace"  >
   6
  </text> </g> 
  <g transform="translate(-95,-196) rotate(-90)" > <text font-size="66.6666666667" fill="#088" font-family="monospace"  >
   C1+
  </text> </g> 
  <circle cx="-100" cy="-500" r="10"
    style="fill:none;stroke:#800;stroke-width:2"  />
  <line x1="650" y1="-100" x2="500" y2="-100" style="stroke:#800;stroke-width:10;stroke-opacity:1.000000;stroke-linecap:round"/>
  <g transform="translate(546,-106) rotate(0)" > <text font-size="66.6666666667" fill="#800" font-family="monospace"  >
   7
  </text> </g> 
  <g transform="translate(300,-70) rotate(0)" > <text font-size="66.6666666667" fill="#088" font-family="monospace"  >
   VOUT
  </text> </g> 
  <circle cx="650" cy="-100" r="10"
    style="fill:none;stroke:#800;stroke-width:2"  />
  <line x1="-400" y1="-500" x2="-400" y2="-350" style="stroke:#800;stroke-width:10;stroke-opacity:1.000000;stroke-linecap:round"/>
  <g transform="translate(-410,-415) rotate(-90)" > <text font-size="66.6666666667" fill="#800" font-family="monospace"  >
   8
  </text> </g> 
  <g transform="translate(-395,-196) rotate(-90)" > <text font-size="66.6666666667" fill="#088" font-family="monospace"  >
   C1-
  </text> </g> 
  <circle cx="-400" cy="-500" r="10"
    style="fill:none;stroke:#800;stroke-width:2"  />
  <line x1="0" y1="500" x2="0" y2="350" style="stroke:#800;stroke-width:10;stroke-opacity:1.000000;stroke-linecap:round"/>
  <g transform="translate(-10,435) rotate(-90)" > <text font-size="66.6666666667" fill="#800" font-family="monospace"  >
   9
  </text> </g> 
  <g transform="translate(5,316) rotate(-90)" > <text font-size="66.6666666667" fill="#088" font-family="monospace"  >
   GND
  </text> </g> 
  <circle cx="0" cy="500" r="10"
    style="fill:none;stroke:#800;stroke-width:2"  />
  <line x1="650" y1="50" x2="500" y2="50" style="stroke:#800;stroke-width:10;stroke-opacity:1.000000;stroke-linecap:round"/>
  <g transform="translate(518,44) rotate(0)" > <text font-size="66.6666666667" fill="#800" font-family="monospace"  >
   10
  </text> </g> 
  <g transform="translate(380,80) rotate(0)" > <text font-size="66.6666666667" fill="#088" font-family="monospace"  >
   FB
  </text> </g> 
  <circle cx="650" cy="50" r="10"
    style="fill:none;stroke:#800;stroke-width:2"  />
 </g>
</svg>
