<?xml version="1.0"?>
<svg height="782" width="755"  >
 <g style="fill-opacity:1.0; stroke:black;
  stroke-width:1;" transform=" translate( 377.5,391.0 ) scale( 0.15,0.15 )">
  <g transform="translate(420,-1770) rotate(0)" > <text font-size="100.0" fill="#088" font-family="monospace"  >
   U
  </text> </g> 
  <g transform="translate(340,1730) rotate(0)" > <text font-size="100.0" fill="#088" font-family="monospace"  >
   ADUC816
  </text> </g> 
  <rect x="-850" y="-1750" height="3300"
    width="1700" style="fill:none;stroke:#800;stroke-width:10" />
  <line x1="-1150" y1="-350" x2="-850" y2="-350" style="stroke:#800;stroke-width:10;stroke-opacity:1.000000;stroke-linecap:round"/>
  <g transform="translate(-1042,-356) rotate(0)" > <text font-size="100.0" fill="#800" font-family="monospace"  >
   1
  </text> </g> 
  <g transform="translate(-832,-310) rotate(0)" > <text font-size="100.0" fill="#088" font-family="monospace"  >
   P10/T2
  </text> </g> 
  <circle cx="-1150" cy="-350" r="10"
    style="fill:none;stroke:#800;stroke-width:2"  />
  <line x1="-1150" y1="-200" x2="-850" y2="-200" style="stroke:#800;stroke-width:10;stroke-opacity:1.000000;stroke-linecap:round"/>
  <g transform="translate(-1042,-206) rotate(0)" > <text font-size="100.0" fill="#800" font-family="monospace"  >
   2
  </text> </g> 
  <g transform="translate(-832,-160) rotate(0)" > <text font-size="100.0" fill="#088" font-family="monospace"  >
   P11(T2EX)
  </text> </g> 
  <circle cx="-1150" cy="-200" r="10"
    style="fill:none;stroke:#800;stroke-width:2"  />
  <line x1="-1150" y1="-50" x2="-850" y2="-50" style="stroke:#800;stroke-width:10;stroke-opacity:1.000000;stroke-linecap:round"/>
  <g transform="translate(-1042,-56) rotate(0)" > <text font-size="100.0" fill="#800" font-family="monospace"  >
   3
  </text> </g> 
  <g transform="translate(-832,-10) rotate(0)" > <text font-size="100.0" fill="#088" font-family="monospace"  >
   P12(IEXC1/DAC)
  </text> </g> 
  <circle cx="-1150" cy="-50" r="10"
    style="fill:none;stroke:#800;stroke-width:2"  />
  <line x1="-1150" y1="100" x2="-850" y2="100" style="stroke:#800;stroke-width:10;stroke-opacity:1.000000;stroke-linecap:round"/>
  <g transform="translate(-1042,94) rotate(0)" > <text font-size="100.0" fill="#800" font-family="monospace"  >
   4
  </text> </g> 
  <g transform="translate(-832,140) rotate(0)" > <text font-size="100.0" fill="#088" font-family="monospace"  >
   P13(IEXC2/AIN5)
  </text> </g> 
  <circle cx="-1150" cy="100" r="10"
    style="fill:none;stroke:#800;stroke-width:2"  />
  <line x1="-250" y1="-2050" x2="-250" y2="-1750" style="stroke:#800;stroke-width:10;stroke-opacity:1.000000;stroke-linecap:round"/>
  <g transform="translate(-265,-1885) rotate(-90)" > <text font-size="100.0" fill="#800" font-family="monospace"  >
   5
  </text> </g> 
  <g transform="translate(-242,-1460) rotate(-90)" > <text font-size="100.0" fill="#088" font-family="monospace"  >
   AVDD
  </text> </g> 
  <circle cx="-250" cy="-2050" r="10"
    style="fill:none;stroke:#800;stroke-width:2"  />
  <line x1="-250" y1="1850" x2="-250" y2="1550" style="stroke:#800;stroke-width:10;stroke-opacity:1.000000;stroke-linecap:round"/>
  <g transform="translate(-265,1715) rotate(-90)" > <text font-size="100.0" fill="#800" font-family="monospace"  >
   6
  </text> </g> 
  <g transform="translate(-242,1500) rotate(-90)" > <text font-size="100.0" fill="#088" font-family="monospace"  >
   AGND
  </text> </g> 
  <circle cx="-250" cy="1850" r="10"
    style="fill:none;stroke:#800;stroke-width:2"  />
  <line x1="-1150" y1="-650" x2="-850" y2="-650" style="stroke:#800;stroke-width:10;stroke-opacity:1.000000;stroke-linecap:round"/>
  <g transform="translate(-1042,-656) rotate(0)" > <text font-size="100.0" fill="#800" font-family="monospace"  >
   7
  </text> </g> 
  <g transform="translate(-832,-610) rotate(0)" > <text font-size="100.0" fill="#088" font-family="monospace"  >
   REF-
  </text> </g> 
  <circle cx="-1150" cy="-650" r="10"
    style="fill:none;stroke:#800;stroke-width:2"  />
  <line x1="-1150" y1="-750" x2="-850" y2="-750" style="stroke:#800;stroke-width:10;stroke-opacity:1.000000;stroke-linecap:round"/>
  <g transform="translate(-1042,-756) rotate(0)" > <text font-size="100.0" fill="#800" font-family="monospace"  >
   8
  </text> </g> 
  <g transform="translate(-832,-710) rotate(0)" > <text font-size="100.0" fill="#088" font-family="monospace"  >
   REF+
  </text> </g> 
  <circle cx="-1150" cy="-750" r="10"
    style="fill:none;stroke:#800;stroke-width:2"  />
  <line x1="-1150" y1="250" x2="-850" y2="250" style="stroke:#800;stroke-width:10;stroke-opacity:1.000000;stroke-linecap:round"/>
  <g transform="translate(-1042,244) rotate(0)" > <text font-size="100.0" fill="#800" font-family="monospace"  >
   9
  </text> </g> 
  <g transform="translate(-832,290) rotate(0)" > <text font-size="100.0" fill="#088" font-family="monospace"  >
   P14(AIN1)
  </text> </g> 
  <circle cx="-1150" cy="250" r="10"
    style="fill:none;stroke:#800;stroke-width:2"  />
  <line x1="-1150" y1="400" x2="-850" y2="400" style="stroke:#800;stroke-width:10;stroke-opacity:1.000000;stroke-linecap:round"/>
  <g transform="translate(-1085,394) rotate(0)" > <text font-size="100.0" fill="#800" font-family="monospace"  >
   10
  </text> </g> 
  <g transform="translate(-832,440) rotate(0)" > <text font-size="100.0" fill="#088" font-family="monospace"  >
   P15(AIN2)
  </text> </g> 
  <circle cx="-1150" cy="400" r="10"
    style="fill:none;stroke:#800;stroke-width:2"  />
  <line x1="0" y1="-2050" x2="0" y2="-1750" style="stroke:#800;stroke-width:10;stroke-opacity:1.000000;stroke-linecap:round"/>
  <g transform="translate(-15,-1870) rotate(-90)" > <text font-size="100.0" fill="#800" font-family="monospace"  >
   20
  </text> </g> 
  <g transform="translate(7,-1460) rotate(-90)" > <text font-size="100.0" fill="#088" font-family="monospace"  >
   DVDD
  </text> </g> 
  <circle cx="0" cy="-2050" r="10"
    style="fill:none;stroke:#800;stroke-width:2"  />
  <line x1="1150" y1="-550" x2="850" y2="-550" style="stroke:#800;stroke-width:10;stroke-opacity:1.000000;stroke-linecap:round"/>
  <g transform="translate(915,-556) rotate(0)" > <text font-size="100.0" fill="#800" font-family="monospace"  >
   30
  </text> </g> 
  <g transform="translate(330,-510) rotate(0)" > <text font-size="100.0" fill="#088" font-family="monospace"  >
   P22(A10)
  </text> </g> 
  <circle cx="1150" cy="-550" r="10"
    style="fill:none;stroke:#800;stroke-width:2"  />
  <line x1="1150" y1="1100" x2="850" y2="1100" style="stroke:#800;stroke-width:10;stroke-opacity:1.000000;stroke-linecap:round"/>
  <g transform="translate(915,1094) rotate(0)" > <text font-size="100.0" fill="#800" font-family="monospace"  >
   40
  </text> </g> 
  <g transform="translate(630,1140) rotate(0)" > <text font-size="100.0" fill="#088" font-family="monospace"  >
   /EA
  </text> </g> 
  <circle cx="1150" cy="1100" r="10"
    style="fill:none;stroke:#800;stroke-width:2"  />
  <line x1="1150" y1="-1150" x2="850" y2="-1150" style="stroke:#800;stroke-width:10;stroke-opacity:1.000000;stroke-linecap:round"/>
  <g transform="translate(915,-1156) rotate(0)" > <text font-size="100.0" fill="#800" font-family="monospace"  >
   50
  </text> </g> 
  <g transform="translate(330,-1110) rotate(0)" > <text font-size="100.0" fill="#088" font-family="monospace"  >
   P05(AD5)
  </text> </g> 
  <circle cx="1150" cy="-1150" r="10"
    style="fill:none;stroke:#800;stroke-width:2"  />
  <line x1="-1150" y1="550" x2="-850" y2="550" style="stroke:#800;stroke-width:10;stroke-opacity:1.000000;stroke-linecap:round"/>
  <g transform="translate(-1085,544) rotate(0)" > <text font-size="100.0" fill="#800" font-family="monospace"  >
   11
  </text> </g> 
  <g transform="translate(-832,590) rotate(0)" > <text font-size="100.0" fill="#088" font-family="monospace"  >
   P16(AIN3)
  </text> </g> 
  <circle cx="-1150" cy="550" r="10"
    style="fill:none;stroke:#800;stroke-width:2"  />
  <line x1="250" y1="1850" x2="250" y2="1550" style="stroke:#800;stroke-width:10;stroke-opacity:1.000000;stroke-linecap:round"/>
  <g transform="translate(235,1730) rotate(-90)" > <text font-size="100.0" fill="#800" font-family="monospace"  >
   21
  </text> </g> 
  <g transform="translate(257,1500) rotate(-90)" > <text font-size="100.0" fill="#088" font-family="monospace"  >
   DGND
  </text> </g> 
  <circle cx="250" cy="1850" r="10"
    style="fill:none;stroke:#800;stroke-width:2"  />
  <line x1="1150" y1="-450" x2="850" y2="-450" style="stroke:#800;stroke-width:10;stroke-opacity:1.000000;stroke-linecap:round"/>
  <g transform="translate(915,-456) rotate(0)" > <text font-size="100.0" fill="#800" font-family="monospace"  >
   31
  </text> </g> 
  <g transform="translate(330,-410) rotate(0)" > <text font-size="100.0" fill="#088" font-family="monospace"  >
   P23(A11)
  </text> </g> 
  <circle cx="1150" cy="-450" r="10"
    style="fill:none;stroke:#800;stroke-width:2"  />
  <line x1="1150" y1="1000" x2="850" y2="1000" style="stroke:#800;stroke-width:10;stroke-opacity:1.000000;stroke-linecap:round"/>
  <g transform="translate(915,994) rotate(0)" > <text font-size="100.0" fill="#800" font-family="monospace"  >
   41
  </text> </g> 
  <g transform="translate(510,1040) rotate(0)" > <text font-size="100.0" fill="#088" font-family="monospace"  >
   /PSEN
  </text> </g> 
  <circle cx="1150" cy="1000" r="10"
    style="fill:none;stroke:#800;stroke-width:2"  />
  <line x1="1150" y1="-1050" x2="850" y2="-1050" style="stroke:#800;stroke-width:10;stroke-opacity:1.000000;stroke-linecap:round"/>
  <g transform="translate(915,-1056) rotate(0)" > <text font-size="100.0" fill="#800" font-family="monospace"  >
   51
  </text> </g> 
  <g transform="translate(330,-1010) rotate(0)" > <text font-size="100.0" fill="#088" font-family="monospace"  >
   P06(AD6)
  </text> </g> 
  <circle cx="1150" cy="-1050" r="10"
    style="fill:none;stroke:#800;stroke-width:2"  />
  <line x1="-1150" y1="700" x2="-850" y2="700" style="stroke:#800;stroke-width:10;stroke-opacity:1.000000;stroke-linecap:round"/>
  <g transform="translate(-1085,694) rotate(0)" > <text font-size="100.0" fill="#800" font-family="monospace"  >
   12
  </text> </g> 
  <g transform="translate(-832,740) rotate(0)" > <text font-size="100.0" fill="#088" font-family="monospace"  >
   P17(AIN4)
  </text> </g> 
  <circle cx="-1150" cy="700" r="10"
    style="fill:none;stroke:#800;stroke-width:2"  />
  <line x1="1150" y1="500" x2="850" y2="500" style="stroke:#800;stroke-width:10;stroke-opacity:1.000000;stroke-linecap:round"/>
  <g transform="translate(915,494) rotate(0)" > <text font-size="100.0" fill="#800" font-family="monospace"  >
   22
  </text> </g> 
  <g transform="translate(390,540) rotate(0)" > <text font-size="100.0" fill="#088" font-family="monospace"  >
   P34(T0)
  </text> </g> 
  <circle cx="1150" cy="500" r="10"
    style="fill:none;stroke:#800;stroke-width:2"  />
  <line x1="-1150" y1="-1650" x2="-850" y2="-1650" style="stroke:#800;stroke-width:10;stroke-opacity:1.000000;stroke-linecap:round"/>
  <g transform="translate(-1085,-1656) rotate(0)" > <text font-size="100.0" fill="#800" font-family="monospace"  >
   32
  </text> </g> 
  <g transform="translate(-832,-1610) rotate(0)" > <text font-size="100.0" fill="#088" font-family="monospace"  >
   XTAL1
  </text> </g> 
  <circle cx="-1150" cy="-1650" r="10"
    style="fill:none;stroke:#800;stroke-width:2"  />
  <line x1="1150" y1="1200" x2="850" y2="1200" style="stroke:#800;stroke-width:10;stroke-opacity:1.000000;stroke-linecap:round"/>
  <g transform="translate(915,1194) rotate(0)" > <text font-size="100.0" fill="#800" font-family="monospace"  >
   42
  </text> </g> 
  <g transform="translate(630,1240) rotate(0)" > <text font-size="100.0" fill="#088" font-family="monospace"  >
   ALE
  </text> </g> 
  <circle cx="1150" cy="1200" r="10"
    style="fill:none;stroke:#800;stroke-width:2"  />
  <line x1="1150" y1="-950" x2="850" y2="-950" style="stroke:#800;stroke-width:10;stroke-opacity:1.000000;stroke-linecap:round"/>
  <g transform="translate(915,-956) rotate(0)" > <text font-size="100.0" fill="#800" font-family="monospace"  >
   52
  </text> </g> 
  <g transform="translate(330,-910) rotate(0)" > <text font-size="100.0" fill="#088" font-family="monospace"  >
   P07(AD7)
  </text> </g> 
  <circle cx="1150" cy="-950" r="10"
    style="fill:none;stroke:#800;stroke-width:2"  />
  <line x1="-1150" y1="-1250" x2="-850" y2="-1250" style="stroke:#800;stroke-width:10;stroke-opacity:1.000000;stroke-linecap:round"/>
  <g transform="translate(-1085,-1256) rotate(0)" > <text font-size="100.0" fill="#800" font-family="monospace"  >
   13
  </text> </g> 
  <g transform="translate(-832,-1210) rotate(0)" > <text font-size="100.0" fill="#088" font-family="monospace"  >
   /SS
  </text> </g> 
  <circle cx="-1150" cy="-1250" r="10"
    style="fill:none;stroke:#800;stroke-width:2"  />
  <line x1="1150" y1="600" x2="850" y2="600" style="stroke:#800;stroke-width:10;stroke-opacity:1.000000;stroke-linecap:round"/>
  <g transform="translate(915,594) rotate(0)" > <text font-size="100.0" fill="#800" font-family="monospace"  >
   23
  </text> </g> 
  <g transform="translate(390,640) rotate(0)" > <text font-size="100.0" fill="#088" font-family="monospace"  >
   P35(T1)
  </text> </g> 
  <circle cx="1150" cy="600" r="10"
    style="fill:none;stroke:#800;stroke-width:2"  />
  <line x1="-1150" y1="-1550" x2="-850" y2="-1550" style="stroke:#800;stroke-width:10;stroke-opacity:1.000000;stroke-linecap:round"/>
  <g transform="translate(-1085,-1556) rotate(0)" > <text font-size="100.0" fill="#800" font-family="monospace"  >
   33
  </text> </g> 
  <g transform="translate(-832,-1510) rotate(0)" > <text font-size="100.0" fill="#088" font-family="monospace"  >
   XTAL2
  </text> </g> 
  <circle cx="-1150" cy="-1550" r="10"
    style="fill:none;stroke:#800;stroke-width:2"  />
  <line x1="1150" y1="-1650" x2="850" y2="-1650" style="stroke:#800;stroke-width:10;stroke-opacity:1.000000;stroke-linecap:round"/>
  <g transform="translate(915,-1656) rotate(0)" > <text font-size="100.0" fill="#800" font-family="monospace"  >
   43
  </text> </g> 
  <g transform="translate(330,-1610) rotate(0)" > <text font-size="100.0" fill="#088" font-family="monospace"  >
   P00(AD0)
  </text> </g> 
  <circle cx="1150" cy="-1650" r="10"
    style="fill:none;stroke:#800;stroke-width:2"  />
  <line x1="-1150" y1="1300" x2="-850" y2="1300" style="stroke:#800;stroke-width:10;stroke-opacity:1.000000;stroke-linecap:round"/>
  <g transform="translate(-1085,1294) rotate(0)" > <text font-size="100.0" fill="#800" font-family="monospace"  >
   14
  </text> </g> 
  <g transform="translate(-832,1340) rotate(0)" > <text font-size="100.0" fill="#088" font-family="monospace"  >
   MISO
  </text> </g> 
  <circle cx="-1150" cy="1300" r="10"
    style="fill:none;stroke:#800;stroke-width:2"  />
  <line x1="1150" y1="700" x2="850" y2="700" style="stroke:#800;stroke-width:10;stroke-opacity:1.000000;stroke-linecap:round"/>
  <g transform="translate(915,694) rotate(0)" > <text font-size="100.0" fill="#800" font-family="monospace"  >
   24
  </text> </g> 
  <g transform="translate(330,740) rotate(0)" > <text font-size="100.0" fill="#088" font-family="monospace"  >
   P36(/WR)
  </text> </g> 
  <circle cx="1150" cy="700" r="10"
    style="fill:none;stroke:#800;stroke-width:2"  />
  <line x1="100" y1="-2050" x2="100" y2="-1750" style="stroke:#800;stroke-width:10;stroke-opacity:1.000000;stroke-linecap:round"/>
  <g transform="translate(85,-1870) rotate(-90)" > <text font-size="100.0" fill="#800" font-family="monospace"  >
   34
  </text> </g> 
  <g transform="translate(107,-1460) rotate(-90)" > <text font-size="100.0" fill="#088" font-family="monospace"  >
   DVDD
  </text> </g> 
  <circle cx="100" cy="-2050" r="10"
    style="fill:none;stroke:#800;stroke-width:2"  />
  <line x1="1150" y1="-1550" x2="850" y2="-1550" style="stroke:#800;stroke-width:10;stroke-opacity:1.000000;stroke-linecap:round"/>
  <g transform="translate(915,-1556) rotate(0)" > <text font-size="100.0" fill="#800" font-family="monospace"  >
   44
  </text> </g> 
  <g transform="translate(330,-1510) rotate(0)" > <text font-size="100.0" fill="#088" font-family="monospace"  >
   P01(AD1)
  </text> </g> 
  <circle cx="1150" cy="-1550" r="10"
    style="fill:none;stroke:#800;stroke-width:2"  />
  <line x1="-1150" y1="-1400" x2="-850" y2="-1400" style="stroke:#800;stroke-width:10;stroke-opacity:1.000000;stroke-linecap:round"/>
  <g transform="translate(-1085,-1406) rotate(0)" > <text font-size="100.0" fill="#800" font-family="monospace"  >
   15
  </text> </g> 
  <g transform="translate(-832,-1360) rotate(0)" > <text font-size="100.0" fill="#088" font-family="monospace"  >
   RESET
  </text> </g> 
  <circle cx="-1150" cy="-1400" r="10"
    style="fill:none;stroke:#800;stroke-width:2"  />
  <line x1="1150" y1="800" x2="850" y2="800" style="stroke:#800;stroke-width:10;stroke-opacity:1.000000;stroke-linecap:round"/>
  <g transform="translate(915,794) rotate(0)" > <text font-size="100.0" fill="#800" font-family="monospace"  >
   25
  </text> </g> 
  <g transform="translate(330,840) rotate(0)" > <text font-size="100.0" fill="#088" font-family="monospace"  >
   P37(/RD)
  </text> </g> 
  <circle cx="1150" cy="800" r="10"
    style="fill:none;stroke:#800;stroke-width:2"  />
  <line x1="350" y1="1850" x2="350" y2="1550" style="stroke:#800;stroke-width:10;stroke-opacity:1.000000;stroke-linecap:round"/>
  <g transform="translate(335,1730) rotate(-90)" > <text font-size="100.0" fill="#800" font-family="monospace"  >
   35
  </text> </g> 
  <g transform="translate(357,1500) rotate(-90)" > <text font-size="100.0" fill="#088" font-family="monospace"  >
   DGND
  </text> </g> 
  <circle cx="350" cy="1850" r="10"
    style="fill:none;stroke:#800;stroke-width:2"  />
  <line x1="1150" y1="-1450" x2="850" y2="-1450" style="stroke:#800;stroke-width:10;stroke-opacity:1.000000;stroke-linecap:round"/>
  <g transform="translate(915,-1456) rotate(0)" > <text font-size="100.0" fill="#800" font-family="monospace"  >
   45
  </text> </g> 
  <g transform="translate(330,-1410) rotate(0)" > <text font-size="100.0" fill="#088" font-family="monospace"  >
   P02(AD2)
  </text> </g> 
  <circle cx="1150" cy="-1450" r="10"
    style="fill:none;stroke:#800;stroke-width:2"  />
  <line x1="1150" y1="100" x2="850" y2="100" style="stroke:#800;stroke-width:10;stroke-opacity:1.000000;stroke-linecap:round"/>
  <g transform="translate(915,94) rotate(0)" > <text font-size="100.0" fill="#800" font-family="monospace"  >
   16
  </text> </g> 
  <g transform="translate(330,140) rotate(0)" > <text font-size="100.0" fill="#088" font-family="monospace"  >
   P30(RxD)
  </text> </g> 
  <circle cx="1150" cy="100" r="10"
    style="fill:none;stroke:#800;stroke-width:2"  />
  <line x1="-1150" y1="1050" x2="-850" y2="1050" style="stroke:#800;stroke-width:10;stroke-opacity:1.000000;stroke-linecap:round"/>
  <g transform="translate(-1085,1044) rotate(0)" > <text font-size="100.0" fill="#800" font-family="monospace"  >
   26
  </text> </g> 
  <g transform="translate(-832,1090) rotate(0)" > <text font-size="100.0" fill="#088" font-family="monospace"  >
   SCLOCK
  </text> </g> 
  <circle cx="-1150" cy="1050" r="10"
    style="fill:none;stroke:#800;stroke-width:2"  />
  <line x1="1150" y1="-350" x2="850" y2="-350" style="stroke:#800;stroke-width:10;stroke-opacity:1.000000;stroke-linecap:round"/>
  <g transform="translate(915,-356) rotate(0)" > <text font-size="100.0" fill="#800" font-family="monospace"  >
   36
  </text> </g> 
  <g transform="translate(330,-310) rotate(0)" > <text font-size="100.0" fill="#088" font-family="monospace"  >
   P24(A12)
  </text> </g> 
  <circle cx="1150" cy="-350" r="10"
    style="fill:none;stroke:#800;stroke-width:2"  />
  <line x1="1150" y1="-1350" x2="850" y2="-1350" style="stroke:#800;stroke-width:10;stroke-opacity:1.000000;stroke-linecap:round"/>
  <g transform="translate(915,-1356) rotate(0)" > <text font-size="100.0" fill="#800" font-family="monospace"  >
   46
  </text> </g> 
  <g transform="translate(330,-1310) rotate(0)" > <text font-size="100.0" fill="#088" font-family="monospace"  >
   P03(AD3)
  </text> </g> 
  <circle cx="1150" cy="-1350" r="10"
    style="fill:none;stroke:#800;stroke-width:2"  />
  <line x1="1150" y1="200" x2="850" y2="200" style="stroke:#800;stroke-width:10;stroke-opacity:1.000000;stroke-linecap:round"/>
  <g transform="translate(915,194) rotate(0)" > <text font-size="100.0" fill="#800" font-family="monospace"  >
   17
  </text> </g> 
  <g transform="translate(330,240) rotate(0)" > <text font-size="100.0" fill="#088" font-family="monospace"  >
   P31(TxD)
  </text> </g> 
  <circle cx="1150" cy="200" r="10"
    style="fill:none;stroke:#800;stroke-width:2"  />
  <line x1="-1150" y1="950" x2="-850" y2="950" style="stroke:#800;stroke-width:10;stroke-opacity:1.000000;stroke-linecap:round"/>
  <g transform="translate(-1085,944) rotate(0)" > <text font-size="100.0" fill="#800" font-family="monospace"  >
   27
  </text> </g> 
  <g transform="translate(-832,990) rotate(0)" > <text font-size="100.0" fill="#088" font-family="monospace"  >
   SDATA/MOSI
  </text> </g> 
  <circle cx="-1150" cy="950" r="10"
    style="fill:none;stroke:#800;stroke-width:2"  />
  <line x1="1150" y1="-250" x2="850" y2="-250" style="stroke:#800;stroke-width:10;stroke-opacity:1.000000;stroke-linecap:round"/>
  <g transform="translate(915,-256) rotate(0)" > <text font-size="100.0" fill="#800" font-family="monospace"  >
   37
  </text> </g> 
  <g transform="translate(330,-210) rotate(0)" > <text font-size="100.0" fill="#088" font-family="monospace"  >
   P25(A13)
  </text> </g> 
  <circle cx="1150" cy="-250" r="10"
    style="fill:none;stroke:#800;stroke-width:2"  />
  <line x1="450" y1="1850" x2="450" y2="1550" style="stroke:#800;stroke-width:10;stroke-opacity:1.000000;stroke-linecap:round"/>
  <g transform="translate(435,1730) rotate(-90)" > <text font-size="100.0" fill="#800" font-family="monospace"  >
   47
  </text> </g> 
  <g transform="translate(457,1500) rotate(-90)" > <text font-size="100.0" fill="#088" font-family="monospace"  >
   DGND
  </text> </g> 
  <circle cx="450" cy="1850" r="10"
    style="fill:none;stroke:#800;stroke-width:2"  />
  <line x1="1150" y1="300" x2="850" y2="300" style="stroke:#800;stroke-width:10;stroke-opacity:1.000000;stroke-linecap:round"/>
  <g transform="translate(915,294) rotate(0)" > <text font-size="100.0" fill="#800" font-family="monospace"  >
   18
  </text> </g> 
  <g transform="translate(210,340) rotate(0)" > <text font-size="100.0" fill="#088" font-family="monospace"  >
   P32(/INT0)
  </text> </g> 
  <circle cx="1150" cy="300" r="10"
    style="fill:none;stroke:#800;stroke-width:2"  />
  <line x1="1150" y1="-750" x2="850" y2="-750" style="stroke:#800;stroke-width:10;stroke-opacity:1.000000;stroke-linecap:round"/>
  <g transform="translate(915,-756) rotate(0)" > <text font-size="100.0" fill="#800" font-family="monospace"  >
   28
  </text> </g> 
  <g transform="translate(390,-710) rotate(0)" > <text font-size="100.0" fill="#088" font-family="monospace"  >
   P20(A8)
  </text> </g> 
  <circle cx="1150" cy="-750" r="10"
    style="fill:none;stroke:#800;stroke-width:2"  />
  <line x1="1150" y1="-150" x2="850" y2="-150" style="stroke:#800;stroke-width:10;stroke-opacity:1.000000;stroke-linecap:round"/>
  <g transform="translate(915,-156) rotate(0)" > <text font-size="100.0" fill="#800" font-family="monospace"  >
   38
  </text> </g> 
  <g transform="translate(330,-110) rotate(0)" > <text font-size="100.0" fill="#088" font-family="monospace"  >
   P26(A14)
  </text> </g> 
  <circle cx="1150" cy="-150" r="10"
    style="fill:none;stroke:#800;stroke-width:2"  />
  <line x1="200" y1="-2050" x2="200" y2="-1750" style="stroke:#800;stroke-width:10;stroke-opacity:1.000000;stroke-linecap:round"/>
  <g transform="translate(185,-1870) rotate(-90)" > <text font-size="100.0" fill="#800" font-family="monospace"  >
   48
  </text> </g> 
  <g transform="translate(207,-1460) rotate(-90)" > <text font-size="100.0" fill="#088" font-family="monospace"  >
   DVDD
  </text> </g> 
  <circle cx="200" cy="-2050" r="10"
    style="fill:none;stroke:#800;stroke-width:2"  />
  <line x1="1150" y1="400" x2="850" y2="400" style="stroke:#800;stroke-width:10;stroke-opacity:1.000000;stroke-linecap:round"/>
  <g transform="translate(915,394) rotate(0)" > <text font-size="100.0" fill="#800" font-family="monospace"  >
   19
  </text> </g> 
  <g transform="translate(210,440) rotate(0)" > <text font-size="100.0" fill="#088" font-family="monospace"  >
   P33(/INT1)
  </text> </g> 
  <circle cx="1150" cy="400" r="10"
    style="fill:none;stroke:#800;stroke-width:2"  />
  <line x1="1150" y1="-650" x2="850" y2="-650" style="stroke:#800;stroke-width:10;stroke-opacity:1.000000;stroke-linecap:round"/>
  <g transform="translate(915,-656) rotate(0)" > <text font-size="100.0" fill="#800" font-family="monospace"  >
   29
  </text> </g> 
  <g transform="translate(390,-610) rotate(0)" > <text font-size="100.0" fill="#088" font-family="monospace"  >
   P21(A9)
  </text> </g> 
  <circle cx="1150" cy="-650" r="10"
    style="fill:none;stroke:#800;stroke-width:2"  />
  <line x1="1150" y1="-50" x2="850" y2="-50" style="stroke:#800;stroke-width:10;stroke-opacity:1.000000;stroke-linecap:round"/>
  <g transform="translate(915,-56) rotate(0)" > <text font-size="100.0" fill="#800" font-family="monospace"  >
   39
  </text> </g> 
  <g transform="translate(330,-10) rotate(0)" > <text font-size="100.0" fill="#088" font-family="monospace"  >
   P27(A15)
  </text> </g> 
  <circle cx="1150" cy="-50" r="10"
    style="fill:none;stroke:#800;stroke-width:2"  />
  <line x1="1150" y1="-1250" x2="850" y2="-1250" style="stroke:#800;stroke-width:10;stroke-opacity:1.000000;stroke-linecap:round"/>
  <g transform="translate(915,-1256) rotate(0)" > <text font-size="100.0" fill="#800" font-family="monospace"  >
   49
  </text> </g> 
  <g transform="translate(330,-1210) rotate(0)" > <text font-size="100.0" fill="#088" font-family="monospace"  >
   P04(AD4)
  </text> </g> 
  <circle cx="1150" cy="-1250" r="10"
    style="fill:none;stroke:#800;stroke-width:2"  />
 </g>
</svg>
