<?xml version="1.0"?>
<svg height="915" width="836"  >
 <g style="fill-opacity:1.0; stroke:black;
  stroke-width:1;" transform=" translate( 418.075,457.7 ) scale( 0.15,0.15 )">
  <g transform="translate(-30,-1920) rotate(0)" > <text font-size="100.0" fill="#088" font-family="monospace"  >
   U
  </text> </g> 
  <g transform="translate(-390,1980) rotate(0)" > <text font-size="100.0" fill="#088" font-family="monospace"  >
   PIC18F452-/PT
  </text> </g> 
  <rect x="-900" y="-1900" height="3800"
    width="1800" style="fill:none;stroke:#800;stroke-width:10" />
  <line x1="1200" y1="500" x2="900" y2="500" style="stroke:#800;stroke-width:10;stroke-opacity:1.000000;stroke-linecap:round"/>
  <g transform="translate(1014,494) rotate(0)" > <text font-size="83.3333333333" fill="#800" font-family="monospace"  >
   1
  </text> </g> 
  <g transform="translate(409,535) rotate(0)" > <text font-size="83.3333333333" fill="#088" font-family="monospace"  >
   RC7/RX/DT
  </text> </g> 
  <circle cx="1200" cy="500" r="10"
    style="fill:none;stroke:#800;stroke-width:2"  />
  <line x1="1200" y1="1100" x2="900" y2="1100" style="stroke:#800;stroke-width:10;stroke-opacity:1.000000;stroke-linecap:round"/>
  <g transform="translate(1014,1094) rotate(0)" > <text font-size="83.3333333333" fill="#800" font-family="monospace"  >
   2
  </text> </g> 
  <g transform="translate(459,1135) rotate(0)" > <text font-size="83.3333333333" fill="#088" font-family="monospace"  >
   RD4/PSP4
  </text> </g> 
  <circle cx="1200" cy="1100" r="10"
    style="fill:none;stroke:#800;stroke-width:2"  />
  <line x1="1200" y1="1200" x2="900" y2="1200" style="stroke:#800;stroke-width:10;stroke-opacity:1.000000;stroke-linecap:round"/>
  <g transform="translate(1014,1194) rotate(0)" > <text font-size="83.3333333333" fill="#800" font-family="monospace"  >
   3
  </text> </g> 
  <g transform="translate(459,1235) rotate(0)" > <text font-size="83.3333333333" fill="#088" font-family="monospace"  >
   RD5/PSP5
  </text> </g> 
  <circle cx="1200" cy="1200" r="10"
    style="fill:none;stroke:#800;stroke-width:2"  />
  <line x1="1200" y1="1300" x2="900" y2="1300" style="stroke:#800;stroke-width:10;stroke-opacity:1.000000;stroke-linecap:round"/>
  <g transform="translate(1014,1294) rotate(0)" > <text font-size="83.3333333333" fill="#800" font-family="monospace"  >
   4
  </text> </g> 
  <g transform="translate(459,1335) rotate(0)" > <text font-size="83.3333333333" fill="#088" font-family="monospace"  >
   RD6/PSP6
  </text> </g> 
  <circle cx="1200" cy="1300" r="10"
    style="fill:none;stroke:#800;stroke-width:2"  />
  <line x1="1200" y1="1400" x2="900" y2="1400" style="stroke:#800;stroke-width:10;stroke-opacity:1.000000;stroke-linecap:round"/>
  <g transform="translate(1014,1394) rotate(0)" > <text font-size="83.3333333333" fill="#800" font-family="monospace"  >
   5
  </text> </g> 
  <g transform="translate(459,1435) rotate(0)" > <text font-size="83.3333333333" fill="#088" font-family="monospace"  >
   RD7/PSP7
  </text> </g> 
  <circle cx="1200" cy="1400" r="10"
    style="fill:none;stroke:#800;stroke-width:2"  />
  <line x1="-1200" y1="1700" x2="-900" y2="1700" style="stroke:#800;stroke-width:10;stroke-opacity:1.000000;stroke-linecap:round"/>
  <g transform="translate(-1085,1694) rotate(0)" > <text font-size="83.3333333333" fill="#800" font-family="monospace"  >
   6
  </text> </g> 
  <g transform="translate(-882,1735) rotate(0)" > <text font-size="83.3333333333" fill="#088" font-family="monospace"  >
   VSS
  </text> </g> 
  <circle cx="-1200" cy="1700" r="10"
    style="fill:none;stroke:#800;stroke-width:2"  />
  <line x1="-1200" y1="-1800" x2="-900" y2="-1800" style="stroke:#800;stroke-width:10;stroke-opacity:1.000000;stroke-linecap:round"/>
  <g transform="translate(-1085,-1806) rotate(0)" > <text font-size="83.3333333333" fill="#800" font-family="monospace"  >
   7
  </text> </g> 
  <g transform="translate(-882,-1765) rotate(0)" > <text font-size="83.3333333333" fill="#088" font-family="monospace"  >
   VDD
  </text> </g> 
  <circle cx="-1200" cy="-1800" r="10"
    style="fill:none;stroke:#800;stroke-width:2"  />
  <line x1="1200" y1="-1100" x2="900" y2="-1100" style="stroke:#800;stroke-width:10;stroke-opacity:1.000000;stroke-linecap:round"/>
  <g transform="translate(1014,-1106) rotate(0)" > <text font-size="83.3333333333" fill="#800" font-family="monospace"  >
   8
  </text> </g> 
  <g transform="translate(459,-1065) rotate(0)" > <text font-size="83.3333333333" fill="#088" font-family="monospace"  >
   RB0/INT0
  </text> </g> 
  <circle cx="1200" cy="-1100" r="10"
    style="fill:none;stroke:#800;stroke-width:2"  />
  <line x1="1200" y1="-1000" x2="900" y2="-1000" style="stroke:#800;stroke-width:10;stroke-opacity:1.000000;stroke-linecap:round"/>
  <g transform="translate(1014,-1006) rotate(0)" > <text font-size="83.3333333333" fill="#800" font-family="monospace"  >
   9
  </text> </g> 
  <g transform="translate(459,-965) rotate(0)" > <text font-size="83.3333333333" fill="#088" font-family="monospace"  >
   RB1/INT1
  </text> </g> 
  <circle cx="1200" cy="-1000" r="10"
    style="fill:none;stroke:#800;stroke-width:2"  />
  <line x1="1200" y1="-900" x2="900" y2="-900" style="stroke:#800;stroke-width:10;stroke-opacity:1.000000;stroke-linecap:round"/>
  <g transform="translate(979,-906) rotate(0)" > <text font-size="83.3333333333" fill="#800" font-family="monospace"  >
   10
  </text> </g> 
  <g transform="translate(459,-865) rotate(0)" > <text font-size="83.3333333333" fill="#088" font-family="monospace"  >
   RB2/INT2
  </text> </g> 
  <circle cx="1200" cy="-900" r="10"
    style="fill:none;stroke:#800;stroke-width:2"  />
  <line x1="1200" y1="-1700" x2="900" y2="-1700" style="stroke:#800;stroke-width:10;stroke-opacity:1.000000;stroke-linecap:round"/>
  <g transform="translate(979,-1706) rotate(0)" > <text font-size="83.3333333333" fill="#800" font-family="monospace"  >
   20
  </text> </g> 
  <g transform="translate(509,-1665) rotate(0)" > <text font-size="83.3333333333" fill="#088" font-family="monospace"  >
   RA1/AN1
  </text> </g> 
  <circle cx="1200" cy="-1700" r="10"
    style="fill:none;stroke:#800;stroke-width:2"  />
  <line x1="-1200" y1="-1500" x2="-900" y2="-1500" style="stroke:#800;stroke-width:10;stroke-opacity:1.000000;stroke-linecap:round"/>
  <g transform="translate(-1120,-1506) rotate(0)" > <text font-size="83.3333333333" fill="#800" font-family="monospace"  >
   30
  </text> </g> 
  <g transform="translate(-882,-1465) rotate(0)" > <text font-size="83.3333333333" fill="#088" font-family="monospace"  >
   OSC1/CLKI
  </text> </g> 
  <circle cx="-1200" cy="-1500" r="10"
    style="fill:none;stroke:#800;stroke-width:2"  />
  <line x1="1200" y1="900" x2="900" y2="900" style="stroke:#800;stroke-width:10;stroke-opacity:1.000000;stroke-linecap:round"/>
  <g transform="translate(979,894) rotate(0)" > <text font-size="83.3333333333" fill="#800" font-family="monospace"  >
   40
  </text> </g> 
  <g transform="translate(459,935) rotate(0)" > <text font-size="83.3333333333" fill="#088" font-family="monospace"  >
   RD2/PSP2
  </text> </g> 
  <circle cx="1200" cy="900" r="10"
    style="fill:none;stroke:#800;stroke-width:2"  />
  <line x1="1200" y1="-800" x2="900" y2="-800" style="stroke:#800;stroke-width:10;stroke-opacity:1.000000;stroke-linecap:round"/>
  <g transform="translate(979,-806) rotate(0)" > <text font-size="83.3333333333" fill="#800" font-family="monospace"  >
   11
  </text> </g> 
  <g transform="translate(459,-765) rotate(0)" > <text font-size="83.3333333333" fill="#088" font-family="monospace"  >
   RB3/CCP2
  </text> </g> 
  <circle cx="1200" cy="-800" r="10"
    style="fill:none;stroke:#800;stroke-width:2"  />
  <line x1="1200" y1="-1600" x2="900" y2="-1600" style="stroke:#800;stroke-width:10;stroke-opacity:1.000000;stroke-linecap:round"/>
  <g transform="translate(979,-1606) rotate(0)" > <text font-size="83.3333333333" fill="#800" font-family="monospace"  >
   21
  </text> </g> 
  <g transform="translate(209,-1565) rotate(0)" > <text font-size="83.3333333333" fill="#088" font-family="monospace"  >
   RA2/AN2/Vref-
  </text> </g> 
  <circle cx="1200" cy="-1600" r="10"
    style="fill:none;stroke:#800;stroke-width:2"  />
  <line x1="-1200" y1="-1250" x2="-900" y2="-1250" style="stroke:#800;stroke-width:10;stroke-opacity:1.000000;stroke-linecap:round"/>
  <g transform="translate(-1120,-1256) rotate(0)" > <text font-size="83.3333333333" fill="#800" font-family="monospace"  >
   31
  </text> </g> 
  <g transform="translate(-882,-1215) rotate(0)" > <text font-size="83.3333333333" fill="#088" font-family="monospace"  >
   OSC2/CLKO/RA6
  </text> </g> 
  <circle cx="-1200" cy="-1250" r="10"
    style="fill:none;stroke:#800;stroke-width:2"  />
  <line x1="1200" y1="1000" x2="900" y2="1000" style="stroke:#800;stroke-width:10;stroke-opacity:1.000000;stroke-linecap:round"/>
  <g transform="translate(979,994) rotate(0)" > <text font-size="83.3333333333" fill="#800" font-family="monospace"  >
   41
  </text> </g> 
  <g transform="translate(459,1035) rotate(0)" > <text font-size="83.3333333333" fill="#088" font-family="monospace"  >
   RD3/PSP3
  </text> </g> 
  <circle cx="1200" cy="1000" r="10"
    style="fill:none;stroke:#800;stroke-width:2"  />
  <line x1="1200" y1="-1500" x2="900" y2="-1500" style="stroke:#800;stroke-width:10;stroke-opacity:1.000000;stroke-linecap:round"/>
  <g transform="translate(979,-1506) rotate(0)" > <text font-size="83.3333333333" fill="#800" font-family="monospace"  >
   22
  </text> </g> 
  <g transform="translate(209,-1465) rotate(0)" > <text font-size="83.3333333333" fill="#088" font-family="monospace"  >
   RA3/AN3/Vref+
  </text> </g> 
  <circle cx="1200" cy="-1500" r="10"
    style="fill:none;stroke:#800;stroke-width:2"  />
  <line x1="1200" y1="-200" x2="900" y2="-200" style="stroke:#800;stroke-width:10;stroke-opacity:1.000000;stroke-linecap:round"/>
  <g transform="translate(979,-206) rotate(0)" > <text font-size="83.3333333333" fill="#800" font-family="monospace"  >
   32
  </text> </g> 
  <g transform="translate(109,-165) rotate(0)" > <text font-size="83.3333333333" fill="#088" font-family="monospace"  >
   RC0/T1OSO/T1CKI
  </text> </g> 
  <circle cx="1200" cy="-200" r="10"
    style="fill:none;stroke:#800;stroke-width:2"  />
  <line x1="1200" y1="200" x2="900" y2="200" style="stroke:#800;stroke-width:10;stroke-opacity:1.000000;stroke-linecap:round"/>
  <g transform="translate(979,194) rotate(0)" > <text font-size="83.3333333333" fill="#800" font-family="monospace"  >
   42
  </text> </g> 
  <g transform="translate(309,235) rotate(0)" > <text font-size="83.3333333333" fill="#088" font-family="monospace"  >
   RC4/SDI/SDA
  </text> </g> 
  <circle cx="1200" cy="200" r="10"
    style="fill:none;stroke:#800;stroke-width:2"  />
  <line x1="1200" y1="-1400" x2="900" y2="-1400" style="stroke:#800;stroke-width:10;stroke-opacity:1.000000;stroke-linecap:round"/>
  <g transform="translate(979,-1406) rotate(0)" > <text font-size="83.3333333333" fill="#800" font-family="monospace"  >
   23
  </text> </g> 
  <g transform="translate(409,-1365) rotate(0)" > <text font-size="83.3333333333" fill="#088" font-family="monospace"  >
   RA4/T0CKI
  </text> </g> 
  <circle cx="1200" cy="-1400" r="10"
    style="fill:none;stroke:#800;stroke-width:2"  />
  <line x1="1200" y1="300" x2="900" y2="300" style="stroke:#800;stroke-width:10;stroke-opacity:1.000000;stroke-linecap:round"/>
  <g transform="translate(979,294) rotate(0)" > <text font-size="83.3333333333" fill="#800" font-family="monospace"  >
   43
  </text> </g> 
  <g transform="translate(509,335) rotate(0)" > <text font-size="83.3333333333" fill="#088" font-family="monospace"  >
   RC5/SDO
  </text> </g> 
  <circle cx="1200" cy="300" r="10"
    style="fill:none;stroke:#800;stroke-width:2"  />
  <line x1="1200" y1="-700" x2="900" y2="-700" style="stroke:#800;stroke-width:10;stroke-opacity:1.000000;stroke-linecap:round"/>
  <g transform="translate(979,-706) rotate(0)" > <text font-size="83.3333333333" fill="#800" font-family="monospace"  >
   14
  </text> </g> 
  <g transform="translate(710,-665) rotate(0)" > <text font-size="83.3333333333" fill="#088" font-family="monospace"  >
   RB4
  </text> </g> 
  <circle cx="1200" cy="-700" r="10"
    style="fill:none;stroke:#800;stroke-width:2"  />
  <line x1="1200" y1="-1300" x2="900" y2="-1300" style="stroke:#800;stroke-width:10;stroke-opacity:1.000000;stroke-linecap:round"/>
  <g transform="translate(979,-1306) rotate(0)" > <text font-size="83.3333333333" fill="#800" font-family="monospace"  >
   24
  </text> </g> 
  <g transform="translate(59,-1265) rotate(0)" > <text font-size="83.3333333333" fill="#088" font-family="monospace"  >
   RA5/AN4/SS/LVDin
  </text> </g> 
  <circle cx="1200" cy="-1300" r="10"
    style="fill:none;stroke:#800;stroke-width:2"  />
  <line x1="1200" y1="400" x2="900" y2="400" style="stroke:#800;stroke-width:10;stroke-opacity:1.000000;stroke-linecap:round"/>
  <g transform="translate(979,394) rotate(0)" > <text font-size="83.3333333333" fill="#800" font-family="monospace"  >
   44
  </text> </g> 
  <g transform="translate(409,435) rotate(0)" > <text font-size="83.3333333333" fill="#088" font-family="monospace"  >
   RC6/TX/CK
  </text> </g> 
  <circle cx="1200" cy="400" r="10"
    style="fill:none;stroke:#800;stroke-width:2"  />
  <line x1="1200" y1="-600" x2="900" y2="-600" style="stroke:#800;stroke-width:10;stroke-opacity:1.000000;stroke-linecap:round"/>
  <g transform="translate(979,-606) rotate(0)" > <text font-size="83.3333333333" fill="#800" font-family="monospace"  >
   15
  </text> </g> 
  <g transform="translate(509,-565) rotate(0)" > <text font-size="83.3333333333" fill="#088" font-family="monospace"  >
   RB5/PGM
  </text> </g> 
  <circle cx="1200" cy="-600" r="10"
    style="fill:none;stroke:#800;stroke-width:2"  />
  <line x1="1200" y1="1600" x2="900" y2="1600" style="stroke:#800;stroke-width:10;stroke-opacity:1.000000;stroke-linecap:round"/>
  <g transform="translate(979,1594) rotate(0)" > <text font-size="83.3333333333" fill="#800" font-family="monospace"  >
   25
  </text> </g> 
  <g transform="translate(309,1635) rotate(0)" > <text font-size="83.3333333333" fill="#088" font-family="monospace"  >
   RE0/AN5/RD*
  </text> </g> 
  <circle cx="1200" cy="1600" r="10"
    style="fill:none;stroke:#800;stroke-width:2"  />
  <line x1="1200" y1="-100" x2="900" y2="-100" style="stroke:#800;stroke-width:10;stroke-opacity:1.000000;stroke-linecap:round"/>
  <g transform="translate(979,-106) rotate(0)" > <text font-size="83.3333333333" fill="#800" font-family="monospace"  >
   35
  </text> </g> 
  <g transform="translate(159,-65) rotate(0)" > <text font-size="83.3333333333" fill="#088" font-family="monospace"  >
   RC1/T1OSI/CCP2
  </text> </g> 
  <circle cx="1200" cy="-100" r="10"
    style="fill:none;stroke:#800;stroke-width:2"  />
  <line x1="1200" y1="-500" x2="900" y2="-500" style="stroke:#800;stroke-width:10;stroke-opacity:1.000000;stroke-linecap:round"/>
  <g transform="translate(979,-506) rotate(0)" > <text font-size="83.3333333333" fill="#800" font-family="monospace"  >
   16
  </text> </g> 
  <g transform="translate(509,-465) rotate(0)" > <text font-size="83.3333333333" fill="#088" font-family="monospace"  >
   RB6/PGC
  </text> </g> 
  <circle cx="1200" cy="-500" r="10"
    style="fill:none;stroke:#800;stroke-width:2"  />
  <line x1="1200" y1="1700" x2="900" y2="1700" style="stroke:#800;stroke-width:10;stroke-opacity:1.000000;stroke-linecap:round"/>
  <g transform="translate(979,1694) rotate(0)" > <text font-size="83.3333333333" fill="#800" font-family="monospace"  >
   26
  </text> </g> 
  <g transform="translate(309,1735) rotate(0)" > <text font-size="83.3333333333" fill="#088" font-family="monospace"  >
   RE1/AN6/WR*
  </text> </g> 
  <circle cx="1200" cy="1700" r="10"
    style="fill:none;stroke:#800;stroke-width:2"  />
  <line x1="1200" y1="0" x2="900" y2="0" style="stroke:#800;stroke-width:10;stroke-opacity:1.000000;stroke-linecap:round"/>
  <g transform="translate(979,-6) rotate(0)" > <text font-size="83.3333333333" fill="#800" font-family="monospace"  >
   36
  </text> </g> 
  <g transform="translate(459,35) rotate(0)" > <text font-size="83.3333333333" fill="#088" font-family="monospace"  >
   RC2/CCP1
  </text> </g> 
  <circle cx="1200" cy="0" r="10"
    style="fill:none;stroke:#800;stroke-width:2"  />
  <line x1="1200" y1="-400" x2="900" y2="-400" style="stroke:#800;stroke-width:10;stroke-opacity:1.000000;stroke-linecap:round"/>
  <g transform="translate(979,-406) rotate(0)" > <text font-size="83.3333333333" fill="#800" font-family="monospace"  >
   17
  </text> </g> 
  <g transform="translate(509,-365) rotate(0)" > <text font-size="83.3333333333" fill="#088" font-family="monospace"  >
   RB7/PGD
  </text> </g> 
  <circle cx="1200" cy="-400" r="10"
    style="fill:none;stroke:#800;stroke-width:2"  />
  <line x1="1200" y1="1800" x2="900" y2="1800" style="stroke:#800;stroke-width:10;stroke-opacity:1.000000;stroke-linecap:round"/>
  <g transform="translate(979,1794) rotate(0)" > <text font-size="83.3333333333" fill="#800" font-family="monospace"  >
   27
  </text> </g> 
  <g transform="translate(309,1835) rotate(0)" > <text font-size="83.3333333333" fill="#088" font-family="monospace"  >
   RE2/AN7/CS*
  </text> </g> 
  <circle cx="1200" cy="1800" r="10"
    style="fill:none;stroke:#800;stroke-width:2"  />
  <line x1="1200" y1="100" x2="900" y2="100" style="stroke:#800;stroke-width:10;stroke-opacity:1.000000;stroke-linecap:round"/>
  <g transform="translate(979,94) rotate(0)" > <text font-size="83.3333333333" fill="#800" font-family="monospace"  >
   37
  </text> </g> 
  <g transform="translate(309,135) rotate(0)" > <text font-size="83.3333333333" fill="#088" font-family="monospace"  >
   RC3/SCK/SCL
  </text> </g> 
  <circle cx="1200" cy="100" r="10"
    style="fill:none;stroke:#800;stroke-width:2"  />
  <line x1="-980" y1="-950" x2="-980" y2="-990" style="stroke:#800;stroke-width:10;stroke-opacity:1.000000;stroke-linecap:round"/>
  <line x1="-980" y1="-990" x2="-900" y2="-950" style="stroke:#800;stroke-width:10;stroke-opacity:1.000000;stroke-linecap:round"/>
  <line x1="-1200" y1="-950" x2="-900" y2="-950" style="stroke:#800;stroke-width:10;stroke-opacity:1.000000;stroke-linecap:round"/>
  <g transform="translate(-1120,-956) rotate(0)" > <text font-size="83.3333333333" fill="#800" font-family="monospace"  >
   18
  </text> </g> 
  <g transform="translate(-882,-915) rotate(0)" > <text font-size="83.3333333333" fill="#088" font-family="monospace"  >
   MCLR/Vpp
  </text> </g> 
  <circle cx="-1200" cy="-950" r="10"
    style="fill:none;stroke:#800;stroke-width:2"  />
  <line x1="-1200" y1="-1700" x2="-900" y2="-1700" style="stroke:#800;stroke-width:10;stroke-opacity:1.000000;stroke-linecap:round"/>
  <g transform="translate(-1120,-1706) rotate(0)" > <text font-size="83.3333333333" fill="#800" font-family="monospace"  >
   28
  </text> </g> 
  <g transform="translate(-882,-1665) rotate(0)" > <text font-size="83.3333333333" fill="#088" font-family="monospace"  >
   VDD
  </text> </g> 
  <circle cx="-1200" cy="-1700" r="10"
    style="fill:none;stroke:#800;stroke-width:2"  />
  <line x1="1200" y1="700" x2="900" y2="700" style="stroke:#800;stroke-width:10;stroke-opacity:1.000000;stroke-linecap:round"/>
  <g transform="translate(979,694) rotate(0)" > <text font-size="83.3333333333" fill="#800" font-family="monospace"  >
   38
  </text> </g> 
  <g transform="translate(459,735) rotate(0)" > <text font-size="83.3333333333" fill="#088" font-family="monospace"  >
   RD0/PSP0
  </text> </g> 
  <circle cx="1200" cy="700" r="10"
    style="fill:none;stroke:#800;stroke-width:2"  />
  <line x1="1200" y1="-1800" x2="900" y2="-1800" style="stroke:#800;stroke-width:10;stroke-opacity:1.000000;stroke-linecap:round"/>
  <g transform="translate(979,-1806) rotate(0)" > <text font-size="83.3333333333" fill="#800" font-family="monospace"  >
   19
  </text> </g> 
  <g transform="translate(509,-1765) rotate(0)" > <text font-size="83.3333333333" fill="#088" font-family="monospace"  >
   RA0/AN0
  </text> </g> 
  <circle cx="1200" cy="-1800" r="10"
    style="fill:none;stroke:#800;stroke-width:2"  />
  <line x1="-1200" y1="1800" x2="-900" y2="1800" style="stroke:#800;stroke-width:10;stroke-opacity:1.000000;stroke-linecap:round"/>
  <g transform="translate(-1120,1794) rotate(0)" > <text font-size="83.3333333333" fill="#800" font-family="monospace"  >
   29
  </text> </g> 
  <g transform="translate(-882,1835) rotate(0)" > <text font-size="83.3333333333" fill="#088" font-family="monospace"  >
   VSS
  </text> </g> 
  <circle cx="-1200" cy="1800" r="10"
    style="fill:none;stroke:#800;stroke-width:2"  />
  <line x1="1200" y1="800" x2="900" y2="800" style="stroke:#800;stroke-width:10;stroke-opacity:1.000000;stroke-linecap:round"/>
  <g transform="translate(979,794) rotate(0)" > <text font-size="83.3333333333" fill="#800" font-family="monospace"  >
   39
  </text> </g> 
  <g transform="translate(459,835) rotate(0)" > <text font-size="83.3333333333" fill="#088" font-family="monospace"  >
   RD1/PSP1
  </text> </g> 
  <circle cx="1200" cy="800" r="10"
    style="fill:none;stroke:#800;stroke-width:2"  />
 </g>
</svg>
