<?xml version="1.0"?>
<svg height="675" width="675"  >
 <g style="fill-opacity:1.0; stroke:black;
  stroke-width:1;" transform=" translate( 337.5,337.5 ) scale( 0.15,0.15 )">
  <g transform="translate(-730,-570) rotate(0)" > <text font-size="100.0" fill="#088" font-family="monospace"  >
   U
  </text> </g> 
  <g transform="translate(50,580) rotate(0)" > <text font-size="100.0" fill="#088" font-family="monospace"  >
   MSP430G2202IN20
  </text> </g> 
  <rect x="-750" y="-550" height="1050"
    width="1500" style="fill:none;stroke:#800;stroke-width:10" />
  <line x1="0" y1="-700" x2="0" y2="-550" style="stroke:#800;stroke-width:10;stroke-opacity:1.000000;stroke-linecap:round"/>
  <g transform="translate(-8,-616) rotate(-90)" > <text font-size="58.3333333333" fill="#800" font-family="monospace"  >
   1
  </text> </g> 
  <g transform="translate(4,-380) rotate(-90)" > <text font-size="58.3333333333" fill="#088" font-family="monospace"  >
   DVcc
  </text> </g> 
  <circle cx="0" cy="-700" r="10"
    style="fill:none;stroke:#800;stroke-width:2"  />
  <line x1="900" y1="-300" x2="750" y2="-300" style="stroke:#800;stroke-width:10;stroke-opacity:1.000000;stroke-linecap:round"/>
  <g transform="translate(800,-306) rotate(0)" > <text font-size="58.3333333333" fill="#800" font-family="monospace"  >
   2
  </text> </g> 
  <g transform="translate(150,-272) rotate(0)" > <text font-size="58.3333333333" fill="#088" font-family="monospace"  >
   TA0CLK/ACLK/P1.0
  </text> </g> 
  <circle cx="900" cy="-300" r="10"
    style="fill:none;stroke:#800;stroke-width:2"  />
  <line x1="900" y1="-200" x2="750" y2="-200" style="stroke:#800;stroke-width:10;stroke-opacity:1.000000;stroke-linecap:round"/>
  <g transform="translate(800,-206) rotate(0)" > <text font-size="58.3333333333" fill="#800" font-family="monospace"  >
   3
  </text> </g> 
  <g transform="translate(360,-172) rotate(0)" > <text font-size="58.3333333333" fill="#088" font-family="monospace"  >
   TA0.0/P1.1
  </text> </g> 
  <circle cx="900" cy="-200" r="10"
    style="fill:none;stroke:#800;stroke-width:2"  />
  <line x1="900" y1="-100" x2="750" y2="-100" style="stroke:#800;stroke-width:10;stroke-opacity:1.000000;stroke-linecap:round"/>
  <g transform="translate(800,-106) rotate(0)" > <text font-size="58.3333333333" fill="#800" font-family="monospace"  >
   4
  </text> </g> 
  <g transform="translate(360,-72) rotate(0)" > <text font-size="58.3333333333" fill="#088" font-family="monospace"  >
   TA0.1/P1.2
  </text> </g> 
  <circle cx="900" cy="-100" r="10"
    style="fill:none;stroke:#800;stroke-width:2"  />
  <line x1="900" y1="0" x2="750" y2="0" style="stroke:#800;stroke-width:10;stroke-opacity:1.000000;stroke-linecap:round"/>
  <g transform="translate(800,-6) rotate(0)" > <text font-size="58.3333333333" fill="#800" font-family="monospace"  >
   5
  </text> </g> 
  <g transform="translate(570,27) rotate(0)" > <text font-size="58.3333333333" fill="#088" font-family="monospace"  >
   P1.3
  </text> </g> 
  <circle cx="900" cy="0" r="10"
    style="fill:none;stroke:#800;stroke-width:2"  />
  <line x1="900" y1="100" x2="750" y2="100" style="stroke:#800;stroke-width:10;stroke-opacity:1.000000;stroke-linecap:round"/>
  <g transform="translate(800,94) rotate(0)" > <text font-size="58.3333333333" fill="#800" font-family="monospace"  >
   6
  </text> </g> 
  <g transform="translate(10,127) rotate(0)" > <text font-size="58.3333333333" fill="#088" font-family="monospace"  >
   SMCLK/TCK/TA0.2/P1.4
  </text> </g> 
  <circle cx="900" cy="100" r="10"
    style="fill:none;stroke:#800;stroke-width:2"  />
  <line x1="900" y1="200" x2="750" y2="200" style="stroke:#800;stroke-width:10;stroke-opacity:1.000000;stroke-linecap:round"/>
  <g transform="translate(800,194) rotate(0)" > <text font-size="58.3333333333" fill="#800" font-family="monospace"  >
   7
  </text> </g> 
  <g transform="translate(220,227) rotate(0)" > <text font-size="58.3333333333" fill="#088" font-family="monospace"  >
   TMS/TA0.0/P1.5
  </text> </g> 
  <circle cx="900" cy="200" r="10"
    style="fill:none;stroke:#800;stroke-width:2"  />
  <line x1="-900" y1="-300" x2="-750" y2="-300" style="stroke:#800;stroke-width:10;stroke-opacity:1.000000;stroke-linecap:round"/>
  <g transform="translate(-849,-306) rotate(0)" > <text font-size="58.3333333333" fill="#800" font-family="monospace"  >
   8
  </text> </g> 
  <g transform="translate(-732,-272) rotate(0)" > <text font-size="58.3333333333" fill="#088" font-family="monospace"  >
   P2.0
  </text> </g> 
  <circle cx="-900" cy="-300" r="10"
    style="fill:none;stroke:#800;stroke-width:2"  />
  <line x1="-900" y1="-200" x2="-750" y2="-200" style="stroke:#800;stroke-width:10;stroke-opacity:1.000000;stroke-linecap:round"/>
  <g transform="translate(-849,-206) rotate(0)" > <text font-size="58.3333333333" fill="#800" font-family="monospace"  >
   9
  </text> </g> 
  <g transform="translate(-732,-172) rotate(0)" > <text font-size="58.3333333333" fill="#088" font-family="monospace"  >
   P2.1
  </text> </g> 
  <circle cx="-900" cy="-200" r="10"
    style="fill:none;stroke:#800;stroke-width:2"  />
  <line x1="-900" y1="-100" x2="-750" y2="-100" style="stroke:#800;stroke-width:10;stroke-opacity:1.000000;stroke-linecap:round"/>
  <g transform="translate(-874,-106) rotate(0)" > <text font-size="58.3333333333" fill="#800" font-family="monospace"  >
   10
  </text> </g> 
  <g transform="translate(-732,-72) rotate(0)" > <text font-size="58.3333333333" fill="#088" font-family="monospace"  >
   P2.2
  </text> </g> 
  <circle cx="-900" cy="-100" r="10"
    style="fill:none;stroke:#800;stroke-width:2"  />
  <line x1="0" y1="650" x2="0" y2="500" style="stroke:#800;stroke-width:10;stroke-opacity:1.000000;stroke-linecap:round"/>
  <g transform="translate(-8,592) rotate(-90)" > <text font-size="58.3333333333" fill="#800" font-family="monospace"  >
   20
  </text> </g> 
  <g transform="translate(4,470) rotate(-90)" > <text font-size="58.3333333333" fill="#088" font-family="monospace"  >
   DVss
  </text> </g> 
  <circle cx="0" cy="650" r="10"
    style="fill:none;stroke:#800;stroke-width:2"  />
  <line x1="-900" y1="0" x2="-750" y2="0" style="stroke:#800;stroke-width:10;stroke-opacity:1.000000;stroke-linecap:round"/>
  <g transform="translate(-874,-6) rotate(0)" > <text font-size="58.3333333333" fill="#800" font-family="monospace"  >
   11
  </text> </g> 
  <g transform="translate(-732,27) rotate(0)" > <text font-size="58.3333333333" fill="#088" font-family="monospace"  >
   P2.3
  </text> </g> 
  <circle cx="-900" cy="0" r="10"
    style="fill:none;stroke:#800;stroke-width:2"  />
  <line x1="-900" y1="100" x2="-750" y2="100" style="stroke:#800;stroke-width:10;stroke-opacity:1.000000;stroke-linecap:round"/>
  <g transform="translate(-874,94) rotate(0)" > <text font-size="58.3333333333" fill="#800" font-family="monospace"  >
   12
  </text> </g> 
  <g transform="translate(-732,127) rotate(0)" > <text font-size="58.3333333333" fill="#088" font-family="monospace"  >
   P2.4
  </text> </g> 
  <circle cx="-900" cy="100" r="10"
    style="fill:none;stroke:#800;stroke-width:2"  />
  <line x1="-900" y1="200" x2="-750" y2="200" style="stroke:#800;stroke-width:10;stroke-opacity:1.000000;stroke-linecap:round"/>
  <g transform="translate(-874,194) rotate(0)" > <text font-size="58.3333333333" fill="#800" font-family="monospace"  >
   13
  </text> </g> 
  <g transform="translate(-732,227) rotate(0)" > <text font-size="58.3333333333" fill="#088" font-family="monospace"  >
   P2.5
  </text> </g> 
  <circle cx="-900" cy="200" r="10"
    style="fill:none;stroke:#800;stroke-width:2"  />
  <line x1="900" y1="300" x2="750" y2="300" style="stroke:#800;stroke-width:10;stroke-opacity:1.000000;stroke-linecap:round"/>
  <g transform="translate(775,294) rotate(0)" > <text font-size="58.3333333333" fill="#800" font-family="monospace"  >
   14
  </text> </g> 
  <g transform="translate(-235,327) rotate(0)" > <text font-size="58.3333333333" fill="#088" font-family="monospace"  >
   SDO/SCL/TDI/TCLK/TA0.1/P1.6
  </text> </g> 
  <circle cx="900" cy="300" r="10"
    style="fill:none;stroke:#800;stroke-width:2"  />
  <line x1="900" y1="400" x2="750" y2="400" style="stroke:#800;stroke-width:10;stroke-opacity:1.000000;stroke-linecap:round"/>
  <g transform="translate(775,394) rotate(0)" > <text font-size="58.3333333333" fill="#800" font-family="monospace"  >
   15
  </text> </g> 
  <g transform="translate(10,427) rotate(0)" > <text font-size="58.3333333333" fill="#088" font-family="monospace"  >
   SDI/SDA/TDO/TDI/P1.7
  </text> </g> 
  <circle cx="900" cy="400" r="10"
    style="fill:none;stroke:#800;stroke-width:2"  />
  <line x1="-900" y1="-450" x2="-750" y2="-450" style="stroke:#800;stroke-width:10;stroke-opacity:1.000000;stroke-linecap:round"/>
  <g transform="translate(-874,-456) rotate(0)" > <text font-size="58.3333333333" fill="#800" font-family="monospace"  >
   16
  </text> </g> 
  <g transform="translate(-732,-422) rotate(0)" > <text font-size="58.3333333333" fill="#088" font-family="monospace"  >
   ~RST~/NMI/SBWTDIO
  </text> </g> 
  <circle cx="-900" cy="-450" r="10"
    style="fill:none;stroke:#800;stroke-width:2"  />
  <line x1="900" y1="-450" x2="750" y2="-450" style="stroke:#800;stroke-width:10;stroke-opacity:1.000000;stroke-linecap:round"/>
  <g transform="translate(775,-456) rotate(0)" > <text font-size="58.3333333333" fill="#800" font-family="monospace"  >
   17
  </text> </g> 
  <g transform="translate(325,-422) rotate(0)" > <text font-size="58.3333333333" fill="#088" font-family="monospace"  >
   SBWTCK/TEST
  </text> </g> 
  <circle cx="900" cy="-450" r="10"
    style="fill:none;stroke:#800;stroke-width:2"  />
  <line x1="-900" y1="400" x2="-750" y2="400" style="stroke:#800;stroke-width:10;stroke-opacity:1.000000;stroke-linecap:round"/>
  <g transform="translate(-874,394) rotate(0)" > <text font-size="58.3333333333" fill="#800" font-family="monospace"  >
   18
  </text> </g> 
  <g transform="translate(-732,427) rotate(0)" > <text font-size="58.3333333333" fill="#088" font-family="monospace"  >
   P2.7/XOUT
  </text> </g> 
  <circle cx="-900" cy="400" r="10"
    style="fill:none;stroke:#800;stroke-width:2"  />
  <line x1="-900" y1="300" x2="-750" y2="300" style="stroke:#800;stroke-width:10;stroke-opacity:1.000000;stroke-linecap:round"/>
  <g transform="translate(-874,294) rotate(0)" > <text font-size="58.3333333333" fill="#800" font-family="monospace"  >
   19
  </text> </g> 
  <g transform="translate(-732,327) rotate(0)" > <text font-size="58.3333333333" fill="#088" font-family="monospace"  >
   P2.6/XIN/TA0.1
  </text> </g> 
  <circle cx="-900" cy="300" r="10"
    style="fill:none;stroke:#800;stroke-width:2"  />
 </g>
</svg>
