<?xml version="1.0"?>
<svg height="249" width="207"  >
 <g style="fill-opacity:1.0; stroke:black;
  stroke-width:1;" transform=" translate( 103.75,124.625 ) scale( 0.15,0.15 )">
  <g transform="translate(-290,-329) rotate(0)" > <text font-size="66.6666666667" fill="#088" font-family="monospace"  >
   IC
  </text> </g> 
  <g transform="translate(-310,370) rotate(0)" > <text font-size="66.6666666667" fill="#088" font-family="monospace"  >
   NCP1200P
  </text> </g> 
  <rect x="-300" y="-300" height="600"
    width="600" style="fill:none;stroke:#800;stroke-width:10" />
  <line x1="-450" y1="-200" x2="-302" y2="-200" style="stroke:#800;stroke-width:10;stroke-opacity:1.000000;stroke-linecap:round"/>
  <g transform="translate(-400,-206) rotate(0)" > <text font-size="58.3333333333" fill="#800" font-family="monospace"  >
   1
  </text> </g> 
  <g transform="translate(-284,-172) rotate(0)" > <text font-size="58.3333333333" fill="#088" font-family="monospace"  >
   ADJ
  </text> </g> 
  <circle cx="-450" cy="-200" r="10"
    style="fill:none;stroke:#800;stroke-width:2"  />
  <line x1="-450" y1="-50" x2="-301" y2="-50" style="stroke:#800;stroke-width:10;stroke-opacity:1.000000;stroke-linecap:round"/>
  <g transform="translate(-400,-56) rotate(0)" > <text font-size="58.3333333333" fill="#800" font-family="monospace"  >
   2
  </text> </g> 
  <g transform="translate(-283,-22) rotate(0)" > <text font-size="58.3333333333" fill="#088" font-family="monospace"  >
   FB
  </text> </g> 
  <circle cx="-450" cy="-50" r="10"
    style="fill:none;stroke:#800;stroke-width:2"  />
  <line x1="450" y1="50" x2="301" y2="50" style="stroke:#800;stroke-width:10;stroke-opacity:1.000000;stroke-linecap:round"/>
  <g transform="translate(350,44) rotate(0)" > <text font-size="58.3333333333" fill="#800" font-family="monospace"  >
   3
  </text> </g> 
  <g transform="translate(156,77) rotate(0)" > <text font-size="58.3333333333" fill="#088" font-family="monospace"  >
   CS1
  </text> </g> 
  <circle cx="450" cy="50" r="10"
    style="fill:none;stroke:#800;stroke-width:2"  />
  <line x1="-450" y1="200" x2="-301" y2="200" style="stroke:#800;stroke-width:10;stroke-opacity:1.000000;stroke-linecap:round"/>
  <g transform="translate(-400,194) rotate(0)" > <text font-size="58.3333333333" fill="#800" font-family="monospace"  >
   4
  </text> </g> 
  <g transform="translate(-283,227) rotate(0)" > <text font-size="58.3333333333" fill="#088" font-family="monospace"  >
   GND
  </text> </g> 
  <circle cx="-450" cy="200" r="10"
    style="fill:none;stroke:#800;stroke-width:2"  />
  <line x1="450" y1="-200" x2="303" y2="-200" style="stroke:#800;stroke-width:10;stroke-opacity:1.000000;stroke-linecap:round"/>
  <g transform="translate(351,-206) rotate(0)" > <text font-size="58.3333333333" fill="#800" font-family="monospace"  >
   5
  </text> </g> 
  <g transform="translate(158,-172) rotate(0)" > <text font-size="58.3333333333" fill="#088" font-family="monospace"  >
   DRV
  </text> </g> 
  <circle cx="450" cy="-200" r="10"
    style="fill:none;stroke:#800;stroke-width:2"  />
  <line x1="450" y1="200" x2="303" y2="200" style="stroke:#800;stroke-width:10;stroke-opacity:1.000000;stroke-linecap:round"/>
  <g transform="translate(351,194) rotate(0)" > <text font-size="58.3333333333" fill="#800" font-family="monospace"  >
   6
  </text> </g> 
  <g transform="translate(158,227) rotate(0)" > <text font-size="58.3333333333" fill="#088" font-family="monospace"  >
   VCC
  </text> </g> 
  <circle cx="450" cy="200" r="10"
    style="fill:none;stroke:#800;stroke-width:2"  />
  <line x1="0" y1="-450" x2="0" y2="-302" style="stroke:#800;stroke-width:10;stroke-opacity:1.000000;stroke-linecap:round"/>
  <g transform="translate(-8,-367) rotate(-90)" > <text font-size="58.3333333333" fill="#800" font-family="monospace"  >
   8
  </text> </g> 
  <g transform="translate(4,-202) rotate(-90)" > <text font-size="58.3333333333" fill="#088" font-family="monospace"  >
   HV
  </text> </g> 
  <circle cx="0" cy="-450" r="10"
    style="fill:none;stroke:#800;stroke-width:2"  />
 </g>
</svg>
