<?xml version="1.0"?>
<svg height="958" width="958"  >
 <g style="fill-opacity:1.0; stroke:black;
  stroke-width:1;" transform=" translate( 479.25,479.25 ) scale( 0.15,0.15 )">
  <g transform="translate(-675,-375) rotate(0)" > <text font-size="83.3333333333" fill="#088" font-family="monospace"  >
   U
  </text> </g> 
  <g transform="translate(74,425) rotate(0)" > <text font-size="83.3333333333" fill="#088" font-family="monospace"  >
   PIC12F617-I/P
  </text> </g> 
  <rect x="-700" y="-350" height="700"
    width="1400" style="fill:none;stroke:#800;stroke-width:10" />
  <line x1="-850" y1="-250" x2="-700" y2="-250" style="stroke:#800;stroke-width:10;stroke-opacity:1.000000;stroke-linecap:round"/>
  <g transform="translate(-803,-256) rotate(0)" > <text font-size="66.6666666667" fill="#800" font-family="monospace"  >
   1
  </text> </g> 
  <g transform="translate(-682,-220) rotate(0)" > <text font-size="66.6666666667" fill="#088" font-family="monospace"  >
   VDD
  </text> </g> 
  <circle cx="-850" cy="-250" r="10"
    style="fill:none;stroke:#800;stroke-width:2"  />
  <line x1="850" y1="250" x2="700" y2="250" style="stroke:#800;stroke-width:10;stroke-opacity:1.000000;stroke-linecap:round"/>
  <g transform="translate(746,244) rotate(0)" > <text font-size="66.6666666667" fill="#800" font-family="monospace"  >
   2
  </text> </g> 
  <g transform="translate(-300,280) rotate(0)" > <text font-size="66.6666666667" fill="#088" font-family="monospace"  >
   GP5/T1CKI/P1A/OSC1/CLKIN
  </text> </g> 
  <circle cx="850" cy="250" r="10"
    style="fill:none;stroke:#800;stroke-width:2"  />
  <line x1="850" y1="150" x2="700" y2="150" style="stroke:#800;stroke-width:10;stroke-opacity:1.000000;stroke-linecap:round"/>
  <g transform="translate(746,144) rotate(0)" > <text font-size="66.6666666667" fill="#800" font-family="monospace"  >
   3
  </text> </g> 
  <g transform="translate(-740,180) rotate(0)" > <text font-size="66.6666666667" fill="#088" font-family="monospace"  >
   GP4/AN3/CIN1-/~T1G~/P1B/OSC2/CLKOUT
  </text> </g> 
  <circle cx="850" cy="150" r="10"
    style="fill:none;stroke:#800;stroke-width:2"  />
  <line x1="850" y1="50" x2="700" y2="50" style="stroke:#800;stroke-width:10;stroke-opacity:1.000000;stroke-linecap:round"/>
  <g transform="translate(746,44) rotate(0)" > <text font-size="66.6666666667" fill="#800" font-family="monospace"  >
   4
  </text> </g> 
  <g transform="translate(-140,80) rotate(0)" > <text font-size="66.6666666667" fill="#088" font-family="monospace"  >
   GP3/~T1G~/~MCLR~/Vpp
  </text> </g> 
  <circle cx="850" cy="50" r="10"
    style="fill:none;stroke:#800;stroke-width:2"  />
  <line x1="850" y1="-50" x2="700" y2="-50" style="stroke:#800;stroke-width:10;stroke-opacity:1.000000;stroke-linecap:round"/>
  <g transform="translate(746,-56) rotate(0)" > <text font-size="66.6666666667" fill="#800" font-family="monospace"  >
   5
  </text> </g> 
  <g transform="translate(-580,-20) rotate(0)" > <text font-size="66.6666666667" fill="#088" font-family="monospace"  >
   GP2/AN2/T0CKI/INT/COUT/CCP1/P1A
  </text> </g> 
  <circle cx="850" cy="-50" r="10"
    style="fill:none;stroke:#800;stroke-width:2"  />
  <line x1="850" y1="-150" x2="700" y2="-150" style="stroke:#800;stroke-width:10;stroke-opacity:1.000000;stroke-linecap:round"/>
  <g transform="translate(746,-156) rotate(0)" > <text font-size="66.6666666667" fill="#800" font-family="monospace"  >
   6
  </text> </g> 
  <g transform="translate(-380,-120) rotate(0)" > <text font-size="66.6666666667" fill="#088" font-family="monospace"  >
   GP1/AN1/CIN0-/VREF/ICSPCLK
  </text> </g> 
  <circle cx="850" cy="-150" r="10"
    style="fill:none;stroke:#800;stroke-width:2"  />
  <line x1="850" y1="-250" x2="700" y2="-250" style="stroke:#800;stroke-width:10;stroke-opacity:1.000000;stroke-linecap:round"/>
  <g transform="translate(746,-256) rotate(0)" > <text font-size="66.6666666667" fill="#800" font-family="monospace"  >
   7
  </text> </g> 
  <g transform="translate(-300,-220) rotate(0)" > <text font-size="66.6666666667" fill="#088" font-family="monospace"  >
   GP0/AN0/CIN+/P1B/ICSPDAT
  </text> </g> 
  <circle cx="850" cy="-250" r="10"
    style="fill:none;stroke:#800;stroke-width:2"  />
  <line x1="-850" y1="250" x2="-700" y2="250" style="stroke:#800;stroke-width:10;stroke-opacity:1.000000;stroke-linecap:round"/>
  <g transform="translate(-803,244) rotate(0)" > <text font-size="66.6666666667" fill="#800" font-family="monospace"  >
   8
  </text> </g> 
  <g transform="translate(-682,280) rotate(0)" > <text font-size="66.6666666667" fill="#088" font-family="monospace"  >
   VSS
  </text> </g> 
  <circle cx="-850" cy="250" r="10"
    style="fill:none;stroke:#800;stroke-width:2"  />
 </g>
</svg>
