<?xml version="1.0"?>
<svg height="474" width="401"  >
 <g style="fill-opacity:1.0; stroke:black;
  stroke-width:1;" transform=" translate( 200.9125,237.2125 ) scale( 0.15,0.15 )">
  <g transform="translate(-190,-1420) rotate(0)" > <text font-size="100.0" fill="#088" font-family="monospace"  >
   BAR
  </text> </g> 
  <g transform="translate(-240,-1270) rotate(0)" > <text font-size="100.0" fill="#088" font-family="monospace"  >
   DOT-BAR2
  </text> </g> 
  <line x1="100" y1="250" x2="100" y2="50" style="stroke:#800;stroke-width:10;stroke-opacity:1.000000;stroke-linecap:round"/>
  <line x1="100" y1="50" x2="100" y2="50" style="stroke:#800;stroke-width:10;stroke-opacity:1.000000;stroke-linecap:round"/>
  <line x1="-100" y1="1250" x2="-100" y2="1050" style="stroke:#800;stroke-width:10;stroke-opacity:1.000000;stroke-linecap:round"/>
  <line x1="-100" y1="1050" x2="100" y2="1150" style="stroke:#800;stroke-width:10;stroke-opacity:1.000000;stroke-linecap:round"/>
  <line x1="100" y1="1150" x2="-100" y2="1250" style="stroke:#800;stroke-width:10;stroke-opacity:1.000000;stroke-linecap:round"/>
  <line x1="-100" y1="1250" x2="-100" y2="1250" style="stroke:#800;stroke-width:10;stroke-opacity:1.000000;stroke-linecap:round"/>
  <line x1="-100" y1="500" x2="-100" y2="300" style="stroke:#800;stroke-width:10;stroke-opacity:1.000000;stroke-linecap:round"/>
  <line x1="-100" y1="300" x2="100" y2="400" style="stroke:#800;stroke-width:10;stroke-opacity:1.000000;stroke-linecap:round"/>
  <line x1="100" y1="400" x2="-100" y2="500" style="stroke:#800;stroke-width:10;stroke-opacity:1.000000;stroke-linecap:round"/>
  <line x1="-100" y1="500" x2="-100" y2="500" style="stroke:#800;stroke-width:10;stroke-opacity:1.000000;stroke-linecap:round"/>
  <line x1="-100" y1="-250" x2="-100" y2="-450" style="stroke:#800;stroke-width:10;stroke-opacity:1.000000;stroke-linecap:round"/>
  <line x1="-100" y1="-450" x2="100" y2="-350" style="stroke:#800;stroke-width:10;stroke-opacity:1.000000;stroke-linecap:round"/>
  <line x1="100" y1="-350" x2="-100" y2="-250" style="stroke:#800;stroke-width:10;stroke-opacity:1.000000;stroke-linecap:round"/>
  <line x1="-100" y1="-250" x2="-100" y2="-250" style="stroke:#800;stroke-width:10;stroke-opacity:1.000000;stroke-linecap:round"/>
  <rect x="-200" y="-1250" height="0"
    width="350" style="fill:none;stroke:#800;stroke-width:10" />
  <line x1="100" y1="-250" x2="100" y2="-450" style="stroke:#800;stroke-width:10;stroke-opacity:1.000000;stroke-linecap:round"/>
  <line x1="100" y1="-450" x2="100" y2="-450" style="stroke:#800;stroke-width:10;stroke-opacity:1.000000;stroke-linecap:round"/>
  <line x1="100" y1="0" x2="100" y2="-200" style="stroke:#800;stroke-width:10;stroke-opacity:1.000000;stroke-linecap:round"/>
  <line x1="100" y1="-200" x2="100" y2="-200" style="stroke:#800;stroke-width:10;stroke-opacity:1.000000;stroke-linecap:round"/>
  <line x1="-100" y1="0" x2="-100" y2="-200" style="stroke:#800;stroke-width:10;stroke-opacity:1.000000;stroke-linecap:round"/>
  <line x1="-100" y1="-200" x2="100" y2="-100" style="stroke:#800;stroke-width:10;stroke-opacity:1.000000;stroke-linecap:round"/>
  <line x1="100" y1="-100" x2="-100" y2="0" style="stroke:#800;stroke-width:10;stroke-opacity:1.000000;stroke-linecap:round"/>
  <line x1="-100" y1="0" x2="-100" y2="0" style="stroke:#800;stroke-width:10;stroke-opacity:1.000000;stroke-linecap:round"/>
  <line x1="100" y1="750" x2="100" y2="550" style="stroke:#800;stroke-width:10;stroke-opacity:1.000000;stroke-linecap:round"/>
  <line x1="100" y1="550" x2="100" y2="550" style="stroke:#800;stroke-width:10;stroke-opacity:1.000000;stroke-linecap:round"/>
  <line x1="100" y1="-500" x2="100" y2="-700" style="stroke:#800;stroke-width:10;stroke-opacity:1.000000;stroke-linecap:round"/>
  <line x1="100" y1="-700" x2="100" y2="-700" style="stroke:#800;stroke-width:10;stroke-opacity:1.000000;stroke-linecap:round"/>
  <line x1="-100" y1="250" x2="-100" y2="50" style="stroke:#800;stroke-width:10;stroke-opacity:1.000000;stroke-linecap:round"/>
  <line x1="-100" y1="50" x2="100" y2="150" style="stroke:#800;stroke-width:10;stroke-opacity:1.000000;stroke-linecap:round"/>
  <line x1="100" y1="150" x2="-100" y2="250" style="stroke:#800;stroke-width:10;stroke-opacity:1.000000;stroke-linecap:round"/>
  <line x1="-100" y1="250" x2="-100" y2="250" style="stroke:#800;stroke-width:10;stroke-opacity:1.000000;stroke-linecap:round"/>
  <line x1="100" y1="-750" x2="100" y2="-950" style="stroke:#800;stroke-width:10;stroke-opacity:1.000000;stroke-linecap:round"/>
  <line x1="100" y1="-950" x2="100" y2="-950" style="stroke:#800;stroke-width:10;stroke-opacity:1.000000;stroke-linecap:round"/>
  <line x1="-100" y1="-500" x2="-100" y2="-700" style="stroke:#800;stroke-width:10;stroke-opacity:1.000000;stroke-linecap:round"/>
  <line x1="-100" y1="-700" x2="100" y2="-600" style="stroke:#800;stroke-width:10;stroke-opacity:1.000000;stroke-linecap:round"/>
  <line x1="100" y1="-600" x2="-100" y2="-500" style="stroke:#800;stroke-width:10;stroke-opacity:1.000000;stroke-linecap:round"/>
  <line x1="-100" y1="-500" x2="-100" y2="-500" style="stroke:#800;stroke-width:10;stroke-opacity:1.000000;stroke-linecap:round"/>
  <rect x="-150" y="-1250" height="2550"
    width="300" style="fill:none;stroke:#800;stroke-width:10" />
  <line x1="100" y1="-1000" x2="100" y2="-1200" style="stroke:#800;stroke-width:10;stroke-opacity:1.000000;stroke-linecap:round"/>
  <line x1="100" y1="-1200" x2="100" y2="-1200" style="stroke:#800;stroke-width:10;stroke-opacity:1.000000;stroke-linecap:round"/>
  <line x1="100" y1="1250" x2="100" y2="1050" style="stroke:#800;stroke-width:10;stroke-opacity:1.000000;stroke-linecap:round"/>
  <line x1="100" y1="1050" x2="100" y2="1050" style="stroke:#800;stroke-width:10;stroke-opacity:1.000000;stroke-linecap:round"/>
  <line x1="-100" y1="-1000" x2="-100" y2="-1200" style="stroke:#800;stroke-width:10;stroke-opacity:1.000000;stroke-linecap:round"/>
  <line x1="-100" y1="-1200" x2="100" y2="-1100" style="stroke:#800;stroke-width:10;stroke-opacity:1.000000;stroke-linecap:round"/>
  <line x1="100" y1="-1100" x2="-100" y2="-1000" style="stroke:#800;stroke-width:10;stroke-opacity:1.000000;stroke-linecap:round"/>
  <line x1="-100" y1="-1000" x2="-100" y2="-1000" style="stroke:#800;stroke-width:10;stroke-opacity:1.000000;stroke-linecap:round"/>
  <line x1="-100" y1="1000" x2="-100" y2="800" style="stroke:#800;stroke-width:10;stroke-opacity:1.000000;stroke-linecap:round"/>
  <line x1="-100" y1="800" x2="100" y2="900" style="stroke:#800;stroke-width:10;stroke-opacity:1.000000;stroke-linecap:round"/>
  <line x1="100" y1="900" x2="-100" y2="1000" style="stroke:#800;stroke-width:10;stroke-opacity:1.000000;stroke-linecap:round"/>
  <line x1="-100" y1="1000" x2="-100" y2="1000" style="stroke:#800;stroke-width:10;stroke-opacity:1.000000;stroke-linecap:round"/>
  <line x1="-100" y1="-750" x2="-100" y2="-950" style="stroke:#800;stroke-width:10;stroke-opacity:1.000000;stroke-linecap:round"/>
  <line x1="-100" y1="-950" x2="100" y2="-850" style="stroke:#800;stroke-width:10;stroke-opacity:1.000000;stroke-linecap:round"/>
  <line x1="100" y1="-850" x2="-100" y2="-750" style="stroke:#800;stroke-width:10;stroke-opacity:1.000000;stroke-linecap:round"/>
  <line x1="-100" y1="-750" x2="-100" y2="-750" style="stroke:#800;stroke-width:10;stroke-opacity:1.000000;stroke-linecap:round"/>
  <line x1="100" y1="1000" x2="100" y2="800" style="stroke:#800;stroke-width:10;stroke-opacity:1.000000;stroke-linecap:round"/>
  <line x1="100" y1="800" x2="100" y2="800" style="stroke:#800;stroke-width:10;stroke-opacity:1.000000;stroke-linecap:round"/>
  <line x1="100" y1="500" x2="100" y2="300" style="stroke:#800;stroke-width:10;stroke-opacity:1.000000;stroke-linecap:round"/>
  <line x1="100" y1="300" x2="100" y2="300" style="stroke:#800;stroke-width:10;stroke-opacity:1.000000;stroke-linecap:round"/>
  <line x1="-100" y1="750" x2="-100" y2="550" style="stroke:#800;stroke-width:10;stroke-opacity:1.000000;stroke-linecap:round"/>
  <line x1="-100" y1="550" x2="100" y2="650" style="stroke:#800;stroke-width:10;stroke-opacity:1.000000;stroke-linecap:round"/>
  <line x1="100" y1="650" x2="-100" y2="750" style="stroke:#800;stroke-width:10;stroke-opacity:1.000000;stroke-linecap:round"/>
  <line x1="-100" y1="750" x2="-100" y2="750" style="stroke:#800;stroke-width:10;stroke-opacity:1.000000;stroke-linecap:round"/>
  <line x1="400" y1="1150" x2="100" y2="1150" style="stroke:#800;stroke-width:10;stroke-opacity:1.000000;stroke-linecap:round"/>
  <g transform="translate(194,1144) rotate(0)" > <text font-size="65.0" fill="#800" font-family="monospace"  >
   11
  </text> </g> 
  <circle cx="400" cy="1150" r="10"
    style="fill:none;stroke:#800;stroke-width:2"  />
  <line x1="400" y1="900" x2="100" y2="900" style="stroke:#800;stroke-width:10;stroke-opacity:1.000000;stroke-linecap:round"/>
  <g transform="translate(194,894) rotate(0)" > <text font-size="65.0" fill="#800" font-family="monospace"  >
   12
  </text> </g> 
  <circle cx="400" cy="900" r="10"
    style="fill:none;stroke:#800;stroke-width:2"  />
  <line x1="400" y1="650" x2="100" y2="650" style="stroke:#800;stroke-width:10;stroke-opacity:1.000000;stroke-linecap:round"/>
  <g transform="translate(194,644) rotate(0)" > <text font-size="65.0" fill="#800" font-family="monospace"  >
   13
  </text> </g> 
  <circle cx="400" cy="650" r="10"
    style="fill:none;stroke:#800;stroke-width:2"  />
  <line x1="400" y1="400" x2="100" y2="400" style="stroke:#800;stroke-width:10;stroke-opacity:1.000000;stroke-linecap:round"/>
  <g transform="translate(194,394) rotate(0)" > <text font-size="65.0" fill="#800" font-family="monospace"  >
   14
  </text> </g> 
  <circle cx="400" cy="400" r="10"
    style="fill:none;stroke:#800;stroke-width:2"  />
  <line x1="400" y1="150" x2="100" y2="150" style="stroke:#800;stroke-width:10;stroke-opacity:1.000000;stroke-linecap:round"/>
  <g transform="translate(194,144) rotate(0)" > <text font-size="65.0" fill="#800" font-family="monospace"  >
   15
  </text> </g> 
  <circle cx="400" cy="150" r="10"
    style="fill:none;stroke:#800;stroke-width:2"  />
  <line x1="400" y1="-100" x2="100" y2="-100" style="stroke:#800;stroke-width:10;stroke-opacity:1.000000;stroke-linecap:round"/>
  <g transform="translate(194,-106) rotate(0)" > <text font-size="65.0" fill="#800" font-family="monospace"  >
   16
  </text> </g> 
  <circle cx="400" cy="-100" r="10"
    style="fill:none;stroke:#800;stroke-width:2"  />
  <line x1="400" y1="-350" x2="100" y2="-350" style="stroke:#800;stroke-width:10;stroke-opacity:1.000000;stroke-linecap:round"/>
  <g transform="translate(194,-356) rotate(0)" > <text font-size="65.0" fill="#800" font-family="monospace"  >
   17
  </text> </g> 
  <circle cx="400" cy="-350" r="10"
    style="fill:none;stroke:#800;stroke-width:2"  />
  <line x1="400" y1="-600" x2="100" y2="-600" style="stroke:#800;stroke-width:10;stroke-opacity:1.000000;stroke-linecap:round"/>
  <g transform="translate(194,-606) rotate(0)" > <text font-size="65.0" fill="#800" font-family="monospace"  >
   18
  </text> </g> 
  <circle cx="400" cy="-600" r="10"
    style="fill:none;stroke:#800;stroke-width:2"  />
  <line x1="400" y1="-850" x2="100" y2="-850" style="stroke:#800;stroke-width:10;stroke-opacity:1.000000;stroke-linecap:round"/>
  <g transform="translate(194,-856) rotate(0)" > <text font-size="65.0" fill="#800" font-family="monospace"  >
   19
  </text> </g> 
  <circle cx="400" cy="-850" r="10"
    style="fill:none;stroke:#800;stroke-width:2"  />
  <line x1="400" y1="-1100" x2="100" y2="-1100" style="stroke:#800;stroke-width:10;stroke-opacity:1.000000;stroke-linecap:round"/>
  <g transform="translate(194,-1106) rotate(0)" > <text font-size="65.0" fill="#800" font-family="monospace"  >
   20
  </text> </g> 
  <circle cx="400" cy="-1100" r="10"
    style="fill:none;stroke:#800;stroke-width:2"  />
  <line x1="-400" y1="1150" x2="-100" y2="1150" style="stroke:#800;stroke-width:10;stroke-opacity:1.000000;stroke-linecap:round"/>
  <g transform="translate(-305,1144) rotate(0)" > <text font-size="65.0" fill="#800" font-family="monospace"  >
   10
  </text> </g> 
  <circle cx="-400" cy="1150" r="10"
    style="fill:none;stroke:#800;stroke-width:2"  />
  <line x1="-400" y1="900" x2="-100" y2="900" style="stroke:#800;stroke-width:10;stroke-opacity:1.000000;stroke-linecap:round"/>
  <g transform="translate(-277,894) rotate(0)" > <text font-size="65.0" fill="#800" font-family="monospace"  >
   9
  </text> </g> 
  <circle cx="-400" cy="900" r="10"
    style="fill:none;stroke:#800;stroke-width:2"  />
  <line x1="-400" y1="650" x2="-100" y2="650" style="stroke:#800;stroke-width:10;stroke-opacity:1.000000;stroke-linecap:round"/>
  <g transform="translate(-277,644) rotate(0)" > <text font-size="65.0" fill="#800" font-family="monospace"  >
   8
  </text> </g> 
  <circle cx="-400" cy="650" r="10"
    style="fill:none;stroke:#800;stroke-width:2"  />
  <line x1="-400" y1="400" x2="-100" y2="400" style="stroke:#800;stroke-width:10;stroke-opacity:1.000000;stroke-linecap:round"/>
  <g transform="translate(-277,394) rotate(0)" > <text font-size="65.0" fill="#800" font-family="monospace"  >
   7
  </text> </g> 
  <circle cx="-400" cy="400" r="10"
    style="fill:none;stroke:#800;stroke-width:2"  />
  <line x1="-400" y1="150" x2="-100" y2="150" style="stroke:#800;stroke-width:10;stroke-opacity:1.000000;stroke-linecap:round"/>
  <g transform="translate(-277,144) rotate(0)" > <text font-size="65.0" fill="#800" font-family="monospace"  >
   6
  </text> </g> 
  <circle cx="-400" cy="150" r="10"
    style="fill:none;stroke:#800;stroke-width:2"  />
  <line x1="-400" y1="-100" x2="-100" y2="-100" style="stroke:#800;stroke-width:10;stroke-opacity:1.000000;stroke-linecap:round"/>
  <g transform="translate(-277,-106) rotate(0)" > <text font-size="65.0" fill="#800" font-family="monospace"  >
   5
  </text> </g> 
  <circle cx="-400" cy="-100" r="10"
    style="fill:none;stroke:#800;stroke-width:2"  />
  <line x1="-400" y1="-350" x2="-100" y2="-350" style="stroke:#800;stroke-width:10;stroke-opacity:1.000000;stroke-linecap:round"/>
  <g transform="translate(-277,-356) rotate(0)" > <text font-size="65.0" fill="#800" font-family="monospace"  >
   4
  </text> </g> 
  <circle cx="-400" cy="-350" r="10"
    style="fill:none;stroke:#800;stroke-width:2"  />
  <line x1="-400" y1="-600" x2="-100" y2="-600" style="stroke:#800;stroke-width:10;stroke-opacity:1.000000;stroke-linecap:round"/>
  <g transform="translate(-277,-606) rotate(0)" > <text font-size="65.0" fill="#800" font-family="monospace"  >
   3
  </text> </g> 
  <circle cx="-400" cy="-600" r="10"
    style="fill:none;stroke:#800;stroke-width:2"  />
  <line x1="-400" y1="-850" x2="-100" y2="-850" style="stroke:#800;stroke-width:10;stroke-opacity:1.000000;stroke-linecap:round"/>
  <g transform="translate(-277,-856) rotate(0)" > <text font-size="65.0" fill="#800" font-family="monospace"  >
   2
  </text> </g> 
  <circle cx="-400" cy="-850" r="10"
    style="fill:none;stroke:#800;stroke-width:2"  />
  <line x1="-400" y1="-1100" x2="-100" y2="-1100" style="stroke:#800;stroke-width:10;stroke-opacity:1.000000;stroke-linecap:round"/>
  <g transform="translate(-277,-1106) rotate(0)" > <text font-size="65.0" fill="#800" font-family="monospace"  >
   1
  </text> </g> 
  <circle cx="-400" cy="-1100" r="10"
    style="fill:none;stroke:#800;stroke-width:2"  />
 </g>
</svg>
