<?xml version="1.0"?>
<svg height="382" width="382"  >
 <g style="fill-opacity:1.0; stroke:black;
  stroke-width:1;" transform=" translate( 191.25,191.25 ) scale( 0.15,0.15 )">
  <g transform="translate(-530,580) rotate(0)" > <text font-size="100.0" fill="#088" font-family="monospace"  >
   U
  </text> </g> 
  <g transform="translate(140,-520) rotate(0)" > <text font-size="100.0" fill="#088" font-family="monospace"  >
   FT201XQ
  </text> </g> 
  <rect x="-550" y="-500" height="1000"
    width="1100" style="fill:none;stroke:#800;stroke-width:10" />
  <line x1="100" y1="-700" x2="100" y2="-500" style="stroke:#800;stroke-width:10;stroke-opacity:1.000000;stroke-linecap:round"/>
  <g transform="translate(87,-587) rotate(-90)" > <text font-size="83.3333333333" fill="#800" font-family="monospace"  >
   1
  </text> </g> 
  <g transform="translate(106,-208) rotate(-90)" > <text font-size="83.3333333333" fill="#088" font-family="monospace"  >
   VCCIO
  </text> </g> 
  <circle cx="100" cy="-700" r="10"
    style="fill:none;stroke:#800;stroke-width:2"  />
  <line x1="750" y1="-300" x2="550" y2="-300" style="stroke:#800;stroke-width:10;stroke-opacity:1.000000;stroke-linecap:round"/>
  <g transform="translate(614,-306) rotate(0)" > <text font-size="83.3333333333" fill="#800" font-family="monospace"  >
   2
  </text> </g> 
  <g transform="translate(360,-265) rotate(0)" > <text font-size="83.3333333333" fill="#088" font-family="monospace"  >
   SDA
  </text> </g> 
  <circle cx="750" cy="-300" r="10"
    style="fill:none;stroke:#800;stroke-width:2"  />
  <line x1="-100" y1="700" x2="-100" y2="500" style="stroke:#800;stroke-width:10;stroke-opacity:1.000000;stroke-linecap:round"/>
  <g transform="translate(-112,612) rotate(-90)" > <text font-size="83.3333333333" fill="#800" font-family="monospace"  >
   3
  </text> </g> 
  <g transform="translate(-93,458) rotate(-90)" > <text font-size="83.3333333333" fill="#088" font-family="monospace"  >
   GND
  </text> </g> 
  <circle cx="-100" cy="700" r="10"
    style="fill:none;stroke:#800;stroke-width:2"  />
  <line x1="750" y1="300" x2="550" y2="300" style="stroke:#800;stroke-width:10;stroke-opacity:1.000000;stroke-linecap:round"/>
  <g transform="translate(614,294) rotate(0)" > <text font-size="83.3333333333" fill="#800" font-family="monospace"  >
   4
  </text> </g> 
  <g transform="translate(260,335) rotate(0)" > <text font-size="83.3333333333" fill="#088" font-family="monospace"  >
   CBUS4
  </text> </g> 
  <circle cx="750" cy="300" r="10"
    style="fill:none;stroke:#800;stroke-width:2"  />
  <line x1="750" y1="100" x2="550" y2="100" style="stroke:#800;stroke-width:10;stroke-opacity:1.000000;stroke-linecap:round"/>
  <g transform="translate(614,94) rotate(0)" > <text font-size="83.3333333333" fill="#800" font-family="monospace"  >
   5
  </text> </g> 
  <g transform="translate(260,135) rotate(0)" > <text font-size="83.3333333333" fill="#088" font-family="monospace"  >
   CBUS2
  </text> </g> 
  <circle cx="750" cy="100" r="10"
    style="fill:none;stroke:#800;stroke-width:2"  />
  <line x1="-750" y1="-100" x2="-550" y2="-100" style="stroke:#800;stroke-width:10;stroke-opacity:1.000000;stroke-linecap:round"/>
  <g transform="translate(-685,-106) rotate(0)" > <text font-size="83.3333333333" fill="#800" font-family="monospace"  >
   6
  </text> </g> 
  <g transform="translate(-532,-65) rotate(0)" > <text font-size="83.3333333333" fill="#088" font-family="monospace"  >
   USBDP
  </text> </g> 
  <circle cx="-750" cy="-100" r="10"
    style="fill:none;stroke:#800;stroke-width:2"  />
  <line x1="-750" y1="-200" x2="-550" y2="-200" style="stroke:#800;stroke-width:10;stroke-opacity:1.000000;stroke-linecap:round"/>
  <g transform="translate(-685,-206) rotate(0)" > <text font-size="83.3333333333" fill="#800" font-family="monospace"  >
   7
  </text> </g> 
  <g transform="translate(-532,-165) rotate(0)" > <text font-size="83.3333333333" fill="#088" font-family="monospace"  >
   USBDM
  </text> </g> 
  <circle cx="-750" cy="-200" r="10"
    style="fill:none;stroke:#800;stroke-width:2"  />
  <line x1="-750" y1="-400" x2="-550" y2="-400" style="stroke:#800;stroke-width:10;stroke-opacity:1.000000;stroke-linecap:round"/>
  <g transform="translate(-685,-406) rotate(0)" > <text font-size="83.3333333333" fill="#800" font-family="monospace"  >
   8
  </text> </g> 
  <g transform="translate(-532,-365) rotate(0)" > <text font-size="83.3333333333" fill="#088" font-family="monospace"  >
   3V3OUT
  </text> </g> 
  <circle cx="-750" cy="-400" r="10"
    style="fill:none;stroke:#800;stroke-width:2"  />
  <line x1="-750" y1="200" x2="-550" y2="200" style="stroke:#800;stroke-width:10;stroke-opacity:1.000000;stroke-linecap:round"/>
  <g transform="translate(-685,194) rotate(0)" > <text font-size="83.3333333333" fill="#800" font-family="monospace"  >
   9
  </text> </g> 
  <g transform="translate(-532,235) rotate(0)" > <text font-size="83.3333333333" fill="#088" font-family="monospace"  >
   ~RESET
  </text> </g> 
  <circle cx="-750" cy="200" r="10"
    style="fill:none;stroke:#800;stroke-width:2"  />
  <line x1="-100" y1="-700" x2="-100" y2="-500" style="stroke:#800;stroke-width:10;stroke-opacity:1.000000;stroke-linecap:round"/>
  <g transform="translate(-112,-575) rotate(-90)" > <text font-size="83.3333333333" fill="#800" font-family="monospace"  >
   10
  </text> </g> 
  <g transform="translate(-93,-308) rotate(-90)" > <text font-size="83.3333333333" fill="#088" font-family="monospace"  >
   VCC
  </text> </g> 
  <circle cx="-100" cy="-700" r="10"
    style="fill:none;stroke:#800;stroke-width:2"  />
  <line x1="750" y1="0" x2="550" y2="0" style="stroke:#800;stroke-width:10;stroke-opacity:1.000000;stroke-linecap:round"/>
  <g transform="translate(579,-6) rotate(0)" > <text font-size="83.3333333333" fill="#800" font-family="monospace"  >
   11
  </text> </g> 
  <g transform="translate(260,35) rotate(0)" > <text font-size="83.3333333333" fill="#088" font-family="monospace"  >
   CBUS1
  </text> </g> 
  <circle cx="750" cy="0" r="10"
    style="fill:none;stroke:#800;stroke-width:2"  />
  <line x1="750" y1="-100" x2="550" y2="-100" style="stroke:#800;stroke-width:10;stroke-opacity:1.000000;stroke-linecap:round"/>
  <g transform="translate(579,-106) rotate(0)" > <text font-size="83.3333333333" fill="#800" font-family="monospace"  >
   12
  </text> </g> 
  <g transform="translate(260,-65) rotate(0)" > <text font-size="83.3333333333" fill="#088" font-family="monospace"  >
   CBUS0
  </text> </g> 
  <circle cx="750" cy="-100" r="10"
    style="fill:none;stroke:#800;stroke-width:2"  />
  <line x1="0" y1="700" x2="0" y2="500" style="stroke:#800;stroke-width:10;stroke-opacity:1.000000;stroke-linecap:round"/>
  <g transform="translate(-12,625) rotate(-90)" > <text font-size="83.3333333333" fill="#800" font-family="monospace"  >
   13
  </text> </g> 
  <g transform="translate(6,458) rotate(-90)" > <text font-size="83.3333333333" fill="#088" font-family="monospace"  >
   GND
  </text> </g> 
  <circle cx="0" cy="700" r="10"
    style="fill:none;stroke:#800;stroke-width:2"  />
  <line x1="750" y1="200" x2="550" y2="200" style="stroke:#800;stroke-width:10;stroke-opacity:1.000000;stroke-linecap:round"/>
  <g transform="translate(579,194) rotate(0)" > <text font-size="83.3333333333" fill="#800" font-family="monospace"  >
   14
  </text> </g> 
  <g transform="translate(260,235) rotate(0)" > <text font-size="83.3333333333" fill="#088" font-family="monospace"  >
   CBUS3
  </text> </g> 
  <circle cx="750" cy="200" r="10"
    style="fill:none;stroke:#800;stroke-width:2"  />
  <line x1="750" y1="400" x2="550" y2="400" style="stroke:#800;stroke-width:10;stroke-opacity:1.000000;stroke-linecap:round"/>
  <g transform="translate(579,394) rotate(0)" > <text font-size="83.3333333333" fill="#800" font-family="monospace"  >
   15
  </text> </g> 
  <g transform="translate(260,435) rotate(0)" > <text font-size="83.3333333333" fill="#088" font-family="monospace"  >
   CBUS5
  </text> </g> 
  <circle cx="750" cy="400" r="10"
    style="fill:none;stroke:#800;stroke-width:2"  />
  <line x1="750" y1="-400" x2="550" y2="-400" style="stroke:#800;stroke-width:10;stroke-opacity:1.000000;stroke-linecap:round"/>
  <g transform="translate(579,-406) rotate(0)" > <text font-size="83.3333333333" fill="#800" font-family="monospace"  >
   16
  </text> </g> 
  <g transform="translate(360,-365) rotate(0)" > <text font-size="83.3333333333" fill="#088" font-family="monospace"  >
   SCL
  </text> </g> 
  <circle cx="750" cy="-400" r="10"
    style="fill:none;stroke:#800;stroke-width:2"  />
  <line x1="100" y1="700" x2="100" y2="500" style="stroke:#800;stroke-width:10;stroke-opacity:1.000000;stroke-linecap:round"/>
  <g transform="translate(87,625) rotate(-90)" > <text font-size="83.3333333333" fill="#800" font-family="monospace"  >
   17
  </text> </g> 
  <g transform="translate(106,458) rotate(-90)" > <text font-size="83.3333333333" fill="#088" font-family="monospace"  >
   GND
  </text> </g> 
  <circle cx="100" cy="700" r="10"
    style="fill:none;stroke:#800;stroke-width:2"  />
 </g>
</svg>
