<?xml version="1.0"?>
<svg height="435" width="435"  >
 <g style="fill-opacity:1.0; stroke:black;
  stroke-width:1;" transform=" translate( 217.5,217.5 ) scale( 0.15,0.15 )">
  <g transform="translate(-580,930) rotate(0)" > <text font-size="100.0" fill="#088" font-family="monospace"  >
   U
  </text> </g> 
  <g transform="translate(140,-870) rotate(0)" > <text font-size="100.0" fill="#088" font-family="monospace"  >
   FT240XQ
  </text> </g> 
  <rect x="-600" y="-850" height="1700"
    width="1150" style="fill:none;stroke:#800;stroke-width:10" />
  <line x1="750" y1="-650" x2="550" y2="-650" style="stroke:#800;stroke-width:10;stroke-opacity:1.000000;stroke-linecap:round"/>
  <g transform="translate(614,-656) rotate(0)" > <text font-size="83.3333333333" fill="#800" font-family="monospace"  >
   1
  </text> </g> 
  <g transform="translate(260,-615) rotate(0)" > <text font-size="83.3333333333" fill="#088" font-family="monospace"  >
   DATA1
  </text> </g> 
  <circle cx="750" cy="-650" r="10"
    style="fill:none;stroke:#800;stroke-width:2"  />
  <line x1="750" y1="-50" x2="550" y2="-50" style="stroke:#800;stroke-width:10;stroke-opacity:1.000000;stroke-linecap:round"/>
  <g transform="translate(614,-56) rotate(0)" > <text font-size="83.3333333333" fill="#800" font-family="monospace"  >
   2
  </text> </g> 
  <g transform="translate(260,-15) rotate(0)" > <text font-size="83.3333333333" fill="#088" font-family="monospace"  >
   DATA7
  </text> </g> 
  <circle cx="750" cy="-50" r="10"
    style="fill:none;stroke:#800;stroke-width:2"  />
  <line x1="-100" y1="1050" x2="-100" y2="850" style="stroke:#800;stroke-width:10;stroke-opacity:1.000000;stroke-linecap:round"/>
  <g transform="translate(-112,962) rotate(-90)" > <text font-size="83.3333333333" fill="#800" font-family="monospace"  >
   3
  </text> </g> 
  <g transform="translate(-93,808) rotate(-90)" > <text font-size="83.3333333333" fill="#088" font-family="monospace"  >
   GND
  </text> </g> 
  <circle cx="-100" cy="1050" r="10"
    style="fill:none;stroke:#800;stroke-width:2"  />
  <line x1="750" y1="-250" x2="550" y2="-250" style="stroke:#800;stroke-width:10;stroke-opacity:1.000000;stroke-linecap:round"/>
  <g transform="translate(614,-256) rotate(0)" > <text font-size="83.3333333333" fill="#800" font-family="monospace"  >
   4
  </text> </g> 
  <g transform="translate(260,-215) rotate(0)" > <text font-size="83.3333333333" fill="#088" font-family="monospace"  >
   DATA5
  </text> </g> 
  <circle cx="750" cy="-250" r="10"
    style="fill:none;stroke:#800;stroke-width:2"  />
  <line x1="750" y1="-150" x2="550" y2="-150" style="stroke:#800;stroke-width:10;stroke-opacity:1.000000;stroke-linecap:round"/>
  <g transform="translate(614,-156) rotate(0)" > <text font-size="83.3333333333" fill="#800" font-family="monospace"  >
   5
  </text> </g> 
  <g transform="translate(260,-115) rotate(0)" > <text font-size="83.3333333333" fill="#088" font-family="monospace"  >
   DATA6
  </text> </g> 
  <circle cx="750" cy="-150" r="10"
    style="fill:none;stroke:#800;stroke-width:2"  />
  <line x1="750" y1="-450" x2="550" y2="-450" style="stroke:#800;stroke-width:10;stroke-opacity:1.000000;stroke-linecap:round"/>
  <g transform="translate(614,-456) rotate(0)" > <text font-size="83.3333333333" fill="#800" font-family="monospace"  >
   6
  </text> </g> 
  <g transform="translate(260,-415) rotate(0)" > <text font-size="83.3333333333" fill="#088" font-family="monospace"  >
   DATA3
  </text> </g> 
  <circle cx="750" cy="-450" r="10"
    style="fill:none;stroke:#800;stroke-width:2"  />
  <line x1="750" y1="550" x2="550" y2="550" style="stroke:#800;stroke-width:10;stroke-opacity:1.000000;stroke-linecap:round"/>
  <g transform="translate(614,544) rotate(0)" > <text font-size="83.3333333333" fill="#800" font-family="monospace"  >
   7
  </text> </g> 
  <g transform="translate(209,585) rotate(0)" > <text font-size="83.3333333333" fill="#088" font-family="monospace"  >
   ~SI/WU
  </text> </g> 
  <circle cx="750" cy="550" r="10"
    style="fill:none;stroke:#800;stroke-width:2"  />
  <line x1="750" y1="350" x2="550" y2="350" style="stroke:#800;stroke-width:10;stroke-opacity:1.000000;stroke-linecap:round"/>
  <g transform="translate(614,344) rotate(0)" > <text font-size="83.3333333333" fill="#800" font-family="monospace"  >
   8
  </text> </g> 
  <g transform="translate(360,385) rotate(0)" > <text font-size="83.3333333333" fill="#088" font-family="monospace"  >
   ~RD
  </text> </g> 
  <circle cx="750" cy="350" r="10"
    style="fill:none;stroke:#800;stroke-width:2"  />
  <line x1="750" y1="450" x2="550" y2="450" style="stroke:#800;stroke-width:10;stroke-opacity:1.000000;stroke-linecap:round"/>
  <g transform="translate(614,444) rotate(0)" > <text font-size="83.3333333333" fill="#800" font-family="monospace"  >
   9
  </text> </g> 
  <g transform="translate(360,485) rotate(0)" > <text font-size="83.3333333333" fill="#088" font-family="monospace"  >
   ~WR
  </text> </g> 
  <circle cx="750" cy="450" r="10"
    style="fill:none;stroke:#800;stroke-width:2"  />
  <line x1="-800" y1="-350" x2="-600" y2="-350" style="stroke:#800;stroke-width:10;stroke-opacity:1.000000;stroke-linecap:round"/>
  <g transform="translate(-770,-356) rotate(0)" > <text font-size="83.3333333333" fill="#800" font-family="monospace"  >
   10
  </text> </g> 
  <g transform="translate(-582,-315) rotate(0)" > <text font-size="83.3333333333" fill="#088" font-family="monospace"  >
   USBDP
  </text> </g> 
  <circle cx="-800" cy="-350" r="10"
    style="fill:none;stroke:#800;stroke-width:2"  />
  <line x1="750" y1="650" x2="550" y2="650" style="stroke:#800;stroke-width:10;stroke-opacity:1.000000;stroke-linecap:round"/>
  <g transform="translate(579,644) rotate(0)" > <text font-size="83.3333333333" fill="#800" font-family="monospace"  >
   20
  </text> </g> 
  <g transform="translate(260,685) rotate(0)" > <text font-size="83.3333333333" fill="#088" font-family="monospace"  >
   CBUS5
  </text> </g> 
  <circle cx="750" cy="650" r="10"
    style="fill:none;stroke:#800;stroke-width:2"  />
  <line x1="-800" y1="-450" x2="-600" y2="-450" style="stroke:#800;stroke-width:10;stroke-opacity:1.000000;stroke-linecap:round"/>
  <g transform="translate(-770,-456) rotate(0)" > <text font-size="83.3333333333" fill="#800" font-family="monospace"  >
   11
  </text> </g> 
  <g transform="translate(-582,-415) rotate(0)" > <text font-size="83.3333333333" fill="#088" font-family="monospace"  >
   USBDM
  </text> </g> 
  <circle cx="-800" cy="-450" r="10"
    style="fill:none;stroke:#800;stroke-width:2"  />
  <line x1="750" y1="-750" x2="550" y2="-750" style="stroke:#800;stroke-width:10;stroke-opacity:1.000000;stroke-linecap:round"/>
  <g transform="translate(579,-756) rotate(0)" > <text font-size="83.3333333333" fill="#800" font-family="monospace"  >
   21
  </text> </g> 
  <g transform="translate(260,-715) rotate(0)" > <text font-size="83.3333333333" fill="#088" font-family="monospace"  >
   DATA0
  </text> </g> 
  <circle cx="750" cy="-750" r="10"
    style="fill:none;stroke:#800;stroke-width:2"  />
  <line x1="-800" y1="-750" x2="-600" y2="-750" style="stroke:#800;stroke-width:10;stroke-opacity:1.000000;stroke-linecap:round"/>
  <g transform="translate(-770,-756) rotate(0)" > <text font-size="83.3333333333" fill="#800" font-family="monospace"  >
   12
  </text> </g> 
  <g transform="translate(-582,-715) rotate(0)" > <text font-size="83.3333333333" fill="#088" font-family="monospace"  >
   3V3OUT
  </text> </g> 
  <circle cx="-800" cy="-750" r="10"
    style="fill:none;stroke:#800;stroke-width:2"  />
  <line x1="750" y1="-350" x2="550" y2="-350" style="stroke:#800;stroke-width:10;stroke-opacity:1.000000;stroke-linecap:round"/>
  <g transform="translate(579,-356) rotate(0)" > <text font-size="83.3333333333" fill="#800" font-family="monospace"  >
   22
  </text> </g> 
  <g transform="translate(260,-315) rotate(0)" > <text font-size="83.3333333333" fill="#088" font-family="monospace"  >
   DATA4
  </text> </g> 
  <circle cx="750" cy="-350" r="10"
    style="fill:none;stroke:#800;stroke-width:2"  />
  <line x1="-800" y1="-150" x2="-600" y2="-150" style="stroke:#800;stroke-width:10;stroke-opacity:1.000000;stroke-linecap:round"/>
  <g transform="translate(-770,-156) rotate(0)" > <text font-size="83.3333333333" fill="#800" font-family="monospace"  >
   13
  </text> </g> 
  <g transform="translate(-582,-115) rotate(0)" > <text font-size="83.3333333333" fill="#088" font-family="monospace"  >
   ~RESET
  </text> </g> 
  <circle cx="-800" cy="-150" r="10"
    style="fill:none;stroke:#800;stroke-width:2"  />
  <line x1="750" y1="-550" x2="550" y2="-550" style="stroke:#800;stroke-width:10;stroke-opacity:1.000000;stroke-linecap:round"/>
  <g transform="translate(579,-556) rotate(0)" > <text font-size="83.3333333333" fill="#800" font-family="monospace"  >
   23
  </text> </g> 
  <g transform="translate(260,-515) rotate(0)" > <text font-size="83.3333333333" fill="#088" font-family="monospace"  >
   DATA2
  </text> </g> 
  <circle cx="750" cy="-550" r="10"
    style="fill:none;stroke:#800;stroke-width:2"  />
  <line x1="0" y1="-1050" x2="0" y2="-850" style="stroke:#800;stroke-width:10;stroke-opacity:1.000000;stroke-linecap:round"/>
  <g transform="translate(-12,-925) rotate(-90)" > <text font-size="83.3333333333" fill="#800" font-family="monospace"  >
   14
  </text> </g> 
  <g transform="translate(6,-558) rotate(-90)" > <text font-size="83.3333333333" fill="#088" font-family="monospace"  >
   VCCIO
  </text> </g> 
  <circle cx="0" cy="-1050" r="10"
    style="fill:none;stroke:#800;stroke-width:2"  />
  <line x1="100" y1="-1050" x2="100" y2="-850" style="stroke:#800;stroke-width:10;stroke-opacity:1.000000;stroke-linecap:round"/>
  <g transform="translate(87,-925) rotate(-90)" > <text font-size="83.3333333333" fill="#800" font-family="monospace"  >
   24
  </text> </g> 
  <g transform="translate(106,-558) rotate(-90)" > <text font-size="83.3333333333" fill="#088" font-family="monospace"  >
   VCCIO
  </text> </g> 
  <circle cx="100" cy="-1050" r="10"
    style="fill:none;stroke:#800;stroke-width:2"  />
  <line x1="-100" y1="-1050" x2="-100" y2="-850" style="stroke:#800;stroke-width:10;stroke-opacity:1.000000;stroke-linecap:round"/>
  <g transform="translate(-112,-925) rotate(-90)" > <text font-size="83.3333333333" fill="#800" font-family="monospace"  >
   15
  </text> </g> 
  <g transform="translate(-93,-658) rotate(-90)" > <text font-size="83.3333333333" fill="#088" font-family="monospace"  >
   VCC
  </text> </g> 
  <circle cx="-100" cy="-1050" r="10"
    style="fill:none;stroke:#800;stroke-width:2"  />
  <line x1="100" y1="1050" x2="100" y2="850" style="stroke:#800;stroke-width:10;stroke-opacity:1.000000;stroke-linecap:round"/>
  <g transform="translate(87,975) rotate(-90)" > <text font-size="83.3333333333" fill="#800" font-family="monospace"  >
   25
  </text> </g> 
  <g transform="translate(106,808) rotate(-90)" > <text font-size="83.3333333333" fill="#088" font-family="monospace"  >
   GND
  </text> </g> 
  <circle cx="100" cy="1050" r="10"
    style="fill:none;stroke:#800;stroke-width:2"  />
  <line x1="0" y1="1050" x2="0" y2="850" style="stroke:#800;stroke-width:10;stroke-opacity:1.000000;stroke-linecap:round"/>
  <g transform="translate(-12,975) rotate(-90)" > <text font-size="83.3333333333" fill="#800" font-family="monospace"  >
   16
  </text> </g> 
  <g transform="translate(6,808) rotate(-90)" > <text font-size="83.3333333333" fill="#088" font-family="monospace"  >
   GND
  </text> </g> 
  <circle cx="0" cy="1050" r="10"
    style="fill:none;stroke:#800;stroke-width:2"  />
  <line x1="750" y1="250" x2="550" y2="250" style="stroke:#800;stroke-width:10;stroke-opacity:1.000000;stroke-linecap:round"/>
  <g transform="translate(579,244) rotate(0)" > <text font-size="83.3333333333" fill="#800" font-family="monospace"  >
   17
  </text> </g> 
  <g transform="translate(310,285) rotate(0)" > <text font-size="83.3333333333" fill="#088" font-family="monospace"  >
   ~TXE
  </text> </g> 
  <circle cx="750" cy="250" r="10"
    style="fill:none;stroke:#800;stroke-width:2"  />
  <line x1="750" y1="150" x2="550" y2="150" style="stroke:#800;stroke-width:10;stroke-opacity:1.000000;stroke-linecap:round"/>
  <g transform="translate(579,144) rotate(0)" > <text font-size="83.3333333333" fill="#800" font-family="monospace"  >
   18
  </text> </g> 
  <g transform="translate(310,185) rotate(0)" > <text font-size="83.3333333333" fill="#088" font-family="monospace"  >
   ~RXF
  </text> </g> 
  <circle cx="750" cy="150" r="10"
    style="fill:none;stroke:#800;stroke-width:2"  />
  <line x1="750" y1="750" x2="550" y2="750" style="stroke:#800;stroke-width:10;stroke-opacity:1.000000;stroke-linecap:round"/>
  <g transform="translate(579,744) rotate(0)" > <text font-size="83.3333333333" fill="#800" font-family="monospace"  >
   19
  </text> </g> 
  <g transform="translate(260,785) rotate(0)" > <text font-size="83.3333333333" fill="#088" font-family="monospace"  >
   CBUS6
  </text> </g> 
  <circle cx="750" cy="750" r="10"
    style="fill:none;stroke:#800;stroke-width:2"  />
 </g>
</svg>
