<?xml version="1.0"?>
<svg height="118" width="116"  >
 <g style="fill-opacity:1.0; stroke:black;
  stroke-width:1;" transform=" translate( 58.25,59.0 ) scale( 0.15,0.15 )">
  <g transform="translate(-75,180) rotate(0)" > <text font-size="66.6666666667" fill="#088" font-family="monospace"  >
   Q
  </text> </g> 
  <g transform="translate(-140,-130) rotate(0)" > <text font-size="66.6666666667" fill="#088" font-family="monospace"  >
   DTC113T
  </text> </g> 
  <g transform="translate(-140,-25) rotate(0)" > <text font-size="33.3333333333" fill="#800" font-family="monospace"  >
   1k
  </text> </g> 
  <line x1="100" y1="90" x2="100" y2="100" style="stroke:#800;stroke-width:10;stroke-opacity:1.000000;stroke-linecap:round"/>
  <line x1="-50" y1="-124" x2="-60" y2="-124" style="stroke:#800;stroke-width:10;stroke-opacity:1.000000;stroke-linecap:round"/>
  <line x1="-60" y1="-124" x2="-70" y2="-123" style="stroke:#800;stroke-width:10;stroke-opacity:1.000000;stroke-linecap:round"/>
  <line x1="-70" y1="-123" x2="-80" y2="-121" style="stroke:#800;stroke-width:10;stroke-opacity:1.000000;stroke-linecap:round"/>
  <line x1="-80" y1="-121" x2="-90" y2="-118" style="stroke:#800;stroke-width:10;stroke-opacity:1.000000;stroke-linecap:round"/>
  <line x1="-90" y1="-118" x2="-100" y2="-114" style="stroke:#800;stroke-width:10;stroke-opacity:1.000000;stroke-linecap:round"/>
  <line x1="-100" y1="-114" x2="-109" y2="-109" style="stroke:#800;stroke-width:10;stroke-opacity:1.000000;stroke-linecap:round"/>
  <line x1="-109" y1="-109" x2="-118" y2="-104" style="stroke:#800;stroke-width:10;stroke-opacity:1.000000;stroke-linecap:round"/>
  <line x1="-118" y1="-104" x2="-126" y2="-98" style="stroke:#800;stroke-width:10;stroke-opacity:1.000000;stroke-linecap:round"/>
  <line x1="-126" y1="-98" x2="-134" y2="-91" style="stroke:#800;stroke-width:10;stroke-opacity:1.000000;stroke-linecap:round"/>
  <line x1="-134" y1="-91" x2="-142" y2="-84" style="stroke:#800;stroke-width:10;stroke-opacity:1.000000;stroke-linecap:round"/>
  <line x1="-142" y1="-84" x2="-148" y2="-76" style="stroke:#800;stroke-width:10;stroke-opacity:1.000000;stroke-linecap:round"/>
  <line x1="-148" y1="-76" x2="-154" y2="-68" style="stroke:#800;stroke-width:10;stroke-opacity:1.000000;stroke-linecap:round"/>
  <line x1="-154" y1="-68" x2="-159" y2="-59" style="stroke:#800;stroke-width:10;stroke-opacity:1.000000;stroke-linecap:round"/>
  <line x1="-159" y1="-59" x2="-164" y2="-50" style="stroke:#800;stroke-width:10;stroke-opacity:1.000000;stroke-linecap:round"/>
  <line x1="-164" y1="-50" x2="-168" y2="-40" style="stroke:#800;stroke-width:10;stroke-opacity:1.000000;stroke-linecap:round"/>
  <line x1="-168" y1="-40" x2="-171" y2="-30" style="stroke:#800;stroke-width:10;stroke-opacity:1.000000;stroke-linecap:round"/>
  <line x1="-171" y1="-30" x2="-173" y2="-20" style="stroke:#800;stroke-width:10;stroke-opacity:1.000000;stroke-linecap:round"/>
  <line x1="-173" y1="-20" x2="-174" y2="-10" style="stroke:#800;stroke-width:10;stroke-opacity:1.000000;stroke-linecap:round"/>
  <line x1="-174" y1="-10" x2="-175" y2="0" style="stroke:#800;stroke-width:10;stroke-opacity:1.000000;stroke-linecap:round"/>
  <line x1="-175" y1="0" x2="-175" y2="0" style="stroke:#800;stroke-width:10;stroke-opacity:1.000000;stroke-linecap:round"/>
  <line x1="-175" y1="0" x2="-174" y2="10" style="stroke:#800;stroke-width:10;stroke-opacity:1.000000;stroke-linecap:round"/>
  <line x1="-174" y1="10" x2="-173" y2="20" style="stroke:#800;stroke-width:10;stroke-opacity:1.000000;stroke-linecap:round"/>
  <line x1="-173" y1="20" x2="-171" y2="30" style="stroke:#800;stroke-width:10;stroke-opacity:1.000000;stroke-linecap:round"/>
  <line x1="-171" y1="30" x2="-168" y2="40" style="stroke:#800;stroke-width:10;stroke-opacity:1.000000;stroke-linecap:round"/>
  <line x1="-168" y1="40" x2="-164" y2="50" style="stroke:#800;stroke-width:10;stroke-opacity:1.000000;stroke-linecap:round"/>
  <line x1="-164" y1="50" x2="-159" y2="59" style="stroke:#800;stroke-width:10;stroke-opacity:1.000000;stroke-linecap:round"/>
  <line x1="-159" y1="59" x2="-154" y2="68" style="stroke:#800;stroke-width:10;stroke-opacity:1.000000;stroke-linecap:round"/>
  <line x1="-154" y1="68" x2="-148" y2="76" style="stroke:#800;stroke-width:10;stroke-opacity:1.000000;stroke-linecap:round"/>
  <line x1="-148" y1="76" x2="-142" y2="84" style="stroke:#800;stroke-width:10;stroke-opacity:1.000000;stroke-linecap:round"/>
  <line x1="-142" y1="84" x2="-134" y2="91" style="stroke:#800;stroke-width:10;stroke-opacity:1.000000;stroke-linecap:round"/>
  <line x1="-134" y1="91" x2="-126" y2="98" style="stroke:#800;stroke-width:10;stroke-opacity:1.000000;stroke-linecap:round"/>
  <line x1="-126" y1="98" x2="-118" y2="104" style="stroke:#800;stroke-width:10;stroke-opacity:1.000000;stroke-linecap:round"/>
  <line x1="-118" y1="104" x2="-109" y2="109" style="stroke:#800;stroke-width:10;stroke-opacity:1.000000;stroke-linecap:round"/>
  <line x1="-109" y1="109" x2="-100" y2="114" style="stroke:#800;stroke-width:10;stroke-opacity:1.000000;stroke-linecap:round"/>
  <line x1="-100" y1="114" x2="-90" y2="118" style="stroke:#800;stroke-width:10;stroke-opacity:1.000000;stroke-linecap:round"/>
  <line x1="-90" y1="118" x2="-80" y2="121" style="stroke:#800;stroke-width:10;stroke-opacity:1.000000;stroke-linecap:round"/>
  <line x1="-80" y1="121" x2="-70" y2="123" style="stroke:#800;stroke-width:10;stroke-opacity:1.000000;stroke-linecap:round"/>
  <line x1="-70" y1="123" x2="-60" y2="124" style="stroke:#800;stroke-width:10;stroke-opacity:1.000000;stroke-linecap:round"/>
  <line x1="-60" y1="124" x2="-50" y2="124" style="stroke:#800;stroke-width:10;stroke-opacity:1.000000;stroke-linecap:round"/>
  <line x1="25" y1="124" x2="45" y2="123" style="stroke:#800;stroke-width:10;stroke-opacity:1.000000;stroke-linecap:round"/>
  <line x1="45" y1="123" x2="65" y2="118" style="stroke:#800;stroke-width:10;stroke-opacity:1.000000;stroke-linecap:round"/>
  <line x1="65" y1="118" x2="84" y2="109" style="stroke:#800;stroke-width:10;stroke-opacity:1.000000;stroke-linecap:round"/>
  <line x1="84" y1="109" x2="101" y2="98" style="stroke:#800;stroke-width:10;stroke-opacity:1.000000;stroke-linecap:round"/>
  <line x1="101" y1="98" x2="117" y2="84" style="stroke:#800;stroke-width:10;stroke-opacity:1.000000;stroke-linecap:round"/>
  <line x1="117" y1="84" x2="129" y2="68" style="stroke:#800;stroke-width:10;stroke-opacity:1.000000;stroke-linecap:round"/>
  <line x1="129" y1="68" x2="139" y2="50" style="stroke:#800;stroke-width:10;stroke-opacity:1.000000;stroke-linecap:round"/>
  <line x1="139" y1="50" x2="146" y2="30" style="stroke:#800;stroke-width:10;stroke-opacity:1.000000;stroke-linecap:round"/>
  <line x1="146" y1="30" x2="149" y2="10" style="stroke:#800;stroke-width:10;stroke-opacity:1.000000;stroke-linecap:round"/>
  <line x1="149" y1="10" x2="149" y2="-10" style="stroke:#800;stroke-width:10;stroke-opacity:1.000000;stroke-linecap:round"/>
  <line x1="149" y1="-10" x2="146" y2="-30" style="stroke:#800;stroke-width:10;stroke-opacity:1.000000;stroke-linecap:round"/>
  <line x1="146" y1="-30" x2="139" y2="-50" style="stroke:#800;stroke-width:10;stroke-opacity:1.000000;stroke-linecap:round"/>
  <line x1="139" y1="-50" x2="129" y2="-68" style="stroke:#800;stroke-width:10;stroke-opacity:1.000000;stroke-linecap:round"/>
  <line x1="129" y1="-68" x2="117" y2="-84" style="stroke:#800;stroke-width:10;stroke-opacity:1.000000;stroke-linecap:round"/>
  <line x1="117" y1="-84" x2="101" y2="-98" style="stroke:#800;stroke-width:10;stroke-opacity:1.000000;stroke-linecap:round"/>
  <line x1="101" y1="-98" x2="84" y2="-109" style="stroke:#800;stroke-width:10;stroke-opacity:1.000000;stroke-linecap:round"/>
  <line x1="84" y1="-109" x2="65" y2="-118" style="stroke:#800;stroke-width:10;stroke-opacity:1.000000;stroke-linecap:round"/>
  <line x1="65" y1="-118" x2="45" y2="-123" style="stroke:#800;stroke-width:10;stroke-opacity:1.000000;stroke-linecap:round"/>
  <line x1="45" y1="-123" x2="25" y2="-124" style="stroke:#800;stroke-width:10;stroke-opacity:1.000000;stroke-linecap:round"/>
  <line x1="-135" y1="0" x2="-150" y2="0" style="stroke:#800;stroke-width:10;stroke-opacity:1.000000;stroke-linecap:round"/>
  <line x1="-50" y1="125" x2="25" y2="125" style="stroke:#800;stroke-width:10;stroke-opacity:1.000000;stroke-linecap:round"/>
  <line x1="-50" y1="-125" x2="25" y2="-125" style="stroke:#800;stroke-width:10;stroke-opacity:1.000000;stroke-linecap:round"/>
  <line x1="0" y1="10" x2="100" y2="-90" style="stroke:#800;stroke-width:10;stroke-opacity:1.000000;stroke-linecap:round"/>
<polygon points=" 5,-60 5,65" 
style="fill:#800;stroke:#800;stroke-width:10"/>
  <line x1="100" y1="-90" x2="100" y2="-100" style="stroke:#800;stroke-width:10;stroke-opacity:1.000000;stroke-linecap:round"/>
  <line x1="100" y1="90" x2="0" y2="-10" style="stroke:#800;stroke-width:10;stroke-opacity:1.000000;stroke-linecap:round"/>
  <line x1="0" y1="-10" x2="0" y2="-10" style="stroke:#800;stroke-width:10;stroke-opacity:1.000000;stroke-linecap:round"/>
<polygon points=" 35,45 55,25 75,65 35,45" 
style="fill:#800;stroke:#800;stroke-width:10"/>
  <line x1="0" y1="0" x2="-75" y2="0" style="stroke:#800;stroke-width:10;stroke-opacity:1.000000;stroke-linecap:round"/>
  <line x1="-75" y1="0" x2="-80" y2="-20" style="stroke:#800;stroke-width:10;stroke-opacity:1.000000;stroke-linecap:round"/>
  <line x1="-80" y1="-20" x2="-90" y2="20" style="stroke:#800;stroke-width:10;stroke-opacity:1.000000;stroke-linecap:round"/>
  <line x1="-90" y1="20" x2="-100" y2="-20" style="stroke:#800;stroke-width:10;stroke-opacity:1.000000;stroke-linecap:round"/>
  <line x1="-100" y1="-20" x2="-110" y2="20" style="stroke:#800;stroke-width:10;stroke-opacity:1.000000;stroke-linecap:round"/>
  <line x1="-110" y1="20" x2="-120" y2="-20" style="stroke:#800;stroke-width:10;stroke-opacity:1.000000;stroke-linecap:round"/>
  <line x1="-120" y1="-20" x2="-130" y2="20" style="stroke:#800;stroke-width:10;stroke-opacity:1.000000;stroke-linecap:round"/>
  <line x1="-130" y1="20" x2="-135" y2="0" style="stroke:#800;stroke-width:10;stroke-opacity:1.000000;stroke-linecap:round"/>
  <line x1="-250" y1="0" x2="-150" y2="0" style="stroke:#800;stroke-width:10;stroke-opacity:1.000000;stroke-linecap:round"/>
  <g transform="translate(-228,-6) rotate(0)" > <text font-size="66.6666666667" fill="#800" font-family="monospace"  >
   1
  </text> </g> 
  <g transform="translate(-132,30) rotate(0)" > <text font-size="66.6666666667" fill="#088" font-family="monospace"  >
   B
  </text> </g> 
  <circle cx="-250" cy="0" r="10"
    style="fill:none;stroke:#800;stroke-width:2"  />
  <line x1="100" y1="200" x2="100" y2="100" style="stroke:#800;stroke-width:10;stroke-opacity:1.000000;stroke-linecap:round"/>
  <g transform="translate(90,160) rotate(-90)" > <text font-size="66.6666666667" fill="#800" font-family="monospace"  >
   2
  </text> </g> 
  <g transform="translate(105,66) rotate(-90)" > <text font-size="66.6666666667" fill="#088" font-family="monospace"  >
   E
  </text> </g> 
  <circle cx="100" cy="200" r="10"
    style="fill:none;stroke:#800;stroke-width:2"  />
  <line x1="100" y1="-200" x2="100" y2="-100" style="stroke:#800;stroke-width:10;stroke-opacity:1.000000;stroke-linecap:round"/>
  <g transform="translate(90,-140) rotate(-90)" > <text font-size="66.6666666667" fill="#800" font-family="monospace"  >
   3
  </text> </g> 
  <g transform="translate(105,-26) rotate(-90)" > <text font-size="66.6666666667" fill="#088" font-family="monospace"  >
   C
  </text> </g> 
  <circle cx="100" cy="-200" r="10"
    style="fill:none;stroke:#800;stroke-width:2"  />
 </g>
</svg>
