<?xml version="1.0"?>
<svg height="594" width="594"  >
 <g style="fill-opacity:1.0; stroke:black;
  stroke-width:1;" transform=" translate( 297.25,297.25 ) scale( 0.15,0.15 )">
  <g transform="translate(-35,-65) rotate(0)" > <text font-size="116.666666667" fill="#088" font-family="monospace"  >
   U
  </text> </g> 
  <g transform="translate(-210,135) rotate(0)" > <text font-size="116.666666667" fill="#088" font-family="monospace"  >
   68008D
  </text> </g> 
  <rect x="-600" y="-1600" height="3200"
    width="1200" style="fill:none;stroke:#800;stroke-width:10" />
  <line x1="900" y1="-1200" x2="600" y2="-1200" style="stroke:#800;stroke-width:10;stroke-opacity:1.000000;stroke-linecap:round"/>
  <g transform="translate(707,-1206) rotate(0)" > <text font-size="100.0" fill="#800" font-family="monospace"  >
   1
  </text> </g> 
  <g transform="translate(440,-1160) rotate(0)" > <text font-size="100.0" fill="#088" font-family="monospace"  >
   A3
  </text> </g> 
  <circle cx="900" cy="-1200" r="10"
    style="fill:none;stroke:#800;stroke-width:2"  />
  <line x1="900" y1="-1100" x2="600" y2="-1100" style="stroke:#800;stroke-width:10;stroke-opacity:1.000000;stroke-linecap:round"/>
  <g transform="translate(707,-1106) rotate(0)" > <text font-size="100.0" fill="#800" font-family="monospace"  >
   2
  </text> </g> 
  <g transform="translate(440,-1060) rotate(0)" > <text font-size="100.0" fill="#088" font-family="monospace"  >
   A4
  </text> </g> 
  <circle cx="900" cy="-1100" r="10"
    style="fill:none;stroke:#800;stroke-width:2"  />
  <line x1="900" y1="-1000" x2="600" y2="-1000" style="stroke:#800;stroke-width:10;stroke-opacity:1.000000;stroke-linecap:round"/>
  <g transform="translate(707,-1006) rotate(0)" > <text font-size="100.0" fill="#800" font-family="monospace"  >
   3
  </text> </g> 
  <g transform="translate(440,-960) rotate(0)" > <text font-size="100.0" fill="#088" font-family="monospace"  >
   A5
  </text> </g> 
  <circle cx="900" cy="-1000" r="10"
    style="fill:none;stroke:#800;stroke-width:2"  />
  <line x1="900" y1="-900" x2="600" y2="-900" style="stroke:#800;stroke-width:10;stroke-opacity:1.000000;stroke-linecap:round"/>
  <g transform="translate(707,-906) rotate(0)" > <text font-size="100.0" fill="#800" font-family="monospace"  >
   4
  </text> </g> 
  <g transform="translate(440,-860) rotate(0)" > <text font-size="100.0" fill="#088" font-family="monospace"  >
   A6
  </text> </g> 
  <circle cx="900" cy="-900" r="10"
    style="fill:none;stroke:#800;stroke-width:2"  />
  <line x1="900" y1="-800" x2="600" y2="-800" style="stroke:#800;stroke-width:10;stroke-opacity:1.000000;stroke-linecap:round"/>
  <g transform="translate(707,-806) rotate(0)" > <text font-size="100.0" fill="#800" font-family="monospace"  >
   5
  </text> </g> 
  <g transform="translate(440,-760) rotate(0)" > <text font-size="100.0" fill="#088" font-family="monospace"  >
   A7
  </text> </g> 
  <circle cx="900" cy="-800" r="10"
    style="fill:none;stroke:#800;stroke-width:2"  />
  <line x1="900" y1="-700" x2="600" y2="-700" style="stroke:#800;stroke-width:10;stroke-opacity:1.000000;stroke-linecap:round"/>
  <g transform="translate(707,-706) rotate(0)" > <text font-size="100.0" fill="#800" font-family="monospace"  >
   6
  </text> </g> 
  <g transform="translate(440,-660) rotate(0)" > <text font-size="100.0" fill="#088" font-family="monospace"  >
   A8
  </text> </g> 
  <circle cx="900" cy="-700" r="10"
    style="fill:none;stroke:#800;stroke-width:2"  />
  <line x1="900" y1="-600" x2="600" y2="-600" style="stroke:#800;stroke-width:10;stroke-opacity:1.000000;stroke-linecap:round"/>
  <g transform="translate(707,-606) rotate(0)" > <text font-size="100.0" fill="#800" font-family="monospace"  >
   7
  </text> </g> 
  <g transform="translate(440,-560) rotate(0)" > <text font-size="100.0" fill="#088" font-family="monospace"  >
   A9
  </text> </g> 
  <circle cx="900" cy="-600" r="10"
    style="fill:none;stroke:#800;stroke-width:2"  />
  <line x1="900" y1="-500" x2="600" y2="-500" style="stroke:#800;stroke-width:10;stroke-opacity:1.000000;stroke-linecap:round"/>
  <g transform="translate(707,-506) rotate(0)" > <text font-size="100.0" fill="#800" font-family="monospace"  >
   8
  </text> </g> 
  <g transform="translate(380,-460) rotate(0)" > <text font-size="100.0" fill="#088" font-family="monospace"  >
   A10
  </text> </g> 
  <circle cx="900" cy="-500" r="10"
    style="fill:none;stroke:#800;stroke-width:2"  />
  <line x1="900" y1="-400" x2="600" y2="-400" style="stroke:#800;stroke-width:10;stroke-opacity:1.000000;stroke-linecap:round"/>
  <g transform="translate(707,-406) rotate(0)" > <text font-size="100.0" fill="#800" font-family="monospace"  >
   9
  </text> </g> 
  <g transform="translate(380,-360) rotate(0)" > <text font-size="100.0" fill="#088" font-family="monospace"  >
   A11
  </text> </g> 
  <circle cx="900" cy="-400" r="10"
    style="fill:none;stroke:#800;stroke-width:2"  />
  <line x1="900" y1="-300" x2="600" y2="-300" style="stroke:#800;stroke-width:10;stroke-opacity:1.000000;stroke-linecap:round"/>
  <g transform="translate(665,-306) rotate(0)" > <text font-size="100.0" fill="#800" font-family="monospace"  >
   10
  </text> </g> 
  <g transform="translate(380,-260) rotate(0)" > <text font-size="100.0" fill="#088" font-family="monospace"  >
   A12
  </text> </g> 
  <circle cx="900" cy="-300" r="10"
    style="fill:none;stroke:#800;stroke-width:2"  />
  <line x1="900" y1="1500" x2="600" y2="1500" style="stroke:#800;stroke-width:10;stroke-opacity:1.000000;stroke-linecap:round"/>
  <g transform="translate(665,1494) rotate(0)" > <text font-size="100.0" fill="#800" font-family="monospace"  >
   20
  </text> </g> 
  <g transform="translate(440,1540) rotate(0)" > <text font-size="100.0" fill="#088" font-family="monospace"  >
   D7
  </text> </g> 
  <circle cx="900" cy="1500" r="10"
    style="fill:none;stroke:#800;stroke-width:2"  />
  <line x1="-900" y1="1500" x2="-600" y2="1500" style="stroke:#800;stroke-width:10;stroke-opacity:1.000000;stroke-linecap:round"/>
  <g transform="translate(-835,1494) rotate(0)" > <text font-size="100.0" fill="#800" font-family="monospace"  >
   30
  </text> </g> 
  <g transform="translate(-582,1540) rotate(0)" > <text font-size="100.0" fill="#088" font-family="monospace"  >
   R/W
  </text> </g> 
  <circle cx="-900" cy="1500" r="10"
    style="fill:none;stroke:#800;stroke-width:2"  />
  <line x1="-900" y1="-500" x2="-670" y2="-500" style="stroke:#800;stroke-width:10;stroke-opacity:1.000000;stroke-linecap:round"/>
  <circle cx="-635" cy="-500" r="35"
    style="fill:none;stroke:#800;stroke-width:10"  />
  <g transform="translate(-835,-506) rotate(0)" > <text font-size="100.0" fill="#800" font-family="monospace"  >
   40
  </text> </g> 
  <g transform="translate(-582,-460) rotate(0)" > <text font-size="100.0" fill="#088" font-family="monospace"  >
   BERR
  </text> </g> 
  <circle cx="-900" cy="-500" r="10"
    style="fill:none;stroke:#800;stroke-width:2"  />
  <line x1="900" y1="-200" x2="600" y2="-200" style="stroke:#800;stroke-width:10;stroke-opacity:1.000000;stroke-linecap:round"/>
  <g transform="translate(665,-206) rotate(0)" > <text font-size="100.0" fill="#800" font-family="monospace"  >
   11
  </text> </g> 
  <g transform="translate(380,-160) rotate(0)" > <text font-size="100.0" fill="#088" font-family="monospace"  >
   A13
  </text> </g> 
  <circle cx="900" cy="-200" r="10"
    style="fill:none;stroke:#800;stroke-width:2"  />
  <line x1="900" y1="1400" x2="600" y2="1400" style="stroke:#800;stroke-width:10;stroke-opacity:1.000000;stroke-linecap:round"/>
  <g transform="translate(665,1394) rotate(0)" > <text font-size="100.0" fill="#800" font-family="monospace"  >
   21
  </text> </g> 
  <g transform="translate(440,1440) rotate(0)" > <text font-size="100.0" fill="#088" font-family="monospace"  >
   D6
  </text> </g> 
  <circle cx="900" cy="1400" r="10"
    style="fill:none;stroke:#800;stroke-width:2"  />
  <line x1="-900" y1="-600" x2="-670" y2="-600" style="stroke:#800;stroke-width:10;stroke-opacity:1.000000;stroke-linecap:round"/>
  <circle cx="-635" cy="-600" r="35"
    style="fill:none;stroke:#800;stroke-width:10"  />
  <g transform="translate(-835,-606) rotate(0)" > <text font-size="100.0" fill="#800" font-family="monospace"  >
   31
  </text> </g> 
  <g transform="translate(-582,-560) rotate(0)" > <text font-size="100.0" fill="#088" font-family="monospace"  >
   DTACK
  </text> </g> 
  <circle cx="-900" cy="-600" r="10"
    style="fill:none;stroke:#800;stroke-width:2"  />
  <line x1="-900" y1="-1100" x2="-670" y2="-1100" style="stroke:#800;stroke-width:10;stroke-opacity:1.000000;stroke-linecap:round"/>
  <circle cx="-635" cy="-1100" r="35"
    style="fill:none;stroke:#800;stroke-width:10"  />
  <g transform="translate(-835,-1106) rotate(0)" > <text font-size="100.0" fill="#800" font-family="monospace"  >
   41
  </text> </g> 
  <g transform="translate(-582,-1060) rotate(0)" > <text font-size="100.0" fill="#088" font-family="monospace"  >
   IPL1
  </text> </g> 
  <circle cx="-900" cy="-1100" r="10"
    style="fill:none;stroke:#800;stroke-width:2"  />
  <line x1="900" y1="-100" x2="600" y2="-100" style="stroke:#800;stroke-width:10;stroke-opacity:1.000000;stroke-linecap:round"/>
  <g transform="translate(665,-106) rotate(0)" > <text font-size="100.0" fill="#800" font-family="monospace"  >
   12
  </text> </g> 
  <g transform="translate(380,-60) rotate(0)" > <text font-size="100.0" fill="#088" font-family="monospace"  >
   A14
  </text> </g> 
  <circle cx="900" cy="-100" r="10"
    style="fill:none;stroke:#800;stroke-width:2"  />
  <line x1="900" y1="1300" x2="600" y2="1300" style="stroke:#800;stroke-width:10;stroke-opacity:1.000000;stroke-linecap:round"/>
  <g transform="translate(665,1294) rotate(0)" > <text font-size="100.0" fill="#800" font-family="monospace"  >
   22
  </text> </g> 
  <g transform="translate(440,1340) rotate(0)" > <text font-size="100.0" fill="#088" font-family="monospace"  >
   D5
  </text> </g> 
  <circle cx="900" cy="1300" r="10"
    style="fill:none;stroke:#800;stroke-width:2"  />
  <line x1="-900" y1="100" x2="-670" y2="100" style="stroke:#800;stroke-width:10;stroke-opacity:1.000000;stroke-linecap:round"/>
  <circle cx="-635" cy="100" r="35"
    style="fill:none;stroke:#800;stroke-width:10"  />
  <g transform="translate(-835,94) rotate(0)" > <text font-size="100.0" fill="#800" font-family="monospace"  >
   32
  </text> </g> 
  <g transform="translate(-582,140) rotate(0)" > <text font-size="100.0" fill="#088" font-family="monospace"  >
   BG
  </text> </g> 
  <circle cx="-900" cy="100" r="10"
    style="fill:none;stroke:#800;stroke-width:2"  />
  <line x1="-900" y1="-1200" x2="-670" y2="-1200" style="stroke:#800;stroke-width:10;stroke-opacity:1.000000;stroke-linecap:round"/>
  <circle cx="-635" cy="-1200" r="35"
    style="fill:none;stroke:#800;stroke-width:10"  />
  <g transform="translate(-835,-1206) rotate(0)" > <text font-size="100.0" fill="#800" font-family="monospace"  >
   42
  </text> </g> 
  <g transform="translate(-582,-1160) rotate(0)" > <text font-size="100.0" fill="#088" font-family="monospace"  >
   IPL0/2
  </text> </g> 
  <circle cx="-900" cy="-1200" r="10"
    style="fill:none;stroke:#800;stroke-width:2"  />
  <g transform="translate(-15,-1570) rotate(-90)" > <text font-size="100.0" fill="#888" font-family="monospace"  >
   13
  </text> </g> 
  <g transform="translate(7,-1370) rotate(-90)" > <text font-size="100.0" fill="#888" font-family="monospace"  >
   VCC
  </text> </g> 
  <circle cx="0" cy="-1600" r="10"
    style="fill:none;stroke:#888;stroke-width:2"  />
  <line x1="900" y1="1200" x2="600" y2="1200" style="stroke:#800;stroke-width:10;stroke-opacity:1.000000;stroke-linecap:round"/>
  <g transform="translate(665,1194) rotate(0)" > <text font-size="100.0" fill="#800" font-family="monospace"  >
   23
  </text> </g> 
  <g transform="translate(440,1240) rotate(0)" > <text font-size="100.0" fill="#088" font-family="monospace"  >
   D4
  </text> </g> 
  <circle cx="900" cy="1200" r="10"
    style="fill:none;stroke:#800;stroke-width:2"  />
  <line x1="-900" y1="-700" x2="-670" y2="-700" style="stroke:#800;stroke-width:10;stroke-opacity:1.000000;stroke-linecap:round"/>
  <circle cx="-635" cy="-700" r="35"
    style="fill:none;stroke:#800;stroke-width:10"  />
  <g transform="translate(-835,-706) rotate(0)" > <text font-size="100.0" fill="#800" font-family="monospace"  >
   33
  </text> </g> 
  <g transform="translate(-582,-660) rotate(0)" > <text font-size="100.0" fill="#088" font-family="monospace"  >
   BR
  </text> </g> 
  <circle cx="-900" cy="-700" r="10"
    style="fill:none;stroke:#800;stroke-width:2"  />
  <line x1="-900" y1="-100" x2="-600" y2="-100" style="stroke:#800;stroke-width:10;stroke-opacity:1.000000;stroke-linecap:round"/>
  <g transform="translate(-835,-106) rotate(0)" > <text font-size="100.0" fill="#800" font-family="monospace"  >
   43
  </text> </g> 
  <g transform="translate(-582,-60) rotate(0)" > <text font-size="100.0" fill="#088" font-family="monospace"  >
   FC2
  </text> </g> 
  <circle cx="-900" cy="-100" r="10"
    style="fill:none;stroke:#800;stroke-width:2"  />
  <line x1="900" y1="0" x2="600" y2="0" style="stroke:#800;stroke-width:10;stroke-opacity:1.000000;stroke-linecap:round"/>
  <g transform="translate(665,-6) rotate(0)" > <text font-size="100.0" fill="#800" font-family="monospace"  >
   14
  </text> </g> 
  <g transform="translate(380,40) rotate(0)" > <text font-size="100.0" fill="#088" font-family="monospace"  >
   A15
  </text> </g> 
  <circle cx="900" cy="0" r="10"
    style="fill:none;stroke:#800;stroke-width:2"  />
  <line x1="900" y1="1100" x2="600" y2="1100" style="stroke:#800;stroke-width:10;stroke-opacity:1.000000;stroke-linecap:round"/>
  <g transform="translate(665,1094) rotate(0)" > <text font-size="100.0" fill="#800" font-family="monospace"  >
   24
  </text> </g> 
  <g transform="translate(440,1140) rotate(0)" > <text font-size="100.0" fill="#088" font-family="monospace"  >
   D3
  </text> </g> 
  <circle cx="900" cy="1100" r="10"
    style="fill:none;stroke:#800;stroke-width:2"  />
  <line x1="-560" y1="-1500" x2="-600" y2="-1460" style="stroke:#800;stroke-width:10;stroke-opacity:1.000000;stroke-linecap:round"/>
  <line x1="-600" y1="-1460" x2="-600" y2="-1540" style="stroke:#800;stroke-width:10;stroke-opacity:1.000000;stroke-linecap:round"/>
  <line x1="-600" y1="-1540" x2="-560" y2="-1500" style="stroke:#800;stroke-width:10;stroke-opacity:1.000000;stroke-linecap:round"/>
  <line x1="-900" y1="-1500" x2="-600" y2="-1500" style="stroke:#800;stroke-width:10;stroke-opacity:1.000000;stroke-linecap:round"/>
  <g transform="translate(-835,-1506) rotate(0)" > <text font-size="100.0" fill="#800" font-family="monospace"  >
   34
  </text> </g> 
  <g transform="translate(-582,-1460) rotate(0)" > <text font-size="100.0" fill="#088" font-family="monospace"  >
   CLK
  </text> </g> 
  <circle cx="-900" cy="-1500" r="10"
    style="fill:none;stroke:#800;stroke-width:2"  />
  <line x1="-900" y1="-200" x2="-600" y2="-200" style="stroke:#800;stroke-width:10;stroke-opacity:1.000000;stroke-linecap:round"/>
  <g transform="translate(-835,-206) rotate(0)" > <text font-size="100.0" fill="#800" font-family="monospace"  >
   44
  </text> </g> 
  <g transform="translate(-582,-160) rotate(0)" > <text font-size="100.0" fill="#088" font-family="monospace"  >
   FC1
  </text> </g> 
  <circle cx="-900" cy="-200" r="10"
    style="fill:none;stroke:#800;stroke-width:2"  />
  <g transform="translate(35,1630) rotate(-90)" > <text font-size="100.0" fill="#888" font-family="monospace"  >
   15
  </text> </g> 
  <g transform="translate(57,1550) rotate(-90)" > <text font-size="100.0" fill="#888" font-family="monospace"  >
   GND
  </text> </g> 
  <circle cx="50" cy="1600" r="10"
    style="fill:none;stroke:#888;stroke-width:2"  />
  <line x1="900" y1="1000" x2="600" y2="1000" style="stroke:#800;stroke-width:10;stroke-opacity:1.000000;stroke-linecap:round"/>
  <g transform="translate(665,994) rotate(0)" > <text font-size="100.0" fill="#800" font-family="monospace"  >
   25
  </text> </g> 
  <g transform="translate(440,1040) rotate(0)" > <text font-size="100.0" fill="#088" font-family="monospace"  >
   D2
  </text> </g> 
  <circle cx="900" cy="1000" r="10"
    style="fill:none;stroke:#800;stroke-width:2"  />
  <g transform="translate(-65,1630) rotate(-90)" > <text font-size="100.0" fill="#888" font-family="monospace"  >
   35
  </text> </g> 
  <g transform="translate(-42,1550) rotate(-90)" > <text font-size="100.0" fill="#888" font-family="monospace"  >
   GND
  </text> </g> 
  <circle cx="-50" cy="1600" r="10"
    style="fill:none;stroke:#888;stroke-width:2"  />
  <line x1="-900" y1="-300" x2="-600" y2="-300" style="stroke:#800;stroke-width:10;stroke-opacity:1.000000;stroke-linecap:round"/>
  <g transform="translate(-835,-306) rotate(0)" > <text font-size="100.0" fill="#800" font-family="monospace"  >
   45
  </text> </g> 
  <g transform="translate(-582,-260) rotate(0)" > <text font-size="100.0" fill="#088" font-family="monospace"  >
   FC0
  </text> </g> 
  <circle cx="-900" cy="-300" r="10"
    style="fill:none;stroke:#800;stroke-width:2"  />
  <line x1="900" y1="100" x2="600" y2="100" style="stroke:#800;stroke-width:10;stroke-opacity:1.000000;stroke-linecap:round"/>
  <g transform="translate(665,94) rotate(0)" > <text font-size="100.0" fill="#800" font-family="monospace"  >
   16
  </text> </g> 
  <g transform="translate(380,140) rotate(0)" > <text font-size="100.0" fill="#088" font-family="monospace"  >
   A16
  </text> </g> 
  <circle cx="900" cy="100" r="10"
    style="fill:none;stroke:#800;stroke-width:2"  />
  <line x1="900" y1="900" x2="600" y2="900" style="stroke:#800;stroke-width:10;stroke-opacity:1.000000;stroke-linecap:round"/>
  <g transform="translate(665,894) rotate(0)" > <text font-size="100.0" fill="#800" font-family="monospace"  >
   26
  </text> </g> 
  <g transform="translate(440,940) rotate(0)" > <text font-size="100.0" fill="#088" font-family="monospace"  >
   D1
  </text> </g> 
  <circle cx="900" cy="900" r="10"
    style="fill:none;stroke:#800;stroke-width:2"  />
  <line x1="-900" y1="1100" x2="-670" y2="1100" style="stroke:#800;stroke-width:10;stroke-opacity:1.000000;stroke-linecap:round"/>
  <circle cx="-635" cy="1100" r="35"
    style="fill:none;stroke:#800;stroke-width:10"  />
  <g transform="translate(-835,1094) rotate(0)" > <text font-size="100.0" fill="#800" font-family="monospace"  >
   36
  </text> </g> 
  <g transform="translate(-582,1140) rotate(0)" > <text font-size="100.0" fill="#088" font-family="monospace"  >
   HALT
  </text> </g> 
  <circle cx="-900" cy="1100" r="10"
    style="fill:none;stroke:#800;stroke-width:2"  />
  <line x1="900" y1="-1500" x2="600" y2="-1500" style="stroke:#800;stroke-width:10;stroke-opacity:1.000000;stroke-linecap:round"/>
  <g transform="translate(665,-1506) rotate(0)" > <text font-size="100.0" fill="#800" font-family="monospace"  >
   46
  </text> </g> 
  <g transform="translate(440,-1460) rotate(0)" > <text font-size="100.0" fill="#088" font-family="monospace"  >
   A0
  </text> </g> 
  <circle cx="900" cy="-1500" r="10"
    style="fill:none;stroke:#800;stroke-width:2"  />
  <line x1="900" y1="200" x2="600" y2="200" style="stroke:#800;stroke-width:10;stroke-opacity:1.000000;stroke-linecap:round"/>
  <g transform="translate(665,194) rotate(0)" > <text font-size="100.0" fill="#800" font-family="monospace"  >
   17
  </text> </g> 
  <g transform="translate(380,240) rotate(0)" > <text font-size="100.0" fill="#088" font-family="monospace"  >
   A17
  </text> </g> 
  <circle cx="900" cy="200" r="10"
    style="fill:none;stroke:#800;stroke-width:2"  />
  <line x1="900" y1="800" x2="600" y2="800" style="stroke:#800;stroke-width:10;stroke-opacity:1.000000;stroke-linecap:round"/>
  <g transform="translate(665,794) rotate(0)" > <text font-size="100.0" fill="#800" font-family="monospace"  >
   27
  </text> </g> 
  <g transform="translate(440,840) rotate(0)" > <text font-size="100.0" fill="#088" font-family="monospace"  >
   D0
  </text> </g> 
  <circle cx="900" cy="800" r="10"
    style="fill:none;stroke:#800;stroke-width:2"  />
  <line x1="-900" y1="1200" x2="-670" y2="1200" style="stroke:#800;stroke-width:10;stroke-opacity:1.000000;stroke-linecap:round"/>
  <circle cx="-635" cy="1200" r="35"
    style="fill:none;stroke:#800;stroke-width:10"  />
  <g transform="translate(-835,1194) rotate(0)" > <text font-size="100.0" fill="#800" font-family="monospace"  >
   37
  </text> </g> 
  <g transform="translate(-582,1240) rotate(0)" > <text font-size="100.0" fill="#088" font-family="monospace"  >
   RESET
  </text> </g> 
  <circle cx="-900" cy="1200" r="10"
    style="fill:none;stroke:#800;stroke-width:2"  />
  <line x1="900" y1="-1400" x2="600" y2="-1400" style="stroke:#800;stroke-width:10;stroke-opacity:1.000000;stroke-linecap:round"/>
  <g transform="translate(665,-1406) rotate(0)" > <text font-size="100.0" fill="#800" font-family="monospace"  >
   47
  </text> </g> 
  <g transform="translate(440,-1360) rotate(0)" > <text font-size="100.0" fill="#088" font-family="monospace"  >
   A1
  </text> </g> 
  <circle cx="900" cy="-1400" r="10"
    style="fill:none;stroke:#800;stroke-width:2"  />
  <line x1="900" y1="300" x2="600" y2="300" style="stroke:#800;stroke-width:10;stroke-opacity:1.000000;stroke-linecap:round"/>
  <g transform="translate(665,294) rotate(0)" > <text font-size="100.0" fill="#800" font-family="monospace"  >
   18
  </text> </g> 
  <g transform="translate(380,340) rotate(0)" > <text font-size="100.0" fill="#088" font-family="monospace"  >
   A18
  </text> </g> 
  <circle cx="900" cy="300" r="10"
    style="fill:none;stroke:#800;stroke-width:2"  />
  <line x1="-900" y1="1300" x2="-670" y2="1300" style="stroke:#800;stroke-width:10;stroke-opacity:1.000000;stroke-linecap:round"/>
  <circle cx="-635" cy="1300" r="35"
    style="fill:none;stroke:#800;stroke-width:10"  />
  <g transform="translate(-835,1294) rotate(0)" > <text font-size="100.0" fill="#800" font-family="monospace"  >
   28
  </text> </g> 
  <g transform="translate(-582,1340) rotate(0)" > <text font-size="100.0" fill="#088" font-family="monospace"  >
   AS
  </text> </g> 
  <circle cx="-900" cy="1300" r="10"
    style="fill:none;stroke:#800;stroke-width:2"  />
  <line x1="-900" y1="300" x2="-600" y2="300" style="stroke:#800;stroke-width:10;stroke-opacity:1.000000;stroke-linecap:round"/>
  <g transform="translate(-835,294) rotate(0)" > <text font-size="100.0" fill="#800" font-family="monospace"  >
   38
  </text> </g> 
  <g transform="translate(-582,340) rotate(0)" > <text font-size="100.0" fill="#088" font-family="monospace"  >
   E
  </text> </g> 
  <circle cx="-900" cy="300" r="10"
    style="fill:none;stroke:#800;stroke-width:2"  />
  <line x1="900" y1="-1300" x2="600" y2="-1300" style="stroke:#800;stroke-width:10;stroke-opacity:1.000000;stroke-linecap:round"/>
  <g transform="translate(665,-1306) rotate(0)" > <text font-size="100.0" fill="#800" font-family="monospace"  >
   48
  </text> </g> 
  <g transform="translate(440,-1260) rotate(0)" > <text font-size="100.0" fill="#088" font-family="monospace"  >
   A2
  </text> </g> 
  <circle cx="900" cy="-1300" r="10"
    style="fill:none;stroke:#800;stroke-width:2"  />
  <line x1="900" y1="400" x2="600" y2="400" style="stroke:#800;stroke-width:10;stroke-opacity:1.000000;stroke-linecap:round"/>
  <g transform="translate(665,394) rotate(0)" > <text font-size="100.0" fill="#800" font-family="monospace"  >
   19
  </text> </g> 
  <g transform="translate(380,440) rotate(0)" > <text font-size="100.0" fill="#088" font-family="monospace"  >
   A19
  </text> </g> 
  <circle cx="900" cy="400" r="10"
    style="fill:none;stroke:#800;stroke-width:2"  />
  <line x1="-900" y1="1400" x2="-670" y2="1400" style="stroke:#800;stroke-width:10;stroke-opacity:1.000000;stroke-linecap:round"/>
  <circle cx="-635" cy="1400" r="35"
    style="fill:none;stroke:#800;stroke-width:10"  />
  <g transform="translate(-835,1394) rotate(0)" > <text font-size="100.0" fill="#800" font-family="monospace"  >
   29
  </text> </g> 
  <g transform="translate(-582,1440) rotate(0)" > <text font-size="100.0" fill="#088" font-family="monospace"  >
   DS
  </text> </g> 
  <circle cx="-900" cy="1400" r="10"
    style="fill:none;stroke:#800;stroke-width:2"  />
  <line x1="-900" y1="-1400" x2="-670" y2="-1400" style="stroke:#800;stroke-width:10;stroke-opacity:1.000000;stroke-linecap:round"/>
  <circle cx="-635" cy="-1400" r="35"
    style="fill:none;stroke:#800;stroke-width:10"  />
  <g transform="translate(-835,-1406) rotate(0)" > <text font-size="100.0" fill="#800" font-family="monospace"  >
   39
  </text> </g> 
  <g transform="translate(-582,-1360) rotate(0)" > <text font-size="100.0" fill="#088" font-family="monospace"  >
   VPA
  </text> </g> 
  <circle cx="-900" cy="-1400" r="10"
    style="fill:none;stroke:#800;stroke-width:2"  />
 </g>
</svg>
