<?xml version="1.0"?>
<svg height="551" width="551"  >
 <g style="fill-opacity:1.0; stroke:black;
  stroke-width:1;" transform=" translate( 275.95,275.95 ) scale( 0.15,0.15 )">
  <g transform="translate(-35,-65) rotate(0)" > <text font-size="116.666666667" fill="#088" font-family="monospace"  >
   U
  </text> </g> 
  <g transform="translate(-210,135) rotate(0)" > <text font-size="116.666666667" fill="#088" font-family="monospace"  >
   68C681
  </text> </g> 
  <rect x="-550" y="-1500" height="3000"
    width="1100" style="fill:none;stroke:#800;stroke-width:10" />
  <line x1="-850" y1="-1300" x2="-550" y2="-1300" style="stroke:#800;stroke-width:10;stroke-opacity:1.000000;stroke-linecap:round"/>
  <g transform="translate(-742,-1306) rotate(0)" > <text font-size="100.0" fill="#800" font-family="monospace"  >
   1
  </text> </g> 
  <g transform="translate(-532,-1260) rotate(0)" > <text font-size="100.0" fill="#088" font-family="monospace"  >
   A1
  </text> </g> 
  <circle cx="-850" cy="-1300" r="10"
    style="fill:none;stroke:#800;stroke-width:2"  />
  <line x1="-850" y1="-500" x2="-550" y2="-500" style="stroke:#800;stroke-width:10;stroke-opacity:1.000000;stroke-linecap:round"/>
  <g transform="translate(-742,-506) rotate(0)" > <text font-size="100.0" fill="#800" font-family="monospace"  >
   2
  </text> </g> 
  <g transform="translate(-532,-460) rotate(0)" > <text font-size="100.0" fill="#088" font-family="monospace"  >
   IP3
  </text> </g> 
  <circle cx="-850" cy="-500" r="10"
    style="fill:none;stroke:#800;stroke-width:2"  />
  <line x1="-850" y1="-1200" x2="-550" y2="-1200" style="stroke:#800;stroke-width:10;stroke-opacity:1.000000;stroke-linecap:round"/>
  <g transform="translate(-742,-1206) rotate(0)" > <text font-size="100.0" fill="#800" font-family="monospace"  >
   3
  </text> </g> 
  <g transform="translate(-532,-1160) rotate(0)" > <text font-size="100.0" fill="#088" font-family="monospace"  >
   A2
  </text> </g> 
  <circle cx="-850" cy="-1200" r="10"
    style="fill:none;stroke:#800;stroke-width:2"  />
  <line x1="-850" y1="-700" x2="-550" y2="-700" style="stroke:#800;stroke-width:10;stroke-opacity:1.000000;stroke-linecap:round"/>
  <g transform="translate(-742,-706) rotate(0)" > <text font-size="100.0" fill="#800" font-family="monospace"  >
   4
  </text> </g> 
  <g transform="translate(-532,-660) rotate(0)" > <text font-size="100.0" fill="#088" font-family="monospace"  >
   IP1
  </text> </g> 
  <circle cx="-850" cy="-700" r="10"
    style="fill:none;stroke:#800;stroke-width:2"  />
  <line x1="-850" y1="-1100" x2="-550" y2="-1100" style="stroke:#800;stroke-width:10;stroke-opacity:1.000000;stroke-linecap:round"/>
  <g transform="translate(-742,-1106) rotate(0)" > <text font-size="100.0" fill="#800" font-family="monospace"  >
   5
  </text> </g> 
  <g transform="translate(-532,-1060) rotate(0)" > <text font-size="100.0" fill="#088" font-family="monospace"  >
   A3
  </text> </g> 
  <circle cx="-850" cy="-1100" r="10"
    style="fill:none;stroke:#800;stroke-width:2"  />
  <line x1="-850" y1="-1000" x2="-550" y2="-1000" style="stroke:#800;stroke-width:10;stroke-opacity:1.000000;stroke-linecap:round"/>
  <g transform="translate(-742,-1006) rotate(0)" > <text font-size="100.0" fill="#800" font-family="monospace"  >
   6
  </text> </g> 
  <g transform="translate(-532,-960) rotate(0)" > <text font-size="100.0" fill="#088" font-family="monospace"  >
   A4
  </text> </g> 
  <circle cx="-850" cy="-1000" r="10"
    style="fill:none;stroke:#800;stroke-width:2"  />
  <line x1="-850" y1="-800" x2="-550" y2="-800" style="stroke:#800;stroke-width:10;stroke-opacity:1.000000;stroke-linecap:round"/>
  <g transform="translate(-742,-806) rotate(0)" > <text font-size="100.0" fill="#800" font-family="monospace"  >
   7
  </text> </g> 
  <g transform="translate(-532,-760) rotate(0)" > <text font-size="100.0" fill="#088" font-family="monospace"  >
   IP0
  </text> </g> 
  <circle cx="-850" cy="-800" r="10"
    style="fill:none;stroke:#800;stroke-width:2"  />
  <line x1="-850" y1="800" x2="-550" y2="800" style="stroke:#800;stroke-width:10;stroke-opacity:1.000000;stroke-linecap:round"/>
  <g transform="translate(-742,794) rotate(0)" > <text font-size="100.0" fill="#800" font-family="monospace"  >
   8
  </text> </g> 
  <g transform="translate(-532,840) rotate(0)" > <text font-size="100.0" fill="#088" font-family="monospace"  >
   RWN
  </text> </g> 
  <circle cx="-850" cy="800" r="10"
    style="fill:none;stroke:#800;stroke-width:2"  />
  <line x1="850" y1="800" x2="550" y2="800" style="stroke:#800;stroke-width:10;stroke-opacity:1.000000;stroke-linecap:round"/>
  <g transform="translate(657,794) rotate(0)" > <text font-size="100.0" fill="#800" font-family="monospace"  >
   9
  </text> </g> 
  <g transform="translate(150,840) rotate(0)" > <text font-size="100.0" fill="#088" font-family="monospace"  >
   DTACKN
  </text> </g> 
  <circle cx="850" cy="800" r="10"
    style="fill:none;stroke:#800;stroke-width:2"  />
  <line x1="850" y1="400" x2="550" y2="400" style="stroke:#800;stroke-width:10;stroke-opacity:1.000000;stroke-linecap:round"/>
  <g transform="translate(615,394) rotate(0)" > <text font-size="100.0" fill="#800" font-family="monospace"  >
   10
  </text> </g> 
  <g transform="translate(270,440) rotate(0)" > <text font-size="100.0" fill="#088" font-family="monospace"  >
   RXDB
  </text> </g> 
  <circle cx="850" cy="400" r="10"
    style="fill:none;stroke:#800;stroke-width:2"  />
  <line x1="850" y1="1300" x2="550" y2="1300" style="stroke:#800;stroke-width:10;stroke-opacity:1.000000;stroke-linecap:round"/>
  <g transform="translate(615,1294) rotate(0)" > <text font-size="100.0" fill="#800" font-family="monospace"  >
   20
  </text> </g> 
  <g transform="translate(330,1340) rotate(0)" > <text font-size="100.0" fill="#088" font-family="monospace"  >
   GND
  </text> </g> 
  <circle cx="850" cy="1300" r="10"
    style="fill:none;stroke:#800;stroke-width:2"  />
  <line x1="850" y1="200" x2="550" y2="200" style="stroke:#800;stroke-width:10;stroke-opacity:1.000000;stroke-linecap:round"/>
  <g transform="translate(615,194) rotate(0)" > <text font-size="100.0" fill="#800" font-family="monospace"  >
   30
  </text> </g> 
  <g transform="translate(270,240) rotate(0)" > <text font-size="100.0" fill="#088" font-family="monospace"  >
   TXDA
  </text> </g> 
  <circle cx="850" cy="200" r="10"
    style="fill:none;stroke:#800;stroke-width:2"  />
  <line x1="-850" y1="1300" x2="-550" y2="1300" style="stroke:#800;stroke-width:10;stroke-opacity:1.000000;stroke-linecap:round"/>
  <g transform="translate(-785,1294) rotate(0)" > <text font-size="100.0" fill="#800" font-family="monospace"  >
   40
  </text> </g> 
  <g transform="translate(-532,1340) rotate(0)" > <text font-size="100.0" fill="#088" font-family="monospace"  >
   VCC
  </text> </g> 
  <circle cx="-850" cy="1300" r="10"
    style="fill:none;stroke:#800;stroke-width:2"  />
  <line x1="850" y1="500" x2="550" y2="500" style="stroke:#800;stroke-width:10;stroke-opacity:1.000000;stroke-linecap:round"/>
  <g transform="translate(615,494) rotate(0)" > <text font-size="100.0" fill="#800" font-family="monospace"  >
   11
  </text> </g> 
  <g transform="translate(270,540) rotate(0)" > <text font-size="100.0" fill="#088" font-family="monospace"  >
   TXDB
  </text> </g> 
  <circle cx="850" cy="500" r="10"
    style="fill:none;stroke:#800;stroke-width:2"  />
  <line x1="850" y1="1000" x2="550" y2="1000" style="stroke:#800;stroke-width:10;stroke-opacity:1.000000;stroke-linecap:round"/>
  <g transform="translate(615,994) rotate(0)" > <text font-size="100.0" fill="#800" font-family="monospace"  >
   21
  </text> </g> 
  <g transform="translate(210,1040) rotate(0)" > <text font-size="100.0" fill="#088" font-family="monospace"  >
   INTRN
  </text> </g> 
  <circle cx="850" cy="1000" r="10"
    style="fill:none;stroke:#800;stroke-width:2"  />
  <line x1="850" y1="100" x2="550" y2="100" style="stroke:#800;stroke-width:10;stroke-opacity:1.000000;stroke-linecap:round"/>
  <g transform="translate(615,94) rotate(0)" > <text font-size="100.0" fill="#800" font-family="monospace"  >
   31
  </text> </g> 
  <g transform="translate(270,140) rotate(0)" > <text font-size="100.0" fill="#088" font-family="monospace"  >
   RXDA
  </text> </g> 
  <circle cx="850" cy="100" r="10"
    style="fill:none;stroke:#800;stroke-width:2"  />
  <line x1="850" y1="-700" x2="550" y2="-700" style="stroke:#800;stroke-width:10;stroke-opacity:1.000000;stroke-linecap:round"/>
  <g transform="translate(615,-706) rotate(0)" > <text font-size="100.0" fill="#800" font-family="monospace"  >
   12
  </text> </g> 
  <g transform="translate(330,-660) rotate(0)" > <text font-size="100.0" fill="#088" font-family="monospace"  >
   OP1
  </text> </g> 
  <circle cx="850" cy="-700" r="10"
    style="fill:none;stroke:#800;stroke-width:2"  />
  <line x1="-850" y1="500" x2="-550" y2="500" style="stroke:#800;stroke-width:10;stroke-opacity:1.000000;stroke-linecap:round"/>
  <g transform="translate(-785,494) rotate(0)" > <text font-size="100.0" fill="#800" font-family="monospace"  >
   22
  </text> </g> 
  <g transform="translate(-532,540) rotate(0)" > <text font-size="100.0" fill="#088" font-family="monospace"  >
   D6
  </text> </g> 
  <circle cx="-850" cy="500" r="10"
    style="fill:none;stroke:#800;stroke-width:2"  />
  <line x1="850" y1="-1300" x2="550" y2="-1300" style="stroke:#800;stroke-width:10;stroke-opacity:1.000000;stroke-linecap:round"/>
  <g transform="translate(615,-1306) rotate(0)" > <text font-size="100.0" fill="#800" font-family="monospace"  >
   32
  </text> </g> 
  <g transform="translate(150,-1260) rotate(0)" > <text font-size="100.0" fill="#088" font-family="monospace"  >
   X1/CLK
  </text> </g> 
  <circle cx="850" cy="-1300" r="10"
    style="fill:none;stroke:#800;stroke-width:2"  />
  <line x1="850" y1="-500" x2="550" y2="-500" style="stroke:#800;stroke-width:10;stroke-opacity:1.000000;stroke-linecap:round"/>
  <g transform="translate(615,-506) rotate(0)" > <text font-size="100.0" fill="#800" font-family="monospace"  >
   13
  </text> </g> 
  <g transform="translate(330,-460) rotate(0)" > <text font-size="100.0" fill="#088" font-family="monospace"  >
   OP3
  </text> </g> 
  <circle cx="850" cy="-500" r="10"
    style="fill:none;stroke:#800;stroke-width:2"  />
  <line x1="-850" y1="300" x2="-550" y2="300" style="stroke:#800;stroke-width:10;stroke-opacity:1.000000;stroke-linecap:round"/>
  <g transform="translate(-785,294) rotate(0)" > <text font-size="100.0" fill="#800" font-family="monospace"  >
   23
  </text> </g> 
  <g transform="translate(-532,340) rotate(0)" > <text font-size="100.0" fill="#088" font-family="monospace"  >
   D4
  </text> </g> 
  <circle cx="-850" cy="300" r="10"
    style="fill:none;stroke:#800;stroke-width:2"  />
  <line x1="850" y1="-1000" x2="550" y2="-1000" style="stroke:#800;stroke-width:10;stroke-opacity:1.000000;stroke-linecap:round"/>
  <g transform="translate(615,-1006) rotate(0)" > <text font-size="100.0" fill="#800" font-family="monospace"  >
   33
  </text> </g> 
  <g transform="translate(390,-960) rotate(0)" > <text font-size="100.0" fill="#088" font-family="monospace"  >
   X2
  </text> </g> 
  <circle cx="850" cy="-1000" r="10"
    style="fill:none;stroke:#800;stroke-width:2"  />
  <line x1="850" y1="-300" x2="550" y2="-300" style="stroke:#800;stroke-width:10;stroke-opacity:1.000000;stroke-linecap:round"/>
  <g transform="translate(615,-306) rotate(0)" > <text font-size="100.0" fill="#800" font-family="monospace"  >
   14
  </text> </g> 
  <g transform="translate(330,-260) rotate(0)" > <text font-size="100.0" fill="#088" font-family="monospace"  >
   OP5
  </text> </g> 
  <circle cx="850" cy="-300" r="10"
    style="fill:none;stroke:#800;stroke-width:2"  />
  <line x1="-850" y1="100" x2="-550" y2="100" style="stroke:#800;stroke-width:10;stroke-opacity:1.000000;stroke-linecap:round"/>
  <g transform="translate(-785,94) rotate(0)" > <text font-size="100.0" fill="#800" font-family="monospace"  >
   24
  </text> </g> 
  <g transform="translate(-532,140) rotate(0)" > <text font-size="100.0" fill="#088" font-family="monospace"  >
   D2
  </text> </g> 
  <circle cx="-850" cy="100" r="10"
    style="fill:none;stroke:#800;stroke-width:2"  />
  <line x1="-850" y1="1000" x2="-550" y2="1000" style="stroke:#800;stroke-width:10;stroke-opacity:1.000000;stroke-linecap:round"/>
  <g transform="translate(-785,994) rotate(0)" > <text font-size="100.0" fill="#800" font-family="monospace"  >
   34
  </text> </g> 
  <g transform="translate(-532,1040) rotate(0)" > <text font-size="100.0" fill="#088" font-family="monospace"  >
   RESETN
  </text> </g> 
  <circle cx="-850" cy="1000" r="10"
    style="fill:none;stroke:#800;stroke-width:2"  />
  <line x1="850" y1="-100" x2="550" y2="-100" style="stroke:#800;stroke-width:10;stroke-opacity:1.000000;stroke-linecap:round"/>
  <g transform="translate(615,-106) rotate(0)" > <text font-size="100.0" fill="#800" font-family="monospace"  >
   15
  </text> </g> 
  <g transform="translate(330,-60) rotate(0)" > <text font-size="100.0" fill="#088" font-family="monospace"  >
   OP7
  </text> </g> 
  <circle cx="850" cy="-100" r="10"
    style="fill:none;stroke:#800;stroke-width:2"  />
  <line x1="-850" y1="-100" x2="-550" y2="-100" style="stroke:#800;stroke-width:10;stroke-opacity:1.000000;stroke-linecap:round"/>
  <g transform="translate(-785,-106) rotate(0)" > <text font-size="100.0" fill="#800" font-family="monospace"  >
   25
  </text> </g> 
  <g transform="translate(-532,-60) rotate(0)" > <text font-size="100.0" fill="#088" font-family="monospace"  >
   D0
  </text> </g> 
  <circle cx="-850" cy="-100" r="10"
    style="fill:none;stroke:#800;stroke-width:2"  />
  <line x1="-850" y1="900" x2="-550" y2="900" style="stroke:#800;stroke-width:10;stroke-opacity:1.000000;stroke-linecap:round"/>
  <g transform="translate(-785,894) rotate(0)" > <text font-size="100.0" fill="#800" font-family="monospace"  >
   35
  </text> </g> 
  <g transform="translate(-532,940) rotate(0)" > <text font-size="100.0" fill="#088" font-family="monospace"  >
   CSN
  </text> </g> 
  <circle cx="-850" cy="900" r="10"
    style="fill:none;stroke:#800;stroke-width:2"  />
  <line x1="-850" y1="0" x2="-550" y2="0" style="stroke:#800;stroke-width:10;stroke-opacity:1.000000;stroke-linecap:round"/>
  <g transform="translate(-785,-6) rotate(0)" > <text font-size="100.0" fill="#800" font-family="monospace"  >
   16
  </text> </g> 
  <g transform="translate(-532,40) rotate(0)" > <text font-size="100.0" fill="#088" font-family="monospace"  >
   D1
  </text> </g> 
  <circle cx="-850" cy="0" r="10"
    style="fill:none;stroke:#800;stroke-width:2"  />
  <line x1="850" y1="-200" x2="550" y2="-200" style="stroke:#800;stroke-width:10;stroke-opacity:1.000000;stroke-linecap:round"/>
  <g transform="translate(615,-206) rotate(0)" > <text font-size="100.0" fill="#800" font-family="monospace"  >
   26
  </text> </g> 
  <g transform="translate(330,-160) rotate(0)" > <text font-size="100.0" fill="#088" font-family="monospace"  >
   OP6
  </text> </g> 
  <circle cx="850" cy="-200" r="10"
    style="fill:none;stroke:#800;stroke-width:2"  />
  <line x1="-850" y1="-600" x2="-550" y2="-600" style="stroke:#800;stroke-width:10;stroke-opacity:1.000000;stroke-linecap:round"/>
  <g transform="translate(-785,-606) rotate(0)" > <text font-size="100.0" fill="#800" font-family="monospace"  >
   36
  </text> </g> 
  <g transform="translate(-532,-560) rotate(0)" > <text font-size="100.0" fill="#088" font-family="monospace"  >
   IP2
  </text> </g> 
  <circle cx="-850" cy="-600" r="10"
    style="fill:none;stroke:#800;stroke-width:2"  />
  <line x1="-850" y1="200" x2="-550" y2="200" style="stroke:#800;stroke-width:10;stroke-opacity:1.000000;stroke-linecap:round"/>
  <g transform="translate(-785,194) rotate(0)" > <text font-size="100.0" fill="#800" font-family="monospace"  >
   17
  </text> </g> 
  <g transform="translate(-532,240) rotate(0)" > <text font-size="100.0" fill="#088" font-family="monospace"  >
   D3
  </text> </g> 
  <circle cx="-850" cy="200" r="10"
    style="fill:none;stroke:#800;stroke-width:2"  />
  <line x1="850" y1="-400" x2="550" y2="-400" style="stroke:#800;stroke-width:10;stroke-opacity:1.000000;stroke-linecap:round"/>
  <g transform="translate(615,-406) rotate(0)" > <text font-size="100.0" fill="#800" font-family="monospace"  >
   27
  </text> </g> 
  <g transform="translate(330,-360) rotate(0)" > <text font-size="100.0" fill="#088" font-family="monospace"  >
   OP4
  </text> </g> 
  <circle cx="850" cy="-400" r="10"
    style="fill:none;stroke:#800;stroke-width:2"  />
  <line x1="-850" y1="1100" x2="-550" y2="1100" style="stroke:#800;stroke-width:10;stroke-opacity:1.000000;stroke-linecap:round"/>
  <g transform="translate(-785,1094) rotate(0)" > <text font-size="100.0" fill="#800" font-family="monospace"  >
   37
  </text> </g> 
  <g transform="translate(-532,1140) rotate(0)" > <text font-size="100.0" fill="#088" font-family="monospace"  >
   IACKN
  </text> </g> 
  <circle cx="-850" cy="1100" r="10"
    style="fill:none;stroke:#800;stroke-width:2"  />
  <line x1="-850" y1="400" x2="-550" y2="400" style="stroke:#800;stroke-width:10;stroke-opacity:1.000000;stroke-linecap:round"/>
  <g transform="translate(-785,394) rotate(0)" > <text font-size="100.0" fill="#800" font-family="monospace"  >
   18
  </text> </g> 
  <g transform="translate(-532,440) rotate(0)" > <text font-size="100.0" fill="#088" font-family="monospace"  >
   D5
  </text> </g> 
  <circle cx="-850" cy="400" r="10"
    style="fill:none;stroke:#800;stroke-width:2"  />
  <line x1="850" y1="-600" x2="550" y2="-600" style="stroke:#800;stroke-width:10;stroke-opacity:1.000000;stroke-linecap:round"/>
  <g transform="translate(615,-606) rotate(0)" > <text font-size="100.0" fill="#800" font-family="monospace"  >
   28
  </text> </g> 
  <g transform="translate(330,-560) rotate(0)" > <text font-size="100.0" fill="#088" font-family="monospace"  >
   OP2
  </text> </g> 
  <circle cx="850" cy="-600" r="10"
    style="fill:none;stroke:#800;stroke-width:2"  />
  <line x1="-850" y1="-300" x2="-550" y2="-300" style="stroke:#800;stroke-width:10;stroke-opacity:1.000000;stroke-linecap:round"/>
  <g transform="translate(-785,-306) rotate(0)" > <text font-size="100.0" fill="#800" font-family="monospace"  >
   38
  </text> </g> 
  <g transform="translate(-532,-260) rotate(0)" > <text font-size="100.0" fill="#088" font-family="monospace"  >
   IP5
  </text> </g> 
  <circle cx="-850" cy="-300" r="10"
    style="fill:none;stroke:#800;stroke-width:2"  />
  <line x1="-850" y1="600" x2="-550" y2="600" style="stroke:#800;stroke-width:10;stroke-opacity:1.000000;stroke-linecap:round"/>
  <g transform="translate(-785,594) rotate(0)" > <text font-size="100.0" fill="#800" font-family="monospace"  >
   19
  </text> </g> 
  <g transform="translate(-532,640) rotate(0)" > <text font-size="100.0" fill="#088" font-family="monospace"  >
   D7
  </text> </g> 
  <circle cx="-850" cy="600" r="10"
    style="fill:none;stroke:#800;stroke-width:2"  />
  <line x1="850" y1="-800" x2="550" y2="-800" style="stroke:#800;stroke-width:10;stroke-opacity:1.000000;stroke-linecap:round"/>
  <g transform="translate(615,-806) rotate(0)" > <text font-size="100.0" fill="#800" font-family="monospace"  >
   29
  </text> </g> 
  <g transform="translate(330,-760) rotate(0)" > <text font-size="100.0" fill="#088" font-family="monospace"  >
   OP0
  </text> </g> 
  <circle cx="850" cy="-800" r="10"
    style="fill:none;stroke:#800;stroke-width:2"  />
  <line x1="-850" y1="-400" x2="-550" y2="-400" style="stroke:#800;stroke-width:10;stroke-opacity:1.000000;stroke-linecap:round"/>
  <g transform="translate(-785,-406) rotate(0)" > <text font-size="100.0" fill="#800" font-family="monospace"  >
   39
  </text> </g> 
  <g transform="translate(-532,-360) rotate(0)" > <text font-size="100.0" fill="#088" font-family="monospace"  >
   IP4
  </text> </g> 
  <circle cx="-850" cy="-400" r="10"
    style="fill:none;stroke:#800;stroke-width:2"  />
 </g>
</svg>
