<?xml version="1.0"?>
<svg height="1016" width="1016"  >
 <g style="fill-opacity:1.0; stroke:black;
  stroke-width:1;" transform=" translate( 508.0,508.0 ) scale( 0.15,0.15 )">
  <g transform="translate(-35,-65) rotate(0)" > <text font-size="116.666666667" fill="#088" font-family="monospace"  >
   U
  </text> </g> 
  <g transform="translate(-280,135) rotate(0)" > <text font-size="116.666666667" fill="#088" font-family="monospace"  >
   68HC11F1
  </text> </g> 
  <rect x="-800" y="-2700" height="5400"
    width="1600" style="fill:none;stroke:#800;stroke-width:10" />
  <line x1="-100" y1="3000" x2="-100" y2="2700" style="stroke:#800;stroke-width:10;stroke-opacity:1.000000;stroke-linecap:round"/>
  <g transform="translate(-115,2865) rotate(-90)" > <text font-size="100.0" fill="#800" font-family="monospace"  >
   1
  </text> </g> 
  <g transform="translate(-92,2650) rotate(-90)" > <text font-size="100.0" fill="#088" font-family="monospace"  >
   VSS
  </text> </g> 
  <circle cx="-100" cy="3000" r="10"
    style="fill:none;stroke:#800;stroke-width:2"  />
  <line x1="-1100" y1="700" x2="-800" y2="700" style="stroke:#800;stroke-width:10;stroke-opacity:1.000000;stroke-linecap:round"/>
  <g transform="translate(-992,694) rotate(0)" > <text font-size="100.0" fill="#800" font-family="monospace"  >
   2
  </text> </g> 
  <g transform="translate(-782,740) rotate(0)" > <text font-size="100.0" fill="#088" font-family="monospace"  >
   MODB/STBY
  </text> </g> 
  <circle cx="-1100" cy="700" r="10"
    style="fill:none;stroke:#800;stroke-width:2"  />
  <line x1="-1100" y1="600" x2="-800" y2="600" style="stroke:#800;stroke-width:10;stroke-opacity:1.000000;stroke-linecap:round"/>
  <g transform="translate(-992,594) rotate(0)" > <text font-size="100.0" fill="#800" font-family="monospace"  >
   3
  </text> </g> 
  <g transform="translate(-782,640) rotate(0)" > <text font-size="100.0" fill="#088" font-family="monospace"  >
   MODA/LR
  </text> </g> 
  <circle cx="-1100" cy="600" r="10"
    style="fill:none;stroke:#800;stroke-width:2"  />
  <line x1="-1100" y1="200" x2="-800" y2="200" style="stroke:#800;stroke-width:10;stroke-opacity:1.000000;stroke-linecap:round"/>
  <g transform="translate(-992,194) rotate(0)" > <text font-size="100.0" fill="#800" font-family="monospace"  >
   4
  </text> </g> 
  <g transform="translate(-782,240) rotate(0)" > <text font-size="100.0" fill="#088" font-family="monospace"  >
   E
  </text> </g> 
  <circle cx="-1100" cy="200" r="10"
    style="fill:none;stroke:#800;stroke-width:2"  />
  <line x1="-1100" y1="100" x2="-800" y2="100" style="stroke:#800;stroke-width:10;stroke-opacity:1.000000;stroke-linecap:round"/>
  <g transform="translate(-992,94) rotate(0)" > <text font-size="100.0" fill="#800" font-family="monospace"  >
   5
  </text> </g> 
  <g transform="translate(-782,140) rotate(0)" > <text font-size="100.0" fill="#088" font-family="monospace"  >
   R/W
  </text> </g> 
  <circle cx="-1100" cy="100" r="10"
    style="fill:none;stroke:#800;stroke-width:2"  />
  <line x1="-1100" y1="-200" x2="-800" y2="-200" style="stroke:#800;stroke-width:10;stroke-opacity:1.000000;stroke-linecap:round"/>
  <g transform="translate(-992,-206) rotate(0)" > <text font-size="100.0" fill="#800" font-family="monospace"  >
   6
  </text> </g> 
  <g transform="translate(-782,-160) rotate(0)" > <text font-size="100.0" fill="#088" font-family="monospace"  >
   EXTAL
  </text> </g> 
  <circle cx="-1100" cy="-200" r="10"
    style="fill:none;stroke:#800;stroke-width:2"  />
  <line x1="-1100" y1="-500" x2="-800" y2="-500" style="stroke:#800;stroke-width:10;stroke-opacity:1.000000;stroke-linecap:round"/>
  <g transform="translate(-992,-506) rotate(0)" > <text font-size="100.0" fill="#800" font-family="monospace"  >
   7
  </text> </g> 
  <g transform="translate(-782,-460) rotate(0)" > <text font-size="100.0" fill="#088" font-family="monospace"  >
   XTAL
  </text> </g> 
  <circle cx="-1100" cy="-500" r="10"
    style="fill:none;stroke:#800;stroke-width:2"  />
  <line x1="-1100" y1="1400" x2="-800" y2="1400" style="stroke:#800;stroke-width:10;stroke-opacity:1.000000;stroke-linecap:round"/>
  <g transform="translate(-992,1394) rotate(0)" > <text font-size="100.0" fill="#800" font-family="monospace"  >
   8
  </text> </g> 
  <g transform="translate(-782,1440) rotate(0)" > <text font-size="100.0" fill="#088" font-family="monospace"  >
   4XOUT
  </text> </g> 
  <circle cx="-1100" cy="1400" r="10"
    style="fill:none;stroke:#800;stroke-width:2"  />
  <line x1="1100" y1="-200" x2="800" y2="-200" style="stroke:#800;stroke-width:10;stroke-opacity:1.000000;stroke-linecap:round"/>
  <g transform="translate(907,-206) rotate(0)" > <text font-size="100.0" fill="#800" font-family="monospace"  >
   9
  </text> </g> 
  <g transform="translate(400,-160) rotate(0)" > <text font-size="100.0" fill="#088" font-family="monospace"  >
   D0/PC0
  </text> </g> 
  <circle cx="1100" cy="-200" r="10"
    style="fill:none;stroke:#800;stroke-width:2"  />
  <line x1="1100" y1="-100" x2="800" y2="-100" style="stroke:#800;stroke-width:10;stroke-opacity:1.000000;stroke-linecap:round"/>
  <g transform="translate(865,-106) rotate(0)" > <text font-size="100.0" fill="#800" font-family="monospace"  >
   10
  </text> </g> 
  <g transform="translate(580,-60) rotate(0)" > <text font-size="100.0" fill="#088" font-family="monospace"  >
   PC1
  </text> </g> 
  <circle cx="1100" cy="-100" r="10"
    style="fill:none;stroke:#800;stroke-width:2"  />
  <line x1="1100" y1="2300" x2="800" y2="2300" style="stroke:#800;stroke-width:10;stroke-opacity:1.000000;stroke-linecap:round"/>
  <g transform="translate(865,2294) rotate(0)" > <text font-size="100.0" fill="#800" font-family="monospace"  >
   20
  </text> </g> 
  <g transform="translate(160,2340) rotate(0)" > <text font-size="100.0" fill="#088" font-family="monospace"  >
   CSPROG/PG7
  </text> </g> 
  <circle cx="1100" cy="2300" r="10"
    style="fill:none;stroke:#800;stroke-width:2"  />
  <line x1="-1100" y1="-2400" x2="-800" y2="-2400" style="stroke:#800;stroke-width:10;stroke-opacity:1.000000;stroke-linecap:round"/>
  <g transform="translate(-1035,-2406) rotate(0)" > <text font-size="100.0" fill="#800" font-family="monospace"  >
   30
  </text> </g> 
  <g transform="translate(-782,-2360) rotate(0)" > <text font-size="100.0" fill="#088" font-family="monospace"  >
   PD2/MISO
  </text> </g> 
  <circle cx="-1100" cy="-2400" r="10"
    style="fill:none;stroke:#800;stroke-width:2"  />
  <line x1="1100" y1="-2300" x2="800" y2="-2300" style="stroke:#800;stroke-width:10;stroke-opacity:1.000000;stroke-linecap:round"/>
  <g transform="translate(865,-2306) rotate(0)" > <text font-size="100.0" fill="#800" font-family="monospace"  >
   40
  </text> </g> 
  <g transform="translate(340,-2260) rotate(0)" > <text font-size="100.0" fill="#088" font-family="monospace"  >
   IC1/PA2
  </text> </g> 
  <circle cx="1100" cy="-2300" r="10"
    style="fill:none;stroke:#800;stroke-width:2"  />
  <line x1="1100" y1="-1300" x2="800" y2="-1300" style="stroke:#800;stroke-width:10;stroke-opacity:1.000000;stroke-linecap:round"/>
  <g transform="translate(865,-1306) rotate(0)" > <text font-size="100.0" fill="#800" font-family="monospace"  >
   50
  </text> </g> 
  <g transform="translate(400,-1260) rotate(0)" > <text font-size="100.0" fill="#088" font-family="monospace"  >
   A8/PB0
  </text> </g> 
  <circle cx="1100" cy="-1300" r="10"
    style="fill:none;stroke:#800;stroke-width:2"  />
  <line x1="-1100" y1="-1500" x2="-800" y2="-1500" style="stroke:#800;stroke-width:10;stroke-opacity:1.000000;stroke-linecap:round"/>
  <g transform="translate(-1035,-1506) rotate(0)" > <text font-size="100.0" fill="#800" font-family="monospace"  >
   60
  </text> </g> 
  <g transform="translate(-782,-1460) rotate(0)" > <text font-size="100.0" fill="#088" font-family="monospace"  >
   PE4
  </text> </g> 
  <circle cx="-1100" cy="-1500" r="10"
    style="fill:none;stroke:#800;stroke-width:2"  />
  <line x1="1100" y1="0" x2="800" y2="0" style="stroke:#800;stroke-width:10;stroke-opacity:1.000000;stroke-linecap:round"/>
  <g transform="translate(865,-6) rotate(0)" > <text font-size="100.0" fill="#800" font-family="monospace"  >
   11
  </text> </g> 
  <g transform="translate(580,40) rotate(0)" > <text font-size="100.0" fill="#088" font-family="monospace"  >
   PC2
  </text> </g> 
  <circle cx="1100" cy="0" r="10"
    style="fill:none;stroke:#800;stroke-width:2"  />
  <line x1="1100" y1="2200" x2="800" y2="2200" style="stroke:#800;stroke-width:10;stroke-opacity:1.000000;stroke-linecap:round"/>
  <g transform="translate(865,2194) rotate(0)" > <text font-size="100.0" fill="#800" font-family="monospace"  >
   21
  </text> </g> 
  <g transform="translate(220,2240) rotate(0)" > <text font-size="100.0" fill="#088" font-family="monospace"  >
   CSGEN/PG6
  </text> </g> 
  <circle cx="1100" cy="2200" r="10"
    style="fill:none;stroke:#800;stroke-width:2"  />
  <line x1="-1100" y1="-2300" x2="-800" y2="-2300" style="stroke:#800;stroke-width:10;stroke-opacity:1.000000;stroke-linecap:round"/>
  <g transform="translate(-1035,-2306) rotate(0)" > <text font-size="100.0" fill="#800" font-family="monospace"  >
   31
  </text> </g> 
  <g transform="translate(-782,-2260) rotate(0)" > <text font-size="100.0" fill="#088" font-family="monospace"  >
   PD3/MOSI
  </text> </g> 
  <circle cx="-1100" cy="-2300" r="10"
    style="fill:none;stroke:#800;stroke-width:2"  />
  <line x1="1100" y1="-2400" x2="800" y2="-2400" style="stroke:#800;stroke-width:10;stroke-opacity:1.000000;stroke-linecap:round"/>
  <g transform="translate(865,-2406) rotate(0)" > <text font-size="100.0" fill="#800" font-family="monospace"  >
   41
  </text> </g> 
  <g transform="translate(340,-2360) rotate(0)" > <text font-size="100.0" fill="#088" font-family="monospace"  >
   IC2/PA1
  </text> </g> 
  <circle cx="1100" cy="-2400" r="10"
    style="fill:none;stroke:#800;stroke-width:2"  />
  <line x1="1100" y1="1400" x2="800" y2="1400" style="stroke:#800;stroke-width:10;stroke-opacity:1.000000;stroke-linecap:round"/>
  <g transform="translate(865,1394) rotate(0)" > <text font-size="100.0" fill="#800" font-family="monospace"  >
   51
  </text> </g> 
  <g transform="translate(400,1440) rotate(0)" > <text font-size="100.0" fill="#088" font-family="monospace"  >
   A7/PF7
  </text> </g> 
  <circle cx="1100" cy="1400" r="10"
    style="fill:none;stroke:#800;stroke-width:2"  />
  <line x1="-1100" y1="-1800" x2="-800" y2="-1800" style="stroke:#800;stroke-width:10;stroke-opacity:1.000000;stroke-linecap:round"/>
  <g transform="translate(-1035,-1806) rotate(0)" > <text font-size="100.0" fill="#800" font-family="monospace"  >
   61
  </text> </g> 
  <g transform="translate(-782,-1760) rotate(0)" > <text font-size="100.0" fill="#088" font-family="monospace"  >
   PE1
  </text> </g> 
  <circle cx="-1100" cy="-1800" r="10"
    style="fill:none;stroke:#800;stroke-width:2"  />
  <line x1="1100" y1="100" x2="800" y2="100" style="stroke:#800;stroke-width:10;stroke-opacity:1.000000;stroke-linecap:round"/>
  <g transform="translate(865,94) rotate(0)" > <text font-size="100.0" fill="#800" font-family="monospace"  >
   12
  </text> </g> 
  <g transform="translate(580,140) rotate(0)" > <text font-size="100.0" fill="#088" font-family="monospace"  >
   PC3
  </text> </g> 
  <circle cx="1100" cy="100" r="10"
    style="fill:none;stroke:#800;stroke-width:2"  />
  <line x1="1100" y1="2100" x2="800" y2="2100" style="stroke:#800;stroke-width:10;stroke-opacity:1.000000;stroke-linecap:round"/>
  <g transform="translate(865,2094) rotate(0)" > <text font-size="100.0" fill="#800" font-family="monospace"  >
   22
  </text> </g> 
  <g transform="translate(220,2140) rotate(0)" > <text font-size="100.0" fill="#088" font-family="monospace"  >
   CSIO1/PG5
  </text> </g> 
  <circle cx="1100" cy="2100" r="10"
    style="fill:none;stroke:#800;stroke-width:2"  />
  <line x1="-1100" y1="-2200" x2="-800" y2="-2200" style="stroke:#800;stroke-width:10;stroke-opacity:1.000000;stroke-linecap:round"/>
  <g transform="translate(-1035,-2206) rotate(0)" > <text font-size="100.0" fill="#800" font-family="monospace"  >
   32
  </text> </g> 
  <g transform="translate(-782,-2160) rotate(0)" > <text font-size="100.0" fill="#088" font-family="monospace"  >
   PD4/SCLK
  </text> </g> 
  <circle cx="-1100" cy="-2200" r="10"
    style="fill:none;stroke:#800;stroke-width:2"  />
  <line x1="1100" y1="-2500" x2="800" y2="-2500" style="stroke:#800;stroke-width:10;stroke-opacity:1.000000;stroke-linecap:round"/>
  <g transform="translate(865,-2506) rotate(0)" > <text font-size="100.0" fill="#800" font-family="monospace"  >
   42
  </text> </g> 
  <g transform="translate(340,-2460) rotate(0)" > <text font-size="100.0" fill="#088" font-family="monospace"  >
   IC3/PA0
  </text> </g> 
  <circle cx="1100" cy="-2500" r="10"
    style="fill:none;stroke:#800;stroke-width:2"  />
  <line x1="1100" y1="1300" x2="800" y2="1300" style="stroke:#800;stroke-width:10;stroke-opacity:1.000000;stroke-linecap:round"/>
  <g transform="translate(865,1294) rotate(0)" > <text font-size="100.0" fill="#800" font-family="monospace"  >
   52
  </text> </g> 
  <g transform="translate(580,1340) rotate(0)" > <text font-size="100.0" fill="#088" font-family="monospace"  >
   PF6
  </text> </g> 
  <circle cx="1100" cy="1300" r="10"
    style="fill:none;stroke:#800;stroke-width:2"  />
  <line x1="-1100" y1="-1400" x2="-800" y2="-1400" style="stroke:#800;stroke-width:10;stroke-opacity:1.000000;stroke-linecap:round"/>
  <g transform="translate(-1035,-1406) rotate(0)" > <text font-size="100.0" fill="#800" font-family="monospace"  >
   62
  </text> </g> 
  <g transform="translate(-782,-1360) rotate(0)" > <text font-size="100.0" fill="#088" font-family="monospace"  >
   PE5
  </text> </g> 
  <circle cx="-1100" cy="-1400" r="10"
    style="fill:none;stroke:#800;stroke-width:2"  />
  <line x1="1100" y1="200" x2="800" y2="200" style="stroke:#800;stroke-width:10;stroke-opacity:1.000000;stroke-linecap:round"/>
  <g transform="translate(865,194) rotate(0)" > <text font-size="100.0" fill="#800" font-family="monospace"  >
   13
  </text> </g> 
  <g transform="translate(580,240) rotate(0)" > <text font-size="100.0" fill="#088" font-family="monospace"  >
   PC4
  </text> </g> 
  <circle cx="1100" cy="200" r="10"
    style="fill:none;stroke:#800;stroke-width:2"  />
  <line x1="1100" y1="2000" x2="800" y2="2000" style="stroke:#800;stroke-width:10;stroke-opacity:1.000000;stroke-linecap:round"/>
  <g transform="translate(865,1994) rotate(0)" > <text font-size="100.0" fill="#800" font-family="monospace"  >
   23
  </text> </g> 
  <g transform="translate(220,2040) rotate(0)" > <text font-size="100.0" fill="#088" font-family="monospace"  >
   CSIO2/PG4
  </text> </g> 
  <circle cx="1100" cy="2000" r="10"
    style="fill:none;stroke:#800;stroke-width:2"  />
  <line x1="-1100" y1="-2100" x2="-800" y2="-2100" style="stroke:#800;stroke-width:10;stroke-opacity:1.000000;stroke-linecap:round"/>
  <g transform="translate(-1035,-2106) rotate(0)" > <text font-size="100.0" fill="#800" font-family="monospace"  >
   33
  </text> </g> 
  <g transform="translate(-782,-2060) rotate(0)" > <text font-size="100.0" fill="#088" font-family="monospace"  >
   PD5/SS-
  </text> </g> 
  <circle cx="-1100" cy="-2100" r="10"
    style="fill:none;stroke:#800;stroke-width:2"  />
  <line x1="1100" y1="-600" x2="800" y2="-600" style="stroke:#800;stroke-width:10;stroke-opacity:1.000000;stroke-linecap:round"/>
  <g transform="translate(865,-606) rotate(0)" > <text font-size="100.0" fill="#800" font-family="monospace"  >
   43
  </text> </g> 
  <g transform="translate(340,-560) rotate(0)" > <text font-size="100.0" fill="#088" font-family="monospace"  >
   A15/PB7
  </text> </g> 
  <circle cx="1100" cy="-600" r="10"
    style="fill:none;stroke:#800;stroke-width:2"  />
  <line x1="1100" y1="1200" x2="800" y2="1200" style="stroke:#800;stroke-width:10;stroke-opacity:1.000000;stroke-linecap:round"/>
  <g transform="translate(865,1194) rotate(0)" > <text font-size="100.0" fill="#800" font-family="monospace"  >
   53
  </text> </g> 
  <g transform="translate(580,1240) rotate(0)" > <text font-size="100.0" fill="#088" font-family="monospace"  >
   PF5
  </text> </g> 
  <circle cx="1100" cy="1200" r="10"
    style="fill:none;stroke:#800;stroke-width:2"  />
  <line x1="-1100" y1="-1700" x2="-800" y2="-1700" style="stroke:#800;stroke-width:10;stroke-opacity:1.000000;stroke-linecap:round"/>
  <g transform="translate(-1035,-1706) rotate(0)" > <text font-size="100.0" fill="#800" font-family="monospace"  >
   63
  </text> </g> 
  <g transform="translate(-782,-1660) rotate(0)" > <text font-size="100.0" fill="#088" font-family="monospace"  >
   PE2
  </text> </g> 
  <circle cx="-1100" cy="-1700" r="10"
    style="fill:none;stroke:#800;stroke-width:2"  />
  <line x1="1100" y1="300" x2="800" y2="300" style="stroke:#800;stroke-width:10;stroke-opacity:1.000000;stroke-linecap:round"/>
  <g transform="translate(865,294) rotate(0)" > <text font-size="100.0" fill="#800" font-family="monospace"  >
   14
  </text> </g> 
  <g transform="translate(580,340) rotate(0)" > <text font-size="100.0" fill="#088" font-family="monospace"  >
   PC5
  </text> </g> 
  <circle cx="1100" cy="300" r="10"
    style="fill:none;stroke:#800;stroke-width:2"  />
  <line x1="1100" y1="1900" x2="800" y2="1900" style="stroke:#800;stroke-width:10;stroke-opacity:1.000000;stroke-linecap:round"/>
  <g transform="translate(865,1894) rotate(0)" > <text font-size="100.0" fill="#800" font-family="monospace"  >
   24
  </text> </g> 
  <g transform="translate(580,1940) rotate(0)" > <text font-size="100.0" fill="#088" font-family="monospace"  >
   PG3
  </text> </g> 
  <circle cx="1100" cy="1900" r="10"
    style="fill:none;stroke:#800;stroke-width:2"  />
  <line x1="-100" y1="-3000" x2="-100" y2="-2700" style="stroke:#800;stroke-width:10;stroke-opacity:1.000000;stroke-linecap:round"/>
  <g transform="translate(-115,-2820) rotate(-90)" > <text font-size="100.0" fill="#800" font-family="monospace"  >
   34
  </text> </g> 
  <g transform="translate(-92,-2470) rotate(-90)" > <text font-size="100.0" fill="#088" font-family="monospace"  >
   VDD
  </text> </g> 
  <circle cx="-100" cy="-3000" r="10"
    style="fill:none;stroke:#800;stroke-width:2"  />
  <line x1="1100" y1="-700" x2="800" y2="-700" style="stroke:#800;stroke-width:10;stroke-opacity:1.000000;stroke-linecap:round"/>
  <g transform="translate(865,-706) rotate(0)" > <text font-size="100.0" fill="#800" font-family="monospace"  >
   44
  </text> </g> 
  <g transform="translate(580,-660) rotate(0)" > <text font-size="100.0" fill="#088" font-family="monospace"  >
   PB6
  </text> </g> 
  <circle cx="1100" cy="-700" r="10"
    style="fill:none;stroke:#800;stroke-width:2"  />
  <line x1="1100" y1="1100" x2="800" y2="1100" style="stroke:#800;stroke-width:10;stroke-opacity:1.000000;stroke-linecap:round"/>
  <g transform="translate(865,1094) rotate(0)" > <text font-size="100.0" fill="#800" font-family="monospace"  >
   54
  </text> </g> 
  <g transform="translate(580,1140) rotate(0)" > <text font-size="100.0" fill="#088" font-family="monospace"  >
   PF4
  </text> </g> 
  <circle cx="1100" cy="1100" r="10"
    style="fill:none;stroke:#800;stroke-width:2"  />
  <line x1="-1100" y1="-1300" x2="-800" y2="-1300" style="stroke:#800;stroke-width:10;stroke-opacity:1.000000;stroke-linecap:round"/>
  <g transform="translate(-1035,-1306) rotate(0)" > <text font-size="100.0" fill="#800" font-family="monospace"  >
   64
  </text> </g> 
  <g transform="translate(-782,-1260) rotate(0)" > <text font-size="100.0" fill="#088" font-family="monospace"  >
   PE6
  </text> </g> 
  <circle cx="-1100" cy="-1300" r="10"
    style="fill:none;stroke:#800;stroke-width:2"  />
  <line x1="1100" y1="400" x2="800" y2="400" style="stroke:#800;stroke-width:10;stroke-opacity:1.000000;stroke-linecap:round"/>
  <g transform="translate(865,394) rotate(0)" > <text font-size="100.0" fill="#800" font-family="monospace"  >
   15
  </text> </g> 
  <g transform="translate(580,440) rotate(0)" > <text font-size="100.0" fill="#088" font-family="monospace"  >
   PC6
  </text> </g> 
  <circle cx="1100" cy="400" r="10"
    style="fill:none;stroke:#800;stroke-width:2"  />
  <line x1="1100" y1="1800" x2="800" y2="1800" style="stroke:#800;stroke-width:10;stroke-opacity:1.000000;stroke-linecap:round"/>
  <g transform="translate(865,1794) rotate(0)" > <text font-size="100.0" fill="#800" font-family="monospace"  >
   25
  </text> </g> 
  <g transform="translate(580,1840) rotate(0)" > <text font-size="100.0" fill="#088" font-family="monospace"  >
   PG2
  </text> </g> 
  <circle cx="1100" cy="1800" r="10"
    style="fill:none;stroke:#800;stroke-width:2"  />
  <line x1="1100" y1="-1800" x2="800" y2="-1800" style="stroke:#800;stroke-width:10;stroke-opacity:1.000000;stroke-linecap:round"/>
  <g transform="translate(865,-1806) rotate(0)" > <text font-size="100.0" fill="#800" font-family="monospace"  >
   35
  </text> </g> 
  <g transform="translate(340,-1760) rotate(0)" > <text font-size="100.0" fill="#088" font-family="monospace"  >
   PA1/PA7
  </text> </g> 
  <circle cx="1100" cy="-1800" r="10"
    style="fill:none;stroke:#800;stroke-width:2"  />
  <line x1="1100" y1="-800" x2="800" y2="-800" style="stroke:#800;stroke-width:10;stroke-opacity:1.000000;stroke-linecap:round"/>
  <g transform="translate(865,-806) rotate(0)" > <text font-size="100.0" fill="#800" font-family="monospace"  >
   45
  </text> </g> 
  <g transform="translate(580,-760) rotate(0)" > <text font-size="100.0" fill="#088" font-family="monospace"  >
   PB5
  </text> </g> 
  <circle cx="1100" cy="-800" r="10"
    style="fill:none;stroke:#800;stroke-width:2"  />
  <line x1="1100" y1="1000" x2="800" y2="1000" style="stroke:#800;stroke-width:10;stroke-opacity:1.000000;stroke-linecap:round"/>
  <g transform="translate(865,994) rotate(0)" > <text font-size="100.0" fill="#800" font-family="monospace"  >
   55
  </text> </g> 
  <g transform="translate(580,1040) rotate(0)" > <text font-size="100.0" fill="#088" font-family="monospace"  >
   PF3
  </text> </g> 
  <circle cx="1100" cy="1000" r="10"
    style="fill:none;stroke:#800;stroke-width:2"  />
  <line x1="-1100" y1="-1600" x2="-800" y2="-1600" style="stroke:#800;stroke-width:10;stroke-opacity:1.000000;stroke-linecap:round"/>
  <g transform="translate(-1035,-1606) rotate(0)" > <text font-size="100.0" fill="#800" font-family="monospace"  >
   65
  </text> </g> 
  <g transform="translate(-782,-1560) rotate(0)" > <text font-size="100.0" fill="#088" font-family="monospace"  >
   PE3
  </text> </g> 
  <circle cx="-1100" cy="-1600" r="10"
    style="fill:none;stroke:#800;stroke-width:2"  />
  <line x1="1100" y1="500" x2="800" y2="500" style="stroke:#800;stroke-width:10;stroke-opacity:1.000000;stroke-linecap:round"/>
  <g transform="translate(865,494) rotate(0)" > <text font-size="100.0" fill="#800" font-family="monospace"  >
   16
  </text> </g> 
  <g transform="translate(400,540) rotate(0)" > <text font-size="100.0" fill="#088" font-family="monospace"  >
   D7/PC7
  </text> </g> 
  <circle cx="1100" cy="500" r="10"
    style="fill:none;stroke:#800;stroke-width:2"  />
  <line x1="1100" y1="1700" x2="800" y2="1700" style="stroke:#800;stroke-width:10;stroke-opacity:1.000000;stroke-linecap:round"/>
  <g transform="translate(865,1694) rotate(0)" > <text font-size="100.0" fill="#800" font-family="monospace"  >
   26
  </text> </g> 
  <g transform="translate(580,1740) rotate(0)" > <text font-size="100.0" fill="#088" font-family="monospace"  >
   PG1
  </text> </g> 
  <circle cx="1100" cy="1700" r="10"
    style="fill:none;stroke:#800;stroke-width:2"  />
  <line x1="1100" y1="-1900" x2="800" y2="-1900" style="stroke:#800;stroke-width:10;stroke-opacity:1.000000;stroke-linecap:round"/>
  <g transform="translate(865,-1906) rotate(0)" > <text font-size="100.0" fill="#800" font-family="monospace"  >
   36
  </text> </g> 
  <g transform="translate(340,-1860) rotate(0)" > <text font-size="100.0" fill="#088" font-family="monospace"  >
   OC2/PA6
  </text> </g> 
  <circle cx="1100" cy="-1900" r="10"
    style="fill:none;stroke:#800;stroke-width:2"  />
  <line x1="1100" y1="-900" x2="800" y2="-900" style="stroke:#800;stroke-width:10;stroke-opacity:1.000000;stroke-linecap:round"/>
  <g transform="translate(865,-906) rotate(0)" > <text font-size="100.0" fill="#800" font-family="monospace"  >
   46
  </text> </g> 
  <g transform="translate(580,-860) rotate(0)" > <text font-size="100.0" fill="#088" font-family="monospace"  >
   PB4
  </text> </g> 
  <circle cx="1100" cy="-900" r="10"
    style="fill:none;stroke:#800;stroke-width:2"  />
  <line x1="1100" y1="900" x2="800" y2="900" style="stroke:#800;stroke-width:10;stroke-opacity:1.000000;stroke-linecap:round"/>
  <g transform="translate(865,894) rotate(0)" > <text font-size="100.0" fill="#800" font-family="monospace"  >
   56
  </text> </g> 
  <g transform="translate(580,940) rotate(0)" > <text font-size="100.0" fill="#088" font-family="monospace"  >
   PF2
  </text> </g> 
  <circle cx="1100" cy="900" r="10"
    style="fill:none;stroke:#800;stroke-width:2"  />
  <line x1="-1100" y1="-1200" x2="-800" y2="-1200" style="stroke:#800;stroke-width:10;stroke-opacity:1.000000;stroke-linecap:round"/>
  <g transform="translate(-1035,-1206) rotate(0)" > <text font-size="100.0" fill="#800" font-family="monospace"  >
   66
  </text> </g> 
  <g transform="translate(-782,-1160) rotate(0)" > <text font-size="100.0" fill="#088" font-family="monospace"  >
   PE7
  </text> </g> 
  <circle cx="-1100" cy="-1200" r="10"
    style="fill:none;stroke:#800;stroke-width:2"  />
  <line x1="-1100" y1="-800" x2="-870" y2="-800" style="stroke:#800;stroke-width:10;stroke-opacity:1.000000;stroke-linecap:round"/>
  <circle cx="-835" cy="-800" r="35"
    style="fill:none;stroke:#800;stroke-width:10"  />
  <g transform="translate(-1035,-806) rotate(0)" > <text font-size="100.0" fill="#800" font-family="monospace"  >
   17
  </text> </g> 
  <g transform="translate(-782,-760) rotate(0)" > <text font-size="100.0" fill="#088" font-family="monospace"  >
   RESET
  </text> </g> 
  <circle cx="-1100" cy="-800" r="10"
    style="fill:none;stroke:#800;stroke-width:2"  />
  <line x1="1100" y1="1600" x2="800" y2="1600" style="stroke:#800;stroke-width:10;stroke-opacity:1.000000;stroke-linecap:round"/>
  <g transform="translate(865,1594) rotate(0)" > <text font-size="100.0" fill="#800" font-family="monospace"  >
   27
  </text> </g> 
  <g transform="translate(580,1640) rotate(0)" > <text font-size="100.0" fill="#088" font-family="monospace"  >
   PG0
  </text> </g> 
  <circle cx="1100" cy="1600" r="10"
    style="fill:none;stroke:#800;stroke-width:2"  />
  <line x1="1100" y1="-2000" x2="800" y2="-2000" style="stroke:#800;stroke-width:10;stroke-opacity:1.000000;stroke-linecap:round"/>
  <g transform="translate(865,-2006) rotate(0)" > <text font-size="100.0" fill="#800" font-family="monospace"  >
   37
  </text> </g> 
  <g transform="translate(340,-1960) rotate(0)" > <text font-size="100.0" fill="#088" font-family="monospace"  >
   OC3/PA5
  </text> </g> 
  <circle cx="1100" cy="-2000" r="10"
    style="fill:none;stroke:#800;stroke-width:2"  />
  <line x1="1100" y1="-1000" x2="800" y2="-1000" style="stroke:#800;stroke-width:10;stroke-opacity:1.000000;stroke-linecap:round"/>
  <g transform="translate(865,-1006) rotate(0)" > <text font-size="100.0" fill="#800" font-family="monospace"  >
   47
  </text> </g> 
  <g transform="translate(580,-960) rotate(0)" > <text font-size="100.0" fill="#088" font-family="monospace"  >
   PB3
  </text> </g> 
  <circle cx="1100" cy="-1000" r="10"
    style="fill:none;stroke:#800;stroke-width:2"  />
  <line x1="1100" y1="800" x2="800" y2="800" style="stroke:#800;stroke-width:10;stroke-opacity:1.000000;stroke-linecap:round"/>
  <g transform="translate(865,794) rotate(0)" > <text font-size="100.0" fill="#800" font-family="monospace"  >
   57
  </text> </g> 
  <g transform="translate(580,840) rotate(0)" > <text font-size="100.0" fill="#088" font-family="monospace"  >
   PF1
  </text> </g> 
  <circle cx="1100" cy="800" r="10"
    style="fill:none;stroke:#800;stroke-width:2"  />
  <line x1="-1100" y1="1000" x2="-800" y2="1000" style="stroke:#800;stroke-width:10;stroke-opacity:1.000000;stroke-linecap:round"/>
  <g transform="translate(-1035,994) rotate(0)" > <text font-size="100.0" fill="#800" font-family="monospace"  >
   67
  </text> </g> 
  <g transform="translate(-782,1040) rotate(0)" > <text font-size="100.0" fill="#088" font-family="monospace"  >
   VRL
  </text> </g> 
  <circle cx="-1100" cy="1000" r="10"
    style="fill:none;stroke:#800;stroke-width:2"  />
  <line x1="-1100" y1="-900" x2="-870" y2="-900" style="stroke:#800;stroke-width:10;stroke-opacity:1.000000;stroke-linecap:round"/>
  <circle cx="-835" cy="-900" r="35"
    style="fill:none;stroke:#800;stroke-width:10"  />
  <g transform="translate(-1035,-906) rotate(0)" > <text font-size="100.0" fill="#800" font-family="monospace"  >
   18
  </text> </g> 
  <g transform="translate(-782,-860) rotate(0)" > <text font-size="100.0" fill="#088" font-family="monospace"  >
   XIRQ
  </text> </g> 
  <circle cx="-1100" cy="-900" r="10"
    style="fill:none;stroke:#800;stroke-width:2"  />
  <line x1="-1100" y1="-2600" x2="-800" y2="-2600" style="stroke:#800;stroke-width:10;stroke-opacity:1.000000;stroke-linecap:round"/>
  <g transform="translate(-1035,-2606) rotate(0)" > <text font-size="100.0" fill="#800" font-family="monospace"  >
   28
  </text> </g> 
  <g transform="translate(-782,-2560) rotate(0)" > <text font-size="100.0" fill="#088" font-family="monospace"  >
   PD0/RX
  </text> </g> 
  <circle cx="-1100" cy="-2600" r="10"
    style="fill:none;stroke:#800;stroke-width:2"  />
  <line x1="1100" y1="-2100" x2="800" y2="-2100" style="stroke:#800;stroke-width:10;stroke-opacity:1.000000;stroke-linecap:round"/>
  <g transform="translate(865,-2106) rotate(0)" > <text font-size="100.0" fill="#800" font-family="monospace"  >
   38
  </text> </g> 
  <g transform="translate(340,-2060) rotate(0)" > <text font-size="100.0" fill="#088" font-family="monospace"  >
   OC4/PA4
  </text> </g> 
  <circle cx="1100" cy="-2100" r="10"
    style="fill:none;stroke:#800;stroke-width:2"  />
  <line x1="1100" y1="-1100" x2="800" y2="-1100" style="stroke:#800;stroke-width:10;stroke-opacity:1.000000;stroke-linecap:round"/>
  <g transform="translate(865,-1106) rotate(0)" > <text font-size="100.0" fill="#800" font-family="monospace"  >
   48
  </text> </g> 
  <g transform="translate(580,-1060) rotate(0)" > <text font-size="100.0" fill="#088" font-family="monospace"  >
   PB2
  </text> </g> 
  <circle cx="1100" cy="-1100" r="10"
    style="fill:none;stroke:#800;stroke-width:2"  />
  <line x1="1100" y1="700" x2="800" y2="700" style="stroke:#800;stroke-width:10;stroke-opacity:1.000000;stroke-linecap:round"/>
  <g transform="translate(865,694) rotate(0)" > <text font-size="100.0" fill="#800" font-family="monospace"  >
   58
  </text> </g> 
  <g transform="translate(400,740) rotate(0)" > <text font-size="100.0" fill="#088" font-family="monospace"  >
   A0/PF0
  </text> </g> 
  <circle cx="1100" cy="700" r="10"
    style="fill:none;stroke:#800;stroke-width:2"  />
  <line x1="-1100" y1="900" x2="-800" y2="900" style="stroke:#800;stroke-width:10;stroke-opacity:1.000000;stroke-linecap:round"/>
  <g transform="translate(-1035,894) rotate(0)" > <text font-size="100.0" fill="#800" font-family="monospace"  >
   68
  </text> </g> 
  <g transform="translate(-782,940) rotate(0)" > <text font-size="100.0" fill="#088" font-family="monospace"  >
   VRH
  </text> </g> 
  <circle cx="-1100" cy="900" r="10"
    style="fill:none;stroke:#800;stroke-width:2"  />
  <line x1="-1100" y1="-1000" x2="-870" y2="-1000" style="stroke:#800;stroke-width:10;stroke-opacity:1.000000;stroke-linecap:round"/>
  <circle cx="-835" cy="-1000" r="35"
    style="fill:none;stroke:#800;stroke-width:10"  />
  <g transform="translate(-1035,-1006) rotate(0)" > <text font-size="100.0" fill="#800" font-family="monospace"  >
   19
  </text> </g> 
  <g transform="translate(-782,-960) rotate(0)" > <text font-size="100.0" fill="#088" font-family="monospace"  >
   IRQ
  </text> </g> 
  <circle cx="-1100" cy="-1000" r="10"
    style="fill:none;stroke:#800;stroke-width:2"  />
  <line x1="-1100" y1="-2500" x2="-800" y2="-2500" style="stroke:#800;stroke-width:10;stroke-opacity:1.000000;stroke-linecap:round"/>
  <g transform="translate(-1035,-2506) rotate(0)" > <text font-size="100.0" fill="#800" font-family="monospace"  >
   29
  </text> </g> 
  <g transform="translate(-782,-2460) rotate(0)" > <text font-size="100.0" fill="#088" font-family="monospace"  >
   PD1/TX
  </text> </g> 
  <circle cx="-1100" cy="-2500" r="10"
    style="fill:none;stroke:#800;stroke-width:2"  />
  <line x1="1100" y1="-2200" x2="800" y2="-2200" style="stroke:#800;stroke-width:10;stroke-opacity:1.000000;stroke-linecap:round"/>
  <g transform="translate(865,-2206) rotate(0)" > <text font-size="100.0" fill="#800" font-family="monospace"  >
   39
  </text> </g> 
  <g transform="translate(340,-2160) rotate(0)" > <text font-size="100.0" fill="#088" font-family="monospace"  >
   OC5/PA3
  </text> </g> 
  <circle cx="1100" cy="-2200" r="10"
    style="fill:none;stroke:#800;stroke-width:2"  />
  <line x1="1100" y1="-1200" x2="800" y2="-1200" style="stroke:#800;stroke-width:10;stroke-opacity:1.000000;stroke-linecap:round"/>
  <g transform="translate(865,-1206) rotate(0)" > <text font-size="100.0" fill="#800" font-family="monospace"  >
   49
  </text> </g> 
  <g transform="translate(580,-1160) rotate(0)" > <text font-size="100.0" fill="#088" font-family="monospace"  >
   PB1
  </text> </g> 
  <circle cx="1100" cy="-1200" r="10"
    style="fill:none;stroke:#800;stroke-width:2"  />
  <line x1="-1100" y1="-1900" x2="-800" y2="-1900" style="stroke:#800;stroke-width:10;stroke-opacity:1.000000;stroke-linecap:round"/>
  <g transform="translate(-1035,-1906) rotate(0)" > <text font-size="100.0" fill="#800" font-family="monospace"  >
   59
  </text> </g> 
  <g transform="translate(-782,-1860) rotate(0)" > <text font-size="100.0" fill="#088" font-family="monospace"  >
   PE0
  </text> </g> 
  <circle cx="-1100" cy="-1900" r="10"
    style="fill:none;stroke:#800;stroke-width:2"  />
 </g>
</svg>
