<?xml version="1.0"?>
<svg height="850" width="725"  >
 <g style="fill-opacity:1.0; stroke:black;
  stroke-width:1;" transform=" translate( 362.5,425.125 ) scale( 0.15,0.15 )">
  <g transform="translate(165,-1765) rotate(0)" > <text font-size="116.666666667" fill="#088" font-family="monospace"  >
   U
  </text> </g> 
  <g transform="translate(-220,1835) rotate(0)" > <text font-size="116.666666667" fill="#088" font-family="monospace"  >
   68HC711_PLCC
  </text> </g> 
  <rect x="-700" y="-1700" height="3400"
    width="1400" style="fill:none;stroke:#800;stroke-width:10" />
  <line x1="50" y1="2000" x2="50" y2="1700" style="stroke:#800;stroke-width:10;stroke-opacity:1.000000;stroke-linecap:round"/>
  <g transform="translate(35,1865) rotate(-90)" > <text font-size="100.0" fill="#800" font-family="monospace"  >
   1
  </text> </g> 
  <g transform="translate(57,1650) rotate(-90)" > <text font-size="100.0" fill="#088" font-family="monospace"  >
   EVSS
  </text> </g> 
  <circle cx="50" cy="2000" r="10"
    style="fill:none;stroke:#800;stroke-width:2"  />
  <line x1="-50" y1="2000" x2="-50" y2="1700" style="stroke:#800;stroke-width:10;stroke-opacity:1.000000;stroke-linecap:round"/>
  <g transform="translate(-65,1865) rotate(-90)" > <text font-size="100.0" fill="#800" font-family="monospace"  >
   2
  </text> </g> 
  <g transform="translate(-42,1650) rotate(-90)" > <text font-size="100.0" fill="#088" font-family="monospace"  >
   VSS
  </text> </g> 
  <circle cx="-50" cy="2000" r="10"
    style="fill:none;stroke:#800;stroke-width:2"  />
  <line x1="1000" y1="800" x2="700" y2="800" style="stroke:#800;stroke-width:10;stroke-opacity:1.000000;stroke-linecap:round"/>
  <g transform="translate(807,794) rotate(0)" > <text font-size="100.0" fill="#800" font-family="monospace"  >
   3
  </text> </g> 
  <g transform="translate(480,840) rotate(0)" > <text font-size="100.0" fill="#088" font-family="monospace"  >
   PC0
  </text> </g> 
  <circle cx="1000" cy="800" r="10"
    style="fill:none;stroke:#800;stroke-width:2"  />
  <line x1="1000" y1="900" x2="700" y2="900" style="stroke:#800;stroke-width:10;stroke-opacity:1.000000;stroke-linecap:round"/>
  <g transform="translate(807,894) rotate(0)" > <text font-size="100.0" fill="#800" font-family="monospace"  >
   4
  </text> </g> 
  <g transform="translate(480,940) rotate(0)" > <text font-size="100.0" fill="#088" font-family="monospace"  >
   PC1
  </text> </g> 
  <circle cx="1000" cy="900" r="10"
    style="fill:none;stroke:#800;stroke-width:2"  />
  <line x1="1000" y1="1000" x2="700" y2="1000" style="stroke:#800;stroke-width:10;stroke-opacity:1.000000;stroke-linecap:round"/>
  <g transform="translate(807,994) rotate(0)" > <text font-size="100.0" fill="#800" font-family="monospace"  >
   5
  </text> </g> 
  <g transform="translate(480,1040) rotate(0)" > <text font-size="100.0" fill="#088" font-family="monospace"  >
   PC2
  </text> </g> 
  <circle cx="1000" cy="1000" r="10"
    style="fill:none;stroke:#800;stroke-width:2"  />
  <line x1="1000" y1="1100" x2="700" y2="1100" style="stroke:#800;stroke-width:10;stroke-opacity:1.000000;stroke-linecap:round"/>
  <g transform="translate(807,1094) rotate(0)" > <text font-size="100.0" fill="#800" font-family="monospace"  >
   6
  </text> </g> 
  <g transform="translate(480,1140) rotate(0)" > <text font-size="100.0" fill="#088" font-family="monospace"  >
   PC3
  </text> </g> 
  <circle cx="1000" cy="1100" r="10"
    style="fill:none;stroke:#800;stroke-width:2"  />
  <line x1="1000" y1="1200" x2="700" y2="1200" style="stroke:#800;stroke-width:10;stroke-opacity:1.000000;stroke-linecap:round"/>
  <g transform="translate(807,1194) rotate(0)" > <text font-size="100.0" fill="#800" font-family="monospace"  >
   7
  </text> </g> 
  <g transform="translate(480,1240) rotate(0)" > <text font-size="100.0" fill="#088" font-family="monospace"  >
   PC4
  </text> </g> 
  <circle cx="1000" cy="1200" r="10"
    style="fill:none;stroke:#800;stroke-width:2"  />
  <line x1="1000" y1="1300" x2="700" y2="1300" style="stroke:#800;stroke-width:10;stroke-opacity:1.000000;stroke-linecap:round"/>
  <g transform="translate(807,1294) rotate(0)" > <text font-size="100.0" fill="#800" font-family="monospace"  >
   8
  </text> </g> 
  <g transform="translate(480,1340) rotate(0)" > <text font-size="100.0" fill="#088" font-family="monospace"  >
   PC5
  </text> </g> 
  <circle cx="1000" cy="1300" r="10"
    style="fill:none;stroke:#800;stroke-width:2"  />
  <line x1="1000" y1="1400" x2="700" y2="1400" style="stroke:#800;stroke-width:10;stroke-opacity:1.000000;stroke-linecap:round"/>
  <g transform="translate(807,1394) rotate(0)" > <text font-size="100.0" fill="#800" font-family="monospace"  >
   9
  </text> </g> 
  <g transform="translate(480,1440) rotate(0)" > <text font-size="100.0" fill="#088" font-family="monospace"  >
   PC6
  </text> </g> 
  <circle cx="1000" cy="1400" r="10"
    style="fill:none;stroke:#800;stroke-width:2"  />
  <line x1="1000" y1="1500" x2="700" y2="1500" style="stroke:#800;stroke-width:10;stroke-opacity:1.000000;stroke-linecap:round"/>
  <g transform="translate(765,1494) rotate(0)" > <text font-size="100.0" fill="#800" font-family="monospace"  >
   10
  </text> </g> 
  <g transform="translate(480,1540) rotate(0)" > <text font-size="100.0" fill="#088" font-family="monospace"  >
   PC7
  </text> </g> 
  <circle cx="1000" cy="1500" r="10"
    style="fill:none;stroke:#800;stroke-width:2"  />
  <line x1="-1000" y1="-1200" x2="-700" y2="-1200" style="stroke:#800;stroke-width:10;stroke-opacity:1.000000;stroke-linecap:round"/>
  <g transform="translate(-935,-1206) rotate(0)" > <text font-size="100.0" fill="#800" font-family="monospace"  >
   20
  </text> </g> 
  <g transform="translate(-682,-1160) rotate(0)" > <text font-size="100.0" fill="#088" font-family="monospace"  >
   PD4
  </text> </g> 
  <circle cx="-1000" cy="-1200" r="10"
    style="fill:none;stroke:#800;stroke-width:2"  />
  <line x1="1000" y1="-1500" x2="700" y2="-1500" style="stroke:#800;stroke-width:10;stroke-opacity:1.000000;stroke-linecap:round"/>
  <g transform="translate(765,-1506) rotate(0)" > <text font-size="100.0" fill="#800" font-family="monospace"  >
   30
  </text> </g> 
  <g transform="translate(240,-1460) rotate(0)" > <text font-size="100.0" fill="#088" font-family="monospace"  >
   IC3/PA0
  </text> </g> 
  <circle cx="1000" cy="-1500" r="10"
    style="fill:none;stroke:#800;stroke-width:2"  />
  <line x1="-1000" y1="1400" x2="-700" y2="1400" style="stroke:#800;stroke-width:10;stroke-opacity:1.000000;stroke-linecap:round"/>
  <g transform="translate(-935,1394) rotate(0)" > <text font-size="100.0" fill="#800" font-family="monospace"  >
   40
  </text> </g> 
  <g transform="translate(-682,1440) rotate(0)" > <text font-size="100.0" fill="#088" font-family="monospace"  >
   MODB
  </text> </g> 
  <circle cx="-1000" cy="1400" r="10"
    style="fill:none;stroke:#800;stroke-width:2"  />
  <line x1="-1000" y1="-100" x2="-770" y2="-100" style="stroke:#800;stroke-width:10;stroke-opacity:1.000000;stroke-linecap:round"/>
  <circle cx="-735" cy="-100" r="35"
    style="fill:none;stroke:#800;stroke-width:10"  />
  <g transform="translate(-935,-106) rotate(0)" > <text font-size="100.0" fill="#800" font-family="monospace"  >
   11
  </text> </g> 
  <g transform="translate(-682,-60) rotate(0)" > <text font-size="100.0" fill="#088" font-family="monospace"  >
   XIRQ/VPP
  </text> </g> 
  <circle cx="-1000" cy="-100" r="10"
    style="fill:none;stroke:#800;stroke-width:2"  />
  <line x1="-1000" y1="-1100" x2="-700" y2="-1100" style="stroke:#800;stroke-width:10;stroke-opacity:1.000000;stroke-linecap:round"/>
  <g transform="translate(-935,-1106) rotate(0)" > <text font-size="100.0" fill="#800" font-family="monospace"  >
   21
  </text> </g> 
  <g transform="translate(-682,-1060) rotate(0)" > <text font-size="100.0" fill="#088" font-family="monospace"  >
   PD5
  </text> </g> 
  <circle cx="-1000" cy="-1100" r="10"
    style="fill:none;stroke:#800;stroke-width:2"  />
  <line x1="-1000" y1="1300" x2="-700" y2="1300" style="stroke:#800;stroke-width:10;stroke-opacity:1.000000;stroke-linecap:round"/>
  <g transform="translate(-935,1294) rotate(0)" > <text font-size="100.0" fill="#800" font-family="monospace"  >
   41
  </text> </g> 
  <g transform="translate(-682,1340) rotate(0)" > <text font-size="100.0" fill="#088" font-family="monospace"  >
   MODA
  </text> </g> 
  <circle cx="-1000" cy="1300" r="10"
    style="fill:none;stroke:#800;stroke-width:2"  />
  <line x1="-1000" y1="-900" x2="-700" y2="-900" style="stroke:#800;stroke-width:10;stroke-opacity:1.000000;stroke-linecap:round"/>
  <g transform="translate(-935,-906) rotate(0)" > <text font-size="100.0" fill="#800" font-family="monospace"  >
   12
  </text> </g> 
  <g transform="translate(-682,-860) rotate(0)" > <text font-size="100.0" fill="#088" font-family="monospace"  >
   PD7-R/W
  </text> </g> 
  <circle cx="-1000" cy="-900" r="10"
    style="fill:none;stroke:#800;stroke-width:2"  />
  <line x1="0" y1="-2000" x2="0" y2="-1700" style="stroke:#800;stroke-width:10;stroke-opacity:1.000000;stroke-linecap:round"/>
  <g transform="translate(-15,-1820) rotate(-90)" > <text font-size="100.0" fill="#800" font-family="monospace"  >
   22
  </text> </g> 
  <g transform="translate(7,-1470) rotate(-90)" > <text font-size="100.0" fill="#088" font-family="monospace"  >
   VDD
  </text> </g> 
  <circle cx="0" cy="-2000" r="10"
    style="fill:none;stroke:#800;stroke-width:2"  />
  <line x1="1000" y1="400" x2="700" y2="400" style="stroke:#800;stroke-width:10;stroke-opacity:1.000000;stroke-linecap:round"/>
  <g transform="translate(765,394) rotate(0)" > <text font-size="100.0" fill="#800" font-family="monospace"  >
   32
  </text> </g> 
  <g transform="translate(300,440) rotate(0)" > <text font-size="100.0" fill="#088" font-family="monospace"  >
   PB7/OE
  </text> </g> 
  <circle cx="1000" cy="400" r="10"
    style="fill:none;stroke:#800;stroke-width:2"  />
  <line x1="-1000" y1="1000" x2="-700" y2="1000" style="stroke:#800;stroke-width:10;stroke-opacity:1.000000;stroke-linecap:round"/>
  <g transform="translate(-935,994) rotate(0)" > <text font-size="100.0" fill="#800" font-family="monospace"  >
   42
  </text> </g> 
  <g transform="translate(-682,1040) rotate(0)" > <text font-size="100.0" fill="#088" font-family="monospace"  >
   E
  </text> </g> 
  <circle cx="-1000" cy="1000" r="10"
    style="fill:none;stroke:#800;stroke-width:2"  />
  <line x1="-1000" y1="-1000" x2="-700" y2="-1000" style="stroke:#800;stroke-width:10;stroke-opacity:1.000000;stroke-linecap:round"/>
  <g transform="translate(-935,-1006) rotate(0)" > <text font-size="100.0" fill="#800" font-family="monospace"  >
   13
  </text> </g> 
  <g transform="translate(-682,-960) rotate(0)" > <text font-size="100.0" fill="#088" font-family="monospace"  >
   PD6-AS
  </text> </g> 
  <circle cx="-1000" cy="-1000" r="10"
    style="fill:none;stroke:#800;stroke-width:2"  />
  <line x1="1000" y1="-800" x2="700" y2="-800" style="stroke:#800;stroke-width:10;stroke-opacity:1.000000;stroke-linecap:round"/>
  <g transform="translate(765,-806) rotate(0)" > <text font-size="100.0" fill="#800" font-family="monospace"  >
   23
  </text> </g> 
  <g transform="translate(240,-760) rotate(0)" > <text font-size="100.0" fill="#088" font-family="monospace"  >
   PA1/PA7
  </text> </g> 
  <circle cx="1000" cy="-800" r="10"
    style="fill:none;stroke:#800;stroke-width:2"  />
  <line x1="1000" y1="300" x2="700" y2="300" style="stroke:#800;stroke-width:10;stroke-opacity:1.000000;stroke-linecap:round"/>
  <g transform="translate(765,294) rotate(0)" > <text font-size="100.0" fill="#800" font-family="monospace"  >
   33
  </text> </g> 
  <g transform="translate(480,340) rotate(0)" > <text font-size="100.0" fill="#088" font-family="monospace"  >
   PB6
  </text> </g> 
  <circle cx="1000" cy="300" r="10"
    style="fill:none;stroke:#800;stroke-width:2"  />
  <line x1="-1000" y1="600" x2="-700" y2="600" style="stroke:#800;stroke-width:10;stroke-opacity:1.000000;stroke-linecap:round"/>
  <g transform="translate(-935,594) rotate(0)" > <text font-size="100.0" fill="#800" font-family="monospace"  >
   43
  </text> </g> 
  <g transform="translate(-682,640) rotate(0)" > <text font-size="100.0" fill="#088" font-family="monospace"  >
   EXTAL
  </text> </g> 
  <circle cx="-1000" cy="600" r="10"
    style="fill:none;stroke:#800;stroke-width:2"  />
  <line x1="-1000" y1="0" x2="-770" y2="0" style="stroke:#800;stroke-width:10;stroke-opacity:1.000000;stroke-linecap:round"/>
  <circle cx="-735" cy="0" r="35"
    style="fill:none;stroke:#800;stroke-width:10"  />
  <g transform="translate(-935,-6) rotate(0)" > <text font-size="100.0" fill="#800" font-family="monospace"  >
   14
  </text> </g> 
  <g transform="translate(-682,40) rotate(0)" > <text font-size="100.0" fill="#088" font-family="monospace"  >
   RESET
  </text> </g> 
  <circle cx="-1000" cy="0" r="10"
    style="fill:none;stroke:#800;stroke-width:2"  />
  <line x1="1000" y1="-900" x2="700" y2="-900" style="stroke:#800;stroke-width:10;stroke-opacity:1.000000;stroke-linecap:round"/>
  <g transform="translate(765,-906) rotate(0)" > <text font-size="100.0" fill="#800" font-family="monospace"  >
   24
  </text> </g> 
  <g transform="translate(240,-860) rotate(0)" > <text font-size="100.0" fill="#088" font-family="monospace"  >
   OC2/PA6
  </text> </g> 
  <circle cx="1000" cy="-900" r="10"
    style="fill:none;stroke:#800;stroke-width:2"  />
  <line x1="1000" y1="200" x2="700" y2="200" style="stroke:#800;stroke-width:10;stroke-opacity:1.000000;stroke-linecap:round"/>
  <g transform="translate(765,194) rotate(0)" > <text font-size="100.0" fill="#800" font-family="monospace"  >
   34
  </text> </g> 
  <g transform="translate(480,240) rotate(0)" > <text font-size="100.0" fill="#088" font-family="monospace"  >
   PB5
  </text> </g> 
  <circle cx="1000" cy="200" r="10"
    style="fill:none;stroke:#800;stroke-width:2"  />
  <line x1="-1000" y1="300" x2="-700" y2="300" style="stroke:#800;stroke-width:10;stroke-opacity:1.000000;stroke-linecap:round"/>
  <g transform="translate(-935,294) rotate(0)" > <text font-size="100.0" fill="#800" font-family="monospace"  >
   44
  </text> </g> 
  <g transform="translate(-682,340) rotate(0)" > <text font-size="100.0" fill="#088" font-family="monospace"  >
   XTAL
  </text> </g> 
  <circle cx="-1000" cy="300" r="10"
    style="fill:none;stroke:#800;stroke-width:2"  />
  <line x1="-1000" y1="-200" x2="-770" y2="-200" style="stroke:#800;stroke-width:10;stroke-opacity:1.000000;stroke-linecap:round"/>
  <circle cx="-735" cy="-200" r="35"
    style="fill:none;stroke:#800;stroke-width:10"  />
  <g transform="translate(-935,-206) rotate(0)" > <text font-size="100.0" fill="#800" font-family="monospace"  >
   15
  </text> </g> 
  <g transform="translate(-682,-160) rotate(0)" > <text font-size="100.0" fill="#088" font-family="monospace"  >
   IRQ/CE
  </text> </g> 
  <circle cx="-1000" cy="-200" r="10"
    style="fill:none;stroke:#800;stroke-width:2"  />
  <line x1="1000" y1="-1000" x2="700" y2="-1000" style="stroke:#800;stroke-width:10;stroke-opacity:1.000000;stroke-linecap:round"/>
  <g transform="translate(765,-1006) rotate(0)" > <text font-size="100.0" fill="#800" font-family="monospace"  >
   25
  </text> </g> 
  <g transform="translate(240,-960) rotate(0)" > <text font-size="100.0" fill="#088" font-family="monospace"  >
   OC3/PA5
  </text> </g> 
  <circle cx="1000" cy="-1000" r="10"
    style="fill:none;stroke:#800;stroke-width:2"  />
  <line x1="1000" y1="100" x2="700" y2="100" style="stroke:#800;stroke-width:10;stroke-opacity:1.000000;stroke-linecap:round"/>
  <g transform="translate(765,94) rotate(0)" > <text font-size="100.0" fill="#800" font-family="monospace"  >
   35
  </text> </g> 
  <g transform="translate(480,140) rotate(0)" > <text font-size="100.0" fill="#088" font-family="monospace"  >
   PB4
  </text> </g> 
  <circle cx="1000" cy="100" r="10"
    style="fill:none;stroke:#800;stroke-width:2"  />
  <line x1="-1000" y1="-1600" x2="-700" y2="-1600" style="stroke:#800;stroke-width:10;stroke-opacity:1.000000;stroke-linecap:round"/>
  <g transform="translate(-935,-1606) rotate(0)" > <text font-size="100.0" fill="#800" font-family="monospace"  >
   16
  </text> </g> 
  <g transform="translate(-682,-1560) rotate(0)" > <text font-size="100.0" fill="#088" font-family="monospace"  >
   PD0/RX
  </text> </g> 
  <circle cx="-1000" cy="-1600" r="10"
    style="fill:none;stroke:#800;stroke-width:2"  />
  <line x1="1000" y1="-1100" x2="700" y2="-1100" style="stroke:#800;stroke-width:10;stroke-opacity:1.000000;stroke-linecap:round"/>
  <g transform="translate(765,-1106) rotate(0)" > <text font-size="100.0" fill="#800" font-family="monospace"  >
   26
  </text> </g> 
  <g transform="translate(240,-1060) rotate(0)" > <text font-size="100.0" fill="#088" font-family="monospace"  >
   OC4/PA4
  </text> </g> 
  <circle cx="1000" cy="-1100" r="10"
    style="fill:none;stroke:#800;stroke-width:2"  />
  <line x1="1000" y1="0" x2="700" y2="0" style="stroke:#800;stroke-width:10;stroke-opacity:1.000000;stroke-linecap:round"/>
  <g transform="translate(765,-6) rotate(0)" > <text font-size="100.0" fill="#800" font-family="monospace"  >
   36
  </text> </g> 
  <g transform="translate(480,40) rotate(0)" > <text font-size="100.0" fill="#088" font-family="monospace"  >
   PB3
  </text> </g> 
  <circle cx="1000" cy="0" r="10"
    style="fill:none;stroke:#800;stroke-width:2"  />
  <line x1="-1000" y1="-1500" x2="-700" y2="-1500" style="stroke:#800;stroke-width:10;stroke-opacity:1.000000;stroke-linecap:round"/>
  <g transform="translate(-935,-1506) rotate(0)" > <text font-size="100.0" fill="#800" font-family="monospace"  >
   17
  </text> </g> 
  <g transform="translate(-682,-1460) rotate(0)" > <text font-size="100.0" fill="#088" font-family="monospace"  >
   PD1/TX
  </text> </g> 
  <circle cx="-1000" cy="-1500" r="10"
    style="fill:none;stroke:#800;stroke-width:2"  />
  <line x1="1000" y1="-1200" x2="700" y2="-1200" style="stroke:#800;stroke-width:10;stroke-opacity:1.000000;stroke-linecap:round"/>
  <g transform="translate(765,-1206) rotate(0)" > <text font-size="100.0" fill="#800" font-family="monospace"  >
   27
  </text> </g> 
  <g transform="translate(240,-1160) rotate(0)" > <text font-size="100.0" fill="#088" font-family="monospace"  >
   OC5/PA3
  </text> </g> 
  <circle cx="1000" cy="-1200" r="10"
    style="fill:none;stroke:#800;stroke-width:2"  />
  <line x1="1000" y1="-100" x2="700" y2="-100" style="stroke:#800;stroke-width:10;stroke-opacity:1.000000;stroke-linecap:round"/>
  <g transform="translate(765,-106) rotate(0)" > <text font-size="100.0" fill="#800" font-family="monospace"  >
   37
  </text> </g> 
  <g transform="translate(480,-60) rotate(0)" > <text font-size="100.0" fill="#088" font-family="monospace"  >
   PB2
  </text> </g> 
  <circle cx="1000" cy="-100" r="10"
    style="fill:none;stroke:#800;stroke-width:2"  />
  <line x1="-1000" y1="-1400" x2="-700" y2="-1400" style="stroke:#800;stroke-width:10;stroke-opacity:1.000000;stroke-linecap:round"/>
  <g transform="translate(-935,-1406) rotate(0)" > <text font-size="100.0" fill="#800" font-family="monospace"  >
   18
  </text> </g> 
  <g transform="translate(-682,-1360) rotate(0)" > <text font-size="100.0" fill="#088" font-family="monospace"  >
   PD2
  </text> </g> 
  <circle cx="-1000" cy="-1400" r="10"
    style="fill:none;stroke:#800;stroke-width:2"  />
  <line x1="1000" y1="-1300" x2="700" y2="-1300" style="stroke:#800;stroke-width:10;stroke-opacity:1.000000;stroke-linecap:round"/>
  <g transform="translate(765,-1306) rotate(0)" > <text font-size="100.0" fill="#800" font-family="monospace"  >
   28
  </text> </g> 
  <g transform="translate(240,-1260) rotate(0)" > <text font-size="100.0" fill="#088" font-family="monospace"  >
   IC1/PA2
  </text> </g> 
  <circle cx="1000" cy="-1300" r="10"
    style="fill:none;stroke:#800;stroke-width:2"  />
  <line x1="1000" y1="-200" x2="700" y2="-200" style="stroke:#800;stroke-width:10;stroke-opacity:1.000000;stroke-linecap:round"/>
  <g transform="translate(765,-206) rotate(0)" > <text font-size="100.0" fill="#800" font-family="monospace"  >
   38
  </text> </g> 
  <g transform="translate(480,-160) rotate(0)" > <text font-size="100.0" fill="#088" font-family="monospace"  >
   PB1
  </text> </g> 
  <circle cx="1000" cy="-200" r="10"
    style="fill:none;stroke:#800;stroke-width:2"  />
  <line x1="-1000" y1="-1300" x2="-700" y2="-1300" style="stroke:#800;stroke-width:10;stroke-opacity:1.000000;stroke-linecap:round"/>
  <g transform="translate(-935,-1306) rotate(0)" > <text font-size="100.0" fill="#800" font-family="monospace"  >
   19
  </text> </g> 
  <g transform="translate(-682,-1260) rotate(0)" > <text font-size="100.0" fill="#088" font-family="monospace"  >
   PD3
  </text> </g> 
  <circle cx="-1000" cy="-1300" r="10"
    style="fill:none;stroke:#800;stroke-width:2"  />
  <line x1="1000" y1="-1400" x2="700" y2="-1400" style="stroke:#800;stroke-width:10;stroke-opacity:1.000000;stroke-linecap:round"/>
  <g transform="translate(765,-1406) rotate(0)" > <text font-size="100.0" fill="#800" font-family="monospace"  >
   29
  </text> </g> 
  <g transform="translate(240,-1360) rotate(0)" > <text font-size="100.0" fill="#088" font-family="monospace"  >
   IC2/PA1
  </text> </g> 
  <circle cx="1000" cy="-1400" r="10"
    style="fill:none;stroke:#800;stroke-width:2"  />
  <line x1="1000" y1="-300" x2="700" y2="-300" style="stroke:#800;stroke-width:10;stroke-opacity:1.000000;stroke-linecap:round"/>
  <g transform="translate(765,-306) rotate(0)" > <text font-size="100.0" fill="#800" font-family="monospace"  >
   39
  </text> </g> 
  <g transform="translate(480,-260) rotate(0)" > <text font-size="100.0" fill="#088" font-family="monospace"  >
   PB0
  </text> </g> 
  <circle cx="1000" cy="-300" r="10"
    style="fill:none;stroke:#800;stroke-width:2"  />
 </g>
</svg>
