<?xml version="1.0"?>
<svg height="1150" width="1150"  >
 <g style="fill-opacity:1.0; stroke:black;
  stroke-width:1;" transform=" translate( 575.0,575.0 ) scale( 0.15,0.15 )">
  <g transform="translate(670,-1920) rotate(0)" > <text font-size="100.0" fill="#088" font-family="monospace"  >
   U
  </text> </g> 
  <g transform="translate(180,1980) rotate(0)" > <text font-size="100.0" fill="#088" font-family="monospace"  >
   MCF5212-LQFP64
  </text> </g> 
  <rect x="-1300" y="-1850" height="3700"
    width="2600" style="fill:none;stroke:#800;stroke-width:10" />
  <line x1="-250" y1="-2100" x2="-250" y2="-1850" style="stroke:#800;stroke-width:10;stroke-opacity:1.000000;stroke-linecap:round"/>
  <g transform="translate(-257,-1967) rotate(-90)" > <text font-size="50.0" fill="#800" font-family="monospace"  >
   1
  </text> </g> 
  <g transform="translate(-246,-1735) rotate(-90)" > <text font-size="50.0" fill="#088" font-family="monospace"  >
   VCC
  </text> </g> 
  <circle cx="-250" cy="-2100" r="10"
    style="fill:none;stroke:#800;stroke-width:2"  />
  <line x1="1600" y1="400" x2="1300" y2="400" style="stroke:#800;stroke-width:10;stroke-opacity:1.000000;stroke-linecap:round"/>
  <g transform="translate(1414,394) rotate(0)" > <text font-size="83.3333333333" fill="#800" font-family="monospace"  >
   2
  </text> </g> 
  <g transform="translate(59,435) rotate(0)" > <text font-size="83.3333333333" fill="#088" font-family="monospace"  >
   ~URTS1~/SYNCB/UTXD2/PUB2
  </text> </g> 
  <circle cx="1600" cy="400" r="10"
    style="fill:none;stroke:#800;stroke-width:2"  />
  <line x1="-1600" y1="-850" x2="-1300" y2="-850" style="stroke:#800;stroke-width:10;stroke-opacity:1.000000;stroke-linecap:round"/>
  <g transform="translate(-1485,-856) rotate(0)" > <text font-size="83.3333333333" fill="#800" font-family="monospace"  >
   3
  </text> </g> 
  <g transform="translate(-1282,-815) rotate(0)" > <text font-size="83.3333333333" fill="#088" font-family="monospace"  >
   TEST
  </text> </g> 
  <circle cx="-1600" cy="-850" r="10"
    style="fill:none;stroke:#800;stroke-width:2"  />
  <line x1="1600" y1="300" x2="1300" y2="300" style="stroke:#800;stroke-width:10;stroke-opacity:1.000000;stroke-linecap:round"/>
  <g transform="translate(1414,294) rotate(0)" > <text font-size="83.3333333333" fill="#800" font-family="monospace"  >
   4
  </text> </g> 
  <g transform="translate(309,335) rotate(0)" > <text font-size="83.3333333333" fill="#088" font-family="monospace"  >
   ~UCTS0~/CANRTX/PUA3
  </text> </g> 
  <circle cx="1600" cy="300" r="10"
    style="fill:none;stroke:#800;stroke-width:2"  />
  <line x1="1600" y1="-250" x2="1300" y2="-250" style="stroke:#800;stroke-width:10;stroke-opacity:1.000000;stroke-linecap:round"/>
  <g transform="translate(1414,-256) rotate(0)" > <text font-size="83.3333333333" fill="#800" font-family="monospace"  >
   5
  </text> </g> 
  <g transform="translate(760,-215) rotate(0)" > <text font-size="83.3333333333" fill="#088" font-family="monospace"  >
   URXD0/PUA1
  </text> </g> 
  <circle cx="1600" cy="-250" r="10"
    style="fill:none;stroke:#800;stroke-width:2"  />
  <line x1="1600" y1="-350" x2="1300" y2="-350" style="stroke:#800;stroke-width:10;stroke-opacity:1.000000;stroke-linecap:round"/>
  <g transform="translate(1414,-356) rotate(0)" > <text font-size="83.3333333333" fill="#800" font-family="monospace"  >
   6
  </text> </g> 
  <g transform="translate(760,-315) rotate(0)" > <text font-size="83.3333333333" fill="#088" font-family="monospace"  >
   UTXD0/PUA0
  </text> </g> 
  <circle cx="1600" cy="-350" r="10"
    style="fill:none;stroke:#800;stroke-width:2"  />
  <line x1="1600" y1="200" x2="1300" y2="200" style="stroke:#800;stroke-width:10;stroke-opacity:1.000000;stroke-linecap:round"/>
  <g transform="translate(1414,194) rotate(0)" > <text font-size="83.3333333333" fill="#800" font-family="monospace"  >
   7
  </text> </g> 
  <g transform="translate(359,235) rotate(0)" > <text font-size="83.3333333333" fill="#088" font-family="monospace"  >
   ~URTS0~/CANTX/PUA2
  </text> </g> 
  <circle cx="1600" cy="200" r="10"
    style="fill:none;stroke:#800;stroke-width:2"  />
  <line x1="1600" y1="-650" x2="1300" y2="-650" style="stroke:#800;stroke-width:10;stroke-opacity:1.000000;stroke-linecap:round"/>
  <g transform="translate(1414,-656) rotate(0)" > <text font-size="83.3333333333" fill="#800" font-family="monospace"  >
   8
  </text> </g> 
  <g transform="translate(559,-615) rotate(0)" > <text font-size="83.3333333333" fill="#088" font-family="monospace"  >
   SCL/PAS0/UTxD2
  </text> </g> 
  <circle cx="1600" cy="-650" r="10"
    style="fill:none;stroke:#800;stroke-width:2"  />
  <line x1="1600" y1="-550" x2="1300" y2="-550" style="stroke:#800;stroke-width:10;stroke-opacity:1.000000;stroke-linecap:round"/>
  <g transform="translate(1414,-556) rotate(0)" > <text font-size="83.3333333333" fill="#800" font-family="monospace"  >
   9
  </text> </g> 
  <g transform="translate(559,-515) rotate(0)" > <text font-size="83.3333333333" fill="#088" font-family="monospace"  >
   SDA/PAS1/URxD2
  </text> </g> 
  <circle cx="1600" cy="-550" r="10"
    style="fill:none;stroke:#800;stroke-width:2"  />
  <line x1="-150" y1="-2100" x2="-150" y2="-1850" style="stroke:#800;stroke-width:10;stroke-opacity:1.000000;stroke-linecap:round"/>
  <g transform="translate(-157,-1960) rotate(-90)" > <text font-size="50.0" fill="#800" font-family="monospace"  >
   10
  </text> </g> 
  <g transform="translate(-146,-1735) rotate(-90)" > <text font-size="50.0" fill="#088" font-family="monospace"  >
   VCC
  </text> </g> 
  <circle cx="-150" cy="-2100" r="10"
    style="fill:none;stroke:#800;stroke-width:2"  />
  <line x1="-50" y1="-2100" x2="-50" y2="-1850" style="stroke:#800;stroke-width:10;stroke-opacity:1.000000;stroke-linecap:round"/>
  <g transform="translate(-57,-1960) rotate(-90)" > <text font-size="50.0" fill="#800" font-family="monospace"  >
   20
  </text> </g> 
  <g transform="translate(-46,-1735) rotate(-90)" > <text font-size="50.0" fill="#088" font-family="monospace"  >
   VCC
  </text> </g> 
  <circle cx="-50" cy="-2100" r="10"
    style="fill:none;stroke:#800;stroke-width:2"  />
  <line x1="-1600" y1="1550" x2="-1300" y2="1550" style="stroke:#800;stroke-width:10;stroke-opacity:1.000000;stroke-linecap:round"/>
  <g transform="translate(-1520,1544) rotate(0)" > <text font-size="83.3333333333" fill="#800" font-family="monospace"  >
   30
  </text> </g> 
  <g transform="translate(-1282,1585) rotate(0)" > <text font-size="83.3333333333" fill="#088" font-family="monospace"  >
   VRL
  </text> </g> 
  <circle cx="-1600" cy="1550" r="10"
    style="fill:none;stroke:#800;stroke-width:2"  />
  <line x1="1600" y1="-1600" x2="1300" y2="-1600" style="stroke:#800;stroke-width:10;stroke-opacity:1.000000;stroke-linecap:round"/>
  <g transform="translate(1379,-1606) rotate(0)" > <text font-size="83.3333333333" fill="#800" font-family="monospace"  >
   40
  </text> </g> 
  <g transform="translate(559,-1565) rotate(0)" > <text font-size="83.3333333333" fill="#088" font-family="monospace"  >
   GPT0/PWM1/PTA0
  </text> </g> 
  <circle cx="1600" cy="-1600" r="10"
    style="fill:none;stroke:#800;stroke-width:2"  />
  <line x1="-1600" y1="-550" x2="-1300" y2="-550" style="stroke:#800;stroke-width:10;stroke-opacity:1.000000;stroke-linecap:round"/>
  <g transform="translate(-1520,-556) rotate(0)" > <text font-size="83.3333333333" fill="#800" font-family="monospace"  >
   50
  </text> </g> 
  <g transform="translate(-1282,-515) rotate(0)" > <text font-size="83.3333333333" fill="#088" font-family="monospace"  >
   DSI/TDI
  </text> </g> 
  <circle cx="-1600" cy="-550" r="10"
    style="fill:none;stroke:#800;stroke-width:2"  />
  <line x1="-1380" y1="-1150" x2="-1300" y2="-1190" style="stroke:#800;stroke-width:10;stroke-opacity:1.000000;stroke-linecap:round"/>
  <line x1="-1300" y1="-1190" x2="-1300" y2="-1150" style="stroke:#800;stroke-width:10;stroke-opacity:1.000000;stroke-linecap:round"/>
  <line x1="-1600" y1="-1150" x2="-1300" y2="-1150" style="stroke:#800;stroke-width:10;stroke-opacity:1.000000;stroke-linecap:round"/>
  <g transform="translate(-1520,-1156) rotate(0)" > <text font-size="83.3333333333" fill="#800" font-family="monospace"  >
   60
  </text> </g> 
  <g transform="translate(-1282,-1115) rotate(0)" > <text font-size="83.3333333333" fill="#088" font-family="monospace"  >
   RSTO
  </text> </g> 
  <circle cx="-1600" cy="-1150" r="10"
    style="fill:none;stroke:#800;stroke-width:2"  />
  <line x1="-200" y1="2100" x2="-200" y2="1850" style="stroke:#800;stroke-width:10;stroke-opacity:1.000000;stroke-linecap:round"/>
  <g transform="translate(-207,1990) rotate(-90)" > <text font-size="50.0" fill="#800" font-family="monospace"  >
   11
  </text> </g> 
  <g transform="translate(-196,1825) rotate(-90)" > <text font-size="50.0" fill="#088" font-family="monospace"  >
   GND
  </text> </g> 
  <circle cx="-200" cy="2100" r="10"
    style="fill:none;stroke:#800;stroke-width:2"  />
  <line x1="-100" y1="2100" x2="-100" y2="1850" style="stroke:#800;stroke-width:10;stroke-opacity:1.000000;stroke-linecap:round"/>
  <g transform="translate(-107,1990) rotate(-90)" > <text font-size="50.0" fill="#800" font-family="monospace"  >
   21
  </text> </g> 
  <g transform="translate(-96,1825) rotate(-90)" > <text font-size="50.0" fill="#088" font-family="monospace"  >
   GND
  </text> </g> 
  <circle cx="-100" cy="2100" r="10"
    style="fill:none;stroke:#800;stroke-width:2"  />
  <line x1="-1600" y1="1450" x2="-1300" y2="1450" style="stroke:#800;stroke-width:10;stroke-opacity:1.000000;stroke-linecap:round"/>
  <g transform="translate(-1520,1444) rotate(0)" > <text font-size="83.3333333333" fill="#800" font-family="monospace"  >
   31
  </text> </g> 
  <g transform="translate(-1282,1485) rotate(0)" > <text font-size="83.3333333333" fill="#088" font-family="monospace"  >
   VRH
  </text> </g> 
  <circle cx="-1600" cy="1450" r="10"
    style="fill:none;stroke:#800;stroke-width:2"  />
  <line x1="1600" y1="-1500" x2="1300" y2="-1500" style="stroke:#800;stroke-width:10;stroke-opacity:1.000000;stroke-linecap:round"/>
  <g transform="translate(1379,-1506) rotate(0)" > <text font-size="83.3333333333" fill="#800" font-family="monospace"  >
   41
  </text> </g> 
  <g transform="translate(559,-1465) rotate(0)" > <text font-size="83.3333333333" fill="#088" font-family="monospace"  >
   GPT1/PWM3/PTA1
  </text> </g> 
  <circle cx="1600" cy="-1500" r="10"
    style="fill:none;stroke:#800;stroke-width:2"  />
  <line x1="-1600" y1="-450" x2="-1300" y2="-450" style="stroke:#800;stroke-width:10;stroke-opacity:1.000000;stroke-linecap:round"/>
  <g transform="translate(-1520,-456) rotate(0)" > <text font-size="83.3333333333" fill="#800" font-family="monospace"  >
   51
  </text> </g> 
  <g transform="translate(-1282,-415) rotate(0)" > <text font-size="83.3333333333" fill="#088" font-family="monospace"  >
   DSO/TDO
  </text> </g> 
  <circle cx="-1600" cy="-450" r="10"
    style="fill:none;stroke:#800;stroke-width:2"  />
  <line x1="1600" y1="500" x2="1300" y2="500" style="stroke:#800;stroke-width:10;stroke-opacity:1.000000;stroke-linecap:round"/>
  <g transform="translate(1379,494) rotate(0)" > <text font-size="83.3333333333" fill="#800" font-family="monospace"  >
   61
  </text> </g> 
  <g transform="translate(59,535) rotate(0)" > <text font-size="83.3333333333" fill="#088" font-family="monospace"  >
   ~UCTS1~/SYNCA/URXD2/PUB3
  </text> </g> 
  <circle cx="1600" cy="500" r="10"
    style="fill:none;stroke:#800;stroke-width:2"  />
  <line x1="1600" y1="800" x2="1300" y2="800" style="stroke:#800;stroke-width:10;stroke-opacity:1.000000;stroke-linecap:round"/>
  <g transform="translate(1379,794) rotate(0)" > <text font-size="83.3333333333" fill="#800" font-family="monospace"  >
   12
  </text> </g> 
  <g transform="translate(-190,835) rotate(0)" > <text font-size="83.3333333333" fill="#088" font-family="monospace"  >
   QSPI_DIN/EZPD/CANRX/RXD1/PQS1
  </text> </g> 
  <circle cx="1600" cy="800" r="10"
    style="fill:none;stroke:#800;stroke-width:2"  />
  <line x1="1600" y1="-1150" x2="1300" y2="-1150" style="stroke:#800;stroke-width:10;stroke-opacity:1.000000;stroke-linecap:round"/>
  <g transform="translate(1379,-1156) rotate(0)" > <text font-size="83.3333333333" fill="#800" font-family="monospace"  >
   22
  </text> </g> 
  <g transform="translate(159,-1115) rotate(0)" > <text font-size="83.3333333333" fill="#088" font-family="monospace"  >
   DTIN0/DTOUT0/PWM0/PTC0
  </text> </g> 
  <circle cx="1600" cy="-1150" r="10"
    style="fill:none;stroke:#800;stroke-width:2"  />
  <line x1="-1600" y1="1700" x2="-1300" y2="1700" style="stroke:#800;stroke-width:10;stroke-opacity:1.000000;stroke-linecap:round"/>
  <g transform="translate(-1520,1694) rotate(0)" > <text font-size="83.3333333333" fill="#800" font-family="monospace"  >
   32
  </text> </g> 
  <g transform="translate(-1282,1735) rotate(0)" > <text font-size="83.3333333333" fill="#088" font-family="monospace"  >
   VCCA
  </text> </g> 
  <circle cx="-1600" cy="1700" r="10"
    style="fill:none;stroke:#800;stroke-width:2"  />
  <line x1="1600" y1="-1400" x2="1300" y2="-1400" style="stroke:#800;stroke-width:10;stroke-opacity:1.000000;stroke-linecap:round"/>
  <g transform="translate(1379,-1406) rotate(0)" > <text font-size="83.3333333333" fill="#800" font-family="monospace"  >
   42
  </text> </g> 
  <g transform="translate(559,-1365) rotate(0)" > <text font-size="83.3333333333" fill="#088" font-family="monospace"  >
   GPT2PWM5//PTA2
  </text> </g> 
  <circle cx="1600" cy="-1400" r="10"
    style="fill:none;stroke:#800;stroke-width:2"  />
  <line x1="150" y1="-2100" x2="150" y2="-1850" style="stroke:#800;stroke-width:10;stroke-opacity:1.000000;stroke-linecap:round"/>
  <g transform="translate(142,-1960) rotate(-90)" > <text font-size="50.0" fill="#800" font-family="monospace"  >
   52
  </text> </g> 
  <g transform="translate(153,-1735) rotate(-90)" > <text font-size="50.0" fill="#088" font-family="monospace"  >
   VCC
  </text> </g> 
  <circle cx="150" cy="-2100" r="10"
    style="fill:none;stroke:#800;stroke-width:2"  />
  <line x1="1600" y1="-150" x2="1300" y2="-150" style="stroke:#800;stroke-width:10;stroke-opacity:1.000000;stroke-linecap:round"/>
  <g transform="translate(1379,-156) rotate(0)" > <text font-size="83.3333333333" fill="#800" font-family="monospace"  >
   62
  </text> </g> 
  <g transform="translate(760,-115) rotate(0)" > <text font-size="83.3333333333" fill="#088" font-family="monospace"  >
   UTXD1/PUB0
  </text> </g> 
  <circle cx="1600" cy="-150" r="10"
    style="fill:none;stroke:#800;stroke-width:2"  />
  <line x1="1600" y1="700" x2="1300" y2="700" style="stroke:#800;stroke-width:10;stroke-opacity:1.000000;stroke-linecap:round"/>
  <g transform="translate(1379,694) rotate(0)" > <text font-size="83.3333333333" fill="#800" font-family="monospace"  >
   13
  </text> </g> 
  <g transform="translate(-240,735) rotate(0)" > <text font-size="83.3333333333" fill="#088" font-family="monospace"  >
   QSPI_DOUT/EZPQ/CANTX/RXD0/PQS0
  </text> </g> 
  <circle cx="1600" cy="700" r="10"
    style="fill:none;stroke:#800;stroke-width:2"  />
  <line x1="1600" y1="-1050" x2="1300" y2="-1050" style="stroke:#800;stroke-width:10;stroke-opacity:1.000000;stroke-linecap:round"/>
  <g transform="translate(1379,-1056) rotate(0)" > <text font-size="83.3333333333" fill="#800" font-family="monospace"  >
   23
  </text> </g> 
  <g transform="translate(159,-1015) rotate(0)" > <text font-size="83.3333333333" fill="#088" font-family="monospace"  >
   DTIN1/DTOUT1/PWM2/PTC1
  </text> </g> 
  <circle cx="1600" cy="-1050" r="10"
    style="fill:none;stroke:#800;stroke-width:2"  />
  <line x1="-1600" y1="1200" x2="-1300" y2="1200" style="stroke:#800;stroke-width:10;stroke-opacity:1.000000;stroke-linecap:round"/>
  <g transform="translate(-1520,1194) rotate(0)" > <text font-size="83.3333333333" fill="#800" font-family="monospace"  >
   33
  </text> </g> 
  <g transform="translate(-1282,1235) rotate(0)" > <text font-size="83.3333333333" fill="#088" font-family="monospace"  >
   AN7/PAN7
  </text> </g> 
  <circle cx="-1600" cy="1200" r="10"
    style="fill:none;stroke:#800;stroke-width:2"  />
  <line x1="1600" y1="-1300" x2="1300" y2="-1300" style="stroke:#800;stroke-width:10;stroke-opacity:1.000000;stroke-linecap:round"/>
  <g transform="translate(1379,-1306) rotate(0)" > <text font-size="83.3333333333" fill="#800" font-family="monospace"  >
   43
  </text> </g> 
  <g transform="translate(559,-1265) rotate(0)" > <text font-size="83.3333333333" fill="#088" font-family="monospace"  >
   GPT3/PWM7/PTA3
  </text> </g> 
  <circle cx="1600" cy="-1300" r="10"
    style="fill:none;stroke:#800;stroke-width:2"  />
  <line x1="100" y1="2100" x2="100" y2="1850" style="stroke:#800;stroke-width:10;stroke-opacity:1.000000;stroke-linecap:round"/>
  <g transform="translate(92,1990) rotate(-90)" > <text font-size="50.0" fill="#800" font-family="monospace"  >
   53
  </text> </g> 
  <g transform="translate(103,1825) rotate(-90)" > <text font-size="50.0" fill="#088" font-family="monospace"  >
   GND
  </text> </g> 
  <circle cx="100" cy="2100" r="10"
    style="fill:none;stroke:#800;stroke-width:2"  />
  <line x1="1600" y1="-50" x2="1300" y2="-50" style="stroke:#800;stroke-width:10;stroke-opacity:1.000000;stroke-linecap:round"/>
  <g transform="translate(1379,-56) rotate(0)" > <text font-size="83.3333333333" fill="#800" font-family="monospace"  >
   63
  </text> </g> 
  <g transform="translate(760,-15) rotate(0)" > <text font-size="83.3333333333" fill="#088" font-family="monospace"  >
   URXD1/PUB1
  </text> </g> 
  <circle cx="1600" cy="-50" r="10"
    style="fill:none;stroke:#800;stroke-width:2"  />
  <line x1="1600" y1="900" x2="1300" y2="900" style="stroke:#800;stroke-width:10;stroke-opacity:1.000000;stroke-linecap:round"/>
  <g transform="translate(1379,894) rotate(0)" > <text font-size="83.3333333333" fill="#800" font-family="monospace"  >
   14
  </text> </g> 
  <g transform="translate(-140,935) rotate(0)" > <text font-size="83.3333333333" fill="#088" font-family="monospace"  >
   QSPI_CLK/EZPCK/SCL/RTS1/PQS2
  </text> </g> 
  <circle cx="1600" cy="900" r="10"
    style="fill:none;stroke:#800;stroke-width:2"  />
  <line x1="-1600" y1="-1050" x2="-1300" y2="-1050" style="stroke:#800;stroke-width:10;stroke-opacity:1.000000;stroke-linecap:round"/>
  <g transform="translate(-1520,-1056) rotate(0)" > <text font-size="83.3333333333" fill="#800" font-family="monospace"  >
   24
  </text> </g> 
  <g transform="translate(-1282,-1015) rotate(0)" > <text font-size="83.3333333333" fill="#088" font-family="monospace"  >
   CLKMOD0
  </text> </g> 
  <circle cx="-1600" cy="-1050" r="10"
    style="fill:none;stroke:#800;stroke-width:2"  />
  <line x1="-1600" y1="1100" x2="-1300" y2="1100" style="stroke:#800;stroke-width:10;stroke-opacity:1.000000;stroke-linecap:round"/>
  <g transform="translate(-1520,1094) rotate(0)" > <text font-size="83.3333333333" fill="#800" font-family="monospace"  >
   34
  </text> </g> 
  <g transform="translate(-1282,1135) rotate(0)" > <text font-size="83.3333333333" fill="#088" font-family="monospace"  >
   AN6/PAN6
  </text> </g> 
  <circle cx="-1600" cy="1100" r="10"
    style="fill:none;stroke:#800;stroke-width:2"  />
  <line x1="-1600" y1="-350" x2="-1300" y2="-350" style="stroke:#800;stroke-width:10;stroke-opacity:1.000000;stroke-linecap:round"/>
  <g transform="translate(-1520,-356) rotate(0)" > <text font-size="83.3333333333" fill="#800" font-family="monospace"  >
   44
  </text> </g> 
  <g transform="translate(-1282,-315) rotate(0)" > <text font-size="83.3333333333" fill="#088" font-family="monospace"  >
   TCLK/PSTCLK/CLKOUT
  </text> </g> 
  <circle cx="-1600" cy="-350" r="10"
    style="fill:none;stroke:#800;stroke-width:2"  />
  <line x1="-1600" y1="-650" x2="-1300" y2="-650" style="stroke:#800;stroke-width:10;stroke-opacity:1.000000;stroke-linecap:round"/>
  <g transform="translate(-1520,-656) rotate(0)" > <text font-size="83.3333333333" fill="#800" font-family="monospace"  >
   54
  </text> </g> 
  <g transform="translate(-1282,-615) rotate(0)" > <text font-size="83.3333333333" fill="#088" font-family="monospace"  >
   DSCLK/~TRST~
  </text> </g> 
  <circle cx="-1600" cy="-650" r="10"
    style="fill:none;stroke:#800;stroke-width:2"  />
  <line x1="200" y1="2100" x2="200" y2="1850" style="stroke:#800;stroke-width:10;stroke-opacity:1.000000;stroke-linecap:round"/>
  <g transform="translate(192,1990) rotate(-90)" > <text font-size="50.0" fill="#800" font-family="monospace"  >
   64
  </text> </g> 
  <g transform="translate(203,1825) rotate(-90)" > <text font-size="50.0" fill="#088" font-family="monospace"  >
   GND
  </text> </g> 
  <circle cx="200" cy="2100" r="10"
    style="fill:none;stroke:#800;stroke-width:2"  />
  <line x1="1600" y1="1000" x2="1300" y2="1000" style="stroke:#800;stroke-width:10;stroke-opacity:1.000000;stroke-linecap:round"/>
  <g transform="translate(1379,994) rotate(0)" > <text font-size="83.3333333333" fill="#800" font-family="monospace"  >
   15
  </text> </g> 
  <g transform="translate(159,1035) rotate(0)" > <text font-size="83.3333333333" fill="#088" font-family="monospace"  >
   QSPI_CS0/SDA/CTS1/PQS3
  </text> </g> 
  <circle cx="1600" cy="1000" r="10"
    style="fill:none;stroke:#800;stroke-width:2"  />
  <line x1="-1600" y1="500" x2="-1300" y2="500" style="stroke:#800;stroke-width:10;stroke-opacity:1.000000;stroke-linecap:round"/>
  <g transform="translate(-1520,494) rotate(0)" > <text font-size="83.3333333333" fill="#800" font-family="monospace"  >
   25
  </text> </g> 
  <g transform="translate(-1282,535) rotate(0)" > <text font-size="83.3333333333" fill="#088" font-family="monospace"  >
   AN0/PAN0
  </text> </g> 
  <circle cx="-1600" cy="500" r="10"
    style="fill:none;stroke:#800;stroke-width:2"  />
  <line x1="-1600" y1="1000" x2="-1300" y2="1000" style="stroke:#800;stroke-width:10;stroke-opacity:1.000000;stroke-linecap:round"/>
  <g transform="translate(-1520,994) rotate(0)" > <text font-size="83.3333333333" fill="#800" font-family="monospace"  >
   35
  </text> </g> 
  <g transform="translate(-1282,1035) rotate(0)" > <text font-size="83.3333333333" fill="#088" font-family="monospace"  >
   AN5/PAN5
  </text> </g> 
  <circle cx="-1600" cy="1000" r="10"
    style="fill:none;stroke:#800;stroke-width:2"  />
  <line x1="-1600" y1="-1700" x2="-1300" y2="-1700" style="stroke:#800;stroke-width:10;stroke-opacity:1.000000;stroke-linecap:round"/>
  <g transform="translate(-1520,-1706) rotate(0)" > <text font-size="83.3333333333" fill="#800" font-family="monospace"  >
   45
  </text> </g> 
  <g transform="translate(-1282,-1665) rotate(0)" > <text font-size="83.3333333333" fill="#088" font-family="monospace"  >
   GNDPLL
  </text> </g> 
  <circle cx="-1600" cy="-1700" r="10"
    style="fill:none;stroke:#800;stroke-width:2"  />
  <line x1="-1600" y1="-150" x2="-1300" y2="-150" style="stroke:#800;stroke-width:10;stroke-opacity:1.000000;stroke-linecap:round"/>
  <g transform="translate(-1520,-156) rotate(0)" > <text font-size="83.3333333333" fill="#800" font-family="monospace"  >
   55
  </text> </g> 
  <g transform="translate(-1282,-115) rotate(0)" > <text font-size="83.3333333333" fill="#088" font-family="monospace"  >
   ALLPST
  </text> </g> 
  <circle cx="-1600" cy="-150" r="10"
    style="fill:none;stroke:#800;stroke-width:2"  />
  <line x1="-1600" y1="-950" x2="-1300" y2="-950" style="stroke:#800;stroke-width:10;stroke-opacity:1.000000;stroke-linecap:round"/>
  <g transform="translate(-1520,-956) rotate(0)" > <text font-size="83.3333333333" fill="#800" font-family="monospace"  >
   16
  </text> </g> 
  <g transform="translate(-1282,-915) rotate(0)" > <text font-size="83.3333333333" fill="#088" font-family="monospace"  >
   RCON/EZPCS
  </text> </g> 
  <circle cx="-1600" cy="-950" r="10"
    style="fill:none;stroke:#800;stroke-width:2"  />
  <line x1="-1600" y1="600" x2="-1300" y2="600" style="stroke:#800;stroke-width:10;stroke-opacity:1.000000;stroke-linecap:round"/>
  <g transform="translate(-1520,594) rotate(0)" > <text font-size="83.3333333333" fill="#800" font-family="monospace"  >
   26
  </text> </g> 
  <g transform="translate(-1282,635) rotate(0)" > <text font-size="83.3333333333" fill="#088" font-family="monospace"  >
   AN1/PAN1
  </text> </g> 
  <circle cx="-1600" cy="600" r="10"
    style="fill:none;stroke:#800;stroke-width:2"  />
  <line x1="-1600" y1="-1450" x2="-1300" y2="-1450" style="stroke:#800;stroke-width:10;stroke-opacity:1.000000;stroke-linecap:round"/>
  <g transform="translate(-1520,-1456) rotate(0)" > <text font-size="83.3333333333" fill="#800" font-family="monospace"  >
   46
  </text> </g> 
  <g transform="translate(-1282,-1415) rotate(0)" > <text font-size="83.3333333333" fill="#088" font-family="monospace"  >
   XTAL
  </text> </g> 
  <circle cx="-1600" cy="-1450" r="10"
    style="fill:none;stroke:#800;stroke-width:2"  />
  <line x1="-1600" y1="100" x2="-1300" y2="100" style="stroke:#800;stroke-width:10;stroke-opacity:1.000000;stroke-linecap:round"/>
  <g transform="translate(-1520,94) rotate(0)" > <text font-size="83.3333333333" fill="#800" font-family="monospace"  >
   56
  </text> </g> 
  <g transform="translate(-1282,135) rotate(0)" > <text font-size="83.3333333333" fill="#088" font-family="monospace"  >
   ~IRQ1~/PNQ1/SYNCA/PWM1
  </text> </g> 
  <circle cx="-1600" cy="100" r="10"
    style="fill:none;stroke:#800;stroke-width:2"  />
  <line x1="-1600" y1="-750" x2="-1300" y2="-750" style="stroke:#800;stroke-width:10;stroke-opacity:1.000000;stroke-linecap:round"/>
  <g transform="translate(-1520,-756) rotate(0)" > <text font-size="83.3333333333" fill="#800" font-family="monospace"  >
   17
  </text> </g> 
  <g transform="translate(-1282,-715) rotate(0)" > <text font-size="83.3333333333" fill="#088" font-family="monospace"  >
   JTAG_EN
  </text> </g> 
  <circle cx="-1600" cy="-750" r="10"
    style="fill:none;stroke:#800;stroke-width:2"  />
  <line x1="-1600" y1="700" x2="-1300" y2="700" style="stroke:#800;stroke-width:10;stroke-opacity:1.000000;stroke-linecap:round"/>
  <g transform="translate(-1520,694) rotate(0)" > <text font-size="83.3333333333" fill="#800" font-family="monospace"  >
   27
  </text> </g> 
  <g transform="translate(-1282,735) rotate(0)" > <text font-size="83.3333333333" fill="#088" font-family="monospace"  >
   AN2/PAN2
  </text> </g> 
  <circle cx="-1600" cy="700" r="10"
    style="fill:none;stroke:#800;stroke-width:2"  />
  <line x1="300" y1="-2100" x2="300" y2="-1850" style="stroke:#800;stroke-width:10;stroke-opacity:1.000000;stroke-linecap:round"/>
  <g transform="translate(292,-1960) rotate(-90)" > <text font-size="50.0" fill="#800" font-family="monospace"  >
   37
  </text> </g> 
  <g transform="translate(303,-1675) rotate(-90)" > <text font-size="50.0" fill="#088" font-family="monospace"  >
   VSTBY
  </text> </g> 
  <circle cx="300" cy="-2100" r="10"
    style="fill:none;stroke:#800;stroke-width:2"  />
  <line x1="-1600" y1="-1550" x2="-1300" y2="-1550" style="stroke:#800;stroke-width:10;stroke-opacity:1.000000;stroke-linecap:round"/>
  <g transform="translate(-1520,-1556) rotate(0)" > <text font-size="83.3333333333" fill="#800" font-family="monospace"  >
   47
  </text> </g> 
  <g transform="translate(-1282,-1515) rotate(0)" > <text font-size="83.3333333333" fill="#088" font-family="monospace"  >
   CLKIN/EXTAL
  </text> </g> 
  <circle cx="-1600" cy="-1550" r="10"
    style="fill:none;stroke:#800;stroke-width:2"  />
  <line x1="-1600" y1="200" x2="-1300" y2="200" style="stroke:#800;stroke-width:10;stroke-opacity:1.000000;stroke-linecap:round"/>
  <g transform="translate(-1520,194) rotate(0)" > <text font-size="83.3333333333" fill="#800" font-family="monospace"  >
   57
  </text> </g> 
  <g transform="translate(-1282,235) rotate(0)" > <text font-size="83.3333333333" fill="#088" font-family="monospace"  >
   IRQ4*/PNQ4
  </text> </g> 
  <circle cx="-1600" cy="200" r="10"
    style="fill:none;stroke:#800;stroke-width:2"  />
  <line x1="1600" y1="-950" x2="1300" y2="-950" style="stroke:#800;stroke-width:10;stroke-opacity:1.000000;stroke-linecap:round"/>
  <g transform="translate(1379,-956) rotate(0)" > <text font-size="83.3333333333" fill="#800" font-family="monospace"  >
   18
  </text> </g> 
  <g transform="translate(159,-915) rotate(0)" > <text font-size="83.3333333333" fill="#088" font-family="monospace"  >
   DTIN2/DTOUT2/PWM4/PTC2
  </text> </g> 
  <circle cx="1600" cy="-950" r="10"
    style="fill:none;stroke:#800;stroke-width:2"  />
  <line x1="-1600" y1="800" x2="-1300" y2="800" style="stroke:#800;stroke-width:10;stroke-opacity:1.000000;stroke-linecap:round"/>
  <g transform="translate(-1520,794) rotate(0)" > <text font-size="83.3333333333" fill="#800" font-family="monospace"  >
   28
  </text> </g> 
  <g transform="translate(-1282,835) rotate(0)" > <text font-size="83.3333333333" fill="#088" font-family="monospace"  >
   AN3/PAN3
  </text> </g> 
  <circle cx="-1600" cy="800" r="10"
    style="fill:none;stroke:#800;stroke-width:2"  />
  <line x1="0" y1="2100" x2="0" y2="1850" style="stroke:#800;stroke-width:10;stroke-opacity:1.000000;stroke-linecap:round"/>
  <g transform="translate(-7,1990) rotate(-90)" > <text font-size="50.0" fill="#800" font-family="monospace"  >
   38
  </text> </g> 
  <g transform="translate(3,1825) rotate(-90)" > <text font-size="50.0" fill="#088" font-family="monospace"  >
   GND
  </text> </g> 
  <circle cx="0" cy="2100" r="10"
    style="fill:none;stroke:#800;stroke-width:2"  />
  <line x1="-1600" y1="-1800" x2="-1300" y2="-1800" style="stroke:#800;stroke-width:10;stroke-opacity:1.000000;stroke-linecap:round"/>
  <g transform="translate(-1520,-1806) rotate(0)" > <text font-size="83.3333333333" fill="#800" font-family="monospace"  >
   48
  </text> </g> 
  <g transform="translate(-1282,-1765) rotate(0)" > <text font-size="83.3333333333" fill="#088" font-family="monospace"  >
   VCCPLL
  </text> </g> 
  <circle cx="-1600" cy="-1800" r="10"
    style="fill:none;stroke:#800;stroke-width:2"  />
  <line x1="-1600" y1="300" x2="-1300" y2="300" style="stroke:#800;stroke-width:10;stroke-opacity:1.000000;stroke-linecap:round"/>
  <g transform="translate(-1520,294) rotate(0)" > <text font-size="83.3333333333" fill="#800" font-family="monospace"  >
   58
  </text> </g> 
  <g transform="translate(-1282,335) rotate(0)" > <text font-size="83.3333333333" fill="#088" font-family="monospace"  >
   IRQ7*/PNQ7
  </text> </g> 
  <circle cx="-1600" cy="300" r="10"
    style="fill:none;stroke:#800;stroke-width:2"  />
  <line x1="1600" y1="-850" x2="1300" y2="-850" style="stroke:#800;stroke-width:10;stroke-opacity:1.000000;stroke-linecap:round"/>
  <g transform="translate(1379,-856) rotate(0)" > <text font-size="83.3333333333" fill="#800" font-family="monospace"  >
   19
  </text> </g> 
  <g transform="translate(159,-815) rotate(0)" > <text font-size="83.3333333333" fill="#088" font-family="monospace"  >
   DTIN3/DTOUT3/PWM6/PTC3
  </text> </g> 
  <circle cx="1600" cy="-850" r="10"
    style="fill:none;stroke:#800;stroke-width:2"  />
  <line x1="-1600" y1="900" x2="-1300" y2="900" style="stroke:#800;stroke-width:10;stroke-opacity:1.000000;stroke-linecap:round"/>
  <g transform="translate(-1520,894) rotate(0)" > <text font-size="83.3333333333" fill="#800" font-family="monospace"  >
   39
  </text> </g> 
  <g transform="translate(-1282,935) rotate(0)" > <text font-size="83.3333333333" fill="#088" font-family="monospace"  >
   AN4/PAN4
  </text> </g> 
  <circle cx="-1600" cy="900" r="10"
    style="fill:none;stroke:#800;stroke-width:2"  />
  <line x1="50" y1="-2100" x2="50" y2="-1850" style="stroke:#800;stroke-width:10;stroke-opacity:1.000000;stroke-linecap:round"/>
  <g transform="translate(42,-1960) rotate(-90)" > <text font-size="50.0" fill="#800" font-family="monospace"  >
   39
  </text> </g> 
  <g transform="translate(53,-1735) rotate(-90)" > <text font-size="50.0" fill="#088" font-family="monospace"  >
   VCC
  </text> </g> 
  <circle cx="50" cy="-2100" r="10"
    style="fill:none;stroke:#800;stroke-width:2"  />
  <line x1="-1600" y1="1800" x2="-1300" y2="1800" style="stroke:#800;stroke-width:10;stroke-opacity:1.000000;stroke-linecap:round"/>
  <g transform="translate(-1520,1794) rotate(0)" > <text font-size="83.3333333333" fill="#800" font-family="monospace"  >
   39
  </text> </g> 
  <g transform="translate(-1282,1835) rotate(0)" > <text font-size="83.3333333333" fill="#088" font-family="monospace"  >
   VSSA
  </text> </g> 
  <circle cx="-1600" cy="1800" r="10"
    style="fill:none;stroke:#800;stroke-width:2"  />
  <line x1="-1600" y1="-250" x2="-1300" y2="-250" style="stroke:#800;stroke-width:10;stroke-opacity:1.000000;stroke-linecap:round"/>
  <g transform="translate(-1520,-256) rotate(0)" > <text font-size="83.3333333333" fill="#800" font-family="monospace"  >
   49
  </text> </g> 
  <g transform="translate(-1282,-215) rotate(0)" > <text font-size="83.3333333333" fill="#088" font-family="monospace"  >
   ~BKPT~/TMS
  </text> </g> 
  <circle cx="-1600" cy="-250" r="10"
    style="fill:none;stroke:#800;stroke-width:2"  />
  <line x1="-1380" y1="-1250" x2="-1380" y2="-1290" style="stroke:#800;stroke-width:10;stroke-opacity:1.000000;stroke-linecap:round"/>
  <line x1="-1380" y1="-1290" x2="-1300" y2="-1250" style="stroke:#800;stroke-width:10;stroke-opacity:1.000000;stroke-linecap:round"/>
  <line x1="-1600" y1="-1250" x2="-1300" y2="-1250" style="stroke:#800;stroke-width:10;stroke-opacity:1.000000;stroke-linecap:round"/>
  <g transform="translate(-1520,-1256) rotate(0)" > <text font-size="83.3333333333" fill="#800" font-family="monospace"  >
   59
  </text> </g> 
  <g transform="translate(-1282,-1215) rotate(0)" > <text font-size="83.3333333333" fill="#088" font-family="monospace"  >
   RSTI
  </text> </g> 
  <circle cx="-1600" cy="-1250" r="10"
    style="fill:none;stroke:#800;stroke-width:2"  />
 </g>
</svg>
