<?xml version="1.0"?>
<svg height="267" width="267"  >
 <g style="fill-opacity:1.0; stroke:black;
  stroke-width:1;" transform=" translate( 133.75,133.75 ) scale( 0.15,0.15 )">
  <g transform="translate(230,-230) rotate(0)" > <text font-size="66.6666666667" fill="#088" font-family="monospace"  >
   U
  </text> </g> 
  <g transform="translate(110,-180) rotate(0)" > <text font-size="66.6666666667" fill="#088" font-family="monospace"  >
   LM3886T
  </text> </g> 
<polygon points=" -500,-400 450,0 -500,400 -500,-400 -500,-300" 
style="fill:#ff8;stroke:#800;stroke-width:10"/>
  <line x1="-50" y1="-350" x2="-50" y2="-210" style="stroke:#800;stroke-width:10;stroke-opacity:1.000000;stroke-linecap:round"/>
  <g transform="translate(-60,-270) rotate(-90)" > <text font-size="66.6666666667" fill="#800" font-family="monospace"  >
   1
  </text> </g> 
  <g transform="translate(-45,-96) rotate(-90)" > <text font-size="66.6666666667" fill="#088" font-family="monospace"  >
   V+
  </text> </g> 
  <circle cx="-50" cy="-350" r="10"
    style="fill:none;stroke:#800;stroke-width:2"  />
  <line x1="600" y1="0" x2="450" y2="0" style="stroke:#800;stroke-width:10;stroke-opacity:1.000000;stroke-linecap:round"/>
  <g transform="translate(496,-6) rotate(0)" > <text font-size="66.6666666667" fill="#800" font-family="monospace"  >
   3
  </text> </g> 
  <g transform="translate(290,30) rotate(0)" > <text font-size="66.6666666667" fill="#088" font-family="monospace"  >
   OUT
  </text> </g> 
  <circle cx="600" cy="0" r="10"
    style="fill:none;stroke:#800;stroke-width:2"  />
  <line x1="-50" y1="350" x2="-50" y2="210" style="stroke:#800;stroke-width:10;stroke-opacity:1.000000;stroke-linecap:round"/>
  <g transform="translate(-60,290) rotate(-90)" > <text font-size="66.6666666667" fill="#800" font-family="monospace"  >
   4
  </text> </g> 
  <g transform="translate(-45,176) rotate(-90)" > <text font-size="66.6666666667" fill="#088" font-family="monospace"  >
   V-
  </text> </g> 
  <circle cx="-50" cy="350" r="10"
    style="fill:none;stroke:#800;stroke-width:2"  />
  <line x1="-250" y1="-450" x2="-250" y2="-300" style="stroke:#800;stroke-width:10;stroke-opacity:1.000000;stroke-linecap:round"/>
  <g transform="translate(-260,-365) rotate(-90)" > <text font-size="66.6666666667" fill="#800" font-family="monospace"  >
   5
  </text> </g> 
  <g transform="translate(-245,-186) rotate(-90)" > <text font-size="66.6666666667" fill="#088" font-family="monospace"  >
   V+
  </text> </g> 
  <circle cx="-250" cy="-450" r="10"
    style="fill:none;stroke:#800;stroke-width:2"  />
  <line x1="-250" y1="450" x2="-250" y2="300" style="stroke:#800;stroke-width:10;stroke-opacity:1.000000;stroke-linecap:round"/>
  <g transform="translate(-260,385) rotate(-90)" > <text font-size="66.6666666667" fill="#800" font-family="monospace"  >
   7
  </text> </g> 
  <g transform="translate(-245,266) rotate(-90)" > <text font-size="66.6666666667" fill="#088" font-family="monospace"  >
   GND
  </text> </g> 
  <circle cx="-250" cy="450" r="10"
    style="fill:none;stroke:#800;stroke-width:2"  />
  <line x1="150" y1="250" x2="150" y2="125" style="stroke:#800;stroke-width:10;stroke-opacity:1.000000;stroke-linecap:round"/>
  <g transform="translate(140,197) rotate(-90)" > <text font-size="66.6666666667" fill="#800" font-family="monospace"  >
   8
  </text> </g> 
  <g transform="translate(155,91) rotate(-90)" > <text font-size="66.6666666667" fill="#088" font-family="monospace"  >
   MUTE
  </text> </g> 
  <circle cx="150" cy="250" r="10"
    style="fill:none;stroke:#800;stroke-width:2"  />
  <line x1="-650" y1="200" x2="-500" y2="200" style="stroke:#800;stroke-width:10;stroke-opacity:1.000000;stroke-linecap:round"/>
  <g transform="translate(-603,194) rotate(0)" > <text font-size="66.6666666667" fill="#800" font-family="monospace"  >
   9
  </text> </g> 
  <g transform="translate(-482,230) rotate(0)" > <text font-size="66.6666666667" fill="#088" font-family="monospace"  >
   IN-
  </text> </g> 
  <circle cx="-650" cy="200" r="10"
    style="fill:none;stroke:#800;stroke-width:2"  />
  <line x1="-650" y1="-200" x2="-500" y2="-200" style="stroke:#800;stroke-width:10;stroke-opacity:1.000000;stroke-linecap:round"/>
  <g transform="translate(-631,-206) rotate(0)" > <text font-size="66.6666666667" fill="#800" font-family="monospace"  >
   10
  </text> </g> 
  <g transform="translate(-482,-170) rotate(0)" > <text font-size="66.6666666667" fill="#088" font-family="monospace"  >
   IN+
  </text> </g> 
  <circle cx="-650" cy="-200" r="10"
    style="fill:none;stroke:#800;stroke-width:2"  />
 </g>
</svg>
