<?xml version="1.0"?>
<svg height="260" width="260"  >
 <g style="fill-opacity:1.0; stroke:black;
  stroke-width:1;" transform=" translate( 130.0,130.0 ) scale( 0.15,0.15 )">
  <g transform="translate(-320,-430) rotate(0)" > <text font-size="66.6666666667" fill="#088" font-family="monospace"  >
   U
  </text> </g> 
  <g transform="translate(90,-430) rotate(0)" > <text font-size="66.6666666667" fill="#088" font-family="monospace"  >
   LM4950TA
  </text> </g> 
  <rect x="-350" y="-400" height="800"
    width="700" style="fill:none;stroke:#800;stroke-width:10" />
  <line x1="-150" y1="-150" x2="-150" y2="150" style="stroke:#800;stroke-width:10;stroke-opacity:1.000000;stroke-linecap:round"/>
  <line x1="-150" y1="150" x2="200" y2="0" style="stroke:#800;stroke-width:10;stroke-opacity:1.000000;stroke-linecap:round"/>
  <line x1="200" y1="0" x2="-150" y2="-150" style="stroke:#800;stroke-width:10;stroke-opacity:1.000000;stroke-linecap:round"/>
  <line x1="-500" y1="-250" x2="-350" y2="-250" style="stroke:#800;stroke-width:10;stroke-opacity:1.000000;stroke-linecap:round"/>
  <g transform="translate(-453,-256) rotate(0)" > <text font-size="66.6666666667" fill="#800" font-family="monospace"  >
   1
  </text> </g> 
  <g transform="translate(-332,-220) rotate(0)" > <text font-size="66.6666666667" fill="#088" font-family="monospace"  >
   INA
  </text> </g> 
  <circle cx="-500" cy="-250" r="10"
    style="fill:none;stroke:#800;stroke-width:2"  />
  <line x1="-500" y1="0" x2="-350" y2="0" style="stroke:#800;stroke-width:10;stroke-opacity:1.000000;stroke-linecap:round"/>
  <g transform="translate(-453,-6) rotate(0)" > <text font-size="66.6666666667" fill="#800" font-family="monospace"  >
   2
  </text> </g> 
  <g transform="translate(-332,30) rotate(0)" > <text font-size="66.6666666667" fill="#088" font-family="monospace"  >
   ~SHD~
  </text> </g> 
  <circle cx="-500" cy="0" r="10"
    style="fill:none;stroke:#800;stroke-width:2"  />
  <line x1="500" y1="-250" x2="350" y2="-250" style="stroke:#800;stroke-width:10;stroke-opacity:1.000000;stroke-linecap:round"/>
  <g transform="translate(396,-256) rotate(0)" > <text font-size="66.6666666667" fill="#800" font-family="monospace"  >
   3
  </text> </g> 
  <g transform="translate(150,-220) rotate(0)" > <text font-size="66.6666666667" fill="#088" font-family="monospace"  >
   OUTA
  </text> </g> 
  <circle cx="500" cy="-250" r="10"
    style="fill:none;stroke:#800;stroke-width:2"  />
  <line x1="-100" y1="550" x2="-100" y2="400" style="stroke:#800;stroke-width:10;stroke-opacity:1.000000;stroke-linecap:round"/>
  <g transform="translate(-110,485) rotate(-90)" > <text font-size="66.6666666667" fill="#800" font-family="monospace"  >
   4
  </text> </g> 
  <g transform="translate(-95,366) rotate(-90)" > <text font-size="66.6666666667" fill="#088" font-family="monospace"  >
   GND
  </text> </g> 
  <circle cx="-100" cy="550" r="10"
    style="fill:none;stroke:#800;stroke-width:2"  />
  <line x1="0" y1="550" x2="0" y2="400" style="stroke:#800;stroke-width:10;stroke-opacity:1.000000;stroke-linecap:round"/>
  <g transform="translate(-10,485) rotate(-90)" > <text font-size="66.6666666667" fill="#800" font-family="monospace"  >
   5
  </text> </g> 
  <g transform="translate(5,366) rotate(-90)" > <text font-size="66.6666666667" fill="#088" font-family="monospace"  >
   GND
  </text> </g> 
  <circle cx="0" cy="550" r="10"
    style="fill:none;stroke:#800;stroke-width:2"  />
  <line x1="0" y1="-550" x2="0" y2="-400" style="stroke:#800;stroke-width:10;stroke-opacity:1.000000;stroke-linecap:round"/>
  <g transform="translate(-10,-465) rotate(-90)" > <text font-size="66.6666666667" fill="#800" font-family="monospace"  >
   6
  </text> </g> 
  <g transform="translate(5,-246) rotate(-90)" > <text font-size="66.6666666667" fill="#088" font-family="monospace"  >
   VDD
  </text> </g> 
  <circle cx="0" cy="-550" r="10"
    style="fill:none;stroke:#800;stroke-width:2"  />
  <line x1="500" y1="250" x2="350" y2="250" style="stroke:#800;stroke-width:10;stroke-opacity:1.000000;stroke-linecap:round"/>
  <g transform="translate(396,244) rotate(0)" > <text font-size="66.6666666667" fill="#800" font-family="monospace"  >
   7
  </text> </g> 
  <g transform="translate(150,280) rotate(0)" > <text font-size="66.6666666667" fill="#088" font-family="monospace"  >
   OUTB
  </text> </g> 
  <circle cx="500" cy="250" r="10"
    style="fill:none;stroke:#800;stroke-width:2"  />
  <line x1="500" y1="0" x2="350" y2="0" style="stroke:#800;stroke-width:10;stroke-opacity:1.000000;stroke-linecap:round"/>
  <g transform="translate(396,-6) rotate(0)" > <text font-size="66.6666666667" fill="#800" font-family="monospace"  >
   8
  </text> </g> 
  <g transform="translate(230,30) rotate(0)" > <text font-size="66.6666666667" fill="#088" font-family="monospace"  >
   BP
  </text> </g> 
  <circle cx="500" cy="0" r="10"
    style="fill:none;stroke:#800;stroke-width:2"  />
  <line x1="-500" y1="250" x2="-350" y2="250" style="stroke:#800;stroke-width:10;stroke-opacity:1.000000;stroke-linecap:round"/>
  <g transform="translate(-453,244) rotate(0)" > <text font-size="66.6666666667" fill="#800" font-family="monospace"  >
   9
  </text> </g> 
  <g transform="translate(-332,280) rotate(0)" > <text font-size="66.6666666667" fill="#088" font-family="monospace"  >
   INB
  </text> </g> 
  <circle cx="-500" cy="250" r="10"
    style="fill:none;stroke:#800;stroke-width:2"  />
  <line x1="100" y1="550" x2="100" y2="400" style="stroke:#800;stroke-width:10;stroke-opacity:1.000000;stroke-linecap:round"/>
  <g transform="translate(90,495) rotate(-90)" > <text font-size="66.6666666667" fill="#800" font-family="monospace"  >
   10
  </text> </g> 
  <g transform="translate(105,366) rotate(-90)" > <text font-size="66.6666666667" fill="#088" font-family="monospace"  >
   TAP
  </text> </g> 
  <circle cx="100" cy="550" r="10"
    style="fill:none;stroke:#800;stroke-width:2"  />
 </g>
</svg>
