<?xml version="1.0"?>
<svg height="339" width="310"  >
 <g style="fill-opacity:1.0; stroke:black;
  stroke-width:1;" transform=" translate( 155.0,169.525 ) scale( 0.15,0.15 )">
  <g transform="translate(-30,-320) rotate(0)" > <text font-size="100.0" fill="#088" font-family="monospace"  >
   U
  </text> </g> 
  <g transform="translate(-210,377) rotate(0)" > <text font-size="100.0" fill="#088" font-family="monospace"  >
   SSM2165
  </text> </g> 
  <rect x="-350" y="-300" height="600"
    width="700" style="fill:none;stroke:#800;stroke-width:10" />
  <rect x="-300" y="-350" height="0"
    width="0" style="fill:none;stroke:#800;stroke-width:10" />
  <rect x="300" y="400" height="0"
    width="0" style="fill:none;stroke:#800;stroke-width:10" />
  <line x1="-550" y1="-200" x2="-350" y2="-200" style="stroke:#800;stroke-width:10;stroke-opacity:1.000000;stroke-linecap:round"/>
  <g transform="translate(-485,-206) rotate(0)" > <text font-size="83.3333333333" fill="#800" font-family="monospace"  >
   1
  </text> </g> 
  <g transform="translate(-332,-165) rotate(0)" > <text font-size="83.3333333333" fill="#088" font-family="monospace"  >
   GND
  </text> </g> 
  <circle cx="-550" cy="-200" r="10"
    style="fill:none;stroke:#800;stroke-width:2"  />
  <line x1="-550" y1="0" x2="-350" y2="0" style="stroke:#800;stroke-width:10;stroke-opacity:1.000000;stroke-linecap:round"/>
  <g transform="translate(-485,-6) rotate(0)" > <text font-size="83.3333333333" fill="#800" font-family="monospace"  >
   2
  </text> </g> 
  <g transform="translate(-332,35) rotate(0)" > <text font-size="83.3333333333" fill="#088" font-family="monospace"  >
   VCAIN
  </text> </g> 
  <circle cx="-550" cy="0" r="10"
    style="fill:none;stroke:#800;stroke-width:2"  />
  <line x1="-550" y1="200" x2="-350" y2="200" style="stroke:#800;stroke-width:10;stroke-opacity:1.000000;stroke-linecap:round"/>
  <g transform="translate(-485,194) rotate(0)" > <text font-size="83.3333333333" fill="#800" font-family="monospace"  >
   3
  </text> </g> 
  <g transform="translate(-332,235) rotate(0)" > <text font-size="83.3333333333" fill="#088" font-family="monospace"  >
   BUFOUT
  </text> </g> 
  <circle cx="-550" cy="200" r="10"
    style="fill:none;stroke:#800;stroke-width:2"  />
  <line x1="-550" y1="-100" x2="-350" y2="-100" style="stroke:#800;stroke-width:10;stroke-opacity:1.000000;stroke-linecap:round"/>
  <g transform="translate(-485,-106) rotate(0)" > <text font-size="83.3333333333" fill="#800" font-family="monospace"  >
   4
  </text> </g> 
  <g transform="translate(-332,-65) rotate(0)" > <text font-size="83.3333333333" fill="#088" font-family="monospace"  >
   IN+
  </text> </g> 
  <circle cx="-550" cy="-100" r="10"
    style="fill:none;stroke:#800;stroke-width:2"  />
  <line x1="550" y1="200" x2="350" y2="200" style="stroke:#800;stroke-width:10;stroke-opacity:1.000000;stroke-linecap:round"/>
  <g transform="translate(414,194) rotate(0)" > <text font-size="83.3333333333" fill="#800" font-family="monospace"  >
   5
  </text> </g> 
  <g transform="translate(159,235) rotate(0)" > <text font-size="83.3333333333" fill="#088" font-family="monospace"  >
   AVG
  </text> </g> 
  <circle cx="550" cy="200" r="10"
    style="fill:none;stroke:#800;stroke-width:2"  />
  <line x1="550" y1="100" x2="350" y2="100" style="stroke:#800;stroke-width:10;stroke-opacity:1.000000;stroke-linecap:round"/>
  <g transform="translate(414,94) rotate(0)" > <text font-size="83.3333333333" fill="#800" font-family="monospace"  >
   6
  </text> </g> 
  <g transform="translate(109,135) rotate(0)" > <text font-size="83.3333333333" fill="#088" font-family="monospace"  >
   COMP
  </text> </g> 
  <circle cx="550" cy="100" r="10"
    style="fill:none;stroke:#800;stroke-width:2"  />
  <line x1="550" y1="-100" x2="350" y2="-100" style="stroke:#800;stroke-width:10;stroke-opacity:1.000000;stroke-linecap:round"/>
  <g transform="translate(414,-106) rotate(0)" > <text font-size="83.3333333333" fill="#800" font-family="monospace"  >
   7
  </text> </g> 
  <g transform="translate(109,-65) rotate(0)" > <text font-size="83.3333333333" fill="#088" font-family="monospace"  >
   VOUT
  </text> </g> 
  <circle cx="550" cy="-100" r="10"
    style="fill:none;stroke:#800;stroke-width:2"  />
  <line x1="550" y1="-200" x2="350" y2="-200" style="stroke:#800;stroke-width:10;stroke-opacity:1.000000;stroke-linecap:round"/>
  <g transform="translate(414,-206) rotate(0)" > <text font-size="83.3333333333" fill="#800" font-family="monospace"  >
   8
  </text> </g> 
  <g transform="translate(210,-165) rotate(0)" > <text font-size="83.3333333333" fill="#088" font-family="monospace"  >
   V+
  </text> </g> 
  <circle cx="550" cy="-200" r="10"
    style="fill:none;stroke:#800;stroke-width:2"  />
 </g>
</svg>
