<?xml version="1.0"?>
<svg height="467" width="348"  >
 <g style="fill-opacity:1.0; stroke:black;
  stroke-width:1;" transform=" translate( 174.25,233.5 ) scale( 0.15,0.15 )">
  <g transform="translate(120,-570) rotate(0)" > <text font-size="100.0" fill="#088" font-family="monospace"  >
   U
  </text> </g> 
  <g transform="translate(-110,680) rotate(0)" > <text font-size="100.0" fill="#088" font-family="monospace"  >
   74HCT574_PWR
  </text> </g> 
  <line x1="0" y1="750" x2="0" y2="550" style="stroke:#800;stroke-width:10;stroke-opacity:1.000000;stroke-linecap:round"/>
  <g transform="translate(-15,680) rotate(-90)" > <text font-size="100.0" fill="#800" font-family="monospace"  >
   10
  </text> </g> 
  <g transform="translate(7,500) rotate(-90)" > <text font-size="100.0" fill="#088" font-family="monospace"  >
   GND
  </text> </g> 
  <circle cx="0" cy="750" r="10"
    style="fill:none;stroke:#800;stroke-width:2"  />
  <line x1="0" y1="-800" x2="0" y2="-600" style="stroke:#800;stroke-width:10;stroke-opacity:1.000000;stroke-linecap:round"/>
  <g transform="translate(-15,-670) rotate(-90)" > <text font-size="100.0" fill="#800" font-family="monospace"  >
   20
  </text> </g> 
  <g transform="translate(7,-370) rotate(-90)" > <text font-size="100.0" fill="#088" font-family="monospace"  >
   VCC
  </text> </g> 
  <circle cx="0" cy="-800" r="10"
    style="fill:none;stroke:#800;stroke-width:2"  />
  <rect x="-400" y="-550" height="1100"
    width="800" style="fill:none;stroke:#800;stroke-width:10" />
  <line x1="-700" y1="500" x2="-470" y2="500" style="stroke:#800;stroke-width:10;stroke-opacity:1.000000;stroke-linecap:round"/>
  <circle cx="-435" cy="500" r="35"
    style="fill:none;stroke:#800;stroke-width:10"  />
  <g transform="translate(-592,494) rotate(0)" > <text font-size="100.0" fill="#800" font-family="monospace"  >
   1
  </text> </g> 
  <g transform="translate(-382,540) rotate(0)" > <text font-size="100.0" fill="#088" font-family="monospace"  >
   OE
  </text> </g> 
  <circle cx="-700" cy="500" r="10"
    style="fill:none;stroke:#800;stroke-width:2"  />
  <line x1="-700" y1="-500" x2="-400" y2="-500" style="stroke:#800;stroke-width:10;stroke-opacity:1.000000;stroke-linecap:round"/>
  <g transform="translate(-592,-506) rotate(0)" > <text font-size="100.0" fill="#800" font-family="monospace"  >
   2
  </text> </g> 
  <g transform="translate(-382,-460) rotate(0)" > <text font-size="100.0" fill="#088" font-family="monospace"  >
   D0
  </text> </g> 
  <circle cx="-700" cy="-500" r="10"
    style="fill:none;stroke:#800;stroke-width:2"  />
  <line x1="-700" y1="-400" x2="-400" y2="-400" style="stroke:#800;stroke-width:10;stroke-opacity:1.000000;stroke-linecap:round"/>
  <g transform="translate(-592,-406) rotate(0)" > <text font-size="100.0" fill="#800" font-family="monospace"  >
   3
  </text> </g> 
  <g transform="translate(-382,-360) rotate(0)" > <text font-size="100.0" fill="#088" font-family="monospace"  >
   D1
  </text> </g> 
  <circle cx="-700" cy="-400" r="10"
    style="fill:none;stroke:#800;stroke-width:2"  />
  <line x1="-700" y1="-300" x2="-400" y2="-300" style="stroke:#800;stroke-width:10;stroke-opacity:1.000000;stroke-linecap:round"/>
  <g transform="translate(-592,-306) rotate(0)" > <text font-size="100.0" fill="#800" font-family="monospace"  >
   4
  </text> </g> 
  <g transform="translate(-382,-260) rotate(0)" > <text font-size="100.0" fill="#088" font-family="monospace"  >
   D2
  </text> </g> 
  <circle cx="-700" cy="-300" r="10"
    style="fill:none;stroke:#800;stroke-width:2"  />
  <line x1="-700" y1="-200" x2="-400" y2="-200" style="stroke:#800;stroke-width:10;stroke-opacity:1.000000;stroke-linecap:round"/>
  <g transform="translate(-592,-206) rotate(0)" > <text font-size="100.0" fill="#800" font-family="monospace"  >
   5
  </text> </g> 
  <g transform="translate(-382,-160) rotate(0)" > <text font-size="100.0" fill="#088" font-family="monospace"  >
   D3
  </text> </g> 
  <circle cx="-700" cy="-200" r="10"
    style="fill:none;stroke:#800;stroke-width:2"  />
  <line x1="-700" y1="-100" x2="-400" y2="-100" style="stroke:#800;stroke-width:10;stroke-opacity:1.000000;stroke-linecap:round"/>
  <g transform="translate(-592,-106) rotate(0)" > <text font-size="100.0" fill="#800" font-family="monospace"  >
   6
  </text> </g> 
  <g transform="translate(-382,-60) rotate(0)" > <text font-size="100.0" fill="#088" font-family="monospace"  >
   D4
  </text> </g> 
  <circle cx="-700" cy="-100" r="10"
    style="fill:none;stroke:#800;stroke-width:2"  />
  <line x1="-700" y1="0" x2="-400" y2="0" style="stroke:#800;stroke-width:10;stroke-opacity:1.000000;stroke-linecap:round"/>
  <g transform="translate(-592,-6) rotate(0)" > <text font-size="100.0" fill="#800" font-family="monospace"  >
   7
  </text> </g> 
  <g transform="translate(-382,40) rotate(0)" > <text font-size="100.0" fill="#088" font-family="monospace"  >
   D5
  </text> </g> 
  <circle cx="-700" cy="0" r="10"
    style="fill:none;stroke:#800;stroke-width:2"  />
  <line x1="-700" y1="100" x2="-400" y2="100" style="stroke:#800;stroke-width:10;stroke-opacity:1.000000;stroke-linecap:round"/>
  <g transform="translate(-592,94) rotate(0)" > <text font-size="100.0" fill="#800" font-family="monospace"  >
   8
  </text> </g> 
  <g transform="translate(-382,140) rotate(0)" > <text font-size="100.0" fill="#088" font-family="monospace"  >
   D6
  </text> </g> 
  <circle cx="-700" cy="100" r="10"
    style="fill:none;stroke:#800;stroke-width:2"  />
  <line x1="-700" y1="200" x2="-400" y2="200" style="stroke:#800;stroke-width:10;stroke-opacity:1.000000;stroke-linecap:round"/>
  <g transform="translate(-592,194) rotate(0)" > <text font-size="100.0" fill="#800" font-family="monospace"  >
   9
  </text> </g> 
  <g transform="translate(-382,240) rotate(0)" > <text font-size="100.0" fill="#088" font-family="monospace"  >
   D7
  </text> </g> 
  <circle cx="-700" cy="200" r="10"
    style="fill:none;stroke:#800;stroke-width:2"  />
  <line x1="-360" y1="400" x2="-400" y2="440" style="stroke:#800;stroke-width:10;stroke-opacity:1.000000;stroke-linecap:round"/>
  <line x1="-400" y1="440" x2="-400" y2="360" style="stroke:#800;stroke-width:10;stroke-opacity:1.000000;stroke-linecap:round"/>
  <line x1="-400" y1="360" x2="-360" y2="400" style="stroke:#800;stroke-width:10;stroke-opacity:1.000000;stroke-linecap:round"/>
  <line x1="-700" y1="400" x2="-400" y2="400" style="stroke:#800;stroke-width:10;stroke-opacity:1.000000;stroke-linecap:round"/>
  <g transform="translate(-635,394) rotate(0)" > <text font-size="100.0" fill="#800" font-family="monospace"  >
   11
  </text> </g> 
  <g transform="translate(-382,440) rotate(0)" > <text font-size="100.0" fill="#088" font-family="monospace"  >
   Cp
  </text> </g> 
  <circle cx="-700" cy="400" r="10"
    style="fill:none;stroke:#800;stroke-width:2"  />
  <line x1="700" y1="200" x2="400" y2="200" style="stroke:#800;stroke-width:10;stroke-opacity:1.000000;stroke-linecap:round"/>
  <g transform="translate(465,194) rotate(0)" > <text font-size="100.0" fill="#800" font-family="monospace"  >
   12
  </text> </g> 
  <g transform="translate(240,240) rotate(0)" > <text font-size="100.0" fill="#088" font-family="monospace"  >
   Q7
  </text> </g> 
  <circle cx="700" cy="200" r="10"
    style="fill:none;stroke:#800;stroke-width:2"  />
  <line x1="700" y1="100" x2="400" y2="100" style="stroke:#800;stroke-width:10;stroke-opacity:1.000000;stroke-linecap:round"/>
  <g transform="translate(465,94) rotate(0)" > <text font-size="100.0" fill="#800" font-family="monospace"  >
   13
  </text> </g> 
  <g transform="translate(240,140) rotate(0)" > <text font-size="100.0" fill="#088" font-family="monospace"  >
   Q6
  </text> </g> 
  <circle cx="700" cy="100" r="10"
    style="fill:none;stroke:#800;stroke-width:2"  />
  <line x1="700" y1="0" x2="400" y2="0" style="stroke:#800;stroke-width:10;stroke-opacity:1.000000;stroke-linecap:round"/>
  <g transform="translate(465,-6) rotate(0)" > <text font-size="100.0" fill="#800" font-family="monospace"  >
   14
  </text> </g> 
  <g transform="translate(240,40) rotate(0)" > <text font-size="100.0" fill="#088" font-family="monospace"  >
   Q5
  </text> </g> 
  <circle cx="700" cy="0" r="10"
    style="fill:none;stroke:#800;stroke-width:2"  />
  <line x1="700" y1="-100" x2="400" y2="-100" style="stroke:#800;stroke-width:10;stroke-opacity:1.000000;stroke-linecap:round"/>
  <g transform="translate(465,-106) rotate(0)" > <text font-size="100.0" fill="#800" font-family="monospace"  >
   15
  </text> </g> 
  <g transform="translate(240,-60) rotate(0)" > <text font-size="100.0" fill="#088" font-family="monospace"  >
   Q4
  </text> </g> 
  <circle cx="700" cy="-100" r="10"
    style="fill:none;stroke:#800;stroke-width:2"  />
  <line x1="700" y1="-200" x2="400" y2="-200" style="stroke:#800;stroke-width:10;stroke-opacity:1.000000;stroke-linecap:round"/>
  <g transform="translate(465,-206) rotate(0)" > <text font-size="100.0" fill="#800" font-family="monospace"  >
   16
  </text> </g> 
  <g transform="translate(240,-160) rotate(0)" > <text font-size="100.0" fill="#088" font-family="monospace"  >
   Q3
  </text> </g> 
  <circle cx="700" cy="-200" r="10"
    style="fill:none;stroke:#800;stroke-width:2"  />
  <line x1="700" y1="-300" x2="400" y2="-300" style="stroke:#800;stroke-width:10;stroke-opacity:1.000000;stroke-linecap:round"/>
  <g transform="translate(465,-306) rotate(0)" > <text font-size="100.0" fill="#800" font-family="monospace"  >
   17
  </text> </g> 
  <g transform="translate(240,-260) rotate(0)" > <text font-size="100.0" fill="#088" font-family="monospace"  >
   Q2
  </text> </g> 
  <circle cx="700" cy="-300" r="10"
    style="fill:none;stroke:#800;stroke-width:2"  />
  <line x1="700" y1="-400" x2="400" y2="-400" style="stroke:#800;stroke-width:10;stroke-opacity:1.000000;stroke-linecap:round"/>
  <g transform="translate(465,-406) rotate(0)" > <text font-size="100.0" fill="#800" font-family="monospace"  >
   18
  </text> </g> 
  <g transform="translate(240,-360) rotate(0)" > <text font-size="100.0" fill="#088" font-family="monospace"  >
   Q1
  </text> </g> 
  <circle cx="700" cy="-400" r="10"
    style="fill:none;stroke:#800;stroke-width:2"  />
  <line x1="700" y1="-500" x2="400" y2="-500" style="stroke:#800;stroke-width:10;stroke-opacity:1.000000;stroke-linecap:round"/>
  <g transform="translate(465,-506) rotate(0)" > <text font-size="100.0" fill="#800" font-family="monospace"  >
   19
  </text> </g> 
  <g transform="translate(240,-460) rotate(0)" > <text font-size="100.0" fill="#088" font-family="monospace"  >
   Q0
  </text> </g> 
  <circle cx="700" cy="-500" r="10"
    style="fill:none;stroke:#800;stroke-width:2"  />
 </g>
</svg>
