<?xml version="1.0"?>
<svg height="408" width="342"  >
 <g style="fill-opacity:1.0; stroke:black;
  stroke-width:1;" transform=" translate( 171.25,204.25 ) scale( 0.15,0.15 )">
  <g transform="translate(230,-770) rotate(0)" > <text font-size="100.0" fill="#088" font-family="monospace"  >
   U
  </text> </g> 
  <g transform="translate(80,840) rotate(0)" > <text font-size="100.0" fill="#088" font-family="monospace"  >
   74LS181
  </text> </g> 
  <g transform="translate(-15,780) rotate(-90)" > <text font-size="100.0" fill="#888" font-family="monospace"  >
   12
  </text> </g> 
  <g transform="translate(3,725) rotate(-90)" > <text font-size="50.0" fill="#888" font-family="monospace"  >
   GND
  </text> </g> 
  <circle cx="0" cy="750" r="10"
    style="fill:none;stroke:#888;stroke-width:2"  />
  <g transform="translate(-15,-720) rotate(-90)" > <text font-size="100.0" fill="#888" font-family="monospace"  >
   24
  </text> </g> 
  <g transform="translate(3,-635) rotate(-90)" > <text font-size="50.0" fill="#888" font-family="monospace"  >
   VCC
  </text> </g> 
  <circle cx="0" cy="-750" r="10"
    style="fill:none;stroke:#888;stroke-width:2"  />
  <g transform="translate(-175,-505) rotate(0)" > <text font-size="150.0" fill="#800" font-family="monospace"  >
   A
  </text> </g> 
  <g transform="translate(-175,-105) rotate(0)" > <text font-size="150.0" fill="#800" font-family="monospace"  >
   B
  </text> </g> 
  <g transform="translate(-325,325) rotate(0)" > <text font-size="83.3333333333" fill="#800" font-family="monospace"  >
   Decod
  </text> </g> 
  <g transform="translate(85,-315) rotate(0)" > <text font-size="150.0" fill="#800" font-family="monospace"  >
   S
  </text> </g> 
  <rect x="-400" y="-750" height="1500"
    width="800" style="fill:none;stroke:#800;stroke-width:10" />
  <line x1="-150" y1="300" x2="-100" y2="300" style="stroke:#800;stroke-width:10;stroke-opacity:1.000000;stroke-linecap:round"/>
  <line x1="-100" y1="300" x2="-100" y2="-50" style="stroke:#800;stroke-width:10;stroke-opacity:1.000000;stroke-linecap:round"/>
<polygon points=" -100,-50 -150,0 -50,0" 
style="fill:#800;stroke:#800;stroke-width:10"/>
  <line x1="50" y1="-80" x2="50" y2="360" style="stroke:#800;stroke-width:10;stroke-opacity:1.000000;stroke-linecap:round"/>
  <line x1="50" y1="360" x2="150" y2="360" style="stroke:#800;stroke-width:10;stroke-opacity:1.000000;stroke-linecap:round"/>
<polygon points=" 100,250 100,270 120,260" 
style="fill:#800;stroke:#800;stroke-width:10"/>
  <line x1="110" y1="260" x2="90" y2="260" style="stroke:#800;stroke-width:10;stroke-opacity:1.000000;stroke-linecap:round"/>
  <line x1="90" y1="260" x2="90" y2="-120" style="stroke:#800;stroke-width:10;stroke-opacity:1.000000;stroke-linecap:round"/>
<polygon points=" 120,340 150,360 120,370" 
style="fill:#800;stroke:#800;stroke-width:10"/>
  <line x1="-250" y1="150" x2="-250" y2="450" style="stroke:#800;stroke-width:10;stroke-opacity:1.000000;stroke-linecap:round"/>
  <line x1="-250" y1="450" x2="-150" y2="450" style="stroke:#800;stroke-width:10;stroke-opacity:1.000000;stroke-linecap:round"/>
  <line x1="-150" y1="450" x2="-150" y2="150" style="stroke:#800;stroke-width:10;stroke-opacity:1.000000;stroke-linecap:round"/>
  <line x1="-150" y1="150" x2="-250" y2="150" style="stroke:#800;stroke-width:10;stroke-opacity:1.000000;stroke-linecap:round"/>
  <line x1="-200" y1="-650" x2="-200" y2="-450" style="stroke:#800;stroke-width:10;stroke-opacity:1.000000;stroke-linecap:round"/>
  <line x1="-200" y1="-450" x2="-100" y2="-350" style="stroke:#800;stroke-width:10;stroke-opacity:1.000000;stroke-linecap:round"/>
  <line x1="-100" y1="-350" x2="-200" y2="-250" style="stroke:#800;stroke-width:10;stroke-opacity:1.000000;stroke-linecap:round"/>
  <line x1="-200" y1="-250" x2="-200" y2="-50" style="stroke:#800;stroke-width:10;stroke-opacity:1.000000;stroke-linecap:round"/>
  <line x1="-200" y1="-50" x2="0" y2="-50" style="stroke:#800;stroke-width:10;stroke-opacity:1.000000;stroke-linecap:round"/>
  <line x1="0" y1="-50" x2="200" y2="-200" style="stroke:#800;stroke-width:10;stroke-opacity:1.000000;stroke-linecap:round"/>
  <line x1="200" y1="-200" x2="200" y2="-500" style="stroke:#800;stroke-width:10;stroke-opacity:1.000000;stroke-linecap:round"/>
  <line x1="200" y1="-500" x2="0" y2="-650" style="stroke:#800;stroke-width:10;stroke-opacity:1.000000;stroke-linecap:round"/>
  <line x1="0" y1="-650" x2="-200" y2="-650" style="stroke:#800;stroke-width:10;stroke-opacity:1.000000;stroke-linecap:round"/>
  <line x1="-700" y1="-300" x2="-400" y2="-300" style="stroke:#800;stroke-width:10;stroke-opacity:1.000000;stroke-linecap:round"/>
  <g transform="translate(-592,-306) rotate(0)" > <text font-size="100.0" fill="#800" font-family="monospace"  >
   1
  </text> </g> 
  <g transform="translate(-382,-265) rotate(0)" > <text font-size="83.3333333333" fill="#088" font-family="monospace"  >
   B0
  </text> </g> 
  <circle cx="-700" cy="-300" r="10"
    style="fill:none;stroke:#800;stroke-width:2"  />
  <line x1="-700" y1="-700" x2="-400" y2="-700" style="stroke:#800;stroke-width:10;stroke-opacity:1.000000;stroke-linecap:round"/>
  <g transform="translate(-592,-706) rotate(0)" > <text font-size="100.0" fill="#800" font-family="monospace"  >
   2
  </text> </g> 
  <g transform="translate(-382,-665) rotate(0)" > <text font-size="83.3333333333" fill="#088" font-family="monospace"  >
   A0
  </text> </g> 
  <circle cx="-700" cy="-700" r="10"
    style="fill:none;stroke:#800;stroke-width:2"  />
  <line x1="-700" y1="450" x2="-400" y2="450" style="stroke:#800;stroke-width:10;stroke-opacity:1.000000;stroke-linecap:round"/>
  <g transform="translate(-592,444) rotate(0)" > <text font-size="100.0" fill="#800" font-family="monospace"  >
   3
  </text> </g> 
  <g transform="translate(-382,485) rotate(0)" > <text font-size="83.3333333333" fill="#088" font-family="monospace"  >
   S3
  </text> </g> 
  <circle cx="-700" cy="450" r="10"
    style="fill:none;stroke:#800;stroke-width:2"  />
  <line x1="-700" y1="350" x2="-400" y2="350" style="stroke:#800;stroke-width:10;stroke-opacity:1.000000;stroke-linecap:round"/>
  <g transform="translate(-592,344) rotate(0)" > <text font-size="100.0" fill="#800" font-family="monospace"  >
   4
  </text> </g> 
  <g transform="translate(-382,385) rotate(0)" > <text font-size="83.3333333333" fill="#088" font-family="monospace"  >
   S2
  </text> </g> 
  <circle cx="-700" cy="350" r="10"
    style="fill:none;stroke:#800;stroke-width:2"  />
  <line x1="-700" y1="250" x2="-400" y2="250" style="stroke:#800;stroke-width:10;stroke-opacity:1.000000;stroke-linecap:round"/>
  <g transform="translate(-592,244) rotate(0)" > <text font-size="100.0" fill="#800" font-family="monospace"  >
   5
  </text> </g> 
  <g transform="translate(-382,285) rotate(0)" > <text font-size="83.3333333333" fill="#088" font-family="monospace"  >
   S1
  </text> </g> 
  <circle cx="-700" cy="250" r="10"
    style="fill:none;stroke:#800;stroke-width:2"  />
  <line x1="-700" y1="150" x2="-400" y2="150" style="stroke:#800;stroke-width:10;stroke-opacity:1.000000;stroke-linecap:round"/>
  <g transform="translate(-592,144) rotate(0)" > <text font-size="100.0" fill="#800" font-family="monospace"  >
   6
  </text> </g> 
  <g transform="translate(-382,185) rotate(0)" > <text font-size="83.3333333333" fill="#088" font-family="monospace"  >
   S0
  </text> </g> 
  <circle cx="-700" cy="150" r="10"
    style="fill:none;stroke:#800;stroke-width:2"  />
  <line x1="-700" y1="700" x2="-470" y2="700" style="stroke:#800;stroke-width:10;stroke-opacity:1.000000;stroke-linecap:round"/>
  <circle cx="-435" cy="700" r="35"
    style="fill:none;stroke:#800;stroke-width:10"  />
  <g transform="translate(-592,694) rotate(0)" > <text font-size="100.0" fill="#800" font-family="monospace"  >
   7
  </text> </g> 
  <g transform="translate(-382,740) rotate(0)" > <text font-size="100.0" fill="#088" font-family="monospace"  >
   Cn
  </text> </g> 
  <circle cx="-700" cy="700" r="10"
    style="fill:none;stroke:#800;stroke-width:2"  />
  <line x1="-700" y1="600" x2="-400" y2="600" style="stroke:#800;stroke-width:10;stroke-opacity:1.000000;stroke-linecap:round"/>
  <g transform="translate(-592,594) rotate(0)" > <text font-size="100.0" fill="#800" font-family="monospace"  >
   8
  </text> </g> 
  <g transform="translate(-382,640) rotate(0)" > <text font-size="100.0" fill="#088" font-family="monospace"  >
   M
  </text> </g> 
  <circle cx="-700" cy="600" r="10"
    style="fill:none;stroke:#800;stroke-width:2"  />
  <line x1="700" y1="-500" x2="400" y2="-500" style="stroke:#800;stroke-width:10;stroke-opacity:1.000000;stroke-linecap:round"/>
  <g transform="translate(507,-506) rotate(0)" > <text font-size="100.0" fill="#800" font-family="monospace"  >
   9
  </text> </g> 
  <g transform="translate(240,-460) rotate(0)" > <text font-size="100.0" fill="#088" font-family="monospace"  >
   F0
  </text> </g> 
  <circle cx="700" cy="-500" r="10"
    style="fill:none;stroke:#800;stroke-width:2"  />
  <line x1="700" y1="-400" x2="400" y2="-400" style="stroke:#800;stroke-width:10;stroke-opacity:1.000000;stroke-linecap:round"/>
  <g transform="translate(465,-406) rotate(0)" > <text font-size="100.0" fill="#800" font-family="monospace"  >
   10
  </text> </g> 
  <g transform="translate(240,-360) rotate(0)" > <text font-size="100.0" fill="#088" font-family="monospace"  >
   F1
  </text> </g> 
  <circle cx="700" cy="-400" r="10"
    style="fill:none;stroke:#800;stroke-width:2"  />
  <line x1="-700" y1="-100" x2="-400" y2="-100" style="stroke:#800;stroke-width:10;stroke-opacity:1.000000;stroke-linecap:round"/>
  <g transform="translate(-635,-106) rotate(0)" > <text font-size="100.0" fill="#800" font-family="monospace"  >
   20
  </text> </g> 
  <g transform="translate(-382,-65) rotate(0)" > <text font-size="83.3333333333" fill="#088" font-family="monospace"  >
   B2
  </text> </g> 
  <circle cx="-700" cy="-100" r="10"
    style="fill:none;stroke:#800;stroke-width:2"  />
  <line x1="700" y1="-300" x2="400" y2="-300" style="stroke:#800;stroke-width:10;stroke-opacity:1.000000;stroke-linecap:round"/>
  <g transform="translate(465,-306) rotate(0)" > <text font-size="100.0" fill="#800" font-family="monospace"  >
   11
  </text> </g> 
  <g transform="translate(240,-260) rotate(0)" > <text font-size="100.0" fill="#088" font-family="monospace"  >
   F2
  </text> </g> 
  <circle cx="700" cy="-300" r="10"
    style="fill:none;stroke:#800;stroke-width:2"  />
  <line x1="-700" y1="-500" x2="-400" y2="-500" style="stroke:#800;stroke-width:10;stroke-opacity:1.000000;stroke-linecap:round"/>
  <g transform="translate(-635,-506) rotate(0)" > <text font-size="100.0" fill="#800" font-family="monospace"  >
   21
  </text> </g> 
  <g transform="translate(-382,-465) rotate(0)" > <text font-size="83.3333333333" fill="#088" font-family="monospace"  >
   A2
  </text> </g> 
  <circle cx="-700" cy="-500" r="10"
    style="fill:none;stroke:#800;stroke-width:2"  />
  <line x1="-700" y1="-200" x2="-400" y2="-200" style="stroke:#800;stroke-width:10;stroke-opacity:1.000000;stroke-linecap:round"/>
  <g transform="translate(-635,-206) rotate(0)" > <text font-size="100.0" fill="#800" font-family="monospace"  >
   22
  </text> </g> 
  <g transform="translate(-382,-165) rotate(0)" > <text font-size="83.3333333333" fill="#088" font-family="monospace"  >
   B1
  </text> </g> 
  <circle cx="-700" cy="-200" r="10"
    style="fill:none;stroke:#800;stroke-width:2"  />
  <line x1="700" y1="-200" x2="400" y2="-200" style="stroke:#800;stroke-width:10;stroke-opacity:1.000000;stroke-linecap:round"/>
  <g transform="translate(465,-206) rotate(0)" > <text font-size="100.0" fill="#800" font-family="monospace"  >
   13
  </text> </g> 
  <g transform="translate(240,-160) rotate(0)" > <text font-size="100.0" fill="#088" font-family="monospace"  >
   F3
  </text> </g> 
  <circle cx="700" cy="-200" r="10"
    style="fill:none;stroke:#800;stroke-width:2"  />
  <line x1="-700" y1="-600" x2="-400" y2="-600" style="stroke:#800;stroke-width:10;stroke-opacity:1.000000;stroke-linecap:round"/>
  <g transform="translate(-635,-606) rotate(0)" > <text font-size="100.0" fill="#800" font-family="monospace"  >
   23
  </text> </g> 
  <g transform="translate(-382,-565) rotate(0)" > <text font-size="83.3333333333" fill="#088" font-family="monospace"  >
   A1
  </text> </g> 
  <circle cx="-700" cy="-600" r="10"
    style="fill:none;stroke:#800;stroke-width:2"  />
  <line x1="700" y1="350" x2="400" y2="350" style="stroke:#800;stroke-width:10;stroke-opacity:1.000000;stroke-linecap:round"/>
  <g transform="translate(465,344) rotate(0)" > <text font-size="100.0" fill="#800" font-family="monospace"  >
   14
  </text> </g> 
  <g transform="translate(180,390) rotate(0)" > <text font-size="100.0" fill="#088" font-family="monospace"  >
   A=B
  </text> </g> 
  <circle cx="700" cy="350" r="10"
    style="fill:none;stroke:#800;stroke-width:2"  />
  <line x1="700" y1="650" x2="400" y2="650" style="stroke:#800;stroke-width:10;stroke-opacity:1.000000;stroke-linecap:round"/>
  <g transform="translate(465,644) rotate(0)" > <text font-size="100.0" fill="#800" font-family="monospace"  >
   15
  </text> </g> 
  <g transform="translate(300,690) rotate(0)" > <text font-size="100.0" fill="#088" font-family="monospace"  >
   X
  </text> </g> 
  <circle cx="700" cy="650" r="10"
    style="fill:none;stroke:#800;stroke-width:2"  />
  <line x1="700" y1="250" x2="470" y2="250" style="stroke:#800;stroke-width:10;stroke-opacity:1.000000;stroke-linecap:round"/>
  <circle cx="435" cy="250" r="35"
    style="fill:none;stroke:#800;stroke-width:10"  />
  <g transform="translate(465,244) rotate(0)" > <text font-size="100.0" fill="#800" font-family="monospace"  >
   16
  </text> </g> 
  <g transform="translate(120,290) rotate(0)" > <text font-size="100.0" fill="#088" font-family="monospace"  >
   Cn+4
  </text> </g> 
  <circle cx="700" cy="250" r="10"
    style="fill:none;stroke:#800;stroke-width:2"  />
  <line x1="700" y1="550" x2="400" y2="550" style="stroke:#800;stroke-width:10;stroke-opacity:1.000000;stroke-linecap:round"/>
  <g transform="translate(465,544) rotate(0)" > <text font-size="100.0" fill="#800" font-family="monospace"  >
   17
  </text> </g> 
  <g transform="translate(300,590) rotate(0)" > <text font-size="100.0" fill="#088" font-family="monospace"  >
   Y
  </text> </g> 
  <circle cx="700" cy="550" r="10"
    style="fill:none;stroke:#800;stroke-width:2"  />
  <line x1="-700" y1="0" x2="-400" y2="0" style="stroke:#800;stroke-width:10;stroke-opacity:1.000000;stroke-linecap:round"/>
  <g transform="translate(-635,-6) rotate(0)" > <text font-size="100.0" fill="#800" font-family="monospace"  >
   18
  </text> </g> 
  <g transform="translate(-382,35) rotate(0)" > <text font-size="83.3333333333" fill="#088" font-family="monospace"  >
   B3
  </text> </g> 
  <circle cx="-700" cy="0" r="10"
    style="fill:none;stroke:#800;stroke-width:2"  />
  <line x1="-700" y1="-400" x2="-400" y2="-400" style="stroke:#800;stroke-width:10;stroke-opacity:1.000000;stroke-linecap:round"/>
  <g transform="translate(-635,-406) rotate(0)" > <text font-size="100.0" fill="#800" font-family="monospace"  >
   19
  </text> </g> 
  <g transform="translate(-382,-365) rotate(0)" > <text font-size="83.3333333333" fill="#088" font-family="monospace"  >
   A3
  </text> </g> 
  <circle cx="-700" cy="-400" r="10"
    style="fill:none;stroke:#800;stroke-width:2"  />
 </g>
</svg>
