<?xml version="1.0"?>
<svg height="305" width="305"  >
 <g style="fill-opacity:1.0; stroke:black;
  stroke-width:1;" transform=" translate( 152.5,152.5 ) scale( 0.15,0.15 )">
  <g transform="translate(-30,-70) rotate(0)" > <text font-size="100.0" fill="#088" font-family="monospace"  >
   U
  </text> </g> 
  <g transform="translate(-180,130) rotate(0)" > <text font-size="100.0" fill="#088" font-family="monospace"  >
   74LS48
  </text> </g> 
  <g transform="translate(-315,415) rotate(-90)" > <text font-size="100.0" fill="#888" font-family="monospace"  >
   8
  </text> </g> 
  <g transform="translate(-292,350) rotate(-90)" > <text font-size="100.0" fill="#888" font-family="monospace"  >
   GND
  </text> </g> 
  <circle cx="-300" cy="400" r="10"
    style="fill:none;stroke:#888;stroke-width:2"  />
  <g transform="translate(-315,-370) rotate(-90)" > <text font-size="100.0" fill="#888" font-family="monospace"  >
   16
  </text> </g> 
  <g transform="translate(-292,-450) rotate(-90)" > <text font-size="100.0" fill="#888" font-family="monospace"  >
   VCC
  </text> </g> 
  <circle cx="-300" cy="-400" r="10"
    style="fill:none;stroke:#888;stroke-width:2"  />
  <rect x="-400" y="-400" height="800"
    width="800" style="fill:none;stroke:#800;stroke-width:10" />
  <line x1="-700" y1="-250" x2="-400" y2="-250" style="stroke:#800;stroke-width:10;stroke-opacity:1.000000;stroke-linecap:round"/>
  <g transform="translate(-592,-256) rotate(0)" > <text font-size="100.0" fill="#800" font-family="monospace"  >
   1
  </text> </g> 
  <g transform="translate(-382,-210) rotate(0)" > <text font-size="100.0" fill="#088" font-family="monospace"  >
   B
  </text> </g> 
  <circle cx="-700" cy="-250" r="10"
    style="fill:none;stroke:#800;stroke-width:2"  />
  <line x1="-700" y1="-150" x2="-400" y2="-150" style="stroke:#800;stroke-width:10;stroke-opacity:1.000000;stroke-linecap:round"/>
  <g transform="translate(-592,-156) rotate(0)" > <text font-size="100.0" fill="#800" font-family="monospace"  >
   2
  </text> </g> 
  <g transform="translate(-382,-110) rotate(0)" > <text font-size="100.0" fill="#088" font-family="monospace"  >
   C
  </text> </g> 
  <circle cx="-700" cy="-150" r="10"
    style="fill:none;stroke:#800;stroke-width:2"  />
  <line x1="-700" y1="150" x2="-470" y2="150" style="stroke:#800;stroke-width:10;stroke-opacity:1.000000;stroke-linecap:round"/>
  <circle cx="-435" cy="150" r="35"
    style="fill:none;stroke:#800;stroke-width:10"  />
  <g transform="translate(-592,144) rotate(0)" > <text font-size="100.0" fill="#800" font-family="monospace"  >
   3
  </text> </g> 
  <g transform="translate(-382,190) rotate(0)" > <text font-size="100.0" fill="#088" font-family="monospace"  >
   LT
  </text> </g> 
  <circle cx="-700" cy="150" r="10"
    style="fill:none;stroke:#800;stroke-width:2"  />
  <line x1="-700" y1="250" x2="-470" y2="250" style="stroke:#800;stroke-width:10;stroke-opacity:1.000000;stroke-linecap:round"/>
  <circle cx="-435" cy="250" r="35"
    style="fill:none;stroke:#800;stroke-width:10"  />
  <g transform="translate(-592,244) rotate(0)" > <text font-size="100.0" fill="#800" font-family="monospace"  >
   4
  </text> </g> 
  <g transform="translate(-382,290) rotate(0)" > <text font-size="100.0" fill="#088" font-family="monospace"  >
   BI
  </text> </g> 
  <circle cx="-700" cy="250" r="10"
    style="fill:none;stroke:#800;stroke-width:2"  />
  <line x1="-700" y1="350" x2="-470" y2="350" style="stroke:#800;stroke-width:10;stroke-opacity:1.000000;stroke-linecap:round"/>
  <circle cx="-435" cy="350" r="35"
    style="fill:none;stroke:#800;stroke-width:10"  />
  <g transform="translate(-592,344) rotate(0)" > <text font-size="100.0" fill="#800" font-family="monospace"  >
   5
  </text> </g> 
  <g transform="translate(-382,390) rotate(0)" > <text font-size="100.0" fill="#088" font-family="monospace"  >
   RBI
  </text> </g> 
  <circle cx="-700" cy="350" r="10"
    style="fill:none;stroke:#800;stroke-width:2"  />
  <line x1="-700" y1="-50" x2="-400" y2="-50" style="stroke:#800;stroke-width:10;stroke-opacity:1.000000;stroke-linecap:round"/>
  <g transform="translate(-592,-56) rotate(0)" > <text font-size="100.0" fill="#800" font-family="monospace"  >
   6
  </text> </g> 
  <g transform="translate(-382,-10) rotate(0)" > <text font-size="100.0" fill="#088" font-family="monospace"  >
   D
  </text> </g> 
  <circle cx="-700" cy="-50" r="10"
    style="fill:none;stroke:#800;stroke-width:2"  />
  <line x1="-700" y1="-350" x2="-400" y2="-350" style="stroke:#800;stroke-width:10;stroke-opacity:1.000000;stroke-linecap:round"/>
  <g transform="translate(-592,-356) rotate(0)" > <text font-size="100.0" fill="#800" font-family="monospace"  >
   7
  </text> </g> 
  <g transform="translate(-382,-310) rotate(0)" > <text font-size="100.0" fill="#088" font-family="monospace"  >
   A
  </text> </g> 
  <circle cx="-700" cy="-350" r="10"
    style="fill:none;stroke:#800;stroke-width:2"  />
  <line x1="700" y1="50" x2="400" y2="50" style="stroke:#800;stroke-width:10;stroke-opacity:1.000000;stroke-linecap:round"/>
  <g transform="translate(507,44) rotate(0)" > <text font-size="100.0" fill="#800" font-family="monospace"  >
   9
  </text> </g> 
  <g transform="translate(300,90) rotate(0)" > <text font-size="100.0" fill="#088" font-family="monospace"  >
   e
  </text> </g> 
  <circle cx="700" cy="50" r="10"
    style="fill:none;stroke:#800;stroke-width:2"  />
  <line x1="700" y1="-50" x2="400" y2="-50" style="stroke:#800;stroke-width:10;stroke-opacity:1.000000;stroke-linecap:round"/>
  <g transform="translate(465,-56) rotate(0)" > <text font-size="100.0" fill="#800" font-family="monospace"  >
   10
  </text> </g> 
  <g transform="translate(300,-10) rotate(0)" > <text font-size="100.0" fill="#088" font-family="monospace"  >
   d
  </text> </g> 
  <circle cx="700" cy="-50" r="10"
    style="fill:none;stroke:#800;stroke-width:2"  />
  <line x1="700" y1="-150" x2="400" y2="-150" style="stroke:#800;stroke-width:10;stroke-opacity:1.000000;stroke-linecap:round"/>
  <g transform="translate(465,-156) rotate(0)" > <text font-size="100.0" fill="#800" font-family="monospace"  >
   11
  </text> </g> 
  <g transform="translate(300,-110) rotate(0)" > <text font-size="100.0" fill="#088" font-family="monospace"  >
   c
  </text> </g> 
  <circle cx="700" cy="-150" r="10"
    style="fill:none;stroke:#800;stroke-width:2"  />
  <line x1="700" y1="-250" x2="400" y2="-250" style="stroke:#800;stroke-width:10;stroke-opacity:1.000000;stroke-linecap:round"/>
  <g transform="translate(465,-256) rotate(0)" > <text font-size="100.0" fill="#800" font-family="monospace"  >
   12
  </text> </g> 
  <g transform="translate(300,-210) rotate(0)" > <text font-size="100.0" fill="#088" font-family="monospace"  >
   b
  </text> </g> 
  <circle cx="700" cy="-250" r="10"
    style="fill:none;stroke:#800;stroke-width:2"  />
  <line x1="700" y1="-350" x2="400" y2="-350" style="stroke:#800;stroke-width:10;stroke-opacity:1.000000;stroke-linecap:round"/>
  <g transform="translate(465,-356) rotate(0)" > <text font-size="100.0" fill="#800" font-family="monospace"  >
   13
  </text> </g> 
  <g transform="translate(300,-310) rotate(0)" > <text font-size="100.0" fill="#088" font-family="monospace"  >
   a
  </text> </g> 
  <circle cx="700" cy="-350" r="10"
    style="fill:none;stroke:#800;stroke-width:2"  />
  <line x1="700" y1="250" x2="400" y2="250" style="stroke:#800;stroke-width:10;stroke-opacity:1.000000;stroke-linecap:round"/>
  <g transform="translate(465,244) rotate(0)" > <text font-size="100.0" fill="#800" font-family="monospace"  >
   14
  </text> </g> 
  <g transform="translate(300,290) rotate(0)" > <text font-size="100.0" fill="#088" font-family="monospace"  >
   g
  </text> </g> 
  <circle cx="700" cy="250" r="10"
    style="fill:none;stroke:#800;stroke-width:2"  />
  <line x1="700" y1="150" x2="400" y2="150" style="stroke:#800;stroke-width:10;stroke-opacity:1.000000;stroke-linecap:round"/>
  <g transform="translate(465,144) rotate(0)" > <text font-size="100.0" fill="#800" font-family="monospace"  >
   15
  </text> </g> 
  <g transform="translate(300,190) rotate(0)" > <text font-size="100.0" fill="#088" font-family="monospace"  >
   f
  </text> </g> 
  <circle cx="700" cy="150" r="10"
    style="fill:none;stroke:#800;stroke-width:2"  />
 </g>
</svg>
