<?xml version="1.0"?>
<svg height="335" width="335"  >
 <g style="fill-opacity:1.0; stroke:black;
  stroke-width:1;" transform=" translate( 167.5,167.5 ) scale( 0.15,0.15 )">
  <g transform="translate(-30,-170) rotate(0)" > <text font-size="100.0" fill="#088" font-family="monospace"  >
   U
  </text> </g> 
  <g transform="translate(-260,30) rotate(0)" > <text font-size="100.0" fill="#088" font-family="monospace"  >
   74LS137
  </text> </g> 
  <g transform="translate(-415,-570) rotate(-90)" > <text font-size="100.0" fill="#888" font-family="monospace"  >
   16
  </text> </g> 
  <g transform="translate(-392,-650) rotate(-90)" > <text font-size="100.0" fill="#888" font-family="monospace"  >
   VCC
  </text> </g> 
  <circle cx="-400" cy="-600" r="10"
    style="fill:none;stroke:#888;stroke-width:2"  />
  <line x1="-500" y1="-600" x2="500" y2="-600" style="stroke:#800;stroke-width:10;stroke-opacity:1.000000;stroke-linecap:round"/>
  <line x1="500" y1="-600" x2="500" y2="600" style="stroke:#800;stroke-width:10;stroke-opacity:1.000000;stroke-linecap:round"/>
  <line x1="500" y1="600" x2="-500" y2="600" style="stroke:#800;stroke-width:10;stroke-opacity:1.000000;stroke-linecap:round"/>
  <line x1="-500" y1="600" x2="-500" y2="-600" style="stroke:#800;stroke-width:10;stroke-opacity:1.000000;stroke-linecap:round"/>
  <line x1="-800" y1="-450" x2="-500" y2="-450" style="stroke:#800;stroke-width:10;stroke-opacity:1.000000;stroke-linecap:round"/>
  <g transform="translate(-692,-456) rotate(0)" > <text font-size="100.0" fill="#800" font-family="monospace"  >
   1
  </text> </g> 
  <g transform="translate(-482,-410) rotate(0)" > <text font-size="100.0" fill="#088" font-family="monospace"  >
   A0
  </text> </g> 
  <circle cx="-800" cy="-450" r="10"
    style="fill:none;stroke:#800;stroke-width:2"  />
  <line x1="-800" y1="-300" x2="-500" y2="-300" style="stroke:#800;stroke-width:10;stroke-opacity:1.000000;stroke-linecap:round"/>
  <g transform="translate(-692,-306) rotate(0)" > <text font-size="100.0" fill="#800" font-family="monospace"  >
   2
  </text> </g> 
  <g transform="translate(-482,-260) rotate(0)" > <text font-size="100.0" fill="#088" font-family="monospace"  >
   A1
  </text> </g> 
  <circle cx="-800" cy="-300" r="10"
    style="fill:none;stroke:#800;stroke-width:2"  />
  <line x1="-800" y1="-150" x2="-500" y2="-150" style="stroke:#800;stroke-width:10;stroke-opacity:1.000000;stroke-linecap:round"/>
  <g transform="translate(-692,-156) rotate(0)" > <text font-size="100.0" fill="#800" font-family="monospace"  >
   3
  </text> </g> 
  <g transform="translate(-482,-110) rotate(0)" > <text font-size="100.0" fill="#088" font-family="monospace"  >
   A2
  </text> </g> 
  <circle cx="-800" cy="-150" r="10"
    style="fill:none;stroke:#800;stroke-width:2"  />
  <line x1="-800" y1="150" x2="-570" y2="150" style="stroke:#800;stroke-width:10;stroke-opacity:1.000000;stroke-linecap:round"/>
  <circle cx="-535" cy="150" r="35"
    style="fill:none;stroke:#800;stroke-width:10"  />
  <g transform="translate(-692,144) rotate(0)" > <text font-size="100.0" fill="#800" font-family="monospace"  >
   4
  </text> </g> 
  <g transform="translate(-482,190) rotate(0)" > <text font-size="100.0" fill="#088" font-family="monospace"  >
   ~Gl
  </text> </g> 
  <circle cx="-800" cy="150" r="10"
    style="fill:none;stroke:#800;stroke-width:2"  />
  <line x1="-800" y1="300" x2="-570" y2="300" style="stroke:#800;stroke-width:10;stroke-opacity:1.000000;stroke-linecap:round"/>
  <circle cx="-535" cy="300" r="35"
    style="fill:none;stroke:#800;stroke-width:10"  />
  <g transform="translate(-692,294) rotate(0)" > <text font-size="100.0" fill="#800" font-family="monospace"  >
   5
  </text> </g> 
  <g transform="translate(-482,340) rotate(0)" > <text font-size="100.0" fill="#088" font-family="monospace"  >
   ~G2
  </text> </g> 
  <circle cx="-800" cy="300" r="10"
    style="fill:none;stroke:#800;stroke-width:2"  />
  <line x1="-800" y1="450" x2="-500" y2="450" style="stroke:#800;stroke-width:10;stroke-opacity:1.000000;stroke-linecap:round"/>
  <g transform="translate(-692,444) rotate(0)" > <text font-size="100.0" fill="#800" font-family="monospace"  >
   6
  </text> </g> 
  <g transform="translate(-482,490) rotate(0)" > <text font-size="100.0" fill="#088" font-family="monospace"  >
   G1
  </text> </g> 
  <circle cx="-800" cy="450" r="10"
    style="fill:none;stroke:#800;stroke-width:2"  />
  <line x1="800" y1="-500" x2="570" y2="-500" style="stroke:#800;stroke-width:10;stroke-opacity:1.000000;stroke-linecap:round"/>
  <circle cx="535" cy="-500" r="35"
    style="fill:none;stroke:#800;stroke-width:10"  />
  <g transform="translate(607,-506) rotate(0)" > <text font-size="100.0" fill="#800" font-family="monospace"  >
   7
  </text> </g> 
  <g transform="translate(340,-460) rotate(0)" > <text font-size="100.0" fill="#088" font-family="monospace"  >
   Y7
  </text> </g> 
  <circle cx="800" cy="-500" r="10"
    style="fill:none;stroke:#800;stroke-width:2"  />
  <g transform="translate(-415,615) rotate(-90)" > <text font-size="100.0" fill="#888" font-family="monospace"  >
   8
  </text> </g> 
  <g transform="translate(-392,550) rotate(-90)" > <text font-size="100.0" fill="#888" font-family="monospace"  >
   GND
  </text> </g> 
  <circle cx="-400" cy="600" r="10"
    style="fill:none;stroke:#888;stroke-width:2"  />
  <line x1="800" y1="-350" x2="570" y2="-350" style="stroke:#800;stroke-width:10;stroke-opacity:1.000000;stroke-linecap:round"/>
  <circle cx="535" cy="-350" r="35"
    style="fill:none;stroke:#800;stroke-width:10"  />
  <g transform="translate(607,-356) rotate(0)" > <text font-size="100.0" fill="#800" font-family="monospace"  >
   9
  </text> </g> 
  <g transform="translate(340,-310) rotate(0)" > <text font-size="100.0" fill="#088" font-family="monospace"  >
   Y6
  </text> </g> 
  <circle cx="800" cy="-350" r="10"
    style="fill:none;stroke:#800;stroke-width:2"  />
  <line x1="800" y1="-200" x2="570" y2="-200" style="stroke:#800;stroke-width:10;stroke-opacity:1.000000;stroke-linecap:round"/>
  <circle cx="535" cy="-200" r="35"
    style="fill:none;stroke:#800;stroke-width:10"  />
  <g transform="translate(565,-206) rotate(0)" > <text font-size="100.0" fill="#800" font-family="monospace"  >
   10
  </text> </g> 
  <g transform="translate(340,-160) rotate(0)" > <text font-size="100.0" fill="#088" font-family="monospace"  >
   Y5
  </text> </g> 
  <circle cx="800" cy="-200" r="10"
    style="fill:none;stroke:#800;stroke-width:2"  />
  <line x1="800" y1="-50" x2="570" y2="-50" style="stroke:#800;stroke-width:10;stroke-opacity:1.000000;stroke-linecap:round"/>
  <circle cx="535" cy="-50" r="35"
    style="fill:none;stroke:#800;stroke-width:10"  />
  <g transform="translate(565,-56) rotate(0)" > <text font-size="100.0" fill="#800" font-family="monospace"  >
   11
  </text> </g> 
  <g transform="translate(340,-10) rotate(0)" > <text font-size="100.0" fill="#088" font-family="monospace"  >
   Y4
  </text> </g> 
  <circle cx="800" cy="-50" r="10"
    style="fill:none;stroke:#800;stroke-width:2"  />
  <line x1="800" y1="100" x2="570" y2="100" style="stroke:#800;stroke-width:10;stroke-opacity:1.000000;stroke-linecap:round"/>
  <circle cx="535" cy="100" r="35"
    style="fill:none;stroke:#800;stroke-width:10"  />
  <g transform="translate(565,94) rotate(0)" > <text font-size="100.0" fill="#800" font-family="monospace"  >
   12
  </text> </g> 
  <g transform="translate(340,140) rotate(0)" > <text font-size="100.0" fill="#088" font-family="monospace"  >
   Y3
  </text> </g> 
  <circle cx="800" cy="100" r="10"
    style="fill:none;stroke:#800;stroke-width:2"  />
  <line x1="800" y1="250" x2="570" y2="250" style="stroke:#800;stroke-width:10;stroke-opacity:1.000000;stroke-linecap:round"/>
  <circle cx="535" cy="250" r="35"
    style="fill:none;stroke:#800;stroke-width:10"  />
  <g transform="translate(565,244) rotate(0)" > <text font-size="100.0" fill="#800" font-family="monospace"  >
   13
  </text> </g> 
  <g transform="translate(340,290) rotate(0)" > <text font-size="100.0" fill="#088" font-family="monospace"  >
   Y2
  </text> </g> 
  <circle cx="800" cy="250" r="10"
    style="fill:none;stroke:#800;stroke-width:2"  />
  <line x1="800" y1="400" x2="570" y2="400" style="stroke:#800;stroke-width:10;stroke-opacity:1.000000;stroke-linecap:round"/>
  <circle cx="535" cy="400" r="35"
    style="fill:none;stroke:#800;stroke-width:10"  />
  <g transform="translate(565,394) rotate(0)" > <text font-size="100.0" fill="#800" font-family="monospace"  >
   14
  </text> </g> 
  <g transform="translate(340,440) rotate(0)" > <text font-size="100.0" fill="#088" font-family="monospace"  >
   Y1
  </text> </g> 
  <circle cx="800" cy="400" r="10"
    style="fill:none;stroke:#800;stroke-width:2"  />
  <line x1="800" y1="550" x2="570" y2="550" style="stroke:#800;stroke-width:10;stroke-opacity:1.000000;stroke-linecap:round"/>
  <circle cx="535" cy="550" r="35"
    style="fill:none;stroke:#800;stroke-width:10"  />
  <g transform="translate(565,544) rotate(0)" > <text font-size="100.0" fill="#800" font-family="monospace"  >
   15
  </text> </g> 
  <g transform="translate(340,590) rotate(0)" > <text font-size="100.0" fill="#088" font-family="monospace"  >
   Y0
  </text> </g> 
  <circle cx="800" cy="550" r="10"
    style="fill:none;stroke:#800;stroke-width:2"  />
 </g>
</svg>
