<?xml version="1.0"?>
<svg height="260" width="260"  >
 <g style="fill-opacity:1.0; stroke:black;
  stroke-width:1;" transform=" translate( 130.0,130.0 ) scale( 0.15,0.15 )">
  <g transform="translate(20,-20) rotate(0)" > <text font-size="100.0" fill="#088" font-family="monospace"  >
   U
  </text> </g> 
  <g transform="translate(-100,75) rotate(0)" > <text font-size="83.3333333333" fill="#088" font-family="monospace"  >
   74LS76
  </text> </g> 
  <g transform="translate(-215,-235) rotate(-90)" > <text font-size="100.0" fill="#888" font-family="monospace"  >
   5
  </text> </g> 
  <g transform="translate(-192,-300) rotate(-90)" > <text font-size="100.0" fill="#888" font-family="monospace"  >
   VCC
  </text> </g> 
  <circle cx="-200" cy="-250" r="10"
    style="fill:none;stroke:#888;stroke-width:2"  />
  <g transform="translate(-215,280) rotate(-90)" > <text font-size="100.0" fill="#888" font-family="monospace"  >
   13
  </text> </g> 
  <g transform="translate(-192,200) rotate(-90)" > <text font-size="100.0" fill="#888" font-family="monospace"  >
   GND
  </text> </g> 
  <circle cx="-200" cy="250" r="10"
    style="fill:none;stroke:#888;stroke-width:2"  />
  <rect x="-300" y="-250" height="500"
    width="600" style="fill:none;stroke:#800;stroke-width:10" />
  <line x1="-260" y1="0" x2="-300" y2="40" style="stroke:#800;stroke-width:10;stroke-opacity:1.000000;stroke-linecap:round"/>
  <line x1="-300" y1="40" x2="-300" y2="-40" style="stroke:#800;stroke-width:10;stroke-opacity:1.000000;stroke-linecap:round"/>
  <line x1="-300" y1="-40" x2="-260" y2="0" style="stroke:#800;stroke-width:10;stroke-opacity:1.000000;stroke-linecap:round"/>
  <line x1="-600" y1="0" x2="-370" y2="0" style="stroke:#800;stroke-width:10;stroke-opacity:1.000000;stroke-linecap:round"/>
  <circle cx="-335" cy="0" r="35"
    style="fill:none;stroke:#800;stroke-width:10"  />
  <g transform="translate(-492,-6) rotate(0)" > <text font-size="100.0" fill="#800" font-family="monospace"  >
   1
  </text> </g> 
  <g transform="translate(-282,40) rotate(0)" > <text font-size="100.0" fill="#088" font-family="monospace"  >
   Cp
  </text> </g> 
  <circle cx="-600" cy="0" r="10"
    style="fill:none;stroke:#800;stroke-width:2"  />
  <line x1="0" y1="-550" x2="0" y2="-320" style="stroke:#800;stroke-width:10;stroke-opacity:1.000000;stroke-linecap:round"/>
  <circle cx="0" cy="-285" r="35"
    style="fill:none;stroke:#800;stroke-width:10"  />
  <g transform="translate(-15,-385) rotate(-90)" > <text font-size="100.0" fill="#800" font-family="monospace"  >
   2
  </text> </g> 
  <g transform="translate(7,-80) rotate(-90)" > <text font-size="100.0" fill="#088" font-family="monospace"  >
   Sd
  </text> </g> 
  <circle cx="0" cy="-550" r="10"
    style="fill:none;stroke:#800;stroke-width:2"  />
  <line x1="0" y1="550" x2="0" y2="320" style="stroke:#800;stroke-width:10;stroke-opacity:1.000000;stroke-linecap:round"/>
  <circle cx="0" cy="285" r="35"
    style="fill:none;stroke:#800;stroke-width:10"  />
  <g transform="translate(-15,415) rotate(-90)" > <text font-size="100.0" fill="#800" font-family="monospace"  >
   3
  </text> </g> 
  <g transform="translate(7,200) rotate(-90)" > <text font-size="100.0" fill="#088" font-family="monospace"  >
   Cd
  </text> </g> 
  <circle cx="0" cy="550" r="10"
    style="fill:none;stroke:#800;stroke-width:2"  />
  <line x1="-600" y1="200" x2="-300" y2="200" style="stroke:#800;stroke-width:10;stroke-opacity:1.000000;stroke-linecap:round"/>
  <g transform="translate(-492,194) rotate(0)" > <text font-size="100.0" fill="#800" font-family="monospace"  >
   4
  </text> </g> 
  <g transform="translate(-282,240) rotate(0)" > <text font-size="100.0" fill="#088" font-family="monospace"  >
   J
  </text> </g> 
  <circle cx="-600" cy="200" r="10"
    style="fill:none;stroke:#800;stroke-width:2"  />
  <line x1="600" y1="200" x2="370" y2="200" style="stroke:#800;stroke-width:10;stroke-opacity:1.000000;stroke-linecap:round"/>
  <circle cx="335" cy="200" r="35"
    style="fill:none;stroke:#800;stroke-width:10"  />
  <g transform="translate(365,194) rotate(0)" > <text font-size="100.0" fill="#800" font-family="monospace"  >
   14
  </text> </g> 
  <g transform="translate(140,240) rotate(0)" > <text font-size="100.0" fill="#088" font-family="monospace"  >
   ~Q
  </text> </g> 
  <circle cx="600" cy="200" r="10"
    style="fill:none;stroke:#800;stroke-width:2"  />
  <line x1="600" y1="-200" x2="300" y2="-200" style="stroke:#800;stroke-width:10;stroke-opacity:1.000000;stroke-linecap:round"/>
  <g transform="translate(365,-206) rotate(0)" > <text font-size="100.0" fill="#800" font-family="monospace"  >
   15
  </text> </g> 
  <g transform="translate(200,-160) rotate(0)" > <text font-size="100.0" fill="#088" font-family="monospace"  >
   Q
  </text> </g> 
  <circle cx="600" cy="-200" r="10"
    style="fill:none;stroke:#800;stroke-width:2"  />
  <line x1="-600" y1="-200" x2="-300" y2="-200" style="stroke:#800;stroke-width:10;stroke-opacity:1.000000;stroke-linecap:round"/>
  <g transform="translate(-535,-206) rotate(0)" > <text font-size="100.0" fill="#800" font-family="monospace"  >
   16
  </text> </g> 
  <g transform="translate(-282,-160) rotate(0)" > <text font-size="100.0" fill="#088" font-family="monospace"  >
   K
  </text> </g> 
  <circle cx="-600" cy="-200" r="10"
    style="fill:none;stroke:#800;stroke-width:2"  />
 </g>
</svg>
