<?xml version="1.0"?>
<svg height="574" width="520"  >
 <g style="fill-opacity:1.0; stroke:black;
  stroke-width:1;" transform=" translate( 260.45,287.475 ) scale( 0.15,0.15 )">
  <g transform="translate(270,-1170) rotate(0)" > <text font-size="100.0" fill="#088" font-family="monospace"  >
   U
  </text> </g> 
  <g transform="translate(180,1227) rotate(0)" > <text font-size="100.0" fill="#088" font-family="monospace"  >
   AD9280ARS
  </text> </g> 
  <rect x="-550" y="-1100" height="2200"
    width="1100" style="fill:none;stroke:#800;stroke-width:10" />
  <line x1="-850" y1="1000" x2="-550" y2="1000" style="stroke:#800;stroke-width:10;stroke-opacity:1.000000;stroke-linecap:round"/>
  <g transform="translate(-735,994) rotate(0)" > <text font-size="83.3333333333" fill="#800" font-family="monospace"  >
   1
  </text> </g> 
  <g transform="translate(-532,1035) rotate(0)" > <text font-size="83.3333333333" fill="#088" font-family="monospace"  >
   AVSS
  </text> </g> 
  <circle cx="-850" cy="1000" r="10"
    style="fill:none;stroke:#800;stroke-width:2"  />
  <line x1="850" y1="700" x2="550" y2="700" style="stroke:#800;stroke-width:10;stroke-opacity:1.000000;stroke-linecap:round"/>
  <g transform="translate(664,694) rotate(0)" > <text font-size="83.3333333333" fill="#800" font-family="monospace"  >
   2
  </text> </g> 
  <g transform="translate(260,735) rotate(0)" > <text font-size="83.3333333333" fill="#088" font-family="monospace"  >
   DRVDD
  </text> </g> 
  <circle cx="850" cy="700" r="10"
    style="fill:none;stroke:#800;stroke-width:2"  />
  <line x1="850" y1="-300" x2="550" y2="-300" style="stroke:#800;stroke-width:10;stroke-opacity:1.000000;stroke-linecap:round"/>
  <g transform="translate(664,-306) rotate(0)" > <text font-size="83.3333333333" fill="#800" font-family="monospace"  >
   5
  </text> </g> 
  <g transform="translate(410,-265) rotate(0)" > <text font-size="83.3333333333" fill="#088" font-family="monospace"  >
   D0
  </text> </g> 
  <circle cx="850" cy="-300" r="10"
    style="fill:none;stroke:#800;stroke-width:2"  />
  <line x1="850" y1="-200" x2="550" y2="-200" style="stroke:#800;stroke-width:10;stroke-opacity:1.000000;stroke-linecap:round"/>
  <g transform="translate(664,-206) rotate(0)" > <text font-size="83.3333333333" fill="#800" font-family="monospace"  >
   6
  </text> </g> 
  <g transform="translate(410,-165) rotate(0)" > <text font-size="83.3333333333" fill="#088" font-family="monospace"  >
   D1
  </text> </g> 
  <circle cx="850" cy="-200" r="10"
    style="fill:none;stroke:#800;stroke-width:2"  />
  <line x1="850" y1="-100" x2="550" y2="-100" style="stroke:#800;stroke-width:10;stroke-opacity:1.000000;stroke-linecap:round"/>
  <g transform="translate(664,-106) rotate(0)" > <text font-size="83.3333333333" fill="#800" font-family="monospace"  >
   7
  </text> </g> 
  <g transform="translate(410,-65) rotate(0)" > <text font-size="83.3333333333" fill="#088" font-family="monospace"  >
   D2
  </text> </g> 
  <circle cx="850" cy="-100" r="10"
    style="fill:none;stroke:#800;stroke-width:2"  />
  <line x1="850" y1="0" x2="550" y2="0" style="stroke:#800;stroke-width:10;stroke-opacity:1.000000;stroke-linecap:round"/>
  <g transform="translate(664,-6) rotate(0)" > <text font-size="83.3333333333" fill="#800" font-family="monospace"  >
   8
  </text> </g> 
  <g transform="translate(410,35) rotate(0)" > <text font-size="83.3333333333" fill="#088" font-family="monospace"  >
   D3
  </text> </g> 
  <circle cx="850" cy="0" r="10"
    style="fill:none;stroke:#800;stroke-width:2"  />
  <line x1="850" y1="100" x2="550" y2="100" style="stroke:#800;stroke-width:10;stroke-opacity:1.000000;stroke-linecap:round"/>
  <g transform="translate(664,94) rotate(0)" > <text font-size="83.3333333333" fill="#800" font-family="monospace"  >
   9
  </text> </g> 
  <g transform="translate(410,135) rotate(0)" > <text font-size="83.3333333333" fill="#088" font-family="monospace"  >
   D4
  </text> </g> 
  <circle cx="850" cy="100" r="10"
    style="fill:none;stroke:#800;stroke-width:2"  />
  <line x1="850" y1="200" x2="550" y2="200" style="stroke:#800;stroke-width:10;stroke-opacity:1.000000;stroke-linecap:round"/>
  <g transform="translate(629,194) rotate(0)" > <text font-size="83.3333333333" fill="#800" font-family="monospace"  >
   10
  </text> </g> 
  <g transform="translate(410,235) rotate(0)" > <text font-size="83.3333333333" fill="#088" font-family="monospace"  >
   D5
  </text> </g> 
  <circle cx="850" cy="200" r="10"
    style="fill:none;stroke:#800;stroke-width:2"  />
  <line x1="-850" y1="-850" x2="-550" y2="-850" style="stroke:#800;stroke-width:10;stroke-opacity:1.000000;stroke-linecap:round"/>
  <g transform="translate(-770,-856) rotate(0)" > <text font-size="83.3333333333" fill="#800" font-family="monospace"  >
   20
  </text> </g> 
  <g transform="translate(-532,-815) rotate(0)" > <text font-size="83.3333333333" fill="#088" font-family="monospace"  >
   CLAMPIN
  </text> </g> 
  <circle cx="-850" cy="-850" r="10"
    style="fill:none;stroke:#800;stroke-width:2"  />
  <line x1="850" y1="300" x2="550" y2="300" style="stroke:#800;stroke-width:10;stroke-opacity:1.000000;stroke-linecap:round"/>
  <g transform="translate(629,294) rotate(0)" > <text font-size="83.3333333333" fill="#800" font-family="monospace"  >
   11
  </text> </g> 
  <g transform="translate(410,335) rotate(0)" > <text font-size="83.3333333333" fill="#088" font-family="monospace"  >
   D6
  </text> </g> 
  <circle cx="850" cy="300" r="10"
    style="fill:none;stroke:#800;stroke-width:2"  />
  <line x1="-850" y1="-400" x2="-550" y2="-400" style="stroke:#800;stroke-width:10;stroke-opacity:1.000000;stroke-linecap:round"/>
  <g transform="translate(-770,-406) rotate(0)" > <text font-size="83.3333333333" fill="#800" font-family="monospace"  >
   21
  </text> </g> 
  <g transform="translate(-532,-365) rotate(0)" > <text font-size="83.3333333333" fill="#088" font-family="monospace"  >
   REFTS
  </text> </g> 
  <circle cx="-850" cy="-400" r="10"
    style="fill:none;stroke:#800;stroke-width:2"  />
  <line x1="850" y1="400" x2="550" y2="400" style="stroke:#800;stroke-width:10;stroke-opacity:1.000000;stroke-linecap:round"/>
  <g transform="translate(629,394) rotate(0)" > <text font-size="83.3333333333" fill="#800" font-family="monospace"  >
   12
  </text> </g> 
  <g transform="translate(410,435) rotate(0)" > <text font-size="83.3333333333" fill="#088" font-family="monospace"  >
   D7
  </text> </g> 
  <circle cx="850" cy="400" r="10"
    style="fill:none;stroke:#800;stroke-width:2"  />
  <line x1="-850" y1="-550" x2="-550" y2="-550" style="stroke:#800;stroke-width:10;stroke-opacity:1.000000;stroke-linecap:round"/>
  <g transform="translate(-770,-556) rotate(0)" > <text font-size="83.3333333333" fill="#800" font-family="monospace"  >
   22
  </text> </g> 
  <g transform="translate(-532,-515) rotate(0)" > <text font-size="83.3333333333" fill="#088" font-family="monospace"  >
   REFTF
  </text> </g> 
  <circle cx="-850" cy="-550" r="10"
    style="fill:none;stroke:#800;stroke-width:2"  />
  <line x1="850" y1="-500" x2="550" y2="-500" style="stroke:#800;stroke-width:10;stroke-opacity:1.000000;stroke-linecap:round"/>
  <g transform="translate(629,-506) rotate(0)" > <text font-size="83.3333333333" fill="#800" font-family="monospace"  >
   13
  </text> </g> 
  <g transform="translate(360,-465) rotate(0)" > <text font-size="83.3333333333" fill="#088" font-family="monospace"  >
   OTR
  </text> </g> 
  <circle cx="850" cy="-500" r="10"
    style="fill:none;stroke:#800;stroke-width:2"  />
  <line x1="-850" y1="-700" x2="-550" y2="-700" style="stroke:#800;stroke-width:10;stroke-opacity:1.000000;stroke-linecap:round"/>
  <g transform="translate(-770,-706) rotate(0)" > <text font-size="83.3333333333" fill="#800" font-family="monospace"  >
   23
  </text> </g> 
  <g transform="translate(-532,-665) rotate(0)" > <text font-size="83.3333333333" fill="#088" font-family="monospace"  >
   MODE
  </text> </g> 
  <circle cx="-850" cy="-700" r="10"
    style="fill:none;stroke:#800;stroke-width:2"  />
  <line x1="850" y1="1000" x2="550" y2="1000" style="stroke:#800;stroke-width:10;stroke-opacity:1.000000;stroke-linecap:round"/>
  <g transform="translate(629,994) rotate(0)" > <text font-size="83.3333333333" fill="#800" font-family="monospace"  >
   14
  </text> </g> 
  <g transform="translate(260,1035) rotate(0)" > <text font-size="83.3333333333" fill="#088" font-family="monospace"  >
   DRVSS
  </text> </g> 
  <circle cx="850" cy="1000" r="10"
    style="fill:none;stroke:#800;stroke-width:2"  />
  <line x1="-850" y1="0" x2="-550" y2="0" style="stroke:#800;stroke-width:10;stroke-opacity:1.000000;stroke-linecap:round"/>
  <g transform="translate(-770,-6) rotate(0)" > <text font-size="83.3333333333" fill="#800" font-family="monospace"  >
   24
  </text> </g> 
  <g transform="translate(-532,35) rotate(0)" > <text font-size="83.3333333333" fill="#088" font-family="monospace"  >
   REFBF
  </text> </g> 
  <circle cx="-850" cy="0" r="10"
    style="fill:none;stroke:#800;stroke-width:2"  />
  <line x1="510" y1="550" x2="550" y2="590" style="stroke:#800;stroke-width:10;stroke-opacity:1.000000;stroke-linecap:round"/>
  <line x1="550" y1="590" x2="550" y2="510" style="stroke:#800;stroke-width:10;stroke-opacity:1.000000;stroke-linecap:round"/>
  <line x1="550" y1="510" x2="510" y2="550" style="stroke:#800;stroke-width:10;stroke-opacity:1.000000;stroke-linecap:round"/>
  <line x1="850" y1="550" x2="550" y2="550" style="stroke:#800;stroke-width:10;stroke-opacity:1.000000;stroke-linecap:round"/>
  <g transform="translate(629,544) rotate(0)" > <text font-size="83.3333333333" fill="#800" font-family="monospace"  >
   15
  </text> </g> 
  <g transform="translate(360,585) rotate(0)" > <text font-size="83.3333333333" fill="#088" font-family="monospace"  >
   CLK
  </text> </g> 
  <circle cx="850" cy="550" r="10"
    style="fill:none;stroke:#800;stroke-width:2"  />
  <line x1="-850" y1="-200" x2="-550" y2="-200" style="stroke:#800;stroke-width:10;stroke-opacity:1.000000;stroke-linecap:round"/>
  <g transform="translate(-770,-206) rotate(0)" > <text font-size="83.3333333333" fill="#800" font-family="monospace"  >
   25
  </text> </g> 
  <g transform="translate(-532,-165) rotate(0)" > <text font-size="83.3333333333" fill="#088" font-family="monospace"  >
   REFBS
  </text> </g> 
  <circle cx="-850" cy="-200" r="10"
    style="fill:none;stroke:#800;stroke-width:2"  />
  <line x1="850" y1="-650" x2="550" y2="-650" style="stroke:#800;stroke-width:10;stroke-opacity:1.000000;stroke-linecap:round"/>
  <g transform="translate(629,-656) rotate(0)" > <text font-size="83.3333333333" fill="#800" font-family="monospace"  >
   16
  </text> </g> 
  <g transform="translate(-40,-615) rotate(0)" > <text font-size="83.3333333333" fill="#088" font-family="monospace"  >
   THREE-STATE
  </text> </g> 
  <circle cx="850" cy="-650" r="10"
    style="fill:none;stroke:#800;stroke-width:2"  />
  <line x1="-850" y1="200" x2="-550" y2="200" style="stroke:#800;stroke-width:10;stroke-opacity:1.000000;stroke-linecap:round"/>
  <g transform="translate(-770,194) rotate(0)" > <text font-size="83.3333333333" fill="#800" font-family="monospace"  >
   26
  </text> </g> 
  <g transform="translate(-532,235) rotate(0)" > <text font-size="83.3333333333" fill="#088" font-family="monospace"  >
   VREF
  </text> </g> 
  <circle cx="-850" cy="200" r="10"
    style="fill:none;stroke:#800;stroke-width:2"  />
  <line x1="850" y1="-850" x2="550" y2="-850" style="stroke:#800;stroke-width:10;stroke-opacity:1.000000;stroke-linecap:round"/>
  <g transform="translate(629,-856) rotate(0)" > <text font-size="83.3333333333" fill="#800" font-family="monospace"  >
   17
  </text> </g> 
  <g transform="translate(310,-815) rotate(0)" > <text font-size="83.3333333333" fill="#088" font-family="monospace"  >
   STBY
  </text> </g> 
  <circle cx="850" cy="-850" r="10"
    style="fill:none;stroke:#800;stroke-width:2"  />
  <line x1="-850" y1="-1000" x2="-550" y2="-1000" style="stroke:#800;stroke-width:10;stroke-opacity:1.000000;stroke-linecap:round"/>
  <g transform="translate(-770,-1006) rotate(0)" > <text font-size="83.3333333333" fill="#800" font-family="monospace"  >
   27
  </text> </g> 
  <g transform="translate(-532,-965) rotate(0)" > <text font-size="83.3333333333" fill="#088" font-family="monospace"  >
   AIN
  </text> </g> 
  <circle cx="-850" cy="-1000" r="10"
    style="fill:none;stroke:#800;stroke-width:2"  />
  <line x1="-850" y1="350" x2="-550" y2="350" style="stroke:#800;stroke-width:10;stroke-opacity:1.000000;stroke-linecap:round"/>
  <g transform="translate(-770,344) rotate(0)" > <text font-size="83.3333333333" fill="#800" font-family="monospace"  >
   18
  </text> </g> 
  <g transform="translate(-532,385) rotate(0)" > <text font-size="83.3333333333" fill="#088" font-family="monospace"  >
   REFSENSE
  </text> </g> 
  <circle cx="-850" cy="350" r="10"
    style="fill:none;stroke:#800;stroke-width:2"  />
  <line x1="-850" y1="700" x2="-550" y2="700" style="stroke:#800;stroke-width:10;stroke-opacity:1.000000;stroke-linecap:round"/>
  <g transform="translate(-770,694) rotate(0)" > <text font-size="83.3333333333" fill="#800" font-family="monospace"  >
   28
  </text> </g> 
  <g transform="translate(-532,735) rotate(0)" > <text font-size="83.3333333333" fill="#088" font-family="monospace"  >
   AVDD
  </text> </g> 
  <circle cx="-850" cy="700" r="10"
    style="fill:none;stroke:#800;stroke-width:2"  />
  <line x1="850" y1="-1000" x2="550" y2="-1000" style="stroke:#800;stroke-width:10;stroke-opacity:1.000000;stroke-linecap:round"/>
  <g transform="translate(629,-1006) rotate(0)" > <text font-size="83.3333333333" fill="#800" font-family="monospace"  >
   19
  </text> </g> 
  <g transform="translate(260,-965) rotate(0)" > <text font-size="83.3333333333" fill="#088" font-family="monospace"  >
   CLAMP
  </text> </g> 
  <circle cx="850" cy="-1000" r="10"
    style="fill:none;stroke:#800;stroke-width:2"  />
 </g>
</svg>
