<?xml version="1.0"?>
<svg height="537" width="438"  >
 <g style="fill-opacity:1.0; stroke:black;
  stroke-width:1;" transform=" translate( 219.325,268.725 ) scale( 0.15,0.15 )">
  <g transform="translate(270,-1170) rotate(0)" > <text font-size="100.0" fill="#088" font-family="monospace"  >
   U
  </text> </g> 
  <g transform="translate(160,1227) rotate(0)" > <text font-size="100.0" fill="#088" font-family="monospace"  >
   AD9708AR
  </text> </g> 
  <rect x="-550" y="-1100" height="2200"
    width="1100" style="fill:none;stroke:#800;stroke-width:10" />
  <line x1="-850" y1="-300" x2="-550" y2="-300" style="stroke:#800;stroke-width:10;stroke-opacity:1.000000;stroke-linecap:round"/>
  <g transform="translate(-735,-306) rotate(0)" > <text font-size="83.3333333333" fill="#800" font-family="monospace"  >
   1
  </text> </g> 
  <g transform="translate(-532,-265) rotate(0)" > <text font-size="83.3333333333" fill="#088" font-family="monospace"  >
   DB7
  </text> </g> 
  <circle cx="-850" cy="-300" r="10"
    style="fill:none;stroke:#800;stroke-width:2"  />
  <line x1="-850" y1="-400" x2="-550" y2="-400" style="stroke:#800;stroke-width:10;stroke-opacity:1.000000;stroke-linecap:round"/>
  <g transform="translate(-735,-406) rotate(0)" > <text font-size="83.3333333333" fill="#800" font-family="monospace"  >
   2
  </text> </g> 
  <g transform="translate(-532,-365) rotate(0)" > <text font-size="83.3333333333" fill="#088" font-family="monospace"  >
   DB6
  </text> </g> 
  <circle cx="-850" cy="-400" r="10"
    style="fill:none;stroke:#800;stroke-width:2"  />
  <line x1="-850" y1="-400" x2="-550" y2="-400" style="stroke:#800;stroke-width:10;stroke-opacity:1.000000;stroke-linecap:round"/>
  <g transform="translate(-735,-406) rotate(0)" > <text font-size="83.3333333333" fill="#800" font-family="monospace"  >
   2
  </text> </g> 
  <g transform="translate(-532,-365) rotate(0)" > <text font-size="83.3333333333" fill="#088" font-family="monospace"  >
   DB6
  </text> </g> 
  <circle cx="-850" cy="-400" r="10"
    style="fill:none;stroke:#800;stroke-width:2"  />
  <line x1="-850" y1="-500" x2="-550" y2="-500" style="stroke:#800;stroke-width:10;stroke-opacity:1.000000;stroke-linecap:round"/>
  <g transform="translate(-735,-506) rotate(0)" > <text font-size="83.3333333333" fill="#800" font-family="monospace"  >
   3
  </text> </g> 
  <g transform="translate(-532,-465) rotate(0)" > <text font-size="83.3333333333" fill="#088" font-family="monospace"  >
   DB5
  </text> </g> 
  <circle cx="-850" cy="-500" r="10"
    style="fill:none;stroke:#800;stroke-width:2"  />
  <line x1="-850" y1="-600" x2="-550" y2="-600" style="stroke:#800;stroke-width:10;stroke-opacity:1.000000;stroke-linecap:round"/>
  <g transform="translate(-735,-606) rotate(0)" > <text font-size="83.3333333333" fill="#800" font-family="monospace"  >
   4
  </text> </g> 
  <g transform="translate(-532,-565) rotate(0)" > <text font-size="83.3333333333" fill="#088" font-family="monospace"  >
   DB4
  </text> </g> 
  <circle cx="-850" cy="-600" r="10"
    style="fill:none;stroke:#800;stroke-width:2"  />
  <line x1="-850" y1="-700" x2="-550" y2="-700" style="stroke:#800;stroke-width:10;stroke-opacity:1.000000;stroke-linecap:round"/>
  <g transform="translate(-735,-706) rotate(0)" > <text font-size="83.3333333333" fill="#800" font-family="monospace"  >
   5
  </text> </g> 
  <g transform="translate(-532,-665) rotate(0)" > <text font-size="83.3333333333" fill="#088" font-family="monospace"  >
   DB3
  </text> </g> 
  <circle cx="-850" cy="-700" r="10"
    style="fill:none;stroke:#800;stroke-width:2"  />
  <line x1="-850" y1="-800" x2="-550" y2="-800" style="stroke:#800;stroke-width:10;stroke-opacity:1.000000;stroke-linecap:round"/>
  <g transform="translate(-735,-806) rotate(0)" > <text font-size="83.3333333333" fill="#800" font-family="monospace"  >
   6
  </text> </g> 
  <g transform="translate(-532,-765) rotate(0)" > <text font-size="83.3333333333" fill="#088" font-family="monospace"  >
   DB2
  </text> </g> 
  <circle cx="-850" cy="-800" r="10"
    style="fill:none;stroke:#800;stroke-width:2"  />
  <line x1="-850" y1="-900" x2="-550" y2="-900" style="stroke:#800;stroke-width:10;stroke-opacity:1.000000;stroke-linecap:round"/>
  <g transform="translate(-735,-906) rotate(0)" > <text font-size="83.3333333333" fill="#800" font-family="monospace"  >
   7
  </text> </g> 
  <g transform="translate(-532,-865) rotate(0)" > <text font-size="83.3333333333" fill="#088" font-family="monospace"  >
   DB1
  </text> </g> 
  <circle cx="-850" cy="-900" r="10"
    style="fill:none;stroke:#800;stroke-width:2"  />
  <line x1="-850" y1="-1000" x2="-550" y2="-1000" style="stroke:#800;stroke-width:10;stroke-opacity:1.000000;stroke-linecap:round"/>
  <g transform="translate(-735,-1006) rotate(0)" > <text font-size="83.3333333333" fill="#800" font-family="monospace"  >
   8
  </text> </g> 
  <g transform="translate(-532,-965) rotate(0)" > <text font-size="83.3333333333" fill="#088" font-family="monospace"  >
   DB0
  </text> </g> 
  <circle cx="-850" cy="-1000" r="10"
    style="fill:none;stroke:#800;stroke-width:2"  />
  <line x1="850" y1="1000" x2="550" y2="1000" style="stroke:#800;stroke-width:10;stroke-opacity:1.000000;stroke-linecap:round"/>
  <g transform="translate(629,994) rotate(0)" > <text font-size="83.3333333333" fill="#800" font-family="monospace"  >
   20
  </text> </g> 
  <g transform="translate(310,1035) rotate(0)" > <text font-size="83.3333333333" fill="#088" font-family="monospace"  >
   ACOM
  </text> </g> 
  <circle cx="850" cy="1000" r="10"
    style="fill:none;stroke:#800;stroke-width:2"  />
  <line x1="850" y1="-250" x2="550" y2="-250" style="stroke:#800;stroke-width:10;stroke-opacity:1.000000;stroke-linecap:round"/>
  <g transform="translate(629,-256) rotate(0)" > <text font-size="83.3333333333" fill="#800" font-family="monospace"  >
   21
  </text> </g> 
  <g transform="translate(260,-215) rotate(0)" > <text font-size="83.3333333333" fill="#088" font-family="monospace"  >
   IOUTB
  </text> </g> 
  <circle cx="850" cy="-250" r="10"
    style="fill:none;stroke:#800;stroke-width:2"  />
  <line x1="850" y1="-400" x2="550" y2="-400" style="stroke:#800;stroke-width:10;stroke-opacity:1.000000;stroke-linecap:round"/>
  <g transform="translate(629,-406) rotate(0)" > <text font-size="83.3333333333" fill="#800" font-family="monospace"  >
   22
  </text> </g> 
  <g transform="translate(260,-365) rotate(0)" > <text font-size="83.3333333333" fill="#088" font-family="monospace"  >
   IOUTA
  </text> </g> 
  <circle cx="850" cy="-400" r="10"
    style="fill:none;stroke:#800;stroke-width:2"  />
  <line x1="850" y1="50" x2="550" y2="50" style="stroke:#800;stroke-width:10;stroke-opacity:1.000000;stroke-linecap:round"/>
  <g transform="translate(629,44) rotate(0)" > <text font-size="83.3333333333" fill="#800" font-family="monospace"  >
   23
  </text> </g> 
  <g transform="translate(260,85) rotate(0)" > <text font-size="83.3333333333" fill="#088" font-family="monospace"  >
   COMP2
  </text> </g> 
  <circle cx="850" cy="50" r="10"
    style="fill:none;stroke:#800;stroke-width:2"  />
  <line x1="850" y1="700" x2="550" y2="700" style="stroke:#800;stroke-width:10;stroke-opacity:1.000000;stroke-linecap:round"/>
  <g transform="translate(629,694) rotate(0)" > <text font-size="83.3333333333" fill="#800" font-family="monospace"  >
   24
  </text> </g> 
  <g transform="translate(310,735) rotate(0)" > <text font-size="83.3333333333" fill="#088" font-family="monospace"  >
   AVDD
  </text> </g> 
  <circle cx="850" cy="700" r="10"
    style="fill:none;stroke:#800;stroke-width:2"  />
  <line x1="-850" y1="450" x2="-550" y2="450" style="stroke:#800;stroke-width:10;stroke-opacity:1.000000;stroke-linecap:round"/>
  <g transform="translate(-770,444) rotate(0)" > <text font-size="83.3333333333" fill="#800" font-family="monospace"  >
   15
  </text> </g> 
  <g transform="translate(-532,485) rotate(0)" > <text font-size="83.3333333333" fill="#088" font-family="monospace"  >
   SLEEP
  </text> </g> 
  <circle cx="-850" cy="450" r="10"
    style="fill:none;stroke:#800;stroke-width:2"  />
  <line x1="850" y1="-850" x2="550" y2="-850" style="stroke:#800;stroke-width:10;stroke-opacity:1.000000;stroke-linecap:round"/>
  <g transform="translate(629,-856) rotate(0)" > <text font-size="83.3333333333" fill="#800" font-family="monospace"  >
   16
  </text> </g> 
  <g transform="translate(260,-815) rotate(0)" > <text font-size="83.3333333333" fill="#088" font-family="monospace"  >
   REFLO
  </text> </g> 
  <circle cx="850" cy="-850" r="10"
    style="fill:none;stroke:#800;stroke-width:2"  />
  <line x1="-850" y1="1000" x2="-550" y2="1000" style="stroke:#800;stroke-width:10;stroke-opacity:1.000000;stroke-linecap:round"/>
  <g transform="translate(-770,994) rotate(0)" > <text font-size="83.3333333333" fill="#800" font-family="monospace"  >
   26
  </text> </g> 
  <g transform="translate(-532,1035) rotate(0)" > <text font-size="83.3333333333" fill="#088" font-family="monospace"  >
   DCOM
  </text> </g> 
  <circle cx="-850" cy="1000" r="10"
    style="fill:none;stroke:#800;stroke-width:2"  />
  <line x1="850" y1="-1000" x2="550" y2="-1000" style="stroke:#800;stroke-width:10;stroke-opacity:1.000000;stroke-linecap:round"/>
  <g transform="translate(629,-1006) rotate(0)" > <text font-size="83.3333333333" fill="#800" font-family="monospace"  >
   17
  </text> </g> 
  <g transform="translate(260,-965) rotate(0)" > <text font-size="83.3333333333" fill="#088" font-family="monospace"  >
   REFIO
  </text> </g> 
  <circle cx="850" cy="-1000" r="10"
    style="fill:none;stroke:#800;stroke-width:2"  />
  <line x1="-850" y1="700" x2="-550" y2="700" style="stroke:#800;stroke-width:10;stroke-opacity:1.000000;stroke-linecap:round"/>
  <g transform="translate(-770,694) rotate(0)" > <text font-size="83.3333333333" fill="#800" font-family="monospace"  >
   27
  </text> </g> 
  <g transform="translate(-532,735) rotate(0)" > <text font-size="83.3333333333" fill="#088" font-family="monospace"  >
   DVDD
  </text> </g> 
  <circle cx="-850" cy="700" r="10"
    style="fill:none;stroke:#800;stroke-width:2"  />
  <line x1="850" y1="-700" x2="550" y2="-700" style="stroke:#800;stroke-width:10;stroke-opacity:1.000000;stroke-linecap:round"/>
  <g transform="translate(629,-706) rotate(0)" > <text font-size="83.3333333333" fill="#800" font-family="monospace"  >
   18
  </text> </g> 
  <g transform="translate(209,-665) rotate(0)" > <text font-size="83.3333333333" fill="#088" font-family="monospace"  >
   FS_ADJ
  </text> </g> 
  <circle cx="850" cy="-700" r="10"
    style="fill:none;stroke:#800;stroke-width:2"  />
  <line x1="-510" y1="300" x2="-550" y2="340" style="stroke:#800;stroke-width:10;stroke-opacity:1.000000;stroke-linecap:round"/>
  <line x1="-550" y1="340" x2="-550" y2="260" style="stroke:#800;stroke-width:10;stroke-opacity:1.000000;stroke-linecap:round"/>
  <line x1="-550" y1="260" x2="-510" y2="300" style="stroke:#800;stroke-width:10;stroke-opacity:1.000000;stroke-linecap:round"/>
  <line x1="-850" y1="300" x2="-550" y2="300" style="stroke:#800;stroke-width:10;stroke-opacity:1.000000;stroke-linecap:round"/>
  <g transform="translate(-770,294) rotate(0)" > <text font-size="83.3333333333" fill="#800" font-family="monospace"  >
   28
  </text> </g> 
  <g transform="translate(-532,335) rotate(0)" > <text font-size="83.3333333333" fill="#088" font-family="monospace"  >
   Clock
  </text> </g> 
  <circle cx="-850" cy="300" r="10"
    style="fill:none;stroke:#800;stroke-width:2"  />
  <line x1="850" y1="200" x2="550" y2="200" style="stroke:#800;stroke-width:10;stroke-opacity:1.000000;stroke-linecap:round"/>
  <g transform="translate(629,194) rotate(0)" > <text font-size="83.3333333333" fill="#800" font-family="monospace"  >
   19
  </text> </g> 
  <g transform="translate(260,235) rotate(0)" > <text font-size="83.3333333333" fill="#088" font-family="monospace"  >
   COMP1
  </text> </g> 
  <circle cx="850" cy="200" r="10"
    style="fill:none;stroke:#800;stroke-width:2"  />
 </g>
</svg>
