<?xml version="1.0"?>
<svg height="470" width="470"  >
 <g style="fill-opacity:1.0; stroke:black;
  stroke-width:1;" transform=" translate( 235.0,235.0 ) scale( 0.15,0.15 )">
  <g transform="translate(-35,-65) rotate(0)" > <text font-size="116.666666667" fill="#088" font-family="monospace"  >
   U
  </text> </g> 
  <g transform="translate(-245,134) rotate(0)" > <text font-size="116.666666667" fill="#088" font-family="monospace"  >
   ADC0832
  </text> </g> 
  <rect x="-650" y="-450" height="900"
    width="1300" style="fill:none;stroke:#800;stroke-width:10" />
  <line x1="-950" y1="250" x2="-720" y2="250" style="stroke:#800;stroke-width:10;stroke-opacity:1.000000;stroke-linecap:round"/>
  <circle cx="-685" cy="250" r="35"
    style="fill:none;stroke:#800;stroke-width:10"  />
  <g transform="translate(-842,244) rotate(0)" > <text font-size="100.0" fill="#800" font-family="monospace"  >
   1
  </text> </g> 
  <g transform="translate(-632,290) rotate(0)" > <text font-size="100.0" fill="#088" font-family="monospace"  >
   CS
  </text> </g> 
  <circle cx="-950" cy="250" r="10"
    style="fill:none;stroke:#800;stroke-width:2"  />
  <line x1="-950" y1="-350" x2="-650" y2="-350" style="stroke:#800;stroke-width:10;stroke-opacity:1.000000;stroke-linecap:round"/>
  <g transform="translate(-842,-356) rotate(0)" > <text font-size="100.0" fill="#800" font-family="monospace"  >
   2
  </text> </g> 
  <g transform="translate(-632,-310) rotate(0)" > <text font-size="100.0" fill="#088" font-family="monospace"  >
   ANALOG0
  </text> </g> 
  <circle cx="-950" cy="-350" r="10"
    style="fill:none;stroke:#800;stroke-width:2"  />
  <line x1="-950" y1="-50" x2="-650" y2="-50" style="stroke:#800;stroke-width:10;stroke-opacity:1.000000;stroke-linecap:round"/>
  <g transform="translate(-842,-56) rotate(0)" > <text font-size="100.0" fill="#800" font-family="monospace"  >
   3
  </text> </g> 
  <g transform="translate(-632,-10) rotate(0)" > <text font-size="100.0" fill="#088" font-family="monospace"  >
   ANALOG1
  </text> </g> 
  <circle cx="-950" cy="-50" r="10"
    style="fill:none;stroke:#800;stroke-width:2"  />
  <line x1="50" y1="750" x2="50" y2="450" style="stroke:#800;stroke-width:10;stroke-opacity:1.000000;stroke-linecap:round"/>
  <g transform="translate(35,615) rotate(-90)" > <text font-size="100.0" fill="#800" font-family="monospace"  >
   4
  </text> </g> 
  <g transform="translate(57,400) rotate(-90)" > <text font-size="100.0" fill="#088" font-family="monospace"  >
   GND
  </text> </g> 
  <circle cx="50" cy="750" r="10"
    style="fill:none;stroke:#800;stroke-width:2"  />
  <line x1="950" y1="150" x2="650" y2="150" style="stroke:#800;stroke-width:10;stroke-opacity:1.000000;stroke-linecap:round"/>
  <g transform="translate(757,144) rotate(0)" > <text font-size="100.0" fill="#800" font-family="monospace"  >
   5
  </text> </g> 
  <g transform="translate(430,190) rotate(0)" > <text font-size="100.0" fill="#088" font-family="monospace"  >
   DIN
  </text> </g> 
  <circle cx="950" cy="150" r="10"
    style="fill:none;stroke:#800;stroke-width:2"  />
  <line x1="950" y1="-150" x2="650" y2="-150" style="stroke:#800;stroke-width:10;stroke-opacity:1.000000;stroke-linecap:round"/>
  <g transform="translate(757,-156) rotate(0)" > <text font-size="100.0" fill="#800" font-family="monospace"  >
   6
  </text> </g> 
  <g transform="translate(370,-110) rotate(0)" > <text font-size="100.0" fill="#088" font-family="monospace"  >
   DOUT
  </text> </g> 
  <circle cx="950" cy="-150" r="10"
    style="fill:none;stroke:#800;stroke-width:2"  />
  <line x1="-610" y1="350" x2="-650" y2="390" style="stroke:#800;stroke-width:10;stroke-opacity:1.000000;stroke-linecap:round"/>
  <line x1="-650" y1="390" x2="-650" y2="310" style="stroke:#800;stroke-width:10;stroke-opacity:1.000000;stroke-linecap:round"/>
  <line x1="-650" y1="310" x2="-610" y2="350" style="stroke:#800;stroke-width:10;stroke-opacity:1.000000;stroke-linecap:round"/>
  <line x1="-950" y1="350" x2="-650" y2="350" style="stroke:#800;stroke-width:10;stroke-opacity:1.000000;stroke-linecap:round"/>
  <g transform="translate(-842,344) rotate(0)" > <text font-size="100.0" fill="#800" font-family="monospace"  >
   7
  </text> </g> 
  <g transform="translate(-632,390) rotate(0)" > <text font-size="100.0" fill="#088" font-family="monospace"  >
   CLK
  </text> </g> 
  <circle cx="-950" cy="350" r="10"
    style="fill:none;stroke:#800;stroke-width:2"  />
  <line x1="50" y1="-750" x2="50" y2="-450" style="stroke:#800;stroke-width:10;stroke-opacity:1.000000;stroke-linecap:round"/>
  <g transform="translate(35,-585) rotate(-90)" > <text font-size="100.0" fill="#800" font-family="monospace"  >
   8
  </text> </g> 
  <g transform="translate(57,-220) rotate(-90)" > <text font-size="100.0" fill="#088" font-family="monospace"  >
   VCC
  </text> </g> 
  <circle cx="50" cy="-750" r="10"
    style="fill:none;stroke:#800;stroke-width:2"  />
 </g>
</svg>
