<?xml version="1.0"?>
<svg height="479" width="420"  >
 <g style="fill-opacity:1.0; stroke:black;
  stroke-width:1;" transform=" translate( 210.0,239.75 ) scale( 0.15,0.15 )">
  <g transform="translate(370,-670) rotate(0)" > <text font-size="100.0" fill="#088" font-family="monospace"  >
   U
  </text> </g> 
  <g transform="translate(10,830) rotate(0)" > <text font-size="100.0" fill="#088" font-family="monospace"  >
   ADC08060
  </text> </g> 
  <rect x="-550" y="-600" height="1300"
    width="1100" style="fill:none;stroke:#800;stroke-width:10" />
  <line x1="-200" y1="-800" x2="-200" y2="-600" style="stroke:#800;stroke-width:10;stroke-opacity:1.000000;stroke-linecap:round"/>
  <g transform="translate(-212,-687) rotate(-90)" > <text font-size="83.3333333333" fill="#800" font-family="monospace"  >
   1
  </text> </g> 
  <g transform="translate(-193,-358) rotate(-90)" > <text font-size="83.3333333333" fill="#088" font-family="monospace"  >
   AVDD
  </text> </g> 
  <circle cx="-200" cy="-800" r="10"
    style="fill:none;stroke:#800;stroke-width:2"  />
  <line x1="-200" y1="900" x2="-200" y2="700" style="stroke:#800;stroke-width:10;stroke-opacity:1.000000;stroke-linecap:round"/>
  <g transform="translate(-212,812) rotate(-90)" > <text font-size="83.3333333333" fill="#800" font-family="monospace"  >
   2
  </text> </g> 
  <g transform="translate(-193,658) rotate(-90)" > <text font-size="83.3333333333" fill="#088" font-family="monospace"  >
   AGND
  </text> </g> 
  <circle cx="-200" cy="900" r="10"
    style="fill:none;stroke:#800;stroke-width:2"  />
  <line x1="-850" y1="-100" x2="-550" y2="-100" style="stroke:#800;stroke-width:10;stroke-opacity:1.000000;stroke-linecap:round"/>
  <g transform="translate(-735,-106) rotate(0)" > <text font-size="83.3333333333" fill="#800" font-family="monospace"  >
   3
  </text> </g> 
  <g transform="translate(-532,-65) rotate(0)" > <text font-size="83.3333333333" fill="#088" font-family="monospace"  >
   VRT
  </text> </g> 
  <circle cx="-850" cy="-100" r="10"
    style="fill:none;stroke:#800;stroke-width:2"  />
  <line x1="-100" y1="-800" x2="-100" y2="-600" style="stroke:#800;stroke-width:10;stroke-opacity:1.000000;stroke-linecap:round"/>
  <g transform="translate(-112,-687) rotate(-90)" > <text font-size="83.3333333333" fill="#800" font-family="monospace"  >
   4
  </text> </g> 
  <g transform="translate(-93,-358) rotate(-90)" > <text font-size="83.3333333333" fill="#088" font-family="monospace"  >
   AVDD
  </text> </g> 
  <circle cx="-100" cy="-800" r="10"
    style="fill:none;stroke:#800;stroke-width:2"  />
  <line x1="-100" y1="900" x2="-100" y2="700" style="stroke:#800;stroke-width:10;stroke-opacity:1.000000;stroke-linecap:round"/>
  <g transform="translate(-112,812) rotate(-90)" > <text font-size="83.3333333333" fill="#800" font-family="monospace"  >
   5
  </text> </g> 
  <g transform="translate(-93,658) rotate(-90)" > <text font-size="83.3333333333" fill="#088" font-family="monospace"  >
   AGND
  </text> </g> 
  <circle cx="-100" cy="900" r="10"
    style="fill:none;stroke:#800;stroke-width:2"  />
  <line x1="-850" y1="-500" x2="-550" y2="-500" style="stroke:#800;stroke-width:10;stroke-opacity:1.000000;stroke-linecap:round"/>
  <g transform="translate(-735,-506) rotate(0)" > <text font-size="83.3333333333" fill="#800" font-family="monospace"  >
   6
  </text> </g> 
  <g transform="translate(-532,-465) rotate(0)" > <text font-size="83.3333333333" fill="#088" font-family="monospace"  >
   AIN
  </text> </g> 
  <circle cx="-850" cy="-500" r="10"
    style="fill:none;stroke:#800;stroke-width:2"  />
  <line x1="-850" y1="-400" x2="-550" y2="-400" style="stroke:#800;stroke-width:10;stroke-opacity:1.000000;stroke-linecap:round"/>
  <g transform="translate(-735,-406) rotate(0)" > <text font-size="83.3333333333" fill="#800" font-family="monospace"  >
   7
  </text> </g> 
  <g transform="translate(-532,-375) rotate(0)" > <text font-size="50.0" fill="#088" font-family="monospace"  >
   VIN_GND
  </text> </g> 
  <circle cx="-850" cy="-400" r="10"
    style="fill:none;stroke:#800;stroke-width:2"  />
  <line x1="0" y1="900" x2="0" y2="700" style="stroke:#800;stroke-width:10;stroke-opacity:1.000000;stroke-linecap:round"/>
  <g transform="translate(-12,812) rotate(-90)" > <text font-size="83.3333333333" fill="#800" font-family="monospace"  >
   8
  </text> </g> 
  <g transform="translate(6,658) rotate(-90)" > <text font-size="83.3333333333" fill="#088" font-family="monospace"  >
   DGND
  </text> </g> 
  <circle cx="0" cy="900" r="10"
    style="fill:none;stroke:#800;stroke-width:2"  />
  <line x1="-850" y1="50" x2="-550" y2="50" style="stroke:#800;stroke-width:10;stroke-opacity:1.000000;stroke-linecap:round"/>
  <g transform="translate(-735,44) rotate(0)" > <text font-size="83.3333333333" fill="#800" font-family="monospace"  >
   9
  </text> </g> 
  <g transform="translate(-532,85) rotate(0)" > <text font-size="83.3333333333" fill="#088" font-family="monospace"  >
   VRB
  </text> </g> 
  <circle cx="-850" cy="50" r="10"
    style="fill:none;stroke:#800;stroke-width:2"  />
  <line x1="-850" y1="200" x2="-550" y2="200" style="stroke:#800;stroke-width:10;stroke-opacity:1.000000;stroke-linecap:round"/>
  <g transform="translate(-770,194) rotate(0)" > <text font-size="83.3333333333" fill="#800" font-family="monospace"  >
   10
  </text> </g> 
  <g transform="translate(-532,235) rotate(0)" > <text font-size="83.3333333333" fill="#088" font-family="monospace"  >
   VRB
  </text> </g> 
  <circle cx="-850" cy="200" r="10"
    style="fill:none;stroke:#800;stroke-width:2"  />
  <line x1="850" y1="200" x2="550" y2="200" style="stroke:#800;stroke-width:10;stroke-opacity:1.000000;stroke-linecap:round"/>
  <g transform="translate(629,194) rotate(0)" > <text font-size="83.3333333333" fill="#800" font-family="monospace"  >
   20
  </text> </g> 
  <g transform="translate(410,235) rotate(0)" > <text font-size="83.3333333333" fill="#088" font-family="monospace"  >
   D5
  </text> </g> 
  <circle cx="850" cy="200" r="10"
    style="fill:none;stroke:#800;stroke-width:2"  />
  <line x1="100" y1="900" x2="100" y2="700" style="stroke:#800;stroke-width:10;stroke-opacity:1.000000;stroke-linecap:round"/>
  <g transform="translate(87,825) rotate(-90)" > <text font-size="83.3333333333" fill="#800" font-family="monospace"  >
   11
  </text> </g> 
  <g transform="translate(106,658) rotate(-90)" > <text font-size="83.3333333333" fill="#088" font-family="monospace"  >
   AGND
  </text> </g> 
  <circle cx="100" cy="900" r="10"
    style="fill:none;stroke:#800;stroke-width:2"  />
  <line x1="850" y1="300" x2="550" y2="300" style="stroke:#800;stroke-width:10;stroke-opacity:1.000000;stroke-linecap:round"/>
  <g transform="translate(629,294) rotate(0)" > <text font-size="83.3333333333" fill="#800" font-family="monospace"  >
   21
  </text> </g> 
  <g transform="translate(410,335) rotate(0)" > <text font-size="83.3333333333" fill="#088" font-family="monospace"  >
   D6
  </text> </g> 
  <circle cx="850" cy="300" r="10"
    style="fill:none;stroke:#800;stroke-width:2"  />
  <line x1="0" y1="-800" x2="0" y2="-600" style="stroke:#800;stroke-width:10;stroke-opacity:1.000000;stroke-linecap:round"/>
  <g transform="translate(-12,-675) rotate(-90)" > <text font-size="83.3333333333" fill="#800" font-family="monospace"  >
   12
  </text> </g> 
  <g transform="translate(6,-358) rotate(-90)" > <text font-size="83.3333333333" fill="#088" font-family="monospace"  >
   AVDD
  </text> </g> 
  <circle cx="0" cy="-800" r="10"
    style="fill:none;stroke:#800;stroke-width:2"  />
  <line x1="850" y1="400" x2="550" y2="400" style="stroke:#800;stroke-width:10;stroke-opacity:1.000000;stroke-linecap:round"/>
  <g transform="translate(629,394) rotate(0)" > <text font-size="83.3333333333" fill="#800" font-family="monospace"  >
   22
  </text> </g> 
  <g transform="translate(410,435) rotate(0)" > <text font-size="83.3333333333" fill="#088" font-family="monospace"  >
   D7
  </text> </g> 
  <circle cx="850" cy="400" r="10"
    style="fill:none;stroke:#800;stroke-width:2"  />
  <line x1="850" y1="-300" x2="550" y2="-300" style="stroke:#800;stroke-width:10;stroke-opacity:1.000000;stroke-linecap:round"/>
  <g transform="translate(629,-306) rotate(0)" > <text font-size="83.3333333333" fill="#800" font-family="monospace"  >
   13
  </text> </g> 
  <g transform="translate(410,-265) rotate(0)" > <text font-size="83.3333333333" fill="#088" font-family="monospace"  >
   D0
  </text> </g> 
  <circle cx="850" cy="-300" r="10"
    style="fill:none;stroke:#800;stroke-width:2"  />
  <line x1="-850" y1="400" x2="-550" y2="400" style="stroke:#800;stroke-width:10;stroke-opacity:1.000000;stroke-linecap:round"/>
  <g transform="translate(-770,394) rotate(0)" > <text font-size="83.3333333333" fill="#800" font-family="monospace"  >
   23
  </text> </g> 
  <g transform="translate(-532,425) rotate(0)" > <text font-size="50.0" fill="#088" font-family="monospace"  >
   PWR_DWN
  </text> </g> 
  <circle cx="-850" cy="400" r="10"
    style="fill:none;stroke:#800;stroke-width:2"  />
  <line x1="850" y1="-200" x2="550" y2="-200" style="stroke:#800;stroke-width:10;stroke-opacity:1.000000;stroke-linecap:round"/>
  <g transform="translate(629,-206) rotate(0)" > <text font-size="83.3333333333" fill="#800" font-family="monospace"  >
   14
  </text> </g> 
  <g transform="translate(410,-165) rotate(0)" > <text font-size="83.3333333333" fill="#088" font-family="monospace"  >
   D1
  </text> </g> 
  <circle cx="850" cy="-200" r="10"
    style="fill:none;stroke:#800;stroke-width:2"  />
  <line x1="-510" y1="600" x2="-550" y2="640" style="stroke:#800;stroke-width:10;stroke-opacity:1.000000;stroke-linecap:round"/>
  <line x1="-550" y1="640" x2="-550" y2="560" style="stroke:#800;stroke-width:10;stroke-opacity:1.000000;stroke-linecap:round"/>
  <line x1="-550" y1="560" x2="-510" y2="600" style="stroke:#800;stroke-width:10;stroke-opacity:1.000000;stroke-linecap:round"/>
  <line x1="-850" y1="600" x2="-550" y2="600" style="stroke:#800;stroke-width:10;stroke-opacity:1.000000;stroke-linecap:round"/>
  <g transform="translate(-770,594) rotate(0)" > <text font-size="83.3333333333" fill="#800" font-family="monospace"  >
   24
  </text> </g> 
  <g transform="translate(-532,635) rotate(0)" > <text font-size="83.3333333333" fill="#088" font-family="monospace"  >
   CLK
  </text> </g> 
  <circle cx="-850" cy="600" r="10"
    style="fill:none;stroke:#800;stroke-width:2"  />
  <line x1="850" y1="-100" x2="550" y2="-100" style="stroke:#800;stroke-width:10;stroke-opacity:1.000000;stroke-linecap:round"/>
  <g transform="translate(629,-106) rotate(0)" > <text font-size="83.3333333333" fill="#800" font-family="monospace"  >
   15
  </text> </g> 
  <g transform="translate(410,-65) rotate(0)" > <text font-size="83.3333333333" fill="#088" font-family="monospace"  >
   D2
  </text> </g> 
  <circle cx="850" cy="-100" r="10"
    style="fill:none;stroke:#800;stroke-width:2"  />
  <line x1="850" y1="0" x2="550" y2="0" style="stroke:#800;stroke-width:10;stroke-opacity:1.000000;stroke-linecap:round"/>
  <g transform="translate(629,-6) rotate(0)" > <text font-size="83.3333333333" fill="#800" font-family="monospace"  >
   16
  </text> </g> 
  <g transform="translate(410,35) rotate(0)" > <text font-size="83.3333333333" fill="#088" font-family="monospace"  >
   D3
  </text> </g> 
  <circle cx="850" cy="0" r="10"
    style="fill:none;stroke:#800;stroke-width:2"  />
  <line x1="200" y1="900" x2="200" y2="700" style="stroke:#800;stroke-width:10;stroke-opacity:1.000000;stroke-linecap:round"/>
  <g transform="translate(187,825) rotate(-90)" > <text font-size="83.3333333333" fill="#800" font-family="monospace"  >
   17
  </text> </g> 
  <g transform="translate(206,658) rotate(-90)" > <text font-size="83.3333333333" fill="#088" font-family="monospace"  >
   DGND
  </text> </g> 
  <circle cx="200" cy="900" r="10"
    style="fill:none;stroke:#800;stroke-width:2"  />
  <line x1="300" y1="-800" x2="300" y2="-600" style="stroke:#800;stroke-width:10;stroke-opacity:1.000000;stroke-linecap:round"/>
  <g transform="translate(287,-675) rotate(-90)" > <text font-size="83.3333333333" fill="#800" font-family="monospace"  >
   18
  </text> </g> 
  <g transform="translate(306,-358) rotate(-90)" > <text font-size="83.3333333333" fill="#088" font-family="monospace"  >
   DVDD
  </text> </g> 
  <circle cx="300" cy="-800" r="10"
    style="fill:none;stroke:#800;stroke-width:2"  />
  <line x1="850" y1="100" x2="550" y2="100" style="stroke:#800;stroke-width:10;stroke-opacity:1.000000;stroke-linecap:round"/>
  <g transform="translate(629,94) rotate(0)" > <text font-size="83.3333333333" fill="#800" font-family="monospace"  >
   19
  </text> </g> 
  <g transform="translate(410,135) rotate(0)" > <text font-size="83.3333333333" fill="#088" font-family="monospace"  >
   D4
  </text> </g> 
  <circle cx="850" cy="100" r="10"
    style="fill:none;stroke:#800;stroke-width:2"  />
 </g>
</svg>
