<?xml version="1.0"?>
<svg height="337" width="290"  >
 <g style="fill-opacity:1.0; stroke:black;
  stroke-width:1;" transform=" translate( 145.0,168.8 ) scale( 0.15,0.15 )">
  <g transform="translate(115,-565) rotate(0)" > <text font-size="116.666666667" fill="#088" font-family="monospace"  >
   U
  </text> </g> 
  <g transform="translate(75,634) rotate(0)" > <text font-size="116.666666667" fill="#088" font-family="monospace"  >
   DAC08
  </text> </g> 
  <rect x="-300" y="-550" height="1100"
    width="600" style="fill:none;stroke:#800;stroke-width:10" />
  <line x1="600" y1="-350" x2="300" y2="-350" style="stroke:#800;stroke-width:10;stroke-opacity:1.000000;stroke-linecap:round"/>
  <g transform="translate(407,-356) rotate(0)" > <text font-size="100.0" fill="#800" font-family="monospace"  >
   1
  </text> </g> 
  <g transform="translate(80,-310) rotate(0)" > <text font-size="100.0" fill="#088" font-family="monospace"  >
   VLC
  </text> </g> 
  <circle cx="600" cy="-350" r="10"
    style="fill:none;stroke:#800;stroke-width:2"  />
  <line x1="600" y1="-50" x2="300" y2="-50" style="stroke:#800;stroke-width:10;stroke-opacity:1.000000;stroke-linecap:round"/>
  <g transform="translate(407,-56) rotate(0)" > <text font-size="100.0" fill="#800" font-family="monospace"  >
   2
  </text> </g> 
  <g transform="translate(140,-10) rotate(0)" > <text font-size="100.0" fill="#088" font-family="monospace"  >
   I+
  </text> </g> 
  <circle cx="600" cy="-50" r="10"
    style="fill:none;stroke:#800;stroke-width:2"  />
  <line x1="0" y1="700" x2="0" y2="550" style="stroke:#800;stroke-width:10;stroke-opacity:1.000000;stroke-linecap:round"/>
  <g transform="translate(-12,637) rotate(-90)" > <text font-size="83.3333333333" fill="#800" font-family="monospace"  >
   3
  </text> </g> 
  <g transform="translate(6,508) rotate(-90)" > <text font-size="83.3333333333" fill="#088" font-family="monospace"  >
   V-
  </text> </g> 
  <circle cx="0" cy="700" r="10"
    style="fill:none;stroke:#800;stroke-width:2"  />
  <line x1="600" y1="50" x2="300" y2="50" style="stroke:#800;stroke-width:10;stroke-opacity:1.000000;stroke-linecap:round"/>
  <g transform="translate(407,44) rotate(0)" > <text font-size="100.0" fill="#800" font-family="monospace"  >
   4
  </text> </g> 
  <g transform="translate(140,90) rotate(0)" > <text font-size="100.0" fill="#088" font-family="monospace"  >
   I-
  </text> </g> 
  <circle cx="600" cy="50" r="10"
    style="fill:none;stroke:#800;stroke-width:2"  />
  <line x1="-600" y1="-450" x2="-300" y2="-450" style="stroke:#800;stroke-width:10;stroke-opacity:1.000000;stroke-linecap:round"/>
  <g transform="translate(-492,-456) rotate(0)" > <text font-size="100.0" fill="#800" font-family="monospace"  >
   5
  </text> </g> 
  <g transform="translate(-282,-410) rotate(0)" > <text font-size="100.0" fill="#088" font-family="monospace"  >
   B0
  </text> </g> 
  <circle cx="-600" cy="-450" r="10"
    style="fill:none;stroke:#800;stroke-width:2"  />
  <line x1="-600" y1="-350" x2="-300" y2="-350" style="stroke:#800;stroke-width:10;stroke-opacity:1.000000;stroke-linecap:round"/>
  <g transform="translate(-492,-356) rotate(0)" > <text font-size="100.0" fill="#800" font-family="monospace"  >
   6
  </text> </g> 
  <g transform="translate(-282,-310) rotate(0)" > <text font-size="100.0" fill="#088" font-family="monospace"  >
   B1
  </text> </g> 
  <circle cx="-600" cy="-350" r="10"
    style="fill:none;stroke:#800;stroke-width:2"  />
  <line x1="-600" y1="-250" x2="-300" y2="-250" style="stroke:#800;stroke-width:10;stroke-opacity:1.000000;stroke-linecap:round"/>
  <g transform="translate(-492,-256) rotate(0)" > <text font-size="100.0" fill="#800" font-family="monospace"  >
   7
  </text> </g> 
  <g transform="translate(-282,-210) rotate(0)" > <text font-size="100.0" fill="#088" font-family="monospace"  >
   B2
  </text> </g> 
  <circle cx="-600" cy="-250" r="10"
    style="fill:none;stroke:#800;stroke-width:2"  />
  <line x1="-600" y1="-150" x2="-300" y2="-150" style="stroke:#800;stroke-width:10;stroke-opacity:1.000000;stroke-linecap:round"/>
  <g transform="translate(-492,-156) rotate(0)" > <text font-size="100.0" fill="#800" font-family="monospace"  >
   8
  </text> </g> 
  <g transform="translate(-282,-110) rotate(0)" > <text font-size="100.0" fill="#088" font-family="monospace"  >
   B3
  </text> </g> 
  <circle cx="-600" cy="-150" r="10"
    style="fill:none;stroke:#800;stroke-width:2"  />
  <line x1="-600" y1="-50" x2="-300" y2="-50" style="stroke:#800;stroke-width:10;stroke-opacity:1.000000;stroke-linecap:round"/>
  <g transform="translate(-492,-56) rotate(0)" > <text font-size="100.0" fill="#800" font-family="monospace"  >
   9
  </text> </g> 
  <g transform="translate(-282,-10) rotate(0)" > <text font-size="100.0" fill="#088" font-family="monospace"  >
   B4
  </text> </g> 
  <circle cx="-600" cy="-50" r="10"
    style="fill:none;stroke:#800;stroke-width:2"  />
  <line x1="-600" y1="50" x2="-300" y2="50" style="stroke:#800;stroke-width:10;stroke-opacity:1.000000;stroke-linecap:round"/>
  <g transform="translate(-535,44) rotate(0)" > <text font-size="100.0" fill="#800" font-family="monospace"  >
   10
  </text> </g> 
  <g transform="translate(-282,90) rotate(0)" > <text font-size="100.0" fill="#088" font-family="monospace"  >
   B5
  </text> </g> 
  <circle cx="-600" cy="50" r="10"
    style="fill:none;stroke:#800;stroke-width:2"  />
  <line x1="-600" y1="150" x2="-300" y2="150" style="stroke:#800;stroke-width:10;stroke-opacity:1.000000;stroke-linecap:round"/>
  <g transform="translate(-535,144) rotate(0)" > <text font-size="100.0" fill="#800" font-family="monospace"  >
   11
  </text> </g> 
  <g transform="translate(-282,190) rotate(0)" > <text font-size="100.0" fill="#088" font-family="monospace"  >
   B6
  </text> </g> 
  <circle cx="-600" cy="150" r="10"
    style="fill:none;stroke:#800;stroke-width:2"  />
  <line x1="-600" y1="250" x2="-300" y2="250" style="stroke:#800;stroke-width:10;stroke-opacity:1.000000;stroke-linecap:round"/>
  <g transform="translate(-535,244) rotate(0)" > <text font-size="100.0" fill="#800" font-family="monospace"  >
   12
  </text> </g> 
  <g transform="translate(-282,290) rotate(0)" > <text font-size="100.0" fill="#088" font-family="monospace"  >
   B7
  </text> </g> 
  <circle cx="-600" cy="250" r="10"
    style="fill:none;stroke:#800;stroke-width:2"  />
  <line x1="0" y1="-700" x2="0" y2="-550" style="stroke:#800;stroke-width:10;stroke-opacity:1.000000;stroke-linecap:round"/>
  <g transform="translate(-12,-600) rotate(-90)" > <text font-size="83.3333333333" fill="#800" font-family="monospace"  >
   13
  </text> </g> 
  <g transform="translate(6,-408) rotate(-90)" > <text font-size="83.3333333333" fill="#088" font-family="monospace"  >
   V+
  </text> </g> 
  <circle cx="0" cy="-700" r="10"
    style="fill:none;stroke:#800;stroke-width:2"  />
  <line x1="600" y1="350" x2="300" y2="350" style="stroke:#800;stroke-width:10;stroke-opacity:1.000000;stroke-linecap:round"/>
  <g transform="translate(365,344) rotate(0)" > <text font-size="100.0" fill="#800" font-family="monospace"  >
   14
  </text> </g> 
  <g transform="translate(140,390) rotate(0)" > <text font-size="100.0" fill="#088" font-family="monospace"  >
   R+
  </text> </g> 
  <circle cx="600" cy="350" r="10"
    style="fill:none;stroke:#800;stroke-width:2"  />
  <line x1="600" y1="450" x2="300" y2="450" style="stroke:#800;stroke-width:10;stroke-opacity:1.000000;stroke-linecap:round"/>
  <g transform="translate(365,444) rotate(0)" > <text font-size="100.0" fill="#800" font-family="monospace"  >
   15
  </text> </g> 
  <g transform="translate(140,490) rotate(0)" > <text font-size="100.0" fill="#088" font-family="monospace"  >
   R-
  </text> </g> 
  <circle cx="600" cy="450" r="10"
    style="fill:none;stroke:#800;stroke-width:2"  />
  <line x1="-600" y1="400" x2="-300" y2="400" style="stroke:#800;stroke-width:10;stroke-opacity:1.000000;stroke-linecap:round"/>
  <g transform="translate(-535,394) rotate(0)" > <text font-size="100.0" fill="#800" font-family="monospace"  >
   16
  </text> </g> 
  <g transform="translate(-282,440) rotate(0)" > <text font-size="100.0" fill="#088" font-family="monospace"  >
   CMP
  </text> </g> 
  <circle cx="-600" cy="400" r="10"
    style="fill:none;stroke:#800;stroke-width:2"  />
 </g>
</svg>
