<?xml version="1.0"?>
<svg height="295" width="295"  >
 <g style="fill-opacity:1.0; stroke:black;
  stroke-width:1;" transform=" translate( 147.5,147.5 ) scale( 0.15,0.15 )">
  <g transform="translate(-20,-330) rotate(0)" > <text font-size="66.6666666667" fill="#088" font-family="monospace"  >
   U
  </text> </g> 
  <g transform="translate(-220,-300) rotate(0)" > <text font-size="66.6666666667" fill="#088" font-family="monospace"  >
   MCP4921-E/P
  </text> </g> 
<polygon points=" -400,-250 150,-250 400,0 150,250 -400,250 -400,-250" 
style="fill:#ff8;stroke:#800;stroke-width:10"/>
  <line x1="-100" y1="-400" x2="-100" y2="-250" style="stroke:#800;stroke-width:10;stroke-opacity:1.000000;stroke-linecap:round"/>
  <g transform="translate(-110,-315) rotate(-90)" > <text font-size="66.6666666667" fill="#800" font-family="monospace"  >
   1
  </text> </g> 
  <g transform="translate(-95,-96) rotate(-90)" > <text font-size="66.6666666667" fill="#088" font-family="monospace"  >
   VDD
  </text> </g> 
  <circle cx="-100" cy="-400" r="10"
    style="fill:none;stroke:#800;stroke-width:2"  />
  <line x1="-550" y1="50" x2="-400" y2="50" style="stroke:#800;stroke-width:10;stroke-opacity:1.000000;stroke-linecap:round"/>
  <g transform="translate(-503,44) rotate(0)" > <text font-size="66.6666666667" fill="#800" font-family="monospace"  >
   2
  </text> </g> 
  <g transform="translate(-382,80) rotate(0)" > <text font-size="66.6666666667" fill="#088" font-family="monospace"  >
   ~CS~
  </text> </g> 
  <circle cx="-550" cy="50" r="10"
    style="fill:none;stroke:#800;stroke-width:2"  />
  <line x1="-550" y1="-50" x2="-400" y2="-50" style="stroke:#800;stroke-width:10;stroke-opacity:1.000000;stroke-linecap:round"/>
  <g transform="translate(-503,-56) rotate(0)" > <text font-size="66.6666666667" fill="#800" font-family="monospace"  >
   3
  </text> </g> 
  <g transform="translate(-382,-20) rotate(0)" > <text font-size="66.6666666667" fill="#088" font-family="monospace"  >
   SCK
  </text> </g> 
  <circle cx="-550" cy="-50" r="10"
    style="fill:none;stroke:#800;stroke-width:2"  />
  <line x1="-550" y1="-150" x2="-400" y2="-150" style="stroke:#800;stroke-width:10;stroke-opacity:1.000000;stroke-linecap:round"/>
  <g transform="translate(-503,-156) rotate(0)" > <text font-size="66.6666666667" fill="#800" font-family="monospace"  >
   4
  </text> </g> 
  <g transform="translate(-382,-120) rotate(0)" > <text font-size="66.6666666667" fill="#088" font-family="monospace"  >
   SDI
  </text> </g> 
  <circle cx="-550" cy="-150" r="10"
    style="fill:none;stroke:#800;stroke-width:2"  />
  <line x1="-550" y1="150" x2="-400" y2="150" style="stroke:#800;stroke-width:10;stroke-opacity:1.000000;stroke-linecap:round"/>
  <g transform="translate(-503,144) rotate(0)" > <text font-size="66.6666666667" fill="#800" font-family="monospace"  >
   5
  </text> </g> 
  <g transform="translate(-382,180) rotate(0)" > <text font-size="66.6666666667" fill="#088" font-family="monospace"  >
   ~LDAC~
  </text> </g> 
  <circle cx="-550" cy="150" r="10"
    style="fill:none;stroke:#800;stroke-width:2"  />
  <line x1="100" y1="400" x2="100" y2="250" style="stroke:#800;stroke-width:10;stroke-opacity:1.000000;stroke-linecap:round"/>
  <g transform="translate(90,335) rotate(-90)" > <text font-size="66.6666666667" fill="#800" font-family="monospace"  >
   6
  </text> </g> 
  <g transform="translate(105,216) rotate(-90)" > <text font-size="66.6666666667" fill="#088" font-family="monospace"  >
   VrefA
  </text> </g> 
  <circle cx="100" cy="400" r="10"
    style="fill:none;stroke:#800;stroke-width:2"  />
  <line x1="-100" y1="400" x2="-100" y2="250" style="stroke:#800;stroke-width:10;stroke-opacity:1.000000;stroke-linecap:round"/>
  <g transform="translate(-110,335) rotate(-90)" > <text font-size="66.6666666667" fill="#800" font-family="monospace"  >
   7
  </text> </g> 
  <g transform="translate(-95,216) rotate(-90)" > <text font-size="66.6666666667" fill="#088" font-family="monospace"  >
   AVSS
  </text> </g> 
  <circle cx="-100" cy="400" r="10"
    style="fill:none;stroke:#800;stroke-width:2"  />
  <line x1="550" y1="0" x2="400" y2="0" style="stroke:#800;stroke-width:10;stroke-opacity:1.000000;stroke-linecap:round"/>
  <g transform="translate(446,-6) rotate(0)" > <text font-size="66.6666666667" fill="#800" font-family="monospace"  >
   8
  </text> </g> 
  <g transform="translate(160,30) rotate(0)" > <text font-size="66.6666666667" fill="#088" font-family="monospace"  >
   VoutA
  </text> </g> 
  <circle cx="550" cy="0" r="10"
    style="fill:none;stroke:#800;stroke-width:2"  />
 </g>
</svg>
