<?xml version="1.0"?>
<svg height="305" width="305"  >
 <g style="fill-opacity:1.0; stroke:black;
  stroke-width:1;" transform=" translate( 152.5,152.5 ) scale( 0.15,0.15 )">
  <g transform="translate(-370,-480) rotate(0)" > <text font-size="66.6666666667" fill="#088" font-family="monospace"  >
   U
  </text> </g> 
  <g transform="translate(120,-480) rotate(0)" > <text font-size="66.6666666667" fill="#088" font-family="monospace"  >
   TLV5627CD
  </text> </g> 
  <rect x="-400" y="-450" height="950"
    width="800" style="fill:none;stroke:#800;stroke-width:10" />
  <line x1="-150" y1="-600" x2="-150" y2="-450" style="stroke:#800;stroke-width:10;stroke-opacity:1.000000;stroke-linecap:round"/>
  <g transform="translate(-160,-515) rotate(-90)" > <text font-size="66.6666666667" fill="#800" font-family="monospace"  >
   1
  </text> </g> 
  <g transform="translate(-145,-256) rotate(-90)" > <text font-size="66.6666666667" fill="#088" font-family="monospace"  >
   DVDD
  </text> </g> 
  <circle cx="-150" cy="-600" r="10"
    style="fill:none;stroke:#800;stroke-width:2"  />
  <line x1="-550" y1="250" x2="-400" y2="250" style="stroke:#800;stroke-width:10;stroke-opacity:1.000000;stroke-linecap:round"/>
  <g transform="translate(-503,244) rotate(0)" > <text font-size="66.6666666667" fill="#800" font-family="monospace"  >
   2
  </text> </g> 
  <g transform="translate(-382,280) rotate(0)" > <text font-size="66.6666666667" fill="#088" font-family="monospace"  >
   ~PD
  </text> </g> 
  <circle cx="-550" cy="250" r="10"
    style="fill:none;stroke:#800;stroke-width:2"  />
  <line x1="-550" y1="100" x2="-400" y2="100" style="stroke:#800;stroke-width:10;stroke-opacity:1.000000;stroke-linecap:round"/>
  <g transform="translate(-503,94) rotate(0)" > <text font-size="66.6666666667" fill="#800" font-family="monospace"  >
   3
  </text> </g> 
  <g transform="translate(-382,130) rotate(0)" > <text font-size="66.6666666667" fill="#088" font-family="monospace"  >
   ~LDAC
  </text> </g> 
  <circle cx="-550" cy="100" r="10"
    style="fill:none;stroke:#800;stroke-width:2"  />
  <line x1="-550" y1="-300" x2="-400" y2="-300" style="stroke:#800;stroke-width:10;stroke-opacity:1.000000;stroke-linecap:round"/>
  <g transform="translate(-503,-306) rotate(0)" > <text font-size="66.6666666667" fill="#800" font-family="monospace"  >
   4
  </text> </g> 
  <g transform="translate(-382,-270) rotate(0)" > <text font-size="66.6666666667" fill="#088" font-family="monospace"  >
   DIN
  </text> </g> 
  <circle cx="-550" cy="-300" r="10"
    style="fill:none;stroke:#800;stroke-width:2"  />
  <line x1="-550" y1="-200" x2="-400" y2="-200" style="stroke:#800;stroke-width:10;stroke-opacity:1.000000;stroke-linecap:round"/>
  <g transform="translate(-503,-206) rotate(0)" > <text font-size="66.6666666667" fill="#800" font-family="monospace"  >
   5
  </text> </g> 
  <g transform="translate(-382,-170) rotate(0)" > <text font-size="66.6666666667" fill="#088" font-family="monospace"  >
   SCLK
  </text> </g> 
  <circle cx="-550" cy="-200" r="10"
    style="fill:none;stroke:#800;stroke-width:2"  />
  <line x1="-550" y1="0" x2="-400" y2="0" style="stroke:#800;stroke-width:10;stroke-opacity:1.000000;stroke-linecap:round"/>
  <g transform="translate(-503,-6) rotate(0)" > <text font-size="66.6666666667" fill="#800" font-family="monospace"  >
   6
  </text> </g> 
  <g transform="translate(-382,30) rotate(0)" > <text font-size="66.6666666667" fill="#088" font-family="monospace"  >
   ~CS
  </text> </g> 
  <circle cx="-550" cy="0" r="10"
    style="fill:none;stroke:#800;stroke-width:2"  />
  <line x1="-550" y1="-100" x2="-400" y2="-100" style="stroke:#800;stroke-width:10;stroke-opacity:1.000000;stroke-linecap:round"/>
  <g transform="translate(-503,-106) rotate(0)" > <text font-size="66.6666666667" fill="#800" font-family="monospace"  >
   7
  </text> </g> 
  <g transform="translate(-382,-70) rotate(0)" > <text font-size="66.6666666667" fill="#088" font-family="monospace"  >
   FS
  </text> </g> 
  <circle cx="-550" cy="-100" r="10"
    style="fill:none;stroke:#800;stroke-width:2"  />
  <line x1="-150" y1="650" x2="-150" y2="500" style="stroke:#800;stroke-width:10;stroke-opacity:1.000000;stroke-linecap:round"/>
  <g transform="translate(-160,585) rotate(-90)" > <text font-size="66.6666666667" fill="#800" font-family="monospace"  >
   8
  </text> </g> 
  <g transform="translate(-145,466) rotate(-90)" > <text font-size="66.6666666667" fill="#088" font-family="monospace"  >
   DGND
  </text> </g> 
  <circle cx="-150" cy="650" r="10"
    style="fill:none;stroke:#800;stroke-width:2"  />
  <line x1="50" y1="650" x2="50" y2="500" style="stroke:#800;stroke-width:10;stroke-opacity:1.000000;stroke-linecap:round"/>
  <g transform="translate(40,585) rotate(-90)" > <text font-size="66.6666666667" fill="#800" font-family="monospace"  >
   9
  </text> </g> 
  <g transform="translate(55,466) rotate(-90)" > <text font-size="66.6666666667" fill="#088" font-family="monospace"  >
   AGND
  </text> </g> 
  <circle cx="50" cy="650" r="10"
    style="fill:none;stroke:#800;stroke-width:2"  />
  <line x1="550" y1="400" x2="400" y2="400" style="stroke:#800;stroke-width:10;stroke-opacity:1.000000;stroke-linecap:round"/>
  <g transform="translate(418,394) rotate(0)" > <text font-size="66.6666666667" fill="#800" font-family="monospace"  >
   10
  </text> </g> 
  <g transform="translate(80,430) rotate(0)" > <text font-size="66.6666666667" fill="#088" font-family="monospace"  >
   REFINCD
  </text> </g> 
  <circle cx="550" cy="400" r="10"
    style="fill:none;stroke:#800;stroke-width:2"  />
  <line x1="550" y1="250" x2="400" y2="250" style="stroke:#800;stroke-width:10;stroke-opacity:1.000000;stroke-linecap:round"/>
  <g transform="translate(418,244) rotate(0)" > <text font-size="66.6666666667" fill="#800" font-family="monospace"  >
   11
  </text> </g> 
  <g transform="translate(200,280) rotate(0)" > <text font-size="66.6666666667" fill="#088" font-family="monospace"  >
   OUTD
  </text> </g> 
  <circle cx="550" cy="250" r="10"
    style="fill:none;stroke:#800;stroke-width:2"  />
  <line x1="550" y1="150" x2="400" y2="150" style="stroke:#800;stroke-width:10;stroke-opacity:1.000000;stroke-linecap:round"/>
  <g transform="translate(418,144) rotate(0)" > <text font-size="66.6666666667" fill="#800" font-family="monospace"  >
   12
  </text> </g> 
  <g transform="translate(200,180) rotate(0)" > <text font-size="66.6666666667" fill="#088" font-family="monospace"  >
   OUTC
  </text> </g> 
  <circle cx="550" cy="150" r="10"
    style="fill:none;stroke:#800;stroke-width:2"  />
  <line x1="550" y1="-200" x2="400" y2="-200" style="stroke:#800;stroke-width:10;stroke-opacity:1.000000;stroke-linecap:round"/>
  <g transform="translate(418,-206) rotate(0)" > <text font-size="66.6666666667" fill="#800" font-family="monospace"  >
   13
  </text> </g> 
  <g transform="translate(200,-170) rotate(0)" > <text font-size="66.6666666667" fill="#088" font-family="monospace"  >
   OUTB
  </text> </g> 
  <circle cx="550" cy="-200" r="10"
    style="fill:none;stroke:#800;stroke-width:2"  />
  <line x1="550" y1="-300" x2="400" y2="-300" style="stroke:#800;stroke-width:10;stroke-opacity:1.000000;stroke-linecap:round"/>
  <g transform="translate(418,-306) rotate(0)" > <text font-size="66.6666666667" fill="#800" font-family="monospace"  >
   14
  </text> </g> 
  <g transform="translate(200,-270) rotate(0)" > <text font-size="66.6666666667" fill="#088" font-family="monospace"  >
   OUTA
  </text> </g> 
  <circle cx="550" cy="-300" r="10"
    style="fill:none;stroke:#800;stroke-width:2"  />
  <line x1="550" y1="-50" x2="400" y2="-50" style="stroke:#800;stroke-width:10;stroke-opacity:1.000000;stroke-linecap:round"/>
  <g transform="translate(418,-56) rotate(0)" > <text font-size="66.6666666667" fill="#800" font-family="monospace"  >
   15
  </text> </g> 
  <g transform="translate(80,-20) rotate(0)" > <text font-size="66.6666666667" fill="#088" font-family="monospace"  >
   REFINAB
  </text> </g> 
  <circle cx="550" cy="-50" r="10"
    style="fill:none;stroke:#800;stroke-width:2"  />
  <line x1="50" y1="-600" x2="50" y2="-450" style="stroke:#800;stroke-width:10;stroke-opacity:1.000000;stroke-linecap:round"/>
  <g transform="translate(40,-505) rotate(-90)" > <text font-size="66.6666666667" fill="#800" font-family="monospace"  >
   16
  </text> </g> 
  <g transform="translate(55,-256) rotate(-90)" > <text font-size="66.6666666667" fill="#088" font-family="monospace"  >
   AVDD
  </text> </g> 
  <circle cx="50" cy="-600" r="10"
    style="fill:none;stroke:#800;stroke-width:2"  />
 </g>
</svg>
