<?xml version="1.0"?>
<svg height="798" width="798"  >
 <g style="fill-opacity:1.0; stroke:black;
  stroke-width:1;" transform=" translate( 399.2,399.2 ) scale( 0.15,0.15 )">
  <g transform="translate(270,-770) rotate(0)" > <text font-size="100.0" fill="#088" font-family="monospace"  >
   U
  </text> </g> 
  <g transform="translate(150,830) rotate(0)" > <text font-size="100.0" fill="#088" font-family="monospace"  >
   PIC16F628A
  </text> </g> 
  <rect x="-750" y="-750" height="1500"
    width="1750" style="fill:none;stroke:#800;stroke-width:10" />
  <line x1="1300" y1="450" x2="1000" y2="450" style="stroke:#800;stroke-width:10;stroke-opacity:1.000000;stroke-linecap:round"/>
  <g transform="translate(1114,444) rotate(0)" > <text font-size="83.3333333333" fill="#800" font-family="monospace"  >
   1
  </text> </g> 
  <g transform="translate(359,485) rotate(0)" > <text font-size="83.3333333333" fill="#088" font-family="monospace"  >
   RA2/AN2/VREF
  </text> </g> 
  <circle cx="1300" cy="450" r="10"
    style="fill:none;stroke:#800;stroke-width:2"  />
  <line x1="1300" y1="350" x2="1000" y2="350" style="stroke:#800;stroke-width:10;stroke-opacity:1.000000;stroke-linecap:round"/>
  <g transform="translate(1114,344) rotate(0)" > <text font-size="83.3333333333" fill="#800" font-family="monospace"  >
   2
  </text> </g> 
  <g transform="translate(359,385) rotate(0)" > <text font-size="83.3333333333" fill="#088" font-family="monospace"  >
   RA3/AN3/CMP1
  </text> </g> 
  <circle cx="1300" cy="350" r="10"
    style="fill:none;stroke:#800;stroke-width:2"  />
  <line x1="1300" y1="250" x2="1000" y2="250" style="stroke:#800;stroke-width:10;stroke-opacity:1.000000;stroke-linecap:round"/>
  <g transform="translate(1114,244) rotate(0)" > <text font-size="83.3333333333" fill="#800" font-family="monospace"  >
   3
  </text> </g> 
  <g transform="translate(259,285) rotate(0)" > <text font-size="83.3333333333" fill="#088" font-family="monospace"  >
   RA4/TOCKI/CMP2
  </text> </g> 
  <circle cx="1300" cy="250" r="10"
    style="fill:none;stroke:#800;stroke-width:2"  />
  <line x1="-1050" y1="200" x2="-750" y2="200" style="stroke:#800;stroke-width:10;stroke-opacity:1.000000;stroke-linecap:round"/>
  <g transform="translate(-935,194) rotate(0)" > <text font-size="83.3333333333" fill="#800" font-family="monospace"  >
   4
  </text> </g> 
  <g transform="translate(-732,235) rotate(0)" > <text font-size="83.3333333333" fill="#088" font-family="monospace"  >
   MCLR/RA5
  </text> </g> 
  <circle cx="-1050" cy="200" r="10"
    style="fill:none;stroke:#800;stroke-width:2"  />
  <line x1="-1050" y1="650" x2="-750" y2="650" style="stroke:#800;stroke-width:10;stroke-opacity:1.000000;stroke-linecap:round"/>
  <g transform="translate(-935,644) rotate(0)" > <text font-size="83.3333333333" fill="#800" font-family="monospace"  >
   5
  </text> </g> 
  <g transform="translate(-732,685) rotate(0)" > <text font-size="83.3333333333" fill="#088" font-family="monospace"  >
   VSS
  </text> </g> 
  <circle cx="-1050" cy="650" r="10"
    style="fill:none;stroke:#800;stroke-width:2"  />
  <line x1="1300" y1="50" x2="1000" y2="50" style="stroke:#800;stroke-width:10;stroke-opacity:1.000000;stroke-linecap:round"/>
  <g transform="translate(1114,44) rotate(0)" > <text font-size="83.3333333333" fill="#800" font-family="monospace"  >
   6
  </text> </g> 
  <g transform="translate(610,85) rotate(0)" > <text font-size="83.3333333333" fill="#088" font-family="monospace"  >
   RB0/INT
  </text> </g> 
  <circle cx="1300" cy="50" r="10"
    style="fill:none;stroke:#800;stroke-width:2"  />
  <line x1="1300" y1="-50" x2="1000" y2="-50" style="stroke:#800;stroke-width:10;stroke-opacity:1.000000;stroke-linecap:round"/>
  <g transform="translate(1114,-56) rotate(0)" > <text font-size="83.3333333333" fill="#800" font-family="monospace"  >
   7
  </text> </g> 
  <g transform="translate(509,-15) rotate(0)" > <text font-size="83.3333333333" fill="#088" font-family="monospace"  >
   RB1/RX/DT
  </text> </g> 
  <circle cx="1300" cy="-50" r="10"
    style="fill:none;stroke:#800;stroke-width:2"  />
  <line x1="1300" y1="-150" x2="1000" y2="-150" style="stroke:#800;stroke-width:10;stroke-opacity:1.000000;stroke-linecap:round"/>
  <g transform="translate(1114,-156) rotate(0)" > <text font-size="83.3333333333" fill="#800" font-family="monospace"  >
   8
  </text> </g> 
  <g transform="translate(509,-115) rotate(0)" > <text font-size="83.3333333333" fill="#088" font-family="monospace"  >
   RB2/TX/CK
  </text> </g> 
  <circle cx="1300" cy="-150" r="10"
    style="fill:none;stroke:#800;stroke-width:2"  />
  <line x1="1300" y1="-250" x2="1000" y2="-250" style="stroke:#800;stroke-width:10;stroke-opacity:1.000000;stroke-linecap:round"/>
  <g transform="translate(1114,-256) rotate(0)" > <text font-size="83.3333333333" fill="#800" font-family="monospace"  >
   9
  </text> </g> 
  <g transform="translate(560,-215) rotate(0)" > <text font-size="83.3333333333" fill="#088" font-family="monospace"  >
   RB3/CCP1
  </text> </g> 
  <circle cx="1300" cy="-250" r="10"
    style="fill:none;stroke:#800;stroke-width:2"  />
  <line x1="1300" y1="-350" x2="1000" y2="-350" style="stroke:#800;stroke-width:10;stroke-opacity:1.000000;stroke-linecap:round"/>
  <g transform="translate(1079,-356) rotate(0)" > <text font-size="83.3333333333" fill="#800" font-family="monospace"  >
   10
  </text> </g> 
  <g transform="translate(610,-315) rotate(0)" > <text font-size="83.3333333333" fill="#088" font-family="monospace"  >
   RB4/PGM
  </text> </g> 
  <circle cx="1300" cy="-350" r="10"
    style="fill:none;stroke:#800;stroke-width:2"  />
  <line x1="1300" y1="-450" x2="1000" y2="-450" style="stroke:#800;stroke-width:10;stroke-opacity:1.000000;stroke-linecap:round"/>
  <g transform="translate(1079,-456) rotate(0)" > <text font-size="83.3333333333" fill="#800" font-family="monospace"  >
   11
  </text> </g> 
  <g transform="translate(810,-415) rotate(0)" > <text font-size="83.3333333333" fill="#088" font-family="monospace"  >
   RB5
  </text> </g> 
  <circle cx="1300" cy="-450" r="10"
    style="fill:none;stroke:#800;stroke-width:2"  />
  <line x1="1300" y1="-550" x2="1000" y2="-550" style="stroke:#800;stroke-width:10;stroke-opacity:1.000000;stroke-linecap:round"/>
  <g transform="translate(1079,-556) rotate(0)" > <text font-size="83.3333333333" fill="#800" font-family="monospace"  >
   12
  </text> </g> 
  <g transform="translate(-40,-515) rotate(0)" > <text font-size="83.3333333333" fill="#088" font-family="monospace"  >
   RB6/T1OSC0/T1CKI/PGC
  </text> </g> 
  <circle cx="1300" cy="-550" r="10"
    style="fill:none;stroke:#800;stroke-width:2"  />
  <line x1="1300" y1="-650" x2="1000" y2="-650" style="stroke:#800;stroke-width:10;stroke-opacity:1.000000;stroke-linecap:round"/>
  <g transform="translate(1079,-656) rotate(0)" > <text font-size="83.3333333333" fill="#800" font-family="monospace"  >
   13
  </text> </g> 
  <g transform="translate(309,-615) rotate(0)" > <text font-size="83.3333333333" fill="#088" font-family="monospace"  >
   RB7/T1OSI/PGD
  </text> </g> 
  <circle cx="1300" cy="-650" r="10"
    style="fill:none;stroke:#800;stroke-width:2"  />
  <line x1="-1050" y1="-650" x2="-750" y2="-650" style="stroke:#800;stroke-width:10;stroke-opacity:1.000000;stroke-linecap:round"/>
  <g transform="translate(-970,-656) rotate(0)" > <text font-size="83.3333333333" fill="#800" font-family="monospace"  >
   14
  </text> </g> 
  <g transform="translate(-732,-615) rotate(0)" > <text font-size="83.3333333333" fill="#088" font-family="monospace"  >
   VDD
  </text> </g> 
  <circle cx="-1050" cy="-650" r="10"
    style="fill:none;stroke:#800;stroke-width:2"  />
  <line x1="-1050" y1="-150" x2="-750" y2="-150" style="stroke:#800;stroke-width:10;stroke-opacity:1.000000;stroke-linecap:round"/>
  <g transform="translate(-970,-156) rotate(0)" > <text font-size="83.3333333333" fill="#800" font-family="monospace"  >
   15
  </text> </g> 
  <g transform="translate(-732,-115) rotate(0)" > <text font-size="83.3333333333" fill="#088" font-family="monospace"  >
   OSC2/RA6
  </text> </g> 
  <circle cx="-1050" cy="-150" r="10"
    style="fill:none;stroke:#800;stroke-width:2"  />
  <line x1="-1050" y1="-450" x2="-750" y2="-450" style="stroke:#800;stroke-width:10;stroke-opacity:1.000000;stroke-linecap:round"/>
  <g transform="translate(-970,-456) rotate(0)" > <text font-size="83.3333333333" fill="#800" font-family="monospace"  >
   16
  </text> </g> 
  <g transform="translate(-732,-415) rotate(0)" > <text font-size="83.3333333333" fill="#088" font-family="monospace"  >
   OSC1/RA7
  </text> </g> 
  <circle cx="-1050" cy="-450" r="10"
    style="fill:none;stroke:#800;stroke-width:2"  />
  <line x1="1300" y1="650" x2="1000" y2="650" style="stroke:#800;stroke-width:10;stroke-opacity:1.000000;stroke-linecap:round"/>
  <g transform="translate(1079,644) rotate(0)" > <text font-size="83.3333333333" fill="#800" font-family="monospace"  >
   17
  </text> </g> 
  <g transform="translate(610,685) rotate(0)" > <text font-size="83.3333333333" fill="#088" font-family="monospace"  >
   RA0/AN0
  </text> </g> 
  <circle cx="1300" cy="650" r="10"
    style="fill:none;stroke:#800;stroke-width:2"  />
  <line x1="1300" y1="550" x2="1000" y2="550" style="stroke:#800;stroke-width:10;stroke-opacity:1.000000;stroke-linecap:round"/>
  <g transform="translate(1079,544) rotate(0)" > <text font-size="83.3333333333" fill="#800" font-family="monospace"  >
   18
  </text> </g> 
  <g transform="translate(610,585) rotate(0)" > <text font-size="83.3333333333" fill="#088" font-family="monospace"  >
   RA1/AN1
  </text> </g> 
  <circle cx="1300" cy="550" r="10"
    style="fill:none;stroke:#800;stroke-width:2"  />
 </g>
</svg>
