<?xml version="1.0"?>
<svg height="198" width="146"  >
 <g style="fill-opacity:1.0; stroke:black;
  stroke-width:1;" transform=" translate( 73.375,99.0 ) scale( 0.15,0.15 )">
  <g transform="translate(-120,-180) rotate(0)" > <text font-size="66.6666666667" fill="#088" font-family="monospace"  >
   U
  </text> </g> 
  <g transform="translate(-180,220) rotate(0)" > <text font-size="66.6666666667" fill="#088" font-family="monospace"  >
   74LVC1G11
  </text> </g> 
  <line x1="0" y1="124" x2="20" y2="123" style="stroke:#800;stroke-width:10;stroke-opacity:1.000000;stroke-linecap:round"/>
  <line x1="20" y1="123" x2="40" y2="118" style="stroke:#800;stroke-width:10;stroke-opacity:1.000000;stroke-linecap:round"/>
  <line x1="40" y1="118" x2="59" y2="109" style="stroke:#800;stroke-width:10;stroke-opacity:1.000000;stroke-linecap:round"/>
  <line x1="59" y1="109" x2="76" y2="98" style="stroke:#800;stroke-width:10;stroke-opacity:1.000000;stroke-linecap:round"/>
  <line x1="76" y1="98" x2="92" y2="84" style="stroke:#800;stroke-width:10;stroke-opacity:1.000000;stroke-linecap:round"/>
  <line x1="92" y1="84" x2="104" y2="68" style="stroke:#800;stroke-width:10;stroke-opacity:1.000000;stroke-linecap:round"/>
  <line x1="104" y1="68" x2="114" y2="50" style="stroke:#800;stroke-width:10;stroke-opacity:1.000000;stroke-linecap:round"/>
  <line x1="114" y1="50" x2="121" y2="30" style="stroke:#800;stroke-width:10;stroke-opacity:1.000000;stroke-linecap:round"/>
  <line x1="121" y1="30" x2="124" y2="10" style="stroke:#800;stroke-width:10;stroke-opacity:1.000000;stroke-linecap:round"/>
  <line x1="124" y1="10" x2="124" y2="-10" style="stroke:#800;stroke-width:10;stroke-opacity:1.000000;stroke-linecap:round"/>
  <line x1="124" y1="-10" x2="121" y2="-30" style="stroke:#800;stroke-width:10;stroke-opacity:1.000000;stroke-linecap:round"/>
  <line x1="121" y1="-30" x2="114" y2="-50" style="stroke:#800;stroke-width:10;stroke-opacity:1.000000;stroke-linecap:round"/>
  <line x1="114" y1="-50" x2="104" y2="-68" style="stroke:#800;stroke-width:10;stroke-opacity:1.000000;stroke-linecap:round"/>
  <line x1="104" y1="-68" x2="92" y2="-84" style="stroke:#800;stroke-width:10;stroke-opacity:1.000000;stroke-linecap:round"/>
  <line x1="92" y1="-84" x2="76" y2="-98" style="stroke:#800;stroke-width:10;stroke-opacity:1.000000;stroke-linecap:round"/>
  <line x1="76" y1="-98" x2="59" y2="-109" style="stroke:#800;stroke-width:10;stroke-opacity:1.000000;stroke-linecap:round"/>
  <line x1="59" y1="-109" x2="40" y2="-118" style="stroke:#800;stroke-width:10;stroke-opacity:1.000000;stroke-linecap:round"/>
  <line x1="40" y1="-118" x2="20" y2="-123" style="stroke:#800;stroke-width:10;stroke-opacity:1.000000;stroke-linecap:round"/>
  <line x1="20" y1="-123" x2="0" y2="-124" style="stroke:#800;stroke-width:10;stroke-opacity:1.000000;stroke-linecap:round"/>
  <line x1="0" y1="125" x2="-150" y2="125" style="stroke:#800;stroke-width:10;stroke-opacity:1.000000;stroke-linecap:round"/>
  <line x1="-150" y1="125" x2="-150" y2="-125" style="stroke:#800;stroke-width:10;stroke-opacity:1.000000;stroke-linecap:round"/>
  <line x1="-150" y1="-125" x2="0" y2="-125" style="stroke:#800;stroke-width:10;stroke-opacity:1.000000;stroke-linecap:round"/>
  <line x1="-300" y1="0" x2="-150" y2="0" style="stroke:#800;stroke-width:10;stroke-opacity:1.000000;stroke-linecap:round"/>
  <g transform="translate(-253,-6) rotate(0)" > <text font-size="66.6666666667" fill="#800" font-family="monospace"  >
   1
  </text> </g> 
  <circle cx="-300" cy="0" r="10"
    style="fill:none;stroke:#800;stroke-width:2"  />
  <g transform="translate(-10,135) rotate(-90)" > <text font-size="66.6666666667" fill="#888" font-family="monospace"  >
   2
  </text> </g> 
  <g transform="translate(5,278) rotate(-90)" > <text font-size="66.6666666667" fill="#888" font-family="monospace"  >
   GND
  </text> </g> 
  <circle cx="0" cy="125" r="10"
    style="fill:none;stroke:#888;stroke-width:2"  />
  <line x1="-300" y1="100" x2="-150" y2="100" style="stroke:#800;stroke-width:10;stroke-opacity:1.000000;stroke-linecap:round"/>
  <g transform="translate(-253,94) rotate(0)" > <text font-size="66.6666666667" fill="#800" font-family="monospace"  >
   3
  </text> </g> 
  <circle cx="-300" cy="100" r="10"
    style="fill:none;stroke:#800;stroke-width:2"  />
  <line x1="300" y1="0" x2="125" y2="0" style="stroke:#800;stroke-width:10;stroke-opacity:1.000000;stroke-linecap:round"/>
  <g transform="translate(184,-6) rotate(0)" > <text font-size="66.6666666667" fill="#800" font-family="monospace"  >
   4
  </text> </g> 
  <circle cx="300" cy="0" r="10"
    style="fill:none;stroke:#800;stroke-width:2"  />
  <g transform="translate(-10,-115) rotate(-90)" > <text font-size="66.6666666667" fill="#888" font-family="monospace"  >
   5
  </text> </g> 
  <g transform="translate(5,-158) rotate(-90)" > <text font-size="66.6666666667" fill="#888" font-family="monospace"  >
   VCC
  </text> </g> 
  <circle cx="0" cy="-125" r="10"
    style="fill:none;stroke:#888;stroke-width:2"  />
  <line x1="-300" y1="-100" x2="-150" y2="-100" style="stroke:#800;stroke-width:10;stroke-opacity:1.000000;stroke-linecap:round"/>
  <g transform="translate(-253,-106) rotate(0)" > <text font-size="66.6666666667" fill="#800" font-family="monospace"  >
   6
  </text> </g> 
  <circle cx="-300" cy="-100" r="10"
    style="fill:none;stroke:#800;stroke-width:2"  />
 </g>
</svg>
