<?xml version="1.0"?>
<svg height="190" width="256"  >
 <g style="fill-opacity:1.0; stroke:black;
  stroke-width:1;" transform=" translate( 128.25,95.375 ) scale( 0.15,0.15 )">
  <g transform="translate(-390,-230) rotate(0)" > <text font-size="66.6666666667" fill="#088" font-family="monospace"  >
   RL
  </text> </g> 
  <g transform="translate(710,95) rotate(-90)" > <text font-size="66.6666666667" fill="#088" font-family="monospace"  >
   AZ850-x
  </text> </g> 
  <rect x="-400" y="-200" height="400"
    width="1200" style="fill:none;stroke:#800;stroke-width:10" />
  <rect x="-325" y="-75" height="150"
    width="250" style="fill:none;stroke:#800;stroke-width:10" />
  <line x1="-300" y1="75" x2="-100" y2="-75" style="stroke:#800;stroke-width:10;stroke-opacity:1.000000;stroke-linecap:round"/>
  <line x1="-200" y1="200" x2="-200" y2="75" style="stroke:#800;stroke-width:10;stroke-opacity:1.000000;stroke-linecap:round"/>
  <line x1="-200" y1="-200" x2="-200" y2="-75" style="stroke:#800;stroke-width:10;stroke-opacity:1.000000;stroke-linecap:round"/>
  <line x1="-185" y1="-110" x2="-145" y2="-110" style="stroke:#800;stroke-width:10;stroke-opacity:1.000000;stroke-linecap:round"/>
  <line x1="-165" y1="-130" x2="-165" y2="-90" style="stroke:#800;stroke-width:10;stroke-opacity:1.000000;stroke-linecap:round"/>
  <line x1="-75" y1="0" x2="-50" y2="0" style="stroke:#800;stroke-width:10;stroke-opacity:1.000000;stroke-linecap:round"/>
  <line x1="-25" y1="0" x2="0" y2="0" style="stroke:#800;stroke-width:10;stroke-opacity:1.000000;stroke-linecap:round"/>
  <line x1="25" y1="0" x2="50" y2="0" style="stroke:#800;stroke-width:10;stroke-opacity:1.000000;stroke-linecap:round"/>
  <line x1="75" y1="0" x2="100" y2="0" style="stroke:#800;stroke-width:10;stroke-opacity:1.000000;stroke-linecap:round"/>
  <line x1="125" y1="0" x2="150" y2="0" style="stroke:#800;stroke-width:10;stroke-opacity:1.000000;stroke-linecap:round"/>
  <line x1="150" y1="-100" x2="150" y2="-200" style="stroke:#800;stroke-width:10;stroke-opacity:1.000000;stroke-linecap:round"/>
  <line x1="175" y1="0" x2="200" y2="0" style="stroke:#800;stroke-width:10;stroke-opacity:1.000000;stroke-linecap:round"/>
  <line x1="225" y1="0" x2="250" y2="0" style="stroke:#800;stroke-width:10;stroke-opacity:1.000000;stroke-linecap:round"/>
  <line x1="250" y1="100" x2="175" y2="-150" style="stroke:#800;stroke-width:10;stroke-opacity:1.000000;stroke-linecap:round"/>
  <line x1="250" y1="100" x2="250" y2="200" style="stroke:#800;stroke-width:10;stroke-opacity:1.000000;stroke-linecap:round"/>
  <line x1="275" y1="0" x2="300" y2="0" style="stroke:#800;stroke-width:10;stroke-opacity:1.000000;stroke-linecap:round"/>
  <line x1="325" y1="0" x2="350" y2="0" style="stroke:#800;stroke-width:10;stroke-opacity:1.000000;stroke-linecap:round"/>
  <line x1="350" y1="-100" x2="350" y2="-200" style="stroke:#800;stroke-width:10;stroke-opacity:1.000000;stroke-linecap:round"/>
  <line x1="375" y1="0" x2="400" y2="0" style="stroke:#800;stroke-width:10;stroke-opacity:1.000000;stroke-linecap:round"/>
  <line x1="425" y1="0" x2="450" y2="0" style="stroke:#800;stroke-width:10;stroke-opacity:1.000000;stroke-linecap:round"/>
  <line x1="475" y1="0" x2="500" y2="0" style="stroke:#800;stroke-width:10;stroke-opacity:1.000000;stroke-linecap:round"/>
  <line x1="500" y1="-100" x2="500" y2="-200" style="stroke:#800;stroke-width:10;stroke-opacity:1.000000;stroke-linecap:round"/>
  <line x1="525" y1="0" x2="550" y2="0" style="stroke:#800;stroke-width:10;stroke-opacity:1.000000;stroke-linecap:round"/>
  <line x1="600" y1="100" x2="525" y2="-150" style="stroke:#800;stroke-width:10;stroke-opacity:1.000000;stroke-linecap:round"/>
  <line x1="600" y1="100" x2="600" y2="200" style="stroke:#800;stroke-width:10;stroke-opacity:1.000000;stroke-linecap:round"/>
  <line x1="700" y1="-100" x2="700" y2="-200" style="stroke:#800;stroke-width:10;stroke-opacity:1.000000;stroke-linecap:round"/>
<polygon points=" 150,-100 175,-125 150,-150" 
style="fill:#800;stroke:#800;stroke-width:10"/>
  <line x1="350" y1="-100" x2="325" y2="-125" style="stroke:#800;stroke-width:10;stroke-opacity:1.000000;stroke-linecap:round"/>
  <line x1="325" y1="-125" x2="350" y2="-150" style="stroke:#800;stroke-width:10;stroke-opacity:1.000000;stroke-linecap:round"/>
<polygon points=" 500,-100 525,-125 500,-150" 
style="fill:#800;stroke:#800;stroke-width:10"/>
  <line x1="700" y1="-100" x2="675" y2="-125" style="stroke:#800;stroke-width:10;stroke-opacity:1.000000;stroke-linecap:round"/>
  <line x1="675" y1="-125" x2="700" y2="-150" style="stroke:#800;stroke-width:10;stroke-opacity:1.000000;stroke-linecap:round"/>
  <line x1="-200" y1="-300" x2="-200" y2="-200" style="stroke:#800;stroke-width:10;stroke-opacity:1.000000;stroke-linecap:round"/>
  <g transform="translate(-210,-240) rotate(-90)" > <text font-size="66.6666666667" fill="#800" font-family="monospace"  >
   1
  </text> </g> 
  <circle cx="-200" cy="-300" r="10"
    style="fill:none;stroke:#800;stroke-width:2"  />
  <line x1="150" y1="-300" x2="150" y2="-200" style="stroke:#800;stroke-width:10;stroke-opacity:1.000000;stroke-linecap:round"/>
  <g transform="translate(140,-240) rotate(-90)" > <text font-size="66.6666666667" fill="#800" font-family="monospace"  >
   2
  </text> </g> 
  <circle cx="150" cy="-300" r="10"
    style="fill:none;stroke:#800;stroke-width:2"  />
  <line x1="250" y1="300" x2="250" y2="200" style="stroke:#800;stroke-width:10;stroke-opacity:1.000000;stroke-linecap:round"/>
  <g transform="translate(240,260) rotate(-90)" > <text font-size="66.6666666667" fill="#800" font-family="monospace"  >
   3
  </text> </g> 
  <circle cx="250" cy="300" r="10"
    style="fill:none;stroke:#800;stroke-width:2"  />
  <line x1="350" y1="-300" x2="350" y2="-200" style="stroke:#800;stroke-width:10;stroke-opacity:1.000000;stroke-linecap:round"/>
  <g transform="translate(340,-240) rotate(-90)" > <text font-size="66.6666666667" fill="#800" font-family="monospace"  >
   4
  </text> </g> 
  <circle cx="350" cy="-300" r="10"
    style="fill:none;stroke:#800;stroke-width:2"  />
  <line x1="700" y1="-300" x2="700" y2="-200" style="stroke:#800;stroke-width:10;stroke-opacity:1.000000;stroke-linecap:round"/>
  <g transform="translate(690,-240) rotate(-90)" > <text font-size="66.6666666667" fill="#800" font-family="monospace"  >
   7
  </text> </g> 
  <circle cx="700" cy="-300" r="10"
    style="fill:none;stroke:#800;stroke-width:2"  />
  <line x1="600" y1="300" x2="600" y2="200" style="stroke:#800;stroke-width:10;stroke-opacity:1.000000;stroke-linecap:round"/>
  <g transform="translate(590,260) rotate(-90)" > <text font-size="66.6666666667" fill="#800" font-family="monospace"  >
   8
  </text> </g> 
  <circle cx="600" cy="300" r="10"
    style="fill:none;stroke:#800;stroke-width:2"  />
  <line x1="500" y1="-300" x2="500" y2="-200" style="stroke:#800;stroke-width:10;stroke-opacity:1.000000;stroke-linecap:round"/>
  <g transform="translate(490,-240) rotate(-90)" > <text font-size="66.6666666667" fill="#800" font-family="monospace"  >
   9
  </text> </g> 
  <circle cx="500" cy="-300" r="10"
    style="fill:none;stroke:#800;stroke-width:2"  />
  <line x1="-200" y1="300" x2="-200" y2="200" style="stroke:#800;stroke-width:10;stroke-opacity:1.000000;stroke-linecap:round"/>
  <g transform="translate(-210,270) rotate(-90)" > <text font-size="66.6666666667" fill="#800" font-family="monospace"  >
   10
  </text> </g> 
  <circle cx="-200" cy="300" r="10"
    style="fill:none;stroke:#800;stroke-width:2"  />
 </g>
</svg>
