<?xml version="1.0"?>
<svg height="395" width="395"  >
 <g style="fill-opacity:1.0; stroke:black;
  stroke-width:1;" transform=" translate( 197.5,197.5 ) scale( 0.15,0.15 )">
  <g transform="translate(-35,35) rotate(0)" > <text font-size="116.666666667" fill="#088" font-family="monospace"  >
   U
  </text> </g> 
  <g transform="translate(0,250) rotate(0)" > <text font-size="116.666666667" fill="#088" font-family="monospace"  >
   CY7C420
  </text> </g> 
  <rect x="-450" y="-700" height="1400"
    width="900" style="fill:none;stroke:#800;stroke-width:10" />
  <g transform="translate(-15,730) rotate(-90)" > <text font-size="100.0" fill="#888" font-family="monospace"  >
   14
  </text> </g> 
  <g transform="translate(7,650) rotate(-90)" > <text font-size="100.0" fill="#888" font-family="monospace"  >
   GND
  </text> </g> 
  <circle cx="0" cy="700" r="10"
    style="fill:none;stroke:#888;stroke-width:2"  />
  <g transform="translate(-15,-670) rotate(-90)" > <text font-size="100.0" fill="#888" font-family="monospace"  >
   28
  </text> </g> 
  <g transform="translate(7,-470) rotate(-90)" > <text font-size="100.0" fill="#888" font-family="monospace"  >
   VCC
  </text> </g> 
  <circle cx="0" cy="-700" r="10"
    style="fill:none;stroke:#888;stroke-width:2"  />
  <line x1="750" y1="450" x2="520" y2="450" style="stroke:#800;stroke-width:10;stroke-opacity:1.000000;stroke-linecap:round"/>
  <circle cx="485" cy="450" r="35"
    style="fill:none;stroke:#800;stroke-width:10"  />
  <g transform="translate(515,444) rotate(0)" > <text font-size="100.0" fill="#800" font-family="monospace"  >
   20
  </text> </g> 
  <g transform="translate(110,490) rotate(0)" > <text font-size="100.0" fill="#088" font-family="monospace"  >
   XO/HF
  </text> </g> 
  <circle cx="750" cy="450" r="10"
    style="fill:none;stroke:#800;stroke-width:2"  />
  <line x1="-750" y1="450" x2="-450" y2="450" style="stroke:#800;stroke-width:10;stroke-opacity:1.000000;stroke-linecap:round"/>
  <g transform="translate(-642,444) rotate(0)" > <text font-size="100.0" fill="#800" font-family="monospace"  >
   7
  </text> </g> 
  <g transform="translate(-432,490) rotate(0)" > <text font-size="100.0" fill="#088" font-family="monospace"  >
   XI
  </text> </g> 
  <circle cx="-750" cy="450" r="10"
    style="fill:none;stroke:#800;stroke-width:2"  />
  <line x1="-750" y1="650" x2="-450" y2="650" style="stroke:#800;stroke-width:10;stroke-opacity:1.000000;stroke-linecap:round"/>
  <g transform="translate(-685,644) rotate(0)" > <text font-size="100.0" fill="#800" font-family="monospace"  >
   23
  </text> </g> 
  <g transform="translate(-432,690) rotate(0)" > <text font-size="100.0" fill="#088" font-family="monospace"  >
   FL/RT
  </text> </g> 
  <circle cx="-750" cy="650" r="10"
    style="fill:none;stroke:#800;stroke-width:2"  />
  <line x1="-750" y1="550" x2="-450" y2="550" style="stroke:#800;stroke-width:10;stroke-opacity:1.000000;stroke-linecap:round"/>
  <g transform="translate(-685,544) rotate(0)" > <text font-size="100.0" fill="#800" font-family="monospace"  >
   22
  </text> </g> 
  <g transform="translate(-432,590) rotate(0)" > <text font-size="100.0" fill="#088" font-family="monospace"  >
   MR
  </text> </g> 
  <circle cx="-750" cy="550" r="10"
    style="fill:none;stroke:#800;stroke-width:2"  />
  <line x1="750" y1="650" x2="520" y2="650" style="stroke:#800;stroke-width:10;stroke-opacity:1.000000;stroke-linecap:round"/>
  <circle cx="485" cy="650" r="35"
    style="fill:none;stroke:#800;stroke-width:10"  />
  <g transform="translate(557,644) rotate(0)" > <text font-size="100.0" fill="#800" font-family="monospace"  >
   8
  </text> </g> 
  <g transform="translate(290,690) rotate(0)" > <text font-size="100.0" fill="#088" font-family="monospace"  >
   FF
  </text> </g> 
  <circle cx="750" cy="650" r="10"
    style="fill:none;stroke:#800;stroke-width:2"  />
  <line x1="750" y1="550" x2="520" y2="550" style="stroke:#800;stroke-width:10;stroke-opacity:1.000000;stroke-linecap:round"/>
  <circle cx="485" cy="550" r="35"
    style="fill:none;stroke:#800;stroke-width:10"  />
  <g transform="translate(515,544) rotate(0)" > <text font-size="100.0" fill="#800" font-family="monospace"  >
   21
  </text> </g> 
  <g transform="translate(290,590) rotate(0)" > <text font-size="100.0" fill="#088" font-family="monospace"  >
   EF
  </text> </g> 
  <circle cx="750" cy="550" r="10"
    style="fill:none;stroke:#800;stroke-width:2"  />
  <line x1="750" y1="350" x2="450" y2="350" style="stroke:#800;stroke-width:10;stroke-opacity:1.000000;stroke-linecap:round"/>
  <g transform="translate(515,344) rotate(0)" > <text font-size="100.0" fill="#800" font-family="monospace"  >
   15
  </text> </g> 
  <g transform="translate(350,390) rotate(0)" > <text font-size="100.0" fill="#088" font-family="monospace"  >
   R
  </text> </g> 
  <circle cx="750" cy="350" r="10"
    style="fill:none;stroke:#800;stroke-width:2"  />
  <line x1="-750" y1="350" x2="-450" y2="350" style="stroke:#800;stroke-width:10;stroke-opacity:1.000000;stroke-linecap:round"/>
  <g transform="translate(-642,344) rotate(0)" > <text font-size="100.0" fill="#800" font-family="monospace"  >
   1
  </text> </g> 
  <g transform="translate(-432,390) rotate(0)" > <text font-size="100.0" fill="#088" font-family="monospace"  >
   W
  </text> </g> 
  <circle cx="-750" cy="350" r="10"
    style="fill:none;stroke:#800;stroke-width:2"  />
  <line x1="-750" y1="150" x2="-450" y2="150" style="stroke:#800;stroke-width:10;stroke-opacity:1.000000;stroke-linecap:round"/>
  <g transform="translate(-642,144) rotate(0)" > <text font-size="100.0" fill="#800" font-family="monospace"  >
   2
  </text> </g> 
  <g transform="translate(-432,190) rotate(0)" > <text font-size="100.0" fill="#088" font-family="monospace"  >
   D8
  </text> </g> 
  <circle cx="-750" cy="150" r="10"
    style="fill:none;stroke:#800;stroke-width:2"  />
  <line x1="750" y1="150" x2="450" y2="150" style="stroke:#800;stroke-width:10;stroke-opacity:1.000000;stroke-linecap:round"/>
  <g transform="translate(515,144) rotate(0)" > <text font-size="100.0" fill="#800" font-family="monospace"  >
   13
  </text> </g> 
  <g transform="translate(290,190) rotate(0)" > <text font-size="100.0" fill="#088" font-family="monospace"  >
   Q8
  </text> </g> 
  <circle cx="750" cy="150" r="10"
    style="fill:none;stroke:#800;stroke-width:2"  />
  <line x1="750" y1="50" x2="450" y2="50" style="stroke:#800;stroke-width:10;stroke-opacity:1.000000;stroke-linecap:round"/>
  <g transform="translate(515,44) rotate(0)" > <text font-size="100.0" fill="#800" font-family="monospace"  >
   19
  </text> </g> 
  <g transform="translate(290,90) rotate(0)" > <text font-size="100.0" fill="#088" font-family="monospace"  >
   Q7
  </text> </g> 
  <circle cx="750" cy="50" r="10"
    style="fill:none;stroke:#800;stroke-width:2"  />
  <line x1="750" y1="-50" x2="450" y2="-50" style="stroke:#800;stroke-width:10;stroke-opacity:1.000000;stroke-linecap:round"/>
  <g transform="translate(515,-56) rotate(0)" > <text font-size="100.0" fill="#800" font-family="monospace"  >
   18
  </text> </g> 
  <g transform="translate(290,-10) rotate(0)" > <text font-size="100.0" fill="#088" font-family="monospace"  >
   Q6
  </text> </g> 
  <circle cx="750" cy="-50" r="10"
    style="fill:none;stroke:#800;stroke-width:2"  />
  <line x1="750" y1="-150" x2="450" y2="-150" style="stroke:#800;stroke-width:10;stroke-opacity:1.000000;stroke-linecap:round"/>
  <g transform="translate(515,-156) rotate(0)" > <text font-size="100.0" fill="#800" font-family="monospace"  >
   17
  </text> </g> 
  <g transform="translate(290,-110) rotate(0)" > <text font-size="100.0" fill="#088" font-family="monospace"  >
   Q5
  </text> </g> 
  <circle cx="750" cy="-150" r="10"
    style="fill:none;stroke:#800;stroke-width:2"  />
  <line x1="750" y1="-250" x2="450" y2="-250" style="stroke:#800;stroke-width:10;stroke-opacity:1.000000;stroke-linecap:round"/>
  <g transform="translate(515,-256) rotate(0)" > <text font-size="100.0" fill="#800" font-family="monospace"  >
   16
  </text> </g> 
  <g transform="translate(290,-210) rotate(0)" > <text font-size="100.0" fill="#088" font-family="monospace"  >
   Q4
  </text> </g> 
  <circle cx="750" cy="-250" r="10"
    style="fill:none;stroke:#800;stroke-width:2"  />
  <line x1="750" y1="-350" x2="450" y2="-350" style="stroke:#800;stroke-width:10;stroke-opacity:1.000000;stroke-linecap:round"/>
  <g transform="translate(515,-356) rotate(0)" > <text font-size="100.0" fill="#800" font-family="monospace"  >
   12
  </text> </g> 
  <g transform="translate(290,-310) rotate(0)" > <text font-size="100.0" fill="#088" font-family="monospace"  >
   Q3
  </text> </g> 
  <circle cx="750" cy="-350" r="10"
    style="fill:none;stroke:#800;stroke-width:2"  />
  <line x1="750" y1="-450" x2="450" y2="-450" style="stroke:#800;stroke-width:10;stroke-opacity:1.000000;stroke-linecap:round"/>
  <g transform="translate(515,-456) rotate(0)" > <text font-size="100.0" fill="#800" font-family="monospace"  >
   11
  </text> </g> 
  <g transform="translate(290,-410) rotate(0)" > <text font-size="100.0" fill="#088" font-family="monospace"  >
   Q2
  </text> </g> 
  <circle cx="750" cy="-450" r="10"
    style="fill:none;stroke:#800;stroke-width:2"  />
  <line x1="750" y1="-550" x2="450" y2="-550" style="stroke:#800;stroke-width:10;stroke-opacity:1.000000;stroke-linecap:round"/>
  <g transform="translate(515,-556) rotate(0)" > <text font-size="100.0" fill="#800" font-family="monospace"  >
   10
  </text> </g> 
  <g transform="translate(290,-510) rotate(0)" > <text font-size="100.0" fill="#088" font-family="monospace"  >
   Q1
  </text> </g> 
  <circle cx="750" cy="-550" r="10"
    style="fill:none;stroke:#800;stroke-width:2"  />
  <line x1="750" y1="-650" x2="450" y2="-650" style="stroke:#800;stroke-width:10;stroke-opacity:1.000000;stroke-linecap:round"/>
  <g transform="translate(557,-656) rotate(0)" > <text font-size="100.0" fill="#800" font-family="monospace"  >
   9
  </text> </g> 
  <g transform="translate(290,-610) rotate(0)" > <text font-size="100.0" fill="#088" font-family="monospace"  >
   Q0
  </text> </g> 
  <circle cx="750" cy="-650" r="10"
    style="fill:none;stroke:#800;stroke-width:2"  />
  <line x1="-750" y1="50" x2="-450" y2="50" style="stroke:#800;stroke-width:10;stroke-opacity:1.000000;stroke-linecap:round"/>
  <g transform="translate(-685,44) rotate(0)" > <text font-size="100.0" fill="#800" font-family="monospace"  >
   24
  </text> </g> 
  <g transform="translate(-432,90) rotate(0)" > <text font-size="100.0" fill="#088" font-family="monospace"  >
   D7
  </text> </g> 
  <circle cx="-750" cy="50" r="10"
    style="fill:none;stroke:#800;stroke-width:2"  />
  <line x1="-750" y1="-50" x2="-450" y2="-50" style="stroke:#800;stroke-width:10;stroke-opacity:1.000000;stroke-linecap:round"/>
  <g transform="translate(-685,-56) rotate(0)" > <text font-size="100.0" fill="#800" font-family="monospace"  >
   25
  </text> </g> 
  <g transform="translate(-432,-10) rotate(0)" > <text font-size="100.0" fill="#088" font-family="monospace"  >
   D6
  </text> </g> 
  <circle cx="-750" cy="-50" r="10"
    style="fill:none;stroke:#800;stroke-width:2"  />
  <line x1="-750" y1="-150" x2="-450" y2="-150" style="stroke:#800;stroke-width:10;stroke-opacity:1.000000;stroke-linecap:round"/>
  <g transform="translate(-685,-156) rotate(0)" > <text font-size="100.0" fill="#800" font-family="monospace"  >
   26
  </text> </g> 
  <g transform="translate(-432,-110) rotate(0)" > <text font-size="100.0" fill="#088" font-family="monospace"  >
   D5
  </text> </g> 
  <circle cx="-750" cy="-150" r="10"
    style="fill:none;stroke:#800;stroke-width:2"  />
  <line x1="-750" y1="-250" x2="-450" y2="-250" style="stroke:#800;stroke-width:10;stroke-opacity:1.000000;stroke-linecap:round"/>
  <g transform="translate(-685,-256) rotate(0)" > <text font-size="100.0" fill="#800" font-family="monospace"  >
   27
  </text> </g> 
  <g transform="translate(-432,-210) rotate(0)" > <text font-size="100.0" fill="#088" font-family="monospace"  >
   D4
  </text> </g> 
  <circle cx="-750" cy="-250" r="10"
    style="fill:none;stroke:#800;stroke-width:2"  />
  <line x1="-750" y1="-350" x2="-450" y2="-350" style="stroke:#800;stroke-width:10;stroke-opacity:1.000000;stroke-linecap:round"/>
  <g transform="translate(-642,-356) rotate(0)" > <text font-size="100.0" fill="#800" font-family="monospace"  >
   3
  </text> </g> 
  <g transform="translate(-432,-310) rotate(0)" > <text font-size="100.0" fill="#088" font-family="monospace"  >
   D3
  </text> </g> 
  <circle cx="-750" cy="-350" r="10"
    style="fill:none;stroke:#800;stroke-width:2"  />
  <line x1="-750" y1="-450" x2="-450" y2="-450" style="stroke:#800;stroke-width:10;stroke-opacity:1.000000;stroke-linecap:round"/>
  <g transform="translate(-642,-456) rotate(0)" > <text font-size="100.0" fill="#800" font-family="monospace"  >
   4
  </text> </g> 
  <g transform="translate(-432,-410) rotate(0)" > <text font-size="100.0" fill="#088" font-family="monospace"  >
   D2
  </text> </g> 
  <circle cx="-750" cy="-450" r="10"
    style="fill:none;stroke:#800;stroke-width:2"  />
  <line x1="-750" y1="-550" x2="-450" y2="-550" style="stroke:#800;stroke-width:10;stroke-opacity:1.000000;stroke-linecap:round"/>
  <g transform="translate(-642,-556) rotate(0)" > <text font-size="100.0" fill="#800" font-family="monospace"  >
   5
  </text> </g> 
  <g transform="translate(-432,-510) rotate(0)" > <text font-size="100.0" fill="#088" font-family="monospace"  >
   D1
  </text> </g> 
  <circle cx="-750" cy="-550" r="10"
    style="fill:none;stroke:#800;stroke-width:2"  />
  <line x1="-750" y1="-650" x2="-450" y2="-650" style="stroke:#800;stroke-width:10;stroke-opacity:1.000000;stroke-linecap:round"/>
  <g transform="translate(-642,-656) rotate(0)" > <text font-size="100.0" fill="#800" font-family="monospace"  >
   6
  </text> </g> 
  <g transform="translate(-432,-610) rotate(0)" > <text font-size="100.0" fill="#088" font-family="monospace"  >
   D0
  </text> </g> 
  <circle cx="-750" cy="-650" r="10"
    style="fill:none;stroke:#800;stroke-width:2"  />
 </g>
</svg>
