<?xml version="1.0"?>
<svg height="563" width="510"  >
 <g style="fill-opacity:1.0; stroke:black;
  stroke-width:1;" transform=" translate( 255.2,281.7 ) scale( 0.15,0.15 )">
  <g transform="translate(-840,-1280) rotate(0)" > <text font-size="66.6666666667" fill="#088" font-family="monospace"  >
   IC
  </text> </g> 
  <g transform="translate(180,1250) rotate(0)" > <text font-size="66.6666666667" fill="#088" font-family="monospace"  >
   AT90S2333-A
  </text> </g> 
  <rect x="-800" y="-1250" height="2400"
    width="1600" style="fill:none;stroke:#800;stroke-width:10" />
  <line x1="950" y1="600" x2="800" y2="600" style="stroke:#800;stroke-width:10;stroke-opacity:1.000000;stroke-linecap:round"/>
  <g transform="translate(846,594) rotate(0)" > <text font-size="66.6666666667" fill="#800" font-family="monospace"  >
   1
  </text> </g> 
  <g transform="translate(400,630) rotate(0)" > <text font-size="66.6666666667" fill="#088" font-family="monospace"  >
   (INT1)PD3
  </text> </g> 
  <circle cx="950" cy="600" r="10"
    style="fill:none;stroke:#800;stroke-width:2"  />
  <line x1="950" y1="700" x2="800" y2="700" style="stroke:#800;stroke-width:10;stroke-opacity:1.000000;stroke-linecap:round"/>
  <g transform="translate(846,694) rotate(0)" > <text font-size="66.6666666667" fill="#800" font-family="monospace"  >
   2
  </text> </g> 
  <g transform="translate(480,730) rotate(0)" > <text font-size="66.6666666667" fill="#088" font-family="monospace"  >
   (T0)PD4
  </text> </g> 
  <circle cx="950" cy="700" r="10"
    style="fill:none;stroke:#800;stroke-width:2"  />
  <line x1="0" y1="-1400" x2="0" y2="-1250" style="stroke:#800;stroke-width:10;stroke-opacity:1.000000;stroke-linecap:round"/>
  <g transform="translate(-10,-1315) rotate(-90)" > <text font-size="66.6666666667" fill="#800" font-family="monospace"  >
   4
  </text> </g> 
  <g transform="translate(5,-1096) rotate(-90)" > <text font-size="66.6666666667" fill="#088" font-family="monospace"  >
   VCC
  </text> </g> 
  <circle cx="0" cy="-1400" r="10"
    style="fill:none;stroke:#800;stroke-width:2"  />
  <line x1="0" y1="1300" x2="0" y2="1150" style="stroke:#800;stroke-width:10;stroke-opacity:1.000000;stroke-linecap:round"/>
  <g transform="translate(-10,1235) rotate(-90)" > <text font-size="66.6666666667" fill="#800" font-family="monospace"  >
   5
  </text> </g> 
  <g transform="translate(5,1116) rotate(-90)" > <text font-size="66.6666666667" fill="#088" font-family="monospace"  >
   GND
  </text> </g> 
  <circle cx="0" cy="1300" r="10"
    style="fill:none;stroke:#800;stroke-width:2"  />
  <line x1="-950" y1="-400" x2="-800" y2="-400" style="stroke:#800;stroke-width:10;stroke-opacity:1.000000;stroke-linecap:round"/>
  <g transform="translate(-903,-406) rotate(0)" > <text font-size="66.6666666667" fill="#800" font-family="monospace"  >
   7
  </text> </g> 
  <g transform="translate(-782,-370) rotate(0)" > <text font-size="66.6666666667" fill="#088" font-family="monospace"  >
   XTAL1
  </text> </g> 
  <circle cx="-950" cy="-400" r="10"
    style="fill:none;stroke:#800;stroke-width:2"  />
  <line x1="-950" y1="-200" x2="-800" y2="-200" style="stroke:#800;stroke-width:10;stroke-opacity:1.000000;stroke-linecap:round"/>
  <g transform="translate(-903,-206) rotate(0)" > <text font-size="66.6666666667" fill="#800" font-family="monospace"  >
   8
  </text> </g> 
  <g transform="translate(-782,-170) rotate(0)" > <text font-size="66.6666666667" fill="#088" font-family="monospace"  >
   XTAL2
  </text> </g> 
  <circle cx="-950" cy="-200" r="10"
    style="fill:none;stroke:#800;stroke-width:2"  />
  <line x1="950" y1="800" x2="800" y2="800" style="stroke:#800;stroke-width:10;stroke-opacity:1.000000;stroke-linecap:round"/>
  <g transform="translate(846,794) rotate(0)" > <text font-size="66.6666666667" fill="#800" font-family="monospace"  >
   9
  </text> </g> 
  <g transform="translate(480,830) rotate(0)" > <text font-size="66.6666666667" fill="#088" font-family="monospace"  >
   (T1)PD5
  </text> </g> 
  <circle cx="950" cy="800" r="10"
    style="fill:none;stroke:#800;stroke-width:2"  />
  <line x1="950" y1="900" x2="800" y2="900" style="stroke:#800;stroke-width:10;stroke-opacity:1.000000;stroke-linecap:round"/>
  <g transform="translate(818,894) rotate(0)" > <text font-size="66.6666666667" fill="#800" font-family="monospace"  >
   10
  </text> </g> 
  <g transform="translate(400,930) rotate(0)" > <text font-size="66.6666666667" fill="#088" font-family="monospace"  >
   (AIN0)PD6
  </text> </g> 
  <circle cx="950" cy="900" r="10"
    style="fill:none;stroke:#800;stroke-width:2"  />
  <line x1="-950" y1="-800" x2="-800" y2="-800" style="stroke:#800;stroke-width:10;stroke-opacity:1.000000;stroke-linecap:round"/>
  <g transform="translate(-931,-806) rotate(0)" > <text font-size="66.6666666667" fill="#800" font-family="monospace"  >
   20
  </text> </g> 
  <g transform="translate(-782,-770) rotate(0)" > <text font-size="66.6666666667" fill="#088" font-family="monospace"  >
   AREF
  </text> </g> 
  <circle cx="-950" cy="-800" r="10"
    style="fill:none;stroke:#800;stroke-width:2"  />
  <line x1="950" y1="300" x2="800" y2="300" style="stroke:#800;stroke-width:10;stroke-opacity:1.000000;stroke-linecap:round"/>
  <g transform="translate(818,294) rotate(0)" > <text font-size="66.6666666667" fill="#800" font-family="monospace"  >
   30
  </text> </g> 
  <g transform="translate(440,330) rotate(0)" > <text font-size="66.6666666667" fill="#088" font-family="monospace"  >
   (RXD)PD0
  </text> </g> 
  <circle cx="950" cy="300" r="10"
    style="fill:none;stroke:#800;stroke-width:2"  />
  <line x1="950" y1="1000" x2="800" y2="1000" style="stroke:#800;stroke-width:10;stroke-opacity:1.000000;stroke-linecap:round"/>
  <g transform="translate(818,994) rotate(0)" > <text font-size="66.6666666667" fill="#800" font-family="monospace"  >
   11
  </text> </g> 
  <g transform="translate(400,1030) rotate(0)" > <text font-size="66.6666666667" fill="#088" font-family="monospace"  >
   (AIN1)PD7
  </text> </g> 
  <circle cx="950" cy="1000" r="10"
    style="fill:none;stroke:#800;stroke-width:2"  />
  <line x1="-950" y1="-700" x2="-800" y2="-700" style="stroke:#800;stroke-width:10;stroke-opacity:1.000000;stroke-linecap:round"/>
  <g transform="translate(-931,-706) rotate(0)" > <text font-size="66.6666666667" fill="#800" font-family="monospace"  >
   21
  </text> </g> 
  <g transform="translate(-782,-670) rotate(0)" > <text font-size="66.6666666667" fill="#088" font-family="monospace"  >
   AGND
  </text> </g> 
  <circle cx="-950" cy="-700" r="10"
    style="fill:none;stroke:#800;stroke-width:2"  />
  <line x1="950" y1="400" x2="800" y2="400" style="stroke:#800;stroke-width:10;stroke-opacity:1.000000;stroke-linecap:round"/>
  <g transform="translate(818,394) rotate(0)" > <text font-size="66.6666666667" fill="#800" font-family="monospace"  >
   31
  </text> </g> 
  <g transform="translate(440,430) rotate(0)" > <text font-size="66.6666666667" fill="#088" font-family="monospace"  >
   (TXD)PD1
  </text> </g> 
  <circle cx="950" cy="400" r="10"
    style="fill:none;stroke:#800;stroke-width:2"  />
  <line x1="950" y1="-1100" x2="800" y2="-1100" style="stroke:#800;stroke-width:10;stroke-opacity:1.000000;stroke-linecap:round"/>
  <g transform="translate(818,-1106) rotate(0)" > <text font-size="66.6666666667" fill="#800" font-family="monospace"  >
   12
  </text> </g> 
  <g transform="translate(440,-1070) rotate(0)" > <text font-size="66.6666666667" fill="#088" font-family="monospace"  >
   (ICP)PB0
  </text> </g> 
  <circle cx="950" cy="-1100" r="10"
    style="fill:none;stroke:#800;stroke-width:2"  />
  <line x1="950" y1="500" x2="800" y2="500" style="stroke:#800;stroke-width:10;stroke-opacity:1.000000;stroke-linecap:round"/>
  <g transform="translate(818,494) rotate(0)" > <text font-size="66.6666666667" fill="#800" font-family="monospace"  >
   32
  </text> </g> 
  <g transform="translate(400,530) rotate(0)" > <text font-size="66.6666666667" fill="#088" font-family="monospace"  >
   (INT0)PD2
  </text> </g> 
  <circle cx="950" cy="500" r="10"
    style="fill:none;stroke:#800;stroke-width:2"  />
  <line x1="950" y1="-1000" x2="800" y2="-1000" style="stroke:#800;stroke-width:10;stroke-opacity:1.000000;stroke-linecap:round"/>
  <g transform="translate(818,-1006) rotate(0)" > <text font-size="66.6666666667" fill="#800" font-family="monospace"  >
   13
  </text> </g> 
  <g transform="translate(440,-970) rotate(0)" > <text font-size="66.6666666667" fill="#088" font-family="monospace"  >
   (OC1)PB1
  </text> </g> 
  <circle cx="950" cy="-1000" r="10"
    style="fill:none;stroke:#800;stroke-width:2"  />
  <line x1="950" y1="-400" x2="800" y2="-400" style="stroke:#800;stroke-width:10;stroke-opacity:1.000000;stroke-linecap:round"/>
  <g transform="translate(818,-406) rotate(0)" > <text font-size="66.6666666667" fill="#800" font-family="monospace"  >
   23
  </text> </g> 
  <g transform="translate(400,-370) rotate(0)" > <text font-size="66.6666666667" fill="#088" font-family="monospace"  >
   (ADC0)PC0
  </text> </g> 
  <circle cx="950" cy="-400" r="10"
    style="fill:none;stroke:#800;stroke-width:2"  />
  <line x1="950" y1="-900" x2="800" y2="-900" style="stroke:#800;stroke-width:10;stroke-opacity:1.000000;stroke-linecap:round"/>
  <g transform="translate(818,-906) rotate(0)" > <text font-size="66.6666666667" fill="#800" font-family="monospace"  >
   14
  </text> </g> 
  <g transform="translate(400,-870) rotate(0)" > <text font-size="66.6666666667" fill="#088" font-family="monospace"  >
   (~SS~)PB2
  </text> </g> 
  <circle cx="950" cy="-900" r="10"
    style="fill:none;stroke:#800;stroke-width:2"  />
  <line x1="950" y1="-300" x2="800" y2="-300" style="stroke:#800;stroke-width:10;stroke-opacity:1.000000;stroke-linecap:round"/>
  <g transform="translate(818,-306) rotate(0)" > <text font-size="66.6666666667" fill="#800" font-family="monospace"  >
   24
  </text> </g> 
  <g transform="translate(400,-270) rotate(0)" > <text font-size="66.6666666667" fill="#088" font-family="monospace"  >
   (ADC1)PC1
  </text> </g> 
  <circle cx="950" cy="-300" r="10"
    style="fill:none;stroke:#800;stroke-width:2"  />
  <line x1="950" y1="-800" x2="800" y2="-800" style="stroke:#800;stroke-width:10;stroke-opacity:1.000000;stroke-linecap:round"/>
  <g transform="translate(818,-806) rotate(0)" > <text font-size="66.6666666667" fill="#800" font-family="monospace"  >
   15
  </text> </g> 
  <g transform="translate(400,-770) rotate(0)" > <text font-size="66.6666666667" fill="#088" font-family="monospace"  >
   (MOSI)PB3
  </text> </g> 
  <circle cx="950" cy="-800" r="10"
    style="fill:none;stroke:#800;stroke-width:2"  />
  <line x1="950" y1="-200" x2="800" y2="-200" style="stroke:#800;stroke-width:10;stroke-opacity:1.000000;stroke-linecap:round"/>
  <g transform="translate(818,-206) rotate(0)" > <text font-size="66.6666666667" fill="#800" font-family="monospace"  >
   25
  </text> </g> 
  <g transform="translate(400,-170) rotate(0)" > <text font-size="66.6666666667" fill="#088" font-family="monospace"  >
   (ADC2)PC2
  </text> </g> 
  <circle cx="950" cy="-200" r="10"
    style="fill:none;stroke:#800;stroke-width:2"  />
  <line x1="950" y1="-700" x2="800" y2="-700" style="stroke:#800;stroke-width:10;stroke-opacity:1.000000;stroke-linecap:round"/>
  <g transform="translate(818,-706) rotate(0)" > <text font-size="66.6666666667" fill="#800" font-family="monospace"  >
   16
  </text> </g> 
  <g transform="translate(400,-670) rotate(0)" > <text font-size="66.6666666667" fill="#088" font-family="monospace"  >
   (MISO)PB4
  </text> </g> 
  <circle cx="950" cy="-700" r="10"
    style="fill:none;stroke:#800;stroke-width:2"  />
  <line x1="950" y1="-100" x2="800" y2="-100" style="stroke:#800;stroke-width:10;stroke-opacity:1.000000;stroke-linecap:round"/>
  <g transform="translate(818,-106) rotate(0)" > <text font-size="66.6666666667" fill="#800" font-family="monospace"  >
   26
  </text> </g> 
  <g transform="translate(400,-70) rotate(0)" > <text font-size="66.6666666667" fill="#088" font-family="monospace"  >
   (ADC3)PC3
  </text> </g> 
  <circle cx="950" cy="-100" r="10"
    style="fill:none;stroke:#800;stroke-width:2"  />
  <line x1="950" y1="-600" x2="800" y2="-600" style="stroke:#800;stroke-width:10;stroke-opacity:1.000000;stroke-linecap:round"/>
  <g transform="translate(818,-606) rotate(0)" > <text font-size="66.6666666667" fill="#800" font-family="monospace"  >
   17
  </text> </g> 
  <g transform="translate(440,-570) rotate(0)" > <text font-size="66.6666666667" fill="#088" font-family="monospace"  >
   (SCK)PB5
  </text> </g> 
  <circle cx="950" cy="-600" r="10"
    style="fill:none;stroke:#800;stroke-width:2"  />
  <line x1="950" y1="0" x2="800" y2="0" style="stroke:#800;stroke-width:10;stroke-opacity:1.000000;stroke-linecap:round"/>
  <g transform="translate(818,-6) rotate(0)" > <text font-size="66.6666666667" fill="#800" font-family="monospace"  >
   27
  </text> </g> 
  <g transform="translate(400,30) rotate(0)" > <text font-size="66.6666666667" fill="#088" font-family="monospace"  >
   (ADC4)PC4
  </text> </g> 
  <circle cx="950" cy="0" r="10"
    style="fill:none;stroke:#800;stroke-width:2"  />
  <line x1="-950" y1="-900" x2="-800" y2="-900" style="stroke:#800;stroke-width:10;stroke-opacity:1.000000;stroke-linecap:round"/>
  <g transform="translate(-931,-906) rotate(0)" > <text font-size="66.6666666667" fill="#800" font-family="monospace"  >
   18
  </text> </g> 
  <g transform="translate(-782,-870) rotate(0)" > <text font-size="66.6666666667" fill="#088" font-family="monospace"  >
   AVCC
  </text> </g> 
  <circle cx="-950" cy="-900" r="10"
    style="fill:none;stroke:#800;stroke-width:2"  />
  <line x1="950" y1="100" x2="800" y2="100" style="stroke:#800;stroke-width:10;stroke-opacity:1.000000;stroke-linecap:round"/>
  <g transform="translate(818,94) rotate(0)" > <text font-size="66.6666666667" fill="#800" font-family="monospace"  >
   28
  </text> </g> 
  <g transform="translate(400,130) rotate(0)" > <text font-size="66.6666666667" fill="#088" font-family="monospace"  >
   (ADC5)PC5
  </text> </g> 
  <circle cx="950" cy="100" r="10"
    style="fill:none;stroke:#800;stroke-width:2"  />
  <line x1="-950" y1="-1100" x2="-800" y2="-1100" style="stroke:#800;stroke-width:10;stroke-opacity:1.000000;stroke-linecap:round"/>
  <g transform="translate(-931,-1106) rotate(0)" > <text font-size="66.6666666667" fill="#800" font-family="monospace"  >
   29
  </text> </g> 
  <g transform="translate(-782,-1070) rotate(0)" > <text font-size="66.6666666667" fill="#088" font-family="monospace"  >
   ~RESET
  </text> </g> 
  <circle cx="-950" cy="-1100" r="10"
    style="fill:none;stroke:#800;stroke-width:2"  />
 </g>
</svg>
