<?xml version="1.0"?>
<svg height="647" width="605"  >
 <g style="fill-opacity:1.0; stroke:black;
  stroke-width:1;" transform=" translate( 302.5,323.75 ) scale( 0.15,0.15 )">
  <g transform="translate(-790,-1180) rotate(0)" > <text font-size="66.6666666667" fill="#088" font-family="monospace"  >
   IC
  </text> </g> 
  <g transform="translate(300,1550) rotate(0)" > <text font-size="66.6666666667" fill="#088" font-family="monospace"  >
   ATMEGA8-MI
  </text> </g> 
  <rect x="-750" y="-1150" height="2600"
    width="1600" style="fill:none;stroke:#800;stroke-width:10" />
  <line x1="1000" y1="900" x2="850" y2="900" style="stroke:#800;stroke-width:10;stroke-opacity:1.000000;stroke-linecap:round"/>
  <g transform="translate(896,894) rotate(0)" > <text font-size="66.6666666667" fill="#800" font-family="monospace"  >
   1
  </text> </g> 
  <g transform="translate(450,930) rotate(0)" > <text font-size="66.6666666667" fill="#088" font-family="monospace"  >
   (INT1)PD3
  </text> </g> 
  <circle cx="1000" cy="900" r="10"
    style="fill:none;stroke:#800;stroke-width:2"  />
  <line x1="1000" y1="1000" x2="850" y2="1000" style="stroke:#800;stroke-width:10;stroke-opacity:1.000000;stroke-linecap:round"/>
  <g transform="translate(896,994) rotate(0)" > <text font-size="66.6666666667" fill="#800" font-family="monospace"  >
   2
  </text> </g> 
  <g transform="translate(370,1030) rotate(0)" > <text font-size="66.6666666667" fill="#088" font-family="monospace"  >
   (XCK/T0)PD4
  </text> </g> 
  <circle cx="1000" cy="1000" r="10"
    style="fill:none;stroke:#800;stroke-width:2"  />
  <line x1="-50" y1="1600" x2="-50" y2="1450" style="stroke:#800;stroke-width:10;stroke-opacity:1.000000;stroke-linecap:round"/>
  <g transform="translate(-60,1535) rotate(-90)" > <text font-size="66.6666666667" fill="#800" font-family="monospace"  >
   3
  </text> </g> 
  <g transform="translate(-45,1416) rotate(-90)" > <text font-size="66.6666666667" fill="#088" font-family="monospace"  >
   GND
  </text> </g> 
  <circle cx="-50" cy="1600" r="10"
    style="fill:none;stroke:#800;stroke-width:2"  />
  <line x1="-50" y1="-1300" x2="-50" y2="-1150" style="stroke:#800;stroke-width:10;stroke-opacity:1.000000;stroke-linecap:round"/>
  <g transform="translate(-60,-1215) rotate(-90)" > <text font-size="66.6666666667" fill="#800" font-family="monospace"  >
   4
  </text> </g> 
  <g transform="translate(-45,-996) rotate(-90)" > <text font-size="66.6666666667" fill="#088" font-family="monospace"  >
   VCC
  </text> </g> 
  <circle cx="-50" cy="-1300" r="10"
    style="fill:none;stroke:#800;stroke-width:2"  />
  <line x1="50" y1="1600" x2="50" y2="1450" style="stroke:#800;stroke-width:10;stroke-opacity:1.000000;stroke-linecap:round"/>
  <g transform="translate(40,1535) rotate(-90)" > <text font-size="66.6666666667" fill="#800" font-family="monospace"  >
   5
  </text> </g> 
  <g transform="translate(55,1416) rotate(-90)" > <text font-size="66.6666666667" fill="#088" font-family="monospace"  >
   GND
  </text> </g> 
  <circle cx="50" cy="1600" r="10"
    style="fill:none;stroke:#800;stroke-width:2"  />
  <line x1="50" y1="-1300" x2="50" y2="-1150" style="stroke:#800;stroke-width:10;stroke-opacity:1.000000;stroke-linecap:round"/>
  <g transform="translate(40,-1215) rotate(-90)" > <text font-size="66.6666666667" fill="#800" font-family="monospace"  >
   6
  </text> </g> 
  <g transform="translate(55,-996) rotate(-90)" > <text font-size="66.6666666667" fill="#088" font-family="monospace"  >
   VCC
  </text> </g> 
  <circle cx="50" cy="-1300" r="10"
    style="fill:none;stroke:#800;stroke-width:2"  />
  <line x1="-900" y1="-300" x2="-750" y2="-300" style="stroke:#800;stroke-width:10;stroke-opacity:1.000000;stroke-linecap:round"/>
  <g transform="translate(-853,-306) rotate(0)" > <text font-size="66.6666666667" fill="#800" font-family="monospace"  >
   7
  </text> </g> 
  <g transform="translate(-732,-270) rotate(0)" > <text font-size="66.6666666667" fill="#088" font-family="monospace"  >
   PB6(XTAL1/TOSC1)
  </text> </g> 
  <circle cx="-900" cy="-300" r="10"
    style="fill:none;stroke:#800;stroke-width:2"  />
  <line x1="-900" y1="-100" x2="-750" y2="-100" style="stroke:#800;stroke-width:10;stroke-opacity:1.000000;stroke-linecap:round"/>
  <g transform="translate(-853,-106) rotate(0)" > <text font-size="66.6666666667" fill="#800" font-family="monospace"  >
   8
  </text> </g> 
  <g transform="translate(-732,-70) rotate(0)" > <text font-size="66.6666666667" fill="#088" font-family="monospace"  >
   PB7(XTAL2/TOSC2)
  </text> </g> 
  <circle cx="-900" cy="-100" r="10"
    style="fill:none;stroke:#800;stroke-width:2"  />
  <line x1="1000" y1="1100" x2="850" y2="1100" style="stroke:#800;stroke-width:10;stroke-opacity:1.000000;stroke-linecap:round"/>
  <g transform="translate(896,1094) rotate(0)" > <text font-size="66.6666666667" fill="#800" font-family="monospace"  >
   9
  </text> </g> 
  <g transform="translate(530,1130) rotate(0)" > <text font-size="66.6666666667" fill="#088" font-family="monospace"  >
   (T1)PD5
  </text> </g> 
  <circle cx="1000" cy="1100" r="10"
    style="fill:none;stroke:#800;stroke-width:2"  />
  <line x1="1000" y1="1200" x2="850" y2="1200" style="stroke:#800;stroke-width:10;stroke-opacity:1.000000;stroke-linecap:round"/>
  <g transform="translate(868,1194) rotate(0)" > <text font-size="66.6666666667" fill="#800" font-family="monospace"  >
   10
  </text> </g> 
  <g transform="translate(450,1230) rotate(0)" > <text font-size="66.6666666667" fill="#088" font-family="monospace"  >
   (AIN0)PD6
  </text> </g> 
  <circle cx="1000" cy="1200" r="10"
    style="fill:none;stroke:#800;stroke-width:2"  />
  <line x1="-900" y1="-700" x2="-750" y2="-700" style="stroke:#800;stroke-width:10;stroke-opacity:1.000000;stroke-linecap:round"/>
  <g transform="translate(-881,-706) rotate(0)" > <text font-size="66.6666666667" fill="#800" font-family="monospace"  >
   20
  </text> </g> 
  <g transform="translate(-732,-670) rotate(0)" > <text font-size="66.6666666667" fill="#088" font-family="monospace"  >
   AREF
  </text> </g> 
  <circle cx="-900" cy="-700" r="10"
    style="fill:none;stroke:#800;stroke-width:2"  />
  <line x1="1000" y1="600" x2="850" y2="600" style="stroke:#800;stroke-width:10;stroke-opacity:1.000000;stroke-linecap:round"/>
  <g transform="translate(868,594) rotate(0)" > <text font-size="66.6666666667" fill="#800" font-family="monospace"  >
   30
  </text> </g> 
  <g transform="translate(490,630) rotate(0)" > <text font-size="66.6666666667" fill="#088" font-family="monospace"  >
   (RXD)PD0
  </text> </g> 
  <circle cx="1000" cy="600" r="10"
    style="fill:none;stroke:#800;stroke-width:2"  />
  <line x1="1000" y1="1300" x2="850" y2="1300" style="stroke:#800;stroke-width:10;stroke-opacity:1.000000;stroke-linecap:round"/>
  <g transform="translate(868,1294) rotate(0)" > <text font-size="66.6666666667" fill="#800" font-family="monospace"  >
   11
  </text> </g> 
  <g transform="translate(450,1330) rotate(0)" > <text font-size="66.6666666667" fill="#088" font-family="monospace"  >
   (AIN1)PD7
  </text> </g> 
  <circle cx="1000" cy="1300" r="10"
    style="fill:none;stroke:#800;stroke-width:2"  />
  <line x1="-900" y1="-600" x2="-750" y2="-600" style="stroke:#800;stroke-width:10;stroke-opacity:1.000000;stroke-linecap:round"/>
  <g transform="translate(-881,-606) rotate(0)" > <text font-size="66.6666666667" fill="#800" font-family="monospace"  >
   21
  </text> </g> 
  <g transform="translate(-732,-570) rotate(0)" > <text font-size="66.6666666667" fill="#088" font-family="monospace"  >
   AGND
  </text> </g> 
  <circle cx="-900" cy="-600" r="10"
    style="fill:none;stroke:#800;stroke-width:2"  />
  <line x1="1000" y1="700" x2="850" y2="700" style="stroke:#800;stroke-width:10;stroke-opacity:1.000000;stroke-linecap:round"/>
  <g transform="translate(868,694) rotate(0)" > <text font-size="66.6666666667" fill="#800" font-family="monospace"  >
   31
  </text> </g> 
  <g transform="translate(490,730) rotate(0)" > <text font-size="66.6666666667" fill="#088" font-family="monospace"  >
   (TXD)PD1
  </text> </g> 
  <circle cx="1000" cy="700" r="10"
    style="fill:none;stroke:#800;stroke-width:2"  />
  <line x1="1000" y1="-1000" x2="850" y2="-1000" style="stroke:#800;stroke-width:10;stroke-opacity:1.000000;stroke-linecap:round"/>
  <g transform="translate(868,-1006) rotate(0)" > <text font-size="66.6666666667" fill="#800" font-family="monospace"  >
   12
  </text> </g> 
  <g transform="translate(490,-970) rotate(0)" > <text font-size="66.6666666667" fill="#088" font-family="monospace"  >
   (ICP)PB0
  </text> </g> 
  <circle cx="1000" cy="-1000" r="10"
    style="fill:none;stroke:#800;stroke-width:2"  />
  <line x1="1000" y1="400" x2="850" y2="400" style="stroke:#800;stroke-width:10;stroke-opacity:1.000000;stroke-linecap:round"/>
  <g transform="translate(868,394) rotate(0)" > <text font-size="66.6666666667" fill="#800" font-family="monospace"  >
   22
  </text> </g> 
  <g transform="translate(650,430) rotate(0)" > <text font-size="66.6666666667" fill="#088" font-family="monospace"  >
   ADC7
  </text> </g> 
  <circle cx="1000" cy="400" r="10"
    style="fill:none;stroke:#800;stroke-width:2"  />
  <line x1="1000" y1="800" x2="850" y2="800" style="stroke:#800;stroke-width:10;stroke-opacity:1.000000;stroke-linecap:round"/>
  <g transform="translate(868,794) rotate(0)" > <text font-size="66.6666666667" fill="#800" font-family="monospace"  >
   32
  </text> </g> 
  <g transform="translate(450,830) rotate(0)" > <text font-size="66.6666666667" fill="#088" font-family="monospace"  >
   (INT0)PD2
  </text> </g> 
  <circle cx="1000" cy="800" r="10"
    style="fill:none;stroke:#800;stroke-width:2"  />
  <line x1="1000" y1="-900" x2="850" y2="-900" style="stroke:#800;stroke-width:10;stroke-opacity:1.000000;stroke-linecap:round"/>
  <g transform="translate(868,-906) rotate(0)" > <text font-size="66.6666666667" fill="#800" font-family="monospace"  >
   13
  </text> </g> 
  <g transform="translate(450,-870) rotate(0)" > <text font-size="66.6666666667" fill="#088" font-family="monospace"  >
   (OC1A)PB1
  </text> </g> 
  <circle cx="1000" cy="-900" r="10"
    style="fill:none;stroke:#800;stroke-width:2"  />
  <line x1="1000" y1="-300" x2="850" y2="-300" style="stroke:#800;stroke-width:10;stroke-opacity:1.000000;stroke-linecap:round"/>
  <g transform="translate(868,-306) rotate(0)" > <text font-size="66.6666666667" fill="#800" font-family="monospace"  >
   23
  </text> </g> 
  <g transform="translate(450,-270) rotate(0)" > <text font-size="66.6666666667" fill="#088" font-family="monospace"  >
   (ADC0)PC0
  </text> </g> 
  <circle cx="1000" cy="-300" r="10"
    style="fill:none;stroke:#800;stroke-width:2"  />
  <line x1="1000" y1="-800" x2="850" y2="-800" style="stroke:#800;stroke-width:10;stroke-opacity:1.000000;stroke-linecap:round"/>
  <g transform="translate(868,-806) rotate(0)" > <text font-size="66.6666666667" fill="#800" font-family="monospace"  >
   14
  </text> </g> 
  <g transform="translate(250,-770) rotate(0)" > <text font-size="66.6666666667" fill="#088" font-family="monospace"  >
   (~SS~/OC1B)PB2
  </text> </g> 
  <circle cx="1000" cy="-800" r="10"
    style="fill:none;stroke:#800;stroke-width:2"  />
  <line x1="1000" y1="-200" x2="850" y2="-200" style="stroke:#800;stroke-width:10;stroke-opacity:1.000000;stroke-linecap:round"/>
  <g transform="translate(868,-206) rotate(0)" > <text font-size="66.6666666667" fill="#800" font-family="monospace"  >
   24
  </text> </g> 
  <g transform="translate(450,-170) rotate(0)" > <text font-size="66.6666666667" fill="#088" font-family="monospace"  >
   (ADC1)PC1
  </text> </g> 
  <circle cx="1000" cy="-200" r="10"
    style="fill:none;stroke:#800;stroke-width:2"  />
  <line x1="1000" y1="-700" x2="850" y2="-700" style="stroke:#800;stroke-width:10;stroke-opacity:1.000000;stroke-linecap:round"/>
  <g transform="translate(868,-706) rotate(0)" > <text font-size="66.6666666667" fill="#800" font-family="monospace"  >
   15
  </text> </g> 
  <g transform="translate(290,-670) rotate(0)" > <text font-size="66.6666666667" fill="#088" font-family="monospace"  >
   (MOSI/OC2)PB3
  </text> </g> 
  <circle cx="1000" cy="-700" r="10"
    style="fill:none;stroke:#800;stroke-width:2"  />
  <line x1="1000" y1="-100" x2="850" y2="-100" style="stroke:#800;stroke-width:10;stroke-opacity:1.000000;stroke-linecap:round"/>
  <g transform="translate(868,-106) rotate(0)" > <text font-size="66.6666666667" fill="#800" font-family="monospace"  >
   25
  </text> </g> 
  <g transform="translate(450,-70) rotate(0)" > <text font-size="66.6666666667" fill="#088" font-family="monospace"  >
   (ADC2)PC2
  </text> </g> 
  <circle cx="1000" cy="-100" r="10"
    style="fill:none;stroke:#800;stroke-width:2"  />
  <line x1="1000" y1="-600" x2="850" y2="-600" style="stroke:#800;stroke-width:10;stroke-opacity:1.000000;stroke-linecap:round"/>
  <g transform="translate(868,-606) rotate(0)" > <text font-size="66.6666666667" fill="#800" font-family="monospace"  >
   16
  </text> </g> 
  <g transform="translate(450,-570) rotate(0)" > <text font-size="66.6666666667" fill="#088" font-family="monospace"  >
   (MISO)PB4
  </text> </g> 
  <circle cx="1000" cy="-600" r="10"
    style="fill:none;stroke:#800;stroke-width:2"  />
  <line x1="1000" y1="0" x2="850" y2="0" style="stroke:#800;stroke-width:10;stroke-opacity:1.000000;stroke-linecap:round"/>
  <g transform="translate(868,-6) rotate(0)" > <text font-size="66.6666666667" fill="#800" font-family="monospace"  >
   26
  </text> </g> 
  <g transform="translate(450,30) rotate(0)" > <text font-size="66.6666666667" fill="#088" font-family="monospace"  >
   (ADC3)PC3
  </text> </g> 
  <circle cx="1000" cy="0" r="10"
    style="fill:none;stroke:#800;stroke-width:2"  />
  <line x1="1000" y1="-500" x2="850" y2="-500" style="stroke:#800;stroke-width:10;stroke-opacity:1.000000;stroke-linecap:round"/>
  <g transform="translate(868,-506) rotate(0)" > <text font-size="66.6666666667" fill="#800" font-family="monospace"  >
   17
  </text> </g> 
  <g transform="translate(490,-470) rotate(0)" > <text font-size="66.6666666667" fill="#088" font-family="monospace"  >
   (SCK)PB5
  </text> </g> 
  <circle cx="1000" cy="-500" r="10"
    style="fill:none;stroke:#800;stroke-width:2"  />
  <line x1="1000" y1="100" x2="850" y2="100" style="stroke:#800;stroke-width:10;stroke-opacity:1.000000;stroke-linecap:round"/>
  <g transform="translate(868,94) rotate(0)" > <text font-size="66.6666666667" fill="#800" font-family="monospace"  >
   27
  </text> </g> 
  <g transform="translate(290,130) rotate(0)" > <text font-size="66.6666666667" fill="#088" font-family="monospace"  >
   (ADC4/SDA)PC4
  </text> </g> 
  <circle cx="1000" cy="100" r="10"
    style="fill:none;stroke:#800;stroke-width:2"  />
  <line x1="-900" y1="-800" x2="-750" y2="-800" style="stroke:#800;stroke-width:10;stroke-opacity:1.000000;stroke-linecap:round"/>
  <g transform="translate(-881,-806) rotate(0)" > <text font-size="66.6666666667" fill="#800" font-family="monospace"  >
   18
  </text> </g> 
  <g transform="translate(-732,-770) rotate(0)" > <text font-size="66.6666666667" fill="#088" font-family="monospace"  >
   AVCC
  </text> </g> 
  <circle cx="-900" cy="-800" r="10"
    style="fill:none;stroke:#800;stroke-width:2"  />
  <line x1="1000" y1="200" x2="850" y2="200" style="stroke:#800;stroke-width:10;stroke-opacity:1.000000;stroke-linecap:round"/>
  <g transform="translate(868,194) rotate(0)" > <text font-size="66.6666666667" fill="#800" font-family="monospace"  >
   28
  </text> </g> 
  <g transform="translate(290,230) rotate(0)" > <text font-size="66.6666666667" fill="#088" font-family="monospace"  >
   (ADC5/SCL)PC5
  </text> </g> 
  <circle cx="1000" cy="200" r="10"
    style="fill:none;stroke:#800;stroke-width:2"  />
  <line x1="1000" y1="300" x2="850" y2="300" style="stroke:#800;stroke-width:10;stroke-opacity:1.000000;stroke-linecap:round"/>
  <g transform="translate(868,294) rotate(0)" > <text font-size="66.6666666667" fill="#800" font-family="monospace"  >
   19
  </text> </g> 
  <g transform="translate(650,330) rotate(0)" > <text font-size="66.6666666667" fill="#088" font-family="monospace"  >
   ADC6
  </text> </g> 
  <circle cx="1000" cy="300" r="10"
    style="fill:none;stroke:#800;stroke-width:2"  />
  <line x1="-900" y1="-1000" x2="-750" y2="-1000" style="stroke:#800;stroke-width:10;stroke-opacity:1.000000;stroke-linecap:round"/>
  <g transform="translate(-881,-1006) rotate(0)" > <text font-size="66.6666666667" fill="#800" font-family="monospace"  >
   29
  </text> </g> 
  <g transform="translate(-732,-970) rotate(0)" > <text font-size="66.6666666667" fill="#088" font-family="monospace"  >
   PC6(~RESET~)
  </text> </g> 
  <circle cx="-900" cy="-1000" r="10"
    style="fill:none;stroke:#800;stroke-width:2"  />
 </g>
</svg>
