<?xml version="1.0"?>
<svg height="790" width="705"  >
 <g style="fill-opacity:1.0; stroke:black;
  stroke-width:1;" transform=" translate( 352.7,395.45 ) scale( 0.15,0.15 )">
  <g transform="translate(-850,-1805) rotate(0)" > <text font-size="83.3333333333" fill="#088" font-family="monospace"  >
   IC
  </text> </g> 
  <g transform="translate(-100,1900) rotate(0)" > <text font-size="83.3333333333" fill="#088" font-family="monospace"  >
   ATMEGA8515-M
  </text> </g> 
  <rect x="-800" y="-1800" height="3600"
    width="1600" style="fill:none;stroke:#800;stroke-width:10" />
  <line x1="1000" y1="-300" x2="800" y2="-300" style="stroke:#800;stroke-width:10;stroke-opacity:1.000000;stroke-linecap:round"/>
  <g transform="translate(871,-306) rotate(0)" > <text font-size="66.6666666667" fill="#800" font-family="monospace"  >
   1
  </text> </g> 
  <g transform="translate(400,-270) rotate(0)" > <text font-size="66.6666666667" fill="#088" font-family="monospace"  >
   (MOSI)PB5
  </text> </g> 
  <circle cx="1000" cy="-300" r="10"
    style="fill:none;stroke:#800;stroke-width:2"  />
  <line x1="1000" y1="-200" x2="800" y2="-200" style="stroke:#800;stroke-width:10;stroke-opacity:1.000000;stroke-linecap:round"/>
  <g transform="translate(871,-206) rotate(0)" > <text font-size="66.6666666667" fill="#800" font-family="monospace"  >
   2
  </text> </g> 
  <g transform="translate(400,-170) rotate(0)" > <text font-size="66.6666666667" fill="#088" font-family="monospace"  >
   (MISO)PB6
  </text> </g> 
  <circle cx="1000" cy="-200" r="10"
    style="fill:none;stroke:#800;stroke-width:2"  />
  <line x1="1000" y1="-100" x2="800" y2="-100" style="stroke:#800;stroke-width:10;stroke-opacity:1.000000;stroke-linecap:round"/>
  <g transform="translate(871,-106) rotate(0)" > <text font-size="66.6666666667" fill="#800" font-family="monospace"  >
   3
  </text> </g> 
  <g transform="translate(440,-70) rotate(0)" > <text font-size="66.6666666667" fill="#088" font-family="monospace"  >
   (SCK)PB7
  </text> </g> 
  <circle cx="1000" cy="-100" r="10"
    style="fill:none;stroke:#800;stroke-width:2"  />
  <line x1="-1000" y1="-1700" x2="-870" y2="-1700" style="stroke:#800;stroke-width:10;stroke-opacity:1.000000;stroke-linecap:round"/>
  <circle cx="-835" cy="-1700" r="35"
    style="fill:none;stroke:#800;stroke-width:10"  />
  <g transform="translate(-928,-1706) rotate(0)" > <text font-size="66.6666666667" fill="#800" font-family="monospace"  >
   4
  </text> </g> 
  <g transform="translate(-782,-1670) rotate(0)" > <text font-size="66.6666666667" fill="#088" font-family="monospace"  >
   ~RESET
  </text> </g> 
  <circle cx="-1000" cy="-1700" r="10"
    style="fill:none;stroke:#800;stroke-width:2"  />
  <line x1="1000" y1="1000" x2="800" y2="1000" style="stroke:#800;stroke-width:10;stroke-opacity:1.000000;stroke-linecap:round"/>
  <g transform="translate(871,994) rotate(0)" > <text font-size="66.6666666667" fill="#800" font-family="monospace"  >
   5
  </text> </g> 
  <g transform="translate(440,1030) rotate(0)" > <text font-size="66.6666666667" fill="#088" font-family="monospace"  >
   (RXD)PD0
  </text> </g> 
  <circle cx="1000" cy="1000" r="10"
    style="fill:none;stroke:#800;stroke-width:2"  />
  <line x1="1000" y1="1100" x2="800" y2="1100" style="stroke:#800;stroke-width:10;stroke-opacity:1.000000;stroke-linecap:round"/>
  <g transform="translate(871,1094) rotate(0)" > <text font-size="66.6666666667" fill="#800" font-family="monospace"  >
   7
  </text> </g> 
  <g transform="translate(440,1130) rotate(0)" > <text font-size="66.6666666667" fill="#088" font-family="monospace"  >
   (TXD)PD1
  </text> </g> 
  <circle cx="1000" cy="1100" r="10"
    style="fill:none;stroke:#800;stroke-width:2"  />
  <line x1="1000" y1="1200" x2="800" y2="1200" style="stroke:#800;stroke-width:10;stroke-opacity:1.000000;stroke-linecap:round"/>
  <g transform="translate(871,1194) rotate(0)" > <text font-size="66.6666666667" fill="#800" font-family="monospace"  >
   8
  </text> </g> 
  <g transform="translate(400,1230) rotate(0)" > <text font-size="66.6666666667" fill="#088" font-family="monospace"  >
   (INT0)PD2
  </text> </g> 
  <circle cx="1000" cy="1200" r="10"
    style="fill:none;stroke:#800;stroke-width:2"  />
  <line x1="1000" y1="1300" x2="800" y2="1300" style="stroke:#800;stroke-width:10;stroke-opacity:1.000000;stroke-linecap:round"/>
  <g transform="translate(871,1294) rotate(0)" > <text font-size="66.6666666667" fill="#800" font-family="monospace"  >
   9
  </text> </g> 
  <g transform="translate(400,1330) rotate(0)" > <text font-size="66.6666666667" fill="#088" font-family="monospace"  >
   (INT1)PD3
  </text> </g> 
  <circle cx="1000" cy="1300" r="10"
    style="fill:none;stroke:#800;stroke-width:2"  />
  <line x1="1000" y1="1400" x2="800" y2="1400" style="stroke:#800;stroke-width:10;stroke-opacity:1.000000;stroke-linecap:round"/>
  <g transform="translate(843,1394) rotate(0)" > <text font-size="66.6666666667" fill="#800" font-family="monospace"  >
   10
  </text> </g> 
  <g transform="translate(440,1430) rotate(0)" > <text font-size="66.6666666667" fill="#088" font-family="monospace"  >
   (XCK)PD4
  </text> </g> 
  <circle cx="1000" cy="1400" r="10"
    style="fill:none;stroke:#800;stroke-width:2"  />
  <line x1="1000" y1="300" x2="800" y2="300" style="stroke:#800;stroke-width:10;stroke-opacity:1.000000;stroke-linecap:round"/>
  <g transform="translate(843,294) rotate(0)" > <text font-size="66.6666666667" fill="#800" font-family="monospace"  >
   20
  </text> </g> 
  <g transform="translate(440,330) rotate(0)" > <text font-size="66.6666666667" fill="#088" font-family="monospace"  >
   (A10)PC2
  </text> </g> 
  <circle cx="1000" cy="300" r="10"
    style="fill:none;stroke:#800;stroke-width:2"  />
  <line x1="1000" y1="-1000" x2="800" y2="-1000" style="stroke:#800;stroke-width:10;stroke-opacity:1.000000;stroke-linecap:round"/>
  <g transform="translate(843,-1006) rotate(0)" > <text font-size="66.6666666667" fill="#800" font-family="monospace"  >
   30
  </text> </g> 
  <g transform="translate(440,-970) rotate(0)" > <text font-size="66.6666666667" fill="#088" font-family="monospace"  >
   (AD7)PA7
  </text> </g> 
  <circle cx="1000" cy="-1000" r="10"
    style="fill:none;stroke:#800;stroke-width:2"  />
  <line x1="1000" y1="-800" x2="800" y2="-800" style="stroke:#800;stroke-width:10;stroke-opacity:1.000000;stroke-linecap:round"/>
  <g transform="translate(843,-806) rotate(0)" > <text font-size="66.6666666667" fill="#800" font-family="monospace"  >
   40
  </text> </g> 
  <g transform="translate(320,-770) rotate(0)" > <text font-size="66.6666666667" fill="#088" font-family="monospace"  >
   (OC0/T0)PB0
  </text> </g> 
  <circle cx="1000" cy="-800" r="10"
    style="fill:none;stroke:#800;stroke-width:2"  />
  <line x1="1000" y1="1500" x2="800" y2="1500" style="stroke:#800;stroke-width:10;stroke-opacity:1.000000;stroke-linecap:round"/>
  <g transform="translate(843,1494) rotate(0)" > <text font-size="66.6666666667" fill="#800" font-family="monospace"  >
   11
  </text> </g> 
  <g transform="translate(400,1530) rotate(0)" > <text font-size="66.6666666667" fill="#088" font-family="monospace"  >
   (OC1A)PD5
  </text> </g> 
  <circle cx="1000" cy="1500" r="10"
    style="fill:none;stroke:#800;stroke-width:2"  />
  <line x1="1000" y1="400" x2="800" y2="400" style="stroke:#800;stroke-width:10;stroke-opacity:1.000000;stroke-linecap:round"/>
  <g transform="translate(843,394) rotate(0)" > <text font-size="66.6666666667" fill="#800" font-family="monospace"  >
   21
  </text> </g> 
  <g transform="translate(440,430) rotate(0)" > <text font-size="66.6666666667" fill="#088" font-family="monospace"  >
   (A11)PC3
  </text> </g> 
  <circle cx="1000" cy="400" r="10"
    style="fill:none;stroke:#800;stroke-width:2"  />
  <line x1="1000" y1="-1100" x2="800" y2="-1100" style="stroke:#800;stroke-width:10;stroke-opacity:1.000000;stroke-linecap:round"/>
  <g transform="translate(843,-1106) rotate(0)" > <text font-size="66.6666666667" fill="#800" font-family="monospace"  >
   31
  </text> </g> 
  <g transform="translate(440,-1070) rotate(0)" > <text font-size="66.6666666667" fill="#088" font-family="monospace"  >
   (AD6)PA6
  </text> </g> 
  <circle cx="1000" cy="-1100" r="10"
    style="fill:none;stroke:#800;stroke-width:2"  />
  <line x1="1000" y1="-700" x2="800" y2="-700" style="stroke:#800;stroke-width:10;stroke-opacity:1.000000;stroke-linecap:round"/>
  <g transform="translate(843,-706) rotate(0)" > <text font-size="66.6666666667" fill="#800" font-family="monospace"  >
   41
  </text> </g> 
  <g transform="translate(480,-670) rotate(0)" > <text font-size="66.6666666667" fill="#088" font-family="monospace"  >
   (T1)PB1
  </text> </g> 
  <circle cx="1000" cy="-700" r="10"
    style="fill:none;stroke:#800;stroke-width:2"  />
  <line x1="1000" y1="1600" x2="800" y2="1600" style="stroke:#800;stroke-width:10;stroke-opacity:1.000000;stroke-linecap:round"/>
  <g transform="translate(843,1594) rotate(0)" > <text font-size="66.6666666667" fill="#800" font-family="monospace"  >
   12
  </text> </g> 
  <g transform="translate(400,1630) rotate(0)" > <text font-size="66.6666666667" fill="#088" font-family="monospace"  >
   (~WR~)PD6
  </text> </g> 
  <circle cx="1000" cy="1600" r="10"
    style="fill:none;stroke:#800;stroke-width:2"  />
  <line x1="1000" y1="500" x2="800" y2="500" style="stroke:#800;stroke-width:10;stroke-opacity:1.000000;stroke-linecap:round"/>
  <g transform="translate(843,494) rotate(0)" > <text font-size="66.6666666667" fill="#800" font-family="monospace"  >
   22
  </text> </g> 
  <g transform="translate(440,530) rotate(0)" > <text font-size="66.6666666667" fill="#088" font-family="monospace"  >
   (A12)PC4
  </text> </g> 
  <circle cx="1000" cy="500" r="10"
    style="fill:none;stroke:#800;stroke-width:2"  />
  <line x1="1000" y1="-1200" x2="800" y2="-1200" style="stroke:#800;stroke-width:10;stroke-opacity:1.000000;stroke-linecap:round"/>
  <g transform="translate(843,-1206) rotate(0)" > <text font-size="66.6666666667" fill="#800" font-family="monospace"  >
   32
  </text> </g> 
  <g transform="translate(440,-1170) rotate(0)" > <text font-size="66.6666666667" fill="#088" font-family="monospace"  >
   (AD5)PA5
  </text> </g> 
  <circle cx="1000" cy="-1200" r="10"
    style="fill:none;stroke:#800;stroke-width:2"  />
  <line x1="1000" y1="-600" x2="800" y2="-600" style="stroke:#800;stroke-width:10;stroke-opacity:1.000000;stroke-linecap:round"/>
  <g transform="translate(843,-606) rotate(0)" > <text font-size="66.6666666667" fill="#800" font-family="monospace"  >
   42
  </text> </g> 
  <g transform="translate(400,-570) rotate(0)" > <text font-size="66.6666666667" fill="#088" font-family="monospace"  >
   (AIN0)PB2
  </text> </g> 
  <circle cx="1000" cy="-600" r="10"
    style="fill:none;stroke:#800;stroke-width:2"  />
  <line x1="1000" y1="1700" x2="800" y2="1700" style="stroke:#800;stroke-width:10;stroke-opacity:1.000000;stroke-linecap:round"/>
  <g transform="translate(843,1694) rotate(0)" > <text font-size="66.6666666667" fill="#800" font-family="monospace"  >
   13
  </text> </g> 
  <g transform="translate(400,1730) rotate(0)" > <text font-size="66.6666666667" fill="#088" font-family="monospace"  >
   (~RD~)PD7
  </text> </g> 
  <circle cx="1000" cy="1700" r="10"
    style="fill:none;stroke:#800;stroke-width:2"  />
  <line x1="1000" y1="600" x2="800" y2="600" style="stroke:#800;stroke-width:10;stroke-opacity:1.000000;stroke-linecap:round"/>
  <g transform="translate(843,594) rotate(0)" > <text font-size="66.6666666667" fill="#800" font-family="monospace"  >
   23
  </text> </g> 
  <g transform="translate(440,630) rotate(0)" > <text font-size="66.6666666667" fill="#088" font-family="monospace"  >
   (A13)PC5
  </text> </g> 
  <circle cx="1000" cy="600" r="10"
    style="fill:none;stroke:#800;stroke-width:2"  />
  <line x1="1000" y1="-1300" x2="800" y2="-1300" style="stroke:#800;stroke-width:10;stroke-opacity:1.000000;stroke-linecap:round"/>
  <g transform="translate(843,-1306) rotate(0)" > <text font-size="66.6666666667" fill="#800" font-family="monospace"  >
   33
  </text> </g> 
  <g transform="translate(440,-1270) rotate(0)" > <text font-size="66.6666666667" fill="#088" font-family="monospace"  >
   (AD4)PA4
  </text> </g> 
  <circle cx="1000" cy="-1300" r="10"
    style="fill:none;stroke:#800;stroke-width:2"  />
  <line x1="1000" y1="-500" x2="800" y2="-500" style="stroke:#800;stroke-width:10;stroke-opacity:1.000000;stroke-linecap:round"/>
  <g transform="translate(843,-506) rotate(0)" > <text font-size="66.6666666667" fill="#800" font-family="monospace"  >
   43
  </text> </g> 
  <g transform="translate(400,-470) rotate(0)" > <text font-size="66.6666666667" fill="#088" font-family="monospace"  >
   (AIN1)PB3
  </text> </g> 
  <circle cx="1000" cy="-500" r="10"
    style="fill:none;stroke:#800;stroke-width:2"  />
  <line x1="-1000" y1="-1200" x2="-800" y2="-1200" style="stroke:#800;stroke-width:10;stroke-opacity:1.000000;stroke-linecap:round"/>
  <g transform="translate(-956,-1206) rotate(0)" > <text font-size="66.6666666667" fill="#800" font-family="monospace"  >
   14
  </text> </g> 
  <g transform="translate(-782,-1170) rotate(0)" > <text font-size="66.6666666667" fill="#088" font-family="monospace"  >
   XTAL2
  </text> </g> 
  <circle cx="-1000" cy="-1200" r="10"
    style="fill:none;stroke:#800;stroke-width:2"  />
  <line x1="1000" y1="700" x2="800" y2="700" style="stroke:#800;stroke-width:10;stroke-opacity:1.000000;stroke-linecap:round"/>
  <g transform="translate(843,694) rotate(0)" > <text font-size="66.6666666667" fill="#800" font-family="monospace"  >
   24
  </text> </g> 
  <g transform="translate(440,730) rotate(0)" > <text font-size="66.6666666667" fill="#088" font-family="monospace"  >
   (A14)PC6
  </text> </g> 
  <circle cx="1000" cy="700" r="10"
    style="fill:none;stroke:#800;stroke-width:2"  />
  <line x1="1000" y1="-1400" x2="800" y2="-1400" style="stroke:#800;stroke-width:10;stroke-opacity:1.000000;stroke-linecap:round"/>
  <g transform="translate(843,-1406) rotate(0)" > <text font-size="66.6666666667" fill="#800" font-family="monospace"  >
   34
  </text> </g> 
  <g transform="translate(440,-1370) rotate(0)" > <text font-size="66.6666666667" fill="#088" font-family="monospace"  >
   (AD3)PA3
  </text> </g> 
  <circle cx="1000" cy="-1400" r="10"
    style="fill:none;stroke:#800;stroke-width:2"  />
  <line x1="1000" y1="-400" x2="800" y2="-400" style="stroke:#800;stroke-width:10;stroke-opacity:1.000000;stroke-linecap:round"/>
  <g transform="translate(843,-406) rotate(0)" > <text font-size="66.6666666667" fill="#800" font-family="monospace"  >
   44
  </text> </g> 
  <g transform="translate(400,-370) rotate(0)" > <text font-size="66.6666666667" fill="#088" font-family="monospace"  >
   (~SS~)PB4
  </text> </g> 
  <circle cx="1000" cy="-400" r="10"
    style="fill:none;stroke:#800;stroke-width:2"  />
  <line x1="-1000" y1="-800" x2="-800" y2="-800" style="stroke:#800;stroke-width:10;stroke-opacity:1.000000;stroke-linecap:round"/>
  <g transform="translate(-956,-806) rotate(0)" > <text font-size="66.6666666667" fill="#800" font-family="monospace"  >
   15
  </text> </g> 
  <g transform="translate(-782,-770) rotate(0)" > <text font-size="66.6666666667" fill="#088" font-family="monospace"  >
   XTAL1
  </text> </g> 
  <circle cx="-1000" cy="-800" r="10"
    style="fill:none;stroke:#800;stroke-width:2"  />
  <line x1="1000" y1="800" x2="800" y2="800" style="stroke:#800;stroke-width:10;stroke-opacity:1.000000;stroke-linecap:round"/>
  <g transform="translate(843,794) rotate(0)" > <text font-size="66.6666666667" fill="#800" font-family="monospace"  >
   25
  </text> </g> 
  <g transform="translate(440,830) rotate(0)" > <text font-size="66.6666666667" fill="#088" font-family="monospace"  >
   (A15)PC7
  </text> </g> 
  <circle cx="1000" cy="800" r="10"
    style="fill:none;stroke:#800;stroke-width:2"  />
  <line x1="1000" y1="-1500" x2="800" y2="-1500" style="stroke:#800;stroke-width:10;stroke-opacity:1.000000;stroke-linecap:round"/>
  <g transform="translate(843,-1506) rotate(0)" > <text font-size="66.6666666667" fill="#800" font-family="monospace"  >
   35
  </text> </g> 
  <g transform="translate(440,-1470) rotate(0)" > <text font-size="66.6666666667" fill="#088" font-family="monospace"  >
   (AD2)PA2
  </text> </g> 
  <circle cx="1000" cy="-1500" r="10"
    style="fill:none;stroke:#800;stroke-width:2"  />
  <line x1="0" y1="2000" x2="0" y2="1800" style="stroke:#800;stroke-width:10;stroke-opacity:1.000000;stroke-linecap:round"/>
  <g transform="translate(-10,1920) rotate(-90)" > <text font-size="66.6666666667" fill="#800" font-family="monospace"  >
   16
  </text> </g> 
  <g transform="translate(5,1766) rotate(-90)" > <text font-size="66.6666666667" fill="#088" font-family="monospace"  >
   GND
  </text> </g> 
  <circle cx="0" cy="2000" r="10"
    style="fill:none;stroke:#800;stroke-width:2"  />
  <line x1="-1000" y1="1200" x2="-800" y2="1200" style="stroke:#800;stroke-width:10;stroke-opacity:1.000000;stroke-linecap:round"/>
  <g transform="translate(-956,1194) rotate(0)" > <text font-size="66.6666666667" fill="#800" font-family="monospace"  >
   26
  </text> </g> 
  <g transform="translate(-782,1230) rotate(0)" > <text font-size="66.6666666667" fill="#088" font-family="monospace"  >
   PE2(OC1B)
  </text> </g> 
  <circle cx="-1000" cy="1200" r="10"
    style="fill:none;stroke:#800;stroke-width:2"  />
  <line x1="1000" y1="-1600" x2="800" y2="-1600" style="stroke:#800;stroke-width:10;stroke-opacity:1.000000;stroke-linecap:round"/>
  <g transform="translate(843,-1606) rotate(0)" > <text font-size="66.6666666667" fill="#800" font-family="monospace"  >
   36
  </text> </g> 
  <g transform="translate(440,-1570) rotate(0)" > <text font-size="66.6666666667" fill="#088" font-family="monospace"  >
   (AD1)PA1
  </text> </g> 
  <circle cx="1000" cy="-1600" r="10"
    style="fill:none;stroke:#800;stroke-width:2"  />
  <line x1="-1000" y1="1100" x2="-800" y2="1100" style="stroke:#800;stroke-width:10;stroke-opacity:1.000000;stroke-linecap:round"/>
  <g transform="translate(-956,1094) rotate(0)" > <text font-size="66.6666666667" fill="#800" font-family="monospace"  >
   27
  </text> </g> 
  <g transform="translate(-782,1130) rotate(0)" > <text font-size="66.6666666667" fill="#088" font-family="monospace"  >
   PE1(ALE)
  </text> </g> 
  <circle cx="-1000" cy="1100" r="10"
    style="fill:none;stroke:#800;stroke-width:2"  />
  <line x1="1000" y1="-1700" x2="800" y2="-1700" style="stroke:#800;stroke-width:10;stroke-opacity:1.000000;stroke-linecap:round"/>
  <g transform="translate(843,-1706) rotate(0)" > <text font-size="66.6666666667" fill="#800" font-family="monospace"  >
   37
  </text> </g> 
  <g transform="translate(440,-1670) rotate(0)" > <text font-size="66.6666666667" fill="#088" font-family="monospace"  >
   (AD0)PA0
  </text> </g> 
  <circle cx="1000" cy="-1700" r="10"
    style="fill:none;stroke:#800;stroke-width:2"  />
  <line x1="1000" y1="100" x2="800" y2="100" style="stroke:#800;stroke-width:10;stroke-opacity:1.000000;stroke-linecap:round"/>
  <g transform="translate(843,94) rotate(0)" > <text font-size="66.6666666667" fill="#800" font-family="monospace"  >
   18
  </text> </g> 
  <g transform="translate(480,130) rotate(0)" > <text font-size="66.6666666667" fill="#088" font-family="monospace"  >
   (A8)PC0
  </text> </g> 
  <circle cx="1000" cy="100" r="10"
    style="fill:none;stroke:#800;stroke-width:2"  />
  <line x1="0" y1="-2000" x2="0" y2="-1800" style="stroke:#800;stroke-width:10;stroke-opacity:1.000000;stroke-linecap:round"/>
  <g transform="translate(-10,-1880) rotate(-90)" > <text font-size="66.6666666667" fill="#800" font-family="monospace"  >
   38
  </text> </g> 
  <g transform="translate(5,-1646) rotate(-90)" > <text font-size="66.6666666667" fill="#088" font-family="monospace"  >
   VCC
  </text> </g> 
  <circle cx="0" cy="-2000" r="10"
    style="fill:none;stroke:#800;stroke-width:2"  />
  <line x1="1000" y1="200" x2="800" y2="200" style="stroke:#800;stroke-width:10;stroke-opacity:1.000000;stroke-linecap:round"/>
  <g transform="translate(843,194) rotate(0)" > <text font-size="66.6666666667" fill="#800" font-family="monospace"  >
   19
  </text> </g> 
  <g transform="translate(480,230) rotate(0)" > <text font-size="66.6666666667" fill="#088" font-family="monospace"  >
   (A9)PC1
  </text> </g> 
  <circle cx="1000" cy="200" r="10"
    style="fill:none;stroke:#800;stroke-width:2"  />
  <line x1="-1000" y1="1000" x2="-800" y2="1000" style="stroke:#800;stroke-width:10;stroke-opacity:1.000000;stroke-linecap:round"/>
  <g transform="translate(-956,994) rotate(0)" > <text font-size="66.6666666667" fill="#800" font-family="monospace"  >
   29
  </text> </g> 
  <g transform="translate(-782,1030) rotate(0)" > <text font-size="66.6666666667" fill="#088" font-family="monospace"  >
   PE0(ICP/INT2)
  </text> </g> 
  <circle cx="-1000" cy="1000" r="10"
    style="fill:none;stroke:#800;stroke-width:2"  />
 </g>
</svg>
