<?xml version="1.0"?>
<svg height="675" width="545"  >
 <g style="fill-opacity:1.0; stroke:black;
  stroke-width:1;" transform=" translate( 272.95,337.95 ) scale( 0.15,0.15 )">
  <g transform="translate(-750,-1125) rotate(0)" > <text font-size="83.3333333333" fill="#088" font-family="monospace"  >
   IC
  </text> </g> 
  <g transform="translate(-100,1200) rotate(0)" > <text font-size="83.3333333333" fill="#088" font-family="monospace"  >
   ATXMEGA16A4U-M
  </text> </g> 
  <rect x="-700" y="-1100" height="2200"
    width="1400" style="fill:none;stroke:#800;stroke-width:10" />
  <line x1="900" y1="-500" x2="700" y2="-500" style="stroke:#800;stroke-width:10;stroke-opacity:1.000000;stroke-linecap:round"/>
  <g transform="translate(771,-506) rotate(0)" > <text font-size="66.6666666667" fill="#800" font-family="monospace"  >
   1
  </text> </g> 
  <g transform="translate(540,-470) rotate(0)" > <text font-size="66.6666666667" fill="#088" font-family="monospace"  >
   PA5
  </text> </g> 
  <circle cx="900" cy="-500" r="10"
    style="fill:none;stroke:#800;stroke-width:2"  />
  <line x1="900" y1="-400" x2="700" y2="-400" style="stroke:#800;stroke-width:10;stroke-opacity:1.000000;stroke-linecap:round"/>
  <g transform="translate(771,-406) rotate(0)" > <text font-size="66.6666666667" fill="#800" font-family="monospace"  >
   2
  </text> </g> 
  <g transform="translate(540,-370) rotate(0)" > <text font-size="66.6666666667" fill="#088" font-family="monospace"  >
   PA6
  </text> </g> 
  <circle cx="900" cy="-400" r="10"
    style="fill:none;stroke:#800;stroke-width:2"  />
  <line x1="900" y1="-300" x2="700" y2="-300" style="stroke:#800;stroke-width:10;stroke-opacity:1.000000;stroke-linecap:round"/>
  <g transform="translate(771,-306) rotate(0)" > <text font-size="66.6666666667" fill="#800" font-family="monospace"  >
   3
  </text> </g> 
  <g transform="translate(540,-270) rotate(0)" > <text font-size="66.6666666667" fill="#088" font-family="monospace"  >
   PA7
  </text> </g> 
  <circle cx="900" cy="-300" r="10"
    style="fill:none;stroke:#800;stroke-width:2"  />
  <line x1="900" y1="-150" x2="700" y2="-150" style="stroke:#800;stroke-width:10;stroke-opacity:1.000000;stroke-linecap:round"/>
  <g transform="translate(771,-156) rotate(0)" > <text font-size="66.6666666667" fill="#800" font-family="monospace"  >
   4
  </text> </g> 
  <g transform="translate(540,-120) rotate(0)" > <text font-size="66.6666666667" fill="#088" font-family="monospace"  >
   PB0
  </text> </g> 
  <circle cx="900" cy="-150" r="10"
    style="fill:none;stroke:#800;stroke-width:2"  />
  <line x1="900" y1="-50" x2="700" y2="-50" style="stroke:#800;stroke-width:10;stroke-opacity:1.000000;stroke-linecap:round"/>
  <g transform="translate(771,-56) rotate(0)" > <text font-size="66.6666666667" fill="#800" font-family="monospace"  >
   5
  </text> </g> 
  <g transform="translate(540,-20) rotate(0)" > <text font-size="66.6666666667" fill="#088" font-family="monospace"  >
   PB1
  </text> </g> 
  <circle cx="900" cy="-50" r="10"
    style="fill:none;stroke:#800;stroke-width:2"  />
  <line x1="900" y1="50" x2="700" y2="50" style="stroke:#800;stroke-width:10;stroke-opacity:1.000000;stroke-linecap:round"/>
  <g transform="translate(771,44) rotate(0)" > <text font-size="66.6666666667" fill="#800" font-family="monospace"  >
   6
  </text> </g> 
  <g transform="translate(540,80) rotate(0)" > <text font-size="66.6666666667" fill="#088" font-family="monospace"  >
   PB2
  </text> </g> 
  <circle cx="900" cy="50" r="10"
    style="fill:none;stroke:#800;stroke-width:2"  />
  <line x1="900" y1="150" x2="700" y2="150" style="stroke:#800;stroke-width:10;stroke-opacity:1.000000;stroke-linecap:round"/>
  <g transform="translate(771,144) rotate(0)" > <text font-size="66.6666666667" fill="#800" font-family="monospace"  >
   7
  </text> </g> 
  <g transform="translate(540,180) rotate(0)" > <text font-size="66.6666666667" fill="#088" font-family="monospace"  >
   PB3
  </text> </g> 
  <circle cx="900" cy="150" r="10"
    style="fill:none;stroke:#800;stroke-width:2"  />
  <line x1="-150" y1="1300" x2="-150" y2="1100" style="stroke:#800;stroke-width:10;stroke-opacity:1.000000;stroke-linecap:round"/>
  <g transform="translate(-160,1210) rotate(-90)" > <text font-size="66.6666666667" fill="#800" font-family="monospace"  >
   8
  </text> </g> 
  <g transform="translate(-145,1066) rotate(-90)" > <text font-size="66.6666666667" fill="#088" font-family="monospace"  >
   GND
  </text> </g> 
  <circle cx="-150" cy="1300" r="10"
    style="fill:none;stroke:#800;stroke-width:2"  />
  <line x1="-100" y1="-1300" x2="-100" y2="-1100" style="stroke:#800;stroke-width:10;stroke-opacity:1.000000;stroke-linecap:round"/>
  <g transform="translate(-110,-1190) rotate(-90)" > <text font-size="66.6666666667" fill="#800" font-family="monospace"  >
   9
  </text> </g> 
  <g transform="translate(-95,-946) rotate(-90)" > <text font-size="66.6666666667" fill="#088" font-family="monospace"  >
   VCC
  </text> </g> 
  <circle cx="-100" cy="-1300" r="10"
    style="fill:none;stroke:#800;stroke-width:2"  />
  <line x1="900" y1="300" x2="700" y2="300" style="stroke:#800;stroke-width:10;stroke-opacity:1.000000;stroke-linecap:round"/>
  <g transform="translate(743,294) rotate(0)" > <text font-size="66.6666666667" fill="#800" font-family="monospace"  >
   10
  </text> </g> 
  <g transform="translate(540,330) rotate(0)" > <text font-size="66.6666666667" fill="#088" font-family="monospace"  >
   PC0
  </text> </g> 
  <circle cx="900" cy="300" r="10"
    style="fill:none;stroke:#800;stroke-width:2"  />
  <line x1="-900" y1="300" x2="-700" y2="300" style="stroke:#800;stroke-width:10;stroke-opacity:1.000000;stroke-linecap:round"/>
  <g transform="translate(-856,294) rotate(0)" > <text font-size="66.6666666667" fill="#800" font-family="monospace"  >
   20
  </text> </g> 
  <g transform="translate(-682,330) rotate(0)" > <text font-size="66.6666666667" fill="#088" font-family="monospace"  >
   PD0
  </text> </g> 
  <circle cx="-900" cy="300" r="10"
    style="fill:none;stroke:#800;stroke-width:2"  />
  <line x1="50" y1="1300" x2="50" y2="1100" style="stroke:#800;stroke-width:10;stroke-opacity:1.000000;stroke-linecap:round"/>
  <g transform="translate(40,1220) rotate(-90)" > <text font-size="66.6666666667" fill="#800" font-family="monospace"  >
   30
  </text> </g> 
  <g transform="translate(55,1066) rotate(-90)" > <text font-size="66.6666666667" fill="#088" font-family="monospace"  >
   GND
  </text> </g> 
  <circle cx="50" cy="1300" r="10"
    style="fill:none;stroke:#800;stroke-width:2"  />
  <line x1="900" y1="-1000" x2="700" y2="-1000" style="stroke:#800;stroke-width:10;stroke-opacity:1.000000;stroke-linecap:round"/>
  <g transform="translate(743,-1006) rotate(0)" > <text font-size="66.6666666667" fill="#800" font-family="monospace"  >
   40
  </text> </g> 
  <g transform="translate(540,-970) rotate(0)" > <text font-size="66.6666666667" fill="#088" font-family="monospace"  >
   PA0
  </text> </g> 
  <circle cx="900" cy="-1000" r="10"
    style="fill:none;stroke:#800;stroke-width:2"  />
  <line x1="900" y1="400" x2="700" y2="400" style="stroke:#800;stroke-width:10;stroke-opacity:1.000000;stroke-linecap:round"/>
  <g transform="translate(743,394) rotate(0)" > <text font-size="66.6666666667" fill="#800" font-family="monospace"  >
   11
  </text> </g> 
  <g transform="translate(540,430) rotate(0)" > <text font-size="66.6666666667" fill="#088" font-family="monospace"  >
   PC1
  </text> </g> 
  <circle cx="900" cy="400" r="10"
    style="fill:none;stroke:#800;stroke-width:2"  />
  <line x1="-900" y1="400" x2="-700" y2="400" style="stroke:#800;stroke-width:10;stroke-opacity:1.000000;stroke-linecap:round"/>
  <g transform="translate(-856,394) rotate(0)" > <text font-size="66.6666666667" fill="#800" font-family="monospace"  >
   21
  </text> </g> 
  <g transform="translate(-682,430) rotate(0)" > <text font-size="66.6666666667" fill="#088" font-family="monospace"  >
   PD1
  </text> </g> 
  <circle cx="-900" cy="400" r="10"
    style="fill:none;stroke:#800;stroke-width:2"  />
  <line x1="100" y1="-1300" x2="100" y2="-1100" style="stroke:#800;stroke-width:10;stroke-opacity:1.000000;stroke-linecap:round"/>
  <g transform="translate(90,-1180) rotate(-90)" > <text font-size="66.6666666667" fill="#800" font-family="monospace"  >
   31
  </text> </g> 
  <g transform="translate(105,-946) rotate(-90)" > <text font-size="66.6666666667" fill="#088" font-family="monospace"  >
   VCC
  </text> </g> 
  <circle cx="100" cy="-1300" r="10"
    style="fill:none;stroke:#800;stroke-width:2"  />
  <line x1="900" y1="-900" x2="700" y2="-900" style="stroke:#800;stroke-width:10;stroke-opacity:1.000000;stroke-linecap:round"/>
  <g transform="translate(743,-906) rotate(0)" > <text font-size="66.6666666667" fill="#800" font-family="monospace"  >
   41
  </text> </g> 
  <g transform="translate(540,-870) rotate(0)" > <text font-size="66.6666666667" fill="#088" font-family="monospace"  >
   PA1
  </text> </g> 
  <circle cx="900" cy="-900" r="10"
    style="fill:none;stroke:#800;stroke-width:2"  />
  <line x1="900" y1="500" x2="700" y2="500" style="stroke:#800;stroke-width:10;stroke-opacity:1.000000;stroke-linecap:round"/>
  <g transform="translate(743,494) rotate(0)" > <text font-size="66.6666666667" fill="#800" font-family="monospace"  >
   12
  </text> </g> 
  <g transform="translate(540,530) rotate(0)" > <text font-size="66.6666666667" fill="#088" font-family="monospace"  >
   PC2
  </text> </g> 
  <circle cx="900" cy="500" r="10"
    style="fill:none;stroke:#800;stroke-width:2"  />
  <line x1="-900" y1="500" x2="-700" y2="500" style="stroke:#800;stroke-width:10;stroke-opacity:1.000000;stroke-linecap:round"/>
  <g transform="translate(-856,494) rotate(0)" > <text font-size="66.6666666667" fill="#800" font-family="monospace"  >
   22
  </text> </g> 
  <g transform="translate(-682,530) rotate(0)" > <text font-size="66.6666666667" fill="#088" font-family="monospace"  >
   PD2
  </text> </g> 
  <circle cx="-900" cy="500" r="10"
    style="fill:none;stroke:#800;stroke-width:2"  />
  <line x1="-900" y1="50" x2="-700" y2="50" style="stroke:#800;stroke-width:10;stroke-opacity:1.000000;stroke-linecap:round"/>
  <g transform="translate(-856,44) rotate(0)" > <text font-size="66.6666666667" fill="#800" font-family="monospace"  >
   32
  </text> </g> 
  <g transform="translate(-682,80) rotate(0)" > <text font-size="66.6666666667" fill="#088" font-family="monospace"  >
   PE2
  </text> </g> 
  <circle cx="-900" cy="50" r="10"
    style="fill:none;stroke:#800;stroke-width:2"  />
  <line x1="900" y1="-800" x2="700" y2="-800" style="stroke:#800;stroke-width:10;stroke-opacity:1.000000;stroke-linecap:round"/>
  <g transform="translate(743,-806) rotate(0)" > <text font-size="66.6666666667" fill="#800" font-family="monospace"  >
   42
  </text> </g> 
  <g transform="translate(540,-770) rotate(0)" > <text font-size="66.6666666667" fill="#088" font-family="monospace"  >
   PA2
  </text> </g> 
  <circle cx="900" cy="-800" r="10"
    style="fill:none;stroke:#800;stroke-width:2"  />
  <line x1="900" y1="600" x2="700" y2="600" style="stroke:#800;stroke-width:10;stroke-opacity:1.000000;stroke-linecap:round"/>
  <g transform="translate(743,594) rotate(0)" > <text font-size="66.6666666667" fill="#800" font-family="monospace"  >
   13
  </text> </g> 
  <g transform="translate(540,630) rotate(0)" > <text font-size="66.6666666667" fill="#088" font-family="monospace"  >
   PC3
  </text> </g> 
  <circle cx="900" cy="600" r="10"
    style="fill:none;stroke:#800;stroke-width:2"  />
  <line x1="-900" y1="600" x2="-700" y2="600" style="stroke:#800;stroke-width:10;stroke-opacity:1.000000;stroke-linecap:round"/>
  <g transform="translate(-856,594) rotate(0)" > <text font-size="66.6666666667" fill="#800" font-family="monospace"  >
   23
  </text> </g> 
  <g transform="translate(-682,630) rotate(0)" > <text font-size="66.6666666667" fill="#088" font-family="monospace"  >
   PD3
  </text> </g> 
  <circle cx="-900" cy="600" r="10"
    style="fill:none;stroke:#800;stroke-width:2"  />
  <line x1="-900" y1="150" x2="-700" y2="150" style="stroke:#800;stroke-width:10;stroke-opacity:1.000000;stroke-linecap:round"/>
  <g transform="translate(-856,144) rotate(0)" > <text font-size="66.6666666667" fill="#800" font-family="monospace"  >
   33
  </text> </g> 
  <g transform="translate(-682,180) rotate(0)" > <text font-size="66.6666666667" fill="#088" font-family="monospace"  >
   PE3
  </text> </g> 
  <circle cx="-900" cy="150" r="10"
    style="fill:none;stroke:#800;stroke-width:2"  />
  <line x1="900" y1="-700" x2="700" y2="-700" style="stroke:#800;stroke-width:10;stroke-opacity:1.000000;stroke-linecap:round"/>
  <g transform="translate(743,-706) rotate(0)" > <text font-size="66.6666666667" fill="#800" font-family="monospace"  >
   43
  </text> </g> 
  <g transform="translate(540,-670) rotate(0)" > <text font-size="66.6666666667" fill="#088" font-family="monospace"  >
   PA3
  </text> </g> 
  <circle cx="900" cy="-700" r="10"
    style="fill:none;stroke:#800;stroke-width:2"  />
  <line x1="900" y1="700" x2="700" y2="700" style="stroke:#800;stroke-width:10;stroke-opacity:1.000000;stroke-linecap:round"/>
  <g transform="translate(743,694) rotate(0)" > <text font-size="66.6666666667" fill="#800" font-family="monospace"  >
   14
  </text> </g> 
  <g transform="translate(540,730) rotate(0)" > <text font-size="66.6666666667" fill="#088" font-family="monospace"  >
   PC4
  </text> </g> 
  <circle cx="900" cy="700" r="10"
    style="fill:none;stroke:#800;stroke-width:2"  />
  <line x1="-900" y1="700" x2="-700" y2="700" style="stroke:#800;stroke-width:10;stroke-opacity:1.000000;stroke-linecap:round"/>
  <g transform="translate(-856,694) rotate(0)" > <text font-size="66.6666666667" fill="#800" font-family="monospace"  >
   24
  </text> </g> 
  <g transform="translate(-682,730) rotate(0)" > <text font-size="66.6666666667" fill="#088" font-family="monospace"  >
   PD4
  </text> </g> 
  <circle cx="-900" cy="700" r="10"
    style="fill:none;stroke:#800;stroke-width:2"  />
  <line x1="-900" y1="-900" x2="-700" y2="-900" style="stroke:#800;stroke-width:10;stroke-opacity:1.000000;stroke-linecap:round"/>
  <g transform="translate(-856,-906) rotate(0)" > <text font-size="66.6666666667" fill="#800" font-family="monospace"  >
   34
  </text> </g> 
  <g transform="translate(-682,-870) rotate(0)" > <text font-size="66.6666666667" fill="#088" font-family="monospace"  >
   PDI_DATA
  </text> </g> 
  <circle cx="-900" cy="-900" r="10"
    style="fill:none;stroke:#800;stroke-width:2"  />
  <line x1="900" y1="-600" x2="700" y2="-600" style="stroke:#800;stroke-width:10;stroke-opacity:1.000000;stroke-linecap:round"/>
  <g transform="translate(743,-606) rotate(0)" > <text font-size="66.6666666667" fill="#800" font-family="monospace"  >
   44
  </text> </g> 
  <g transform="translate(540,-570) rotate(0)" > <text font-size="66.6666666667" fill="#088" font-family="monospace"  >
   PA4
  </text> </g> 
  <circle cx="900" cy="-600" r="10"
    style="fill:none;stroke:#800;stroke-width:2"  />
  <line x1="900" y1="800" x2="700" y2="800" style="stroke:#800;stroke-width:10;stroke-opacity:1.000000;stroke-linecap:round"/>
  <g transform="translate(743,794) rotate(0)" > <text font-size="66.6666666667" fill="#800" font-family="monospace"  >
   15
  </text> </g> 
  <g transform="translate(540,830) rotate(0)" > <text font-size="66.6666666667" fill="#088" font-family="monospace"  >
   PC5
  </text> </g> 
  <circle cx="900" cy="800" r="10"
    style="fill:none;stroke:#800;stroke-width:2"  />
  <line x1="-900" y1="800" x2="-700" y2="800" style="stroke:#800;stroke-width:10;stroke-opacity:1.000000;stroke-linecap:round"/>
  <g transform="translate(-856,794) rotate(0)" > <text font-size="66.6666666667" fill="#800" font-family="monospace"  >
   25
  </text> </g> 
  <g transform="translate(-682,830) rotate(0)" > <text font-size="66.6666666667" fill="#088" font-family="monospace"  >
   PD5
  </text> </g> 
  <circle cx="-900" cy="800" r="10"
    style="fill:none;stroke:#800;stroke-width:2"  />
  <line x1="-900" y1="-1000" x2="-770" y2="-1000" style="stroke:#800;stroke-width:10;stroke-opacity:1.000000;stroke-linecap:round"/>
  <circle cx="-735" cy="-1000" r="35"
    style="fill:none;stroke:#800;stroke-width:10"  />
  <g transform="translate(-856,-1006) rotate(0)" > <text font-size="66.6666666667" fill="#800" font-family="monospace"  >
   35
  </text> </g> 
  <g transform="translate(-682,-970) rotate(0)" > <text font-size="66.6666666667" fill="#088" font-family="monospace"  >
   ~RESET~/PDI_CLK
  </text> </g> 
  <circle cx="-900" cy="-1000" r="10"
    style="fill:none;stroke:#800;stroke-width:2"  />
  <line x1="900" y1="900" x2="700" y2="900" style="stroke:#800;stroke-width:10;stroke-opacity:1.000000;stroke-linecap:round"/>
  <g transform="translate(743,894) rotate(0)" > <text font-size="66.6666666667" fill="#800" font-family="monospace"  >
   16
  </text> </g> 
  <g transform="translate(540,930) rotate(0)" > <text font-size="66.6666666667" fill="#088" font-family="monospace"  >
   PC6
  </text> </g> 
  <circle cx="900" cy="900" r="10"
    style="fill:none;stroke:#800;stroke-width:2"  />
  <line x1="-900" y1="900" x2="-700" y2="900" style="stroke:#800;stroke-width:10;stroke-opacity:1.000000;stroke-linecap:round"/>
  <g transform="translate(-856,894) rotate(0)" > <text font-size="66.6666666667" fill="#800" font-family="monospace"  >
   26
  </text> </g> 
  <g transform="translate(-682,930) rotate(0)" > <text font-size="66.6666666667" fill="#088" font-family="monospace"  >
   PD6
  </text> </g> 
  <circle cx="-900" cy="900" r="10"
    style="fill:none;stroke:#800;stroke-width:2"  />
  <line x1="-900" y1="-400" x2="-700" y2="-400" style="stroke:#800;stroke-width:10;stroke-opacity:1.000000;stroke-linecap:round"/>
  <g transform="translate(-856,-406) rotate(0)" > <text font-size="66.6666666667" fill="#800" font-family="monospace"  >
   36
  </text> </g> 
  <g transform="translate(-682,-370) rotate(0)" > <text font-size="66.6666666667" fill="#088" font-family="monospace"  >
   PR0
  </text> </g> 
  <circle cx="-900" cy="-400" r="10"
    style="fill:none;stroke:#800;stroke-width:2"  />
  <line x1="900" y1="1000" x2="700" y2="1000" style="stroke:#800;stroke-width:10;stroke-opacity:1.000000;stroke-linecap:round"/>
  <g transform="translate(743,994) rotate(0)" > <text font-size="66.6666666667" fill="#800" font-family="monospace"  >
   17
  </text> </g> 
  <g transform="translate(540,1030) rotate(0)" > <text font-size="66.6666666667" fill="#088" font-family="monospace"  >
   PC7
  </text> </g> 
  <circle cx="900" cy="1000" r="10"
    style="fill:none;stroke:#800;stroke-width:2"  />
  <line x1="-900" y1="1000" x2="-700" y2="1000" style="stroke:#800;stroke-width:10;stroke-opacity:1.000000;stroke-linecap:round"/>
  <g transform="translate(-856,994) rotate(0)" > <text font-size="66.6666666667" fill="#800" font-family="monospace"  >
   27
  </text> </g> 
  <g transform="translate(-682,1030) rotate(0)" > <text font-size="66.6666666667" fill="#088" font-family="monospace"  >
   PD7
  </text> </g> 
  <circle cx="-900" cy="1000" r="10"
    style="fill:none;stroke:#800;stroke-width:2"  />
  <line x1="-900" y1="-300" x2="-700" y2="-300" style="stroke:#800;stroke-width:10;stroke-opacity:1.000000;stroke-linecap:round"/>
  <g transform="translate(-856,-306) rotate(0)" > <text font-size="66.6666666667" fill="#800" font-family="monospace"  >
   37
  </text> </g> 
  <g transform="translate(-682,-270) rotate(0)" > <text font-size="66.6666666667" fill="#088" font-family="monospace"  >
   PR1
  </text> </g> 
  <circle cx="-900" cy="-300" r="10"
    style="fill:none;stroke:#800;stroke-width:2"  />
  <line x1="-50" y1="1300" x2="-50" y2="1100" style="stroke:#800;stroke-width:10;stroke-opacity:1.000000;stroke-linecap:round"/>
  <g transform="translate(-60,1220) rotate(-90)" > <text font-size="66.6666666667" fill="#800" font-family="monospace"  >
   18
  </text> </g> 
  <g transform="translate(-45,1066) rotate(-90)" > <text font-size="66.6666666667" fill="#088" font-family="monospace"  >
   GND
  </text> </g> 
  <circle cx="-50" cy="1300" r="10"
    style="fill:none;stroke:#800;stroke-width:2"  />
  <line x1="-900" y1="-150" x2="-700" y2="-150" style="stroke:#800;stroke-width:10;stroke-opacity:1.000000;stroke-linecap:round"/>
  <g transform="translate(-856,-156) rotate(0)" > <text font-size="66.6666666667" fill="#800" font-family="monospace"  >
   28
  </text> </g> 
  <g transform="translate(-682,-120) rotate(0)" > <text font-size="66.6666666667" fill="#088" font-family="monospace"  >
   PE0
  </text> </g> 
  <circle cx="-900" cy="-150" r="10"
    style="fill:none;stroke:#800;stroke-width:2"  />
  <line x1="150" y1="1300" x2="150" y2="1100" style="stroke:#800;stroke-width:10;stroke-opacity:1.000000;stroke-linecap:round"/>
  <g transform="translate(140,1220) rotate(-90)" > <text font-size="66.6666666667" fill="#800" font-family="monospace"  >
   38
  </text> </g> 
  <g transform="translate(155,1066) rotate(-90)" > <text font-size="66.6666666667" fill="#088" font-family="monospace"  >
   GND
  </text> </g> 
  <circle cx="150" cy="1300" r="10"
    style="fill:none;stroke:#800;stroke-width:2"  />
  <line x1="0" y1="-1300" x2="0" y2="-1100" style="stroke:#800;stroke-width:10;stroke-opacity:1.000000;stroke-linecap:round"/>
  <g transform="translate(-10,-1180) rotate(-90)" > <text font-size="66.6666666667" fill="#800" font-family="monospace"  >
   19
  </text> </g> 
  <g transform="translate(5,-946) rotate(-90)" > <text font-size="66.6666666667" fill="#088" font-family="monospace"  >
   VCC
  </text> </g> 
  <circle cx="0" cy="-1300" r="10"
    style="fill:none;stroke:#800;stroke-width:2"  />
  <line x1="-900" y1="-50" x2="-700" y2="-50" style="stroke:#800;stroke-width:10;stroke-opacity:1.000000;stroke-linecap:round"/>
  <g transform="translate(-856,-56) rotate(0)" > <text font-size="66.6666666667" fill="#800" font-family="monospace"  >
   29
  </text> </g> 
  <g transform="translate(-682,-20) rotate(0)" > <text font-size="66.6666666667" fill="#088" font-family="monospace"  >
   PE1
  </text> </g> 
  <circle cx="-900" cy="-50" r="10"
    style="fill:none;stroke:#800;stroke-width:2"  />
  <line x1="300" y1="-1300" x2="300" y2="-1100" style="stroke:#800;stroke-width:10;stroke-opacity:1.000000;stroke-linecap:round"/>
  <g transform="translate(290,-1180) rotate(-90)" > <text font-size="66.6666666667" fill="#800" font-family="monospace"  >
   39
  </text> </g> 
  <g transform="translate(305,-906) rotate(-90)" > <text font-size="66.6666666667" fill="#088" font-family="monospace"  >
   AVCC
  </text> </g> 
  <circle cx="300" cy="-1300" r="10"
    style="fill:none;stroke:#800;stroke-width:2"  />
 </g>
</svg>
