<?xml version="1.0"?>
<svg height="875" width="733"  >
 <g style="fill-opacity:1.0; stroke:black;
  stroke-width:1;" transform=" translate( 366.7,437.95 ) scale( 0.15,0.15 )">
  <g transform="translate(-950,-1725) rotate(0)" > <text font-size="83.3333333333" fill="#088" font-family="monospace"  >
   IC
  </text> </g> 
  <g transform="translate(24,1850) rotate(0)" > <text font-size="83.3333333333" fill="#088" font-family="monospace"  >
   ATXMEGA256A3B-M
  </text> </g> 
  <rect x="-900" y="-1700" height="3450"
    width="1800" style="fill:none;stroke:#800;stroke-width:10" />
  <line x1="1100" y1="-1300" x2="900" y2="-1300" style="stroke:#800;stroke-width:10;stroke-opacity:1.000000;stroke-linecap:round"/>
  <g transform="translate(971,-1306) rotate(0)" > <text font-size="66.6666666667" fill="#800" font-family="monospace"  >
   1
  </text> </g> 
  <g transform="translate(740,-1270) rotate(0)" > <text font-size="66.6666666667" fill="#088" font-family="monospace"  >
   PA3
  </text> </g> 
  <circle cx="1100" cy="-1300" r="10"
    style="fill:none;stroke:#800;stroke-width:2"  />
  <line x1="1100" y1="-1200" x2="900" y2="-1200" style="stroke:#800;stroke-width:10;stroke-opacity:1.000000;stroke-linecap:round"/>
  <g transform="translate(971,-1206) rotate(0)" > <text font-size="66.6666666667" fill="#800" font-family="monospace"  >
   2
  </text> </g> 
  <g transform="translate(740,-1170) rotate(0)" > <text font-size="66.6666666667" fill="#088" font-family="monospace"  >
   PA4
  </text> </g> 
  <circle cx="1100" cy="-1200" r="10"
    style="fill:none;stroke:#800;stroke-width:2"  />
  <line x1="1100" y1="-1100" x2="900" y2="-1100" style="stroke:#800;stroke-width:10;stroke-opacity:1.000000;stroke-linecap:round"/>
  <g transform="translate(971,-1106) rotate(0)" > <text font-size="66.6666666667" fill="#800" font-family="monospace"  >
   3
  </text> </g> 
  <g transform="translate(740,-1070) rotate(0)" > <text font-size="66.6666666667" fill="#088" font-family="monospace"  >
   PA5
  </text> </g> 
  <circle cx="1100" cy="-1100" r="10"
    style="fill:none;stroke:#800;stroke-width:2"  />
  <line x1="1100" y1="-1000" x2="900" y2="-1000" style="stroke:#800;stroke-width:10;stroke-opacity:1.000000;stroke-linecap:round"/>
  <g transform="translate(971,-1006) rotate(0)" > <text font-size="66.6666666667" fill="#800" font-family="monospace"  >
   4
  </text> </g> 
  <g transform="translate(740,-970) rotate(0)" > <text font-size="66.6666666667" fill="#088" font-family="monospace"  >
   PA6
  </text> </g> 
  <circle cx="1100" cy="-1000" r="10"
    style="fill:none;stroke:#800;stroke-width:2"  />
  <line x1="1100" y1="-900" x2="900" y2="-900" style="stroke:#800;stroke-width:10;stroke-opacity:1.000000;stroke-linecap:round"/>
  <g transform="translate(971,-906) rotate(0)" > <text font-size="66.6666666667" fill="#800" font-family="monospace"  >
   5
  </text> </g> 
  <g transform="translate(740,-870) rotate(0)" > <text font-size="66.6666666667" fill="#088" font-family="monospace"  >
   PA7
  </text> </g> 
  <circle cx="1100" cy="-900" r="10"
    style="fill:none;stroke:#800;stroke-width:2"  />
  <line x1="1100" y1="-750" x2="900" y2="-750" style="stroke:#800;stroke-width:10;stroke-opacity:1.000000;stroke-linecap:round"/>
  <g transform="translate(971,-756) rotate(0)" > <text font-size="66.6666666667" fill="#800" font-family="monospace"  >
   6
  </text> </g> 
  <g transform="translate(740,-720) rotate(0)" > <text font-size="66.6666666667" fill="#088" font-family="monospace"  >
   PB0
  </text> </g> 
  <circle cx="1100" cy="-750" r="10"
    style="fill:none;stroke:#800;stroke-width:2"  />
  <line x1="1100" y1="-650" x2="900" y2="-650" style="stroke:#800;stroke-width:10;stroke-opacity:1.000000;stroke-linecap:round"/>
  <g transform="translate(971,-656) rotate(0)" > <text font-size="66.6666666667" fill="#800" font-family="monospace"  >
   7
  </text> </g> 
  <g transform="translate(740,-620) rotate(0)" > <text font-size="66.6666666667" fill="#088" font-family="monospace"  >
   PB1
  </text> </g> 
  <circle cx="1100" cy="-650" r="10"
    style="fill:none;stroke:#800;stroke-width:2"  />
  <line x1="1100" y1="-550" x2="900" y2="-550" style="stroke:#800;stroke-width:10;stroke-opacity:1.000000;stroke-linecap:round"/>
  <g transform="translate(971,-556) rotate(0)" > <text font-size="66.6666666667" fill="#800" font-family="monospace"  >
   8
  </text> </g> 
  <g transform="translate(740,-520) rotate(0)" > <text font-size="66.6666666667" fill="#088" font-family="monospace"  >
   PB2
  </text> </g> 
  <circle cx="1100" cy="-550" r="10"
    style="fill:none;stroke:#800;stroke-width:2"  />
  <line x1="1100" y1="-450" x2="900" y2="-450" style="stroke:#800;stroke-width:10;stroke-opacity:1.000000;stroke-linecap:round"/>
  <g transform="translate(971,-456) rotate(0)" > <text font-size="66.6666666667" fill="#800" font-family="monospace"  >
   9
  </text> </g> 
  <g transform="translate(740,-420) rotate(0)" > <text font-size="66.6666666667" fill="#088" font-family="monospace"  >
   PB3
  </text> </g> 
  <circle cx="1100" cy="-450" r="10"
    style="fill:none;stroke:#800;stroke-width:2"  />
  <line x1="1100" y1="-350" x2="900" y2="-350" style="stroke:#800;stroke-width:10;stroke-opacity:1.000000;stroke-linecap:round"/>
  <g transform="translate(943,-356) rotate(0)" > <text font-size="66.6666666667" fill="#800" font-family="monospace"  >
   10
  </text> </g> 
  <g transform="translate(740,-320) rotate(0)" > <text font-size="66.6666666667" fill="#088" font-family="monospace"  >
   PB4
  </text> </g> 
  <circle cx="1100" cy="-350" r="10"
    style="fill:none;stroke:#800;stroke-width:2"  />
  <line x1="1100" y1="500" x2="900" y2="500" style="stroke:#800;stroke-width:10;stroke-opacity:1.000000;stroke-linecap:round"/>
  <g transform="translate(943,494) rotate(0)" > <text font-size="66.6666666667" fill="#800" font-family="monospace"  >
   20
  </text> </g> 
  <g transform="translate(740,530) rotate(0)" > <text font-size="66.6666666667" fill="#088" font-family="monospace"  >
   PC4
  </text> </g> 
  <circle cx="1100" cy="500" r="10"
    style="fill:none;stroke:#800;stroke-width:2"  />
  <line x1="1100" y1="1350" x2="900" y2="1350" style="stroke:#800;stroke-width:10;stroke-opacity:1.000000;stroke-linecap:round"/>
  <g transform="translate(943,1344) rotate(0)" > <text font-size="66.6666666667" fill="#800" font-family="monospace"  >
   30
  </text> </g> 
  <g transform="translate(740,1380) rotate(0)" > <text font-size="66.6666666667" fill="#088" font-family="monospace"  >
   PD4
  </text> </g> 
  <circle cx="1100" cy="1350" r="10"
    style="fill:none;stroke:#800;stroke-width:2"  />
  <line x1="-1100" y1="1350" x2="-900" y2="1350" style="stroke:#800;stroke-width:10;stroke-opacity:1.000000;stroke-linecap:round"/>
  <g transform="translate(-1056,1344) rotate(0)" > <text font-size="66.6666666667" fill="#800" font-family="monospace"  >
   40
  </text> </g> 
  <g transform="translate(-882,1380) rotate(0)" > <text font-size="66.6666666667" fill="#088" font-family="monospace"  >
   PE4
  </text> </g> 
  <circle cx="-1100" cy="1350" r="10"
    style="fill:none;stroke:#800;stroke-width:2"  />
  <line x1="-1100" y1="500" x2="-900" y2="500" style="stroke:#800;stroke-width:10;stroke-opacity:1.000000;stroke-linecap:round"/>
  <g transform="translate(-1056,494) rotate(0)" > <text font-size="66.6666666667" fill="#800" font-family="monospace"  >
   50
  </text> </g> 
  <g transform="translate(-882,530) rotate(0)" > <text font-size="66.6666666667" fill="#088" font-family="monospace"  >
   PF4
  </text> </g> 
  <circle cx="-1100" cy="500" r="10"
    style="fill:none;stroke:#800;stroke-width:2"  />
  <line x1="250" y1="1950" x2="250" y2="1750" style="stroke:#800;stroke-width:10;stroke-opacity:1.000000;stroke-linecap:round"/>
  <g transform="translate(240,1870) rotate(-90)" > <text font-size="66.6666666667" fill="#800" font-family="monospace"  >
   60
  </text> </g> 
  <g transform="translate(255,1716) rotate(-90)" > <text font-size="66.6666666667" fill="#088" font-family="monospace"  >
   GND
  </text> </g> 
  <circle cx="250" cy="1950" r="10"
    style="fill:none;stroke:#800;stroke-width:2"  />
  <line x1="1100" y1="-250" x2="900" y2="-250" style="stroke:#800;stroke-width:10;stroke-opacity:1.000000;stroke-linecap:round"/>
  <g transform="translate(943,-256) rotate(0)" > <text font-size="66.6666666667" fill="#800" font-family="monospace"  >
   11
  </text> </g> 
  <g transform="translate(740,-220) rotate(0)" > <text font-size="66.6666666667" fill="#088" font-family="monospace"  >
   PB5
  </text> </g> 
  <circle cx="1100" cy="-250" r="10"
    style="fill:none;stroke:#800;stroke-width:2"  />
  <line x1="1100" y1="600" x2="900" y2="600" style="stroke:#800;stroke-width:10;stroke-opacity:1.000000;stroke-linecap:round"/>
  <g transform="translate(943,594) rotate(0)" > <text font-size="66.6666666667" fill="#800" font-family="monospace"  >
   21
  </text> </g> 
  <g transform="translate(740,630) rotate(0)" > <text font-size="66.6666666667" fill="#088" font-family="monospace"  >
   PC5
  </text> </g> 
  <circle cx="1100" cy="600" r="10"
    style="fill:none;stroke:#800;stroke-width:2"  />
  <line x1="1100" y1="1450" x2="900" y2="1450" style="stroke:#800;stroke-width:10;stroke-opacity:1.000000;stroke-linecap:round"/>
  <g transform="translate(943,1444) rotate(0)" > <text font-size="66.6666666667" fill="#800" font-family="monospace"  >
   31
  </text> </g> 
  <g transform="translate(740,1480) rotate(0)" > <text font-size="66.6666666667" fill="#088" font-family="monospace"  >
   PD5
  </text> </g> 
  <circle cx="1100" cy="1450" r="10"
    style="fill:none;stroke:#800;stroke-width:2"  />
  <line x1="-1100" y1="1450" x2="-900" y2="1450" style="stroke:#800;stroke-width:10;stroke-opacity:1.000000;stroke-linecap:round"/>
  <g transform="translate(-1056,1444) rotate(0)" > <text font-size="66.6666666667" fill="#800" font-family="monospace"  >
   41
  </text> </g> 
  <g transform="translate(-882,1480) rotate(0)" > <text font-size="66.6666666667" fill="#088" font-family="monospace"  >
   PE5
  </text> </g> 
  <circle cx="-1100" cy="1450" r="10"
    style="fill:none;stroke:#800;stroke-width:2"  />
  <line x1="-1100" y1="-1300" x2="-900" y2="-1300" style="stroke:#800;stroke-width:10;stroke-opacity:1.000000;stroke-linecap:round"/>
  <g transform="translate(-1056,-1306) rotate(0)" > <text font-size="66.6666666667" fill="#800" font-family="monospace"  >
   51
  </text> </g> 
  <g transform="translate(-882,-1270) rotate(0)" > <text font-size="66.6666666667" fill="#088" font-family="monospace"  >
   VBAT
  </text> </g> 
  <circle cx="-1100" cy="-1300" r="10"
    style="fill:none;stroke:#800;stroke-width:2"  />
  <line x1="300" y1="-1900" x2="300" y2="-1700" style="stroke:#800;stroke-width:10;stroke-opacity:1.000000;stroke-linecap:round"/>
  <g transform="translate(290,-1780) rotate(-90)" > <text font-size="66.6666666667" fill="#800" font-family="monospace"  >
   61
  </text> </g> 
  <g transform="translate(305,-1506) rotate(-90)" > <text font-size="66.6666666667" fill="#088" font-family="monospace"  >
   AVCC
  </text> </g> 
  <circle cx="300" cy="-1900" r="10"
    style="fill:none;stroke:#800;stroke-width:2"  />
  <line x1="1100" y1="-150" x2="900" y2="-150" style="stroke:#800;stroke-width:10;stroke-opacity:1.000000;stroke-linecap:round"/>
  <g transform="translate(943,-156) rotate(0)" > <text font-size="66.6666666667" fill="#800" font-family="monospace"  >
   12
  </text> </g> 
  <g transform="translate(740,-120) rotate(0)" > <text font-size="66.6666666667" fill="#088" font-family="monospace"  >
   PB6
  </text> </g> 
  <circle cx="1100" cy="-150" r="10"
    style="fill:none;stroke:#800;stroke-width:2"  />
  <line x1="1100" y1="700" x2="900" y2="700" style="stroke:#800;stroke-width:10;stroke-opacity:1.000000;stroke-linecap:round"/>
  <g transform="translate(943,694) rotate(0)" > <text font-size="66.6666666667" fill="#800" font-family="monospace"  >
   22
  </text> </g> 
  <g transform="translate(740,730) rotate(0)" > <text font-size="66.6666666667" fill="#088" font-family="monospace"  >
   PC6
  </text> </g> 
  <circle cx="1100" cy="700" r="10"
    style="fill:none;stroke:#800;stroke-width:2"  />
  <line x1="1100" y1="1550" x2="900" y2="1550" style="stroke:#800;stroke-width:10;stroke-opacity:1.000000;stroke-linecap:round"/>
  <g transform="translate(943,1544) rotate(0)" > <text font-size="66.6666666667" fill="#800" font-family="monospace"  >
   32
  </text> </g> 
  <g transform="translate(740,1580) rotate(0)" > <text font-size="66.6666666667" fill="#088" font-family="monospace"  >
   PD6
  </text> </g> 
  <circle cx="1100" cy="1550" r="10"
    style="fill:none;stroke:#800;stroke-width:2"  />
  <line x1="-1100" y1="-1000" x2="-900" y2="-1000" style="stroke:#800;stroke-width:10;stroke-opacity:1.000000;stroke-linecap:round"/>
  <g transform="translate(-1056,-1006) rotate(0)" > <text font-size="66.6666666667" fill="#800" font-family="monospace"  >
   42
  </text> </g> 
  <g transform="translate(-882,-970) rotate(0)" > <text font-size="66.6666666667" fill="#088" font-family="monospace"  >
   TOSC2
  </text> </g> 
  <circle cx="-1100" cy="-1000" r="10"
    style="fill:none;stroke:#800;stroke-width:2"  />
  <line x1="150" y1="1950" x2="150" y2="1750" style="stroke:#800;stroke-width:10;stroke-opacity:1.000000;stroke-linecap:round"/>
  <g transform="translate(140,1870) rotate(-90)" > <text font-size="66.6666666667" fill="#800" font-family="monospace"  >
   52
  </text> </g> 
  <g transform="translate(155,1716) rotate(-90)" > <text font-size="66.6666666667" fill="#088" font-family="monospace"  >
   GND
  </text> </g> 
  <circle cx="150" cy="1950" r="10"
    style="fill:none;stroke:#800;stroke-width:2"  />
  <line x1="1100" y1="-1600" x2="900" y2="-1600" style="stroke:#800;stroke-width:10;stroke-opacity:1.000000;stroke-linecap:round"/>
  <g transform="translate(943,-1606) rotate(0)" > <text font-size="66.6666666667" fill="#800" font-family="monospace"  >
   62
  </text> </g> 
  <g transform="translate(740,-1570) rotate(0)" > <text font-size="66.6666666667" fill="#088" font-family="monospace"  >
   PA0
  </text> </g> 
  <circle cx="1100" cy="-1600" r="10"
    style="fill:none;stroke:#800;stroke-width:2"  />
  <line x1="1100" y1="-50" x2="900" y2="-50" style="stroke:#800;stroke-width:10;stroke-opacity:1.000000;stroke-linecap:round"/>
  <g transform="translate(943,-56) rotate(0)" > <text font-size="66.6666666667" fill="#800" font-family="monospace"  >
   13
  </text> </g> 
  <g transform="translate(740,-20) rotate(0)" > <text font-size="66.6666666667" fill="#088" font-family="monospace"  >
   PB7
  </text> </g> 
  <circle cx="1100" cy="-50" r="10"
    style="fill:none;stroke:#800;stroke-width:2"  />
  <line x1="1100" y1="800" x2="900" y2="800" style="stroke:#800;stroke-width:10;stroke-opacity:1.000000;stroke-linecap:round"/>
  <g transform="translate(943,794) rotate(0)" > <text font-size="66.6666666667" fill="#800" font-family="monospace"  >
   23
  </text> </g> 
  <g transform="translate(740,830) rotate(0)" > <text font-size="66.6666666667" fill="#088" font-family="monospace"  >
   PC7
  </text> </g> 
  <circle cx="1100" cy="800" r="10"
    style="fill:none;stroke:#800;stroke-width:2"  />
  <line x1="1100" y1="1650" x2="900" y2="1650" style="stroke:#800;stroke-width:10;stroke-opacity:1.000000;stroke-linecap:round"/>
  <g transform="translate(943,1644) rotate(0)" > <text font-size="66.6666666667" fill="#800" font-family="monospace"  >
   33
  </text> </g> 
  <g transform="translate(740,1680) rotate(0)" > <text font-size="66.6666666667" fill="#088" font-family="monospace"  >
   PD7
  </text> </g> 
  <circle cx="1100" cy="1650" r="10"
    style="fill:none;stroke:#800;stroke-width:2"  />
  <line x1="-1100" y1="-800" x2="-900" y2="-800" style="stroke:#800;stroke-width:10;stroke-opacity:1.000000;stroke-linecap:round"/>
  <g transform="translate(-1056,-806) rotate(0)" > <text font-size="66.6666666667" fill="#800" font-family="monospace"  >
   43
  </text> </g> 
  <g transform="translate(-882,-770) rotate(0)" > <text font-size="66.6666666667" fill="#088" font-family="monospace"  >
   TOSC1
  </text> </g> 
  <circle cx="-1100" cy="-800" r="10"
    style="fill:none;stroke:#800;stroke-width:2"  />
  <line x1="100" y1="-1900" x2="100" y2="-1700" style="stroke:#800;stroke-width:10;stroke-opacity:1.000000;stroke-linecap:round"/>
  <g transform="translate(90,-1780) rotate(-90)" > <text font-size="66.6666666667" fill="#800" font-family="monospace"  >
   53
  </text> </g> 
  <g transform="translate(105,-1546) rotate(-90)" > <text font-size="66.6666666667" fill="#088" font-family="monospace"  >
   VCC
  </text> </g> 
  <circle cx="100" cy="-1900" r="10"
    style="fill:none;stroke:#800;stroke-width:2"  />
  <line x1="1100" y1="-1500" x2="900" y2="-1500" style="stroke:#800;stroke-width:10;stroke-opacity:1.000000;stroke-linecap:round"/>
  <g transform="translate(943,-1506) rotate(0)" > <text font-size="66.6666666667" fill="#800" font-family="monospace"  >
   63
  </text> </g> 
  <g transform="translate(740,-1470) rotate(0)" > <text font-size="66.6666666667" fill="#088" font-family="monospace"  >
   PA1
  </text> </g> 
  <circle cx="1100" cy="-1500" r="10"
    style="fill:none;stroke:#800;stroke-width:2"  />
  <line x1="-250" y1="1950" x2="-250" y2="1750" style="stroke:#800;stroke-width:10;stroke-opacity:1.000000;stroke-linecap:round"/>
  <g transform="translate(-260,1870) rotate(-90)" > <text font-size="66.6666666667" fill="#800" font-family="monospace"  >
   14
  </text> </g> 
  <g transform="translate(-245,1716) rotate(-90)" > <text font-size="66.6666666667" fill="#088" font-family="monospace"  >
   GND
  </text> </g> 
  <circle cx="-250" cy="1950" r="10"
    style="fill:none;stroke:#800;stroke-width:2"  />
  <line x1="-150" y1="1950" x2="-150" y2="1750" style="stroke:#800;stroke-width:10;stroke-opacity:1.000000;stroke-linecap:round"/>
  <g transform="translate(-160,1870) rotate(-90)" > <text font-size="66.6666666667" fill="#800" font-family="monospace"  >
   24
  </text> </g> 
  <g transform="translate(-145,1716) rotate(-90)" > <text font-size="66.6666666667" fill="#088" font-family="monospace"  >
   GND
  </text> </g> 
  <circle cx="-150" cy="1950" r="10"
    style="fill:none;stroke:#800;stroke-width:2"  />
  <line x1="-50" y1="1950" x2="-50" y2="1750" style="stroke:#800;stroke-width:10;stroke-opacity:1.000000;stroke-linecap:round"/>
  <g transform="translate(-60,1870) rotate(-90)" > <text font-size="66.6666666667" fill="#800" font-family="monospace"  >
   34
  </text> </g> 
  <g transform="translate(-45,1716) rotate(-90)" > <text font-size="66.6666666667" fill="#088" font-family="monospace"  >
   GND
  </text> </g> 
  <circle cx="-50" cy="1950" r="10"
    style="fill:none;stroke:#800;stroke-width:2"  />
  <line x1="50" y1="1950" x2="50" y2="1750" style="stroke:#800;stroke-width:10;stroke-opacity:1.000000;stroke-linecap:round"/>
  <g transform="translate(40,1870) rotate(-90)" > <text font-size="66.6666666667" fill="#800" font-family="monospace"  >
   44
  </text> </g> 
  <g transform="translate(55,1716) rotate(-90)" > <text font-size="66.6666666667" fill="#088" font-family="monospace"  >
   GND
  </text> </g> 
  <circle cx="50" cy="1950" r="10"
    style="fill:none;stroke:#800;stroke-width:2"  />
  <line x1="-1100" y1="600" x2="-900" y2="600" style="stroke:#800;stroke-width:10;stroke-opacity:1.000000;stroke-linecap:round"/>
  <g transform="translate(-1056,594) rotate(0)" > <text font-size="66.6666666667" fill="#800" font-family="monospace"  >
   54
  </text> </g> 
  <g transform="translate(-882,630) rotate(0)" > <text font-size="66.6666666667" fill="#088" font-family="monospace"  >
   PF6
  </text> </g> 
  <circle cx="-1100" cy="600" r="10"
    style="fill:none;stroke:#800;stroke-width:2"  />
  <line x1="1100" y1="-1400" x2="900" y2="-1400" style="stroke:#800;stroke-width:10;stroke-opacity:1.000000;stroke-linecap:round"/>
  <g transform="translate(943,-1406) rotate(0)" > <text font-size="66.6666666667" fill="#800" font-family="monospace"  >
   64
  </text> </g> 
  <g transform="translate(740,-1370) rotate(0)" > <text font-size="66.6666666667" fill="#088" font-family="monospace"  >
   PA2
  </text> </g> 
  <circle cx="1100" cy="-1400" r="10"
    style="fill:none;stroke:#800;stroke-width:2"  />
  <line x1="-300" y1="-1900" x2="-300" y2="-1700" style="stroke:#800;stroke-width:10;stroke-opacity:1.000000;stroke-linecap:round"/>
  <g transform="translate(-310,-1780) rotate(-90)" > <text font-size="66.6666666667" fill="#800" font-family="monospace"  >
   15
  </text> </g> 
  <g transform="translate(-295,-1546) rotate(-90)" > <text font-size="66.6666666667" fill="#088" font-family="monospace"  >
   VCC
  </text> </g> 
  <circle cx="-300" cy="-1900" r="10"
    style="fill:none;stroke:#800;stroke-width:2"  />
  <line x1="-200" y1="-1900" x2="-200" y2="-1700" style="stroke:#800;stroke-width:10;stroke-opacity:1.000000;stroke-linecap:round"/>
  <g transform="translate(-210,-1780) rotate(-90)" > <text font-size="66.6666666667" fill="#800" font-family="monospace"  >
   25
  </text> </g> 
  <g transform="translate(-195,-1546) rotate(-90)" > <text font-size="66.6666666667" fill="#088" font-family="monospace"  >
   VCC
  </text> </g> 
  <circle cx="-200" cy="-1900" r="10"
    style="fill:none;stroke:#800;stroke-width:2"  />
  <line x1="-100" y1="-1900" x2="-100" y2="-1700" style="stroke:#800;stroke-width:10;stroke-opacity:1.000000;stroke-linecap:round"/>
  <g transform="translate(-110,-1780) rotate(-90)" > <text font-size="66.6666666667" fill="#800" font-family="monospace"  >
   35
  </text> </g> 
  <g transform="translate(-95,-1546) rotate(-90)" > <text font-size="66.6666666667" fill="#088" font-family="monospace"  >
   VCC
  </text> </g> 
  <circle cx="-100" cy="-1900" r="10"
    style="fill:none;stroke:#800;stroke-width:2"  />
  <line x1="0" y1="-1900" x2="0" y2="-1700" style="stroke:#800;stroke-width:10;stroke-opacity:1.000000;stroke-linecap:round"/>
  <g transform="translate(-10,-1780) rotate(-90)" > <text font-size="66.6666666667" fill="#800" font-family="monospace"  >
   45
  </text> </g> 
  <g transform="translate(5,-1546) rotate(-90)" > <text font-size="66.6666666667" fill="#088" font-family="monospace"  >
   VCC
  </text> </g> 
  <circle cx="0" cy="-1900" r="10"
    style="fill:none;stroke:#800;stroke-width:2"  />
  <line x1="-1100" y1="700" x2="-900" y2="700" style="stroke:#800;stroke-width:10;stroke-opacity:1.000000;stroke-linecap:round"/>
  <g transform="translate(-1056,694) rotate(0)" > <text font-size="66.6666666667" fill="#800" font-family="monospace"  >
   55
  </text> </g> 
  <g transform="translate(-882,730) rotate(0)" > <text font-size="66.6666666667" fill="#088" font-family="monospace"  >
   PF7
  </text> </g> 
  <circle cx="-1100" cy="700" r="10"
    style="fill:none;stroke:#800;stroke-width:2"  />
  <line x1="1100" y1="100" x2="900" y2="100" style="stroke:#800;stroke-width:10;stroke-opacity:1.000000;stroke-linecap:round"/>
  <g transform="translate(943,94) rotate(0)" > <text font-size="66.6666666667" fill="#800" font-family="monospace"  >
   16
  </text> </g> 
  <g transform="translate(740,130) rotate(0)" > <text font-size="66.6666666667" fill="#088" font-family="monospace"  >
   PC0
  </text> </g> 
  <circle cx="1100" cy="100" r="10"
    style="fill:none;stroke:#800;stroke-width:2"  />
  <line x1="1100" y1="950" x2="900" y2="950" style="stroke:#800;stroke-width:10;stroke-opacity:1.000000;stroke-linecap:round"/>
  <g transform="translate(943,944) rotate(0)" > <text font-size="66.6666666667" fill="#800" font-family="monospace"  >
   26
  </text> </g> 
  <g transform="translate(740,980) rotate(0)" > <text font-size="66.6666666667" fill="#088" font-family="monospace"  >
   PD0
  </text> </g> 
  <circle cx="1100" cy="950" r="10"
    style="fill:none;stroke:#800;stroke-width:2"  />
  <line x1="-1100" y1="950" x2="-900" y2="950" style="stroke:#800;stroke-width:10;stroke-opacity:1.000000;stroke-linecap:round"/>
  <g transform="translate(-1056,944) rotate(0)" > <text font-size="66.6666666667" fill="#800" font-family="monospace"  >
   36
  </text> </g> 
  <g transform="translate(-882,980) rotate(0)" > <text font-size="66.6666666667" fill="#088" font-family="monospace"  >
   PE0
  </text> </g> 
  <circle cx="-1100" cy="950" r="10"
    style="fill:none;stroke:#800;stroke-width:2"  />
  <line x1="-1100" y1="100" x2="-900" y2="100" style="stroke:#800;stroke-width:10;stroke-opacity:1.000000;stroke-linecap:round"/>
  <g transform="translate(-1056,94) rotate(0)" > <text font-size="66.6666666667" fill="#800" font-family="monospace"  >
   46
  </text> </g> 
  <g transform="translate(-882,130) rotate(0)" > <text font-size="66.6666666667" fill="#088" font-family="monospace"  >
   PF0
  </text> </g> 
  <circle cx="-1100" cy="100" r="10"
    style="fill:none;stroke:#800;stroke-width:2"  />
  <line x1="-1100" y1="-1500" x2="-900" y2="-1500" style="stroke:#800;stroke-width:10;stroke-opacity:1.000000;stroke-linecap:round"/>
  <g transform="translate(-1056,-1506) rotate(0)" > <text font-size="66.6666666667" fill="#800" font-family="monospace"  >
   56
  </text> </g> 
  <g transform="translate(-882,-1470) rotate(0)" > <text font-size="66.6666666667" fill="#088" font-family="monospace"  >
   PDI_DATA
  </text> </g> 
  <circle cx="-1100" cy="-1500" r="10"
    style="fill:none;stroke:#800;stroke-width:2"  />
  <line x1="1100" y1="200" x2="900" y2="200" style="stroke:#800;stroke-width:10;stroke-opacity:1.000000;stroke-linecap:round"/>
  <g transform="translate(943,194) rotate(0)" > <text font-size="66.6666666667" fill="#800" font-family="monospace"  >
   17
  </text> </g> 
  <g transform="translate(740,230) rotate(0)" > <text font-size="66.6666666667" fill="#088" font-family="monospace"  >
   PC1
  </text> </g> 
  <circle cx="1100" cy="200" r="10"
    style="fill:none;stroke:#800;stroke-width:2"  />
  <line x1="1100" y1="1050" x2="900" y2="1050" style="stroke:#800;stroke-width:10;stroke-opacity:1.000000;stroke-linecap:round"/>
  <g transform="translate(943,1044) rotate(0)" > <text font-size="66.6666666667" fill="#800" font-family="monospace"  >
   27
  </text> </g> 
  <g transform="translate(740,1080) rotate(0)" > <text font-size="66.6666666667" fill="#088" font-family="monospace"  >
   PD1
  </text> </g> 
  <circle cx="1100" cy="1050" r="10"
    style="fill:none;stroke:#800;stroke-width:2"  />
  <line x1="-1100" y1="1050" x2="-900" y2="1050" style="stroke:#800;stroke-width:10;stroke-opacity:1.000000;stroke-linecap:round"/>
  <g transform="translate(-1056,1044) rotate(0)" > <text font-size="66.6666666667" fill="#800" font-family="monospace"  >
   37
  </text> </g> 
  <g transform="translate(-882,1080) rotate(0)" > <text font-size="66.6666666667" fill="#088" font-family="monospace"  >
   PE1
  </text> </g> 
  <circle cx="-1100" cy="1050" r="10"
    style="fill:none;stroke:#800;stroke-width:2"  />
  <line x1="-1100" y1="200" x2="-900" y2="200" style="stroke:#800;stroke-width:10;stroke-opacity:1.000000;stroke-linecap:round"/>
  <g transform="translate(-1056,194) rotate(0)" > <text font-size="66.6666666667" fill="#800" font-family="monospace"  >
   47
  </text> </g> 
  <g transform="translate(-882,230) rotate(0)" > <text font-size="66.6666666667" fill="#088" font-family="monospace"  >
   PF1
  </text> </g> 
  <circle cx="-1100" cy="200" r="10"
    style="fill:none;stroke:#800;stroke-width:2"  />
  <line x1="-1100" y1="-1600" x2="-970" y2="-1600" style="stroke:#800;stroke-width:10;stroke-opacity:1.000000;stroke-linecap:round"/>
  <circle cx="-935" cy="-1600" r="35"
    style="fill:none;stroke:#800;stroke-width:10"  />
  <g transform="translate(-1056,-1606) rotate(0)" > <text font-size="66.6666666667" fill="#800" font-family="monospace"  >
   57
  </text> </g> 
  <g transform="translate(-882,-1570) rotate(0)" > <text font-size="66.6666666667" fill="#088" font-family="monospace"  >
   ~RESET~/PDI_CLK
  </text> </g> 
  <circle cx="-1100" cy="-1600" r="10"
    style="fill:none;stroke:#800;stroke-width:2"  />
  <line x1="1100" y1="300" x2="900" y2="300" style="stroke:#800;stroke-width:10;stroke-opacity:1.000000;stroke-linecap:round"/>
  <g transform="translate(943,294) rotate(0)" > <text font-size="66.6666666667" fill="#800" font-family="monospace"  >
   18
  </text> </g> 
  <g transform="translate(740,330) rotate(0)" > <text font-size="66.6666666667" fill="#088" font-family="monospace"  >
   PC2
  </text> </g> 
  <circle cx="1100" cy="300" r="10"
    style="fill:none;stroke:#800;stroke-width:2"  />
  <line x1="1100" y1="1150" x2="900" y2="1150" style="stroke:#800;stroke-width:10;stroke-opacity:1.000000;stroke-linecap:round"/>
  <g transform="translate(943,1144) rotate(0)" > <text font-size="66.6666666667" fill="#800" font-family="monospace"  >
   28
  </text> </g> 
  <g transform="translate(740,1180) rotate(0)" > <text font-size="66.6666666667" fill="#088" font-family="monospace"  >
   PD2
  </text> </g> 
  <circle cx="1100" cy="1150" r="10"
    style="fill:none;stroke:#800;stroke-width:2"  />
  <line x1="-1100" y1="1150" x2="-900" y2="1150" style="stroke:#800;stroke-width:10;stroke-opacity:1.000000;stroke-linecap:round"/>
  <g transform="translate(-1056,1144) rotate(0)" > <text font-size="66.6666666667" fill="#800" font-family="monospace"  >
   38
  </text> </g> 
  <g transform="translate(-882,1180) rotate(0)" > <text font-size="66.6666666667" fill="#088" font-family="monospace"  >
   PE2
  </text> </g> 
  <circle cx="-1100" cy="1150" r="10"
    style="fill:none;stroke:#800;stroke-width:2"  />
  <line x1="-1100" y1="300" x2="-900" y2="300" style="stroke:#800;stroke-width:10;stroke-opacity:1.000000;stroke-linecap:round"/>
  <g transform="translate(-1056,294) rotate(0)" > <text font-size="66.6666666667" fill="#800" font-family="monospace"  >
   48
  </text> </g> 
  <g transform="translate(-882,330) rotate(0)" > <text font-size="66.6666666667" fill="#088" font-family="monospace"  >
   PF2
  </text> </g> 
  <circle cx="-1100" cy="300" r="10"
    style="fill:none;stroke:#800;stroke-width:2"  />
  <line x1="-1100" y1="-250" x2="-900" y2="-250" style="stroke:#800;stroke-width:10;stroke-opacity:1.000000;stroke-linecap:round"/>
  <g transform="translate(-1056,-256) rotate(0)" > <text font-size="66.6666666667" fill="#800" font-family="monospace"  >
   58
  </text> </g> 
  <g transform="translate(-882,-220) rotate(0)" > <text font-size="66.6666666667" fill="#088" font-family="monospace"  >
   PR0
  </text> </g> 
  <circle cx="-1100" cy="-250" r="10"
    style="fill:none;stroke:#800;stroke-width:2"  />
  <line x1="1100" y1="400" x2="900" y2="400" style="stroke:#800;stroke-width:10;stroke-opacity:1.000000;stroke-linecap:round"/>
  <g transform="translate(943,394) rotate(0)" > <text font-size="66.6666666667" fill="#800" font-family="monospace"  >
   19
  </text> </g> 
  <g transform="translate(740,430) rotate(0)" > <text font-size="66.6666666667" fill="#088" font-family="monospace"  >
   PC3
  </text> </g> 
  <circle cx="1100" cy="400" r="10"
    style="fill:none;stroke:#800;stroke-width:2"  />
  <line x1="1100" y1="1250" x2="900" y2="1250" style="stroke:#800;stroke-width:10;stroke-opacity:1.000000;stroke-linecap:round"/>
  <g transform="translate(943,1244) rotate(0)" > <text font-size="66.6666666667" fill="#800" font-family="monospace"  >
   29
  </text> </g> 
  <g transform="translate(740,1280) rotate(0)" > <text font-size="66.6666666667" fill="#088" font-family="monospace"  >
   PD3
  </text> </g> 
  <circle cx="1100" cy="1250" r="10"
    style="fill:none;stroke:#800;stroke-width:2"  />
  <line x1="-1100" y1="1250" x2="-900" y2="1250" style="stroke:#800;stroke-width:10;stroke-opacity:1.000000;stroke-linecap:round"/>
  <g transform="translate(-1056,1244) rotate(0)" > <text font-size="66.6666666667" fill="#800" font-family="monospace"  >
   39
  </text> </g> 
  <g transform="translate(-882,1280) rotate(0)" > <text font-size="66.6666666667" fill="#088" font-family="monospace"  >
   PE3
  </text> </g> 
  <circle cx="-1100" cy="1250" r="10"
    style="fill:none;stroke:#800;stroke-width:2"  />
  <line x1="-1100" y1="400" x2="-900" y2="400" style="stroke:#800;stroke-width:10;stroke-opacity:1.000000;stroke-linecap:round"/>
  <g transform="translate(-1056,394) rotate(0)" > <text font-size="66.6666666667" fill="#800" font-family="monospace"  >
   49
  </text> </g> 
  <g transform="translate(-882,430) rotate(0)" > <text font-size="66.6666666667" fill="#088" font-family="monospace"  >
   PF3
  </text> </g> 
  <circle cx="-1100" cy="400" r="10"
    style="fill:none;stroke:#800;stroke-width:2"  />
  <line x1="-1100" y1="-150" x2="-900" y2="-150" style="stroke:#800;stroke-width:10;stroke-opacity:1.000000;stroke-linecap:round"/>
  <g transform="translate(-1056,-156) rotate(0)" > <text font-size="66.6666666667" fill="#800" font-family="monospace"  >
   59
  </text> </g> 
  <g transform="translate(-882,-120) rotate(0)" > <text font-size="66.6666666667" fill="#088" font-family="monospace"  >
   PR1
  </text> </g> 
  <circle cx="-1100" cy="-150" r="10"
    style="fill:none;stroke:#800;stroke-width:2"  />
 </g>
</svg>
