<?xml version="1.0"?>
<svg height="565" width="565"  >
 <g style="fill-opacity:1.0; stroke:black;
  stroke-width:1;" transform=" translate( 282.5,282.5 ) scale( 0.15,0.15 )">
  <g transform="translate(-880,-1020) rotate(0)" > <text font-size="100.0" fill="#088" font-family="monospace"  >
   U
  </text> </g> 
  <g transform="translate(-180,30) rotate(0)" > <text font-size="100.0" fill="#088" font-family="monospace"  >
   AD9951
  </text> </g> 
  <rect x="-900" y="-950" height="1900"
    width="1800" style="fill:none;stroke:#800;stroke-width:10" />
  <line x1="-1050" y1="-500" x2="-900" y2="-500" style="stroke:#800;stroke-width:10;stroke-opacity:1.000000;stroke-linecap:round"/>
  <g transform="translate(-1003,-506) rotate(0)" > <text font-size="66.6666666667" fill="#800" font-family="monospace"  >
   1
  </text> </g> 
  <g transform="translate(-882,-470) rotate(0)" > <text font-size="66.6666666667" fill="#088" font-family="monospace"  >
   I/OUPDATE
  </text> </g> 
  <circle cx="-1050" cy="-500" r="10"
    style="fill:none;stroke:#800;stroke-width:2"  />
  <line x1="-300" y1="-1100" x2="-300" y2="-950" style="stroke:#800;stroke-width:10;stroke-opacity:1.000000;stroke-linecap:round"/>
  <g transform="translate(-310,-1015) rotate(-90)" > <text font-size="66.6666666667" fill="#800" font-family="monospace"  >
   2
  </text> </g> 
  <g transform="translate(-295,-756) rotate(-90)" > <text font-size="66.6666666667" fill="#088" font-family="monospace"  >
   DVDD
  </text> </g> 
  <circle cx="-300" cy="-1100" r="10"
    style="fill:none;stroke:#800;stroke-width:2"  />
  <line x1="-800" y1="1100" x2="-800" y2="950" style="stroke:#800;stroke-width:10;stroke-opacity:1.000000;stroke-linecap:round"/>
  <g transform="translate(-810,1035) rotate(-90)" > <text font-size="66.6666666667" fill="#800" font-family="monospace"  >
   3
  </text> </g> 
  <g transform="translate(-795,916) rotate(-90)" > <text font-size="66.6666666667" fill="#088" font-family="monospace"  >
   DGND
  </text> </g> 
  <circle cx="-800" cy="1100" r="10"
    style="fill:none;stroke:#800;stroke-width:2"  />
  <line x1="0" y1="-1100" x2="0" y2="-950" style="stroke:#800;stroke-width:10;stroke-opacity:1.000000;stroke-linecap:round"/>
  <g transform="translate(-10,-1015) rotate(-90)" > <text font-size="66.6666666667" fill="#800" font-family="monospace"  >
   4
  </text> </g> 
  <g transform="translate(5,-756) rotate(-90)" > <text font-size="66.6666666667" fill="#088" font-family="monospace"  >
   AVDD
  </text> </g> 
  <circle cx="0" cy="-1100" r="10"
    style="fill:none;stroke:#800;stroke-width:2"  />
  <line x1="-200" y1="1100" x2="-200" y2="950" style="stroke:#800;stroke-width:10;stroke-opacity:1.000000;stroke-linecap:round"/>
  <g transform="translate(-210,1035) rotate(-90)" > <text font-size="66.6666666667" fill="#800" font-family="monospace"  >
   5
  </text> </g> 
  <g transform="translate(-195,916) rotate(-90)" > <text font-size="66.6666666667" fill="#088" font-family="monospace"  >
   AGND
  </text> </g> 
  <circle cx="-200" cy="1100" r="10"
    style="fill:none;stroke:#800;stroke-width:2"  />
  <line x1="100" y1="-1100" x2="100" y2="-950" style="stroke:#800;stroke-width:10;stroke-opacity:1.000000;stroke-linecap:round"/>
  <g transform="translate(90,-1015) rotate(-90)" > <text font-size="66.6666666667" fill="#800" font-family="monospace"  >
   6
  </text> </g> 
  <g transform="translate(105,-756) rotate(-90)" > <text font-size="66.6666666667" fill="#088" font-family="monospace"  >
   AVDD
  </text> </g> 
  <circle cx="100" cy="-1100" r="10"
    style="fill:none;stroke:#800;stroke-width:2"  />
  <line x1="-100" y1="1100" x2="-100" y2="950" style="stroke:#800;stroke-width:10;stroke-opacity:1.000000;stroke-linecap:round"/>
  <g transform="translate(-110,1035) rotate(-90)" > <text font-size="66.6666666667" fill="#800" font-family="monospace"  >
   7
  </text> </g> 
  <g transform="translate(-95,916) rotate(-90)" > <text font-size="66.6666666667" fill="#088" font-family="monospace"  >
   AGND
  </text> </g> 
  <circle cx="-100" cy="1100" r="10"
    style="fill:none;stroke:#800;stroke-width:2"  />
  <line x1="-1050" y1="-150" x2="-900" y2="-150" style="stroke:#800;stroke-width:10;stroke-opacity:1.000000;stroke-linecap:round"/>
  <g transform="translate(-1003,-156) rotate(0)" > <text font-size="66.6666666667" fill="#800" font-family="monospace"  >
   8
  </text> </g> 
  <g transform="translate(-882,-120) rotate(0)" > <text font-size="66.6666666667" fill="#088" font-family="monospace"  >
   ~OSC/REFCLK
  </text> </g> 
  <circle cx="-1050" cy="-150" r="10"
    style="fill:none;stroke:#800;stroke-width:2"  />
  <line x1="-1050" y1="-250" x2="-900" y2="-250" style="stroke:#800;stroke-width:10;stroke-opacity:1.000000;stroke-linecap:round"/>
  <g transform="translate(-1003,-256) rotate(0)" > <text font-size="66.6666666667" fill="#800" font-family="monospace"  >
   9
  </text> </g> 
  <g transform="translate(-882,-220) rotate(0)" > <text font-size="66.6666666667" fill="#088" font-family="monospace"  >
   OSC/REFCLK
  </text> </g> 
  <circle cx="-1050" cy="-250" r="10"
    style="fill:none;stroke:#800;stroke-width:2"  />
  <line x1="-1050" y1="50" x2="-900" y2="50" style="stroke:#800;stroke-width:10;stroke-opacity:1.000000;stroke-linecap:round"/>
  <g transform="translate(-1031,44) rotate(0)" > <text font-size="66.6666666667" fill="#800" font-family="monospace"  >
   10
  </text> </g> 
  <g transform="translate(-882,80) rotate(0)" > <text font-size="66.6666666667" fill="#088" font-family="monospace"  >
   CRYSTALOUT
  </text> </g> 
  <circle cx="-1050" cy="50" r="10"
    style="fill:none;stroke:#800;stroke-width:2"  />
  <line x1="1050" y1="-150" x2="900" y2="-150" style="stroke:#800;stroke-width:10;stroke-opacity:1.000000;stroke-linecap:round"/>
  <g transform="translate(918,-156) rotate(0)" > <text font-size="66.6666666667" fill="#800" font-family="monospace"  >
   20
  </text> </g> 
  <g transform="translate(660,-120) rotate(0)" > <text font-size="66.6666666667" fill="#088" font-family="monospace"  >
   ~IOUT
  </text> </g> 
  <circle cx="1050" cy="-150" r="10"
    style="fill:none;stroke:#800;stroke-width:2"  />
  <line x1="600" y1="1100" x2="600" y2="950" style="stroke:#800;stroke-width:10;stroke-opacity:1.000000;stroke-linecap:round"/>
  <g transform="translate(590,1045) rotate(-90)" > <text font-size="66.6666666667" fill="#800" font-family="monospace"  >
   30
  </text> </g> 
  <g transform="translate(605,916) rotate(-90)" > <text font-size="66.6666666667" fill="#088" font-family="monospace"  >
   AGND
  </text> </g> 
  <circle cx="600" cy="1100" r="10"
    style="fill:none;stroke:#800;stroke-width:2"  />
  <line x1="-1050" y1="400" x2="-900" y2="400" style="stroke:#800;stroke-width:10;stroke-opacity:1.000000;stroke-linecap:round"/>
  <g transform="translate(-1031,394) rotate(0)" > <text font-size="66.6666666667" fill="#800" font-family="monospace"  >
   40
  </text> </g> 
  <g transform="translate(-882,430) rotate(0)" > <text font-size="66.6666666667" fill="#088" font-family="monospace"  >
   SCLK
  </text> </g> 
  <circle cx="-1050" cy="400" r="10"
    style="fill:none;stroke:#800;stroke-width:2"  />
  <line x1="-1050" y1="-50" x2="-900" y2="-50" style="stroke:#800;stroke-width:10;stroke-opacity:1.000000;stroke-linecap:round"/>
  <g transform="translate(-1031,-56) rotate(0)" > <text font-size="66.6666666667" fill="#800" font-family="monospace"  >
   11
  </text> </g> 
  <g transform="translate(-882,-20) rotate(0)" > <text font-size="66.6666666667" fill="#088" font-family="monospace"  >
   CLKMODESELECT
  </text> </g> 
  <circle cx="-1050" cy="-50" r="10"
    style="fill:none;stroke:#800;stroke-width:2"  />
  <line x1="1050" y1="-400" x2="900" y2="-400" style="stroke:#800;stroke-width:10;stroke-opacity:1.000000;stroke-linecap:round"/>
  <g transform="translate(918,-406) rotate(0)" > <text font-size="66.6666666667" fill="#800" font-family="monospace"  >
   21
  </text> </g> 
  <g transform="translate(700,-370) rotate(0)" > <text font-size="66.6666666667" fill="#088" font-family="monospace"  >
   IOUT
  </text> </g> 
  <circle cx="1050" cy="-400" r="10"
    style="fill:none;stroke:#800;stroke-width:2"  />
  <line x1="700" y1="1100" x2="700" y2="950" style="stroke:#800;stroke-width:10;stroke-opacity:1.000000;stroke-linecap:round"/>
  <g transform="translate(690,1045) rotate(-90)" > <text font-size="66.6666666667" fill="#800" font-family="monospace"  >
   31
  </text> </g> 
  <g transform="translate(705,916) rotate(-90)" > <text font-size="66.6666666667" fill="#088" font-family="monospace"  >
   AGND
  </text> </g> 
  <circle cx="700" cy="1100" r="10"
    style="fill:none;stroke:#800;stroke-width:2"  />
  <line x1="-1050" y1="300" x2="-900" y2="300" style="stroke:#800;stroke-width:10;stroke-opacity:1.000000;stroke-linecap:round"/>
  <g transform="translate(-1031,294) rotate(0)" > <text font-size="66.6666666667" fill="#800" font-family="monospace"  >
   41
  </text> </g> 
  <g transform="translate(-882,330) rotate(0)" > <text font-size="66.6666666667" fill="#088" font-family="monospace"  >
   SDIO
  </text> </g> 
  <circle cx="-1050" cy="300" r="10"
    style="fill:none;stroke:#800;stroke-width:2"  />
  <line x1="1050" y1="100" x2="900" y2="100" style="stroke:#800;stroke-width:10;stroke-opacity:1.000000;stroke-linecap:round"/>
  <g transform="translate(918,94) rotate(0)" > <text font-size="66.6666666667" fill="#800" font-family="monospace"  >
   12
  </text> </g> 
  <g transform="translate(460,130) rotate(0)" > <text font-size="66.6666666667" fill="#088" font-family="monospace"  >
   LOOPFILTER
  </text> </g> 
  <circle cx="1050" cy="100" r="10"
    style="fill:none;stroke:#800;stroke-width:2"  />
  <line x1="300" y1="1100" x2="300" y2="950" style="stroke:#800;stroke-width:10;stroke-opacity:1.000000;stroke-linecap:round"/>
  <g transform="translate(290,1045) rotate(-90)" > <text font-size="66.6666666667" fill="#800" font-family="monospace"  >
   22
  </text> </g> 
  <g transform="translate(305,916) rotate(-90)" > <text font-size="66.6666666667" fill="#088" font-family="monospace"  >
   AGND
  </text> </g> 
  <circle cx="300" cy="1100" r="10"
    style="fill:none;stroke:#800;stroke-width:2"  />
  <line x1="800" y1="1100" x2="800" y2="950" style="stroke:#800;stroke-width:10;stroke-opacity:1.000000;stroke-linecap:round"/>
  <g transform="translate(790,1045) rotate(-90)" > <text font-size="66.6666666667" fill="#800" font-family="monospace"  >
   32
  </text> </g> 
  <g transform="translate(805,916) rotate(-90)" > <text font-size="66.6666666667" fill="#088" font-family="monospace"  >
   AGND
  </text> </g> 
  <circle cx="800" cy="1100" r="10"
    style="fill:none;stroke:#800;stroke-width:2"  />
  <line x1="-600" y1="1100" x2="-600" y2="950" style="stroke:#800;stroke-width:10;stroke-opacity:1.000000;stroke-linecap:round"/>
  <g transform="translate(-610,1045) rotate(-90)" > <text font-size="66.6666666667" fill="#800" font-family="monospace"  >
   42
  </text> </g> 
  <g transform="translate(-595,916) rotate(-90)" > <text font-size="66.6666666667" fill="#088" font-family="monospace"  >
   DGND
  </text> </g> 
  <circle cx="-600" cy="1100" r="10"
    style="fill:none;stroke:#800;stroke-width:2"  />
  <line x1="200" y1="-1100" x2="200" y2="-950" style="stroke:#800;stroke-width:10;stroke-opacity:1.000000;stroke-linecap:round"/>
  <g transform="translate(190,-1005) rotate(-90)" > <text font-size="66.6666666667" fill="#800" font-family="monospace"  >
   13
  </text> </g> 
  <g transform="translate(205,-756) rotate(-90)" > <text font-size="66.6666666667" fill="#088" font-family="monospace"  >
   AVDD
  </text> </g> 
  <circle cx="200" cy="-1100" r="10"
    style="fill:none;stroke:#800;stroke-width:2"  />
  <line x1="1050" y1="200" x2="900" y2="200" style="stroke:#800;stroke-width:10;stroke-opacity:1.000000;stroke-linecap:round"/>
  <g transform="translate(918,194) rotate(0)" > <text font-size="66.6666666667" fill="#800" font-family="monospace"  >
   23
  </text> </g> 
  <g transform="translate(660,230) rotate(0)" > <text font-size="66.6666666667" fill="#088" font-family="monospace"  >
   DACBP
  </text> </g> 
  <circle cx="1050" cy="200" r="10"
    style="fill:none;stroke:#800;stroke-width:2"  />
  <line x1="-700" y1="1100" x2="-700" y2="950" style="stroke:#800;stroke-width:10;stroke-opacity:1.000000;stroke-linecap:round"/>
  <g transform="translate(-710,1045) rotate(-90)" > <text font-size="66.6666666667" fill="#800" font-family="monospace"  >
   33
  </text> </g> 
  <g transform="translate(-695,916) rotate(-90)" > <text font-size="66.6666666667" fill="#088" font-family="monospace"  >
   DGND
  </text> </g> 
  <circle cx="-700" cy="1100" r="10"
    style="fill:none;stroke:#800;stroke-width:2"  />
  <line x1="-500" y1="-1100" x2="-500" y2="-950" style="stroke:#800;stroke-width:10;stroke-opacity:1.000000;stroke-linecap:round"/>
  <g transform="translate(-510,-1005) rotate(-90)" > <text font-size="66.6666666667" fill="#800" font-family="monospace"  >
   43
  </text> </g> 
  <g transform="translate(-495,-596) rotate(-90)" > <text font-size="66.6666666667" fill="#088" font-family="monospace"  >
   DVDD_I/O
  </text> </g> 
  <circle cx="-500" cy="-1100" r="10"
    style="fill:none;stroke:#800;stroke-width:2"  />
  <line x1="0" y1="1100" x2="0" y2="950" style="stroke:#800;stroke-width:10;stroke-opacity:1.000000;stroke-linecap:round"/>
  <g transform="translate(-10,1045) rotate(-90)" > <text font-size="66.6666666667" fill="#800" font-family="monospace"  >
   14
  </text> </g> 
  <g transform="translate(5,916) rotate(-90)" > <text font-size="66.6666666667" fill="#088" font-family="monospace"  >
   AGND
  </text> </g> 
  <circle cx="0" cy="1100" r="10"
    style="fill:none;stroke:#800;stroke-width:2"  />
  <line x1="1050" y1="-550" x2="900" y2="-550" style="stroke:#800;stroke-width:10;stroke-opacity:1.000000;stroke-linecap:round"/>
  <g transform="translate(918,-556) rotate(0)" > <text font-size="66.6666666667" fill="#800" font-family="monospace"  >
   24
  </text> </g> 
  <g transform="translate(540,-520) rotate(0)" > <text font-size="66.6666666667" fill="#088" font-family="monospace"  >
   DAC_RSET
  </text> </g> 
  <circle cx="1050" cy="-550" r="10"
    style="fill:none;stroke:#800;stroke-width:2"  />
  <line x1="-200" y1="-1100" x2="-200" y2="-950" style="stroke:#800;stroke-width:10;stroke-opacity:1.000000;stroke-linecap:round"/>
  <g transform="translate(-210,-1005) rotate(-90)" > <text font-size="66.6666666667" fill="#800" font-family="monospace"  >
   34
  </text> </g> 
  <g transform="translate(-195,-756) rotate(-90)" > <text font-size="66.6666666667" fill="#088" font-family="monospace"  >
   DVDD
  </text> </g> 
  <circle cx="-200" cy="-1100" r="10"
    style="fill:none;stroke:#800;stroke-width:2"  />
  <line x1="1050" y1="400" x2="900" y2="400" style="stroke:#800;stroke-width:10;stroke-opacity:1.000000;stroke-linecap:round"/>
  <g transform="translate(918,394) rotate(0)" > <text font-size="66.6666666667" fill="#800" font-family="monospace"  >
   44
  </text> </g> 
  <g transform="translate(620,430) rotate(0)" > <text font-size="66.6666666667" fill="#088" font-family="monospace"  >
   SYNCIN
  </text> </g> 
  <circle cx="1050" cy="400" r="10"
    style="fill:none;stroke:#800;stroke-width:2"  />
  <line x1="100" y1="1100" x2="100" y2="950" style="stroke:#800;stroke-width:10;stroke-opacity:1.000000;stroke-linecap:round"/>
  <g transform="translate(90,1045) rotate(-90)" > <text font-size="66.6666666667" fill="#800" font-family="monospace"  >
   15
  </text> </g> 
  <g transform="translate(105,916) rotate(-90)" > <text font-size="66.6666666667" fill="#088" font-family="monospace"  >
   AGND
  </text> </g> 
  <circle cx="100" cy="1100" r="10"
    style="fill:none;stroke:#800;stroke-width:2"  />
  <line x1="600" y1="-1100" x2="600" y2="-950" style="stroke:#800;stroke-width:10;stroke-opacity:1.000000;stroke-linecap:round"/>
  <g transform="translate(590,-1005) rotate(-90)" > <text font-size="66.6666666667" fill="#800" font-family="monospace"  >
   25
  </text> </g> 
  <g transform="translate(605,-756) rotate(-90)" > <text font-size="66.6666666667" fill="#088" font-family="monospace"  >
   AVDD
  </text> </g> 
  <circle cx="600" cy="-1100" r="10"
    style="fill:none;stroke:#800;stroke-width:2"  />
  <line x1="1050" y1="600" x2="900" y2="600" style="stroke:#800;stroke-width:10;stroke-opacity:1.000000;stroke-linecap:round"/>
  <g transform="translate(918,594) rotate(0)" > <text font-size="66.6666666667" fill="#800" font-family="monospace"  >
   35
  </text> </g> 
  <g transform="translate(500,630) rotate(0)" > <text font-size="66.6666666667" fill="#088" font-family="monospace"  >
   PWRDWNCTL
  </text> </g> 
  <circle cx="1050" cy="600" r="10"
    style="fill:none;stroke:#800;stroke-width:2"  />
  <line x1="-1050" y1="-400" x2="-900" y2="-400" style="stroke:#800;stroke-width:10;stroke-opacity:1.000000;stroke-linecap:round"/>
  <g transform="translate(-1031,-406) rotate(0)" > <text font-size="66.6666666667" fill="#800" font-family="monospace"  >
   45
  </text> </g> 
  <g transform="translate(-882,-370) rotate(0)" > <text font-size="66.6666666667" fill="#088" font-family="monospace"  >
   SYNC_CLK
  </text> </g> 
  <circle cx="-1050" cy="-400" r="10"
    style="fill:none;stroke:#800;stroke-width:2"  />
  <line x1="300" y1="-1100" x2="300" y2="-950" style="stroke:#800;stroke-width:10;stroke-opacity:1.000000;stroke-linecap:round"/>
  <g transform="translate(290,-1005) rotate(-90)" > <text font-size="66.6666666667" fill="#800" font-family="monospace"  >
   16
  </text> </g> 
  <g transform="translate(305,-756) rotate(-90)" > <text font-size="66.6666666667" fill="#088" font-family="monospace"  >
   AVDD
  </text> </g> 
  <circle cx="300" cy="-1100" r="10"
    style="fill:none;stroke:#800;stroke-width:2"  />
  <line x1="400" y1="1100" x2="400" y2="950" style="stroke:#800;stroke-width:10;stroke-opacity:1.000000;stroke-linecap:round"/>
  <g transform="translate(390,1045) rotate(-90)" > <text font-size="66.6666666667" fill="#800" font-family="monospace"  >
   26
  </text> </g> 
  <g transform="translate(405,916) rotate(-90)" > <text font-size="66.6666666667" fill="#088" font-family="monospace"  >
   AGND
  </text> </g> 
  <circle cx="400" cy="1100" r="10"
    style="fill:none;stroke:#800;stroke-width:2"  />
  <line x1="-1050" y1="-650" x2="-900" y2="-650" style="stroke:#800;stroke-width:10;stroke-opacity:1.000000;stroke-linecap:round"/>
  <g transform="translate(-1031,-656) rotate(0)" > <text font-size="66.6666666667" fill="#800" font-family="monospace"  >
   36
  </text> </g> 
  <g transform="translate(-882,-620) rotate(0)" > <text font-size="66.6666666667" fill="#088" font-family="monospace"  >
   RESET
  </text> </g> 
  <circle cx="-1050" cy="-650" r="10"
    style="fill:none;stroke:#800;stroke-width:2"  />
  <line x1="1050" y1="500" x2="900" y2="500" style="stroke:#800;stroke-width:10;stroke-opacity:1.000000;stroke-linecap:round"/>
  <g transform="translate(918,494) rotate(0)" > <text font-size="66.6666666667" fill="#800" font-family="monospace"  >
   46
  </text> </g> 
  <g transform="translate(740,530) rotate(0)" > <text font-size="66.6666666667" fill="#088" font-family="monospace"  >
   OSK
  </text> </g> 
  <circle cx="1050" cy="500" r="10"
    style="fill:none;stroke:#800;stroke-width:2"  />
  <line x1="200" y1="1100" x2="200" y2="950" style="stroke:#800;stroke-width:10;stroke-opacity:1.000000;stroke-linecap:round"/>
  <g transform="translate(190,1045) rotate(-90)" > <text font-size="66.6666666667" fill="#800" font-family="monospace"  >
   17
  </text> </g> 
  <g transform="translate(205,916) rotate(-90)" > <text font-size="66.6666666667" fill="#088" font-family="monospace"  >
   AGND
  </text> </g> 
  <circle cx="200" cy="1100" r="10"
    style="fill:none;stroke:#800;stroke-width:2"  />
  <line x1="700" y1="-1100" x2="700" y2="-950" style="stroke:#800;stroke-width:10;stroke-opacity:1.000000;stroke-linecap:round"/>
  <g transform="translate(690,-1005) rotate(-90)" > <text font-size="66.6666666667" fill="#800" font-family="monospace"  >
   27
  </text> </g> 
  <g transform="translate(705,-756) rotate(-90)" > <text font-size="66.6666666667" fill="#088" font-family="monospace"  >
   AVDD
  </text> </g> 
  <circle cx="700" cy="-1100" r="10"
    style="fill:none;stroke:#800;stroke-width:2"  />
  <line x1="-1050" y1="600" x2="-900" y2="600" style="stroke:#800;stroke-width:10;stroke-opacity:1.000000;stroke-linecap:round"/>
  <g transform="translate(-1031,594) rotate(0)" > <text font-size="66.6666666667" fill="#800" font-family="monospace"  >
   37
  </text> </g> 
  <g transform="translate(-882,630) rotate(0)" > <text font-size="66.6666666667" fill="#088" font-family="monospace"  >
   IOSYNC
  </text> </g> 
  <circle cx="-1050" cy="600" r="10"
    style="fill:none;stroke:#800;stroke-width:2"  />
  <line x1="-500" y1="1100" x2="-500" y2="950" style="stroke:#800;stroke-width:10;stroke-opacity:1.000000;stroke-linecap:round"/>
  <g transform="translate(-510,1045) rotate(-90)" > <text font-size="66.6666666667" fill="#800" font-family="monospace"  >
   47
  </text> </g> 
  <g transform="translate(-495,916) rotate(-90)" > <text font-size="66.6666666667" fill="#088" font-family="monospace"  >
   DGND
  </text> </g> 
  <circle cx="-500" cy="1100" r="10"
    style="fill:none;stroke:#800;stroke-width:2"  />
  <line x1="400" y1="-1100" x2="400" y2="-950" style="stroke:#800;stroke-width:10;stroke-opacity:1.000000;stroke-linecap:round"/>
  <g transform="translate(390,-1005) rotate(-90)" > <text font-size="66.6666666667" fill="#800" font-family="monospace"  >
   18
  </text> </g> 
  <g transform="translate(405,-756) rotate(-90)" > <text font-size="66.6666666667" fill="#088" font-family="monospace"  >
   AVDD
  </text> </g> 
  <circle cx="400" cy="-1100" r="10"
    style="fill:none;stroke:#800;stroke-width:2"  />
  <line x1="500" y1="1100" x2="500" y2="950" style="stroke:#800;stroke-width:10;stroke-opacity:1.000000;stroke-linecap:round"/>
  <g transform="translate(490,1045) rotate(-90)" > <text font-size="66.6666666667" fill="#800" font-family="monospace"  >
   28
  </text> </g> 
  <g transform="translate(505,916) rotate(-90)" > <text font-size="66.6666666667" fill="#088" font-family="monospace"  >
   AGND
  </text> </g> 
  <circle cx="500" cy="1100" r="10"
    style="fill:none;stroke:#800;stroke-width:2"  />
  <line x1="-1050" y1="200" x2="-900" y2="200" style="stroke:#800;stroke-width:10;stroke-opacity:1.000000;stroke-linecap:round"/>
  <g transform="translate(-1031,194) rotate(0)" > <text font-size="66.6666666667" fill="#800" font-family="monospace"  >
   38
  </text> </g> 
  <g transform="translate(-882,230) rotate(0)" > <text font-size="66.6666666667" fill="#088" font-family="monospace"  >
   SDO
  </text> </g> 
  <circle cx="-1050" cy="200" r="10"
    style="fill:none;stroke:#800;stroke-width:2"  />
  <line x1="-400" y1="1100" x2="-400" y2="950" style="stroke:#800;stroke-width:10;stroke-opacity:1.000000;stroke-linecap:round"/>
  <g transform="translate(-410,1045) rotate(-90)" > <text font-size="66.6666666667" fill="#800" font-family="monospace"  >
   48
  </text> </g> 
  <g transform="translate(-395,916) rotate(-90)" > <text font-size="66.6666666667" fill="#088" font-family="monospace"  >
   DGND
  </text> </g> 
  <circle cx="-400" cy="1100" r="10"
    style="fill:none;stroke:#800;stroke-width:2"  />
  <line x1="500" y1="-1100" x2="500" y2="-950" style="stroke:#800;stroke-width:10;stroke-opacity:1.000000;stroke-linecap:round"/>
  <g transform="translate(490,-1005) rotate(-90)" > <text font-size="66.6666666667" fill="#800" font-family="monospace"  >
   19
  </text> </g> 
  <g transform="translate(505,-756) rotate(-90)" > <text font-size="66.6666666667" fill="#088" font-family="monospace"  >
   AVDD
  </text> </g> 
  <circle cx="500" cy="-1100" r="10"
    style="fill:none;stroke:#800;stroke-width:2"  />
  <line x1="800" y1="-1100" x2="800" y2="-950" style="stroke:#800;stroke-width:10;stroke-opacity:1.000000;stroke-linecap:round"/>
  <g transform="translate(790,-1005) rotate(-90)" > <text font-size="66.6666666667" fill="#800" font-family="monospace"  >
   29
  </text> </g> 
  <g transform="translate(805,-756) rotate(-90)" > <text font-size="66.6666666667" fill="#088" font-family="monospace"  >
   AVDD
  </text> </g> 
  <circle cx="800" cy="-1100" r="10"
    style="fill:none;stroke:#800;stroke-width:2"  />
  <line x1="-1050" y1="500" x2="-900" y2="500" style="stroke:#800;stroke-width:10;stroke-opacity:1.000000;stroke-linecap:round"/>
  <g transform="translate(-1031,494) rotate(0)" > <text font-size="66.6666666667" fill="#800" font-family="monospace"  >
   39
  </text> </g> 
  <g transform="translate(-882,530) rotate(0)" > <text font-size="66.6666666667" fill="#088" font-family="monospace"  >
   ~CS
  </text> </g> 
  <circle cx="-1050" cy="500" r="10"
    style="fill:none;stroke:#800;stroke-width:2"  />
 </g>
</svg>
