<?xml version="1.0"?>
<svg height="475" width="399"  >
 <g style="fill-opacity:1.0; stroke:black;
  stroke-width:1;" transform=" translate( 199.75,237.625 ) scale( 0.15,0.15 )">
  <g transform="translate(-335,-1015) rotate(0)" > <text font-size="116.666666667" fill="#088" font-family="monospace"  >
   U
  </text> </g> 
  <g transform="translate(-210,1085) rotate(0)" > <text font-size="116.666666667" fill="#088" font-family="monospace"  >
   27C512
  </text> </g> 
  <g transform="translate(-15,980) rotate(-90)" > <text font-size="100.0" fill="#888" font-family="monospace"  >
   14
  </text> </g> 
  <g transform="translate(7,900) rotate(-90)" > <text font-size="100.0" fill="#888" font-family="monospace"  >
   GND
  </text> </g> 
  <circle cx="0" cy="950" r="10"
    style="fill:none;stroke:#888;stroke-width:2"  />
  <g transform="translate(-15,-920) rotate(-90)" > <text font-size="100.0" fill="#888" font-family="monospace"  >
   28
  </text> </g> 
  <g transform="translate(7,-720) rotate(-90)" > <text font-size="100.0" fill="#888" font-family="monospace"  >
   VCC
  </text> </g> 
  <circle cx="0" cy="-950" r="10"
    style="fill:none;stroke:#888;stroke-width:2"  />
  <rect x="-400" y="-950" height="1900"
    width="800" style="fill:none;stroke:#800;stroke-width:10" />
  <line x1="-700" y1="600" x2="-400" y2="600" style="stroke:#800;stroke-width:10;stroke-opacity:1.000000;stroke-linecap:round"/>
  <g transform="translate(-592,594) rotate(0)" > <text font-size="100.0" fill="#800" font-family="monospace"  >
   1
  </text> </g> 
  <g transform="translate(-382,640) rotate(0)" > <text font-size="100.0" fill="#088" font-family="monospace"  >
   A15
  </text> </g> 
  <circle cx="-700" cy="600" r="10"
    style="fill:none;stroke:#800;stroke-width:2"  />
  <line x1="-700" y1="300" x2="-400" y2="300" style="stroke:#800;stroke-width:10;stroke-opacity:1.000000;stroke-linecap:round"/>
  <g transform="translate(-592,294) rotate(0)" > <text font-size="100.0" fill="#800" font-family="monospace"  >
   2
  </text> </g> 
  <g transform="translate(-382,340) rotate(0)" > <text font-size="100.0" fill="#088" font-family="monospace"  >
   A12
  </text> </g> 
  <circle cx="-700" cy="300" r="10"
    style="fill:none;stroke:#800;stroke-width:2"  />
  <line x1="-700" y1="-200" x2="-400" y2="-200" style="stroke:#800;stroke-width:10;stroke-opacity:1.000000;stroke-linecap:round"/>
  <g transform="translate(-592,-206) rotate(0)" > <text font-size="100.0" fill="#800" font-family="monospace"  >
   3
  </text> </g> 
  <g transform="translate(-382,-160) rotate(0)" > <text font-size="100.0" fill="#088" font-family="monospace"  >
   A7
  </text> </g> 
  <circle cx="-700" cy="-200" r="10"
    style="fill:none;stroke:#800;stroke-width:2"  />
  <line x1="-700" y1="-300" x2="-400" y2="-300" style="stroke:#800;stroke-width:10;stroke-opacity:1.000000;stroke-linecap:round"/>
  <g transform="translate(-592,-306) rotate(0)" > <text font-size="100.0" fill="#800" font-family="monospace"  >
   4
  </text> </g> 
  <g transform="translate(-382,-260) rotate(0)" > <text font-size="100.0" fill="#088" font-family="monospace"  >
   A6
  </text> </g> 
  <circle cx="-700" cy="-300" r="10"
    style="fill:none;stroke:#800;stroke-width:2"  />
  <line x1="-700" y1="-400" x2="-400" y2="-400" style="stroke:#800;stroke-width:10;stroke-opacity:1.000000;stroke-linecap:round"/>
  <g transform="translate(-592,-406) rotate(0)" > <text font-size="100.0" fill="#800" font-family="monospace"  >
   5
  </text> </g> 
  <g transform="translate(-382,-360) rotate(0)" > <text font-size="100.0" fill="#088" font-family="monospace"  >
   A5
  </text> </g> 
  <circle cx="-700" cy="-400" r="10"
    style="fill:none;stroke:#800;stroke-width:2"  />
  <line x1="-700" y1="-500" x2="-400" y2="-500" style="stroke:#800;stroke-width:10;stroke-opacity:1.000000;stroke-linecap:round"/>
  <g transform="translate(-592,-506) rotate(0)" > <text font-size="100.0" fill="#800" font-family="monospace"  >
   6
  </text> </g> 
  <g transform="translate(-382,-460) rotate(0)" > <text font-size="100.0" fill="#088" font-family="monospace"  >
   A4
  </text> </g> 
  <circle cx="-700" cy="-500" r="10"
    style="fill:none;stroke:#800;stroke-width:2"  />
  <line x1="-700" y1="-600" x2="-400" y2="-600" style="stroke:#800;stroke-width:10;stroke-opacity:1.000000;stroke-linecap:round"/>
  <g transform="translate(-592,-606) rotate(0)" > <text font-size="100.0" fill="#800" font-family="monospace"  >
   7
  </text> </g> 
  <g transform="translate(-382,-560) rotate(0)" > <text font-size="100.0" fill="#088" font-family="monospace"  >
   A3
  </text> </g> 
  <circle cx="-700" cy="-600" r="10"
    style="fill:none;stroke:#800;stroke-width:2"  />
  <line x1="-700" y1="-700" x2="-400" y2="-700" style="stroke:#800;stroke-width:10;stroke-opacity:1.000000;stroke-linecap:round"/>
  <g transform="translate(-592,-706) rotate(0)" > <text font-size="100.0" fill="#800" font-family="monospace"  >
   8
  </text> </g> 
  <g transform="translate(-382,-660) rotate(0)" > <text font-size="100.0" fill="#088" font-family="monospace"  >
   A2
  </text> </g> 
  <circle cx="-700" cy="-700" r="10"
    style="fill:none;stroke:#800;stroke-width:2"  />
  <line x1="-700" y1="-800" x2="-400" y2="-800" style="stroke:#800;stroke-width:10;stroke-opacity:1.000000;stroke-linecap:round"/>
  <g transform="translate(-592,-806) rotate(0)" > <text font-size="100.0" fill="#800" font-family="monospace"  >
   9
  </text> </g> 
  <g transform="translate(-382,-760) rotate(0)" > <text font-size="100.0" fill="#088" font-family="monospace"  >
   A1
  </text> </g> 
  <circle cx="-700" cy="-800" r="10"
    style="fill:none;stroke:#800;stroke-width:2"  />
  <line x1="-700" y1="-900" x2="-400" y2="-900" style="stroke:#800;stroke-width:10;stroke-opacity:1.000000;stroke-linecap:round"/>
  <g transform="translate(-635,-906) rotate(0)" > <text font-size="100.0" fill="#800" font-family="monospace"  >
   10
  </text> </g> 
  <g transform="translate(-382,-860) rotate(0)" > <text font-size="100.0" fill="#088" font-family="monospace"  >
   A0
  </text> </g> 
  <circle cx="-700" cy="-900" r="10"
    style="fill:none;stroke:#800;stroke-width:2"  />
  <line x1="-700" y1="800" x2="-470" y2="800" style="stroke:#800;stroke-width:10;stroke-opacity:1.000000;stroke-linecap:round"/>
  <circle cx="-435" cy="800" r="35"
    style="fill:none;stroke:#800;stroke-width:10"  />
  <g transform="translate(-635,794) rotate(0)" > <text font-size="100.0" fill="#800" font-family="monospace"  >
   20
  </text> </g> 
  <g transform="translate(-382,840) rotate(0)" > <text font-size="100.0" fill="#088" font-family="monospace"  >
   CE
  </text> </g> 
  <circle cx="-700" cy="800" r="10"
    style="fill:none;stroke:#800;stroke-width:2"  />
  <line x1="700" y1="-900" x2="400" y2="-900" style="stroke:#800;stroke-width:10;stroke-opacity:1.000000;stroke-linecap:round"/>
  <g transform="translate(465,-906) rotate(0)" > <text font-size="100.0" fill="#800" font-family="monospace"  >
   11
  </text> </g> 
  <g transform="translate(240,-860) rotate(0)" > <text font-size="100.0" fill="#088" font-family="monospace"  >
   D0
  </text> </g> 
  <circle cx="700" cy="-900" r="10"
    style="fill:none;stroke:#800;stroke-width:2"  />
  <line x1="-700" y1="100" x2="-400" y2="100" style="stroke:#800;stroke-width:10;stroke-opacity:1.000000;stroke-linecap:round"/>
  <g transform="translate(-635,94) rotate(0)" > <text font-size="100.0" fill="#800" font-family="monospace"  >
   21
  </text> </g> 
  <g transform="translate(-382,140) rotate(0)" > <text font-size="100.0" fill="#088" font-family="monospace"  >
   A10
  </text> </g> 
  <circle cx="-700" cy="100" r="10"
    style="fill:none;stroke:#800;stroke-width:2"  />
  <line x1="700" y1="-800" x2="400" y2="-800" style="stroke:#800;stroke-width:10;stroke-opacity:1.000000;stroke-linecap:round"/>
  <g transform="translate(465,-806) rotate(0)" > <text font-size="100.0" fill="#800" font-family="monospace"  >
   12
  </text> </g> 
  <g transform="translate(240,-760) rotate(0)" > <text font-size="100.0" fill="#088" font-family="monospace"  >
   D1
  </text> </g> 
  <circle cx="700" cy="-800" r="10"
    style="fill:none;stroke:#800;stroke-width:2"  />
  <line x1="-700" y1="900" x2="-470" y2="900" style="stroke:#800;stroke-width:10;stroke-opacity:1.000000;stroke-linecap:round"/>
  <circle cx="-435" cy="900" r="35"
    style="fill:none;stroke:#800;stroke-width:10"  />
  <g transform="translate(-635,894) rotate(0)" > <text font-size="100.0" fill="#800" font-family="monospace"  >
   22
  </text> </g> 
  <g transform="translate(-382,940) rotate(0)" > <text font-size="100.0" fill="#088" font-family="monospace"  >
   OE
  </text> </g> 
  <circle cx="-700" cy="900" r="10"
    style="fill:none;stroke:#800;stroke-width:2"  />
  <line x1="700" y1="-700" x2="400" y2="-700" style="stroke:#800;stroke-width:10;stroke-opacity:1.000000;stroke-linecap:round"/>
  <g transform="translate(465,-706) rotate(0)" > <text font-size="100.0" fill="#800" font-family="monospace"  >
   13
  </text> </g> 
  <g transform="translate(240,-660) rotate(0)" > <text font-size="100.0" fill="#088" font-family="monospace"  >
   D2
  </text> </g> 
  <circle cx="700" cy="-700" r="10"
    style="fill:none;stroke:#800;stroke-width:2"  />
  <line x1="-700" y1="200" x2="-400" y2="200" style="stroke:#800;stroke-width:10;stroke-opacity:1.000000;stroke-linecap:round"/>
  <g transform="translate(-635,194) rotate(0)" > <text font-size="100.0" fill="#800" font-family="monospace"  >
   23
  </text> </g> 
  <g transform="translate(-382,240) rotate(0)" > <text font-size="100.0" fill="#088" font-family="monospace"  >
   A11
  </text> </g> 
  <circle cx="-700" cy="200" r="10"
    style="fill:none;stroke:#800;stroke-width:2"  />
  <line x1="-700" y1="0" x2="-400" y2="0" style="stroke:#800;stroke-width:10;stroke-opacity:1.000000;stroke-linecap:round"/>
  <g transform="translate(-635,-6) rotate(0)" > <text font-size="100.0" fill="#800" font-family="monospace"  >
   24
  </text> </g> 
  <g transform="translate(-382,40) rotate(0)" > <text font-size="100.0" fill="#088" font-family="monospace"  >
   A9
  </text> </g> 
  <circle cx="-700" cy="0" r="10"
    style="fill:none;stroke:#800;stroke-width:2"  />
  <line x1="700" y1="-600" x2="400" y2="-600" style="stroke:#800;stroke-width:10;stroke-opacity:1.000000;stroke-linecap:round"/>
  <g transform="translate(465,-606) rotate(0)" > <text font-size="100.0" fill="#800" font-family="monospace"  >
   15
  </text> </g> 
  <g transform="translate(240,-560) rotate(0)" > <text font-size="100.0" fill="#088" font-family="monospace"  >
   D3
  </text> </g> 
  <circle cx="700" cy="-600" r="10"
    style="fill:none;stroke:#800;stroke-width:2"  />
  <line x1="-700" y1="-100" x2="-400" y2="-100" style="stroke:#800;stroke-width:10;stroke-opacity:1.000000;stroke-linecap:round"/>
  <g transform="translate(-635,-106) rotate(0)" > <text font-size="100.0" fill="#800" font-family="monospace"  >
   25
  </text> </g> 
  <g transform="translate(-382,-60) rotate(0)" > <text font-size="100.0" fill="#088" font-family="monospace"  >
   A8
  </text> </g> 
  <circle cx="-700" cy="-100" r="10"
    style="fill:none;stroke:#800;stroke-width:2"  />
  <line x1="700" y1="-500" x2="400" y2="-500" style="stroke:#800;stroke-width:10;stroke-opacity:1.000000;stroke-linecap:round"/>
  <g transform="translate(465,-506) rotate(0)" > <text font-size="100.0" fill="#800" font-family="monospace"  >
   16
  </text> </g> 
  <g transform="translate(240,-460) rotate(0)" > <text font-size="100.0" fill="#088" font-family="monospace"  >
   D4
  </text> </g> 
  <circle cx="700" cy="-500" r="10"
    style="fill:none;stroke:#800;stroke-width:2"  />
  <line x1="-700" y1="400" x2="-400" y2="400" style="stroke:#800;stroke-width:10;stroke-opacity:1.000000;stroke-linecap:round"/>
  <g transform="translate(-635,394) rotate(0)" > <text font-size="100.0" fill="#800" font-family="monospace"  >
   26
  </text> </g> 
  <g transform="translate(-382,440) rotate(0)" > <text font-size="100.0" fill="#088" font-family="monospace"  >
   A13
  </text> </g> 
  <circle cx="-700" cy="400" r="10"
    style="fill:none;stroke:#800;stroke-width:2"  />
  <line x1="700" y1="-400" x2="400" y2="-400" style="stroke:#800;stroke-width:10;stroke-opacity:1.000000;stroke-linecap:round"/>
  <g transform="translate(465,-406) rotate(0)" > <text font-size="100.0" fill="#800" font-family="monospace"  >
   17
  </text> </g> 
  <g transform="translate(240,-360) rotate(0)" > <text font-size="100.0" fill="#088" font-family="monospace"  >
   D5
  </text> </g> 
  <circle cx="700" cy="-400" r="10"
    style="fill:none;stroke:#800;stroke-width:2"  />
  <line x1="-700" y1="500" x2="-400" y2="500" style="stroke:#800;stroke-width:10;stroke-opacity:1.000000;stroke-linecap:round"/>
  <g transform="translate(-635,494) rotate(0)" > <text font-size="100.0" fill="#800" font-family="monospace"  >
   27
  </text> </g> 
  <g transform="translate(-382,540) rotate(0)" > <text font-size="100.0" fill="#088" font-family="monospace"  >
   A14
  </text> </g> 
  <circle cx="-700" cy="500" r="10"
    style="fill:none;stroke:#800;stroke-width:2"  />
  <line x1="700" y1="-300" x2="400" y2="-300" style="stroke:#800;stroke-width:10;stroke-opacity:1.000000;stroke-linecap:round"/>
  <g transform="translate(465,-306) rotate(0)" > <text font-size="100.0" fill="#800" font-family="monospace"  >
   18
  </text> </g> 
  <g transform="translate(240,-260) rotate(0)" > <text font-size="100.0" fill="#088" font-family="monospace"  >
   D6
  </text> </g> 
  <circle cx="700" cy="-300" r="10"
    style="fill:none;stroke:#800;stroke-width:2"  />
  <line x1="700" y1="-200" x2="400" y2="-200" style="stroke:#800;stroke-width:10;stroke-opacity:1.000000;stroke-linecap:round"/>
  <g transform="translate(465,-206) rotate(0)" > <text font-size="100.0" fill="#800" font-family="monospace"  >
   19
  </text> </g> 
  <g transform="translate(240,-160) rotate(0)" > <text font-size="100.0" fill="#088" font-family="monospace"  >
   D7
  </text> </g> 
  <circle cx="700" cy="-200" r="10"
    style="fill:none;stroke:#800;stroke-width:2"  />
 </g>
</svg>
