<?xml version="1.0"?>
<svg height="336" width="308"  >
 <g style="fill-opacity:1.0; stroke:black;
  stroke-width:1;" transform=" translate( 154.0,168.125 ) scale( 0.15,0.15 )">
  <g transform="translate(-375,-775) rotate(0)" > <text font-size="83.3333333333" fill="#088" font-family="monospace"  >
   U
  </text> </g> 
  <g transform="translate(200,825) rotate(0)" > <text font-size="83.3333333333" fill="#088" font-family="monospace"  >
   6116
  </text> </g> 
  <g transform="translate(-10,770) rotate(-90)" > <text font-size="66.6666666667" fill="#888" font-family="monospace"  >
   12
  </text> </g> 
  <g transform="translate(5,716) rotate(-90)" > <text font-size="66.6666666667" fill="#888" font-family="monospace"  >
   GND
  </text> </g> 
  <circle cx="0" cy="750" r="10"
    style="fill:none;stroke:#888;stroke-width:2"  />
  <g transform="translate(-10,-730) rotate(-90)" > <text font-size="66.6666666667" fill="#888" font-family="monospace"  >
   24
  </text> </g> 
  <g transform="translate(5,-596) rotate(-90)" > <text font-size="66.6666666667" fill="#888" font-family="monospace"  >
   VCC
  </text> </g> 
  <circle cx="0" cy="-750" r="10"
    style="fill:none;stroke:#888;stroke-width:2"  />
  <rect x="-450" y="-750" height="1500"
    width="900" style="fill:none;stroke:#800;stroke-width:10" />
  <line x1="-600" y1="0" x2="-450" y2="0" style="stroke:#800;stroke-width:10;stroke-opacity:1.000000;stroke-linecap:round"/>
  <g transform="translate(-553,-6) rotate(0)" > <text font-size="66.6666666667" fill="#800" font-family="monospace"  >
   1
  </text> </g> 
  <g transform="translate(-432,30) rotate(0)" > <text font-size="66.6666666667" fill="#088" font-family="monospace"  >
   A7
  </text> </g> 
  <circle cx="-600" cy="0" r="10"
    style="fill:none;stroke:#800;stroke-width:2"  />
  <line x1="-600" y1="-100" x2="-450" y2="-100" style="stroke:#800;stroke-width:10;stroke-opacity:1.000000;stroke-linecap:round"/>
  <g transform="translate(-553,-106) rotate(0)" > <text font-size="66.6666666667" fill="#800" font-family="monospace"  >
   2
  </text> </g> 
  <g transform="translate(-432,-70) rotate(0)" > <text font-size="66.6666666667" fill="#088" font-family="monospace"  >
   A6
  </text> </g> 
  <circle cx="-600" cy="-100" r="10"
    style="fill:none;stroke:#800;stroke-width:2"  />
  <line x1="-600" y1="-200" x2="-450" y2="-200" style="stroke:#800;stroke-width:10;stroke-opacity:1.000000;stroke-linecap:round"/>
  <g transform="translate(-553,-206) rotate(0)" > <text font-size="66.6666666667" fill="#800" font-family="monospace"  >
   3
  </text> </g> 
  <g transform="translate(-432,-170) rotate(0)" > <text font-size="66.6666666667" fill="#088" font-family="monospace"  >
   A5
  </text> </g> 
  <circle cx="-600" cy="-200" r="10"
    style="fill:none;stroke:#800;stroke-width:2"  />
  <line x1="-600" y1="-300" x2="-450" y2="-300" style="stroke:#800;stroke-width:10;stroke-opacity:1.000000;stroke-linecap:round"/>
  <g transform="translate(-553,-306) rotate(0)" > <text font-size="66.6666666667" fill="#800" font-family="monospace"  >
   4
  </text> </g> 
  <g transform="translate(-432,-270) rotate(0)" > <text font-size="66.6666666667" fill="#088" font-family="monospace"  >
   A4
  </text> </g> 
  <circle cx="-600" cy="-300" r="10"
    style="fill:none;stroke:#800;stroke-width:2"  />
  <line x1="-600" y1="-400" x2="-450" y2="-400" style="stroke:#800;stroke-width:10;stroke-opacity:1.000000;stroke-linecap:round"/>
  <g transform="translate(-553,-406) rotate(0)" > <text font-size="66.6666666667" fill="#800" font-family="monospace"  >
   5
  </text> </g> 
  <g transform="translate(-432,-370) rotate(0)" > <text font-size="66.6666666667" fill="#088" font-family="monospace"  >
   A3
  </text> </g> 
  <circle cx="-600" cy="-400" r="10"
    style="fill:none;stroke:#800;stroke-width:2"  />
  <line x1="-600" y1="-500" x2="-450" y2="-500" style="stroke:#800;stroke-width:10;stroke-opacity:1.000000;stroke-linecap:round"/>
  <g transform="translate(-553,-506) rotate(0)" > <text font-size="66.6666666667" fill="#800" font-family="monospace"  >
   6
  </text> </g> 
  <g transform="translate(-432,-470) rotate(0)" > <text font-size="66.6666666667" fill="#088" font-family="monospace"  >
   A2
  </text> </g> 
  <circle cx="-600" cy="-500" r="10"
    style="fill:none;stroke:#800;stroke-width:2"  />
  <line x1="-600" y1="-600" x2="-450" y2="-600" style="stroke:#800;stroke-width:10;stroke-opacity:1.000000;stroke-linecap:round"/>
  <g transform="translate(-553,-606) rotate(0)" > <text font-size="66.6666666667" fill="#800" font-family="monospace"  >
   7
  </text> </g> 
  <g transform="translate(-432,-570) rotate(0)" > <text font-size="66.6666666667" fill="#088" font-family="monospace"  >
   A1
  </text> </g> 
  <circle cx="-600" cy="-600" r="10"
    style="fill:none;stroke:#800;stroke-width:2"  />
  <line x1="-600" y1="-700" x2="-450" y2="-700" style="stroke:#800;stroke-width:10;stroke-opacity:1.000000;stroke-linecap:round"/>
  <g transform="translate(-553,-706) rotate(0)" > <text font-size="66.6666666667" fill="#800" font-family="monospace"  >
   8
  </text> </g> 
  <g transform="translate(-432,-670) rotate(0)" > <text font-size="66.6666666667" fill="#088" font-family="monospace"  >
   A0
  </text> </g> 
  <circle cx="-600" cy="-700" r="10"
    style="fill:none;stroke:#800;stroke-width:2"  />
  <line x1="600" y1="-700" x2="450" y2="-700" style="stroke:#800;stroke-width:10;stroke-opacity:1.000000;stroke-linecap:round"/>
  <g transform="translate(496,-706) rotate(0)" > <text font-size="66.6666666667" fill="#800" font-family="monospace"  >
   9
  </text> </g> 
  <g transform="translate(330,-670) rotate(0)" > <text font-size="66.6666666667" fill="#088" font-family="monospace"  >
   Q0
  </text> </g> 
  <circle cx="600" cy="-700" r="10"
    style="fill:none;stroke:#800;stroke-width:2"  />
  <line x1="600" y1="-600" x2="450" y2="-600" style="stroke:#800;stroke-width:10;stroke-opacity:1.000000;stroke-linecap:round"/>
  <g transform="translate(468,-606) rotate(0)" > <text font-size="66.6666666667" fill="#800" font-family="monospace"  >
   10
  </text> </g> 
  <g transform="translate(330,-570) rotate(0)" > <text font-size="66.6666666667" fill="#088" font-family="monospace"  >
   Q1
  </text> </g> 
  <circle cx="600" cy="-600" r="10"
    style="fill:none;stroke:#800;stroke-width:2"  />
  <line x1="-600" y1="500" x2="-450" y2="500" style="stroke:#800;stroke-width:10;stroke-opacity:1.000000;stroke-linecap:round"/>
  <g transform="translate(-581,494) rotate(0)" > <text font-size="66.6666666667" fill="#800" font-family="monospace"  >
   20
  </text> </g> 
  <g transform="translate(-432,530) rotate(0)" > <text font-size="66.6666666667" fill="#088" font-family="monospace"  >
   ~OE
  </text> </g> 
  <circle cx="-600" cy="500" r="10"
    style="fill:none;stroke:#800;stroke-width:2"  />
  <line x1="600" y1="-500" x2="450" y2="-500" style="stroke:#800;stroke-width:10;stroke-opacity:1.000000;stroke-linecap:round"/>
  <g transform="translate(468,-506) rotate(0)" > <text font-size="66.6666666667" fill="#800" font-family="monospace"  >
   11
  </text> </g> 
  <g transform="translate(330,-470) rotate(0)" > <text font-size="66.6666666667" fill="#088" font-family="monospace"  >
   Q2
  </text> </g> 
  <circle cx="600" cy="-500" r="10"
    style="fill:none;stroke:#800;stroke-width:2"  />
  <line x1="-600" y1="600" x2="-450" y2="600" style="stroke:#800;stroke-width:10;stroke-opacity:1.000000;stroke-linecap:round"/>
  <g transform="translate(-581,594) rotate(0)" > <text font-size="66.6666666667" fill="#800" font-family="monospace"  >
   21
  </text> </g> 
  <g transform="translate(-432,630) rotate(0)" > <text font-size="66.6666666667" fill="#088" font-family="monospace"  >
   ~WE
  </text> </g> 
  <circle cx="-600" cy="600" r="10"
    style="fill:none;stroke:#800;stroke-width:2"  />
  <line x1="-600" y1="200" x2="-450" y2="200" style="stroke:#800;stroke-width:10;stroke-opacity:1.000000;stroke-linecap:round"/>
  <g transform="translate(-581,194) rotate(0)" > <text font-size="66.6666666667" fill="#800" font-family="monospace"  >
   22
  </text> </g> 
  <g transform="translate(-432,230) rotate(0)" > <text font-size="66.6666666667" fill="#088" font-family="monospace"  >
   A9
  </text> </g> 
  <circle cx="-600" cy="200" r="10"
    style="fill:none;stroke:#800;stroke-width:2"  />
  <line x1="600" y1="-400" x2="450" y2="-400" style="stroke:#800;stroke-width:10;stroke-opacity:1.000000;stroke-linecap:round"/>
  <g transform="translate(468,-406) rotate(0)" > <text font-size="66.6666666667" fill="#800" font-family="monospace"  >
   13
  </text> </g> 
  <g transform="translate(330,-370) rotate(0)" > <text font-size="66.6666666667" fill="#088" font-family="monospace"  >
   Q3
  </text> </g> 
  <circle cx="600" cy="-400" r="10"
    style="fill:none;stroke:#800;stroke-width:2"  />
  <line x1="-600" y1="100" x2="-450" y2="100" style="stroke:#800;stroke-width:10;stroke-opacity:1.000000;stroke-linecap:round"/>
  <g transform="translate(-581,94) rotate(0)" > <text font-size="66.6666666667" fill="#800" font-family="monospace"  >
   23
  </text> </g> 
  <g transform="translate(-432,130) rotate(0)" > <text font-size="66.6666666667" fill="#088" font-family="monospace"  >
   A8
  </text> </g> 
  <circle cx="-600" cy="100" r="10"
    style="fill:none;stroke:#800;stroke-width:2"  />
  <line x1="600" y1="-300" x2="450" y2="-300" style="stroke:#800;stroke-width:10;stroke-opacity:1.000000;stroke-linecap:round"/>
  <g transform="translate(468,-306) rotate(0)" > <text font-size="66.6666666667" fill="#800" font-family="monospace"  >
   14
  </text> </g> 
  <g transform="translate(330,-270) rotate(0)" > <text font-size="66.6666666667" fill="#088" font-family="monospace"  >
   Q4
  </text> </g> 
  <circle cx="600" cy="-300" r="10"
    style="fill:none;stroke:#800;stroke-width:2"  />
  <line x1="600" y1="-200" x2="450" y2="-200" style="stroke:#800;stroke-width:10;stroke-opacity:1.000000;stroke-linecap:round"/>
  <g transform="translate(468,-206) rotate(0)" > <text font-size="66.6666666667" fill="#800" font-family="monospace"  >
   15
  </text> </g> 
  <g transform="translate(330,-170) rotate(0)" > <text font-size="66.6666666667" fill="#088" font-family="monospace"  >
   Q5
  </text> </g> 
  <circle cx="600" cy="-200" r="10"
    style="fill:none;stroke:#800;stroke-width:2"  />
  <line x1="600" y1="-100" x2="450" y2="-100" style="stroke:#800;stroke-width:10;stroke-opacity:1.000000;stroke-linecap:round"/>
  <g transform="translate(468,-106) rotate(0)" > <text font-size="66.6666666667" fill="#800" font-family="monospace"  >
   16
  </text> </g> 
  <g transform="translate(330,-70) rotate(0)" > <text font-size="66.6666666667" fill="#088" font-family="monospace"  >
   Q6
  </text> </g> 
  <circle cx="600" cy="-100" r="10"
    style="fill:none;stroke:#800;stroke-width:2"  />
  <line x1="600" y1="0" x2="450" y2="0" style="stroke:#800;stroke-width:10;stroke-opacity:1.000000;stroke-linecap:round"/>
  <g transform="translate(468,-6) rotate(0)" > <text font-size="66.6666666667" fill="#800" font-family="monospace"  >
   17
  </text> </g> 
  <g transform="translate(330,30) rotate(0)" > <text font-size="66.6666666667" fill="#088" font-family="monospace"  >
   Q7
  </text> </g> 
  <circle cx="600" cy="0" r="10"
    style="fill:none;stroke:#800;stroke-width:2"  />
  <line x1="-600" y1="700" x2="-450" y2="700" style="stroke:#800;stroke-width:10;stroke-opacity:1.000000;stroke-linecap:round"/>
  <g transform="translate(-581,694) rotate(0)" > <text font-size="66.6666666667" fill="#800" font-family="monospace"  >
   18
  </text> </g> 
  <g transform="translate(-432,730) rotate(0)" > <text font-size="66.6666666667" fill="#088" font-family="monospace"  >
   ~CS
  </text> </g> 
  <circle cx="-600" cy="700" r="10"
    style="fill:none;stroke:#800;stroke-width:2"  />
  <line x1="-600" y1="300" x2="-450" y2="300" style="stroke:#800;stroke-width:10;stroke-opacity:1.000000;stroke-linecap:round"/>
  <g transform="translate(-581,294) rotate(0)" > <text font-size="66.6666666667" fill="#800" font-family="monospace"  >
   19
  </text> </g> 
  <g transform="translate(-432,330) rotate(0)" > <text font-size="66.6666666667" fill="#088" font-family="monospace"  >
   A10
  </text> </g> 
  <circle cx="-600" cy="300" r="10"
    style="fill:none;stroke:#800;stroke-width:2"  />
 </g>
</svg>
