<?xml version="1.0"?>
<svg height="418" width="335"  >
 <g style="fill-opacity:1.0; stroke:black;
  stroke-width:1;" transform=" translate( 167.5,209.375 ) scale( 0.15,0.15 )">
  <g transform="translate(-350,-725) rotate(0)" > <text font-size="83.3333333333" fill="#088" font-family="monospace"  >
   IC
  </text> </g> 
  <g transform="translate(49,775) rotate(0)" > <text font-size="83.3333333333" fill="#088" font-family="monospace"  >
   FM16W08-SG
  </text> </g> 
  <rect x="-350" y="-700" height="1400"
    width="700" style="fill:none;stroke:#800;stroke-width:10" />
  <line x1="-500" y1="600" x2="-350" y2="600" style="stroke:#800;stroke-width:10;stroke-opacity:1.000000;stroke-linecap:round"/>
  <g transform="translate(-453,594) rotate(0)" > <text font-size="66.6666666667" fill="#800" font-family="monospace"  >
   2
  </text> </g> 
  <g transform="translate(-332,630) rotate(0)" > <text font-size="66.6666666667" fill="#088" font-family="monospace"  >
   A12
  </text> </g> 
  <circle cx="-500" cy="600" r="10"
    style="fill:none;stroke:#800;stroke-width:2"  />
  <line x1="-500" y1="100" x2="-350" y2="100" style="stroke:#800;stroke-width:10;stroke-opacity:1.000000;stroke-linecap:round"/>
  <g transform="translate(-453,94) rotate(0)" > <text font-size="66.6666666667" fill="#800" font-family="monospace"  >
   3
  </text> </g> 
  <g transform="translate(-332,130) rotate(0)" > <text font-size="66.6666666667" fill="#088" font-family="monospace"  >
   A7
  </text> </g> 
  <circle cx="-500" cy="100" r="10"
    style="fill:none;stroke:#800;stroke-width:2"  />
  <line x1="-500" y1="0" x2="-350" y2="0" style="stroke:#800;stroke-width:10;stroke-opacity:1.000000;stroke-linecap:round"/>
  <g transform="translate(-453,-6) rotate(0)" > <text font-size="66.6666666667" fill="#800" font-family="monospace"  >
   4
  </text> </g> 
  <g transform="translate(-332,30) rotate(0)" > <text font-size="66.6666666667" fill="#088" font-family="monospace"  >
   A6
  </text> </g> 
  <circle cx="-500" cy="0" r="10"
    style="fill:none;stroke:#800;stroke-width:2"  />
  <line x1="-500" y1="-100" x2="-350" y2="-100" style="stroke:#800;stroke-width:10;stroke-opacity:1.000000;stroke-linecap:round"/>
  <g transform="translate(-453,-106) rotate(0)" > <text font-size="66.6666666667" fill="#800" font-family="monospace"  >
   5
  </text> </g> 
  <g transform="translate(-332,-70) rotate(0)" > <text font-size="66.6666666667" fill="#088" font-family="monospace"  >
   A5
  </text> </g> 
  <circle cx="-500" cy="-100" r="10"
    style="fill:none;stroke:#800;stroke-width:2"  />
  <line x1="-500" y1="-200" x2="-350" y2="-200" style="stroke:#800;stroke-width:10;stroke-opacity:1.000000;stroke-linecap:round"/>
  <g transform="translate(-453,-206) rotate(0)" > <text font-size="66.6666666667" fill="#800" font-family="monospace"  >
   6
  </text> </g> 
  <g transform="translate(-332,-170) rotate(0)" > <text font-size="66.6666666667" fill="#088" font-family="monospace"  >
   A4
  </text> </g> 
  <circle cx="-500" cy="-200" r="10"
    style="fill:none;stroke:#800;stroke-width:2"  />
  <line x1="-500" y1="-300" x2="-350" y2="-300" style="stroke:#800;stroke-width:10;stroke-opacity:1.000000;stroke-linecap:round"/>
  <g transform="translate(-453,-306) rotate(0)" > <text font-size="66.6666666667" fill="#800" font-family="monospace"  >
   7
  </text> </g> 
  <g transform="translate(-332,-270) rotate(0)" > <text font-size="66.6666666667" fill="#088" font-family="monospace"  >
   A3
  </text> </g> 
  <circle cx="-500" cy="-300" r="10"
    style="fill:none;stroke:#800;stroke-width:2"  />
  <line x1="-500" y1="-400" x2="-350" y2="-400" style="stroke:#800;stroke-width:10;stroke-opacity:1.000000;stroke-linecap:round"/>
  <g transform="translate(-453,-406) rotate(0)" > <text font-size="66.6666666667" fill="#800" font-family="monospace"  >
   8
  </text> </g> 
  <g transform="translate(-332,-370) rotate(0)" > <text font-size="66.6666666667" fill="#088" font-family="monospace"  >
   A2
  </text> </g> 
  <circle cx="-500" cy="-400" r="10"
    style="fill:none;stroke:#800;stroke-width:2"  />
  <line x1="-500" y1="-500" x2="-350" y2="-500" style="stroke:#800;stroke-width:10;stroke-opacity:1.000000;stroke-linecap:round"/>
  <g transform="translate(-453,-506) rotate(0)" > <text font-size="66.6666666667" fill="#800" font-family="monospace"  >
   9
  </text> </g> 
  <g transform="translate(-332,-470) rotate(0)" > <text font-size="66.6666666667" fill="#088" font-family="monospace"  >
   A1
  </text> </g> 
  <circle cx="-500" cy="-500" r="10"
    style="fill:none;stroke:#800;stroke-width:2"  />
  <line x1="-500" y1="-600" x2="-350" y2="-600" style="stroke:#800;stroke-width:10;stroke-opacity:1.000000;stroke-linecap:round"/>
  <g transform="translate(-481,-606) rotate(0)" > <text font-size="66.6666666667" fill="#800" font-family="monospace"  >
   10
  </text> </g> 
  <g transform="translate(-332,-570) rotate(0)" > <text font-size="66.6666666667" fill="#088" font-family="monospace"  >
   A0
  </text> </g> 
  <circle cx="-500" cy="-600" r="10"
    style="fill:none;stroke:#800;stroke-width:2"  />
  <line x1="500" y1="600" x2="350" y2="600" style="stroke:#800;stroke-width:10;stroke-opacity:1.000000;stroke-linecap:round"/>
  <g transform="translate(368,594) rotate(0)" > <text font-size="66.6666666667" fill="#800" font-family="monospace"  >
   20
  </text> </g> 
  <g transform="translate(150,630) rotate(0)" > <text font-size="66.6666666667" fill="#088" font-family="monospace"  >
   ~CE~
  </text> </g> 
  <circle cx="500" cy="600" r="10"
    style="fill:none;stroke:#800;stroke-width:2"  />
  <line x1="500" y1="-600" x2="350" y2="-600" style="stroke:#800;stroke-width:10;stroke-opacity:1.000000;stroke-linecap:round"/>
  <g transform="translate(368,-606) rotate(0)" > <text font-size="66.6666666667" fill="#800" font-family="monospace"  >
   11
  </text> </g> 
  <g transform="translate(190,-570) rotate(0)" > <text font-size="66.6666666667" fill="#088" font-family="monospace"  >
   DQ0
  </text> </g> 
  <circle cx="500" cy="-600" r="10"
    style="fill:none;stroke:#800;stroke-width:2"  />
  <line x1="-500" y1="400" x2="-350" y2="400" style="stroke:#800;stroke-width:10;stroke-opacity:1.000000;stroke-linecap:round"/>
  <g transform="translate(-481,394) rotate(0)" > <text font-size="66.6666666667" fill="#800" font-family="monospace"  >
   21
  </text> </g> 
  <g transform="translate(-332,430) rotate(0)" > <text font-size="66.6666666667" fill="#088" font-family="monospace"  >
   A10
  </text> </g> 
  <circle cx="-500" cy="400" r="10"
    style="fill:none;stroke:#800;stroke-width:2"  />
  <line x1="500" y1="-500" x2="350" y2="-500" style="stroke:#800;stroke-width:10;stroke-opacity:1.000000;stroke-linecap:round"/>
  <g transform="translate(368,-506) rotate(0)" > <text font-size="66.6666666667" fill="#800" font-family="monospace"  >
   12
  </text> </g> 
  <g transform="translate(190,-470) rotate(0)" > <text font-size="66.6666666667" fill="#088" font-family="monospace"  >
   DQ1
  </text> </g> 
  <circle cx="500" cy="-500" r="10"
    style="fill:none;stroke:#800;stroke-width:2"  />
  <line x1="500" y1="300" x2="350" y2="300" style="stroke:#800;stroke-width:10;stroke-opacity:1.000000;stroke-linecap:round"/>
  <g transform="translate(368,294) rotate(0)" > <text font-size="66.6666666667" fill="#800" font-family="monospace"  >
   22
  </text> </g> 
  <g transform="translate(150,330) rotate(0)" > <text font-size="66.6666666667" fill="#088" font-family="monospace"  >
   ~OE~
  </text> </g> 
  <circle cx="500" cy="300" r="10"
    style="fill:none;stroke:#800;stroke-width:2"  />
  <line x1="500" y1="-400" x2="350" y2="-400" style="stroke:#800;stroke-width:10;stroke-opacity:1.000000;stroke-linecap:round"/>
  <g transform="translate(368,-406) rotate(0)" > <text font-size="66.6666666667" fill="#800" font-family="monospace"  >
   13
  </text> </g> 
  <g transform="translate(190,-370) rotate(0)" > <text font-size="66.6666666667" fill="#088" font-family="monospace"  >
   DQ2
  </text> </g> 
  <circle cx="500" cy="-400" r="10"
    style="fill:none;stroke:#800;stroke-width:2"  />
  <line x1="-500" y1="500" x2="-350" y2="500" style="stroke:#800;stroke-width:10;stroke-opacity:1.000000;stroke-linecap:round"/>
  <g transform="translate(-481,494) rotate(0)" > <text font-size="66.6666666667" fill="#800" font-family="monospace"  >
   23
  </text> </g> 
  <g transform="translate(-332,530) rotate(0)" > <text font-size="66.6666666667" fill="#088" font-family="monospace"  >
   A11
  </text> </g> 
  <circle cx="-500" cy="500" r="10"
    style="fill:none;stroke:#800;stroke-width:2"  />
  <line x1="0" y1="850" x2="0" y2="700" style="stroke:#800;stroke-width:10;stroke-opacity:1.000000;stroke-linecap:round"/>
  <g transform="translate(-10,795) rotate(-90)" > <text font-size="66.6666666667" fill="#800" font-family="monospace"  >
   14
  </text> </g> 
  <g transform="translate(5,666) rotate(-90)" > <text font-size="66.6666666667" fill="#088" font-family="monospace"  >
   VSS
  </text> </g> 
  <circle cx="0" cy="850" r="10"
    style="fill:none;stroke:#800;stroke-width:2"  />
  <line x1="-500" y1="300" x2="-350" y2="300" style="stroke:#800;stroke-width:10;stroke-opacity:1.000000;stroke-linecap:round"/>
  <g transform="translate(-481,294) rotate(0)" > <text font-size="66.6666666667" fill="#800" font-family="monospace"  >
   24
  </text> </g> 
  <g transform="translate(-332,330) rotate(0)" > <text font-size="66.6666666667" fill="#088" font-family="monospace"  >
   A9
  </text> </g> 
  <circle cx="-500" cy="300" r="10"
    style="fill:none;stroke:#800;stroke-width:2"  />
  <line x1="500" y1="-300" x2="350" y2="-300" style="stroke:#800;stroke-width:10;stroke-opacity:1.000000;stroke-linecap:round"/>
  <g transform="translate(368,-306) rotate(0)" > <text font-size="66.6666666667" fill="#800" font-family="monospace"  >
   15
  </text> </g> 
  <g transform="translate(190,-270) rotate(0)" > <text font-size="66.6666666667" fill="#088" font-family="monospace"  >
   DQ3
  </text> </g> 
  <circle cx="500" cy="-300" r="10"
    style="fill:none;stroke:#800;stroke-width:2"  />
  <line x1="-500" y1="200" x2="-350" y2="200" style="stroke:#800;stroke-width:10;stroke-opacity:1.000000;stroke-linecap:round"/>
  <g transform="translate(-481,194) rotate(0)" > <text font-size="66.6666666667" fill="#800" font-family="monospace"  >
   25
  </text> </g> 
  <g transform="translate(-332,230) rotate(0)" > <text font-size="66.6666666667" fill="#088" font-family="monospace"  >
   A8
  </text> </g> 
  <circle cx="-500" cy="200" r="10"
    style="fill:none;stroke:#800;stroke-width:2"  />
  <line x1="500" y1="-200" x2="350" y2="-200" style="stroke:#800;stroke-width:10;stroke-opacity:1.000000;stroke-linecap:round"/>
  <g transform="translate(368,-206) rotate(0)" > <text font-size="66.6666666667" fill="#800" font-family="monospace"  >
   16
  </text> </g> 
  <g transform="translate(190,-170) rotate(0)" > <text font-size="66.6666666667" fill="#088" font-family="monospace"  >
   DQ4
  </text> </g> 
  <circle cx="500" cy="-200" r="10"
    style="fill:none;stroke:#800;stroke-width:2"  />
  <line x1="500" y1="-100" x2="350" y2="-100" style="stroke:#800;stroke-width:10;stroke-opacity:1.000000;stroke-linecap:round"/>
  <g transform="translate(368,-106) rotate(0)" > <text font-size="66.6666666667" fill="#800" font-family="monospace"  >
   17
  </text> </g> 
  <g transform="translate(190,-70) rotate(0)" > <text font-size="66.6666666667" fill="#088" font-family="monospace"  >
   DQ5
  </text> </g> 
  <circle cx="500" cy="-100" r="10"
    style="fill:none;stroke:#800;stroke-width:2"  />
  <line x1="500" y1="400" x2="350" y2="400" style="stroke:#800;stroke-width:10;stroke-opacity:1.000000;stroke-linecap:round"/>
  <g transform="translate(368,394) rotate(0)" > <text font-size="66.6666666667" fill="#800" font-family="monospace"  >
   27
  </text> </g> 
  <g transform="translate(150,430) rotate(0)" > <text font-size="66.6666666667" fill="#088" font-family="monospace"  >
   ~WE~
  </text> </g> 
  <circle cx="500" cy="400" r="10"
    style="fill:none;stroke:#800;stroke-width:2"  />
  <line x1="500" y1="0" x2="350" y2="0" style="stroke:#800;stroke-width:10;stroke-opacity:1.000000;stroke-linecap:round"/>
  <g transform="translate(368,-6) rotate(0)" > <text font-size="66.6666666667" fill="#800" font-family="monospace"  >
   18
  </text> </g> 
  <g transform="translate(190,30) rotate(0)" > <text font-size="66.6666666667" fill="#088" font-family="monospace"  >
   DQ6
  </text> </g> 
  <circle cx="500" cy="0" r="10"
    style="fill:none;stroke:#800;stroke-width:2"  />
  <line x1="0" y1="-850" x2="0" y2="-700" style="stroke:#800;stroke-width:10;stroke-opacity:1.000000;stroke-linecap:round"/>
  <g transform="translate(-10,-755) rotate(-90)" > <text font-size="66.6666666667" fill="#800" font-family="monospace"  >
   28
  </text> </g> 
  <g transform="translate(5,-546) rotate(-90)" > <text font-size="66.6666666667" fill="#088" font-family="monospace"  >
   VDD
  </text> </g> 
  <circle cx="0" cy="-850" r="10"
    style="fill:none;stroke:#800;stroke-width:2"  />
  <line x1="500" y1="100" x2="350" y2="100" style="stroke:#800;stroke-width:10;stroke-opacity:1.000000;stroke-linecap:round"/>
  <g transform="translate(368,94) rotate(0)" > <text font-size="66.6666666667" fill="#800" font-family="monospace"  >
   19
  </text> </g> 
  <g transform="translate(190,130) rotate(0)" > <text font-size="66.6666666667" fill="#088" font-family="monospace"  >
   DQ7
  </text> </g> 
  <circle cx="500" cy="100" r="10"
    style="fill:none;stroke:#800;stroke-width:2"  />
 </g>
</svg>
