<?xml version="1.0"?>
<svg height="251" width="210"  >
 <g style="fill-opacity:1.0; stroke:black;
  stroke-width:1;" transform=" translate( 105.0,125.625 ) scale( 0.15,0.15 )">
  <g transform="translate(-250,-225) rotate(0)" > <text font-size="83.3333333333" fill="#088" font-family="monospace"  >
   IC
  </text> </g> 
  <g transform="translate(49,325) rotate(0)" > <text font-size="83.3333333333" fill="#088" font-family="monospace"  >
   FM24C64B
  </text> </g> 
  <rect x="-250" y="-200" height="450"
    width="500" style="fill:none;stroke:#800;stroke-width:10" />
  <line x1="-400" y1="-150" x2="-250" y2="-150" style="stroke:#800;stroke-width:10;stroke-opacity:1.000000;stroke-linecap:round"/>
  <g transform="translate(-353,-156) rotate(0)" > <text font-size="66.6666666667" fill="#800" font-family="monospace"  >
   1
  </text> </g> 
  <g transform="translate(-232,-120) rotate(0)" > <text font-size="66.6666666667" fill="#088" font-family="monospace"  >
   A0
  </text> </g> 
  <circle cx="-400" cy="-150" r="10"
    style="fill:none;stroke:#800;stroke-width:2"  />
  <line x1="-400" y1="-50" x2="-250" y2="-50" style="stroke:#800;stroke-width:10;stroke-opacity:1.000000;stroke-linecap:round"/>
  <g transform="translate(-353,-56) rotate(0)" > <text font-size="66.6666666667" fill="#800" font-family="monospace"  >
   2
  </text> </g> 
  <g transform="translate(-232,-20) rotate(0)" > <text font-size="66.6666666667" fill="#088" font-family="monospace"  >
   A1
  </text> </g> 
  <circle cx="-400" cy="-50" r="10"
    style="fill:none;stroke:#800;stroke-width:2"  />
  <line x1="-400" y1="50" x2="-250" y2="50" style="stroke:#800;stroke-width:10;stroke-opacity:1.000000;stroke-linecap:round"/>
  <g transform="translate(-353,44) rotate(0)" > <text font-size="66.6666666667" fill="#800" font-family="monospace"  >
   3
  </text> </g> 
  <g transform="translate(-232,80) rotate(0)" > <text font-size="66.6666666667" fill="#088" font-family="monospace"  >
   A2
  </text> </g> 
  <circle cx="-400" cy="50" r="10"
    style="fill:none;stroke:#800;stroke-width:2"  />
  <line x1="0" y1="400" x2="0" y2="250" style="stroke:#800;stroke-width:10;stroke-opacity:1.000000;stroke-linecap:round"/>
  <g transform="translate(-10,335) rotate(-90)" > <text font-size="66.6666666667" fill="#800" font-family="monospace"  >
   4
  </text> </g> 
  <g transform="translate(5,216) rotate(-90)" > <text font-size="66.6666666667" fill="#088" font-family="monospace"  >
   VSS
  </text> </g> 
  <circle cx="0" cy="400" r="10"
    style="fill:none;stroke:#800;stroke-width:2"  />
  <line x1="400" y1="-100" x2="250" y2="-100" style="stroke:#800;stroke-width:10;stroke-opacity:1.000000;stroke-linecap:round"/>
  <g transform="translate(296,-106) rotate(0)" > <text font-size="66.6666666667" fill="#800" font-family="monospace"  >
   5
  </text> </g> 
  <g transform="translate(90,-70) rotate(0)" > <text font-size="66.6666666667" fill="#088" font-family="monospace"  >
   SDA
  </text> </g> 
  <circle cx="400" cy="-100" r="10"
    style="fill:none;stroke:#800;stroke-width:2"  />
  <line x1="400" y1="50" x2="250" y2="50" style="stroke:#800;stroke-width:10;stroke-opacity:1.000000;stroke-linecap:round"/>
  <g transform="translate(296,44) rotate(0)" > <text font-size="66.6666666667" fill="#800" font-family="monospace"  >
   6
  </text> </g> 
  <g transform="translate(90,80) rotate(0)" > <text font-size="66.6666666667" fill="#088" font-family="monospace"  >
   SCL
  </text> </g> 
  <circle cx="400" cy="50" r="10"
    style="fill:none;stroke:#800;stroke-width:2"  />
  <line x1="-400" y1="200" x2="-250" y2="200" style="stroke:#800;stroke-width:10;stroke-opacity:1.000000;stroke-linecap:round"/>
  <g transform="translate(-353,194) rotate(0)" > <text font-size="66.6666666667" fill="#800" font-family="monospace"  >
   7
  </text> </g> 
  <g transform="translate(-232,230) rotate(0)" > <text font-size="66.6666666667" fill="#088" font-family="monospace"  >
   WP
  </text> </g> 
  <circle cx="-400" cy="200" r="10"
    style="fill:none;stroke:#800;stroke-width:2"  />
  <line x1="0" y1="-350" x2="0" y2="-200" style="stroke:#800;stroke-width:10;stroke-opacity:1.000000;stroke-linecap:round"/>
  <g transform="translate(-10,-265) rotate(-90)" > <text font-size="66.6666666667" fill="#800" font-family="monospace"  >
   8
  </text> </g> 
  <g transform="translate(5,-46) rotate(-90)" > <text font-size="66.6666666667" fill="#088" font-family="monospace"  >
   VDD
  </text> </g> 
  <circle cx="0" cy="-350" r="10"
    style="fill:none;stroke:#800;stroke-width:2"  />
 </g>
</svg>
