<?xml version="1.0"?>
<svg height="176" width="157"  >
 <g style="fill-opacity:1.0; stroke:black;
  stroke-width:1;" transform=" translate( 78.75,88.125 ) scale( 0.15,0.15 )">
  <g transform="translate(-75,25) rotate(-90)" > <text font-size="83.3333333333" fill="#088" font-family="monospace"  >
   P
  </text> </g> 
  <g transform="translate(-100,25) rotate(-90)" > <text font-size="83.3333333333" fill="#088" font-family="monospace"  >
   CONN_4
  </text> </g> 
  <rect x="-100" y="-200" height="400"
    width="200" style="fill:none;stroke:#800;stroke-width:10" />
  <line x1="-350" y1="-150" x2="-170" y2="-150" style="stroke:#800;stroke-width:10;stroke-opacity:1.000000;stroke-linecap:round"/>
  <circle cx="-135" cy="-150" r="35"
    style="fill:none;stroke:#800;stroke-width:10"  />
  <g transform="translate(-260,-156) rotate(0)" > <text font-size="83.3333333333" fill="#800" font-family="monospace"  >
   1
  </text> </g> 
  <circle cx="-350" cy="-150" r="10"
    style="fill:none;stroke:#800;stroke-width:2"  />
  <line x1="-350" y1="-50" x2="-170" y2="-50" style="stroke:#800;stroke-width:10;stroke-opacity:1.000000;stroke-linecap:round"/>
  <circle cx="-135" cy="-50" r="35"
    style="fill:none;stroke:#800;stroke-width:10"  />
  <g transform="translate(-260,-56) rotate(0)" > <text font-size="83.3333333333" fill="#800" font-family="monospace"  >
   2
  </text> </g> 
  <circle cx="-350" cy="-50" r="10"
    style="fill:none;stroke:#800;stroke-width:2"  />
  <line x1="-350" y1="50" x2="-170" y2="50" style="stroke:#800;stroke-width:10;stroke-opacity:1.000000;stroke-linecap:round"/>
  <circle cx="-135" cy="50" r="35"
    style="fill:none;stroke:#800;stroke-width:10"  />
  <g transform="translate(-260,44) rotate(0)" > <text font-size="83.3333333333" fill="#800" font-family="monospace"  >
   3
  </text> </g> 
  <circle cx="-350" cy="50" r="10"
    style="fill:none;stroke:#800;stroke-width:2"  />
  <line x1="-350" y1="150" x2="-170" y2="150" style="stroke:#800;stroke-width:10;stroke-opacity:1.000000;stroke-linecap:round"/>
  <circle cx="-135" cy="150" r="35"
    style="fill:none;stroke:#800;stroke-width:10"  />
  <g transform="translate(-260,144) rotate(0)" > <text font-size="83.3333333333" fill="#800" font-family="monospace"  >
   4
  </text> </g> 
  <circle cx="-350" cy="150" r="10"
    style="fill:none;stroke:#800;stroke-width:2"  />
 </g>
</svg>
