<?xml version="1.0"?>
<svg height="238" width="238"  >
 <g style="fill-opacity:1.0; stroke:black;
  stroke-width:1;" transform=" translate( 119.325,119.325 ) scale( 0.15,0.15 )">
  <g transform="translate(-80,30) rotate(-90)" > <text font-size="100.0" fill="#088" font-family="monospace"  >
   P
  </text> </g> 
  <g transform="translate(-160,30) rotate(-90)" > <text font-size="100.0" fill="#088" font-family="monospace"  >
   CONN_11
  </text> </g> 
  <rect x="-100" y="-550" height="1100"
    width="200" style="fill:none;stroke:#800;stroke-width:10" />
  <line x1="-350" y1="-500" x2="-170" y2="-500" style="stroke:#800;stroke-width:10;stroke-opacity:1.000000;stroke-linecap:round"/>
  <circle cx="-135" cy="-500" r="35"
    style="fill:none;stroke:#800;stroke-width:10"  />
  <g transform="translate(-260,-506) rotate(0)" > <text font-size="83.3333333333" fill="#800" font-family="monospace"  >
   1
  </text> </g> 
  <circle cx="-350" cy="-500" r="10"
    style="fill:none;stroke:#800;stroke-width:2"  />
  <line x1="-350" y1="-400" x2="-170" y2="-400" style="stroke:#800;stroke-width:10;stroke-opacity:1.000000;stroke-linecap:round"/>
  <circle cx="-135" cy="-400" r="35"
    style="fill:none;stroke:#800;stroke-width:10"  />
  <g transform="translate(-260,-406) rotate(0)" > <text font-size="83.3333333333" fill="#800" font-family="monospace"  >
   2
  </text> </g> 
  <circle cx="-350" cy="-400" r="10"
    style="fill:none;stroke:#800;stroke-width:2"  />
  <line x1="-350" y1="-300" x2="-170" y2="-300" style="stroke:#800;stroke-width:10;stroke-opacity:1.000000;stroke-linecap:round"/>
  <circle cx="-135" cy="-300" r="35"
    style="fill:none;stroke:#800;stroke-width:10"  />
  <g transform="translate(-260,-306) rotate(0)" > <text font-size="83.3333333333" fill="#800" font-family="monospace"  >
   3
  </text> </g> 
  <circle cx="-350" cy="-300" r="10"
    style="fill:none;stroke:#800;stroke-width:2"  />
  <line x1="-350" y1="-200" x2="-170" y2="-200" style="stroke:#800;stroke-width:10;stroke-opacity:1.000000;stroke-linecap:round"/>
  <circle cx="-135" cy="-200" r="35"
    style="fill:none;stroke:#800;stroke-width:10"  />
  <g transform="translate(-260,-206) rotate(0)" > <text font-size="83.3333333333" fill="#800" font-family="monospace"  >
   4
  </text> </g> 
  <circle cx="-350" cy="-200" r="10"
    style="fill:none;stroke:#800;stroke-width:2"  />
  <line x1="-350" y1="-100" x2="-170" y2="-100" style="stroke:#800;stroke-width:10;stroke-opacity:1.000000;stroke-linecap:round"/>
  <circle cx="-135" cy="-100" r="35"
    style="fill:none;stroke:#800;stroke-width:10"  />
  <g transform="translate(-260,-106) rotate(0)" > <text font-size="83.3333333333" fill="#800" font-family="monospace"  >
   5
  </text> </g> 
  <circle cx="-350" cy="-100" r="10"
    style="fill:none;stroke:#800;stroke-width:2"  />
  <line x1="-350" y1="0" x2="-170" y2="0" style="stroke:#800;stroke-width:10;stroke-opacity:1.000000;stroke-linecap:round"/>
  <circle cx="-135" cy="0" r="35"
    style="fill:none;stroke:#800;stroke-width:10"  />
  <g transform="translate(-260,-6) rotate(0)" > <text font-size="83.3333333333" fill="#800" font-family="monospace"  >
   6
  </text> </g> 
  <circle cx="-350" cy="0" r="10"
    style="fill:none;stroke:#800;stroke-width:2"  />
  <line x1="-350" y1="100" x2="-170" y2="100" style="stroke:#800;stroke-width:10;stroke-opacity:1.000000;stroke-linecap:round"/>
  <circle cx="-135" cy="100" r="35"
    style="fill:none;stroke:#800;stroke-width:10"  />
  <g transform="translate(-260,94) rotate(0)" > <text font-size="83.3333333333" fill="#800" font-family="monospace"  >
   7
  </text> </g> 
  <circle cx="-350" cy="100" r="10"
    style="fill:none;stroke:#800;stroke-width:2"  />
  <line x1="-350" y1="200" x2="-170" y2="200" style="stroke:#800;stroke-width:10;stroke-opacity:1.000000;stroke-linecap:round"/>
  <circle cx="-135" cy="200" r="35"
    style="fill:none;stroke:#800;stroke-width:10"  />
  <g transform="translate(-260,194) rotate(0)" > <text font-size="83.3333333333" fill="#800" font-family="monospace"  >
   8
  </text> </g> 
  <circle cx="-350" cy="200" r="10"
    style="fill:none;stroke:#800;stroke-width:2"  />
  <line x1="-350" y1="300" x2="-170" y2="300" style="stroke:#800;stroke-width:10;stroke-opacity:1.000000;stroke-linecap:round"/>
  <circle cx="-135" cy="300" r="35"
    style="fill:none;stroke:#800;stroke-width:10"  />
  <g transform="translate(-260,294) rotate(0)" > <text font-size="83.3333333333" fill="#800" font-family="monospace"  >
   9
  </text> </g> 
  <circle cx="-350" cy="300" r="10"
    style="fill:none;stroke:#800;stroke-width:2"  />
  <line x1="-350" y1="400" x2="-170" y2="400" style="stroke:#800;stroke-width:10;stroke-opacity:1.000000;stroke-linecap:round"/>
  <circle cx="-135" cy="400" r="35"
    style="fill:none;stroke:#800;stroke-width:10"  />
  <g transform="translate(-295,394) rotate(0)" > <text font-size="83.3333333333" fill="#800" font-family="monospace"  >
   10
  </text> </g> 
  <circle cx="-350" cy="400" r="10"
    style="fill:none;stroke:#800;stroke-width:2"  />
  <line x1="-350" y1="500" x2="-170" y2="500" style="stroke:#800;stroke-width:10;stroke-opacity:1.000000;stroke-linecap:round"/>
  <circle cx="-135" cy="500" r="35"
    style="fill:none;stroke:#800;stroke-width:10"  />
  <g transform="translate(-295,494) rotate(0)" > <text font-size="83.3333333333" fill="#800" font-family="monospace"  >
   11
  </text> </g> 
  <circle cx="-350" cy="500" r="10"
    style="fill:none;stroke:#800;stroke-width:2"  />
 </g>
</svg>
