<?xml version="1.0"?>
<svg height="259" width="254"  >
 <g style="fill-opacity:1.0; stroke:black;
  stroke-width:1;" transform=" translate( 127.325,129.625 ) scale( 0.15,0.15 )">
  <g transform="translate(-30,-670) rotate(0)" > <text font-size="100.0" fill="#088" font-family="monospace"  >
   P
  </text> </g> 
  <g transform="translate(-225,25) rotate(-90)" > <text font-size="83.3333333333" fill="#088" font-family="monospace"  >
   CONN_13X2
  </text> </g> 
  <rect x="-100" y="-650" height="1300"
    width="200" style="fill:none;stroke:#800;stroke-width:10" />
  <line x1="-400" y1="-600" x2="-170" y2="-600" style="stroke:#800;stroke-width:10;stroke-opacity:1.000000;stroke-linecap:round"/>
  <circle cx="-135" cy="-600" r="35"
    style="fill:none;stroke:#800;stroke-width:10"  />
  <g transform="translate(-278,-606) rotate(0)" > <text font-size="66.6666666667" fill="#800" font-family="monospace"  >
   1
  </text> </g> 
  <circle cx="-400" cy="-600" r="10"
    style="fill:none;stroke:#800;stroke-width:2"  />
  <line x1="400" y1="-600" x2="170" y2="-600" style="stroke:#800;stroke-width:10;stroke-opacity:1.000000;stroke-linecap:round"/>
  <circle cx="135" cy="-600" r="35"
    style="fill:none;stroke:#800;stroke-width:10"  />
  <g transform="translate(221,-606) rotate(0)" > <text font-size="66.6666666667" fill="#800" font-family="monospace"  >
   2
  </text> </g> 
  <circle cx="400" cy="-600" r="10"
    style="fill:none;stroke:#800;stroke-width:2"  />
  <line x1="-400" y1="-500" x2="-170" y2="-500" style="stroke:#800;stroke-width:10;stroke-opacity:1.000000;stroke-linecap:round"/>
  <circle cx="-135" cy="-500" r="35"
    style="fill:none;stroke:#800;stroke-width:10"  />
  <g transform="translate(-278,-506) rotate(0)" > <text font-size="66.6666666667" fill="#800" font-family="monospace"  >
   3
  </text> </g> 
  <circle cx="-400" cy="-500" r="10"
    style="fill:none;stroke:#800;stroke-width:2"  />
  <line x1="400" y1="-500" x2="170" y2="-500" style="stroke:#800;stroke-width:10;stroke-opacity:1.000000;stroke-linecap:round"/>
  <circle cx="135" cy="-500" r="35"
    style="fill:none;stroke:#800;stroke-width:10"  />
  <g transform="translate(221,-506) rotate(0)" > <text font-size="66.6666666667" fill="#800" font-family="monospace"  >
   4
  </text> </g> 
  <circle cx="400" cy="-500" r="10"
    style="fill:none;stroke:#800;stroke-width:2"  />
  <line x1="-400" y1="-400" x2="-170" y2="-400" style="stroke:#800;stroke-width:10;stroke-opacity:1.000000;stroke-linecap:round"/>
  <circle cx="-135" cy="-400" r="35"
    style="fill:none;stroke:#800;stroke-width:10"  />
  <g transform="translate(-278,-406) rotate(0)" > <text font-size="66.6666666667" fill="#800" font-family="monospace"  >
   5
  </text> </g> 
  <circle cx="-400" cy="-400" r="10"
    style="fill:none;stroke:#800;stroke-width:2"  />
  <line x1="400" y1="-400" x2="170" y2="-400" style="stroke:#800;stroke-width:10;stroke-opacity:1.000000;stroke-linecap:round"/>
  <circle cx="135" cy="-400" r="35"
    style="fill:none;stroke:#800;stroke-width:10"  />
  <g transform="translate(221,-406) rotate(0)" > <text font-size="66.6666666667" fill="#800" font-family="monospace"  >
   6
  </text> </g> 
  <circle cx="400" cy="-400" r="10"
    style="fill:none;stroke:#800;stroke-width:2"  />
  <line x1="-400" y1="-300" x2="-170" y2="-300" style="stroke:#800;stroke-width:10;stroke-opacity:1.000000;stroke-linecap:round"/>
  <circle cx="-135" cy="-300" r="35"
    style="fill:none;stroke:#800;stroke-width:10"  />
  <g transform="translate(-278,-306) rotate(0)" > <text font-size="66.6666666667" fill="#800" font-family="monospace"  >
   7
  </text> </g> 
  <circle cx="-400" cy="-300" r="10"
    style="fill:none;stroke:#800;stroke-width:2"  />
  <line x1="400" y1="-300" x2="170" y2="-300" style="stroke:#800;stroke-width:10;stroke-opacity:1.000000;stroke-linecap:round"/>
  <circle cx="135" cy="-300" r="35"
    style="fill:none;stroke:#800;stroke-width:10"  />
  <g transform="translate(221,-306) rotate(0)" > <text font-size="66.6666666667" fill="#800" font-family="monospace"  >
   8
  </text> </g> 
  <circle cx="400" cy="-300" r="10"
    style="fill:none;stroke:#800;stroke-width:2"  />
  <line x1="-400" y1="-200" x2="-170" y2="-200" style="stroke:#800;stroke-width:10;stroke-opacity:1.000000;stroke-linecap:round"/>
  <circle cx="-135" cy="-200" r="35"
    style="fill:none;stroke:#800;stroke-width:10"  />
  <g transform="translate(-278,-206) rotate(0)" > <text font-size="66.6666666667" fill="#800" font-family="monospace"  >
   9
  </text> </g> 
  <circle cx="-400" cy="-200" r="10"
    style="fill:none;stroke:#800;stroke-width:2"  />
  <line x1="400" y1="-200" x2="170" y2="-200" style="stroke:#800;stroke-width:10;stroke-opacity:1.000000;stroke-linecap:round"/>
  <circle cx="135" cy="-200" r="35"
    style="fill:none;stroke:#800;stroke-width:10"  />
  <g transform="translate(193,-206) rotate(0)" > <text font-size="66.6666666667" fill="#800" font-family="monospace"  >
   10
  </text> </g> 
  <circle cx="400" cy="-200" r="10"
    style="fill:none;stroke:#800;stroke-width:2"  />
  <line x1="400" y1="300" x2="170" y2="300" style="stroke:#800;stroke-width:10;stroke-opacity:1.000000;stroke-linecap:round"/>
  <circle cx="135" cy="300" r="35"
    style="fill:none;stroke:#800;stroke-width:10"  />
  <g transform="translate(193,294) rotate(0)" > <text font-size="66.6666666667" fill="#800" font-family="monospace"  >
   20
  </text> </g> 
  <circle cx="400" cy="300" r="10"
    style="fill:none;stroke:#800;stroke-width:2"  />
  <line x1="-400" y1="-100" x2="-170" y2="-100" style="stroke:#800;stroke-width:10;stroke-opacity:1.000000;stroke-linecap:round"/>
  <circle cx="-135" cy="-100" r="35"
    style="fill:none;stroke:#800;stroke-width:10"  />
  <g transform="translate(-306,-106) rotate(0)" > <text font-size="66.6666666667" fill="#800" font-family="monospace"  >
   11
  </text> </g> 
  <circle cx="-400" cy="-100" r="10"
    style="fill:none;stroke:#800;stroke-width:2"  />
  <line x1="-400" y1="400" x2="-170" y2="400" style="stroke:#800;stroke-width:10;stroke-opacity:1.000000;stroke-linecap:round"/>
  <circle cx="-135" cy="400" r="35"
    style="fill:none;stroke:#800;stroke-width:10"  />
  <g transform="translate(-306,394) rotate(0)" > <text font-size="66.6666666667" fill="#800" font-family="monospace"  >
   21
  </text> </g> 
  <circle cx="-400" cy="400" r="10"
    style="fill:none;stroke:#800;stroke-width:2"  />
  <line x1="400" y1="-100" x2="170" y2="-100" style="stroke:#800;stroke-width:10;stroke-opacity:1.000000;stroke-linecap:round"/>
  <circle cx="135" cy="-100" r="35"
    style="fill:none;stroke:#800;stroke-width:10"  />
  <g transform="translate(193,-106) rotate(0)" > <text font-size="66.6666666667" fill="#800" font-family="monospace"  >
   12
  </text> </g> 
  <circle cx="400" cy="-100" r="10"
    style="fill:none;stroke:#800;stroke-width:2"  />
  <line x1="400" y1="400" x2="170" y2="400" style="stroke:#800;stroke-width:10;stroke-opacity:1.000000;stroke-linecap:round"/>
  <circle cx="135" cy="400" r="35"
    style="fill:none;stroke:#800;stroke-width:10"  />
  <g transform="translate(193,394) rotate(0)" > <text font-size="66.6666666667" fill="#800" font-family="monospace"  >
   22
  </text> </g> 
  <circle cx="400" cy="400" r="10"
    style="fill:none;stroke:#800;stroke-width:2"  />
  <line x1="-400" y1="0" x2="-170" y2="0" style="stroke:#800;stroke-width:10;stroke-opacity:1.000000;stroke-linecap:round"/>
  <circle cx="-135" cy="0" r="35"
    style="fill:none;stroke:#800;stroke-width:10"  />
  <g transform="translate(-306,-6) rotate(0)" > <text font-size="66.6666666667" fill="#800" font-family="monospace"  >
   13
  </text> </g> 
  <circle cx="-400" cy="0" r="10"
    style="fill:none;stroke:#800;stroke-width:2"  />
  <line x1="-400" y1="500" x2="-170" y2="500" style="stroke:#800;stroke-width:10;stroke-opacity:1.000000;stroke-linecap:round"/>
  <circle cx="-135" cy="500" r="35"
    style="fill:none;stroke:#800;stroke-width:10"  />
  <g transform="translate(-306,494) rotate(0)" > <text font-size="66.6666666667" fill="#800" font-family="monospace"  >
   23
  </text> </g> 
  <circle cx="-400" cy="500" r="10"
    style="fill:none;stroke:#800;stroke-width:2"  />
  <line x1="400" y1="0" x2="170" y2="0" style="stroke:#800;stroke-width:10;stroke-opacity:1.000000;stroke-linecap:round"/>
  <circle cx="135" cy="0" r="35"
    style="fill:none;stroke:#800;stroke-width:10"  />
  <g transform="translate(193,-6) rotate(0)" > <text font-size="66.6666666667" fill="#800" font-family="monospace"  >
   14
  </text> </g> 
  <circle cx="400" cy="0" r="10"
    style="fill:none;stroke:#800;stroke-width:2"  />
  <line x1="400" y1="500" x2="170" y2="500" style="stroke:#800;stroke-width:10;stroke-opacity:1.000000;stroke-linecap:round"/>
  <circle cx="135" cy="500" r="35"
    style="fill:none;stroke:#800;stroke-width:10"  />
  <g transform="translate(193,494) rotate(0)" > <text font-size="66.6666666667" fill="#800" font-family="monospace"  >
   24
  </text> </g> 
  <circle cx="400" cy="500" r="10"
    style="fill:none;stroke:#800;stroke-width:2"  />
  <line x1="-400" y1="100" x2="-170" y2="100" style="stroke:#800;stroke-width:10;stroke-opacity:1.000000;stroke-linecap:round"/>
  <circle cx="-135" cy="100" r="35"
    style="fill:none;stroke:#800;stroke-width:10"  />
  <g transform="translate(-306,94) rotate(0)" > <text font-size="66.6666666667" fill="#800" font-family="monospace"  >
   15
  </text> </g> 
  <circle cx="-400" cy="100" r="10"
    style="fill:none;stroke:#800;stroke-width:2"  />
  <line x1="-400" y1="600" x2="-170" y2="600" style="stroke:#800;stroke-width:10;stroke-opacity:1.000000;stroke-linecap:round"/>
  <circle cx="-135" cy="600" r="35"
    style="fill:none;stroke:#800;stroke-width:10"  />
  <g transform="translate(-306,594) rotate(0)" > <text font-size="66.6666666667" fill="#800" font-family="monospace"  >
   25
  </text> </g> 
  <circle cx="-400" cy="600" r="10"
    style="fill:none;stroke:#800;stroke-width:2"  />
  <line x1="400" y1="100" x2="170" y2="100" style="stroke:#800;stroke-width:10;stroke-opacity:1.000000;stroke-linecap:round"/>
  <circle cx="135" cy="100" r="35"
    style="fill:none;stroke:#800;stroke-width:10"  />
  <g transform="translate(193,94) rotate(0)" > <text font-size="66.6666666667" fill="#800" font-family="monospace"  >
   16
  </text> </g> 
  <circle cx="400" cy="100" r="10"
    style="fill:none;stroke:#800;stroke-width:2"  />
  <line x1="400" y1="600" x2="170" y2="600" style="stroke:#800;stroke-width:10;stroke-opacity:1.000000;stroke-linecap:round"/>
  <circle cx="135" cy="600" r="35"
    style="fill:none;stroke:#800;stroke-width:10"  />
  <g transform="translate(193,594) rotate(0)" > <text font-size="66.6666666667" fill="#800" font-family="monospace"  >
   26
  </text> </g> 
  <circle cx="400" cy="600" r="10"
    style="fill:none;stroke:#800;stroke-width:2"  />
  <line x1="-400" y1="200" x2="-170" y2="200" style="stroke:#800;stroke-width:10;stroke-opacity:1.000000;stroke-linecap:round"/>
  <circle cx="-135" cy="200" r="35"
    style="fill:none;stroke:#800;stroke-width:10"  />
  <g transform="translate(-306,194) rotate(0)" > <text font-size="66.6666666667" fill="#800" font-family="monospace"  >
   17
  </text> </g> 
  <circle cx="-400" cy="200" r="10"
    style="fill:none;stroke:#800;stroke-width:2"  />
  <line x1="400" y1="200" x2="170" y2="200" style="stroke:#800;stroke-width:10;stroke-opacity:1.000000;stroke-linecap:round"/>
  <circle cx="135" cy="200" r="35"
    style="fill:none;stroke:#800;stroke-width:10"  />
  <g transform="translate(193,194) rotate(0)" > <text font-size="66.6666666667" fill="#800" font-family="monospace"  >
   18
  </text> </g> 
  <circle cx="400" cy="200" r="10"
    style="fill:none;stroke:#800;stroke-width:2"  />
  <line x1="-400" y1="300" x2="-170" y2="300" style="stroke:#800;stroke-width:10;stroke-opacity:1.000000;stroke-linecap:round"/>
  <circle cx="-135" cy="300" r="35"
    style="fill:none;stroke:#800;stroke-width:10"  />
  <g transform="translate(-306,294) rotate(0)" > <text font-size="66.6666666667" fill="#800" font-family="monospace"  >
   19
  </text> </g> 
  <circle cx="-400" cy="300" r="10"
    style="fill:none;stroke:#800;stroke-width:2"  />
 </g>
</svg>
