<?xml version="1.0"?>
<svg height="220" width="220"  >
 <g style="fill-opacity:1.0; stroke:black;
  stroke-width:1;" transform=" translate( 110.2,110.2 ) scale( 0.15,0.15 )">
  <g transform="translate(-35,-515) rotate(0)" > <text font-size="116.666666667" fill="#088" font-family="monospace"  >
   P
  </text> </g> 
  <g transform="translate(-175,35) rotate(-90)" > <text font-size="116.666666667" fill="#088" font-family="monospace"  >
   DIL20
  </text> </g> 
  <rect x="-150" y="-500" height="1000"
    width="300" style="fill:none;stroke:#800;stroke-width:10" />
  <line x1="-350" y1="-450" x2="-220" y2="-450" style="stroke:#800;stroke-width:10;stroke-opacity:1.000000;stroke-linecap:round"/>
  <circle cx="-185" cy="-450" r="35"
    style="fill:none;stroke:#800;stroke-width:10"  />
  <g transform="translate(-278,-456) rotate(0)" > <text font-size="66.6666666667" fill="#800" font-family="monospace"  >
   1
  </text> </g> 
  <circle cx="-350" cy="-450" r="10"
    style="fill:none;stroke:#800;stroke-width:2"  />
  <line x1="-350" y1="-350" x2="-220" y2="-350" style="stroke:#800;stroke-width:10;stroke-opacity:1.000000;stroke-linecap:round"/>
  <circle cx="-185" cy="-350" r="35"
    style="fill:none;stroke:#800;stroke-width:10"  />
  <g transform="translate(-278,-356) rotate(0)" > <text font-size="66.6666666667" fill="#800" font-family="monospace"  >
   2
  </text> </g> 
  <circle cx="-350" cy="-350" r="10"
    style="fill:none;stroke:#800;stroke-width:2"  />
  <line x1="-350" y1="-250" x2="-220" y2="-250" style="stroke:#800;stroke-width:10;stroke-opacity:1.000000;stroke-linecap:round"/>
  <circle cx="-185" cy="-250" r="35"
    style="fill:none;stroke:#800;stroke-width:10"  />
  <g transform="translate(-278,-256) rotate(0)" > <text font-size="66.6666666667" fill="#800" font-family="monospace"  >
   3
  </text> </g> 
  <circle cx="-350" cy="-250" r="10"
    style="fill:none;stroke:#800;stroke-width:2"  />
  <line x1="-350" y1="-150" x2="-220" y2="-150" style="stroke:#800;stroke-width:10;stroke-opacity:1.000000;stroke-linecap:round"/>
  <circle cx="-185" cy="-150" r="35"
    style="fill:none;stroke:#800;stroke-width:10"  />
  <g transform="translate(-278,-156) rotate(0)" > <text font-size="66.6666666667" fill="#800" font-family="monospace"  >
   4
  </text> </g> 
  <circle cx="-350" cy="-150" r="10"
    style="fill:none;stroke:#800;stroke-width:2"  />
  <line x1="-350" y1="-50" x2="-220" y2="-50" style="stroke:#800;stroke-width:10;stroke-opacity:1.000000;stroke-linecap:round"/>
  <circle cx="-185" cy="-50" r="35"
    style="fill:none;stroke:#800;stroke-width:10"  />
  <g transform="translate(-278,-56) rotate(0)" > <text font-size="66.6666666667" fill="#800" font-family="monospace"  >
   5
  </text> </g> 
  <circle cx="-350" cy="-50" r="10"
    style="fill:none;stroke:#800;stroke-width:2"  />
  <line x1="-350" y1="50" x2="-220" y2="50" style="stroke:#800;stroke-width:10;stroke-opacity:1.000000;stroke-linecap:round"/>
  <circle cx="-185" cy="50" r="35"
    style="fill:none;stroke:#800;stroke-width:10"  />
  <g transform="translate(-278,44) rotate(0)" > <text font-size="66.6666666667" fill="#800" font-family="monospace"  >
   6
  </text> </g> 
  <circle cx="-350" cy="50" r="10"
    style="fill:none;stroke:#800;stroke-width:2"  />
  <line x1="-350" y1="150" x2="-220" y2="150" style="stroke:#800;stroke-width:10;stroke-opacity:1.000000;stroke-linecap:round"/>
  <circle cx="-185" cy="150" r="35"
    style="fill:none;stroke:#800;stroke-width:10"  />
  <g transform="translate(-278,144) rotate(0)" > <text font-size="66.6666666667" fill="#800" font-family="monospace"  >
   7
  </text> </g> 
  <circle cx="-350" cy="150" r="10"
    style="fill:none;stroke:#800;stroke-width:2"  />
  <line x1="-350" y1="250" x2="-220" y2="250" style="stroke:#800;stroke-width:10;stroke-opacity:1.000000;stroke-linecap:round"/>
  <circle cx="-185" cy="250" r="35"
    style="fill:none;stroke:#800;stroke-width:10"  />
  <g transform="translate(-278,244) rotate(0)" > <text font-size="66.6666666667" fill="#800" font-family="monospace"  >
   8
  </text> </g> 
  <circle cx="-350" cy="250" r="10"
    style="fill:none;stroke:#800;stroke-width:2"  />
  <line x1="-350" y1="350" x2="-220" y2="350" style="stroke:#800;stroke-width:10;stroke-opacity:1.000000;stroke-linecap:round"/>
  <circle cx="-185" cy="350" r="35"
    style="fill:none;stroke:#800;stroke-width:10"  />
  <g transform="translate(-278,344) rotate(0)" > <text font-size="66.6666666667" fill="#800" font-family="monospace"  >
   9
  </text> </g> 
  <circle cx="-350" cy="350" r="10"
    style="fill:none;stroke:#800;stroke-width:2"  />
  <line x1="-350" y1="450" x2="-220" y2="450" style="stroke:#800;stroke-width:10;stroke-opacity:1.000000;stroke-linecap:round"/>
  <circle cx="-185" cy="450" r="35"
    style="fill:none;stroke:#800;stroke-width:10"  />
  <g transform="translate(-306,444) rotate(0)" > <text font-size="66.6666666667" fill="#800" font-family="monospace"  >
   10
  </text> </g> 
  <circle cx="-350" cy="450" r="10"
    style="fill:none;stroke:#800;stroke-width:2"  />
  <line x1="350" y1="-450" x2="220" y2="-450" style="stroke:#800;stroke-width:10;stroke-opacity:1.000000;stroke-linecap:round"/>
  <circle cx="185" cy="-450" r="35"
    style="fill:none;stroke:#800;stroke-width:10"  />
  <g transform="translate(193,-456) rotate(0)" > <text font-size="66.6666666667" fill="#800" font-family="monospace"  >
   20
  </text> </g> 
  <circle cx="350" cy="-450" r="10"
    style="fill:none;stroke:#800;stroke-width:2"  />
  <line x1="350" y1="450" x2="220" y2="450" style="stroke:#800;stroke-width:10;stroke-opacity:1.000000;stroke-linecap:round"/>
  <circle cx="185" cy="450" r="35"
    style="fill:none;stroke:#800;stroke-width:10"  />
  <g transform="translate(193,444) rotate(0)" > <text font-size="66.6666666667" fill="#800" font-family="monospace"  >
   11
  </text> </g> 
  <circle cx="350" cy="450" r="10"
    style="fill:none;stroke:#800;stroke-width:2"  />
  <line x1="350" y1="350" x2="220" y2="350" style="stroke:#800;stroke-width:10;stroke-opacity:1.000000;stroke-linecap:round"/>
  <circle cx="185" cy="350" r="35"
    style="fill:none;stroke:#800;stroke-width:10"  />
  <g transform="translate(193,344) rotate(0)" > <text font-size="66.6666666667" fill="#800" font-family="monospace"  >
   12
  </text> </g> 
  <circle cx="350" cy="350" r="10"
    style="fill:none;stroke:#800;stroke-width:2"  />
  <line x1="350" y1="250" x2="220" y2="250" style="stroke:#800;stroke-width:10;stroke-opacity:1.000000;stroke-linecap:round"/>
  <circle cx="185" cy="250" r="35"
    style="fill:none;stroke:#800;stroke-width:10"  />
  <g transform="translate(193,244) rotate(0)" > <text font-size="66.6666666667" fill="#800" font-family="monospace"  >
   13
  </text> </g> 
  <circle cx="350" cy="250" r="10"
    style="fill:none;stroke:#800;stroke-width:2"  />
  <line x1="350" y1="150" x2="220" y2="150" style="stroke:#800;stroke-width:10;stroke-opacity:1.000000;stroke-linecap:round"/>
  <circle cx="185" cy="150" r="35"
    style="fill:none;stroke:#800;stroke-width:10"  />
  <g transform="translate(193,144) rotate(0)" > <text font-size="66.6666666667" fill="#800" font-family="monospace"  >
   14
  </text> </g> 
  <circle cx="350" cy="150" r="10"
    style="fill:none;stroke:#800;stroke-width:2"  />
  <line x1="350" y1="50" x2="220" y2="50" style="stroke:#800;stroke-width:10;stroke-opacity:1.000000;stroke-linecap:round"/>
  <circle cx="185" cy="50" r="35"
    style="fill:none;stroke:#800;stroke-width:10"  />
  <g transform="translate(193,44) rotate(0)" > <text font-size="66.6666666667" fill="#800" font-family="monospace"  >
   15
  </text> </g> 
  <circle cx="350" cy="50" r="10"
    style="fill:none;stroke:#800;stroke-width:2"  />
  <line x1="350" y1="-50" x2="220" y2="-50" style="stroke:#800;stroke-width:10;stroke-opacity:1.000000;stroke-linecap:round"/>
  <circle cx="185" cy="-50" r="35"
    style="fill:none;stroke:#800;stroke-width:10"  />
  <g transform="translate(193,-56) rotate(0)" > <text font-size="66.6666666667" fill="#800" font-family="monospace"  >
   16
  </text> </g> 
  <circle cx="350" cy="-50" r="10"
    style="fill:none;stroke:#800;stroke-width:2"  />
  <line x1="350" y1="-150" x2="220" y2="-150" style="stroke:#800;stroke-width:10;stroke-opacity:1.000000;stroke-linecap:round"/>
  <circle cx="185" cy="-150" r="35"
    style="fill:none;stroke:#800;stroke-width:10"  />
  <g transform="translate(193,-156) rotate(0)" > <text font-size="66.6666666667" fill="#800" font-family="monospace"  >
   17
  </text> </g> 
  <circle cx="350" cy="-150" r="10"
    style="fill:none;stroke:#800;stroke-width:2"  />
  <line x1="350" y1="-250" x2="220" y2="-250" style="stroke:#800;stroke-width:10;stroke-opacity:1.000000;stroke-linecap:round"/>
  <circle cx="185" cy="-250" r="35"
    style="fill:none;stroke:#800;stroke-width:10"  />
  <g transform="translate(193,-256) rotate(0)" > <text font-size="66.6666666667" fill="#800" font-family="monospace"  >
   18
  </text> </g> 
  <circle cx="350" cy="-250" r="10"
    style="fill:none;stroke:#800;stroke-width:2"  />
  <line x1="350" y1="-350" x2="220" y2="-350" style="stroke:#800;stroke-width:10;stroke-opacity:1.000000;stroke-linecap:round"/>
  <circle cx="185" cy="-350" r="35"
    style="fill:none;stroke:#800;stroke-width:10"  />
  <g transform="translate(193,-356) rotate(0)" > <text font-size="66.6666666667" fill="#800" font-family="monospace"  >
   19
  </text> </g> 
  <circle cx="350" cy="-350" r="10"
    style="fill:none;stroke:#800;stroke-width:2"  />
 </g>
</svg>
