<?xml version="1.0"?>
<svg height="371" width="371"  >
 <g style="fill-opacity:1.0; stroke:black;
  stroke-width:1;" transform=" translate( 185.95,185.95 ) scale( 0.15,0.15 )">
  <g transform="translate(-35,-1015) rotate(0)" > <text font-size="116.666666667" fill="#088" font-family="monospace"  >
   P
  </text> </g> 
  <g transform="translate(-150,30) rotate(-90)" > <text font-size="100.0" fill="#088" font-family="monospace"  >
   DIL40
  </text> </g> 
  <rect x="-50" y="-1000" height="2000"
    width="100" style="fill:none;stroke:#800;stroke-width:10" />
  <line x1="-350" y1="-950" x2="-120" y2="-950" style="stroke:#800;stroke-width:10;stroke-opacity:1.000000;stroke-linecap:round"/>
  <circle cx="-85" cy="-950" r="35"
    style="fill:none;stroke:#800;stroke-width:10"  />
  <g transform="translate(-242,-956) rotate(0)" > <text font-size="100.0" fill="#800" font-family="monospace"  >
   1
  </text> </g> 
  <circle cx="-350" cy="-950" r="10"
    style="fill:none;stroke:#800;stroke-width:2"  />
  <line x1="-350" y1="-850" x2="-120" y2="-850" style="stroke:#800;stroke-width:10;stroke-opacity:1.000000;stroke-linecap:round"/>
  <circle cx="-85" cy="-850" r="35"
    style="fill:none;stroke:#800;stroke-width:10"  />
  <g transform="translate(-242,-856) rotate(0)" > <text font-size="100.0" fill="#800" font-family="monospace"  >
   2
  </text> </g> 
  <circle cx="-350" cy="-850" r="10"
    style="fill:none;stroke:#800;stroke-width:2"  />
  <line x1="-350" y1="-750" x2="-120" y2="-750" style="stroke:#800;stroke-width:10;stroke-opacity:1.000000;stroke-linecap:round"/>
  <circle cx="-85" cy="-750" r="35"
    style="fill:none;stroke:#800;stroke-width:10"  />
  <g transform="translate(-242,-756) rotate(0)" > <text font-size="100.0" fill="#800" font-family="monospace"  >
   3
  </text> </g> 
  <circle cx="-350" cy="-750" r="10"
    style="fill:none;stroke:#800;stroke-width:2"  />
  <line x1="-350" y1="-650" x2="-120" y2="-650" style="stroke:#800;stroke-width:10;stroke-opacity:1.000000;stroke-linecap:round"/>
  <circle cx="-85" cy="-650" r="35"
    style="fill:none;stroke:#800;stroke-width:10"  />
  <g transform="translate(-242,-656) rotate(0)" > <text font-size="100.0" fill="#800" font-family="monospace"  >
   4
  </text> </g> 
  <circle cx="-350" cy="-650" r="10"
    style="fill:none;stroke:#800;stroke-width:2"  />
  <line x1="-350" y1="-550" x2="-120" y2="-550" style="stroke:#800;stroke-width:10;stroke-opacity:1.000000;stroke-linecap:round"/>
  <circle cx="-85" cy="-550" r="35"
    style="fill:none;stroke:#800;stroke-width:10"  />
  <g transform="translate(-242,-556) rotate(0)" > <text font-size="100.0" fill="#800" font-family="monospace"  >
   5
  </text> </g> 
  <circle cx="-350" cy="-550" r="10"
    style="fill:none;stroke:#800;stroke-width:2"  />
  <line x1="-350" y1="-450" x2="-120" y2="-450" style="stroke:#800;stroke-width:10;stroke-opacity:1.000000;stroke-linecap:round"/>
  <circle cx="-85" cy="-450" r="35"
    style="fill:none;stroke:#800;stroke-width:10"  />
  <g transform="translate(-242,-456) rotate(0)" > <text font-size="100.0" fill="#800" font-family="monospace"  >
   6
  </text> </g> 
  <circle cx="-350" cy="-450" r="10"
    style="fill:none;stroke:#800;stroke-width:2"  />
  <line x1="-350" y1="-350" x2="-120" y2="-350" style="stroke:#800;stroke-width:10;stroke-opacity:1.000000;stroke-linecap:round"/>
  <circle cx="-85" cy="-350" r="35"
    style="fill:none;stroke:#800;stroke-width:10"  />
  <g transform="translate(-242,-356) rotate(0)" > <text font-size="100.0" fill="#800" font-family="monospace"  >
   7
  </text> </g> 
  <circle cx="-350" cy="-350" r="10"
    style="fill:none;stroke:#800;stroke-width:2"  />
  <line x1="-350" y1="-250" x2="-120" y2="-250" style="stroke:#800;stroke-width:10;stroke-opacity:1.000000;stroke-linecap:round"/>
  <circle cx="-85" cy="-250" r="35"
    style="fill:none;stroke:#800;stroke-width:10"  />
  <g transform="translate(-242,-256) rotate(0)" > <text font-size="100.0" fill="#800" font-family="monospace"  >
   8
  </text> </g> 
  <circle cx="-350" cy="-250" r="10"
    style="fill:none;stroke:#800;stroke-width:2"  />
  <line x1="-350" y1="-150" x2="-120" y2="-150" style="stroke:#800;stroke-width:10;stroke-opacity:1.000000;stroke-linecap:round"/>
  <circle cx="-85" cy="-150" r="35"
    style="fill:none;stroke:#800;stroke-width:10"  />
  <g transform="translate(-242,-156) rotate(0)" > <text font-size="100.0" fill="#800" font-family="monospace"  >
   9
  </text> </g> 
  <circle cx="-350" cy="-150" r="10"
    style="fill:none;stroke:#800;stroke-width:2"  />
  <line x1="-350" y1="-50" x2="-120" y2="-50" style="stroke:#800;stroke-width:10;stroke-opacity:1.000000;stroke-linecap:round"/>
  <circle cx="-85" cy="-50" r="35"
    style="fill:none;stroke:#800;stroke-width:10"  />
  <g transform="translate(-285,-56) rotate(0)" > <text font-size="100.0" fill="#800" font-family="monospace"  >
   10
  </text> </g> 
  <circle cx="-350" cy="-50" r="10"
    style="fill:none;stroke:#800;stroke-width:2"  />
  <line x1="-350" y1="950" x2="-120" y2="950" style="stroke:#800;stroke-width:10;stroke-opacity:1.000000;stroke-linecap:round"/>
  <circle cx="-85" cy="950" r="35"
    style="fill:none;stroke:#800;stroke-width:10"  />
  <g transform="translate(-285,944) rotate(0)" > <text font-size="100.0" fill="#800" font-family="monospace"  >
   20
  </text> </g> 
  <circle cx="-350" cy="950" r="10"
    style="fill:none;stroke:#800;stroke-width:2"  />
  <line x1="350" y1="50" x2="120" y2="50" style="stroke:#800;stroke-width:10;stroke-opacity:1.000000;stroke-linecap:round"/>
  <circle cx="85" cy="50" r="35"
    style="fill:none;stroke:#800;stroke-width:10"  />
  <g transform="translate(115,44) rotate(0)" > <text font-size="100.0" fill="#800" font-family="monospace"  >
   30
  </text> </g> 
  <circle cx="350" cy="50" r="10"
    style="fill:none;stroke:#800;stroke-width:2"  />
  <line x1="350" y1="-950" x2="120" y2="-950" style="stroke:#800;stroke-width:10;stroke-opacity:1.000000;stroke-linecap:round"/>
  <circle cx="85" cy="-950" r="35"
    style="fill:none;stroke:#800;stroke-width:10"  />
  <g transform="translate(115,-956) rotate(0)" > <text font-size="100.0" fill="#800" font-family="monospace"  >
   40
  </text> </g> 
  <circle cx="350" cy="-950" r="10"
    style="fill:none;stroke:#800;stroke-width:2"  />
  <line x1="-350" y1="50" x2="-120" y2="50" style="stroke:#800;stroke-width:10;stroke-opacity:1.000000;stroke-linecap:round"/>
  <circle cx="-85" cy="50" r="35"
    style="fill:none;stroke:#800;stroke-width:10"  />
  <g transform="translate(-285,44) rotate(0)" > <text font-size="100.0" fill="#800" font-family="monospace"  >
   11
  </text> </g> 
  <circle cx="-350" cy="50" r="10"
    style="fill:none;stroke:#800;stroke-width:2"  />
  <line x1="350" y1="950" x2="120" y2="950" style="stroke:#800;stroke-width:10;stroke-opacity:1.000000;stroke-linecap:round"/>
  <circle cx="85" cy="950" r="35"
    style="fill:none;stroke:#800;stroke-width:10"  />
  <g transform="translate(115,944) rotate(0)" > <text font-size="100.0" fill="#800" font-family="monospace"  >
   21
  </text> </g> 
  <circle cx="350" cy="950" r="10"
    style="fill:none;stroke:#800;stroke-width:2"  />
  <line x1="350" y1="-50" x2="120" y2="-50" style="stroke:#800;stroke-width:10;stroke-opacity:1.000000;stroke-linecap:round"/>
  <circle cx="85" cy="-50" r="35"
    style="fill:none;stroke:#800;stroke-width:10"  />
  <g transform="translate(115,-56) rotate(0)" > <text font-size="100.0" fill="#800" font-family="monospace"  >
   31
  </text> </g> 
  <circle cx="350" cy="-50" r="10"
    style="fill:none;stroke:#800;stroke-width:2"  />
  <line x1="-350" y1="150" x2="-120" y2="150" style="stroke:#800;stroke-width:10;stroke-opacity:1.000000;stroke-linecap:round"/>
  <circle cx="-85" cy="150" r="35"
    style="fill:none;stroke:#800;stroke-width:10"  />
  <g transform="translate(-285,144) rotate(0)" > <text font-size="100.0" fill="#800" font-family="monospace"  >
   12
  </text> </g> 
  <circle cx="-350" cy="150" r="10"
    style="fill:none;stroke:#800;stroke-width:2"  />
  <line x1="350" y1="850" x2="120" y2="850" style="stroke:#800;stroke-width:10;stroke-opacity:1.000000;stroke-linecap:round"/>
  <circle cx="85" cy="850" r="35"
    style="fill:none;stroke:#800;stroke-width:10"  />
  <g transform="translate(115,844) rotate(0)" > <text font-size="100.0" fill="#800" font-family="monospace"  >
   22
  </text> </g> 
  <circle cx="350" cy="850" r="10"
    style="fill:none;stroke:#800;stroke-width:2"  />
  <line x1="350" y1="-150" x2="120" y2="-150" style="stroke:#800;stroke-width:10;stroke-opacity:1.000000;stroke-linecap:round"/>
  <circle cx="85" cy="-150" r="35"
    style="fill:none;stroke:#800;stroke-width:10"  />
  <g transform="translate(115,-156) rotate(0)" > <text font-size="100.0" fill="#800" font-family="monospace"  >
   32
  </text> </g> 
  <circle cx="350" cy="-150" r="10"
    style="fill:none;stroke:#800;stroke-width:2"  />
  <line x1="-350" y1="250" x2="-120" y2="250" style="stroke:#800;stroke-width:10;stroke-opacity:1.000000;stroke-linecap:round"/>
  <circle cx="-85" cy="250" r="35"
    style="fill:none;stroke:#800;stroke-width:10"  />
  <g transform="translate(-285,244) rotate(0)" > <text font-size="100.0" fill="#800" font-family="monospace"  >
   13
  </text> </g> 
  <circle cx="-350" cy="250" r="10"
    style="fill:none;stroke:#800;stroke-width:2"  />
  <line x1="350" y1="750" x2="120" y2="750" style="stroke:#800;stroke-width:10;stroke-opacity:1.000000;stroke-linecap:round"/>
  <circle cx="85" cy="750" r="35"
    style="fill:none;stroke:#800;stroke-width:10"  />
  <g transform="translate(115,744) rotate(0)" > <text font-size="100.0" fill="#800" font-family="monospace"  >
   23
  </text> </g> 
  <circle cx="350" cy="750" r="10"
    style="fill:none;stroke:#800;stroke-width:2"  />
  <line x1="350" y1="-250" x2="120" y2="-250" style="stroke:#800;stroke-width:10;stroke-opacity:1.000000;stroke-linecap:round"/>
  <circle cx="85" cy="-250" r="35"
    style="fill:none;stroke:#800;stroke-width:10"  />
  <g transform="translate(115,-256) rotate(0)" > <text font-size="100.0" fill="#800" font-family="monospace"  >
   33
  </text> </g> 
  <circle cx="350" cy="-250" r="10"
    style="fill:none;stroke:#800;stroke-width:2"  />
  <line x1="-350" y1="350" x2="-120" y2="350" style="stroke:#800;stroke-width:10;stroke-opacity:1.000000;stroke-linecap:round"/>
  <circle cx="-85" cy="350" r="35"
    style="fill:none;stroke:#800;stroke-width:10"  />
  <g transform="translate(-285,344) rotate(0)" > <text font-size="100.0" fill="#800" font-family="monospace"  >
   14
  </text> </g> 
  <circle cx="-350" cy="350" r="10"
    style="fill:none;stroke:#800;stroke-width:2"  />
  <line x1="350" y1="650" x2="120" y2="650" style="stroke:#800;stroke-width:10;stroke-opacity:1.000000;stroke-linecap:round"/>
  <circle cx="85" cy="650" r="35"
    style="fill:none;stroke:#800;stroke-width:10"  />
  <g transform="translate(115,644) rotate(0)" > <text font-size="100.0" fill="#800" font-family="monospace"  >
   24
  </text> </g> 
  <circle cx="350" cy="650" r="10"
    style="fill:none;stroke:#800;stroke-width:2"  />
  <line x1="350" y1="-350" x2="120" y2="-350" style="stroke:#800;stroke-width:10;stroke-opacity:1.000000;stroke-linecap:round"/>
  <circle cx="85" cy="-350" r="35"
    style="fill:none;stroke:#800;stroke-width:10"  />
  <g transform="translate(115,-356) rotate(0)" > <text font-size="100.0" fill="#800" font-family="monospace"  >
   34
  </text> </g> 
  <circle cx="350" cy="-350" r="10"
    style="fill:none;stroke:#800;stroke-width:2"  />
  <line x1="-350" y1="450" x2="-120" y2="450" style="stroke:#800;stroke-width:10;stroke-opacity:1.000000;stroke-linecap:round"/>
  <circle cx="-85" cy="450" r="35"
    style="fill:none;stroke:#800;stroke-width:10"  />
  <g transform="translate(-285,444) rotate(0)" > <text font-size="100.0" fill="#800" font-family="monospace"  >
   15
  </text> </g> 
  <circle cx="-350" cy="450" r="10"
    style="fill:none;stroke:#800;stroke-width:2"  />
  <line x1="350" y1="550" x2="120" y2="550" style="stroke:#800;stroke-width:10;stroke-opacity:1.000000;stroke-linecap:round"/>
  <circle cx="85" cy="550" r="35"
    style="fill:none;stroke:#800;stroke-width:10"  />
  <g transform="translate(115,544) rotate(0)" > <text font-size="100.0" fill="#800" font-family="monospace"  >
   25
  </text> </g> 
  <circle cx="350" cy="550" r="10"
    style="fill:none;stroke:#800;stroke-width:2"  />
  <line x1="350" y1="-450" x2="120" y2="-450" style="stroke:#800;stroke-width:10;stroke-opacity:1.000000;stroke-linecap:round"/>
  <circle cx="85" cy="-450" r="35"
    style="fill:none;stroke:#800;stroke-width:10"  />
  <g transform="translate(115,-456) rotate(0)" > <text font-size="100.0" fill="#800" font-family="monospace"  >
   35
  </text> </g> 
  <circle cx="350" cy="-450" r="10"
    style="fill:none;stroke:#800;stroke-width:2"  />
  <line x1="-350" y1="550" x2="-120" y2="550" style="stroke:#800;stroke-width:10;stroke-opacity:1.000000;stroke-linecap:round"/>
  <circle cx="-85" cy="550" r="35"
    style="fill:none;stroke:#800;stroke-width:10"  />
  <g transform="translate(-285,544) rotate(0)" > <text font-size="100.0" fill="#800" font-family="monospace"  >
   16
  </text> </g> 
  <circle cx="-350" cy="550" r="10"
    style="fill:none;stroke:#800;stroke-width:2"  />
  <line x1="350" y1="450" x2="120" y2="450" style="stroke:#800;stroke-width:10;stroke-opacity:1.000000;stroke-linecap:round"/>
  <circle cx="85" cy="450" r="35"
    style="fill:none;stroke:#800;stroke-width:10"  />
  <g transform="translate(115,444) rotate(0)" > <text font-size="100.0" fill="#800" font-family="monospace"  >
   26
  </text> </g> 
  <circle cx="350" cy="450" r="10"
    style="fill:none;stroke:#800;stroke-width:2"  />
  <line x1="350" y1="-550" x2="120" y2="-550" style="stroke:#800;stroke-width:10;stroke-opacity:1.000000;stroke-linecap:round"/>
  <circle cx="85" cy="-550" r="35"
    style="fill:none;stroke:#800;stroke-width:10"  />
  <g transform="translate(115,-556) rotate(0)" > <text font-size="100.0" fill="#800" font-family="monospace"  >
   36
  </text> </g> 
  <circle cx="350" cy="-550" r="10"
    style="fill:none;stroke:#800;stroke-width:2"  />
  <line x1="-350" y1="650" x2="-120" y2="650" style="stroke:#800;stroke-width:10;stroke-opacity:1.000000;stroke-linecap:round"/>
  <circle cx="-85" cy="650" r="35"
    style="fill:none;stroke:#800;stroke-width:10"  />
  <g transform="translate(-285,644) rotate(0)" > <text font-size="100.0" fill="#800" font-family="monospace"  >
   17
  </text> </g> 
  <circle cx="-350" cy="650" r="10"
    style="fill:none;stroke:#800;stroke-width:2"  />
  <line x1="350" y1="350" x2="120" y2="350" style="stroke:#800;stroke-width:10;stroke-opacity:1.000000;stroke-linecap:round"/>
  <circle cx="85" cy="350" r="35"
    style="fill:none;stroke:#800;stroke-width:10"  />
  <g transform="translate(115,344) rotate(0)" > <text font-size="100.0" fill="#800" font-family="monospace"  >
   27
  </text> </g> 
  <circle cx="350" cy="350" r="10"
    style="fill:none;stroke:#800;stroke-width:2"  />
  <line x1="350" y1="-650" x2="120" y2="-650" style="stroke:#800;stroke-width:10;stroke-opacity:1.000000;stroke-linecap:round"/>
  <circle cx="85" cy="-650" r="35"
    style="fill:none;stroke:#800;stroke-width:10"  />
  <g transform="translate(115,-656) rotate(0)" > <text font-size="100.0" fill="#800" font-family="monospace"  >
   37
  </text> </g> 
  <circle cx="350" cy="-650" r="10"
    style="fill:none;stroke:#800;stroke-width:2"  />
  <line x1="-350" y1="750" x2="-120" y2="750" style="stroke:#800;stroke-width:10;stroke-opacity:1.000000;stroke-linecap:round"/>
  <circle cx="-85" cy="750" r="35"
    style="fill:none;stroke:#800;stroke-width:10"  />
  <g transform="translate(-285,744) rotate(0)" > <text font-size="100.0" fill="#800" font-family="monospace"  >
   18
  </text> </g> 
  <circle cx="-350" cy="750" r="10"
    style="fill:none;stroke:#800;stroke-width:2"  />
  <line x1="350" y1="250" x2="120" y2="250" style="stroke:#800;stroke-width:10;stroke-opacity:1.000000;stroke-linecap:round"/>
  <circle cx="85" cy="250" r="35"
    style="fill:none;stroke:#800;stroke-width:10"  />
  <g transform="translate(115,244) rotate(0)" > <text font-size="100.0" fill="#800" font-family="monospace"  >
   28
  </text> </g> 
  <circle cx="350" cy="250" r="10"
    style="fill:none;stroke:#800;stroke-width:2"  />
  <line x1="350" y1="-750" x2="120" y2="-750" style="stroke:#800;stroke-width:10;stroke-opacity:1.000000;stroke-linecap:round"/>
  <circle cx="85" cy="-750" r="35"
    style="fill:none;stroke:#800;stroke-width:10"  />
  <g transform="translate(115,-756) rotate(0)" > <text font-size="100.0" fill="#800" font-family="monospace"  >
   38
  </text> </g> 
  <circle cx="350" cy="-750" r="10"
    style="fill:none;stroke:#800;stroke-width:2"  />
  <line x1="-350" y1="850" x2="-120" y2="850" style="stroke:#800;stroke-width:10;stroke-opacity:1.000000;stroke-linecap:round"/>
  <circle cx="-85" cy="850" r="35"
    style="fill:none;stroke:#800;stroke-width:10"  />
  <g transform="translate(-285,844) rotate(0)" > <text font-size="100.0" fill="#800" font-family="monospace"  >
   19
  </text> </g> 
  <circle cx="-350" cy="850" r="10"
    style="fill:none;stroke:#800;stroke-width:2"  />
  <line x1="350" y1="150" x2="120" y2="150" style="stroke:#800;stroke-width:10;stroke-opacity:1.000000;stroke-linecap:round"/>
  <circle cx="85" cy="150" r="35"
    style="fill:none;stroke:#800;stroke-width:10"  />
  <g transform="translate(115,144) rotate(0)" > <text font-size="100.0" fill="#800" font-family="monospace"  >
   29
  </text> </g> 
  <circle cx="350" cy="150" r="10"
    style="fill:none;stroke:#800;stroke-width:2"  />
  <line x1="350" y1="-850" x2="120" y2="-850" style="stroke:#800;stroke-width:10;stroke-opacity:1.000000;stroke-linecap:round"/>
  <circle cx="85" cy="-850" r="35"
    style="fill:none;stroke:#800;stroke-width:10"  />
  <g transform="translate(115,-856) rotate(0)" > <text font-size="100.0" fill="#800" font-family="monospace"  >
   39
  </text> </g> 
  <circle cx="350" cy="-850" r="10"
    style="fill:none;stroke:#800;stroke-width:2"  />
 </g>
</svg>
