<?xml version="1.0"?>
<svg height="335" width="230"  >
 <g style="fill-opacity:1.0; stroke:black;
  stroke-width:1;" transform=" translate( 115.0,167.625 ) scale( 0.15,0.15 )">
  <g transform="translate(-35,-515) rotate(0)" > <text font-size="116.666666667" fill="#088" font-family="monospace"  >
   P
  </text> </g> 
  <g transform="translate(-245,635) rotate(0)" > <text font-size="116.666666667" fill="#088" font-family="monospace"  >
   HE10-10
  </text> </g> 
  <rect x="-250" y="-500" height="1000"
    width="500" style="fill:none;stroke:#800;stroke-width:10" />
  <rect x="-150" y="-250" height="0"
    width="0" style="fill:none;stroke:#800;stroke-width:10" />
  <rect x="-150" y="-250" height="0"
    width="0" style="fill:none;stroke:#800;stroke-width:10" />
  <line x1="-550" y1="-400" x2="-320" y2="-400" style="stroke:#800;stroke-width:10;stroke-opacity:1.000000;stroke-linecap:round"/>
  <circle cx="-285" cy="-400" r="35"
    style="fill:none;stroke:#800;stroke-width:10"  />
  <g transform="translate(-442,-406) rotate(0)" > <text font-size="100.0" fill="#800" font-family="monospace"  >
   1
  </text> </g> 
  <g transform="translate(-232,-360) rotate(0)" > <text font-size="100.0" fill="#088" font-family="monospace"  >
   1
  </text> </g> 
  <circle cx="-550" cy="-400" r="10"
    style="fill:none;stroke:#800;stroke-width:2"  />
  <line x1="550" y1="-400" x2="320" y2="-400" style="stroke:#800;stroke-width:10;stroke-opacity:1.000000;stroke-linecap:round"/>
  <circle cx="285" cy="-400" r="35"
    style="fill:none;stroke:#800;stroke-width:10"  />
  <g transform="translate(357,-406) rotate(0)" > <text font-size="100.0" fill="#800" font-family="monospace"  >
   2
  </text> </g> 
  <g transform="translate(150,-360) rotate(0)" > <text font-size="100.0" fill="#088" font-family="monospace"  >
   2
  </text> </g> 
  <circle cx="550" cy="-400" r="10"
    style="fill:none;stroke:#800;stroke-width:2"  />
  <line x1="-550" y1="-200" x2="-320" y2="-200" style="stroke:#800;stroke-width:10;stroke-opacity:1.000000;stroke-linecap:round"/>
  <circle cx="-285" cy="-200" r="35"
    style="fill:none;stroke:#800;stroke-width:10"  />
  <g transform="translate(-442,-206) rotate(0)" > <text font-size="100.0" fill="#800" font-family="monospace"  >
   3
  </text> </g> 
  <g transform="translate(-232,-160) rotate(0)" > <text font-size="100.0" fill="#088" font-family="monospace"  >
   3
  </text> </g> 
  <circle cx="-550" cy="-200" r="10"
    style="fill:none;stroke:#800;stroke-width:2"  />
  <line x1="550" y1="-200" x2="320" y2="-200" style="stroke:#800;stroke-width:10;stroke-opacity:1.000000;stroke-linecap:round"/>
  <circle cx="285" cy="-200" r="35"
    style="fill:none;stroke:#800;stroke-width:10"  />
  <g transform="translate(357,-206) rotate(0)" > <text font-size="100.0" fill="#800" font-family="monospace"  >
   4
  </text> </g> 
  <g transform="translate(150,-160) rotate(0)" > <text font-size="100.0" fill="#088" font-family="monospace"  >
   4
  </text> </g> 
  <circle cx="550" cy="-200" r="10"
    style="fill:none;stroke:#800;stroke-width:2"  />
  <line x1="-550" y1="0" x2="-320" y2="0" style="stroke:#800;stroke-width:10;stroke-opacity:1.000000;stroke-linecap:round"/>
  <circle cx="-285" cy="0" r="35"
    style="fill:none;stroke:#800;stroke-width:10"  />
  <g transform="translate(-442,-6) rotate(0)" > <text font-size="100.0" fill="#800" font-family="monospace"  >
   5
  </text> </g> 
  <g transform="translate(-232,40) rotate(0)" > <text font-size="100.0" fill="#088" font-family="monospace"  >
   5
  </text> </g> 
  <circle cx="-550" cy="0" r="10"
    style="fill:none;stroke:#800;stroke-width:2"  />
  <line x1="550" y1="0" x2="320" y2="0" style="stroke:#800;stroke-width:10;stroke-opacity:1.000000;stroke-linecap:round"/>
  <circle cx="285" cy="0" r="35"
    style="fill:none;stroke:#800;stroke-width:10"  />
  <g transform="translate(357,-6) rotate(0)" > <text font-size="100.0" fill="#800" font-family="monospace"  >
   6
  </text> </g> 
  <g transform="translate(150,40) rotate(0)" > <text font-size="100.0" fill="#088" font-family="monospace"  >
   6
  </text> </g> 
  <circle cx="550" cy="0" r="10"
    style="fill:none;stroke:#800;stroke-width:2"  />
  <line x1="-550" y1="200" x2="-320" y2="200" style="stroke:#800;stroke-width:10;stroke-opacity:1.000000;stroke-linecap:round"/>
  <circle cx="-285" cy="200" r="35"
    style="fill:none;stroke:#800;stroke-width:10"  />
  <g transform="translate(-442,194) rotate(0)" > <text font-size="100.0" fill="#800" font-family="monospace"  >
   7
  </text> </g> 
  <g transform="translate(-232,240) rotate(0)" > <text font-size="100.0" fill="#088" font-family="monospace"  >
   7
  </text> </g> 
  <circle cx="-550" cy="200" r="10"
    style="fill:none;stroke:#800;stroke-width:2"  />
  <line x1="550" y1="200" x2="320" y2="200" style="stroke:#800;stroke-width:10;stroke-opacity:1.000000;stroke-linecap:round"/>
  <circle cx="285" cy="200" r="35"
    style="fill:none;stroke:#800;stroke-width:10"  />
  <g transform="translate(357,194) rotate(0)" > <text font-size="100.0" fill="#800" font-family="monospace"  >
   8
  </text> </g> 
  <g transform="translate(150,240) rotate(0)" > <text font-size="100.0" fill="#088" font-family="monospace"  >
   8
  </text> </g> 
  <circle cx="550" cy="200" r="10"
    style="fill:none;stroke:#800;stroke-width:2"  />
  <line x1="-550" y1="400" x2="-320" y2="400" style="stroke:#800;stroke-width:10;stroke-opacity:1.000000;stroke-linecap:round"/>
  <circle cx="-285" cy="400" r="35"
    style="fill:none;stroke:#800;stroke-width:10"  />
  <g transform="translate(-442,394) rotate(0)" > <text font-size="100.0" fill="#800" font-family="monospace"  >
   9
  </text> </g> 
  <g transform="translate(-232,440) rotate(0)" > <text font-size="100.0" fill="#088" font-family="monospace"  >
   9
  </text> </g> 
  <circle cx="-550" cy="400" r="10"
    style="fill:none;stroke:#800;stroke-width:2"  />
  <line x1="550" y1="400" x2="320" y2="400" style="stroke:#800;stroke-width:10;stroke-opacity:1.000000;stroke-linecap:round"/>
  <circle cx="285" cy="400" r="35"
    style="fill:none;stroke:#800;stroke-width:10"  />
  <g transform="translate(315,394) rotate(0)" > <text font-size="100.0" fill="#800" font-family="monospace"  >
   10
  </text> </g> 
  <g transform="translate(90,440) rotate(0)" > <text font-size="100.0" fill="#088" font-family="monospace"  >
   10
  </text> </g> 
  <circle cx="550" cy="400" r="10"
    style="fill:none;stroke:#800;stroke-width:2"  />
 </g>
</svg>
