<?xml version="1.0"?>
<svg height="500" width="401"  >
 <g style="fill-opacity:1.0; stroke:black;
  stroke-width:1;" transform=" translate( 200.95,250.0 ) scale( 0.15,0.15 )">
  <g transform="translate(-30,-1170) rotate(0)" > <text font-size="100.0" fill="#088" font-family="monospace"  >
   P
  </text> </g> 
  <g transform="translate(-170,1230) rotate(0)" > <text font-size="100.0" fill="#088" font-family="monospace"  >
   SCART-F
  </text> </g> 
  <line x1="-259" y1="-1010" x2="-263" y2="-1010" style="stroke:#800;stroke-width:10;stroke-opacity:1.000000;stroke-linecap:round"/>
  <line x1="-263" y1="-1010" x2="-266" y2="-1010" style="stroke:#800;stroke-width:10;stroke-opacity:1.000000;stroke-linecap:round"/>
  <line x1="-266" y1="-1010" x2="-269" y2="-1009" style="stroke:#800;stroke-width:10;stroke-opacity:1.000000;stroke-linecap:round"/>
  <line x1="-269" y1="-1009" x2="-272" y2="-1008" style="stroke:#800;stroke-width:10;stroke-opacity:1.000000;stroke-linecap:round"/>
  <line x1="-272" y1="-1008" x2="-276" y2="-1007" style="stroke:#800;stroke-width:10;stroke-opacity:1.000000;stroke-linecap:round"/>
  <line x1="-276" y1="-1007" x2="-278" y2="-1006" style="stroke:#800;stroke-width:10;stroke-opacity:1.000000;stroke-linecap:round"/>
  <line x1="-278" y1="-1006" x2="-281" y2="-1004" style="stroke:#800;stroke-width:10;stroke-opacity:1.000000;stroke-linecap:round"/>
  <line x1="-281" y1="-1004" x2="-284" y2="-1002" style="stroke:#800;stroke-width:10;stroke-opacity:1.000000;stroke-linecap:round"/>
  <line x1="-284" y1="-1002" x2="-287" y2="-1000" style="stroke:#800;stroke-width:10;stroke-opacity:1.000000;stroke-linecap:round"/>
  <line x1="-287" y1="-1000" x2="-289" y2="-998" style="stroke:#800;stroke-width:10;stroke-opacity:1.000000;stroke-linecap:round"/>
  <line x1="-289" y1="-998" x2="-291" y2="-995" style="stroke:#800;stroke-width:10;stroke-opacity:1.000000;stroke-linecap:round"/>
  <line x1="-291" y1="-995" x2="-293" y2="-992" style="stroke:#800;stroke-width:10;stroke-opacity:1.000000;stroke-linecap:round"/>
  <line x1="-293" y1="-992" x2="-295" y2="-990" style="stroke:#800;stroke-width:10;stroke-opacity:1.000000;stroke-linecap:round"/>
  <line x1="-295" y1="-990" x2="-296" y2="-987" style="stroke:#800;stroke-width:10;stroke-opacity:1.000000;stroke-linecap:round"/>
  <line x1="-296" y1="-987" x2="-297" y2="-984" style="stroke:#800;stroke-width:10;stroke-opacity:1.000000;stroke-linecap:round"/>
  <line x1="-297" y1="-984" x2="-298" y2="-980" style="stroke:#800;stroke-width:10;stroke-opacity:1.000000;stroke-linecap:round"/>
  <line x1="-298" y1="-980" x2="-299" y2="-977" style="stroke:#800;stroke-width:10;stroke-opacity:1.000000;stroke-linecap:round"/>
  <line x1="-299" y1="-977" x2="-299" y2="-974" style="stroke:#800;stroke-width:10;stroke-opacity:1.000000;stroke-linecap:round"/>
  <line x1="-299" y1="-974" x2="-300" y2="-971" style="stroke:#800;stroke-width:10;stroke-opacity:1.000000;stroke-linecap:round"/>
  <line x1="-300" y1="-971" x2="-300" y2="-971" style="stroke:#800;stroke-width:10;stroke-opacity:1.000000;stroke-linecap:round"/>
  <line x1="-300" y1="-971" x2="-299" y2="-970" style="stroke:#800;stroke-width:10;stroke-opacity:1.000000;stroke-linecap:round"/>
  <line x1="-299" y1="-970" x2="-299" y2="-970" style="stroke:#800;stroke-width:10;stroke-opacity:1.000000;stroke-linecap:round"/>
  <line x1="-299" y1="-970" x2="-299" y2="-970" style="stroke:#800;stroke-width:10;stroke-opacity:1.000000;stroke-linecap:round"/>
  <line x1="-299" y1="-970" x2="-299" y2="-970" style="stroke:#800;stroke-width:10;stroke-opacity:1.000000;stroke-linecap:round"/>
  <line x1="-299" y1="-970" x2="-299" y2="-970" style="stroke:#800;stroke-width:10;stroke-opacity:1.000000;stroke-linecap:round"/>
  <line x1="-299" y1="-970" x2="-299" y2="-970" style="stroke:#800;stroke-width:10;stroke-opacity:1.000000;stroke-linecap:round"/>
  <line x1="-299" y1="-970" x2="-299" y2="-970" style="stroke:#800;stroke-width:10;stroke-opacity:1.000000;stroke-linecap:round"/>
  <line x1="-299" y1="-970" x2="-299" y2="-970" style="stroke:#800;stroke-width:10;stroke-opacity:1.000000;stroke-linecap:round"/>
  <line x1="-299" y1="-970" x2="-299" y2="-970" style="stroke:#800;stroke-width:10;stroke-opacity:1.000000;stroke-linecap:round"/>
  <line x1="-299" y1="-970" x2="-299" y2="-970" style="stroke:#800;stroke-width:10;stroke-opacity:1.000000;stroke-linecap:round"/>
  <line x1="-299" y1="-970" x2="-299" y2="-970" style="stroke:#800;stroke-width:10;stroke-opacity:1.000000;stroke-linecap:round"/>
  <line x1="-299" y1="-970" x2="-299" y2="-970" style="stroke:#800;stroke-width:10;stroke-opacity:1.000000;stroke-linecap:round"/>
  <line x1="-299" y1="-970" x2="-299" y2="-970" style="stroke:#800;stroke-width:10;stroke-opacity:1.000000;stroke-linecap:round"/>
  <line x1="-299" y1="-970" x2="-299" y2="-970" style="stroke:#800;stroke-width:10;stroke-opacity:1.000000;stroke-linecap:round"/>
  <line x1="-299" y1="-970" x2="-299" y2="-970" style="stroke:#800;stroke-width:10;stroke-opacity:1.000000;stroke-linecap:round"/>
  <line x1="-299" y1="-970" x2="-299" y2="-970" style="stroke:#800;stroke-width:10;stroke-opacity:1.000000;stroke-linecap:round"/>
  <line x1="-299" y1="-970" x2="-299" y2="-970" style="stroke:#800;stroke-width:10;stroke-opacity:1.000000;stroke-linecap:round"/>
  <line x1="-299" y1="-970" x2="-299" y2="-970" style="stroke:#800;stroke-width:10;stroke-opacity:1.000000;stroke-linecap:round"/>
  <line x1="-299" y1="-970" x2="-299" y2="-970" style="stroke:#800;stroke-width:10;stroke-opacity:1.000000;stroke-linecap:round"/>
  <line x1="-299" y1="1099" x2="-299" y2="1099" style="stroke:#800;stroke-width:10;stroke-opacity:1.000000;stroke-linecap:round"/>
  <line x1="-299" y1="1099" x2="-299" y2="1099" style="stroke:#800;stroke-width:10;stroke-opacity:1.000000;stroke-linecap:round"/>
  <line x1="-299" y1="1099" x2="-299" y2="1099" style="stroke:#800;stroke-width:10;stroke-opacity:1.000000;stroke-linecap:round"/>
  <line x1="-299" y1="1099" x2="-299" y2="1099" style="stroke:#800;stroke-width:10;stroke-opacity:1.000000;stroke-linecap:round"/>
  <line x1="-299" y1="1099" x2="-299" y2="1099" style="stroke:#800;stroke-width:10;stroke-opacity:1.000000;stroke-linecap:round"/>
  <line x1="-299" y1="1099" x2="-299" y2="1099" style="stroke:#800;stroke-width:10;stroke-opacity:1.000000;stroke-linecap:round"/>
  <line x1="-299" y1="1099" x2="-299" y2="1099" style="stroke:#800;stroke-width:10;stroke-opacity:1.000000;stroke-linecap:round"/>
  <line x1="-299" y1="1099" x2="-299" y2="1099" style="stroke:#800;stroke-width:10;stroke-opacity:1.000000;stroke-linecap:round"/>
  <line x1="-299" y1="1099" x2="-299" y2="1099" style="stroke:#800;stroke-width:10;stroke-opacity:1.000000;stroke-linecap:round"/>
  <line x1="-299" y1="1099" x2="-299" y2="1099" style="stroke:#800;stroke-width:10;stroke-opacity:1.000000;stroke-linecap:round"/>
  <line x1="-299" y1="1099" x2="-299" y2="1099" style="stroke:#800;stroke-width:10;stroke-opacity:1.000000;stroke-linecap:round"/>
  <line x1="-299" y1="1099" x2="-299" y2="1099" style="stroke:#800;stroke-width:10;stroke-opacity:1.000000;stroke-linecap:round"/>
  <line x1="-299" y1="1099" x2="-299" y2="1099" style="stroke:#800;stroke-width:10;stroke-opacity:1.000000;stroke-linecap:round"/>
  <line x1="-299" y1="1099" x2="-299" y2="1099" style="stroke:#800;stroke-width:10;stroke-opacity:1.000000;stroke-linecap:round"/>
  <line x1="-299" y1="1099" x2="-299" y2="1099" style="stroke:#800;stroke-width:10;stroke-opacity:1.000000;stroke-linecap:round"/>
  <line x1="-299" y1="1099" x2="-299" y2="1099" style="stroke:#800;stroke-width:10;stroke-opacity:1.000000;stroke-linecap:round"/>
  <line x1="-299" y1="1099" x2="-299" y2="1099" style="stroke:#800;stroke-width:10;stroke-opacity:1.000000;stroke-linecap:round"/>
  <line x1="-299" y1="1099" x2="-299" y2="1099" style="stroke:#800;stroke-width:10;stroke-opacity:1.000000;stroke-linecap:round"/>
  <line x1="-299" y1="1099" x2="-300" y2="1100" style="stroke:#800;stroke-width:10;stroke-opacity:1.000000;stroke-linecap:round"/>
  <line x1="-300" y1="1100" x2="-300" y2="1100" style="stroke:#800;stroke-width:10;stroke-opacity:1.000000;stroke-linecap:round"/>
  <line x1="-300" y1="1100" x2="-299" y2="1104" style="stroke:#800;stroke-width:10;stroke-opacity:1.000000;stroke-linecap:round"/>
  <line x1="-299" y1="1104" x2="-299" y2="1108" style="stroke:#800;stroke-width:10;stroke-opacity:1.000000;stroke-linecap:round"/>
  <line x1="-299" y1="1108" x2="-298" y2="1112" style="stroke:#800;stroke-width:10;stroke-opacity:1.000000;stroke-linecap:round"/>
  <line x1="-298" y1="1112" x2="-297" y2="1116" style="stroke:#800;stroke-width:10;stroke-opacity:1.000000;stroke-linecap:round"/>
  <line x1="-297" y1="1116" x2="-295" y2="1120" style="stroke:#800;stroke-width:10;stroke-opacity:1.000000;stroke-linecap:round"/>
  <line x1="-295" y1="1120" x2="-293" y2="1123" style="stroke:#800;stroke-width:10;stroke-opacity:1.000000;stroke-linecap:round"/>
  <line x1="-293" y1="1123" x2="-291" y2="1127" style="stroke:#800;stroke-width:10;stroke-opacity:1.000000;stroke-linecap:round"/>
  <line x1="-291" y1="1127" x2="-289" y2="1130" style="stroke:#800;stroke-width:10;stroke-opacity:1.000000;stroke-linecap:round"/>
  <line x1="-289" y1="1130" x2="-286" y2="1133" style="stroke:#800;stroke-width:10;stroke-opacity:1.000000;stroke-linecap:round"/>
  <line x1="-286" y1="1133" x2="-283" y2="1136" style="stroke:#800;stroke-width:10;stroke-opacity:1.000000;stroke-linecap:round"/>
  <line x1="-283" y1="1136" x2="-280" y2="1139" style="stroke:#800;stroke-width:10;stroke-opacity:1.000000;stroke-linecap:round"/>
  <line x1="-280" y1="1139" x2="-277" y2="1141" style="stroke:#800;stroke-width:10;stroke-opacity:1.000000;stroke-linecap:round"/>
  <line x1="-277" y1="1141" x2="-273" y2="1144" style="stroke:#800;stroke-width:10;stroke-opacity:1.000000;stroke-linecap:round"/>
  <line x1="-273" y1="1144" x2="-270" y2="1145" style="stroke:#800;stroke-width:10;stroke-opacity:1.000000;stroke-linecap:round"/>
  <line x1="-270" y1="1145" x2="-266" y2="1147" style="stroke:#800;stroke-width:10;stroke-opacity:1.000000;stroke-linecap:round"/>
  <line x1="-266" y1="1147" x2="-262" y2="1148" style="stroke:#800;stroke-width:10;stroke-opacity:1.000000;stroke-linecap:round"/>
  <line x1="-262" y1="1148" x2="-258" y2="1149" style="stroke:#800;stroke-width:10;stroke-opacity:1.000000;stroke-linecap:round"/>
  <line x1="-258" y1="1149" x2="-254" y2="1149" style="stroke:#800;stroke-width:10;stroke-opacity:1.000000;stroke-linecap:round"/>
  <line x1="-254" y1="1149" x2="-249" y2="1149" style="stroke:#800;stroke-width:10;stroke-opacity:1.000000;stroke-linecap:round"/>
  <line x1="19" y1="-1010" x2="21" y2="-1010" style="stroke:#800;stroke-width:10;stroke-opacity:1.000000;stroke-linecap:round"/>
  <line x1="21" y1="-1010" x2="23" y2="-1010" style="stroke:#800;stroke-width:10;stroke-opacity:1.000000;stroke-linecap:round"/>
  <line x1="23" y1="-1010" x2="25" y2="-1010" style="stroke:#800;stroke-width:10;stroke-opacity:1.000000;stroke-linecap:round"/>
  <line x1="25" y1="-1010" x2="27" y2="-1011" style="stroke:#800;stroke-width:10;stroke-opacity:1.000000;stroke-linecap:round"/>
  <line x1="27" y1="-1011" x2="29" y2="-1011" style="stroke:#800;stroke-width:10;stroke-opacity:1.000000;stroke-linecap:round"/>
  <line x1="29" y1="-1011" x2="31" y2="-1012" style="stroke:#800;stroke-width:10;stroke-opacity:1.000000;stroke-linecap:round"/>
  <line x1="31" y1="-1012" x2="33" y2="-1013" style="stroke:#800;stroke-width:10;stroke-opacity:1.000000;stroke-linecap:round"/>
  <line x1="33" y1="-1013" x2="35" y2="-1014" style="stroke:#800;stroke-width:10;stroke-opacity:1.000000;stroke-linecap:round"/>
  <line x1="35" y1="-1014" x2="36" y2="-1015" style="stroke:#800;stroke-width:10;stroke-opacity:1.000000;stroke-linecap:round"/>
  <line x1="36" y1="-1015" x2="38" y2="-1016" style="stroke:#800;stroke-width:10;stroke-opacity:1.000000;stroke-linecap:round"/>
  <line x1="38" y1="-1016" x2="39" y2="-1017" style="stroke:#800;stroke-width:10;stroke-opacity:1.000000;stroke-linecap:round"/>
  <line x1="39" y1="-1017" x2="41" y2="-1018" style="stroke:#800;stroke-width:10;stroke-opacity:1.000000;stroke-linecap:round"/>
  <line x1="41" y1="-1018" x2="42" y2="-1020" style="stroke:#800;stroke-width:10;stroke-opacity:1.000000;stroke-linecap:round"/>
  <line x1="42" y1="-1020" x2="43" y2="-1021" style="stroke:#800;stroke-width:10;stroke-opacity:1.000000;stroke-linecap:round"/>
  <line x1="43" y1="-1021" x2="45" y2="-1023" style="stroke:#800;stroke-width:10;stroke-opacity:1.000000;stroke-linecap:round"/>
  <line x1="45" y1="-1023" x2="46" y2="-1025" style="stroke:#800;stroke-width:10;stroke-opacity:1.000000;stroke-linecap:round"/>
  <line x1="46" y1="-1025" x2="46" y2="-1026" style="stroke:#800;stroke-width:10;stroke-opacity:1.000000;stroke-linecap:round"/>
  <line x1="46" y1="-1026" x2="47" y2="-1028" style="stroke:#800;stroke-width:10;stroke-opacity:1.000000;stroke-linecap:round"/>
  <line x1="47" y1="-1028" x2="48" y2="-1030" style="stroke:#800;stroke-width:10;stroke-opacity:1.000000;stroke-linecap:round"/>
  <line x1="190" y1="-1149" x2="186" y2="-1149" style="stroke:#800;stroke-width:10;stroke-opacity:1.000000;stroke-linecap:round"/>
  <line x1="186" y1="-1149" x2="182" y2="-1149" style="stroke:#800;stroke-width:10;stroke-opacity:1.000000;stroke-linecap:round"/>
  <line x1="182" y1="-1149" x2="179" y2="-1149" style="stroke:#800;stroke-width:10;stroke-opacity:1.000000;stroke-linecap:round"/>
  <line x1="179" y1="-1149" x2="175" y2="-1148" style="stroke:#800;stroke-width:10;stroke-opacity:1.000000;stroke-linecap:round"/>
  <line x1="175" y1="-1148" x2="172" y2="-1147" style="stroke:#800;stroke-width:10;stroke-opacity:1.000000;stroke-linecap:round"/>
  <line x1="172" y1="-1147" x2="168" y2="-1146" style="stroke:#800;stroke-width:10;stroke-opacity:1.000000;stroke-linecap:round"/>
  <line x1="168" y1="-1146" x2="165" y2="-1145" style="stroke:#800;stroke-width:10;stroke-opacity:1.000000;stroke-linecap:round"/>
  <line x1="165" y1="-1145" x2="162" y2="-1144" style="stroke:#800;stroke-width:10;stroke-opacity:1.000000;stroke-linecap:round"/>
  <line x1="162" y1="-1144" x2="159" y2="-1142" style="stroke:#800;stroke-width:10;stroke-opacity:1.000000;stroke-linecap:round"/>
  <line x1="159" y1="-1142" x2="155" y2="-1140" style="stroke:#800;stroke-width:10;stroke-opacity:1.000000;stroke-linecap:round"/>
  <line x1="155" y1="-1140" x2="152" y2="-1139" style="stroke:#800;stroke-width:10;stroke-opacity:1.000000;stroke-linecap:round"/>
  <line x1="152" y1="-1139" x2="149" y2="-1137" style="stroke:#800;stroke-width:10;stroke-opacity:1.000000;stroke-linecap:round"/>
  <line x1="149" y1="-1137" x2="146" y2="-1134" style="stroke:#800;stroke-width:10;stroke-opacity:1.000000;stroke-linecap:round"/>
  <line x1="146" y1="-1134" x2="144" y2="-1132" style="stroke:#800;stroke-width:10;stroke-opacity:1.000000;stroke-linecap:round"/>
  <line x1="144" y1="-1132" x2="141" y2="-1130" style="stroke:#800;stroke-width:10;stroke-opacity:1.000000;stroke-linecap:round"/>
  <line x1="141" y1="-1130" x2="139" y2="-1127" style="stroke:#800;stroke-width:10;stroke-opacity:1.000000;stroke-linecap:round"/>
  <line x1="139" y1="-1127" x2="136" y2="-1124" style="stroke:#800;stroke-width:10;stroke-opacity:1.000000;stroke-linecap:round"/>
  <line x1="136" y1="-1124" x2="134" y2="-1122" style="stroke:#800;stroke-width:10;stroke-opacity:1.000000;stroke-linecap:round"/>
  <line x1="134" y1="-1122" x2="132" y2="-1119" style="stroke:#800;stroke-width:10;stroke-opacity:1.000000;stroke-linecap:round"/>
  <line x1="299" y1="-1049" x2="299" y2="-1058" style="stroke:#800;stroke-width:10;stroke-opacity:1.000000;stroke-linecap:round"/>
  <line x1="299" y1="-1058" x2="298" y2="-1066" style="stroke:#800;stroke-width:10;stroke-opacity:1.000000;stroke-linecap:round"/>
  <line x1="298" y1="-1066" x2="296" y2="-1074" style="stroke:#800;stroke-width:10;stroke-opacity:1.000000;stroke-linecap:round"/>
  <line x1="296" y1="-1074" x2="294" y2="-1082" style="stroke:#800;stroke-width:10;stroke-opacity:1.000000;stroke-linecap:round"/>
  <line x1="294" y1="-1082" x2="291" y2="-1090" style="stroke:#800;stroke-width:10;stroke-opacity:1.000000;stroke-linecap:round"/>
  <line x1="291" y1="-1090" x2="287" y2="-1097" style="stroke:#800;stroke-width:10;stroke-opacity:1.000000;stroke-linecap:round"/>
  <line x1="287" y1="-1097" x2="283" y2="-1104" style="stroke:#800;stroke-width:10;stroke-opacity:1.000000;stroke-linecap:round"/>
  <line x1="283" y1="-1104" x2="278" y2="-1111" style="stroke:#800;stroke-width:10;stroke-opacity:1.000000;stroke-linecap:round"/>
  <line x1="278" y1="-1111" x2="273" y2="-1117" style="stroke:#800;stroke-width:10;stroke-opacity:1.000000;stroke-linecap:round"/>
  <line x1="273" y1="-1117" x2="267" y2="-1123" style="stroke:#800;stroke-width:10;stroke-opacity:1.000000;stroke-linecap:round"/>
  <line x1="267" y1="-1123" x2="261" y2="-1128" style="stroke:#800;stroke-width:10;stroke-opacity:1.000000;stroke-linecap:round"/>
  <line x1="261" y1="-1128" x2="254" y2="-1133" style="stroke:#800;stroke-width:10;stroke-opacity:1.000000;stroke-linecap:round"/>
  <line x1="254" y1="-1133" x2="247" y2="-1137" style="stroke:#800;stroke-width:10;stroke-opacity:1.000000;stroke-linecap:round"/>
  <line x1="247" y1="-1137" x2="240" y2="-1141" style="stroke:#800;stroke-width:10;stroke-opacity:1.000000;stroke-linecap:round"/>
  <line x1="240" y1="-1141" x2="232" y2="-1144" style="stroke:#800;stroke-width:10;stroke-opacity:1.000000;stroke-linecap:round"/>
  <line x1="232" y1="-1144" x2="224" y2="-1146" style="stroke:#800;stroke-width:10;stroke-opacity:1.000000;stroke-linecap:round"/>
  <line x1="224" y1="-1146" x2="216" y2="-1148" style="stroke:#800;stroke-width:10;stroke-opacity:1.000000;stroke-linecap:round"/>
  <line x1="216" y1="-1148" x2="208" y2="-1149" style="stroke:#800;stroke-width:10;stroke-opacity:1.000000;stroke-linecap:round"/>
  <line x1="208" y1="-1149" x2="199" y2="-1149" style="stroke:#800;stroke-width:10;stroke-opacity:1.000000;stroke-linecap:round"/>
  <line x1="249" y1="1149" x2="254" y2="1149" style="stroke:#800;stroke-width:10;stroke-opacity:1.000000;stroke-linecap:round"/>
  <line x1="254" y1="1149" x2="258" y2="1149" style="stroke:#800;stroke-width:10;stroke-opacity:1.000000;stroke-linecap:round"/>
  <line x1="258" y1="1149" x2="262" y2="1148" style="stroke:#800;stroke-width:10;stroke-opacity:1.000000;stroke-linecap:round"/>
  <line x1="262" y1="1148" x2="266" y2="1147" style="stroke:#800;stroke-width:10;stroke-opacity:1.000000;stroke-linecap:round"/>
  <line x1="266" y1="1147" x2="270" y2="1145" style="stroke:#800;stroke-width:10;stroke-opacity:1.000000;stroke-linecap:round"/>
  <line x1="270" y1="1145" x2="273" y2="1143" style="stroke:#800;stroke-width:10;stroke-opacity:1.000000;stroke-linecap:round"/>
  <line x1="273" y1="1143" x2="277" y2="1141" style="stroke:#800;stroke-width:10;stroke-opacity:1.000000;stroke-linecap:round"/>
  <line x1="277" y1="1141" x2="280" y2="1139" style="stroke:#800;stroke-width:10;stroke-opacity:1.000000;stroke-linecap:round"/>
  <line x1="280" y1="1139" x2="283" y2="1136" style="stroke:#800;stroke-width:10;stroke-opacity:1.000000;stroke-linecap:round"/>
  <line x1="283" y1="1136" x2="286" y2="1133" style="stroke:#800;stroke-width:10;stroke-opacity:1.000000;stroke-linecap:round"/>
  <line x1="286" y1="1133" x2="289" y2="1130" style="stroke:#800;stroke-width:10;stroke-opacity:1.000000;stroke-linecap:round"/>
  <line x1="289" y1="1130" x2="291" y2="1127" style="stroke:#800;stroke-width:10;stroke-opacity:1.000000;stroke-linecap:round"/>
  <line x1="291" y1="1127" x2="293" y2="1123" style="stroke:#800;stroke-width:10;stroke-opacity:1.000000;stroke-linecap:round"/>
  <line x1="293" y1="1123" x2="295" y2="1120" style="stroke:#800;stroke-width:10;stroke-opacity:1.000000;stroke-linecap:round"/>
  <line x1="295" y1="1120" x2="297" y2="1116" style="stroke:#800;stroke-width:10;stroke-opacity:1.000000;stroke-linecap:round"/>
  <line x1="297" y1="1116" x2="298" y2="1112" style="stroke:#800;stroke-width:10;stroke-opacity:1.000000;stroke-linecap:round"/>
  <line x1="298" y1="1112" x2="299" y2="1108" style="stroke:#800;stroke-width:10;stroke-opacity:1.000000;stroke-linecap:round"/>
  <line x1="299" y1="1108" x2="299" y2="1104" style="stroke:#800;stroke-width:10;stroke-opacity:1.000000;stroke-linecap:round"/>
  <line x1="299" y1="1104" x2="299" y2="1099" style="stroke:#800;stroke-width:10;stroke-opacity:1.000000;stroke-linecap:round"/>
  <circle cx="-200" cy="-1090" r="50"
    style="fill:none;stroke:#800;stroke-width:10"  />
  <g transform="translate(-145,-1025) rotate(0)" > <text font-size="250.0" fill="#800" font-family="monospace"  >
   +
  </text> </g> 
  <rect x="-200" y="1030" height="40"
    width="100" style="fill:none;stroke:#800;stroke-width:10" />
  <rect x="-200" y="830" height="40"
    width="100" style="fill:none;stroke:#800;stroke-width:10" />
  <rect x="-200" y="630" height="40"
    width="100" style="fill:none;stroke:#800;stroke-width:10" />
  <rect x="-200" y="430" height="40"
    width="100" style="fill:none;stroke:#800;stroke-width:10" />
  <rect x="-200" y="230" height="40"
    width="100" style="fill:none;stroke:#800;stroke-width:10" />
  <rect x="-200" y="30" height="40"
    width="100" style="fill:none;stroke:#800;stroke-width:10" />
  <rect x="-200" y="-170" height="40"
    width="100" style="fill:none;stroke:#800;stroke-width:10" />
  <rect x="-200" y="-370" height="40"
    width="100" style="fill:none;stroke:#800;stroke-width:10" />
  <rect x="-200" y="-570" height="40"
    width="100" style="fill:none;stroke:#800;stroke-width:10" />
  <rect x="-200" y="-770" height="40"
    width="100" style="fill:none;stroke:#800;stroke-width:10" />
  <rect x="-200" y="-970" height="40"
    width="100" style="fill:none;stroke:#800;stroke-width:10" />
  <rect x="100" y="930" height="40"
    width="100" style="fill:none;stroke:#800;stroke-width:10" />
  <rect x="100" y="730" height="40"
    width="100" style="fill:none;stroke:#800;stroke-width:10" />
  <rect x="100" y="530" height="40"
    width="100" style="fill:none;stroke:#800;stroke-width:10" />
  <rect x="100" y="330" height="40"
    width="100" style="fill:none;stroke:#800;stroke-width:10" />
  <rect x="100" y="130" height="40"
    width="100" style="fill:none;stroke:#800;stroke-width:10" />
  <rect x="100" y="-70" height="40"
    width="100" style="fill:none;stroke:#800;stroke-width:10" />
  <rect x="100" y="-270" height="40"
    width="100" style="fill:none;stroke:#800;stroke-width:10" />
  <rect x="100" y="-470" height="40"
    width="100" style="fill:none;stroke:#800;stroke-width:10" />
  <rect x="100" y="-670" height="40"
    width="100" style="fill:none;stroke:#800;stroke-width:10" />
  <rect x="100" y="-870" height="40"
    width="100" style="fill:none;stroke:#800;stroke-width:10" />
  <line x1="-300" y1="-850" x2="-300" y2="1100" style="stroke:#800;stroke-width:10;stroke-opacity:1.000000;stroke-linecap:round"/>
  <line x1="-300" y1="-850" x2="-300" y2="-900" style="stroke:#800;stroke-width:10;stroke-opacity:1.000000;stroke-linecap:round"/>
  <line x1="-300" y1="-921" x2="-300" y2="-900" style="stroke:#800;stroke-width:10;stroke-opacity:1.000000;stroke-linecap:round"/>
  <line x1="-300" y1="-921" x2="-300" y2="-971" style="stroke:#800;stroke-width:10;stroke-opacity:1.000000;stroke-linecap:round"/>
  <line x1="-260" y1="-1011" x2="20" y2="-1011" style="stroke:#800;stroke-width:10;stroke-opacity:1.000000;stroke-linecap:round"/>
  <line x1="-250" y1="1150" x2="250" y2="1150" style="stroke:#800;stroke-width:10;stroke-opacity:1.000000;stroke-linecap:round"/>
  <line x1="130" y1="-1120" x2="50" y2="-1030" style="stroke:#800;stroke-width:10;stroke-opacity:1.000000;stroke-linecap:round"/>
  <line x1="190" y1="-1150" x2="200" y2="-1150" style="stroke:#800;stroke-width:10;stroke-opacity:1.000000;stroke-linecap:round"/>
  <line x1="300" y1="1100" x2="300" y2="-1061" style="stroke:#800;stroke-width:10;stroke-opacity:1.000000;stroke-linecap:round"/>
  <line x1="-600" y1="1050" x2="-300" y2="1050" style="stroke:#800;stroke-width:10;stroke-opacity:1.000000;stroke-linecap:round"/>
  <g transform="translate(-492,1044) rotate(0)" > <text font-size="100.0" fill="#800" font-family="monospace"  >
   1
  </text> </g> 
  <circle cx="-600" cy="1050" r="10"
    style="fill:none;stroke:#800;stroke-width:2"  />
  <line x1="600" y1="950" x2="300" y2="950" style="stroke:#800;stroke-width:10;stroke-opacity:1.000000;stroke-linecap:round"/>
  <g transform="translate(407,944) rotate(0)" > <text font-size="100.0" fill="#800" font-family="monospace"  >
   2
  </text> </g> 
  <circle cx="600" cy="950" r="10"
    style="fill:none;stroke:#800;stroke-width:2"  />
  <line x1="-600" y1="850" x2="-300" y2="850" style="stroke:#800;stroke-width:10;stroke-opacity:1.000000;stroke-linecap:round"/>
  <g transform="translate(-492,844) rotate(0)" > <text font-size="100.0" fill="#800" font-family="monospace"  >
   3
  </text> </g> 
  <circle cx="-600" cy="850" r="10"
    style="fill:none;stroke:#800;stroke-width:2"  />
  <line x1="600" y1="750" x2="300" y2="750" style="stroke:#800;stroke-width:10;stroke-opacity:1.000000;stroke-linecap:round"/>
  <g transform="translate(407,744) rotate(0)" > <text font-size="100.0" fill="#800" font-family="monospace"  >
   4
  </text> </g> 
  <circle cx="600" cy="750" r="10"
    style="fill:none;stroke:#800;stroke-width:2"  />
  <line x1="-600" y1="650" x2="-300" y2="650" style="stroke:#800;stroke-width:10;stroke-opacity:1.000000;stroke-linecap:round"/>
  <g transform="translate(-492,644) rotate(0)" > <text font-size="100.0" fill="#800" font-family="monospace"  >
   5
  </text> </g> 
  <circle cx="-600" cy="650" r="10"
    style="fill:none;stroke:#800;stroke-width:2"  />
  <line x1="600" y1="550" x2="300" y2="550" style="stroke:#800;stroke-width:10;stroke-opacity:1.000000;stroke-linecap:round"/>
  <g transform="translate(407,544) rotate(0)" > <text font-size="100.0" fill="#800" font-family="monospace"  >
   6
  </text> </g> 
  <circle cx="600" cy="550" r="10"
    style="fill:none;stroke:#800;stroke-width:2"  />
  <line x1="-600" y1="450" x2="-300" y2="450" style="stroke:#800;stroke-width:10;stroke-opacity:1.000000;stroke-linecap:round"/>
  <g transform="translate(-492,444) rotate(0)" > <text font-size="100.0" fill="#800" font-family="monospace"  >
   7
  </text> </g> 
  <circle cx="-600" cy="450" r="10"
    style="fill:none;stroke:#800;stroke-width:2"  />
  <line x1="600" y1="350" x2="300" y2="350" style="stroke:#800;stroke-width:10;stroke-opacity:1.000000;stroke-linecap:round"/>
  <g transform="translate(407,344) rotate(0)" > <text font-size="100.0" fill="#800" font-family="monospace"  >
   8
  </text> </g> 
  <circle cx="600" cy="350" r="10"
    style="fill:none;stroke:#800;stroke-width:2"  />
  <line x1="-600" y1="250" x2="-300" y2="250" style="stroke:#800;stroke-width:10;stroke-opacity:1.000000;stroke-linecap:round"/>
  <g transform="translate(-492,244) rotate(0)" > <text font-size="100.0" fill="#800" font-family="monospace"  >
   9
  </text> </g> 
  <circle cx="-600" cy="250" r="10"
    style="fill:none;stroke:#800;stroke-width:2"  />
  <line x1="600" y1="150" x2="300" y2="150" style="stroke:#800;stroke-width:10;stroke-opacity:1.000000;stroke-linecap:round"/>
  <g transform="translate(365,144) rotate(0)" > <text font-size="100.0" fill="#800" font-family="monospace"  >
   10
  </text> </g> 
  <circle cx="600" cy="150" r="10"
    style="fill:none;stroke:#800;stroke-width:2"  />
  <line x1="600" y1="-850" x2="300" y2="-850" style="stroke:#800;stroke-width:10;stroke-opacity:1.000000;stroke-linecap:round"/>
  <g transform="translate(365,-856) rotate(0)" > <text font-size="100.0" fill="#800" font-family="monospace"  >
   20
  </text> </g> 
  <circle cx="600" cy="-850" r="10"
    style="fill:none;stroke:#800;stroke-width:2"  />
  <line x1="-600" y1="50" x2="-300" y2="50" style="stroke:#800;stroke-width:10;stroke-opacity:1.000000;stroke-linecap:round"/>
  <g transform="translate(-535,44) rotate(0)" > <text font-size="100.0" fill="#800" font-family="monospace"  >
   11
  </text> </g> 
  <circle cx="-600" cy="50" r="10"
    style="fill:none;stroke:#800;stroke-width:2"  />
  <line x1="-600" y1="-950" x2="-300" y2="-950" style="stroke:#800;stroke-width:10;stroke-opacity:1.000000;stroke-linecap:round"/>
  <g transform="translate(-535,-956) rotate(0)" > <text font-size="100.0" fill="#800" font-family="monospace"  >
   21
  </text> </g> 
  <circle cx="-600" cy="-950" r="10"
    style="fill:none;stroke:#800;stroke-width:2"  />
  <line x1="600" y1="-50" x2="300" y2="-50" style="stroke:#800;stroke-width:10;stroke-opacity:1.000000;stroke-linecap:round"/>
  <g transform="translate(365,-56) rotate(0)" > <text font-size="100.0" fill="#800" font-family="monospace"  >
   12
  </text> </g> 
  <circle cx="600" cy="-50" r="10"
    style="fill:none;stroke:#800;stroke-width:2"  />
  <line x1="-600" y1="-150" x2="-300" y2="-150" style="stroke:#800;stroke-width:10;stroke-opacity:1.000000;stroke-linecap:round"/>
  <g transform="translate(-535,-156) rotate(0)" > <text font-size="100.0" fill="#800" font-family="monospace"  >
   13
  </text> </g> 
  <circle cx="-600" cy="-150" r="10"
    style="fill:none;stroke:#800;stroke-width:2"  />
  <line x1="600" y1="-250" x2="300" y2="-250" style="stroke:#800;stroke-width:10;stroke-opacity:1.000000;stroke-linecap:round"/>
  <g transform="translate(365,-256) rotate(0)" > <text font-size="100.0" fill="#800" font-family="monospace"  >
   14
  </text> </g> 
  <circle cx="600" cy="-250" r="10"
    style="fill:none;stroke:#800;stroke-width:2"  />
  <line x1="-600" y1="-350" x2="-300" y2="-350" style="stroke:#800;stroke-width:10;stroke-opacity:1.000000;stroke-linecap:round"/>
  <g transform="translate(-535,-356) rotate(0)" > <text font-size="100.0" fill="#800" font-family="monospace"  >
   15
  </text> </g> 
  <circle cx="-600" cy="-350" r="10"
    style="fill:none;stroke:#800;stroke-width:2"  />
  <line x1="600" y1="-450" x2="300" y2="-450" style="stroke:#800;stroke-width:10;stroke-opacity:1.000000;stroke-linecap:round"/>
  <g transform="translate(365,-456) rotate(0)" > <text font-size="100.0" fill="#800" font-family="monospace"  >
   16
  </text> </g> 
  <circle cx="600" cy="-450" r="10"
    style="fill:none;stroke:#800;stroke-width:2"  />
  <line x1="-600" y1="-550" x2="-300" y2="-550" style="stroke:#800;stroke-width:10;stroke-opacity:1.000000;stroke-linecap:round"/>
  <g transform="translate(-535,-556) rotate(0)" > <text font-size="100.0" fill="#800" font-family="monospace"  >
   17
  </text> </g> 
  <circle cx="-600" cy="-550" r="10"
    style="fill:none;stroke:#800;stroke-width:2"  />
  <line x1="600" y1="-650" x2="300" y2="-650" style="stroke:#800;stroke-width:10;stroke-opacity:1.000000;stroke-linecap:round"/>
  <g transform="translate(365,-656) rotate(0)" > <text font-size="100.0" fill="#800" font-family="monospace"  >
   18
  </text> </g> 
  <circle cx="600" cy="-650" r="10"
    style="fill:none;stroke:#800;stroke-width:2"  />
  <line x1="-600" y1="-750" x2="-300" y2="-750" style="stroke:#800;stroke-width:10;stroke-opacity:1.000000;stroke-linecap:round"/>
  <g transform="translate(-535,-756) rotate(0)" > <text font-size="100.0" fill="#800" font-family="monospace"  >
   19
  </text> </g> 
  <circle cx="-600" cy="-750" r="10"
    style="fill:none;stroke:#800;stroke-width:2"  />
 </g>
</svg>
