<?xml version="1.0"?>
<svg height="297" width="158"  >
 <g style="fill-opacity:1.0; stroke:black;
  stroke-width:1;" transform=" translate( 79.25,148.75 ) scale( 0.15,0.15 )">
  <g transform="translate(-200,-100) rotate(0)" > <text font-size="66.6666666667" fill="#088" font-family="monospace"  >
   EQ
  </text> </g> 
  <g transform="translate(-260,750) rotate(0)" > <text font-size="66.6666666667" fill="#088" font-family="monospace"  >
   Q_2A_12O_40KV
  </text> </g> 
  <line x1="-100" y1="550" x2="80" y2="520" style="stroke:#800;stroke-width:10;stroke-opacity:1.000000;stroke-linecap:round"/>
  <line x1="80" y1="520" x2="80" y2="520" style="stroke:#800;stroke-width:10;stroke-opacity:1.000000;stroke-linecap:round"/>
  <line x1="-100" y1="0" x2="80" y2="-30" style="stroke:#800;stroke-width:10;stroke-opacity:1.000000;stroke-linecap:round"/>
  <line x1="80" y1="-30" x2="80" y2="-30" style="stroke:#800;stroke-width:10;stroke-opacity:1.000000;stroke-linecap:round"/>
  <line x1="80" y1="-30" x2="80" y2="-30" style="stroke:#800;stroke-width:10;stroke-opacity:1.000000;stroke-linecap:round"/>
  <line x1="80" y1="-30" x2="80" y2="-30" style="stroke:#800;stroke-width:10;stroke-opacity:1.000000;stroke-linecap:round"/>
  <line x1="-100" y1="250" x2="80" y2="220" style="stroke:#800;stroke-width:10;stroke-opacity:1.000000;stroke-linecap:round"/>
  <line x1="80" y1="220" x2="80" y2="220" style="stroke:#800;stroke-width:10;stroke-opacity:1.000000;stroke-linecap:round"/>
  <line x1="-100" y1="500" x2="80" y2="470" style="stroke:#800;stroke-width:10;stroke-opacity:1.000000;stroke-linecap:round"/>
  <line x1="80" y1="470" x2="80" y2="470" style="stroke:#800;stroke-width:10;stroke-opacity:1.000000;stroke-linecap:round"/>
  <line x1="-100" y1="580" x2="-100" y2="580" style="stroke:#800;stroke-width:10;stroke-opacity:1.000000;stroke-linecap:round"/>
  <line x1="-100" y1="580" x2="100" y2="620" style="stroke:#800;stroke-width:10;stroke-opacity:1.000000;stroke-linecap:round"/>
  <line x1="100" y1="620" x2="100" y2="620" style="stroke:#800;stroke-width:10;stroke-opacity:1.000000;stroke-linecap:round"/>
  <line x1="-100" y1="450" x2="80" y2="420" style="stroke:#800;stroke-width:10;stroke-opacity:1.000000;stroke-linecap:round"/>
  <line x1="80" y1="420" x2="80" y2="420" style="stroke:#800;stroke-width:10;stroke-opacity:1.000000;stroke-linecap:round"/>
  <line x1="200" y1="200" x2="200" y2="200" style="stroke:#800;stroke-width:10;stroke-opacity:1.000000;stroke-linecap:round"/>
  <line x1="-100" y1="350" x2="80" y2="320" style="stroke:#800;stroke-width:10;stroke-opacity:1.000000;stroke-linecap:round"/>
  <line x1="80" y1="320" x2="80" y2="320" style="stroke:#800;stroke-width:10;stroke-opacity:1.000000;stroke-linecap:round"/>
  <rect x="-100" y="580" height="40"
    width="200" style="fill:none;stroke:#800;stroke-width:10" />
  <line x1="-100" y1="200" x2="80" y2="170" style="stroke:#800;stroke-width:10;stroke-opacity:1.000000;stroke-linecap:round"/>
  <line x1="80" y1="170" x2="80" y2="170" style="stroke:#800;stroke-width:10;stroke-opacity:1.000000;stroke-linecap:round"/>
  <line x1="-100" y1="300" x2="80" y2="270" style="stroke:#800;stroke-width:10;stroke-opacity:1.000000;stroke-linecap:round"/>
  <line x1="80" y1="270" x2="80" y2="270" style="stroke:#800;stroke-width:10;stroke-opacity:1.000000;stroke-linecap:round"/>
  <line x1="-100" y1="400" x2="80" y2="370" style="stroke:#800;stroke-width:10;stroke-opacity:1.000000;stroke-linecap:round"/>
  <line x1="80" y1="370" x2="80" y2="370" style="stroke:#800;stroke-width:10;stroke-opacity:1.000000;stroke-linecap:round"/>
  <line x1="-100" y1="150" x2="80" y2="120" style="stroke:#800;stroke-width:10;stroke-opacity:1.000000;stroke-linecap:round"/>
  <line x1="80" y1="120" x2="80" y2="120" style="stroke:#800;stroke-width:10;stroke-opacity:1.000000;stroke-linecap:round"/>
  <line x1="-100" y1="100" x2="80" y2="70" style="stroke:#800;stroke-width:10;stroke-opacity:1.000000;stroke-linecap:round"/>
  <line x1="80" y1="70" x2="80" y2="70" style="stroke:#800;stroke-width:10;stroke-opacity:1.000000;stroke-linecap:round"/>
  <line x1="0" y1="580" x2="0" y2="-20" style="stroke:#800;stroke-width:10;stroke-opacity:1.000000;stroke-linecap:round"/>
  <line x1="0" y1="-20" x2="0" y2="-20" style="stroke:#800;stroke-width:10;stroke-opacity:1.000000;stroke-linecap:round"/>
  <line x1="-100" y1="50" x2="80" y2="20" style="stroke:#800;stroke-width:10;stroke-opacity:1.000000;stroke-linecap:round"/>
  <line x1="80" y1="20" x2="80" y2="20" style="stroke:#800;stroke-width:10;stroke-opacity:1.000000;stroke-linecap:round"/>
  <line x1="80" y1="20" x2="80" y2="20" style="stroke:#800;stroke-width:10;stroke-opacity:1.000000;stroke-linecap:round"/>
  <line x1="80" y1="20" x2="80" y2="20" style="stroke:#800;stroke-width:10;stroke-opacity:1.000000;stroke-linecap:round"/>
  <line x1="80" y1="20" x2="80" y2="20" style="stroke:#800;stroke-width:10;stroke-opacity:1.000000;stroke-linecap:round"/>
  <line x1="200" y1="500" x2="80" y2="500" style="stroke:#800;stroke-width:10;stroke-opacity:1.000000;stroke-linecap:round"/>
  <circle cx="200" cy="500" r="10"
    style="fill:none;stroke:#800;stroke-width:2"  />
  <line x1="200" y1="400" x2="80" y2="400" style="stroke:#800;stroke-width:10;stroke-opacity:1.000000;stroke-linecap:round"/>
  <circle cx="200" cy="400" r="10"
    style="fill:none;stroke:#800;stroke-width:2"  />
  <line x1="-200" y1="150" x2="-100" y2="150" style="stroke:#800;stroke-width:10;stroke-opacity:1.000000;stroke-linecap:round"/>
  <circle cx="-200" cy="150" r="10"
    style="fill:none;stroke:#800;stroke-width:2"  />
  <line x1="-200" y1="550" x2="-100" y2="550" style="stroke:#800;stroke-width:10;stroke-opacity:1.000000;stroke-linecap:round"/>
  <circle cx="-200" cy="550" r="10"
    style="fill:none;stroke:#800;stroke-width:2"  />
  <line x1="200" y1="300" x2="80" y2="300" style="stroke:#800;stroke-width:10;stroke-opacity:1.000000;stroke-linecap:round"/>
  <circle cx="200" cy="300" r="10"
    style="fill:none;stroke:#800;stroke-width:2"  />
  <line x1="-200" y1="450" x2="-100" y2="450" style="stroke:#800;stroke-width:10;stroke-opacity:1.000000;stroke-linecap:round"/>
  <circle cx="-200" cy="450" r="10"
    style="fill:none;stroke:#800;stroke-width:2"  />
  <line x1="200" y1="200" x2="80" y2="200" style="stroke:#800;stroke-width:10;stroke-opacity:1.000000;stroke-linecap:round"/>
  <circle cx="200" cy="200" r="10"
    style="fill:none;stroke:#800;stroke-width:2"  />
  <line x1="-200" y1="250" x2="-100" y2="250" style="stroke:#800;stroke-width:10;stroke-opacity:1.000000;stroke-linecap:round"/>
  <circle cx="-200" cy="250" r="10"
    style="fill:none;stroke:#800;stroke-width:2"  />
  <line x1="200" y1="100" x2="80" y2="100" style="stroke:#800;stroke-width:10;stroke-opacity:1.000000;stroke-linecap:round"/>
  <circle cx="200" cy="100" r="10"
    style="fill:none;stroke:#800;stroke-width:2"  />
  <line x1="-200" y1="350" x2="-100" y2="350" style="stroke:#800;stroke-width:10;stroke-opacity:1.000000;stroke-linecap:round"/>
  <circle cx="-200" cy="350" r="10"
    style="fill:none;stroke:#800;stroke-width:2"  />
  <line x1="200" y1="550" x2="80" y2="550" style="stroke:#800;stroke-width:10;stroke-opacity:1.000000;stroke-linecap:round"/>
  <circle cx="200" cy="550" r="10"
    style="fill:none;stroke:#800;stroke-width:2"  />
  <line x1="200" y1="450" x2="80" y2="450" style="stroke:#800;stroke-width:10;stroke-opacity:1.000000;stroke-linecap:round"/>
  <circle cx="200" cy="450" r="10"
    style="fill:none;stroke:#800;stroke-width:2"  />
  <line x1="200" y1="350" x2="80" y2="350" style="stroke:#800;stroke-width:10;stroke-opacity:1.000000;stroke-linecap:round"/>
  <circle cx="200" cy="350" r="10"
    style="fill:none;stroke:#800;stroke-width:2"  />
  <line x1="200" y1="250" x2="80" y2="250" style="stroke:#800;stroke-width:10;stroke-opacity:1.000000;stroke-linecap:round"/>
  <circle cx="200" cy="250" r="10"
    style="fill:none;stroke:#800;stroke-width:2"  />
  <line x1="200" y1="150" x2="80" y2="150" style="stroke:#800;stroke-width:10;stroke-opacity:1.000000;stroke-linecap:round"/>
  <circle cx="200" cy="150" r="10"
    style="fill:none;stroke:#800;stroke-width:2"  />
  <line x1="200" y1="50" x2="80" y2="50" style="stroke:#800;stroke-width:10;stroke-opacity:1.000000;stroke-linecap:round"/>
  <circle cx="200" cy="50" r="10"
    style="fill:none;stroke:#800;stroke-width:2"  />
  <line x1="-200" y1="500" x2="-100" y2="500" style="stroke:#800;stroke-width:10;stroke-opacity:1.000000;stroke-linecap:round"/>
  <circle cx="-200" cy="500" r="10"
    style="fill:none;stroke:#800;stroke-width:2"  />
  <line x1="-200" y1="400" x2="-100" y2="400" style="stroke:#800;stroke-width:10;stroke-opacity:1.000000;stroke-linecap:round"/>
  <circle cx="-200" cy="400" r="10"
    style="fill:none;stroke:#800;stroke-width:2"  />
  <line x1="-200" y1="300" x2="-100" y2="300" style="stroke:#800;stroke-width:10;stroke-opacity:1.000000;stroke-linecap:round"/>
  <circle cx="-200" cy="300" r="10"
    style="fill:none;stroke:#800;stroke-width:2"  />
  <line x1="-200" y1="200" x2="-100" y2="200" style="stroke:#800;stroke-width:10;stroke-opacity:1.000000;stroke-linecap:round"/>
  <circle cx="-200" cy="200" r="10"
    style="fill:none;stroke:#800;stroke-width:2"  />
  <line x1="-200" y1="100" x2="-100" y2="100" style="stroke:#800;stroke-width:10;stroke-opacity:1.000000;stroke-linecap:round"/>
  <circle cx="-200" cy="100" r="10"
    style="fill:none;stroke:#800;stroke-width:2"  />
  <line x1="-200" y1="50" x2="-100" y2="50" style="stroke:#800;stroke-width:10;stroke-opacity:1.000000;stroke-linecap:round"/>
  <circle cx="-200" cy="50" r="10"
    style="fill:none;stroke:#800;stroke-width:2"  />
  <line x1="200" y1="0" x2="80" y2="0" style="stroke:#800;stroke-width:10;stroke-opacity:1.000000;stroke-linecap:round"/>
  <circle cx="200" cy="0" r="10"
    style="fill:none;stroke:#800;stroke-width:2"  />
  <line x1="200" y1="600" x2="100" y2="600" style="stroke:#800;stroke-width:10;stroke-opacity:1.000000;stroke-linecap:round"/>
  <circle cx="200" cy="600" r="10"
    style="fill:none;stroke:#800;stroke-width:2"  />
  <line x1="-200" y1="0" x2="-100" y2="0" style="stroke:#800;stroke-width:10;stroke-opacity:1.000000;stroke-linecap:round"/>
  <circle cx="-200" cy="0" r="10"
    style="fill:none;stroke:#800;stroke-width:2"  />
  <line x1="-200" y1="50" x2="-100" y2="50" style="stroke:#800;stroke-width:10;stroke-opacity:1.000000;stroke-linecap:round"/>
  <circle cx="-200" cy="50" r="10"
    style="fill:none;stroke:#800;stroke-width:2"  />
 </g>
</svg>
