<?xml version="1.0"?>
<svg height="758" width="705"  >
 <g style="fill-opacity:1.0; stroke:black;
  stroke-width:1;" transform=" translate( 352.7,379.2 ) scale( 0.15,0.15 )">
  <g transform="translate(-890,-1860) rotate(0)" > <text font-size="66.6666666667" fill="#088" font-family="monospace"  >
   IC
  </text> </g> 
  <g transform="translate(230,1950) rotate(0)" > <text font-size="66.6666666667" fill="#088" font-family="monospace"  >
   AT90S4414-A
  </text> </g> 
  <rect x="-850" y="-1850" height="3700"
    width="1700" style="fill:none;stroke:#800;stroke-width:10" />
  <line x1="1000" y1="-200" x2="850" y2="-200" style="stroke:#800;stroke-width:10;stroke-opacity:1.000000;stroke-linecap:round"/>
  <g transform="translate(896,-206) rotate(0)" > <text font-size="66.6666666667" fill="#800" font-family="monospace"  >
   1
  </text> </g> 
  <g transform="translate(450,-170) rotate(0)" > <text font-size="66.6666666667" fill="#088" font-family="monospace"  >
   (MOSI)PB5
  </text> </g> 
  <circle cx="1000" cy="-200" r="10"
    style="fill:none;stroke:#800;stroke-width:2"  />
  <line x1="1000" y1="-100" x2="850" y2="-100" style="stroke:#800;stroke-width:10;stroke-opacity:1.000000;stroke-linecap:round"/>
  <g transform="translate(896,-106) rotate(0)" > <text font-size="66.6666666667" fill="#800" font-family="monospace"  >
   2
  </text> </g> 
  <g transform="translate(450,-70) rotate(0)" > <text font-size="66.6666666667" fill="#088" font-family="monospace"  >
   (MISO)PB6
  </text> </g> 
  <circle cx="1000" cy="-100" r="10"
    style="fill:none;stroke:#800;stroke-width:2"  />
  <line x1="1000" y1="0" x2="850" y2="0" style="stroke:#800;stroke-width:10;stroke-opacity:1.000000;stroke-linecap:round"/>
  <g transform="translate(896,-6) rotate(0)" > <text font-size="66.6666666667" fill="#800" font-family="monospace"  >
   3
  </text> </g> 
  <g transform="translate(490,30) rotate(0)" > <text font-size="66.6666666667" fill="#088" font-family="monospace"  >
   (SCK)PB7
  </text> </g> 
  <circle cx="1000" cy="0" r="10"
    style="fill:none;stroke:#800;stroke-width:2"  />
  <line x1="-1000" y1="-1700" x2="-850" y2="-1700" style="stroke:#800;stroke-width:10;stroke-opacity:1.000000;stroke-linecap:round"/>
  <g transform="translate(-953,-1706) rotate(0)" > <text font-size="66.6666666667" fill="#800" font-family="monospace"  >
   4
  </text> </g> 
  <g transform="translate(-832,-1670) rotate(0)" > <text font-size="66.6666666667" fill="#088" font-family="monospace"  >
   ~RESET
  </text> </g> 
  <circle cx="-1000" cy="-1700" r="10"
    style="fill:none;stroke:#800;stroke-width:2"  />
  <line x1="1000" y1="1000" x2="850" y2="1000" style="stroke:#800;stroke-width:10;stroke-opacity:1.000000;stroke-linecap:round"/>
  <g transform="translate(896,994) rotate(0)" > <text font-size="66.6666666667" fill="#800" font-family="monospace"  >
   5
  </text> </g> 
  <g transform="translate(490,1030) rotate(0)" > <text font-size="66.6666666667" fill="#088" font-family="monospace"  >
   (RXD)PD0
  </text> </g> 
  <circle cx="1000" cy="1000" r="10"
    style="fill:none;stroke:#800;stroke-width:2"  />
  <line x1="1000" y1="1100" x2="850" y2="1100" style="stroke:#800;stroke-width:10;stroke-opacity:1.000000;stroke-linecap:round"/>
  <g transform="translate(896,1094) rotate(0)" > <text font-size="66.6666666667" fill="#800" font-family="monospace"  >
   7
  </text> </g> 
  <g transform="translate(490,1130) rotate(0)" > <text font-size="66.6666666667" fill="#088" font-family="monospace"  >
   (TXD)PD1
  </text> </g> 
  <circle cx="1000" cy="1100" r="10"
    style="fill:none;stroke:#800;stroke-width:2"  />
  <line x1="1000" y1="1200" x2="850" y2="1200" style="stroke:#800;stroke-width:10;stroke-opacity:1.000000;stroke-linecap:round"/>
  <g transform="translate(896,1194) rotate(0)" > <text font-size="66.6666666667" fill="#800" font-family="monospace"  >
   8
  </text> </g> 
  <g transform="translate(450,1230) rotate(0)" > <text font-size="66.6666666667" fill="#088" font-family="monospace"  >
   (INT0)PD2
  </text> </g> 
  <circle cx="1000" cy="1200" r="10"
    style="fill:none;stroke:#800;stroke-width:2"  />
  <line x1="1000" y1="1300" x2="850" y2="1300" style="stroke:#800;stroke-width:10;stroke-opacity:1.000000;stroke-linecap:round"/>
  <g transform="translate(896,1294) rotate(0)" > <text font-size="66.6666666667" fill="#800" font-family="monospace"  >
   9
  </text> </g> 
  <g transform="translate(450,1330) rotate(0)" > <text font-size="66.6666666667" fill="#088" font-family="monospace"  >
   (INT1)PD3
  </text> </g> 
  <circle cx="1000" cy="1300" r="10"
    style="fill:none;stroke:#800;stroke-width:2"  />
  <line x1="1000" y1="1400" x2="850" y2="1400" style="stroke:#800;stroke-width:10;stroke-opacity:1.000000;stroke-linecap:round"/>
  <g transform="translate(868,1394) rotate(0)" > <text font-size="66.6666666667" fill="#800" font-family="monospace"  >
   10
  </text> </g> 
  <g transform="translate(690,1430) rotate(0)" > <text font-size="66.6666666667" fill="#088" font-family="monospace"  >
   PD4
  </text> </g> 
  <circle cx="1000" cy="1400" r="10"
    style="fill:none;stroke:#800;stroke-width:2"  />
  <line x1="1000" y1="350" x2="850" y2="350" style="stroke:#800;stroke-width:10;stroke-opacity:1.000000;stroke-linecap:round"/>
  <g transform="translate(868,344) rotate(0)" > <text font-size="66.6666666667" fill="#800" font-family="monospace"  >
   20
  </text> </g> 
  <g transform="translate(490,380) rotate(0)" > <text font-size="66.6666666667" fill="#088" font-family="monospace"  >
   (A10)PC2
  </text> </g> 
  <circle cx="1000" cy="350" r="10"
    style="fill:none;stroke:#800;stroke-width:2"  />
  <line x1="1000" y1="-1000" x2="850" y2="-1000" style="stroke:#800;stroke-width:10;stroke-opacity:1.000000;stroke-linecap:round"/>
  <g transform="translate(868,-1006) rotate(0)" > <text font-size="66.6666666667" fill="#800" font-family="monospace"  >
   30
  </text> </g> 
  <g transform="translate(490,-970) rotate(0)" > <text font-size="66.6666666667" fill="#088" font-family="monospace"  >
   (AD7)PA7
  </text> </g> 
  <circle cx="1000" cy="-1000" r="10"
    style="fill:none;stroke:#800;stroke-width:2"  />
  <line x1="1000" y1="-700" x2="850" y2="-700" style="stroke:#800;stroke-width:10;stroke-opacity:1.000000;stroke-linecap:round"/>
  <g transform="translate(868,-706) rotate(0)" > <text font-size="66.6666666667" fill="#800" font-family="monospace"  >
   40
  </text> </g> 
  <g transform="translate(530,-670) rotate(0)" > <text font-size="66.6666666667" fill="#088" font-family="monospace"  >
   (T0)PB0
  </text> </g> 
  <circle cx="1000" cy="-700" r="10"
    style="fill:none;stroke:#800;stroke-width:2"  />
  <line x1="1000" y1="1500" x2="850" y2="1500" style="stroke:#800;stroke-width:10;stroke-opacity:1.000000;stroke-linecap:round"/>
  <g transform="translate(868,1494) rotate(0)" > <text font-size="66.6666666667" fill="#800" font-family="monospace"  >
   11
  </text> </g> 
  <g transform="translate(450,1530) rotate(0)" > <text font-size="66.6666666667" fill="#088" font-family="monospace"  >
   (OC1A)PD5
  </text> </g> 
  <circle cx="1000" cy="1500" r="10"
    style="fill:none;stroke:#800;stroke-width:2"  />
  <line x1="1000" y1="450" x2="850" y2="450" style="stroke:#800;stroke-width:10;stroke-opacity:1.000000;stroke-linecap:round"/>
  <g transform="translate(868,444) rotate(0)" > <text font-size="66.6666666667" fill="#800" font-family="monospace"  >
   21
  </text> </g> 
  <g transform="translate(490,480) rotate(0)" > <text font-size="66.6666666667" fill="#088" font-family="monospace"  >
   (A11)PC3
  </text> </g> 
  <circle cx="1000" cy="450" r="10"
    style="fill:none;stroke:#800;stroke-width:2"  />
  <line x1="1000" y1="-1100" x2="850" y2="-1100" style="stroke:#800;stroke-width:10;stroke-opacity:1.000000;stroke-linecap:round"/>
  <g transform="translate(868,-1106) rotate(0)" > <text font-size="66.6666666667" fill="#800" font-family="monospace"  >
   31
  </text> </g> 
  <g transform="translate(490,-1070) rotate(0)" > <text font-size="66.6666666667" fill="#088" font-family="monospace"  >
   (AD6)PA6
  </text> </g> 
  <circle cx="1000" cy="-1100" r="10"
    style="fill:none;stroke:#800;stroke-width:2"  />
  <line x1="1000" y1="-600" x2="850" y2="-600" style="stroke:#800;stroke-width:10;stroke-opacity:1.000000;stroke-linecap:round"/>
  <g transform="translate(868,-606) rotate(0)" > <text font-size="66.6666666667" fill="#800" font-family="monospace"  >
   41
  </text> </g> 
  <g transform="translate(530,-570) rotate(0)" > <text font-size="66.6666666667" fill="#088" font-family="monospace"  >
   (T1)PB1
  </text> </g> 
  <circle cx="1000" cy="-600" r="10"
    style="fill:none;stroke:#800;stroke-width:2"  />
  <line x1="1000" y1="1600" x2="850" y2="1600" style="stroke:#800;stroke-width:10;stroke-opacity:1.000000;stroke-linecap:round"/>
  <g transform="translate(868,1594) rotate(0)" > <text font-size="66.6666666667" fill="#800" font-family="monospace"  >
   12
  </text> </g> 
  <g transform="translate(450,1630) rotate(0)" > <text font-size="66.6666666667" fill="#088" font-family="monospace"  >
   (~WR~)PD6
  </text> </g> 
  <circle cx="1000" cy="1600" r="10"
    style="fill:none;stroke:#800;stroke-width:2"  />
  <line x1="1000" y1="550" x2="850" y2="550" style="stroke:#800;stroke-width:10;stroke-opacity:1.000000;stroke-linecap:round"/>
  <g transform="translate(868,544) rotate(0)" > <text font-size="66.6666666667" fill="#800" font-family="monospace"  >
   22
  </text> </g> 
  <g transform="translate(490,580) rotate(0)" > <text font-size="66.6666666667" fill="#088" font-family="monospace"  >
   (A12)PC4
  </text> </g> 
  <circle cx="1000" cy="550" r="10"
    style="fill:none;stroke:#800;stroke-width:2"  />
  <line x1="1000" y1="-1200" x2="850" y2="-1200" style="stroke:#800;stroke-width:10;stroke-opacity:1.000000;stroke-linecap:round"/>
  <g transform="translate(868,-1206) rotate(0)" > <text font-size="66.6666666667" fill="#800" font-family="monospace"  >
   32
  </text> </g> 
  <g transform="translate(490,-1170) rotate(0)" > <text font-size="66.6666666667" fill="#088" font-family="monospace"  >
   (AD5)PA5
  </text> </g> 
  <circle cx="1000" cy="-1200" r="10"
    style="fill:none;stroke:#800;stroke-width:2"  />
  <line x1="1000" y1="-500" x2="850" y2="-500" style="stroke:#800;stroke-width:10;stroke-opacity:1.000000;stroke-linecap:round"/>
  <g transform="translate(868,-506) rotate(0)" > <text font-size="66.6666666667" fill="#800" font-family="monospace"  >
   42
  </text> </g> 
  <g transform="translate(450,-470) rotate(0)" > <text font-size="66.6666666667" fill="#088" font-family="monospace"  >
   (AIN0)PB2
  </text> </g> 
  <circle cx="1000" cy="-500" r="10"
    style="fill:none;stroke:#800;stroke-width:2"  />
  <line x1="1000" y1="1700" x2="850" y2="1700" style="stroke:#800;stroke-width:10;stroke-opacity:1.000000;stroke-linecap:round"/>
  <g transform="translate(868,1694) rotate(0)" > <text font-size="66.6666666667" fill="#800" font-family="monospace"  >
   13
  </text> </g> 
  <g transform="translate(450,1730) rotate(0)" > <text font-size="66.6666666667" fill="#088" font-family="monospace"  >
   (~RD~)PD7
  </text> </g> 
  <circle cx="1000" cy="1700" r="10"
    style="fill:none;stroke:#800;stroke-width:2"  />
  <line x1="1000" y1="650" x2="850" y2="650" style="stroke:#800;stroke-width:10;stroke-opacity:1.000000;stroke-linecap:round"/>
  <g transform="translate(868,644) rotate(0)" > <text font-size="66.6666666667" fill="#800" font-family="monospace"  >
   23
  </text> </g> 
  <g transform="translate(490,680) rotate(0)" > <text font-size="66.6666666667" fill="#088" font-family="monospace"  >
   (A13)PC5
  </text> </g> 
  <circle cx="1000" cy="650" r="10"
    style="fill:none;stroke:#800;stroke-width:2"  />
  <line x1="1000" y1="-1300" x2="850" y2="-1300" style="stroke:#800;stroke-width:10;stroke-opacity:1.000000;stroke-linecap:round"/>
  <g transform="translate(868,-1306) rotate(0)" > <text font-size="66.6666666667" fill="#800" font-family="monospace"  >
   33
  </text> </g> 
  <g transform="translate(490,-1270) rotate(0)" > <text font-size="66.6666666667" fill="#088" font-family="monospace"  >
   (AD4)PA4
  </text> </g> 
  <circle cx="1000" cy="-1300" r="10"
    style="fill:none;stroke:#800;stroke-width:2"  />
  <line x1="1000" y1="-400" x2="850" y2="-400" style="stroke:#800;stroke-width:10;stroke-opacity:1.000000;stroke-linecap:round"/>
  <g transform="translate(868,-406) rotate(0)" > <text font-size="66.6666666667" fill="#800" font-family="monospace"  >
   43
  </text> </g> 
  <g transform="translate(450,-370) rotate(0)" > <text font-size="66.6666666667" fill="#088" font-family="monospace"  >
   (AIN1)PB3
  </text> </g> 
  <circle cx="1000" cy="-400" r="10"
    style="fill:none;stroke:#800;stroke-width:2"  />
  <line x1="-1000" y1="-1200" x2="-850" y2="-1200" style="stroke:#800;stroke-width:10;stroke-opacity:1.000000;stroke-linecap:round"/>
  <g transform="translate(-981,-1206) rotate(0)" > <text font-size="66.6666666667" fill="#800" font-family="monospace"  >
   14
  </text> </g> 
  <g transform="translate(-832,-1170) rotate(0)" > <text font-size="66.6666666667" fill="#088" font-family="monospace"  >
   XTAL2
  </text> </g> 
  <circle cx="-1000" cy="-1200" r="10"
    style="fill:none;stroke:#800;stroke-width:2"  />
  <line x1="1000" y1="750" x2="850" y2="750" style="stroke:#800;stroke-width:10;stroke-opacity:1.000000;stroke-linecap:round"/>
  <g transform="translate(868,744) rotate(0)" > <text font-size="66.6666666667" fill="#800" font-family="monospace"  >
   24
  </text> </g> 
  <g transform="translate(490,780) rotate(0)" > <text font-size="66.6666666667" fill="#088" font-family="monospace"  >
   (A14)PC6
  </text> </g> 
  <circle cx="1000" cy="750" r="10"
    style="fill:none;stroke:#800;stroke-width:2"  />
  <line x1="1000" y1="-1400" x2="850" y2="-1400" style="stroke:#800;stroke-width:10;stroke-opacity:1.000000;stroke-linecap:round"/>
  <g transform="translate(868,-1406) rotate(0)" > <text font-size="66.6666666667" fill="#800" font-family="monospace"  >
   34
  </text> </g> 
  <g transform="translate(490,-1370) rotate(0)" > <text font-size="66.6666666667" fill="#088" font-family="monospace"  >
   (AD3)PA3
  </text> </g> 
  <circle cx="1000" cy="-1400" r="10"
    style="fill:none;stroke:#800;stroke-width:2"  />
  <line x1="1000" y1="-300" x2="850" y2="-300" style="stroke:#800;stroke-width:10;stroke-opacity:1.000000;stroke-linecap:round"/>
  <g transform="translate(868,-306) rotate(0)" > <text font-size="66.6666666667" fill="#800" font-family="monospace"  >
   44
  </text> </g> 
  <g transform="translate(450,-270) rotate(0)" > <text font-size="66.6666666667" fill="#088" font-family="monospace"  >
   (~SS~)PB4
  </text> </g> 
  <circle cx="1000" cy="-300" r="10"
    style="fill:none;stroke:#800;stroke-width:2"  />
  <line x1="-1000" y1="-800" x2="-850" y2="-800" style="stroke:#800;stroke-width:10;stroke-opacity:1.000000;stroke-linecap:round"/>
  <g transform="translate(-981,-806) rotate(0)" > <text font-size="66.6666666667" fill="#800" font-family="monospace"  >
   15
  </text> </g> 
  <g transform="translate(-832,-770) rotate(0)" > <text font-size="66.6666666667" fill="#088" font-family="monospace"  >
   XTAL1
  </text> </g> 
  <circle cx="-1000" cy="-800" r="10"
    style="fill:none;stroke:#800;stroke-width:2"  />
  <line x1="1000" y1="850" x2="850" y2="850" style="stroke:#800;stroke-width:10;stroke-opacity:1.000000;stroke-linecap:round"/>
  <g transform="translate(868,844) rotate(0)" > <text font-size="66.6666666667" fill="#800" font-family="monospace"  >
   25
  </text> </g> 
  <g transform="translate(490,880) rotate(0)" > <text font-size="66.6666666667" fill="#088" font-family="monospace"  >
   (A15)PC7
  </text> </g> 
  <circle cx="1000" cy="850" r="10"
    style="fill:none;stroke:#800;stroke-width:2"  />
  <line x1="1000" y1="-1500" x2="850" y2="-1500" style="stroke:#800;stroke-width:10;stroke-opacity:1.000000;stroke-linecap:round"/>
  <g transform="translate(868,-1506) rotate(0)" > <text font-size="66.6666666667" fill="#800" font-family="monospace"  >
   35
  </text> </g> 
  <g transform="translate(490,-1470) rotate(0)" > <text font-size="66.6666666667" fill="#088" font-family="monospace"  >
   (AD2)PA2
  </text> </g> 
  <circle cx="1000" cy="-1500" r="10"
    style="fill:none;stroke:#800;stroke-width:2"  />
  <line x1="0" y1="2000" x2="0" y2="1850" style="stroke:#800;stroke-width:10;stroke-opacity:1.000000;stroke-linecap:round"/>
  <g transform="translate(-10,1945) rotate(-90)" > <text font-size="66.6666666667" fill="#800" font-family="monospace"  >
   16
  </text> </g> 
  <g transform="translate(5,1816) rotate(-90)" > <text font-size="66.6666666667" fill="#088" font-family="monospace"  >
   GND
  </text> </g> 
  <circle cx="0" cy="2000" r="10"
    style="fill:none;stroke:#800;stroke-width:2"  />
  <line x1="-1000" y1="1500" x2="-850" y2="1500" style="stroke:#800;stroke-width:10;stroke-opacity:1.000000;stroke-linecap:round"/>
  <g transform="translate(-981,1494) rotate(0)" > <text font-size="66.6666666667" fill="#800" font-family="monospace"  >
   26
  </text> </g> 
  <g transform="translate(-832,1530) rotate(0)" > <text font-size="66.6666666667" fill="#088" font-family="monospace"  >
   OC1B
  </text> </g> 
  <circle cx="-1000" cy="1500" r="10"
    style="fill:none;stroke:#800;stroke-width:2"  />
  <line x1="1000" y1="-1600" x2="850" y2="-1600" style="stroke:#800;stroke-width:10;stroke-opacity:1.000000;stroke-linecap:round"/>
  <g transform="translate(868,-1606) rotate(0)" > <text font-size="66.6666666667" fill="#800" font-family="monospace"  >
   36
  </text> </g> 
  <g transform="translate(490,-1570) rotate(0)" > <text font-size="66.6666666667" fill="#088" font-family="monospace"  >
   (AD1)PA1
  </text> </g> 
  <circle cx="1000" cy="-1600" r="10"
    style="fill:none;stroke:#800;stroke-width:2"  />
  <line x1="1000" y1="-850" x2="850" y2="-850" style="stroke:#800;stroke-width:10;stroke-opacity:1.000000;stroke-linecap:round"/>
  <g transform="translate(868,-856) rotate(0)" > <text font-size="66.6666666667" fill="#800" font-family="monospace"  >
   27
  </text> </g> 
  <g transform="translate(690,-820) rotate(0)" > <text font-size="66.6666666667" fill="#088" font-family="monospace"  >
   ALE
  </text> </g> 
  <circle cx="1000" cy="-850" r="10"
    style="fill:none;stroke:#800;stroke-width:2"  />
  <line x1="1000" y1="-1700" x2="850" y2="-1700" style="stroke:#800;stroke-width:10;stroke-opacity:1.000000;stroke-linecap:round"/>
  <g transform="translate(868,-1706) rotate(0)" > <text font-size="66.6666666667" fill="#800" font-family="monospace"  >
   37
  </text> </g> 
  <g transform="translate(490,-1670) rotate(0)" > <text font-size="66.6666666667" fill="#088" font-family="monospace"  >
   (AD0)PA0
  </text> </g> 
  <circle cx="1000" cy="-1700" r="10"
    style="fill:none;stroke:#800;stroke-width:2"  />
  <line x1="1000" y1="150" x2="850" y2="150" style="stroke:#800;stroke-width:10;stroke-opacity:1.000000;stroke-linecap:round"/>
  <g transform="translate(868,144) rotate(0)" > <text font-size="66.6666666667" fill="#800" font-family="monospace"  >
   18
  </text> </g> 
  <g transform="translate(530,180) rotate(0)" > <text font-size="66.6666666667" fill="#088" font-family="monospace"  >
   (A8)PC0
  </text> </g> 
  <circle cx="1000" cy="150" r="10"
    style="fill:none;stroke:#800;stroke-width:2"  />
  <line x1="0" y1="-2000" x2="0" y2="-1850" style="stroke:#800;stroke-width:10;stroke-opacity:1.000000;stroke-linecap:round"/>
  <g transform="translate(-10,-1905) rotate(-90)" > <text font-size="66.6666666667" fill="#800" font-family="monospace"  >
   38
  </text> </g> 
  <g transform="translate(5,-1696) rotate(-90)" > <text font-size="66.6666666667" fill="#088" font-family="monospace"  >
   VCC
  </text> </g> 
  <circle cx="0" cy="-2000" r="10"
    style="fill:none;stroke:#800;stroke-width:2"  />
  <line x1="1000" y1="250" x2="850" y2="250" style="stroke:#800;stroke-width:10;stroke-opacity:1.000000;stroke-linecap:round"/>
  <g transform="translate(868,244) rotate(0)" > <text font-size="66.6666666667" fill="#800" font-family="monospace"  >
   19
  </text> </g> 
  <g transform="translate(530,280) rotate(0)" > <text font-size="66.6666666667" fill="#088" font-family="monospace"  >
   (A9)PC1
  </text> </g> 
  <circle cx="1000" cy="250" r="10"
    style="fill:none;stroke:#800;stroke-width:2"  />
  <line x1="-1000" y1="1400" x2="-850" y2="1400" style="stroke:#800;stroke-width:10;stroke-opacity:1.000000;stroke-linecap:round"/>
  <g transform="translate(-981,1394) rotate(0)" > <text font-size="66.6666666667" fill="#800" font-family="monospace"  >
   29
  </text> </g> 
  <g transform="translate(-832,1430) rotate(0)" > <text font-size="66.6666666667" fill="#088" font-family="monospace"  >
   ICP
  </text> </g> 
  <circle cx="-1000" cy="1400" r="10"
    style="fill:none;stroke:#800;stroke-width:2"  />
 </g>
</svg>
