<?xml version="1.0"?>
<svg height="520" width="520"  >
 <g style="fill-opacity:1.0; stroke:black;
  stroke-width:1;" transform=" translate( 260.0,260.0 ) scale( 0.15,0.15 )">
  <g transform="translate(-840,-430) rotate(0)" > <text font-size="66.6666666667" fill="#088" font-family="monospace"  >
   IC
  </text> </g> 
  <g transform="translate(430,470) rotate(0)" > <text font-size="66.6666666667" fill="#088" font-family="monospace"  >
   AT90S2343-S
  </text> </g> 
  <rect x="-850" y="-400" height="800"
    width="1700" style="fill:none;stroke:#800;stroke-width:10" />
  <line x1="-1000" y1="-250" x2="-850" y2="-250" style="stroke:#800;stroke-width:10;stroke-opacity:1.000000;stroke-linecap:round"/>
  <g transform="translate(-953,-256) rotate(0)" > <text font-size="66.6666666667" fill="#800" font-family="monospace"  >
   1
  </text> </g> 
  <g transform="translate(-832,-220) rotate(0)" > <text font-size="66.6666666667" fill="#088" font-family="monospace"  >
   ~RESET
  </text> </g> 
  <circle cx="-1000" cy="-250" r="10"
    style="fill:none;stroke:#800;stroke-width:2"  />
  <line x1="1000" y1="50" x2="850" y2="50" style="stroke:#800;stroke-width:10;stroke-opacity:1.000000;stroke-linecap:round"/>
  <g transform="translate(896,44) rotate(0)" > <text font-size="66.6666666667" fill="#800" font-family="monospace"  >
   2
  </text> </g> 
  <g transform="translate(410,80) rotate(0)" > <text font-size="66.6666666667" fill="#088" font-family="monospace"  >
   (CLOCK)PB3
  </text> </g> 
  <circle cx="1000" cy="50" r="10"
    style="fill:none;stroke:#800;stroke-width:2"  />
  <line x1="1000" y1="150" x2="850" y2="150" style="stroke:#800;stroke-width:10;stroke-opacity:1.000000;stroke-linecap:round"/>
  <g transform="translate(896,144) rotate(0)" > <text font-size="66.6666666667" fill="#800" font-family="monospace"  >
   3
  </text> </g> 
  <g transform="translate(690,180) rotate(0)" > <text font-size="66.6666666667" fill="#088" font-family="monospace"  >
   PB4
  </text> </g> 
  <circle cx="1000" cy="150" r="10"
    style="fill:none;stroke:#800;stroke-width:2"  />
  <line x1="0" y1="550" x2="0" y2="400" style="stroke:#800;stroke-width:10;stroke-opacity:1.000000;stroke-linecap:round"/>
  <g transform="translate(-10,485) rotate(-90)" > <text font-size="66.6666666667" fill="#800" font-family="monospace"  >
   4
  </text> </g> 
  <g transform="translate(5,366) rotate(-90)" > <text font-size="66.6666666667" fill="#088" font-family="monospace"  >
   GND
  </text> </g> 
  <circle cx="0" cy="550" r="10"
    style="fill:none;stroke:#800;stroke-width:2"  />
  <line x1="1000" y1="-250" x2="850" y2="-250" style="stroke:#800;stroke-width:10;stroke-opacity:1.000000;stroke-linecap:round"/>
  <g transform="translate(896,-256) rotate(0)" > <text font-size="66.6666666667" fill="#800" font-family="monospace"  >
   5
  </text> </g> 
  <g transform="translate(450,-220) rotate(0)" > <text font-size="66.6666666667" fill="#088" font-family="monospace"  >
   (MOSI)PB0
  </text> </g> 
  <circle cx="1000" cy="-250" r="10"
    style="fill:none;stroke:#800;stroke-width:2"  />
  <line x1="1000" y1="-150" x2="850" y2="-150" style="stroke:#800;stroke-width:10;stroke-opacity:1.000000;stroke-linecap:round"/>
  <g transform="translate(896,-156) rotate(0)" > <text font-size="66.6666666667" fill="#800" font-family="monospace"  >
   6
  </text> </g> 
  <g transform="translate(250,-120) rotate(0)" > <text font-size="66.6666666667" fill="#088" font-family="monospace"  >
   (INT0/MISO)PB1
  </text> </g> 
  <circle cx="1000" cy="-150" r="10"
    style="fill:none;stroke:#800;stroke-width:2"  />
  <line x1="1000" y1="-50" x2="850" y2="-50" style="stroke:#800;stroke-width:10;stroke-opacity:1.000000;stroke-linecap:round"/>
  <g transform="translate(896,-56) rotate(0)" > <text font-size="66.6666666667" fill="#800" font-family="monospace"  >
   7
  </text> </g> 
  <g transform="translate(370,-20) rotate(0)" > <text font-size="66.6666666667" fill="#088" font-family="monospace"  >
   (SCK/T0)PB2
  </text> </g> 
  <circle cx="1000" cy="-50" r="10"
    style="fill:none;stroke:#800;stroke-width:2"  />
  <line x1="0" y1="-550" x2="0" y2="-400" style="stroke:#800;stroke-width:10;stroke-opacity:1.000000;stroke-linecap:round"/>
  <g transform="translate(-10,-465) rotate(-90)" > <text font-size="66.6666666667" fill="#800" font-family="monospace"  >
   8
  </text> </g> 
  <g transform="translate(5,-246) rotate(-90)" > <text font-size="66.6666666667" fill="#088" font-family="monospace"  >
   VCC
  </text> </g> 
  <circle cx="0" cy="-550" r="10"
    style="fill:none;stroke:#800;stroke-width:2"  />
 </g>
</svg>
