<?xml version="1.0"?>
<svg height="750" width="750"  >
 <g style="fill-opacity:1.0; stroke:black;
  stroke-width:1;" transform=" translate( 375.2,375.2 ) scale( 0.15,0.15 )">
  <g transform="translate(-940,-1255) rotate(0)" > <text font-size="66.6666666667" fill="#088" font-family="monospace"  >
   IC
  </text> </g> 
  <g transform="translate(185,1325) rotate(0)" > <text font-size="66.6666666667" fill="#088" font-family="monospace"  >
   AT90USB162-A
  </text> </g> 
  <rect x="-900" y="-1250" height="2500"
    width="1800" style="fill:none;stroke:#800;stroke-width:10" />
  <line x1="-1050" y1="-750" x2="-900" y2="-750" style="stroke:#800;stroke-width:10;stroke-opacity:1.000000;stroke-linecap:round"/>
  <g transform="translate(-1003,-756) rotate(0)" > <text font-size="66.6666666667" fill="#800" font-family="monospace"  >
   1
  </text> </g> 
  <g transform="translate(-882,-720) rotate(0)" > <text font-size="66.6666666667" fill="#088" font-family="monospace"  >
   XTAL1
  </text> </g> 
  <circle cx="-1050" cy="-750" r="10"
    style="fill:none;stroke:#800;stroke-width:2"  />
  <line x1="-1050" y1="-550" x2="-900" y2="-550" style="stroke:#800;stroke-width:10;stroke-opacity:1.000000;stroke-linecap:round"/>
  <g transform="translate(-1003,-556) rotate(0)" > <text font-size="66.6666666667" fill="#800" font-family="monospace"  >
   2
  </text> </g> 
  <g transform="translate(-882,-520) rotate(0)" > <text font-size="66.6666666667" fill="#088" font-family="monospace"  >
   XTAL2(PC0)
  </text> </g> 
  <circle cx="-1050" cy="-550" r="10"
    style="fill:none;stroke:#800;stroke-width:2"  />
  <line x1="0" y1="1400" x2="0" y2="1250" style="stroke:#800;stroke-width:10;stroke-opacity:1.000000;stroke-linecap:round"/>
  <g transform="translate(-10,1335) rotate(-90)" > <text font-size="66.6666666667" fill="#800" font-family="monospace"  >
   3
  </text> </g> 
  <g transform="translate(5,1216) rotate(-90)" > <text font-size="66.6666666667" fill="#088" font-family="monospace"  >
   GND
  </text> </g> 
  <circle cx="0" cy="1400" r="10"
    style="fill:none;stroke:#800;stroke-width:2"  />
  <line x1="-150" y1="-1400" x2="-150" y2="-1250" style="stroke:#800;stroke-width:10;stroke-opacity:1.000000;stroke-linecap:round"/>
  <g transform="translate(-160,-1315) rotate(-90)" > <text font-size="66.6666666667" fill="#800" font-family="monospace"  >
   4
  </text> </g> 
  <g transform="translate(-145,-1096) rotate(-90)" > <text font-size="66.6666666667" fill="#088" font-family="monospace"  >
   VCC
  </text> </g> 
  <circle cx="-150" cy="-1400" r="10"
    style="fill:none;stroke:#800;stroke-width:2"  />
  <line x1="1050" y1="-200" x2="900" y2="-200" style="stroke:#800;stroke-width:10;stroke-opacity:1.000000;stroke-linecap:round"/>
  <g transform="translate(946,-206) rotate(0)" > <text font-size="66.6666666667" fill="#800" font-family="monospace"  >
   5
  </text> </g> 
  <g transform="translate(380,-170) rotate(0)" > <text font-size="66.6666666667" fill="#088" font-family="monospace"  >
   (PCINT11)PC2
  </text> </g> 
  <circle cx="1050" cy="-200" r="10"
    style="fill:none;stroke:#800;stroke-width:2"  />
  <line x1="1050" y1="350" x2="900" y2="350" style="stroke:#800;stroke-width:10;stroke-opacity:1.000000;stroke-linecap:round"/>
  <g transform="translate(946,344) rotate(0)" > <text font-size="66.6666666667" fill="#800" font-family="monospace"  >
   6
  </text> </g> 
  <g transform="translate(300,380) rotate(0)" > <text font-size="66.6666666667" fill="#088" font-family="monospace"  >
   (OC0B/INT0)PD0
  </text> </g> 
  <circle cx="1050" cy="350" r="10"
    style="fill:none;stroke:#800;stroke-width:2"  />
  <line x1="1050" y1="450" x2="900" y2="450" style="stroke:#800;stroke-width:10;stroke-opacity:1.000000;stroke-linecap:round"/>
  <g transform="translate(946,444) rotate(0)" > <text font-size="66.6666666667" fill="#800" font-family="monospace"  >
   7
  </text> </g> 
  <g transform="translate(300,480) rotate(0)" > <text font-size="66.6666666667" fill="#088" font-family="monospace"  >
   (AIN0/INT1)PD1
  </text> </g> 
  <circle cx="1050" cy="450" r="10"
    style="fill:none;stroke:#800;stroke-width:2"  />
  <line x1="1050" y1="550" x2="900" y2="550" style="stroke:#800;stroke-width:10;stroke-opacity:1.000000;stroke-linecap:round"/>
  <g transform="translate(946,544) rotate(0)" > <text font-size="66.6666666667" fill="#800" font-family="monospace"  >
   8
  </text> </g> 
  <g transform="translate(100,580) rotate(0)" > <text font-size="66.6666666667" fill="#088" font-family="monospace"  >
   (RXD1/AIN1/INT2)PD2
  </text> </g> 
  <circle cx="1050" cy="550" r="10"
    style="fill:none;stroke:#800;stroke-width:2"  />
  <line x1="1050" y1="650" x2="900" y2="650" style="stroke:#800;stroke-width:10;stroke-opacity:1.000000;stroke-linecap:round"/>
  <g transform="translate(946,644) rotate(0)" > <text font-size="66.6666666667" fill="#800" font-family="monospace"  >
   9
  </text> </g> 
  <g transform="translate(300,680) rotate(0)" > <text font-size="66.6666666667" fill="#088" font-family="monospace"  >
   (TXD1/INT3)PD3
  </text> </g> 
  <circle cx="1050" cy="650" r="10"
    style="fill:none;stroke:#800;stroke-width:2"  />
  <line x1="1050" y1="750" x2="900" y2="750" style="stroke:#800;stroke-width:10;stroke-opacity:1.000000;stroke-linecap:round"/>
  <g transform="translate(918,744) rotate(0)" > <text font-size="66.6666666667" fill="#800" font-family="monospace"  >
   10
  </text> </g> 
  <g transform="translate(500,780) rotate(0)" > <text font-size="66.6666666667" fill="#088" font-family="monospace"  >
   (INT5)PD4
  </text> </g> 
  <circle cx="1050" cy="750" r="10"
    style="fill:none;stroke:#800;stroke-width:2"  />
  <line x1="1050" y1="-450" x2="900" y2="-450" style="stroke:#800;stroke-width:10;stroke-opacity:1.000000;stroke-linecap:round"/>
  <g transform="translate(918,-456) rotate(0)" > <text font-size="66.6666666667" fill="#800" font-family="monospace"  >
   20
  </text> </g> 
  <g transform="translate(420,-420) rotate(0)" > <text font-size="66.6666666667" fill="#088" font-family="monospace"  >
   (PCINT6)PB6
  </text> </g> 
  <circle cx="1050" cy="-450" r="10"
    style="fill:none;stroke:#800;stroke-width:2"  />
  <line x1="-1050" y1="100" x2="-900" y2="100" style="stroke:#800;stroke-width:10;stroke-opacity:1.000000;stroke-linecap:round"/>
  <g transform="translate(-1031,94) rotate(0)" > <text font-size="66.6666666667" fill="#800" font-family="monospace"  >
   30
  </text> </g> 
  <g transform="translate(-882,130) rotate(0)" > <text font-size="66.6666666667" fill="#088" font-family="monospace"  >
   D-/SDATA
  </text> </g> 
  <circle cx="-1050" cy="100" r="10"
    style="fill:none;stroke:#800;stroke-width:2"  />
  <line x1="1050" y1="850" x2="900" y2="850" style="stroke:#800;stroke-width:10;stroke-opacity:1.000000;stroke-linecap:round"/>
  <g transform="translate(918,844) rotate(0)" > <text font-size="66.6666666667" fill="#800" font-family="monospace"  >
   11
  </text> </g> 
  <g transform="translate(220,880) rotate(0)" > <text font-size="66.6666666667" fill="#088" font-family="monospace"  >
   (XCK/PCINT12)PD5
  </text> </g> 
  <circle cx="1050" cy="850" r="10"
    style="fill:none;stroke:#800;stroke-width:2"  />
  <line x1="1050" y1="-350" x2="900" y2="-350" style="stroke:#800;stroke-width:10;stroke-opacity:1.000000;stroke-linecap:round"/>
  <g transform="translate(918,-356) rotate(0)" > <text font-size="66.6666666667" fill="#800" font-family="monospace"  >
   21
  </text> </g> 
  <g transform="translate(20,-320) rotate(0)" > <text font-size="66.6666666667" fill="#088" font-family="monospace"  >
   (OC0A/OC1C/PCINT7)PB7
  </text> </g> 
  <circle cx="1050" cy="-350" r="10"
    style="fill:none;stroke:#800;stroke-width:2"  />
  <line x1="-1050" y1="-200" x2="-900" y2="-200" style="stroke:#800;stroke-width:10;stroke-opacity:1.000000;stroke-linecap:round"/>
  <g transform="translate(-1031,-206) rotate(0)" > <text font-size="66.6666666667" fill="#800" font-family="monospace"  >
   31
  </text> </g> 
  <g transform="translate(-882,-170) rotate(0)" > <text font-size="66.6666666667" fill="#088" font-family="monospace"  >
   UVCC
  </text> </g> 
  <circle cx="-1050" cy="-200" r="10"
    style="fill:none;stroke:#800;stroke-width:2"  />
  <line x1="1050" y1="950" x2="900" y2="950" style="stroke:#800;stroke-width:10;stroke-opacity:1.000000;stroke-linecap:round"/>
  <g transform="translate(918,944) rotate(0)" > <text font-size="66.6666666667" fill="#800" font-family="monospace"  >
   12
  </text> </g> 
  <g transform="translate(260,980) rotate(0)" > <text font-size="66.6666666667" fill="#088" font-family="monospace"  >
   (~RTS~/INT6)PD6
  </text> </g> 
  <circle cx="1050" cy="950" r="10"
    style="fill:none;stroke:#800;stroke-width:2"  />
  <line x1="1050" y1="200" x2="900" y2="200" style="stroke:#800;stroke-width:10;stroke-opacity:1.000000;stroke-linecap:round"/>
  <g transform="translate(918,194) rotate(0)" > <text font-size="66.6666666667" fill="#800" font-family="monospace"  >
   22
  </text> </g> 
  <g transform="translate(100,230) rotate(0)" > <text font-size="66.6666666667" fill="#088" font-family="monospace"  >
   (ICP1/CLKO/INT4)PC7
  </text> </g> 
  <circle cx="1050" cy="200" r="10"
    style="fill:none;stroke:#800;stroke-width:2"  />
  <line x1="150" y1="-1400" x2="150" y2="-1250" style="stroke:#800;stroke-width:10;stroke-opacity:1.000000;stroke-linecap:round"/>
  <g transform="translate(140,-1305) rotate(-90)" > <text font-size="66.6666666667" fill="#800" font-family="monospace"  >
   32
  </text> </g> 
  <g transform="translate(155,-1056) rotate(-90)" > <text font-size="66.6666666667" fill="#088" font-family="monospace"  >
   AVCC
  </text> </g> 
  <circle cx="150" cy="-1400" r="10"
    style="fill:none;stroke:#800;stroke-width:2"  />
  <line x1="1050" y1="1050" x2="900" y2="1050" style="stroke:#800;stroke-width:10;stroke-opacity:1.000000;stroke-linecap:round"/>
  <g transform="translate(918,1044) rotate(0)" > <text font-size="66.6666666667" fill="#800" font-family="monospace"  >
   13
  </text> </g> 
  <g transform="translate(-100,1080) rotate(0)" > <text font-size="66.6666666667" fill="#088" font-family="monospace"  >
   (~CTS~/~HWB~/T0/INT7)PD7
  </text> </g> 
  <circle cx="1050" cy="1050" r="10"
    style="fill:none;stroke:#800;stroke-width:2"  />
  <line x1="1050" y1="100" x2="900" y2="100" style="stroke:#800;stroke-width:10;stroke-opacity:1.000000;stroke-linecap:round"/>
  <g transform="translate(918,94) rotate(0)" > <text font-size="66.6666666667" fill="#800" font-family="monospace"  >
   23
  </text> </g> 
  <g transform="translate(220,130) rotate(0)" > <text font-size="66.6666666667" fill="#088" font-family="monospace"  >
   (OC1A/PCINT8)PC6
  </text> </g> 
  <circle cx="1050" cy="100" r="10"
    style="fill:none;stroke:#800;stroke-width:2"  />
  <line x1="1050" y1="-1050" x2="900" y2="-1050" style="stroke:#800;stroke-width:10;stroke-opacity:1.000000;stroke-linecap:round"/>
  <g transform="translate(918,-1056) rotate(0)" > <text font-size="66.6666666667" fill="#800" font-family="monospace"  >
   14
  </text> </g> 
  <g transform="translate(220,-1020) rotate(0)" > <text font-size="66.6666666667" fill="#088" font-family="monospace"  >
   (~SS~/PCINT0)PB0
  </text> </g> 
  <circle cx="1050" cy="-1050" r="10"
    style="fill:none;stroke:#800;stroke-width:2"  />
  <line x1="-1050" y1="-1050" x2="-900" y2="-1050" style="stroke:#800;stroke-width:10;stroke-opacity:1.000000;stroke-linecap:round"/>
  <g transform="translate(-1031,-1056) rotate(0)" > <text font-size="66.6666666667" fill="#800" font-family="monospace"  >
   24
  </text> </g> 
  <g transform="translate(-882,-1020) rotate(0)" > <text font-size="66.6666666667" fill="#088" font-family="monospace"  >
   ~RESET~(PC1/dW)
  </text> </g> 
  <circle cx="-1050" cy="-1050" r="10"
    style="fill:none;stroke:#800;stroke-width:2"  />
  <line x1="1050" y1="-950" x2="900" y2="-950" style="stroke:#800;stroke-width:10;stroke-opacity:1.000000;stroke-linecap:round"/>
  <g transform="translate(918,-956) rotate(0)" > <text font-size="66.6666666667" fill="#800" font-family="monospace"  >
   15
  </text> </g> 
  <g transform="translate(220,-920) rotate(0)" > <text font-size="66.6666666667" fill="#088" font-family="monospace"  >
   (SCLK/PCINT1)PB1
  </text> </g> 
  <circle cx="1050" cy="-950" r="10"
    style="fill:none;stroke:#800;stroke-width:2"  />
  <line x1="1050" y1="0" x2="900" y2="0" style="stroke:#800;stroke-width:10;stroke-opacity:1.000000;stroke-linecap:round"/>
  <g transform="translate(918,-6) rotate(0)" > <text font-size="66.6666666667" fill="#800" font-family="monospace"  >
   25
  </text> </g> 
  <g transform="translate(220,30) rotate(0)" > <text font-size="66.6666666667" fill="#088" font-family="monospace"  >
   (OC1B/PCINT9)PC5
  </text> </g> 
  <circle cx="1050" cy="0" r="10"
    style="fill:none;stroke:#800;stroke-width:2"  />
  <line x1="1050" y1="-850" x2="900" y2="-850" style="stroke:#800;stroke-width:10;stroke-opacity:1.000000;stroke-linecap:round"/>
  <g transform="translate(918,-856) rotate(0)" > <text font-size="66.6666666667" fill="#800" font-family="monospace"  >
   16
  </text> </g> 
  <g transform="translate(60,-820) rotate(0)" > <text font-size="66.6666666667" fill="#088" font-family="monospace"  >
   (PDI/MOSI/PCINT2)PB2
  </text> </g> 
  <circle cx="1050" cy="-850" r="10"
    style="fill:none;stroke:#800;stroke-width:2"  />
  <line x1="1050" y1="-100" x2="900" y2="-100" style="stroke:#800;stroke-width:10;stroke-opacity:1.000000;stroke-linecap:round"/>
  <g transform="translate(918,-106) rotate(0)" > <text font-size="66.6666666667" fill="#800" font-family="monospace"  >
   26
  </text> </g> 
  <g transform="translate(380,-70) rotate(0)" > <text font-size="66.6666666667" fill="#088" font-family="monospace"  >
   (PCINT10)PC4
  </text> </g> 
  <circle cx="1050" cy="-100" r="10"
    style="fill:none;stroke:#800;stroke-width:2"  />
  <line x1="1050" y1="-750" x2="900" y2="-750" style="stroke:#800;stroke-width:10;stroke-opacity:1.000000;stroke-linecap:round"/>
  <g transform="translate(918,-756) rotate(0)" > <text font-size="66.6666666667" fill="#800" font-family="monospace"  >
   17
  </text> </g> 
  <g transform="translate(60,-720) rotate(0)" > <text font-size="66.6666666667" fill="#088" font-family="monospace"  >
   (PDO/MISO/PCINT3)PB3
  </text> </g> 
  <circle cx="1050" cy="-750" r="10"
    style="fill:none;stroke:#800;stroke-width:2"  />
  <line x1="-1050" y1="350" x2="-900" y2="350" style="stroke:#800;stroke-width:10;stroke-opacity:1.000000;stroke-linecap:round"/>
  <g transform="translate(-1031,344) rotate(0)" > <text font-size="66.6666666667" fill="#800" font-family="monospace"  >
   27
  </text> </g> 
  <g transform="translate(-882,380) rotate(0)" > <text font-size="66.6666666667" fill="#088" font-family="monospace"  >
   UCAP
  </text> </g> 
  <circle cx="-1050" cy="350" r="10"
    style="fill:none;stroke:#800;stroke-width:2"  />
  <line x1="1050" y1="-650" x2="900" y2="-650" style="stroke:#800;stroke-width:10;stroke-opacity:1.000000;stroke-linecap:round"/>
  <g transform="translate(918,-656) rotate(0)" > <text font-size="66.6666666667" fill="#800" font-family="monospace"  >
   18
  </text> </g> 
  <g transform="translate(300,-620) rotate(0)" > <text font-size="66.6666666667" fill="#088" font-family="monospace"  >
   (T1/PCINT4)PB4
  </text> </g> 
  <circle cx="1050" cy="-650" r="10"
    style="fill:none;stroke:#800;stroke-width:2"  />
  <line x1="-1050" y1="550" x2="-900" y2="550" style="stroke:#800;stroke-width:10;stroke-opacity:1.000000;stroke-linecap:round"/>
  <g transform="translate(-1031,544) rotate(0)" > <text font-size="66.6666666667" fill="#800" font-family="monospace"  >
   28
  </text> </g> 
  <g transform="translate(-882,580) rotate(0)" > <text font-size="66.6666666667" fill="#088" font-family="monospace"  >
   UGND
  </text> </g> 
  <circle cx="-1050" cy="550" r="10"
    style="fill:none;stroke:#800;stroke-width:2"  />
  <line x1="1050" y1="-550" x2="900" y2="-550" style="stroke:#800;stroke-width:10;stroke-opacity:1.000000;stroke-linecap:round"/>
  <g transform="translate(918,-556) rotate(0)" > <text font-size="66.6666666667" fill="#800" font-family="monospace"  >
   19
  </text> </g> 
  <g transform="translate(420,-520) rotate(0)" > <text font-size="66.6666666667" fill="#088" font-family="monospace"  >
   (PCINT5)PB5
  </text> </g> 
  <circle cx="1050" cy="-550" r="10"
    style="fill:none;stroke:#800;stroke-width:2"  />
  <line x1="-1050" y1="0" x2="-900" y2="0" style="stroke:#800;stroke-width:10;stroke-opacity:1.000000;stroke-linecap:round"/>
  <g transform="translate(-1031,-6) rotate(0)" > <text font-size="66.6666666667" fill="#800" font-family="monospace"  >
   29
  </text> </g> 
  <g transform="translate(-882,30) rotate(0)" > <text font-size="66.6666666667" fill="#088" font-family="monospace"  >
   D+/SCK
  </text> </g> 
  <circle cx="-1050" cy="0" r="10"
    style="fill:none;stroke:#800;stroke-width:2"  />
 </g>
</svg>
