<?xml version="1.0"?>
<svg height="581" width="581"  >
 <g style="fill-opacity:1.0; stroke:black;
  stroke-width:1;" transform=" translate( 290.5,290.5 ) scale( 0.15,0.15 )">
  <g transform="translate(-35,-65) rotate(0)" > <text font-size="116.666666667" fill="#088" font-family="monospace"  >
   U
  </text> </g> 
  <g transform="translate(-175,135) rotate(0)" > <text font-size="116.666666667" fill="#088" font-family="monospace"  >
   16550
  </text> </g> 
  <rect x="-750" y="-1450" height="2900"
    width="1500" style="fill:none;stroke:#800;stroke-width:10" />
  <line x1="1050" y1="1350" x2="750" y2="1350" style="stroke:#800;stroke-width:10;stroke-opacity:1.000000;stroke-linecap:round"/>
  <g transform="translate(857,1344) rotate(0)" > <text font-size="100.0" fill="#800" font-family="monospace"  >
   9
  </text> </g> 
  <g transform="translate(470,1390) rotate(0)" > <text font-size="100.0" fill="#088" font-family="monospace"  >
   RCLK
  </text> </g> 
  <circle cx="1050" cy="1350" r="10"
    style="fill:none;stroke:#800;stroke-width:2"  />
  <line x1="1050" y1="1150" x2="820" y2="1150" style="stroke:#800;stroke-width:10;stroke-opacity:1.000000;stroke-linecap:round"/>
  <circle cx="785" cy="1150" r="35"
    style="fill:none;stroke:#800;stroke-width:10"  />
  <g transform="translate(815,1144) rotate(0)" > <text font-size="100.0" fill="#800" font-family="monospace"  >
   15
  </text> </g> 
  <g transform="translate(290,1190) rotate(0)" > <text font-size="100.0" fill="#088" font-family="monospace"  >
   BAUDOUT
  </text> </g> 
  <circle cx="1050" cy="1150" r="10"
    style="fill:none;stroke:#800;stroke-width:2"  />
  <line x1="1050" y1="750" x2="750" y2="750" style="stroke:#800;stroke-width:10;stroke-opacity:1.000000;stroke-linecap:round"/>
  <g transform="translate(815,744) rotate(0)" > <text font-size="100.0" fill="#800" font-family="monospace"  >
   23
  </text> </g> 
  <g transform="translate(470,790) rotate(0)" > <text font-size="100.0" fill="#088" font-family="monospace"  >
   DDIS
  </text> </g> 
  <circle cx="1050" cy="750" r="10"
    style="fill:none;stroke:#800;stroke-width:2"  />
  <line x1="1050" y1="650" x2="750" y2="650" style="stroke:#800;stroke-width:10;stroke-opacity:1.000000;stroke-linecap:round"/>
  <g transform="translate(815,644) rotate(0)" > <text font-size="100.0" fill="#800" font-family="monospace"  >
   24
  </text> </g> 
  <g transform="translate(410,690) rotate(0)" > <text font-size="100.0" fill="#088" font-family="monospace"  >
   CSOUT
  </text> </g> 
  <circle cx="1050" cy="650" r="10"
    style="fill:none;stroke:#800;stroke-width:2"  />
  <line x1="1050" y1="250" x2="750" y2="250" style="stroke:#800;stroke-width:10;stroke-opacity:1.000000;stroke-linecap:round"/>
  <g transform="translate(815,244) rotate(0)" > <text font-size="100.0" fill="#800" font-family="monospace"  >
   11
  </text> </g> 
  <g transform="translate(470,290) rotate(0)" > <text font-size="100.0" fill="#088" font-family="monospace"  >
   SOUT
  </text> </g> 
  <circle cx="1050" cy="250" r="10"
    style="fill:none;stroke:#800;stroke-width:2"  />
  <line x1="1050" y1="150" x2="750" y2="150" style="stroke:#800;stroke-width:10;stroke-opacity:1.000000;stroke-linecap:round"/>
  <g transform="translate(815,144) rotate(0)" > <text font-size="100.0" fill="#800" font-family="monospace"  >
   10
  </text> </g> 
  <g transform="translate(530,190) rotate(0)" > <text font-size="100.0" fill="#088" font-family="monospace"  >
   SIN
  </text> </g> 
  <circle cx="1050" cy="150" r="10"
    style="fill:none;stroke:#800;stroke-width:2"  />
  <line x1="1050" y1="-350" x2="820" y2="-350" style="stroke:#800;stroke-width:10;stroke-opacity:1.000000;stroke-linecap:round"/>
  <circle cx="785" cy="-350" r="35"
    style="fill:none;stroke:#800;stroke-width:10"  />
  <g transform="translate(815,-356) rotate(0)" > <text font-size="100.0" fill="#800" font-family="monospace"  >
   31
  </text> </g> 
  <g transform="translate(470,-310) rotate(0)" > <text font-size="100.0" fill="#088" font-family="monospace"  >
   OUT2
  </text> </g> 
  <circle cx="1050" cy="-350" r="10"
    style="fill:none;stroke:#800;stroke-width:2"  />
  <line x1="1050" y1="-450" x2="820" y2="-450" style="stroke:#800;stroke-width:10;stroke-opacity:1.000000;stroke-linecap:round"/>
  <circle cx="785" cy="-450" r="35"
    style="fill:none;stroke:#800;stroke-width:10"  />
  <g transform="translate(815,-456) rotate(0)" > <text font-size="100.0" fill="#800" font-family="monospace"  >
   32
  </text> </g> 
  <g transform="translate(530,-410) rotate(0)" > <text font-size="100.0" fill="#088" font-family="monospace"  >
   RTS
  </text> </g> 
  <circle cx="1050" cy="-450" r="10"
    style="fill:none;stroke:#800;stroke-width:2"  />
  <line x1="1050" y1="-550" x2="820" y2="-550" style="stroke:#800;stroke-width:10;stroke-opacity:1.000000;stroke-linecap:round"/>
  <circle cx="785" cy="-550" r="35"
    style="fill:none;stroke:#800;stroke-width:10"  />
  <g transform="translate(815,-556) rotate(0)" > <text font-size="100.0" fill="#800" font-family="monospace"  >
   33
  </text> </g> 
  <g transform="translate(530,-510) rotate(0)" > <text font-size="100.0" fill="#088" font-family="monospace"  >
   DTR
  </text> </g> 
  <circle cx="1050" cy="-550" r="10"
    style="fill:none;stroke:#800;stroke-width:2"  />
  <line x1="1050" y1="-650" x2="820" y2="-650" style="stroke:#800;stroke-width:10;stroke-opacity:1.000000;stroke-linecap:round"/>
  <circle cx="785" cy="-650" r="35"
    style="fill:none;stroke:#800;stroke-width:10"  />
  <g transform="translate(815,-656) rotate(0)" > <text font-size="100.0" fill="#800" font-family="monospace"  >
   34
  </text> </g> 
  <g transform="translate(470,-610) rotate(0)" > <text font-size="100.0" fill="#088" font-family="monospace"  >
   OUT1
  </text> </g> 
  <circle cx="1050" cy="-650" r="10"
    style="fill:none;stroke:#800;stroke-width:2"  />
  <line x1="1050" y1="-950" x2="820" y2="-950" style="stroke:#800;stroke-width:10;stroke-opacity:1.000000;stroke-linecap:round"/>
  <circle cx="785" cy="-950" r="35"
    style="fill:none;stroke:#800;stroke-width:10"  />
  <g transform="translate(815,-956) rotate(0)" > <text font-size="100.0" fill="#800" font-family="monospace"  >
   36
  </text> </g> 
  <g transform="translate(530,-910) rotate(0)" > <text font-size="100.0" fill="#088" font-family="monospace"  >
   CTS
  </text> </g> 
  <circle cx="1050" cy="-950" r="10"
    style="fill:none;stroke:#800;stroke-width:2"  />
  <line x1="1050" y1="-1050" x2="820" y2="-1050" style="stroke:#800;stroke-width:10;stroke-opacity:1.000000;stroke-linecap:round"/>
  <circle cx="785" cy="-1050" r="35"
    style="fill:none;stroke:#800;stroke-width:10"  />
  <g transform="translate(815,-1056) rotate(0)" > <text font-size="100.0" fill="#800" font-family="monospace"  >
   37
  </text> </g> 
  <g transform="translate(530,-1010) rotate(0)" > <text font-size="100.0" fill="#088" font-family="monospace"  >
   DSR
  </text> </g> 
  <circle cx="1050" cy="-1050" r="10"
    style="fill:none;stroke:#800;stroke-width:2"  />
  <line x1="1050" y1="-1150" x2="820" y2="-1150" style="stroke:#800;stroke-width:10;stroke-opacity:1.000000;stroke-linecap:round"/>
  <circle cx="785" cy="-1150" r="35"
    style="fill:none;stroke:#800;stroke-width:10"  />
  <g transform="translate(815,-1156) rotate(0)" > <text font-size="100.0" fill="#800" font-family="monospace"  >
   38
  </text> </g> 
  <g transform="translate(530,-1110) rotate(0)" > <text font-size="100.0" fill="#088" font-family="monospace"  >
   DCD
  </text> </g> 
  <circle cx="1050" cy="-1150" r="10"
    style="fill:none;stroke:#800;stroke-width:2"  />
  <line x1="1050" y1="-1250" x2="820" y2="-1250" style="stroke:#800;stroke-width:10;stroke-opacity:1.000000;stroke-linecap:round"/>
  <circle cx="785" cy="-1250" r="35"
    style="fill:none;stroke:#800;stroke-width:10"  />
  <g transform="translate(815,-1256) rotate(0)" > <text font-size="100.0" fill="#800" font-family="monospace"  >
   39
  </text> </g> 
  <g transform="translate(590,-1210) rotate(0)" > <text font-size="100.0" fill="#088" font-family="monospace"  >
   RI
  </text> </g> 
  <circle cx="1050" cy="-1250" r="10"
    style="fill:none;stroke:#800;stroke-width:2"  />
  <line x1="-1050" y1="1350" x2="-750" y2="1350" style="stroke:#800;stroke-width:10;stroke-opacity:1.000000;stroke-linecap:round"/>
  <g transform="translate(-985,1344) rotate(0)" > <text font-size="100.0" fill="#800" font-family="monospace"  >
   35
  </text> </g> 
  <g transform="translate(-732,1390) rotate(0)" > <text font-size="100.0" fill="#088" font-family="monospace"  >
   MR
  </text> </g> 
  <circle cx="-1050" cy="1350" r="10"
    style="fill:none;stroke:#800;stroke-width:2"  />
  <line x1="-1050" y1="1250" x2="-750" y2="1250" style="stroke:#800;stroke-width:10;stroke-opacity:1.000000;stroke-linecap:round"/>
  <g transform="translate(-985,1244) rotate(0)" > <text font-size="100.0" fill="#800" font-family="monospace"  >
   30
  </text> </g> 
  <g transform="translate(-732,1290) rotate(0)" > <text font-size="100.0" fill="#088" font-family="monospace"  >
   IRQ
  </text> </g> 
  <circle cx="-1050" cy="1250" r="10"
    style="fill:none;stroke:#800;stroke-width:2"  />
  <line x1="-1050" y1="1150" x2="-820" y2="1150" style="stroke:#800;stroke-width:10;stroke-opacity:1.000000;stroke-linecap:round"/>
  <circle cx="-785" cy="1150" r="35"
    style="fill:none;stroke:#800;stroke-width:10"  />
  <g transform="translate(-985,1144) rotate(0)" > <text font-size="100.0" fill="#800" font-family="monospace"  >
   25
  </text> </g> 
  <g transform="translate(-732,1190) rotate(0)" > <text font-size="100.0" fill="#088" font-family="monospace"  >
   ADS
  </text> </g> 
  <circle cx="-1050" cy="1150" r="10"
    style="fill:none;stroke:#800;stroke-width:2"  />
  <line x1="-1050" y1="1050" x2="-750" y2="1050" style="stroke:#800;stroke-width:10;stroke-opacity:1.000000;stroke-linecap:round"/>
  <g transform="translate(-985,1044) rotate(0)" > <text font-size="100.0" fill="#800" font-family="monospace"  >
   21
  </text> </g> 
  <g transform="translate(-732,1090) rotate(0)" > <text font-size="100.0" fill="#088" font-family="monospace"  >
   DISTR
  </text> </g> 
  <circle cx="-1050" cy="1050" r="10"
    style="fill:none;stroke:#800;stroke-width:2"  />
  <line x1="-1050" y1="950" x2="-750" y2="950" style="stroke:#800;stroke-width:10;stroke-opacity:1.000000;stroke-linecap:round"/>
  <g transform="translate(-985,944) rotate(0)" > <text font-size="100.0" fill="#800" font-family="monospace"  >
   22
  </text> </g> 
  <g transform="translate(-732,990) rotate(0)" > <text font-size="100.0" fill="#088" font-family="monospace"  >
   /DISTR
  </text> </g> 
  <circle cx="-1050" cy="950" r="10"
    style="fill:none;stroke:#800;stroke-width:2"  />
  <line x1="-1050" y1="850" x2="-750" y2="850" style="stroke:#800;stroke-width:10;stroke-opacity:1.000000;stroke-linecap:round"/>
  <g transform="translate(-985,844) rotate(0)" > <text font-size="100.0" fill="#800" font-family="monospace"  >
   19
  </text> </g> 
  <g transform="translate(-732,890) rotate(0)" > <text font-size="100.0" fill="#088" font-family="monospace"  >
   DOSTR
  </text> </g> 
  <circle cx="-1050" cy="850" r="10"
    style="fill:none;stroke:#800;stroke-width:2"  />
  <line x1="-1050" y1="750" x2="-820" y2="750" style="stroke:#800;stroke-width:10;stroke-opacity:1.000000;stroke-linecap:round"/>
  <circle cx="-785" cy="750" r="35"
    style="fill:none;stroke:#800;stroke-width:10"  />
  <g transform="translate(-985,744) rotate(0)" > <text font-size="100.0" fill="#800" font-family="monospace"  >
   18
  </text> </g> 
  <g transform="translate(-732,790) rotate(0)" > <text font-size="100.0" fill="#088" font-family="monospace"  >
   /DOSTR
  </text> </g> 
  <circle cx="-1050" cy="750" r="10"
    style="fill:none;stroke:#800;stroke-width:2"  />
  <line x1="-1050" y1="550" x2="-750" y2="550" style="stroke:#800;stroke-width:10;stroke-opacity:1.000000;stroke-linecap:round"/>
  <g transform="translate(-985,544) rotate(0)" > <text font-size="100.0" fill="#800" font-family="monospace"  >
   17
  </text> </g> 
  <g transform="translate(-732,590) rotate(0)" > <text font-size="100.0" fill="#088" font-family="monospace"  >
   XTAL2(O)
  </text> </g> 
  <circle cx="-1050" cy="550" r="10"
    style="fill:none;stroke:#800;stroke-width:2"  />
  <line x1="-1050" y1="250" x2="-750" y2="250" style="stroke:#800;stroke-width:10;stroke-opacity:1.000000;stroke-linecap:round"/>
  <g transform="translate(-985,244) rotate(0)" > <text font-size="100.0" fill="#800" font-family="monospace"  >
   16
  </text> </g> 
  <g transform="translate(-732,290) rotate(0)" > <text font-size="100.0" fill="#088" font-family="monospace"  >
   XTAL1(I)
  </text> </g> 
  <circle cx="-1050" cy="250" r="10"
    style="fill:none;stroke:#800;stroke-width:2"  />
  <line x1="-1050" y1="50" x2="-750" y2="50" style="stroke:#800;stroke-width:10;stroke-opacity:1.000000;stroke-linecap:round"/>
  <g transform="translate(-985,44) rotate(0)" > <text font-size="100.0" fill="#800" font-family="monospace"  >
   14
  </text> </g> 
  <g transform="translate(-732,90) rotate(0)" > <text font-size="100.0" fill="#088" font-family="monospace"  >
   CS2
  </text> </g> 
  <circle cx="-1050" cy="50" r="10"
    style="fill:none;stroke:#800;stroke-width:2"  />
  <line x1="-1050" y1="-50" x2="-750" y2="-50" style="stroke:#800;stroke-width:10;stroke-opacity:1.000000;stroke-linecap:round"/>
  <g transform="translate(-985,-56) rotate(0)" > <text font-size="100.0" fill="#800" font-family="monospace"  >
   13
  </text> </g> 
  <g transform="translate(-732,-10) rotate(0)" > <text font-size="100.0" fill="#088" font-family="monospace"  >
   CS1
  </text> </g> 
  <circle cx="-1050" cy="-50" r="10"
    style="fill:none;stroke:#800;stroke-width:2"  />
  <line x1="-1050" y1="-150" x2="-750" y2="-150" style="stroke:#800;stroke-width:10;stroke-opacity:1.000000;stroke-linecap:round"/>
  <g transform="translate(-985,-156) rotate(0)" > <text font-size="100.0" fill="#800" font-family="monospace"  >
   12
  </text> </g> 
  <g transform="translate(-732,-110) rotate(0)" > <text font-size="100.0" fill="#088" font-family="monospace"  >
   CS0
  </text> </g> 
  <circle cx="-1050" cy="-150" r="10"
    style="fill:none;stroke:#800;stroke-width:2"  />
  <line x1="-1050" y1="-250" x2="-750" y2="-250" style="stroke:#800;stroke-width:10;stroke-opacity:1.000000;stroke-linecap:round"/>
  <g transform="translate(-985,-256) rotate(0)" > <text font-size="100.0" fill="#800" font-family="monospace"  >
   26
  </text> </g> 
  <g transform="translate(-732,-210) rotate(0)" > <text font-size="100.0" fill="#088" font-family="monospace"  >
   A2
  </text> </g> 
  <circle cx="-1050" cy="-250" r="10"
    style="fill:none;stroke:#800;stroke-width:2"  />
  <line x1="-1050" y1="-350" x2="-750" y2="-350" style="stroke:#800;stroke-width:10;stroke-opacity:1.000000;stroke-linecap:round"/>
  <g transform="translate(-985,-356) rotate(0)" > <text font-size="100.0" fill="#800" font-family="monospace"  >
   27
  </text> </g> 
  <g transform="translate(-732,-310) rotate(0)" > <text font-size="100.0" fill="#088" font-family="monospace"  >
   A1
  </text> </g> 
  <circle cx="-1050" cy="-350" r="10"
    style="fill:none;stroke:#800;stroke-width:2"  />
  <line x1="-1050" y1="-450" x2="-750" y2="-450" style="stroke:#800;stroke-width:10;stroke-opacity:1.000000;stroke-linecap:round"/>
  <g transform="translate(-985,-456) rotate(0)" > <text font-size="100.0" fill="#800" font-family="monospace"  >
   28
  </text> </g> 
  <g transform="translate(-732,-410) rotate(0)" > <text font-size="100.0" fill="#088" font-family="monospace"  >
   A0
  </text> </g> 
  <circle cx="-1050" cy="-450" r="10"
    style="fill:none;stroke:#800;stroke-width:2"  />
  <line x1="-1050" y1="-650" x2="-750" y2="-650" style="stroke:#800;stroke-width:10;stroke-opacity:1.000000;stroke-linecap:round"/>
  <g transform="translate(-942,-656) rotate(0)" > <text font-size="100.0" fill="#800" font-family="monospace"  >
   8
  </text> </g> 
  <g transform="translate(-732,-610) rotate(0)" > <text font-size="100.0" fill="#088" font-family="monospace"  >
   D7
  </text> </g> 
  <circle cx="-1050" cy="-650" r="10"
    style="fill:none;stroke:#800;stroke-width:2"  />
  <line x1="-1050" y1="-750" x2="-750" y2="-750" style="stroke:#800;stroke-width:10;stroke-opacity:1.000000;stroke-linecap:round"/>
  <g transform="translate(-942,-756) rotate(0)" > <text font-size="100.0" fill="#800" font-family="monospace"  >
   7
  </text> </g> 
  <g transform="translate(-732,-710) rotate(0)" > <text font-size="100.0" fill="#088" font-family="monospace"  >
   D6
  </text> </g> 
  <circle cx="-1050" cy="-750" r="10"
    style="fill:none;stroke:#800;stroke-width:2"  />
  <line x1="-1050" y1="-850" x2="-750" y2="-850" style="stroke:#800;stroke-width:10;stroke-opacity:1.000000;stroke-linecap:round"/>
  <g transform="translate(-942,-856) rotate(0)" > <text font-size="100.0" fill="#800" font-family="monospace"  >
   6
  </text> </g> 
  <g transform="translate(-732,-810) rotate(0)" > <text font-size="100.0" fill="#088" font-family="monospace"  >
   D5
  </text> </g> 
  <circle cx="-1050" cy="-850" r="10"
    style="fill:none;stroke:#800;stroke-width:2"  />
  <line x1="-1050" y1="-950" x2="-750" y2="-950" style="stroke:#800;stroke-width:10;stroke-opacity:1.000000;stroke-linecap:round"/>
  <g transform="translate(-942,-956) rotate(0)" > <text font-size="100.0" fill="#800" font-family="monospace"  >
   5
  </text> </g> 
  <g transform="translate(-732,-910) rotate(0)" > <text font-size="100.0" fill="#088" font-family="monospace"  >
   D4
  </text> </g> 
  <circle cx="-1050" cy="-950" r="10"
    style="fill:none;stroke:#800;stroke-width:2"  />
  <line x1="-1050" y1="-1050" x2="-750" y2="-1050" style="stroke:#800;stroke-width:10;stroke-opacity:1.000000;stroke-linecap:round"/>
  <g transform="translate(-942,-1056) rotate(0)" > <text font-size="100.0" fill="#800" font-family="monospace"  >
   4
  </text> </g> 
  <g transform="translate(-732,-1010) rotate(0)" > <text font-size="100.0" fill="#088" font-family="monospace"  >
   D3
  </text> </g> 
  <circle cx="-1050" cy="-1050" r="10"
    style="fill:none;stroke:#800;stroke-width:2"  />
  <line x1="-1050" y1="-1150" x2="-750" y2="-1150" style="stroke:#800;stroke-width:10;stroke-opacity:1.000000;stroke-linecap:round"/>
  <g transform="translate(-942,-1156) rotate(0)" > <text font-size="100.0" fill="#800" font-family="monospace"  >
   3
  </text> </g> 
  <g transform="translate(-732,-1110) rotate(0)" > <text font-size="100.0" fill="#088" font-family="monospace"  >
   D2
  </text> </g> 
  <circle cx="-1050" cy="-1150" r="10"
    style="fill:none;stroke:#800;stroke-width:2"  />
  <line x1="-1050" y1="-1250" x2="-750" y2="-1250" style="stroke:#800;stroke-width:10;stroke-opacity:1.000000;stroke-linecap:round"/>
  <g transform="translate(-942,-1256) rotate(0)" > <text font-size="100.0" fill="#800" font-family="monospace"  >
   2
  </text> </g> 
  <g transform="translate(-732,-1210) rotate(0)" > <text font-size="100.0" fill="#088" font-family="monospace"  >
   D1
  </text> </g> 
  <circle cx="-1050" cy="-1250" r="10"
    style="fill:none;stroke:#800;stroke-width:2"  />
  <line x1="-1050" y1="-1350" x2="-750" y2="-1350" style="stroke:#800;stroke-width:10;stroke-opacity:1.000000;stroke-linecap:round"/>
  <g transform="translate(-942,-1356) rotate(0)" > <text font-size="100.0" fill="#800" font-family="monospace"  >
   1
  </text> </g> 
  <g transform="translate(-732,-1310) rotate(0)" > <text font-size="100.0" fill="#088" font-family="monospace"  >
   D0
  </text> </g> 
  <circle cx="-1050" cy="-1350" r="10"
    style="fill:none;stroke:#800;stroke-width:2"  />
  <g transform="translate(-765,1480) rotate(-90)" > <text font-size="100.0" fill="#888" font-family="monospace"  >
   20
  </text> </g> 
  <g transform="translate(-742,1400) rotate(-90)" > <text font-size="100.0" fill="#888" font-family="monospace"  >
   GND
  </text> </g> 
  <circle cx="-750" cy="1450" r="10"
    style="fill:none;stroke:#888;stroke-width:2"  />
  <g transform="translate(-765,-1420) rotate(-90)" > <text font-size="100.0" fill="#888" font-family="monospace"  >
   40
  </text> </g> 
  <g transform="translate(-742,-1500) rotate(-90)" > <text font-size="100.0" fill="#888" font-family="monospace"  >
   VCC
  </text> </g> 
  <circle cx="-750" cy="-1450" r="10"
    style="fill:none;stroke:#888;stroke-width:2"  />
 </g>
</svg>
