<?xml version="1.0"?>
<svg height="836" width="836"  >
 <g style="fill-opacity:1.0; stroke:black;
  stroke-width:1;" transform=" translate( 418.45,418.45 ) scale( 0.15,0.15 )">
  <g transform="translate(-35,-65) rotate(0)" > <text font-size="116.666666667" fill="#088" font-family="monospace"  >
   U
  </text> </g> 
  <g transform="translate(-210,135) rotate(0)" > <text font-size="116.666666667" fill="#088" font-family="monospace"  >
   80C535
  </text> </g> 
  <rect x="-950" y="-2250" height="4500"
    width="1900" style="fill:none;stroke:#800;stroke-width:10" />
  <line x1="1250" y1="2050" x2="950" y2="2050" style="stroke:#800;stroke-width:10;stroke-opacity:1.000000;stroke-linecap:round"/>
  <g transform="translate(1015,2044) rotate(0)" > <text font-size="100.0" fill="#800" font-family="monospace"  >
   38
  </text> </g> 
  <g transform="translate(730,2090) rotate(0)" > <text font-size="100.0" fill="#088" font-family="monospace"  >
   VSS
  </text> </g> 
  <circle cx="1250" cy="2050" r="10"
    style="fill:none;stroke:#800;stroke-width:2"  />
  <line x1="1250" y1="1850" x2="950" y2="1850" style="stroke:#800;stroke-width:10;stroke-opacity:1.000000;stroke-linecap:round"/>
  <g transform="translate(1015,1844) rotate(0)" > <text font-size="100.0" fill="#800" font-family="monospace"  >
   37
  </text> </g> 
  <g transform="translate(730,1890) rotate(0)" > <text font-size="100.0" fill="#088" font-family="monospace"  >
   VCC
  </text> </g> 
  <circle cx="1250" cy="1850" r="10"
    style="fill:none;stroke:#800;stroke-width:2"  />
  <line x1="1250" y1="1650" x2="950" y2="1650" style="stroke:#800;stroke-width:10;stroke-opacity:1.000000;stroke-linecap:round"/>
  <g transform="translate(1015,1644) rotate(0)" > <text font-size="100.0" fill="#800" font-family="monospace"  >
   68
  </text> </g> 
  <g transform="translate(730,1690) rotate(0)" > <text font-size="100.0" fill="#088" font-family="monospace"  >
   VCC
  </text> </g> 
  <circle cx="1250" cy="1650" r="10"
    style="fill:none;stroke:#800;stroke-width:2"  />
  <line x1="1250" y1="1150" x2="950" y2="1150" style="stroke:#800;stroke-width:10;stroke-opacity:1.000000;stroke-linecap:round"/>
  <g transform="translate(1015,1144) rotate(0)" > <text font-size="100.0" fill="#800" font-family="monospace"  >
   51
  </text> </g> 
  <g transform="translate(790,1190) rotate(0)" > <text font-size="100.0" fill="#088" font-family="monospace"  >
   EA
  </text> </g> 
  <circle cx="1250" cy="1150" r="10"
    style="fill:none;stroke:#800;stroke-width:2"  />
  <line x1="1250" y1="1050" x2="950" y2="1050" style="stroke:#800;stroke-width:10;stroke-opacity:1.000000;stroke-linecap:round"/>
  <g transform="translate(1057,1044) rotate(0)" > <text font-size="100.0" fill="#800" font-family="monospace"  >
   4
  </text> </g> 
  <g transform="translate(790,1090) rotate(0)" > <text font-size="100.0" fill="#088" font-family="monospace"  >
   PE
  </text> </g> 
  <circle cx="1250" cy="1050" r="10"
    style="fill:none;stroke:#800;stroke-width:2"  />
  <line x1="1250" y1="850" x2="950" y2="850" style="stroke:#800;stroke-width:10;stroke-opacity:1.000000;stroke-linecap:round"/>
  <g transform="translate(1015,844) rotate(0)" > <text font-size="100.0" fill="#800" font-family="monospace"  >
   22
  </text> </g> 
  <g transform="translate(730,890) rotate(0)" > <text font-size="100.0" fill="#088" font-family="monospace"  >
   TXD
  </text> </g> 
  <circle cx="1250" cy="850" r="10"
    style="fill:none;stroke:#800;stroke-width:2"  />
  <line x1="1250" y1="750" x2="950" y2="750" style="stroke:#800;stroke-width:10;stroke-opacity:1.000000;stroke-linecap:round"/>
  <g transform="translate(1015,744) rotate(0)" > <text font-size="100.0" fill="#800" font-family="monospace"  >
   21
  </text> </g> 
  <g transform="translate(730,790) rotate(0)" > <text font-size="100.0" fill="#088" font-family="monospace"  >
   RXD
  </text> </g> 
  <circle cx="1250" cy="750" r="10"
    style="fill:none;stroke:#800;stroke-width:2"  />
  <line x1="1250" y1="550" x2="950" y2="550" style="stroke:#800;stroke-width:10;stroke-opacity:1.000000;stroke-linecap:round"/>
  <g transform="translate(1015,544) rotate(0)" > <text font-size="100.0" fill="#800" font-family="monospace"  >
   49
  </text> </g> 
  <g transform="translate(670,590) rotate(0)" > <text font-size="100.0" fill="#088" font-family="monospace"  >
   PSEN
  </text> </g> 
  <circle cx="1250" cy="550" r="10"
    style="fill:none;stroke:#800;stroke-width:2"  />
  <line x1="1250" y1="450" x2="950" y2="450" style="stroke:#800;stroke-width:10;stroke-opacity:1.000000;stroke-linecap:round"/>
  <g transform="translate(1015,444) rotate(0)" > <text font-size="100.0" fill="#800" font-family="monospace"  >
   50
  </text> </g> 
  <g transform="translate(730,490) rotate(0)" > <text font-size="100.0" fill="#088" font-family="monospace"  >
   ALE
  </text> </g> 
  <circle cx="1250" cy="450" r="10"
    style="fill:none;stroke:#800;stroke-width:2"  />
  <line x1="1250" y1="150" x2="950" y2="150" style="stroke:#800;stroke-width:10;stroke-opacity:1.000000;stroke-linecap:round"/>
  <g transform="translate(1015,144) rotate(0)" > <text font-size="100.0" fill="#800" font-family="monospace"  >
   52
  </text> </g> 
  <g transform="translate(670,190) rotate(0)" > <text font-size="100.0" fill="#088" font-family="monospace"  >
   P0_0
  </text> </g> 
  <circle cx="1250" cy="150" r="10"
    style="fill:none;stroke:#800;stroke-width:2"  />
  <line x1="1250" y1="50" x2="950" y2="50" style="stroke:#800;stroke-width:10;stroke-opacity:1.000000;stroke-linecap:round"/>
  <g transform="translate(1015,44) rotate(0)" > <text font-size="100.0" fill="#800" font-family="monospace"  >
   53
  </text> </g> 
  <g transform="translate(670,90) rotate(0)" > <text font-size="100.0" fill="#088" font-family="monospace"  >
   P0_1
  </text> </g> 
  <circle cx="1250" cy="50" r="10"
    style="fill:none;stroke:#800;stroke-width:2"  />
  <line x1="1250" y1="-50" x2="950" y2="-50" style="stroke:#800;stroke-width:10;stroke-opacity:1.000000;stroke-linecap:round"/>
  <g transform="translate(1015,-56) rotate(0)" > <text font-size="100.0" fill="#800" font-family="monospace"  >
   54
  </text> </g> 
  <g transform="translate(670,-10) rotate(0)" > <text font-size="100.0" fill="#088" font-family="monospace"  >
   P0_2
  </text> </g> 
  <circle cx="1250" cy="-50" r="10"
    style="fill:none;stroke:#800;stroke-width:2"  />
  <line x1="1250" y1="-150" x2="950" y2="-150" style="stroke:#800;stroke-width:10;stroke-opacity:1.000000;stroke-linecap:round"/>
  <g transform="translate(1015,-156) rotate(0)" > <text font-size="100.0" fill="#800" font-family="monospace"  >
   55
  </text> </g> 
  <g transform="translate(670,-110) rotate(0)" > <text font-size="100.0" fill="#088" font-family="monospace"  >
   P0_3
  </text> </g> 
  <circle cx="1250" cy="-150" r="10"
    style="fill:none;stroke:#800;stroke-width:2"  />
  <line x1="1250" y1="-250" x2="950" y2="-250" style="stroke:#800;stroke-width:10;stroke-opacity:1.000000;stroke-linecap:round"/>
  <g transform="translate(1015,-256) rotate(0)" > <text font-size="100.0" fill="#800" font-family="monospace"  >
   56
  </text> </g> 
  <g transform="translate(670,-210) rotate(0)" > <text font-size="100.0" fill="#088" font-family="monospace"  >
   P0_4
  </text> </g> 
  <circle cx="1250" cy="-250" r="10"
    style="fill:none;stroke:#800;stroke-width:2"  />
  <line x1="1250" y1="-350" x2="950" y2="-350" style="stroke:#800;stroke-width:10;stroke-opacity:1.000000;stroke-linecap:round"/>
  <g transform="translate(1015,-356) rotate(0)" > <text font-size="100.0" fill="#800" font-family="monospace"  >
   57
  </text> </g> 
  <g transform="translate(670,-310) rotate(0)" > <text font-size="100.0" fill="#088" font-family="monospace"  >
   P0_5
  </text> </g> 
  <circle cx="1250" cy="-350" r="10"
    style="fill:none;stroke:#800;stroke-width:2"  />
  <line x1="1250" y1="-450" x2="950" y2="-450" style="stroke:#800;stroke-width:10;stroke-opacity:1.000000;stroke-linecap:round"/>
  <g transform="translate(1015,-456) rotate(0)" > <text font-size="100.0" fill="#800" font-family="monospace"  >
   58
  </text> </g> 
  <g transform="translate(670,-410) rotate(0)" > <text font-size="100.0" fill="#088" font-family="monospace"  >
   P0_6
  </text> </g> 
  <circle cx="1250" cy="-450" r="10"
    style="fill:none;stroke:#800;stroke-width:2"  />
  <line x1="1250" y1="-550" x2="950" y2="-550" style="stroke:#800;stroke-width:10;stroke-opacity:1.000000;stroke-linecap:round"/>
  <g transform="translate(1015,-556) rotate(0)" > <text font-size="100.0" fill="#800" font-family="monospace"  >
   59
  </text> </g> 
  <g transform="translate(670,-510) rotate(0)" > <text font-size="100.0" fill="#088" font-family="monospace"  >
   P0_7
  </text> </g> 
  <circle cx="1250" cy="-550" r="10"
    style="fill:none;stroke:#800;stroke-width:2"  />
  <line x1="1250" y1="-750" x2="950" y2="-750" style="stroke:#800;stroke-width:10;stroke-opacity:1.000000;stroke-linecap:round"/>
  <g transform="translate(1015,-756) rotate(0)" > <text font-size="100.0" fill="#800" font-family="monospace"  >
   41
  </text> </g> 
  <g transform="translate(670,-710) rotate(0)" > <text font-size="100.0" fill="#088" font-family="monospace"  >
   P2_0
  </text> </g> 
  <circle cx="1250" cy="-750" r="10"
    style="fill:none;stroke:#800;stroke-width:2"  />
  <line x1="1250" y1="-850" x2="950" y2="-850" style="stroke:#800;stroke-width:10;stroke-opacity:1.000000;stroke-linecap:round"/>
  <g transform="translate(1015,-856) rotate(0)" > <text font-size="100.0" fill="#800" font-family="monospace"  >
   42
  </text> </g> 
  <g transform="translate(670,-810) rotate(0)" > <text font-size="100.0" fill="#088" font-family="monospace"  >
   P2_1
  </text> </g> 
  <circle cx="1250" cy="-850" r="10"
    style="fill:none;stroke:#800;stroke-width:2"  />
  <line x1="1250" y1="-950" x2="950" y2="-950" style="stroke:#800;stroke-width:10;stroke-opacity:1.000000;stroke-linecap:round"/>
  <g transform="translate(1015,-956) rotate(0)" > <text font-size="100.0" fill="#800" font-family="monospace"  >
   43
  </text> </g> 
  <g transform="translate(670,-910) rotate(0)" > <text font-size="100.0" fill="#088" font-family="monospace"  >
   P2_2
  </text> </g> 
  <circle cx="1250" cy="-950" r="10"
    style="fill:none;stroke:#800;stroke-width:2"  />
  <line x1="1250" y1="-1050" x2="950" y2="-1050" style="stroke:#800;stroke-width:10;stroke-opacity:1.000000;stroke-linecap:round"/>
  <g transform="translate(1015,-1056) rotate(0)" > <text font-size="100.0" fill="#800" font-family="monospace"  >
   44
  </text> </g> 
  <g transform="translate(670,-1010) rotate(0)" > <text font-size="100.0" fill="#088" font-family="monospace"  >
   P2_3
  </text> </g> 
  <circle cx="1250" cy="-1050" r="10"
    style="fill:none;stroke:#800;stroke-width:2"  />
  <line x1="1250" y1="-1150" x2="950" y2="-1150" style="stroke:#800;stroke-width:10;stroke-opacity:1.000000;stroke-linecap:round"/>
  <g transform="translate(1015,-1156) rotate(0)" > <text font-size="100.0" fill="#800" font-family="monospace"  >
   45
  </text> </g> 
  <g transform="translate(670,-1110) rotate(0)" > <text font-size="100.0" fill="#088" font-family="monospace"  >
   P2_4
  </text> </g> 
  <circle cx="1250" cy="-1150" r="10"
    style="fill:none;stroke:#800;stroke-width:2"  />
  <line x1="1250" y1="-1250" x2="950" y2="-1250" style="stroke:#800;stroke-width:10;stroke-opacity:1.000000;stroke-linecap:round"/>
  <g transform="translate(1015,-1256) rotate(0)" > <text font-size="100.0" fill="#800" font-family="monospace"  >
   46
  </text> </g> 
  <g transform="translate(670,-1210) rotate(0)" > <text font-size="100.0" fill="#088" font-family="monospace"  >
   P2_5
  </text> </g> 
  <circle cx="1250" cy="-1250" r="10"
    style="fill:none;stroke:#800;stroke-width:2"  />
  <line x1="1250" y1="-1350" x2="950" y2="-1350" style="stroke:#800;stroke-width:10;stroke-opacity:1.000000;stroke-linecap:round"/>
  <g transform="translate(1015,-1356) rotate(0)" > <text font-size="100.0" fill="#800" font-family="monospace"  >
   47
  </text> </g> 
  <g transform="translate(670,-1310) rotate(0)" > <text font-size="100.0" fill="#088" font-family="monospace"  >
   P2_6
  </text> </g> 
  <circle cx="1250" cy="-1350" r="10"
    style="fill:none;stroke:#800;stroke-width:2"  />
  <line x1="1250" y1="-1450" x2="950" y2="-1450" style="stroke:#800;stroke-width:10;stroke-opacity:1.000000;stroke-linecap:round"/>
  <g transform="translate(1015,-1456) rotate(0)" > <text font-size="100.0" fill="#800" font-family="monospace"  >
   48
  </text> </g> 
  <g transform="translate(670,-1410) rotate(0)" > <text font-size="100.0" fill="#088" font-family="monospace"  >
   P2_7
  </text> </g> 
  <circle cx="1250" cy="-1450" r="10"
    style="fill:none;stroke:#800;stroke-width:2"  />
  <line x1="1250" y1="-1650" x2="950" y2="-1650" style="stroke:#800;stroke-width:10;stroke-opacity:1.000000;stroke-linecap:round"/>
  <g transform="translate(1015,-1656) rotate(0)" > <text font-size="100.0" fill="#800" font-family="monospace"  >
   28
  </text> </g> 
  <g transform="translate(790,-1610) rotate(0)" > <text font-size="100.0" fill="#088" font-family="monospace"  >
   RD
  </text> </g> 
  <circle cx="1250" cy="-1650" r="10"
    style="fill:none;stroke:#800;stroke-width:2"  />
  <line x1="1250" y1="-1750" x2="950" y2="-1750" style="stroke:#800;stroke-width:10;stroke-opacity:1.000000;stroke-linecap:round"/>
  <g transform="translate(1015,-1756) rotate(0)" > <text font-size="100.0" fill="#800" font-family="monospace"  >
   27
  </text> </g> 
  <g transform="translate(790,-1710) rotate(0)" > <text font-size="100.0" fill="#088" font-family="monospace"  >
   WR
  </text> </g> 
  <circle cx="1250" cy="-1750" r="10"
    style="fill:none;stroke:#800;stroke-width:2"  />
  <line x1="1250" y1="-1950" x2="950" y2="-1950" style="stroke:#800;stroke-width:10;stroke-opacity:1.000000;stroke-linecap:round"/>
  <g transform="translate(1015,-1956) rotate(0)" > <text font-size="100.0" fill="#800" font-family="monospace"  >
   40
  </text> </g> 
  <g transform="translate(610,-1910) rotate(0)" > <text font-size="100.0" fill="#088" font-family="monospace"  >
   XTAL1
  </text> </g> 
  <circle cx="1250" cy="-1950" r="10"
    style="fill:none;stroke:#800;stroke-width:2"  />
  <line x1="1250" y1="-2050" x2="950" y2="-2050" style="stroke:#800;stroke-width:10;stroke-opacity:1.000000;stroke-linecap:round"/>
  <g transform="translate(1015,-2056) rotate(0)" > <text font-size="100.0" fill="#800" font-family="monospace"  >
   39
  </text> </g> 
  <g transform="translate(610,-2010) rotate(0)" > <text font-size="100.0" fill="#088" font-family="monospace"  >
   XTAL2
  </text> </g> 
  <circle cx="1250" cy="-2050" r="10"
    style="fill:none;stroke:#800;stroke-width:2"  />
  <line x1="-1250" y1="2050" x2="-950" y2="2050" style="stroke:#800;stroke-width:10;stroke-opacity:1.000000;stroke-linecap:round"/>
  <g transform="translate(-1185,2044) rotate(0)" > <text font-size="100.0" fill="#800" font-family="monospace"  >
   36
  </text> </g> 
  <g transform="translate(-932,2090) rotate(0)" > <text font-size="100.0" fill="#088" font-family="monospace"  >
   INT3/CC0
  </text> </g> 
  <circle cx="-1250" cy="2050" r="10"
    style="fill:none;stroke:#800;stroke-width:2"  />
  <line x1="-1250" y1="1950" x2="-950" y2="1950" style="stroke:#800;stroke-width:10;stroke-opacity:1.000000;stroke-linecap:round"/>
  <g transform="translate(-1185,1944) rotate(0)" > <text font-size="100.0" fill="#800" font-family="monospace"  >
   35
  </text> </g> 
  <g transform="translate(-932,1990) rotate(0)" > <text font-size="100.0" fill="#088" font-family="monospace"  >
   INT4/CC1
  </text> </g> 
  <circle cx="-1250" cy="1950" r="10"
    style="fill:none;stroke:#800;stroke-width:2"  />
  <line x1="-1250" y1="1850" x2="-950" y2="1850" style="stroke:#800;stroke-width:10;stroke-opacity:1.000000;stroke-linecap:round"/>
  <g transform="translate(-1185,1844) rotate(0)" > <text font-size="100.0" fill="#800" font-family="monospace"  >
   34
  </text> </g> 
  <g transform="translate(-932,1890) rotate(0)" > <text font-size="100.0" fill="#088" font-family="monospace"  >
   INT5/CC2
  </text> </g> 
  <circle cx="-1250" cy="1850" r="10"
    style="fill:none;stroke:#800;stroke-width:2"  />
  <line x1="-1250" y1="1750" x2="-950" y2="1750" style="stroke:#800;stroke-width:10;stroke-opacity:1.000000;stroke-linecap:round"/>
  <g transform="translate(-1185,1744) rotate(0)" > <text font-size="100.0" fill="#800" font-family="monospace"  >
   33
  </text> </g> 
  <g transform="translate(-932,1790) rotate(0)" > <text font-size="100.0" fill="#088" font-family="monospace"  >
   INT6/CC3
  </text> </g> 
  <circle cx="-1250" cy="1750" r="10"
    style="fill:none;stroke:#800;stroke-width:2"  />
  <line x1="-1250" y1="1650" x2="-950" y2="1650" style="stroke:#800;stroke-width:10;stroke-opacity:1.000000;stroke-linecap:round"/>
  <g transform="translate(-1185,1644) rotate(0)" > <text font-size="100.0" fill="#800" font-family="monospace"  >
   30
  </text> </g> 
  <g transform="translate(-932,1690) rotate(0)" > <text font-size="100.0" fill="#088" font-family="monospace"  >
   CLKOUT
  </text> </g> 
  <circle cx="-1250" cy="1650" r="10"
    style="fill:none;stroke:#800;stroke-width:2"  />
  <line x1="-1250" y1="1550" x2="-950" y2="1550" style="stroke:#800;stroke-width:10;stroke-opacity:1.000000;stroke-linecap:round"/>
  <g transform="translate(-1185,1544) rotate(0)" > <text font-size="100.0" fill="#800" font-family="monospace"  >
   31
  </text> </g> 
  <g transform="translate(-932,1590) rotate(0)" > <text font-size="100.0" fill="#088" font-family="monospace"  >
   T2EX
  </text> </g> 
  <circle cx="-1250" cy="1550" r="10"
    style="fill:none;stroke:#800;stroke-width:2"  />
  <line x1="-1250" y1="1450" x2="-950" y2="1450" style="stroke:#800;stroke-width:10;stroke-opacity:1.000000;stroke-linecap:round"/>
  <g transform="translate(-1185,1444) rotate(0)" > <text font-size="100.0" fill="#800" font-family="monospace"  >
   29
  </text> </g> 
  <g transform="translate(-932,1490) rotate(0)" > <text font-size="100.0" fill="#088" font-family="monospace"  >
   T2
  </text> </g> 
  <circle cx="-1250" cy="1450" r="10"
    style="fill:none;stroke:#800;stroke-width:2"  />
  <line x1="-1250" y1="1350" x2="-950" y2="1350" style="stroke:#800;stroke-width:10;stroke-opacity:1.000000;stroke-linecap:round"/>
  <g transform="translate(-1185,1344) rotate(0)" > <text font-size="100.0" fill="#800" font-family="monospace"  >
   32
  </text> </g> 
  <g transform="translate(-932,1390) rotate(0)" > <text font-size="100.0" fill="#088" font-family="monospace"  >
   INT2
  </text> </g> 
  <circle cx="-1250" cy="1350" r="10"
    style="fill:none;stroke:#800;stroke-width:2"  />
  <line x1="-1250" y1="1250" x2="-950" y2="1250" style="stroke:#800;stroke-width:10;stroke-opacity:1.000000;stroke-linecap:round"/>
  <g transform="translate(-1185,1244) rotate(0)" > <text font-size="100.0" fill="#800" font-family="monospace"  >
   26
  </text> </g> 
  <g transform="translate(-932,1290) rotate(0)" > <text font-size="100.0" fill="#088" font-family="monospace"  >
   T1
  </text> </g> 
  <circle cx="-1250" cy="1250" r="10"
    style="fill:none;stroke:#800;stroke-width:2"  />
  <line x1="-1250" y1="1150" x2="-950" y2="1150" style="stroke:#800;stroke-width:10;stroke-opacity:1.000000;stroke-linecap:round"/>
  <g transform="translate(-1185,1144) rotate(0)" > <text font-size="100.0" fill="#800" font-family="monospace"  >
   25
  </text> </g> 
  <g transform="translate(-932,1190) rotate(0)" > <text font-size="100.0" fill="#088" font-family="monospace"  >
   T0
  </text> </g> 
  <circle cx="-1250" cy="1150" r="10"
    style="fill:none;stroke:#800;stroke-width:2"  />
  <line x1="-1250" y1="1050" x2="-950" y2="1050" style="stroke:#800;stroke-width:10;stroke-opacity:1.000000;stroke-linecap:round"/>
  <g transform="translate(-1185,1044) rotate(0)" > <text font-size="100.0" fill="#800" font-family="monospace"  >
   24
  </text> </g> 
  <g transform="translate(-932,1090) rotate(0)" > <text font-size="100.0" fill="#088" font-family="monospace"  >
   INT1
  </text> </g> 
  <circle cx="-1250" cy="1050" r="10"
    style="fill:none;stroke:#800;stroke-width:2"  />
  <line x1="-1250" y1="950" x2="-950" y2="950" style="stroke:#800;stroke-width:10;stroke-opacity:1.000000;stroke-linecap:round"/>
  <g transform="translate(-1185,944) rotate(0)" > <text font-size="100.0" fill="#800" font-family="monospace"  >
   23
  </text> </g> 
  <g transform="translate(-932,990) rotate(0)" > <text font-size="100.0" fill="#088" font-family="monospace"  >
   INT0
  </text> </g> 
  <circle cx="-1250" cy="950" r="10"
    style="fill:none;stroke:#800;stroke-width:2"  />
  <line x1="-1250" y1="750" x2="-950" y2="750" style="stroke:#800;stroke-width:10;stroke-opacity:1.000000;stroke-linecap:round"/>
  <g transform="translate(-1142,744) rotate(0)" > <text font-size="100.0" fill="#800" font-family="monospace"  >
   1
  </text> </g> 
  <g transform="translate(-932,790) rotate(0)" > <text font-size="100.0" fill="#088" font-family="monospace"  >
   P4_0
  </text> </g> 
  <circle cx="-1250" cy="750" r="10"
    style="fill:none;stroke:#800;stroke-width:2"  />
  <line x1="-1250" y1="650" x2="-950" y2="650" style="stroke:#800;stroke-width:10;stroke-opacity:1.000000;stroke-linecap:round"/>
  <g transform="translate(-1142,644) rotate(0)" > <text font-size="100.0" fill="#800" font-family="monospace"  >
   2
  </text> </g> 
  <g transform="translate(-932,690) rotate(0)" > <text font-size="100.0" fill="#088" font-family="monospace"  >
   P4_1
  </text> </g> 
  <circle cx="-1250" cy="650" r="10"
    style="fill:none;stroke:#800;stroke-width:2"  />
  <line x1="-1250" y1="550" x2="-950" y2="550" style="stroke:#800;stroke-width:10;stroke-opacity:1.000000;stroke-linecap:round"/>
  <g transform="translate(-1142,544) rotate(0)" > <text font-size="100.0" fill="#800" font-family="monospace"  >
   3
  </text> </g> 
  <g transform="translate(-932,590) rotate(0)" > <text font-size="100.0" fill="#088" font-family="monospace"  >
   P4_2
  </text> </g> 
  <circle cx="-1250" cy="550" r="10"
    style="fill:none;stroke:#800;stroke-width:2"  />
  <line x1="-1250" y1="450" x2="-950" y2="450" style="stroke:#800;stroke-width:10;stroke-opacity:1.000000;stroke-linecap:round"/>
  <g transform="translate(-1142,444) rotate(0)" > <text font-size="100.0" fill="#800" font-family="monospace"  >
   5
  </text> </g> 
  <g transform="translate(-932,490) rotate(0)" > <text font-size="100.0" fill="#088" font-family="monospace"  >
   P4_3
  </text> </g> 
  <circle cx="-1250" cy="450" r="10"
    style="fill:none;stroke:#800;stroke-width:2"  />
  <line x1="-1250" y1="350" x2="-950" y2="350" style="stroke:#800;stroke-width:10;stroke-opacity:1.000000;stroke-linecap:round"/>
  <g transform="translate(-1142,344) rotate(0)" > <text font-size="100.0" fill="#800" font-family="monospace"  >
   6
  </text> </g> 
  <g transform="translate(-932,390) rotate(0)" > <text font-size="100.0" fill="#088" font-family="monospace"  >
   P4_4
  </text> </g> 
  <circle cx="-1250" cy="350" r="10"
    style="fill:none;stroke:#800;stroke-width:2"  />
  <line x1="-1250" y1="250" x2="-950" y2="250" style="stroke:#800;stroke-width:10;stroke-opacity:1.000000;stroke-linecap:round"/>
  <g transform="translate(-1142,244) rotate(0)" > <text font-size="100.0" fill="#800" font-family="monospace"  >
   7
  </text> </g> 
  <g transform="translate(-932,290) rotate(0)" > <text font-size="100.0" fill="#088" font-family="monospace"  >
   P4_5
  </text> </g> 
  <circle cx="-1250" cy="250" r="10"
    style="fill:none;stroke:#800;stroke-width:2"  />
  <line x1="-1250" y1="150" x2="-950" y2="150" style="stroke:#800;stroke-width:10;stroke-opacity:1.000000;stroke-linecap:round"/>
  <g transform="translate(-1142,144) rotate(0)" > <text font-size="100.0" fill="#800" font-family="monospace"  >
   8
  </text> </g> 
  <g transform="translate(-932,190) rotate(0)" > <text font-size="100.0" fill="#088" font-family="monospace"  >
   P4_6
  </text> </g> 
  <circle cx="-1250" cy="150" r="10"
    style="fill:none;stroke:#800;stroke-width:2"  />
  <line x1="-1250" y1="50" x2="-950" y2="50" style="stroke:#800;stroke-width:10;stroke-opacity:1.000000;stroke-linecap:round"/>
  <g transform="translate(-1142,44) rotate(0)" > <text font-size="100.0" fill="#800" font-family="monospace"  >
   9
  </text> </g> 
  <g transform="translate(-932,90) rotate(0)" > <text font-size="100.0" fill="#088" font-family="monospace"  >
   P4_7
  </text> </g> 
  <circle cx="-1250" cy="50" r="10"
    style="fill:none;stroke:#800;stroke-width:2"  />
  <line x1="-1250" y1="-150" x2="-950" y2="-150" style="stroke:#800;stroke-width:10;stroke-opacity:1.000000;stroke-linecap:round"/>
  <g transform="translate(-1185,-156) rotate(0)" > <text font-size="100.0" fill="#800" font-family="monospace"  >
   67
  </text> </g> 
  <g transform="translate(-932,-110) rotate(0)" > <text font-size="100.0" fill="#088" font-family="monospace"  >
   P5_0
  </text> </g> 
  <circle cx="-1250" cy="-150" r="10"
    style="fill:none;stroke:#800;stroke-width:2"  />
  <line x1="-1250" y1="-250" x2="-950" y2="-250" style="stroke:#800;stroke-width:10;stroke-opacity:1.000000;stroke-linecap:round"/>
  <g transform="translate(-1185,-256) rotate(0)" > <text font-size="100.0" fill="#800" font-family="monospace"  >
   66
  </text> </g> 
  <g transform="translate(-932,-210) rotate(0)" > <text font-size="100.0" fill="#088" font-family="monospace"  >
   P5_1
  </text> </g> 
  <circle cx="-1250" cy="-250" r="10"
    style="fill:none;stroke:#800;stroke-width:2"  />
  <line x1="-1250" y1="-350" x2="-950" y2="-350" style="stroke:#800;stroke-width:10;stroke-opacity:1.000000;stroke-linecap:round"/>
  <g transform="translate(-1185,-356) rotate(0)" > <text font-size="100.0" fill="#800" font-family="monospace"  >
   65
  </text> </g> 
  <g transform="translate(-932,-310) rotate(0)" > <text font-size="100.0" fill="#088" font-family="monospace"  >
   P5_2
  </text> </g> 
  <circle cx="-1250" cy="-350" r="10"
    style="fill:none;stroke:#800;stroke-width:2"  />
  <line x1="-1250" y1="-450" x2="-950" y2="-450" style="stroke:#800;stroke-width:10;stroke-opacity:1.000000;stroke-linecap:round"/>
  <g transform="translate(-1185,-456) rotate(0)" > <text font-size="100.0" fill="#800" font-family="monospace"  >
   64
  </text> </g> 
  <g transform="translate(-932,-410) rotate(0)" > <text font-size="100.0" fill="#088" font-family="monospace"  >
   P5_3
  </text> </g> 
  <circle cx="-1250" cy="-450" r="10"
    style="fill:none;stroke:#800;stroke-width:2"  />
  <line x1="-1250" y1="-550" x2="-950" y2="-550" style="stroke:#800;stroke-width:10;stroke-opacity:1.000000;stroke-linecap:round"/>
  <g transform="translate(-1185,-556) rotate(0)" > <text font-size="100.0" fill="#800" font-family="monospace"  >
   63
  </text> </g> 
  <g transform="translate(-932,-510) rotate(0)" > <text font-size="100.0" fill="#088" font-family="monospace"  >
   P5_4
  </text> </g> 
  <circle cx="-1250" cy="-550" r="10"
    style="fill:none;stroke:#800;stroke-width:2"  />
  <line x1="-1250" y1="-650" x2="-950" y2="-650" style="stroke:#800;stroke-width:10;stroke-opacity:1.000000;stroke-linecap:round"/>
  <g transform="translate(-1185,-656) rotate(0)" > <text font-size="100.0" fill="#800" font-family="monospace"  >
   62
  </text> </g> 
  <g transform="translate(-932,-610) rotate(0)" > <text font-size="100.0" fill="#088" font-family="monospace"  >
   P5_5
  </text> </g> 
  <circle cx="-1250" cy="-650" r="10"
    style="fill:none;stroke:#800;stroke-width:2"  />
  <line x1="-1250" y1="-750" x2="-950" y2="-750" style="stroke:#800;stroke-width:10;stroke-opacity:1.000000;stroke-linecap:round"/>
  <g transform="translate(-1185,-756) rotate(0)" > <text font-size="100.0" fill="#800" font-family="monospace"  >
   61
  </text> </g> 
  <g transform="translate(-932,-710) rotate(0)" > <text font-size="100.0" fill="#088" font-family="monospace"  >
   P5_6
  </text> </g> 
  <circle cx="-1250" cy="-750" r="10"
    style="fill:none;stroke:#800;stroke-width:2"  />
  <line x1="-1250" y1="-850" x2="-950" y2="-850" style="stroke:#800;stroke-width:10;stroke-opacity:1.000000;stroke-linecap:round"/>
  <g transform="translate(-1185,-856) rotate(0)" > <text font-size="100.0" fill="#800" font-family="monospace"  >
   60
  </text> </g> 
  <g transform="translate(-932,-810) rotate(0)" > <text font-size="100.0" fill="#088" font-family="monospace"  >
   P5_7
  </text> </g> 
  <circle cx="-1250" cy="-850" r="10"
    style="fill:none;stroke:#800;stroke-width:2"  />
  <line x1="-1250" y1="-1050" x2="-950" y2="-1050" style="stroke:#800;stroke-width:10;stroke-opacity:1.000000;stroke-linecap:round"/>
  <g transform="translate(-1185,-1056) rotate(0)" > <text font-size="100.0" fill="#800" font-family="monospace"  >
   20
  </text> </g> 
  <g transform="translate(-932,-1010) rotate(0)" > <text font-size="100.0" fill="#088" font-family="monospace"  >
   AN_0
  </text> </g> 
  <circle cx="-1250" cy="-1050" r="10"
    style="fill:none;stroke:#800;stroke-width:2"  />
  <line x1="-1250" y1="-1150" x2="-950" y2="-1150" style="stroke:#800;stroke-width:10;stroke-opacity:1.000000;stroke-linecap:round"/>
  <g transform="translate(-1185,-1156) rotate(0)" > <text font-size="100.0" fill="#800" font-family="monospace"  >
   19
  </text> </g> 
  <g transform="translate(-932,-1110) rotate(0)" > <text font-size="100.0" fill="#088" font-family="monospace"  >
   AN_1
  </text> </g> 
  <circle cx="-1250" cy="-1150" r="10"
    style="fill:none;stroke:#800;stroke-width:2"  />
  <line x1="-1250" y1="-1250" x2="-950" y2="-1250" style="stroke:#800;stroke-width:10;stroke-opacity:1.000000;stroke-linecap:round"/>
  <g transform="translate(-1185,-1256) rotate(0)" > <text font-size="100.0" fill="#800" font-family="monospace"  >
   18
  </text> </g> 
  <g transform="translate(-932,-1210) rotate(0)" > <text font-size="100.0" fill="#088" font-family="monospace"  >
   AN_2
  </text> </g> 
  <circle cx="-1250" cy="-1250" r="10"
    style="fill:none;stroke:#800;stroke-width:2"  />
  <line x1="-1250" y1="-1350" x2="-950" y2="-1350" style="stroke:#800;stroke-width:10;stroke-opacity:1.000000;stroke-linecap:round"/>
  <g transform="translate(-1185,-1356) rotate(0)" > <text font-size="100.0" fill="#800" font-family="monospace"  >
   17
  </text> </g> 
  <g transform="translate(-932,-1310) rotate(0)" > <text font-size="100.0" fill="#088" font-family="monospace"  >
   AN_3
  </text> </g> 
  <circle cx="-1250" cy="-1350" r="10"
    style="fill:none;stroke:#800;stroke-width:2"  />
  <line x1="-1250" y1="-1450" x2="-950" y2="-1450" style="stroke:#800;stroke-width:10;stroke-opacity:1.000000;stroke-linecap:round"/>
  <g transform="translate(-1185,-1456) rotate(0)" > <text font-size="100.0" fill="#800" font-family="monospace"  >
   16
  </text> </g> 
  <g transform="translate(-932,-1410) rotate(0)" > <text font-size="100.0" fill="#088" font-family="monospace"  >
   AN_4
  </text> </g> 
  <circle cx="-1250" cy="-1450" r="10"
    style="fill:none;stroke:#800;stroke-width:2"  />
  <line x1="-1250" y1="-1550" x2="-950" y2="-1550" style="stroke:#800;stroke-width:10;stroke-opacity:1.000000;stroke-linecap:round"/>
  <g transform="translate(-1185,-1556) rotate(0)" > <text font-size="100.0" fill="#800" font-family="monospace"  >
   15
  </text> </g> 
  <g transform="translate(-932,-1510) rotate(0)" > <text font-size="100.0" fill="#088" font-family="monospace"  >
   AN_5
  </text> </g> 
  <circle cx="-1250" cy="-1550" r="10"
    style="fill:none;stroke:#800;stroke-width:2"  />
  <line x1="-1250" y1="-1650" x2="-950" y2="-1650" style="stroke:#800;stroke-width:10;stroke-opacity:1.000000;stroke-linecap:round"/>
  <g transform="translate(-1185,-1656) rotate(0)" > <text font-size="100.0" fill="#800" font-family="monospace"  >
   14
  </text> </g> 
  <g transform="translate(-932,-1610) rotate(0)" > <text font-size="100.0" fill="#088" font-family="monospace"  >
   AN_6
  </text> </g> 
  <circle cx="-1250" cy="-1650" r="10"
    style="fill:none;stroke:#800;stroke-width:2"  />
  <line x1="-1250" y1="-1750" x2="-950" y2="-1750" style="stroke:#800;stroke-width:10;stroke-opacity:1.000000;stroke-linecap:round"/>
  <g transform="translate(-1185,-1756) rotate(0)" > <text font-size="100.0" fill="#800" font-family="monospace"  >
   13
  </text> </g> 
  <g transform="translate(-932,-1710) rotate(0)" > <text font-size="100.0" fill="#088" font-family="monospace"  >
   AN_7
  </text> </g> 
  <circle cx="-1250" cy="-1750" r="10"
    style="fill:none;stroke:#800;stroke-width:2"  />
  <line x1="-1250" y1="-1850" x2="-950" y2="-1850" style="stroke:#800;stroke-width:10;stroke-opacity:1.000000;stroke-linecap:round"/>
  <g transform="translate(-1185,-1856) rotate(0)" > <text font-size="100.0" fill="#800" font-family="monospace"  >
   12
  </text> </g> 
  <g transform="translate(-932,-1810) rotate(0)" > <text font-size="100.0" fill="#088" font-family="monospace"  >
   VAGND
  </text> </g> 
  <circle cx="-1250" cy="-1850" r="10"
    style="fill:none;stroke:#800;stroke-width:2"  />
  <line x1="-1250" y1="-1950" x2="-950" y2="-1950" style="stroke:#800;stroke-width:10;stroke-opacity:1.000000;stroke-linecap:round"/>
  <g transform="translate(-1185,-1956) rotate(0)" > <text font-size="100.0" fill="#800" font-family="monospace"  >
   11
  </text> </g> 
  <g transform="translate(-932,-1910) rotate(0)" > <text font-size="100.0" fill="#088" font-family="monospace"  >
   VAREF
  </text> </g> 
  <circle cx="-1250" cy="-1950" r="10"
    style="fill:none;stroke:#800;stroke-width:2"  />
  <line x1="-1250" y1="-2050" x2="-950" y2="-2050" style="stroke:#800;stroke-width:10;stroke-opacity:1.000000;stroke-linecap:round"/>
  <g transform="translate(-1185,-2056) rotate(0)" > <text font-size="100.0" fill="#800" font-family="monospace"  >
   10
  </text> </g> 
  <g transform="translate(-932,-2010) rotate(0)" > <text font-size="100.0" fill="#088" font-family="monospace"  >
   RESET
  </text> </g> 
  <circle cx="-1250" cy="-2050" r="10"
    style="fill:none;stroke:#800;stroke-width:2"  />
 </g>
</svg>
