<?xml version="1.0"?>
<svg height="423" width="423"  >
 <g style="fill-opacity:1.0; stroke:black;
  stroke-width:1;" transform=" translate( 211.75,211.75 ) scale( 0.15,0.15 )">
  <g transform="translate(-35,-65) rotate(0)" > <text font-size="116.666666667" fill="#088" font-family="monospace"  >
   U
  </text> </g> 
  <g transform="translate(-140,135) rotate(0)" > <text font-size="116.666666667" fill="#088" font-family="monospace"  >
   8748
  </text> </g> 
  <rect x="-500" y="-1050" height="2100"
    width="1000" style="fill:none;stroke:#800;stroke-width:10" />
  <line x1="800" y1="950" x2="500" y2="950" style="stroke:#800;stroke-width:10;stroke-opacity:1.000000;stroke-linecap:round"/>
  <g transform="translate(565,944) rotate(0)" > <text font-size="100.0" fill="#800" font-family="monospace"  >
   21
  </text> </g> 
  <g transform="translate(220,990) rotate(0)" > <text font-size="100.0" fill="#088" font-family="monospace"  >
   P2.0
  </text> </g> 
  <circle cx="800" cy="950" r="10"
    style="fill:none;stroke:#800;stroke-width:2"  />
  <line x1="800" y1="850" x2="500" y2="850" style="stroke:#800;stroke-width:10;stroke-opacity:1.000000;stroke-linecap:round"/>
  <g transform="translate(565,844) rotate(0)" > <text font-size="100.0" fill="#800" font-family="monospace"  >
   22
  </text> </g> 
  <g transform="translate(220,890) rotate(0)" > <text font-size="100.0" fill="#088" font-family="monospace"  >
   P2.1
  </text> </g> 
  <circle cx="800" cy="850" r="10"
    style="fill:none;stroke:#800;stroke-width:2"  />
  <line x1="800" y1="750" x2="500" y2="750" style="stroke:#800;stroke-width:10;stroke-opacity:1.000000;stroke-linecap:round"/>
  <g transform="translate(565,744) rotate(0)" > <text font-size="100.0" fill="#800" font-family="monospace"  >
   23
  </text> </g> 
  <g transform="translate(220,790) rotate(0)" > <text font-size="100.0" fill="#088" font-family="monospace"  >
   P2.2
  </text> </g> 
  <circle cx="800" cy="750" r="10"
    style="fill:none;stroke:#800;stroke-width:2"  />
  <line x1="800" y1="650" x2="500" y2="650" style="stroke:#800;stroke-width:10;stroke-opacity:1.000000;stroke-linecap:round"/>
  <g transform="translate(565,644) rotate(0)" > <text font-size="100.0" fill="#800" font-family="monospace"  >
   24
  </text> </g> 
  <g transform="translate(220,690) rotate(0)" > <text font-size="100.0" fill="#088" font-family="monospace"  >
   P2.3
  </text> </g> 
  <circle cx="800" cy="650" r="10"
    style="fill:none;stroke:#800;stroke-width:2"  />
  <line x1="800" y1="550" x2="500" y2="550" style="stroke:#800;stroke-width:10;stroke-opacity:1.000000;stroke-linecap:round"/>
  <g transform="translate(565,544) rotate(0)" > <text font-size="100.0" fill="#800" font-family="monospace"  >
   25
  </text> </g> 
  <g transform="translate(220,590) rotate(0)" > <text font-size="100.0" fill="#088" font-family="monospace"  >
   PROG
  </text> </g> 
  <circle cx="800" cy="550" r="10"
    style="fill:none;stroke:#800;stroke-width:2"  />
  <line x1="800" y1="450" x2="500" y2="450" style="stroke:#800;stroke-width:10;stroke-opacity:1.000000;stroke-linecap:round"/>
  <g transform="translate(565,444) rotate(0)" > <text font-size="100.0" fill="#800" font-family="monospace"  >
   26
  </text> </g> 
  <g transform="translate(280,490) rotate(0)" > <text font-size="100.0" fill="#088" font-family="monospace"  >
   VDD
  </text> </g> 
  <circle cx="800" cy="450" r="10"
    style="fill:none;stroke:#800;stroke-width:2"  />
  <line x1="800" y1="350" x2="500" y2="350" style="stroke:#800;stroke-width:10;stroke-opacity:1.000000;stroke-linecap:round"/>
  <g transform="translate(565,344) rotate(0)" > <text font-size="100.0" fill="#800" font-family="monospace"  >
   27
  </text> </g> 
  <g transform="translate(220,390) rotate(0)" > <text font-size="100.0" fill="#088" font-family="monospace"  >
   P1.0
  </text> </g> 
  <circle cx="800" cy="350" r="10"
    style="fill:none;stroke:#800;stroke-width:2"  />
  <line x1="800" y1="250" x2="500" y2="250" style="stroke:#800;stroke-width:10;stroke-opacity:1.000000;stroke-linecap:round"/>
  <g transform="translate(565,244) rotate(0)" > <text font-size="100.0" fill="#800" font-family="monospace"  >
   28
  </text> </g> 
  <g transform="translate(220,290) rotate(0)" > <text font-size="100.0" fill="#088" font-family="monospace"  >
   P1.1
  </text> </g> 
  <circle cx="800" cy="250" r="10"
    style="fill:none;stroke:#800;stroke-width:2"  />
  <line x1="800" y1="150" x2="500" y2="150" style="stroke:#800;stroke-width:10;stroke-opacity:1.000000;stroke-linecap:round"/>
  <g transform="translate(565,144) rotate(0)" > <text font-size="100.0" fill="#800" font-family="monospace"  >
   29
  </text> </g> 
  <g transform="translate(220,190) rotate(0)" > <text font-size="100.0" fill="#088" font-family="monospace"  >
   P1.2
  </text> </g> 
  <circle cx="800" cy="150" r="10"
    style="fill:none;stroke:#800;stroke-width:2"  />
  <line x1="800" y1="50" x2="500" y2="50" style="stroke:#800;stroke-width:10;stroke-opacity:1.000000;stroke-linecap:round"/>
  <g transform="translate(565,44) rotate(0)" > <text font-size="100.0" fill="#800" font-family="monospace"  >
   30
  </text> </g> 
  <g transform="translate(220,90) rotate(0)" > <text font-size="100.0" fill="#088" font-family="monospace"  >
   P1.3
  </text> </g> 
  <circle cx="800" cy="50" r="10"
    style="fill:none;stroke:#800;stroke-width:2"  />
  <line x1="800" y1="-50" x2="500" y2="-50" style="stroke:#800;stroke-width:10;stroke-opacity:1.000000;stroke-linecap:round"/>
  <g transform="translate(565,-56) rotate(0)" > <text font-size="100.0" fill="#800" font-family="monospace"  >
   31
  </text> </g> 
  <g transform="translate(220,-10) rotate(0)" > <text font-size="100.0" fill="#088" font-family="monospace"  >
   P1.4
  </text> </g> 
  <circle cx="800" cy="-50" r="10"
    style="fill:none;stroke:#800;stroke-width:2"  />
  <line x1="800" y1="-150" x2="500" y2="-150" style="stroke:#800;stroke-width:10;stroke-opacity:1.000000;stroke-linecap:round"/>
  <g transform="translate(565,-156) rotate(0)" > <text font-size="100.0" fill="#800" font-family="monospace"  >
   32
  </text> </g> 
  <g transform="translate(220,-110) rotate(0)" > <text font-size="100.0" fill="#088" font-family="monospace"  >
   P1.5
  </text> </g> 
  <circle cx="800" cy="-150" r="10"
    style="fill:none;stroke:#800;stroke-width:2"  />
  <line x1="800" y1="-250" x2="500" y2="-250" style="stroke:#800;stroke-width:10;stroke-opacity:1.000000;stroke-linecap:round"/>
  <g transform="translate(565,-256) rotate(0)" > <text font-size="100.0" fill="#800" font-family="monospace"  >
   33
  </text> </g> 
  <g transform="translate(220,-210) rotate(0)" > <text font-size="100.0" fill="#088" font-family="monospace"  >
   P1.6
  </text> </g> 
  <circle cx="800" cy="-250" r="10"
    style="fill:none;stroke:#800;stroke-width:2"  />
  <line x1="800" y1="-350" x2="500" y2="-350" style="stroke:#800;stroke-width:10;stroke-opacity:1.000000;stroke-linecap:round"/>
  <g transform="translate(565,-356) rotate(0)" > <text font-size="100.0" fill="#800" font-family="monospace"  >
   34
  </text> </g> 
  <g transform="translate(220,-310) rotate(0)" > <text font-size="100.0" fill="#088" font-family="monospace"  >
   P1.7
  </text> </g> 
  <circle cx="800" cy="-350" r="10"
    style="fill:none;stroke:#800;stroke-width:2"  />
  <line x1="800" y1="-450" x2="500" y2="-450" style="stroke:#800;stroke-width:10;stroke-opacity:1.000000;stroke-linecap:round"/>
  <g transform="translate(565,-456) rotate(0)" > <text font-size="100.0" fill="#800" font-family="monospace"  >
   35
  </text> </g> 
  <g transform="translate(220,-410) rotate(0)" > <text font-size="100.0" fill="#088" font-family="monospace"  >
   P2.4
  </text> </g> 
  <circle cx="800" cy="-450" r="10"
    style="fill:none;stroke:#800;stroke-width:2"  />
  <line x1="800" y1="-550" x2="500" y2="-550" style="stroke:#800;stroke-width:10;stroke-opacity:1.000000;stroke-linecap:round"/>
  <g transform="translate(565,-556) rotate(0)" > <text font-size="100.0" fill="#800" font-family="monospace"  >
   36
  </text> </g> 
  <g transform="translate(220,-510) rotate(0)" > <text font-size="100.0" fill="#088" font-family="monospace"  >
   P2.5
  </text> </g> 
  <circle cx="800" cy="-550" r="10"
    style="fill:none;stroke:#800;stroke-width:2"  />
  <line x1="800" y1="-650" x2="500" y2="-650" style="stroke:#800;stroke-width:10;stroke-opacity:1.000000;stroke-linecap:round"/>
  <g transform="translate(565,-656) rotate(0)" > <text font-size="100.0" fill="#800" font-family="monospace"  >
   37
  </text> </g> 
  <g transform="translate(220,-610) rotate(0)" > <text font-size="100.0" fill="#088" font-family="monospace"  >
   P2.6
  </text> </g> 
  <circle cx="800" cy="-650" r="10"
    style="fill:none;stroke:#800;stroke-width:2"  />
  <line x1="800" y1="-750" x2="500" y2="-750" style="stroke:#800;stroke-width:10;stroke-opacity:1.000000;stroke-linecap:round"/>
  <g transform="translate(565,-756) rotate(0)" > <text font-size="100.0" fill="#800" font-family="monospace"  >
   38
  </text> </g> 
  <g transform="translate(220,-710) rotate(0)" > <text font-size="100.0" fill="#088" font-family="monospace"  >
   P2.7
  </text> </g> 
  <circle cx="800" cy="-750" r="10"
    style="fill:none;stroke:#800;stroke-width:2"  />
  <line x1="800" y1="-850" x2="500" y2="-850" style="stroke:#800;stroke-width:10;stroke-opacity:1.000000;stroke-linecap:round"/>
  <g transform="translate(565,-856) rotate(0)" > <text font-size="100.0" fill="#800" font-family="monospace"  >
   39
  </text> </g> 
  <g transform="translate(340,-810) rotate(0)" > <text font-size="100.0" fill="#088" font-family="monospace"  >
   T1
  </text> </g> 
  <circle cx="800" cy="-850" r="10"
    style="fill:none;stroke:#800;stroke-width:2"  />
  <line x1="800" y1="-950" x2="500" y2="-950" style="stroke:#800;stroke-width:10;stroke-opacity:1.000000;stroke-linecap:round"/>
  <g transform="translate(565,-956) rotate(0)" > <text font-size="100.0" fill="#800" font-family="monospace"  >
   40
  </text> </g> 
  <g transform="translate(280,-910) rotate(0)" > <text font-size="100.0" fill="#088" font-family="monospace"  >
   VCC
  </text> </g> 
  <circle cx="800" cy="-950" r="10"
    style="fill:none;stroke:#800;stroke-width:2"  />
  <line x1="-800" y1="950" x2="-500" y2="950" style="stroke:#800;stroke-width:10;stroke-opacity:1.000000;stroke-linecap:round"/>
  <g transform="translate(-735,944) rotate(0)" > <text font-size="100.0" fill="#800" font-family="monospace"  >
   20
  </text> </g> 
  <g transform="translate(-482,990) rotate(0)" > <text font-size="100.0" fill="#088" font-family="monospace"  >
   GND
  </text> </g> 
  <circle cx="-800" cy="950" r="10"
    style="fill:none;stroke:#800;stroke-width:2"  />
  <line x1="-800" y1="850" x2="-500" y2="850" style="stroke:#800;stroke-width:10;stroke-opacity:1.000000;stroke-linecap:round"/>
  <g transform="translate(-735,844) rotate(0)" > <text font-size="100.0" fill="#800" font-family="monospace"  >
   19
  </text> </g> 
  <g transform="translate(-482,890) rotate(0)" > <text font-size="100.0" fill="#088" font-family="monospace"  >
   DB.7
  </text> </g> 
  <circle cx="-800" cy="850" r="10"
    style="fill:none;stroke:#800;stroke-width:2"  />
  <line x1="-800" y1="750" x2="-500" y2="750" style="stroke:#800;stroke-width:10;stroke-opacity:1.000000;stroke-linecap:round"/>
  <g transform="translate(-735,744) rotate(0)" > <text font-size="100.0" fill="#800" font-family="monospace"  >
   18
  </text> </g> 
  <g transform="translate(-482,790) rotate(0)" > <text font-size="100.0" fill="#088" font-family="monospace"  >
   DB.6
  </text> </g> 
  <circle cx="-800" cy="750" r="10"
    style="fill:none;stroke:#800;stroke-width:2"  />
  <line x1="-800" y1="650" x2="-500" y2="650" style="stroke:#800;stroke-width:10;stroke-opacity:1.000000;stroke-linecap:round"/>
  <g transform="translate(-735,644) rotate(0)" > <text font-size="100.0" fill="#800" font-family="monospace"  >
   17
  </text> </g> 
  <g transform="translate(-482,690) rotate(0)" > <text font-size="100.0" fill="#088" font-family="monospace"  >
   DB.5
  </text> </g> 
  <circle cx="-800" cy="650" r="10"
    style="fill:none;stroke:#800;stroke-width:2"  />
  <line x1="-800" y1="550" x2="-500" y2="550" style="stroke:#800;stroke-width:10;stroke-opacity:1.000000;stroke-linecap:round"/>
  <g transform="translate(-735,544) rotate(0)" > <text font-size="100.0" fill="#800" font-family="monospace"  >
   16
  </text> </g> 
  <g transform="translate(-482,590) rotate(0)" > <text font-size="100.0" fill="#088" font-family="monospace"  >
   DB.4
  </text> </g> 
  <circle cx="-800" cy="550" r="10"
    style="fill:none;stroke:#800;stroke-width:2"  />
  <line x1="-800" y1="450" x2="-500" y2="450" style="stroke:#800;stroke-width:10;stroke-opacity:1.000000;stroke-linecap:round"/>
  <g transform="translate(-735,444) rotate(0)" > <text font-size="100.0" fill="#800" font-family="monospace"  >
   15
  </text> </g> 
  <g transform="translate(-482,490) rotate(0)" > <text font-size="100.0" fill="#088" font-family="monospace"  >
   DB.3
  </text> </g> 
  <circle cx="-800" cy="450" r="10"
    style="fill:none;stroke:#800;stroke-width:2"  />
  <line x1="-800" y1="350" x2="-500" y2="350" style="stroke:#800;stroke-width:10;stroke-opacity:1.000000;stroke-linecap:round"/>
  <g transform="translate(-735,344) rotate(0)" > <text font-size="100.0" fill="#800" font-family="monospace"  >
   14
  </text> </g> 
  <g transform="translate(-482,390) rotate(0)" > <text font-size="100.0" fill="#088" font-family="monospace"  >
   DB.2
  </text> </g> 
  <circle cx="-800" cy="350" r="10"
    style="fill:none;stroke:#800;stroke-width:2"  />
  <line x1="-800" y1="250" x2="-500" y2="250" style="stroke:#800;stroke-width:10;stroke-opacity:1.000000;stroke-linecap:round"/>
  <g transform="translate(-735,244) rotate(0)" > <text font-size="100.0" fill="#800" font-family="monospace"  >
   13
  </text> </g> 
  <g transform="translate(-482,290) rotate(0)" > <text font-size="100.0" fill="#088" font-family="monospace"  >
   DB.1
  </text> </g> 
  <circle cx="-800" cy="250" r="10"
    style="fill:none;stroke:#800;stroke-width:2"  />
  <line x1="-800" y1="150" x2="-500" y2="150" style="stroke:#800;stroke-width:10;stroke-opacity:1.000000;stroke-linecap:round"/>
  <g transform="translate(-735,144) rotate(0)" > <text font-size="100.0" fill="#800" font-family="monospace"  >
   12
  </text> </g> 
  <g transform="translate(-482,190) rotate(0)" > <text font-size="100.0" fill="#088" font-family="monospace"  >
   DB.0
  </text> </g> 
  <circle cx="-800" cy="150" r="10"
    style="fill:none;stroke:#800;stroke-width:2"  />
  <line x1="-800" y1="50" x2="-500" y2="50" style="stroke:#800;stroke-width:10;stroke-opacity:1.000000;stroke-linecap:round"/>
  <g transform="translate(-735,44) rotate(0)" > <text font-size="100.0" fill="#800" font-family="monospace"  >
   11
  </text> </g> 
  <g transform="translate(-482,90) rotate(0)" > <text font-size="100.0" fill="#088" font-family="monospace"  >
   ALE
  </text> </g> 
  <circle cx="-800" cy="50" r="10"
    style="fill:none;stroke:#800;stroke-width:2"  />
  <line x1="-800" y1="-50" x2="-570" y2="-50" style="stroke:#800;stroke-width:10;stroke-opacity:1.000000;stroke-linecap:round"/>
  <circle cx="-535" cy="-50" r="35"
    style="fill:none;stroke:#800;stroke-width:10"  />
  <g transform="translate(-735,-56) rotate(0)" > <text font-size="100.0" fill="#800" font-family="monospace"  >
   10
  </text> </g> 
  <g transform="translate(-482,-10) rotate(0)" > <text font-size="100.0" fill="#088" font-family="monospace"  >
   WR
  </text> </g> 
  <circle cx="-800" cy="-50" r="10"
    style="fill:none;stroke:#800;stroke-width:2"  />
  <line x1="-800" y1="-150" x2="-570" y2="-150" style="stroke:#800;stroke-width:10;stroke-opacity:1.000000;stroke-linecap:round"/>
  <circle cx="-535" cy="-150" r="35"
    style="fill:none;stroke:#800;stroke-width:10"  />
  <g transform="translate(-692,-156) rotate(0)" > <text font-size="100.0" fill="#800" font-family="monospace"  >
   9
  </text> </g> 
  <g transform="translate(-482,-110) rotate(0)" > <text font-size="100.0" fill="#088" font-family="monospace"  >
   PSEN
  </text> </g> 
  <circle cx="-800" cy="-150" r="10"
    style="fill:none;stroke:#800;stroke-width:2"  />
  <line x1="-800" y1="-250" x2="-570" y2="-250" style="stroke:#800;stroke-width:10;stroke-opacity:1.000000;stroke-linecap:round"/>
  <circle cx="-535" cy="-250" r="35"
    style="fill:none;stroke:#800;stroke-width:10"  />
  <g transform="translate(-692,-256) rotate(0)" > <text font-size="100.0" fill="#800" font-family="monospace"  >
   8
  </text> </g> 
  <g transform="translate(-482,-210) rotate(0)" > <text font-size="100.0" fill="#088" font-family="monospace"  >
   RD
  </text> </g> 
  <circle cx="-800" cy="-250" r="10"
    style="fill:none;stroke:#800;stroke-width:2"  />
  <line x1="-800" y1="-350" x2="-500" y2="-350" style="stroke:#800;stroke-width:10;stroke-opacity:1.000000;stroke-linecap:round"/>
  <g transform="translate(-692,-356) rotate(0)" > <text font-size="100.0" fill="#800" font-family="monospace"  >
   7
  </text> </g> 
  <g transform="translate(-482,-310) rotate(0)" > <text font-size="100.0" fill="#088" font-family="monospace"  >
   EA
  </text> </g> 
  <circle cx="-800" cy="-350" r="10"
    style="fill:none;stroke:#800;stroke-width:2"  />
  <line x1="-800" y1="-450" x2="-570" y2="-450" style="stroke:#800;stroke-width:10;stroke-opacity:1.000000;stroke-linecap:round"/>
  <circle cx="-535" cy="-450" r="35"
    style="fill:none;stroke:#800;stroke-width:10"  />
  <g transform="translate(-692,-456) rotate(0)" > <text font-size="100.0" fill="#800" font-family="monospace"  >
   6
  </text> </g> 
  <g transform="translate(-482,-410) rotate(0)" > <text font-size="100.0" fill="#088" font-family="monospace"  >
   INT
  </text> </g> 
  <circle cx="-800" cy="-450" r="10"
    style="fill:none;stroke:#800;stroke-width:2"  />
  <line x1="-800" y1="-550" x2="-570" y2="-550" style="stroke:#800;stroke-width:10;stroke-opacity:1.000000;stroke-linecap:round"/>
  <circle cx="-535" cy="-550" r="35"
    style="fill:none;stroke:#800;stroke-width:10"  />
  <g transform="translate(-692,-556) rotate(0)" > <text font-size="100.0" fill="#800" font-family="monospace"  >
   5
  </text> </g> 
  <g transform="translate(-482,-510) rotate(0)" > <text font-size="100.0" fill="#088" font-family="monospace"  >
   SS
  </text> </g> 
  <circle cx="-800" cy="-550" r="10"
    style="fill:none;stroke:#800;stroke-width:2"  />
  <line x1="-800" y1="-650" x2="-570" y2="-650" style="stroke:#800;stroke-width:10;stroke-opacity:1.000000;stroke-linecap:round"/>
  <circle cx="-535" cy="-650" r="35"
    style="fill:none;stroke:#800;stroke-width:10"  />
  <g transform="translate(-692,-656) rotate(0)" > <text font-size="100.0" fill="#800" font-family="monospace"  >
   4
  </text> </g> 
  <g transform="translate(-482,-610) rotate(0)" > <text font-size="100.0" fill="#088" font-family="monospace"  >
   RESET
  </text> </g> 
  <circle cx="-800" cy="-650" r="10"
    style="fill:none;stroke:#800;stroke-width:2"  />
  <line x1="-800" y1="-750" x2="-500" y2="-750" style="stroke:#800;stroke-width:10;stroke-opacity:1.000000;stroke-linecap:round"/>
  <g transform="translate(-692,-756) rotate(0)" > <text font-size="100.0" fill="#800" font-family="monospace"  >
   3
  </text> </g> 
  <g transform="translate(-482,-710) rotate(0)" > <text font-size="100.0" fill="#088" font-family="monospace"  >
   X2
  </text> </g> 
  <circle cx="-800" cy="-750" r="10"
    style="fill:none;stroke:#800;stroke-width:2"  />
  <line x1="-800" y1="-850" x2="-500" y2="-850" style="stroke:#800;stroke-width:10;stroke-opacity:1.000000;stroke-linecap:round"/>
  <g transform="translate(-692,-856) rotate(0)" > <text font-size="100.0" fill="#800" font-family="monospace"  >
   2
  </text> </g> 
  <g transform="translate(-482,-810) rotate(0)" > <text font-size="100.0" fill="#088" font-family="monospace"  >
   X1
  </text> </g> 
  <circle cx="-800" cy="-850" r="10"
    style="fill:none;stroke:#800;stroke-width:2"  />
  <line x1="-800" y1="-950" x2="-500" y2="-950" style="stroke:#800;stroke-width:10;stroke-opacity:1.000000;stroke-linecap:round"/>
  <g transform="translate(-692,-956) rotate(0)" > <text font-size="100.0" fill="#800" font-family="monospace"  >
   1
  </text> </g> 
  <g transform="translate(-482,-910) rotate(0)" > <text font-size="100.0" fill="#088" font-family="monospace"  >
   T0
  </text> </g> 
  <circle cx="-800" cy="-950" r="10"
    style="fill:none;stroke:#800;stroke-width:2"  />
 </g>
</svg>
