<?xml version="1.0"?>
<svg height="410" width="410"  >
 <g style="fill-opacity:1.0; stroke:black;
  stroke-width:1;" transform=" translate( 205.0,205.0 ) scale( 0.15,0.15 )">
  <g transform="translate(570,-470) rotate(0)" > <text font-size="100.0" fill="#088" font-family="monospace"  >
   U
  </text> </g> 
  <g transform="translate(-680,-470) rotate(0)" > <text font-size="100.0" fill="#088" font-family="monospace"  >
   LT1372
  </text> </g> 
  <rect x="-700" y="-400" height="800"
    width="1400" style="fill:none;stroke:#800;stroke-width:10" />
  <line x1="250" y1="700" x2="250" y2="400" style="stroke:#800;stroke-width:10;stroke-opacity:1.000000;stroke-linecap:round"/>
  <g transform="translate(235,565) rotate(-90)" > <text font-size="100.0" fill="#800" font-family="monospace"  >
   1
  </text> </g> 
  <g transform="translate(257,350) rotate(-90)" > <text font-size="100.0" fill="#088" font-family="monospace"  >
   Vc
  </text> </g> 
  <circle cx="250" cy="700" r="10"
    style="fill:none;stroke:#800;stroke-width:2"  />
  <line x1="1000" y1="250" x2="700" y2="250" style="stroke:#800;stroke-width:10;stroke-opacity:1.000000;stroke-linecap:round"/>
  <g transform="translate(807,244) rotate(0)" > <text font-size="100.0" fill="#800" font-family="monospace"  >
   2
  </text> </g> 
  <g transform="translate(480,290) rotate(0)" > <text font-size="100.0" fill="#088" font-family="monospace"  >
   FB+
  </text> </g> 
  <circle cx="1000" cy="250" r="10"
    style="fill:none;stroke:#800;stroke-width:2"  />
  <line x1="-1000" y1="-250" x2="-700" y2="-250" style="stroke:#800;stroke-width:10;stroke-opacity:1.000000;stroke-linecap:round"/>
  <g transform="translate(-892,-256) rotate(0)" > <text font-size="100.0" fill="#800" font-family="monospace"  >
   3
  </text> </g> 
  <g transform="translate(-682,-210) rotate(0)" > <text font-size="100.0" fill="#088" font-family="monospace"  >
   FB-
  </text> </g> 
  <circle cx="-1000" cy="-250" r="10"
    style="fill:none;stroke:#800;stroke-width:2"  />
  <line x1="-1000" y1="250" x2="-700" y2="250" style="stroke:#800;stroke-width:10;stroke-opacity:1.000000;stroke-linecap:round"/>
  <g transform="translate(-892,244) rotate(0)" > <text font-size="100.0" fill="#800" font-family="monospace"  >
   4
  </text> </g> 
  <g transform="translate(-682,290) rotate(0)" > <text font-size="100.0" fill="#088" font-family="monospace"  >
   S/S
  </text> </g> 
  <circle cx="-1000" cy="250" r="10"
    style="fill:none;stroke:#800;stroke-width:2"  />
  <line x1="0" y1="-700" x2="0" y2="-400" style="stroke:#800;stroke-width:10;stroke-opacity:1.000000;stroke-linecap:round"/>
  <g transform="translate(-15,-535) rotate(-90)" > <text font-size="100.0" fill="#800" font-family="monospace"  >
   5
  </text> </g> 
  <g transform="translate(7,-170) rotate(-90)" > <text font-size="100.0" fill="#088" font-family="monospace"  >
   Vin
  </text> </g> 
  <circle cx="0" cy="-700" r="10"
    style="fill:none;stroke:#800;stroke-width:2"  />
  <line x1="-150" y1="700" x2="-150" y2="400" style="stroke:#800;stroke-width:10;stroke-opacity:1.000000;stroke-linecap:round"/>
  <g transform="translate(-165,565) rotate(-90)" > <text font-size="100.0" fill="#800" font-family="monospace"  >
   6
  </text> </g> 
  <g transform="translate(-142,350) rotate(-90)" > <text font-size="100.0" fill="#088" font-family="monospace"  >
   GND_S
  </text> </g> 
  <circle cx="-150" cy="700" r="10"
    style="fill:none;stroke:#800;stroke-width:2"  />
  <line x1="-300" y1="700" x2="-300" y2="400" style="stroke:#800;stroke-width:10;stroke-opacity:1.000000;stroke-linecap:round"/>
  <g transform="translate(-315,565) rotate(-90)" > <text font-size="100.0" fill="#800" font-family="monospace"  >
   7
  </text> </g> 
  <g transform="translate(-292,350) rotate(-90)" > <text font-size="100.0" fill="#088" font-family="monospace"  >
   GND
  </text> </g> 
  <circle cx="-300" cy="700" r="10"
    style="fill:none;stroke:#800;stroke-width:2"  />
  <line x1="1000" y1="-250" x2="700" y2="-250" style="stroke:#800;stroke-width:10;stroke-opacity:1.000000;stroke-linecap:round"/>
  <g transform="translate(807,-256) rotate(0)" > <text font-size="100.0" fill="#800" font-family="monospace"  >
   8
  </text> </g> 
  <g transform="translate(480,-210) rotate(0)" > <text font-size="100.0" fill="#088" font-family="monospace"  >
   Vsw
  </text> </g> 
  <circle cx="1000" cy="-250" r="10"
    style="fill:none;stroke:#800;stroke-width:2"  />
 </g>
</svg>
