<?xml version="1.0"?>
<svg height="425" width="425"  >
 <g style="fill-opacity:1.0; stroke:black;
  stroke-width:1;" transform=" translate( 212.5,212.5 ) scale( 0.15,0.15 )">
  <g transform="translate(-30,30) rotate(0)" > <text font-size="100.0" fill="#088" font-family="monospace"  >
   U
  </text> </g> 
  <g transform="translate(240,480) rotate(0)" > <text font-size="100.0" fill="#088" font-family="monospace"  >
   LTC3442
  </text> </g> 
  <rect x="-600" y="-400" height="800"
    width="1200" style="fill:none;stroke:#800;stroke-width:10" />
  <line x1="-850" y1="-100" x2="-670" y2="-100" style="stroke:#800;stroke-width:10;stroke-opacity:1.000000;stroke-linecap:round"/>
  <circle cx="-635" cy="-100" r="35"
    style="fill:none;stroke:#800;stroke-width:10"  />
  <g transform="translate(-760,-106) rotate(0)" > <text font-size="83.3333333333" fill="#800" font-family="monospace"  >
   1
  </text> </g> 
  <g transform="translate(-582,-65) rotate(0)" > <text font-size="83.3333333333" fill="#088" font-family="monospace"  >
   SHDN/SS
  </text> </g> 
  <circle cx="-850" cy="-100" r="10"
    style="fill:none;stroke:#800;stroke-width:2"  />
  <line x1="-850" y1="300" x2="-600" y2="300" style="stroke:#800;stroke-width:10;stroke-opacity:1.000000;stroke-linecap:round"/>
  <g transform="translate(-760,294) rotate(0)" > <text font-size="83.3333333333" fill="#800" font-family="monospace"  >
   2
  </text> </g> 
  <g transform="translate(-582,335) rotate(0)" > <text font-size="83.3333333333" fill="#088" font-family="monospace"  >
   RT
  </text> </g> 
  <circle cx="-850" cy="300" r="10"
    style="fill:none;stroke:#800;stroke-width:2"  />
  <line x1="-200" y1="600" x2="-200" y2="400" style="stroke:#800;stroke-width:10;stroke-opacity:1.000000;stroke-linecap:round"/>
  <g transform="translate(-212,512) rotate(-90)" > <text font-size="83.3333333333" fill="#800" font-family="monospace"  >
   3
  </text> </g> 
  <g transform="translate(-193,358) rotate(-90)" > <text font-size="83.3333333333" fill="#088" font-family="monospace"  >
   SGND
  </text> </g> 
  <circle cx="-200" cy="600" r="10"
    style="fill:none;stroke:#800;stroke-width:2"  />
  <line x1="-200" y1="-600" x2="-200" y2="-400" style="stroke:#800;stroke-width:10;stroke-opacity:1.000000;stroke-linecap:round"/>
  <g transform="translate(-212,-487) rotate(-90)" > <text font-size="83.3333333333" fill="#800" font-family="monospace"  >
   4
  </text> </g> 
  <g transform="translate(-193,-208) rotate(-90)" > <text font-size="83.3333333333" fill="#088" font-family="monospace"  >
   SW1
  </text> </g> 
  <circle cx="-200" cy="-600" r="10"
    style="fill:none;stroke:#800;stroke-width:2"  />
  <line x1="0" y1="600" x2="0" y2="400" style="stroke:#800;stroke-width:10;stroke-opacity:1.000000;stroke-linecap:round"/>
  <g transform="translate(-12,512) rotate(-90)" > <text font-size="83.3333333333" fill="#800" font-family="monospace"  >
   5
  </text> </g> 
  <g transform="translate(6,358) rotate(-90)" > <text font-size="83.3333333333" fill="#088" font-family="monospace"  >
   PGND
  </text> </g> 
  <circle cx="0" cy="600" r="10"
    style="fill:none;stroke:#800;stroke-width:2"  />
  <line x1="200" y1="-600" x2="200" y2="-400" style="stroke:#800;stroke-width:10;stroke-opacity:1.000000;stroke-linecap:round"/>
  <g transform="translate(187,-487) rotate(-90)" > <text font-size="83.3333333333" fill="#800" font-family="monospace"  >
   6
  </text> </g> 
  <g transform="translate(206,-208) rotate(-90)" > <text font-size="83.3333333333" fill="#088" font-family="monospace"  >
   SW2
  </text> </g> 
  <circle cx="200" cy="-600" r="10"
    style="fill:none;stroke:#800;stroke-width:2"  />
  <line x1="850" y1="300" x2="600" y2="300" style="stroke:#800;stroke-width:10;stroke-opacity:1.000000;stroke-linecap:round"/>
  <g transform="translate(689,294) rotate(0)" > <text font-size="83.3333333333" fill="#800" font-family="monospace"  >
   7
  </text> </g> 
  <g transform="translate(310,335) rotate(0)" > <text font-size="83.3333333333" fill="#088" font-family="monospace"  >
   BURST
  </text> </g> 
  <circle cx="850" cy="300" r="10"
    style="fill:none;stroke:#800;stroke-width:2"  />
  <line x1="850" y1="-300" x2="600" y2="-300" style="stroke:#800;stroke-width:10;stroke-opacity:1.000000;stroke-linecap:round"/>
  <g transform="translate(689,-306) rotate(0)" > <text font-size="83.3333333333" fill="#800" font-family="monospace"  >
   8
  </text> </g> 
  <g transform="translate(360,-265) rotate(0)" > <text font-size="83.3333333333" fill="#088" font-family="monospace"  >
   VOUT
  </text> </g> 
  <circle cx="850" cy="-300" r="10"
    style="fill:none;stroke:#800;stroke-width:2"  />
  <line x1="-850" y1="-300" x2="-600" y2="-300" style="stroke:#800;stroke-width:10;stroke-opacity:1.000000;stroke-linecap:round"/>
  <g transform="translate(-760,-306) rotate(0)" > <text font-size="83.3333333333" fill="#800" font-family="monospace"  >
   9
  </text> </g> 
  <g transform="translate(-582,-265) rotate(0)" > <text font-size="83.3333333333" fill="#088" font-family="monospace"  >
   VIN
  </text> </g> 
  <circle cx="-850" cy="-300" r="10"
    style="fill:none;stroke:#800;stroke-width:2"  />
  <line x1="-850" y1="100" x2="-600" y2="100" style="stroke:#800;stroke-width:10;stroke-opacity:1.000000;stroke-linecap:round"/>
  <g transform="translate(-795,94) rotate(0)" > <text font-size="83.3333333333" fill="#800" font-family="monospace"  >
   10
  </text> </g> 
  <g transform="translate(-582,135) rotate(0)" > <text font-size="83.3333333333" fill="#088" font-family="monospace"  >
   RLIM
  </text> </g> 
  <circle cx="-850" cy="100" r="10"
    style="fill:none;stroke:#800;stroke-width:2"  />
  <line x1="850" y1="150" x2="600" y2="150" style="stroke:#800;stroke-width:10;stroke-opacity:1.000000;stroke-linecap:round"/>
  <g transform="translate(654,144) rotate(0)" > <text font-size="83.3333333333" fill="#800" font-family="monospace"  >
   11
  </text> </g> 
  <g transform="translate(460,185) rotate(0)" > <text font-size="83.3333333333" fill="#088" font-family="monospace"  >
   VC
  </text> </g> 
  <circle cx="850" cy="150" r="10"
    style="fill:none;stroke:#800;stroke-width:2"  />
  <line x1="850" y1="-50" x2="600" y2="-50" style="stroke:#800;stroke-width:10;stroke-opacity:1.000000;stroke-linecap:round"/>
  <g transform="translate(654,-56) rotate(0)" > <text font-size="83.3333333333" fill="#800" font-family="monospace"  >
   12
  </text> </g> 
  <g transform="translate(460,-15) rotate(0)" > <text font-size="83.3333333333" fill="#088" font-family="monospace"  >
   FB
  </text> </g> 
  <circle cx="850" cy="-50" r="10"
    style="fill:none;stroke:#800;stroke-width:2"  />
  <line x1="200" y1="600" x2="200" y2="400" style="stroke:#800;stroke-width:10;stroke-opacity:1.000000;stroke-linecap:round"/>
  <g transform="translate(187,525) rotate(-90)" > <text font-size="83.3333333333" fill="#800" font-family="monospace"  >
   13
  </text> </g> 
  <g transform="translate(206,358) rotate(-90)" > <text font-size="83.3333333333" fill="#088" font-family="monospace"  >
   PGND
  </text> </g> 
  <circle cx="200" cy="600" r="10"
    style="fill:none;stroke:#800;stroke-width:2"  />
 </g>
</svg>
