<?xml version="1.0"?>
<svg height="485" width="485"  >
 <g style="fill-opacity:1.0; stroke:black;
  stroke-width:1;" transform=" translate( 242.5,242.5 ) scale( 0.15,0.15 )">
  <g transform="translate(65,-415) rotate(0)" > <text font-size="116.666666667" fill="#088" font-family="monospace"  >
   U
  </text> </g> 
  <g transform="translate(-125,485) rotate(0)" > <text font-size="116.666666667" fill="#088" font-family="monospace"  >
   TL497
  </text> </g> 
  <rect x="-450" y="-400" height="800"
    width="900" style="fill:none;stroke:#800;stroke-width:10" />
  <line x1="-750" y1="-300" x2="-450" y2="-300" style="stroke:#800;stroke-width:10;stroke-opacity:1.000000;stroke-linecap:round"/>
  <g transform="translate(-642,-306) rotate(0)" > <text font-size="100.0" fill="#800" font-family="monospace"  >
   1
  </text> </g> 
  <g transform="translate(-432,-270) rotate(0)" > <text font-size="66.6666666667" fill="#088" font-family="monospace"  >
   Comp_1.2V
  </text> </g> 
  <circle cx="-750" cy="-300" r="10"
    style="fill:none;stroke:#800;stroke-width:2"  />
  <line x1="-750" y1="150" x2="-450" y2="150" style="stroke:#800;stroke-width:10;stroke-opacity:1.000000;stroke-linecap:round"/>
  <g transform="translate(-642,144) rotate(0)" > <text font-size="100.0" fill="#800" font-family="monospace"  >
   2
  </text> </g> 
  <g transform="translate(-432,180) rotate(0)" > <text font-size="66.6666666667" fill="#088" font-family="monospace"  >
   Inhbt
  </text> </g> 
  <circle cx="-750" cy="150" r="10"
    style="fill:none;stroke:#800;stroke-width:2"  />
  <line x1="-750" y1="0" x2="-450" y2="0" style="stroke:#800;stroke-width:10;stroke-opacity:1.000000;stroke-linecap:round"/>
  <g transform="translate(-642,-6) rotate(0)" > <text font-size="100.0" fill="#800" font-family="monospace"  >
   3
  </text> </g> 
  <g transform="translate(-432,30) rotate(0)" > <text font-size="66.6666666667" fill="#088" font-family="monospace"  >
   Freq_Ctrl
  </text> </g> 
  <circle cx="-750" cy="0" r="10"
    style="fill:none;stroke:#800;stroke-width:2"  />
  <line x1="-750" y1="300" x2="-450" y2="300" style="stroke:#800;stroke-width:10;stroke-opacity:1.000000;stroke-linecap:round"/>
  <g transform="translate(-642,294) rotate(0)" > <text font-size="100.0" fill="#800" font-family="monospace"  >
   4
  </text> </g> 
  <g transform="translate(-432,330) rotate(0)" > <text font-size="66.6666666667" fill="#088" font-family="monospace"  >
   Substrat
  </text> </g> 
  <circle cx="-750" cy="300" r="10"
    style="fill:none;stroke:#800;stroke-width:2"  />
  <line x1="0" y1="600" x2="0" y2="400" style="stroke:#800;stroke-width:10;stroke-opacity:1.000000;stroke-linecap:round"/>
  <g transform="translate(-15,515) rotate(-90)" > <text font-size="100.0" fill="#800" font-family="monospace"  >
   5
  </text> </g> 
  <g transform="translate(3,375) rotate(-90)" > <text font-size="50.0" fill="#088" font-family="monospace"  >
   GND
  </text> </g> 
  <circle cx="0" cy="600" r="10"
    style="fill:none;stroke:#800;stroke-width:2"  />
  <line x1="750" y1="300" x2="450" y2="300" style="stroke:#800;stroke-width:10;stroke-opacity:1.000000;stroke-linecap:round"/>
  <g transform="translate(557,294) rotate(0)" > <text font-size="100.0" fill="#800" font-family="monospace"  >
   6
  </text> </g> 
  <g transform="translate(250,330) rotate(0)" > <text font-size="66.6666666667" fill="#088" font-family="monospace"  >
   Cath
  </text> </g> 
  <circle cx="750" cy="300" r="10"
    style="fill:none;stroke:#800;stroke-width:2"  />
  <line x1="750" y1="-200" x2="450" y2="-200" style="stroke:#800;stroke-width:10;stroke-opacity:1.000000;stroke-linecap:round"/>
  <g transform="translate(557,-206) rotate(0)" > <text font-size="100.0" fill="#800" font-family="monospace"  >
   7
  </text> </g> 
  <g transform="translate(210,-170) rotate(0)" > <text font-size="66.6666666667" fill="#088" font-family="monospace"  >
   Anode
  </text> </g> 
  <circle cx="750" cy="-200" r="10"
    style="fill:none;stroke:#800;stroke-width:2"  />
  <line x1="750" y1="-100" x2="450" y2="-100" style="stroke:#800;stroke-width:10;stroke-opacity:1.000000;stroke-linecap:round"/>
  <g transform="translate(557,-106) rotate(0)" > <text font-size="100.0" fill="#800" font-family="monospace"  >
   8
  </text> </g> 
  <g transform="translate(250,-70) rotate(0)" > <text font-size="66.6666666667" fill="#088" font-family="monospace"  >
   Emit
  </text> </g> 
  <circle cx="750" cy="-100" r="10"
    style="fill:none;stroke:#800;stroke-width:2"  />
  <line x1="750" y1="-300" x2="450" y2="-300" style="stroke:#800;stroke-width:10;stroke-opacity:1.000000;stroke-linecap:round"/>
  <g transform="translate(515,-306) rotate(0)" > <text font-size="100.0" fill="#800" font-family="monospace"  >
   10
  </text> </g> 
  <g transform="translate(250,-270) rotate(0)" > <text font-size="66.6666666667" fill="#088" font-family="monospace"  >
   Coll
  </text> </g> 
  <circle cx="750" cy="-300" r="10"
    style="fill:none;stroke:#800;stroke-width:2"  />
  <line x1="750" y1="50" x2="450" y2="50" style="stroke:#800;stroke-width:10;stroke-opacity:1.000000;stroke-linecap:round"/>
  <g transform="translate(515,44) rotate(0)" > <text font-size="100.0" fill="#800" font-family="monospace"  >
   11
  </text> </g> 
  <g transform="translate(130,80) rotate(0)" > <text font-size="66.6666666667" fill="#088" font-family="monospace"  >
   Base_Tr
  </text> </g> 
  <circle cx="750" cy="50" r="10"
    style="fill:none;stroke:#800;stroke-width:2"  />
  <line x1="750" y1="150" x2="450" y2="150" style="stroke:#800;stroke-width:10;stroke-opacity:1.000000;stroke-linecap:round"/>
  <g transform="translate(515,144) rotate(0)" > <text font-size="100.0" fill="#800" font-family="monospace"  >
   12
  </text> </g> 
  <g transform="translate(130,180) rotate(0)" > <text font-size="66.6666666667" fill="#088" font-family="monospace"  >
   BaseDrv
  </text> </g> 
  <circle cx="750" cy="150" r="10"
    style="fill:none;stroke:#800;stroke-width:2"  />
  <line x1="-750" y1="-150" x2="-450" y2="-150" style="stroke:#800;stroke-width:10;stroke-opacity:1.000000;stroke-linecap:round"/>
  <g transform="translate(-685,-156) rotate(0)" > <text font-size="100.0" fill="#800" font-family="monospace"  >
   13
  </text> </g> 
  <g transform="translate(-432,-120) rotate(0)" > <text font-size="66.6666666667" fill="#088" font-family="monospace"  >
   Curr_Lim
  </text> </g> 
  <circle cx="-750" cy="-150" r="10"
    style="fill:none;stroke:#800;stroke-width:2"  />
  <line x1="0" y1="-600" x2="0" y2="-400" style="stroke:#800;stroke-width:10;stroke-opacity:1.000000;stroke-linecap:round"/>
  <g transform="translate(-15,-470) rotate(-90)" > <text font-size="100.0" fill="#800" font-family="monospace"  >
   14
  </text> </g> 
  <g transform="translate(3,-285) rotate(-90)" > <text font-size="50.0" fill="#088" font-family="monospace"  >
   VCC
  </text> </g> 
  <circle cx="0" cy="-600" r="10"
    style="fill:none;stroke:#800;stroke-width:2"  />
 </g>
</svg>
