<?xml version="1.0"?>
<svg height="225" width="234"  >
 <g style="fill-opacity:1.0; stroke:black;
  stroke-width:1;" transform=" translate( 117.25,112.5 ) scale( 0.15,0.15 )">
  <g transform="translate(-270,-180) rotate(0)" > <text font-size="66.6666666667" fill="#088" font-family="monospace"  >
   U
  </text> </g> 
  <g transform="translate(-20,-180) rotate(0)" > <text font-size="66.6666666667" fill="#088" font-family="monospace"  >
   TLV71209DBV
  </text> </g> 
  <rect x="-300" y="-150" height="350"
    width="600" style="fill:none;stroke:#800;stroke-width:10" />
  <line x1="-450" y1="-50" x2="-300" y2="-50" style="stroke:#800;stroke-width:10;stroke-opacity:1.000000;stroke-linecap:round"/>
  <g transform="translate(-403,-56) rotate(0)" > <text font-size="66.6666666667" fill="#800" font-family="monospace"  >
   1
  </text> </g> 
  <g transform="translate(-282,-20) rotate(0)" > <text font-size="66.6666666667" fill="#088" font-family="monospace"  >
   IN
  </text> </g> 
  <circle cx="-450" cy="-50" r="10"
    style="fill:none;stroke:#800;stroke-width:2"  />
  <line x1="0" y1="300" x2="0" y2="200" style="stroke:#800;stroke-width:10;stroke-opacity:1.000000;stroke-linecap:round"/>
  <g transform="translate(-10,260) rotate(-90)" > <text font-size="66.6666666667" fill="#800" font-family="monospace"  >
   2
  </text> </g> 
  <g transform="translate(5,166) rotate(-90)" > <text font-size="66.6666666667" fill="#088" font-family="monospace"  >
   GND
  </text> </g> 
  <circle cx="0" cy="300" r="10"
    style="fill:none;stroke:#800;stroke-width:2"  />
  <line x1="-450" y1="100" x2="-300" y2="100" style="stroke:#800;stroke-width:10;stroke-opacity:1.000000;stroke-linecap:round"/>
  <g transform="translate(-403,94) rotate(0)" > <text font-size="66.6666666667" fill="#800" font-family="monospace"  >
   3
  </text> </g> 
  <g transform="translate(-282,130) rotate(0)" > <text font-size="66.6666666667" fill="#088" font-family="monospace"  >
   ~EN~
  </text> </g> 
  <circle cx="-450" cy="100" r="10"
    style="fill:none;stroke:#800;stroke-width:2"  />
  <line x1="450" y1="-50" x2="300" y2="-50" style="stroke:#800;stroke-width:10;stroke-opacity:1.000000;stroke-linecap:round"/>
  <g transform="translate(346,-56) rotate(0)" > <text font-size="66.6666666667" fill="#800" font-family="monospace"  >
   5
  </text> </g> 
  <g transform="translate(140,-20) rotate(0)" > <text font-size="66.6666666667" fill="#088" font-family="monospace"  >
   OUT
  </text> </g> 
  <circle cx="450" cy="-50" r="10"
    style="fill:none;stroke:#800;stroke-width:2"  />
 </g>
</svg>
