<?xml version="1.0"?>
<svg height="226" width="189"  >
 <g style="fill-opacity:1.0; stroke:black;
  stroke-width:1;" transform=" translate( 95.0,113.125 ) scale( 0.15,0.15 )">
  <g transform="translate(20,-170) rotate(0)" > <text font-size="100.0" fill="#088" font-family="monospace"  >
   U
  </text> </g> 
  <g transform="translate(-25,225) rotate(0)" > <text font-size="83.3333333333" fill="#088" font-family="monospace"  >
   LM2902N
  </text> </g> 
<polygon points=" -200,-200 200,0 -200,200 -200,-200" 
style="fill:#ff8;stroke:#800;stroke-width:10"/>
  <line x1="-100" y1="-400" x2="-100" y2="-150" style="stroke:#800;stroke-width:10;stroke-opacity:1.000000;stroke-linecap:round"/>
  <g transform="translate(-110,-265) rotate(-90)" > <text font-size="66.6666666667" fill="#800" font-family="monospace"  >
   4
  </text> </g> 
  <g transform="translate(-95,-36) rotate(-90)" > <text font-size="66.6666666667" fill="#088" font-family="monospace"  >
   V+
  </text> </g> 
  <circle cx="-100" cy="-400" r="10"
    style="fill:none;stroke:#800;stroke-width:2"  />
  <line x1="-100" y1="400" x2="-100" y2="150" style="stroke:#800;stroke-width:10;stroke-opacity:1.000000;stroke-linecap:round"/>
  <g transform="translate(-110,295) rotate(-90)" > <text font-size="66.6666666667" fill="#800" font-family="monospace"  >
   11
  </text> </g> 
  <g transform="translate(-95,116) rotate(-90)" > <text font-size="66.6666666667" fill="#088" font-family="monospace"  >
   V-
  </text> </g> 
  <circle cx="-100" cy="400" r="10"
    style="fill:none;stroke:#800;stroke-width:2"  />
  <line x1="500" y1="0" x2="200" y2="0" style="stroke:#800;stroke-width:10;stroke-opacity:1.000000;stroke-linecap:round"/>
  <g transform="translate(321,-6) rotate(0)" > <text font-size="66.6666666667" fill="#800" font-family="monospace"  >
   1
  </text> </g> 
  <circle cx="500" cy="0" r="10"
    style="fill:none;stroke:#800;stroke-width:2"  />
  <line x1="-500" y1="100" x2="-200" y2="100" style="stroke:#800;stroke-width:10;stroke-opacity:1.000000;stroke-linecap:round"/>
  <g transform="translate(-378,94) rotate(0)" > <text font-size="66.6666666667" fill="#800" font-family="monospace"  >
   2
  </text> </g> 
  <g transform="translate(-182,130) rotate(0)" > <text font-size="66.6666666667" fill="#088" font-family="monospace"  >
   -
  </text> </g> 
  <circle cx="-500" cy="100" r="10"
    style="fill:none;stroke:#800;stroke-width:2"  />
  <line x1="-500" y1="-100" x2="-200" y2="-100" style="stroke:#800;stroke-width:10;stroke-opacity:1.000000;stroke-linecap:round"/>
  <g transform="translate(-378,-106) rotate(0)" > <text font-size="66.6666666667" fill="#800" font-family="monospace"  >
   3
  </text> </g> 
  <g transform="translate(-182,-70) rotate(0)" > <text font-size="66.6666666667" fill="#088" font-family="monospace"  >
   +
  </text> </g> 
  <circle cx="-500" cy="-100" r="10"
    style="fill:none;stroke:#800;stroke-width:2"  />
 </g>
</svg>
