<?xml version="1.0"?>
<svg height="412" width="412"  >
 <g style="fill-opacity:1.0; stroke:black;
  stroke-width:1;" transform=" translate( 206.25,206.25 ) scale( 0.15,0.15 )">
  <g transform="translate(-475,-375) rotate(0)" > <text font-size="83.3333333333" fill="#088" font-family="monospace"  >
   U
  </text> </g> 
  <g transform="translate(-125,425) rotate(0)" > <text font-size="83.3333333333" fill="#088" font-family="monospace"  >
   PIC12F752-I/P
  </text> </g> 
  <rect x="-500" y="-350" height="700"
    width="1000" style="fill:none;stroke:#800;stroke-width:10" />
  <line x1="-650" y1="-250" x2="-500" y2="-250" style="stroke:#800;stroke-width:10;stroke-opacity:1.000000;stroke-linecap:round"/>
  <g transform="translate(-603,-256) rotate(0)" > <text font-size="66.6666666667" fill="#800" font-family="monospace"  >
   1
  </text> </g> 
  <g transform="translate(-482,-220) rotate(0)" > <text font-size="66.6666666667" fill="#088" font-family="monospace"  >
   VDD
  </text> </g> 
  <circle cx="-650" cy="-250" r="10"
    style="fill:none;stroke:#800;stroke-width:2"  />
  <line x1="650" y1="250" x2="500" y2="250" style="stroke:#800;stroke-width:10;stroke-opacity:1.000000;stroke-linecap:round"/>
  <g transform="translate(546,244) rotate(0)" > <text font-size="66.6666666667" fill="#800" font-family="monospace"  >
   2
  </text> </g> 
  <g transform="translate(-100,280) rotate(0)" > <text font-size="66.6666666667" fill="#088" font-family="monospace"  >
   GP5/OSC1/CLKIN
  </text> </g> 
  <circle cx="650" cy="250" r="10"
    style="fill:none;stroke:#800;stroke-width:2"  />
  <line x1="650" y1="150" x2="500" y2="150" style="stroke:#800;stroke-width:10;stroke-opacity:1.000000;stroke-linecap:round"/>
  <g transform="translate(546,144) rotate(0)" > <text font-size="66.6666666667" fill="#800" font-family="monospace"  >
   3
  </text> </g> 
  <g transform="translate(140,180) rotate(0)" > <text font-size="66.6666666667" fill="#088" font-family="monospace"  >
   GP4/OSC2
  </text> </g> 
  <circle cx="650" cy="150" r="10"
    style="fill:none;stroke:#800;stroke-width:2"  />
  <line x1="650" y1="50" x2="500" y2="50" style="stroke:#800;stroke-width:10;stroke-opacity:1.000000;stroke-linecap:round"/>
  <g transform="translate(546,44) rotate(0)" > <text font-size="66.6666666667" fill="#800" font-family="monospace"  >
   4
  </text> </g> 
  <g transform="translate(-100,80) rotate(0)" > <text font-size="66.6666666667" fill="#088" font-family="monospace"  >
   GP3/~MCLR~/Vpp
  </text> </g> 
  <circle cx="650" cy="50" r="10"
    style="fill:none;stroke:#800;stroke-width:2"  />
  <line x1="650" y1="-50" x2="500" y2="-50" style="stroke:#800;stroke-width:10;stroke-opacity:1.000000;stroke-linecap:round"/>
  <g transform="translate(546,-56) rotate(0)" > <text font-size="66.6666666667" fill="#800" font-family="monospace"  >
   5
  </text> </g> 
  <g transform="translate(100,-20) rotate(0)" > <text font-size="66.6666666667" fill="#088" font-family="monospace"  >
   GP2/T0CKI
  </text> </g> 
  <circle cx="650" cy="-50" r="10"
    style="fill:none;stroke:#800;stroke-width:2"  />
  <line x1="650" y1="-150" x2="500" y2="-150" style="stroke:#800;stroke-width:10;stroke-opacity:1.000000;stroke-linecap:round"/>
  <g transform="translate(546,-156) rotate(0)" > <text font-size="66.6666666667" fill="#800" font-family="monospace"  >
   6
  </text> </g> 
  <g transform="translate(20,-120) rotate(0)" > <text font-size="66.6666666667" fill="#088" font-family="monospace"  >
   GP1/ICSPCLK
  </text> </g> 
  <circle cx="650" cy="-150" r="10"
    style="fill:none;stroke:#800;stroke-width:2"  />
  <line x1="650" y1="-250" x2="500" y2="-250" style="stroke:#800;stroke-width:10;stroke-opacity:1.000000;stroke-linecap:round"/>
  <g transform="translate(546,-256) rotate(0)" > <text font-size="66.6666666667" fill="#800" font-family="monospace"  >
   7
  </text> </g> 
  <g transform="translate(20,-220) rotate(0)" > <text font-size="66.6666666667" fill="#088" font-family="monospace"  >
   GP0/ICSPDAT
  </text> </g> 
  <circle cx="650" cy="-250" r="10"
    style="fill:none;stroke:#800;stroke-width:2"  />
  <line x1="-650" y1="250" x2="-500" y2="250" style="stroke:#800;stroke-width:10;stroke-opacity:1.000000;stroke-linecap:round"/>
  <g transform="translate(-603,244) rotate(0)" > <text font-size="66.6666666667" fill="#800" font-family="monospace"  >
   8
  </text> </g> 
  <g transform="translate(-482,280) rotate(0)" > <text font-size="66.6666666667" fill="#088" font-family="monospace"  >
   VSS
  </text> </g> 
  <circle cx="-650" cy="250" r="10"
    style="fill:none;stroke:#800;stroke-width:2"  />
 </g>
</svg>
