<?xml version="1.0"?>
<svg height="149" width="86"  >
 <g style="fill-opacity:1.0; stroke:black;
  stroke-width:1;" transform=" translate( 43.5,74.75 ) scale( 0.15,0.15 )">
  <g transform="translate(-200,-100) rotate(0)" > <text font-size="66.6666666667" fill="#088" font-family="monospace"  >
   EW
  </text> </g> 
  <g transform="translate(-170,230) rotate(0)" > <text font-size="66.6666666667" fill="#088" font-family="monospace"  >
   W_65KA
  </text> </g> 
<polygon points=" -80,0 -40,0 -80,-40 -80,0 -80,40 -40,0 -40,0" 
style="fill:#800;stroke:#800;stroke-width:10"/>
<polygon points=" 80,0 40,0 80,-40 80,40 80,0 80,40 40,0 40,0" 
style="fill:#800;stroke:#800;stroke-width:10"/>
  <line x1="200" y1="200" x2="200" y2="200" style="stroke:#800;stroke-width:10;stroke-opacity:1.000000;stroke-linecap:round"/>
  <rect x="-10" y="40" height="20"
    width="20" style="fill:none;stroke:#800;stroke-width:10" />
  <rect x="-120" y="-60" height="120"
    width="240" style="fill:none;stroke:#800;stroke-width:10" />
  <line x1="-100" y1="0" x2="-80" y2="0" style="stroke:#800;stroke-width:10;stroke-opacity:1.000000;stroke-linecap:round"/>
  <line x1="-80" y1="0" x2="-80" y2="0" style="stroke:#800;stroke-width:10;stroke-opacity:1.000000;stroke-linecap:round"/>
  <line x1="200" y1="0" x2="100" y2="0" style="stroke:#800;stroke-width:10;stroke-opacity:1.000000;stroke-linecap:round"/>
  <circle cx="200" cy="0" r="10"
    style="fill:none;stroke:#800;stroke-width:2"  />
  <line x1="-200" y1="0" x2="-100" y2="0" style="stroke:#800;stroke-width:10;stroke-opacity:1.000000;stroke-linecap:round"/>
  <circle cx="-200" cy="0" r="10"
    style="fill:none;stroke:#800;stroke-width:2"  />
  <line x1="0" y1="100" x2="0" y2="50" style="stroke:#800;stroke-width:10;stroke-opacity:1.000000;stroke-linecap:round"/>
  <circle cx="0" cy="100" r="10"
    style="fill:none;stroke:#800;stroke-width:2"  />
 </g>
</svg>
