<?xml version="1.0"?>
<svg height="497" width="467"  >
 <g style="fill-opacity:1.0; stroke:black;
  stroke-width:1;" transform=" translate( 233.75,248.5 ) scale( 0.15,0.15 )">
  <g transform="translate(-30,-870) rotate(0)" > <text font-size="100.0" fill="#088" font-family="monospace"  >
   U
  </text> </g> 
  <g transform="translate(190,1030) rotate(0)" > <text font-size="100.0" fill="#088" font-family="monospace"  >
   FT232RL
  </text> </g> 
  <rect x="-650" y="-850" height="1750"
    width="1250" style="fill:none;stroke:#800;stroke-width:10" />
  <line x1="900" y1="-700" x2="600" y2="-700" style="stroke:#800;stroke-width:10;stroke-opacity:1.000000;stroke-linecap:round"/>
  <g transform="translate(714,-706) rotate(0)" > <text font-size="83.3333333333" fill="#800" font-family="monospace"  >
   1
  </text> </g> 
  <g transform="translate(410,-665) rotate(0)" > <text font-size="83.3333333333" fill="#088" font-family="monospace"  >
   TXD
  </text> </g> 
  <circle cx="900" cy="-700" r="10"
    style="fill:none;stroke:#800;stroke-width:2"  />
  <line x1="680" y1="-300" x2="600" y2="-340" style="stroke:#800;stroke-width:10;stroke-opacity:1.000000;stroke-linecap:round"/>
  <line x1="600" y1="-340" x2="600" y2="-300" style="stroke:#800;stroke-width:10;stroke-opacity:1.000000;stroke-linecap:round"/>
  <line x1="900" y1="-300" x2="600" y2="-300" style="stroke:#800;stroke-width:10;stroke-opacity:1.000000;stroke-linecap:round"/>
  <g transform="translate(714,-306) rotate(0)" > <text font-size="83.3333333333" fill="#800" font-family="monospace"  >
   2
  </text> </g> 
  <g transform="translate(410,-265) rotate(0)" > <text font-size="83.3333333333" fill="#088" font-family="monospace"  >
   DTR
  </text> </g> 
  <circle cx="900" cy="-300" r="10"
    style="fill:none;stroke:#800;stroke-width:2"  />
  <line x1="680" y1="-500" x2="600" y2="-540" style="stroke:#800;stroke-width:10;stroke-opacity:1.000000;stroke-linecap:round"/>
  <line x1="600" y1="-540" x2="600" y2="-500" style="stroke:#800;stroke-width:10;stroke-opacity:1.000000;stroke-linecap:round"/>
  <line x1="900" y1="-500" x2="600" y2="-500" style="stroke:#800;stroke-width:10;stroke-opacity:1.000000;stroke-linecap:round"/>
  <g transform="translate(714,-506) rotate(0)" > <text font-size="83.3333333333" fill="#800" font-family="monospace"  >
   3
  </text> </g> 
  <g transform="translate(410,-465) rotate(0)" > <text font-size="83.3333333333" fill="#088" font-family="monospace"  >
   RTS
  </text> </g> 
  <circle cx="900" cy="-500" r="10"
    style="fill:none;stroke:#800;stroke-width:2"  />
  <line x1="-950" y1="-750" x2="-650" y2="-750" style="stroke:#800;stroke-width:10;stroke-opacity:1.000000;stroke-linecap:round"/>
  <g transform="translate(-835,-756) rotate(0)" > <text font-size="83.3333333333" fill="#800" font-family="monospace"  >
   4
  </text> </g> 
  <g transform="translate(-632,-715) rotate(0)" > <text font-size="83.3333333333" fill="#088" font-family="monospace"  >
   VCCIO
  </text> </g> 
  <circle cx="-950" cy="-750" r="10"
    style="fill:none;stroke:#800;stroke-width:2"  />
  <line x1="900" y1="-600" x2="600" y2="-600" style="stroke:#800;stroke-width:10;stroke-opacity:1.000000;stroke-linecap:round"/>
  <g transform="translate(714,-606) rotate(0)" > <text font-size="83.3333333333" fill="#800" font-family="monospace"  >
   5
  </text> </g> 
  <g transform="translate(410,-565) rotate(0)" > <text font-size="83.3333333333" fill="#088" font-family="monospace"  >
   RXD
  </text> </g> 
  <circle cx="900" cy="-600" r="10"
    style="fill:none;stroke:#800;stroke-width:2"  />
  <line x1="680" y1="0" x2="680" y2="-40" style="stroke:#800;stroke-width:10;stroke-opacity:1.000000;stroke-linecap:round"/>
  <line x1="680" y1="-40" x2="600" y2="0" style="stroke:#800;stroke-width:10;stroke-opacity:1.000000;stroke-linecap:round"/>
  <line x1="900" y1="0" x2="600" y2="0" style="stroke:#800;stroke-width:10;stroke-opacity:1.000000;stroke-linecap:round"/>
  <g transform="translate(714,-6) rotate(0)" > <text font-size="83.3333333333" fill="#800" font-family="monospace"  >
   6
  </text> </g> 
  <g transform="translate(460,35) rotate(0)" > <text font-size="83.3333333333" fill="#088" font-family="monospace"  >
   RI
  </text> </g> 
  <circle cx="900" cy="0" r="10"
    style="fill:none;stroke:#800;stroke-width:2"  />
  <line x1="-150" y1="1200" x2="-150" y2="900" style="stroke:#800;stroke-width:10;stroke-opacity:1.000000;stroke-linecap:round"/>
  <g transform="translate(-162,1062) rotate(-90)" > <text font-size="83.3333333333" fill="#800" font-family="monospace"  >
   7
  </text> </g> 
  <g transform="translate(-143,858) rotate(-90)" > <text font-size="83.3333333333" fill="#088" font-family="monospace"  >
   GND
  </text> </g> 
  <circle cx="-150" cy="1200" r="10"
    style="fill:none;stroke:#800;stroke-width:2"  />
  <line x1="680" y1="-200" x2="680" y2="-240" style="stroke:#800;stroke-width:10;stroke-opacity:1.000000;stroke-linecap:round"/>
  <line x1="680" y1="-240" x2="600" y2="-200" style="stroke:#800;stroke-width:10;stroke-opacity:1.000000;stroke-linecap:round"/>
  <line x1="900" y1="-200" x2="600" y2="-200" style="stroke:#800;stroke-width:10;stroke-opacity:1.000000;stroke-linecap:round"/>
  <g transform="translate(714,-206) rotate(0)" > <text font-size="83.3333333333" fill="#800" font-family="monospace"  >
   9
  </text> </g> 
  <g transform="translate(410,-165) rotate(0)" > <text font-size="83.3333333333" fill="#088" font-family="monospace"  >
   DCR
  </text> </g> 
  <circle cx="900" cy="-200" r="10"
    style="fill:none;stroke:#800;stroke-width:2"  />
  <line x1="680" y1="-100" x2="680" y2="-140" style="stroke:#800;stroke-width:10;stroke-opacity:1.000000;stroke-linecap:round"/>
  <line x1="680" y1="-140" x2="600" y2="-100" style="stroke:#800;stroke-width:10;stroke-opacity:1.000000;stroke-linecap:round"/>
  <line x1="900" y1="-100" x2="600" y2="-100" style="stroke:#800;stroke-width:10;stroke-opacity:1.000000;stroke-linecap:round"/>
  <g transform="translate(679,-106) rotate(0)" > <text font-size="83.3333333333" fill="#800" font-family="monospace"  >
   10
  </text> </g> 
  <g transform="translate(410,-65) rotate(0)" > <text font-size="83.3333333333" fill="#088" font-family="monospace"  >
   DCD
  </text> </g> 
  <circle cx="900" cy="-100" r="10"
    style="fill:none;stroke:#800;stroke-width:2"  />
  <line x1="-950" y1="-650" x2="-650" y2="-650" style="stroke:#800;stroke-width:10;stroke-opacity:1.000000;stroke-linecap:round"/>
  <g transform="translate(-870,-656) rotate(0)" > <text font-size="83.3333333333" fill="#800" font-family="monospace"  >
   20
  </text> </g> 
  <g transform="translate(-632,-615) rotate(0)" > <text font-size="83.3333333333" fill="#088" font-family="monospace"  >
   VCC
  </text> </g> 
  <circle cx="-950" cy="-650" r="10"
    style="fill:none;stroke:#800;stroke-width:2"  />
  <line x1="680" y1="-400" x2="680" y2="-440" style="stroke:#800;stroke-width:10;stroke-opacity:1.000000;stroke-linecap:round"/>
  <line x1="680" y1="-440" x2="600" y2="-400" style="stroke:#800;stroke-width:10;stroke-opacity:1.000000;stroke-linecap:round"/>
  <line x1="900" y1="-400" x2="600" y2="-400" style="stroke:#800;stroke-width:10;stroke-opacity:1.000000;stroke-linecap:round"/>
  <g transform="translate(679,-406) rotate(0)" > <text font-size="83.3333333333" fill="#800" font-family="monospace"  >
   11
  </text> </g> 
  <g transform="translate(410,-365) rotate(0)" > <text font-size="83.3333333333" fill="#088" font-family="monospace"  >
   CTS
  </text> </g> 
  <circle cx="900" cy="-400" r="10"
    style="fill:none;stroke:#800;stroke-width:2"  />
  <line x1="150" y1="1200" x2="150" y2="900" style="stroke:#800;stroke-width:10;stroke-opacity:1.000000;stroke-linecap:round"/>
  <g transform="translate(137,1075) rotate(-90)" > <text font-size="83.3333333333" fill="#800" font-family="monospace"  >
   21
  </text> </g> 
  <g transform="translate(156,858) rotate(-90)" > <text font-size="83.3333333333" fill="#088" font-family="monospace"  >
   GND
  </text> </g> 
  <circle cx="150" cy="1200" r="10"
    style="fill:none;stroke:#800;stroke-width:2"  />
  <line x1="900" y1="500" x2="600" y2="500" style="stroke:#800;stroke-width:10;stroke-opacity:1.000000;stroke-linecap:round"/>
  <g transform="translate(679,494) rotate(0)" > <text font-size="83.3333333333" fill="#800" font-family="monospace"  >
   12
  </text> </g> 
  <g transform="translate(310,535) rotate(0)" > <text font-size="83.3333333333" fill="#088" font-family="monospace"  >
   CBUS4
  </text> </g> 
  <circle cx="900" cy="500" r="10"
    style="fill:none;stroke:#800;stroke-width:2"  />
  <line x1="900" y1="200" x2="600" y2="200" style="stroke:#800;stroke-width:10;stroke-opacity:1.000000;stroke-linecap:round"/>
  <g transform="translate(679,194) rotate(0)" > <text font-size="83.3333333333" fill="#800" font-family="monospace"  >
   22
  </text> </g> 
  <g transform="translate(310,235) rotate(0)" > <text font-size="83.3333333333" fill="#088" font-family="monospace"  >
   CBUS1
  </text> </g> 
  <circle cx="900" cy="200" r="10"
    style="fill:none;stroke:#800;stroke-width:2"  />
  <line x1="900" y1="300" x2="600" y2="300" style="stroke:#800;stroke-width:10;stroke-opacity:1.000000;stroke-linecap:round"/>
  <g transform="translate(679,294) rotate(0)" > <text font-size="83.3333333333" fill="#800" font-family="monospace"  >
   13
  </text> </g> 
  <g transform="translate(310,335) rotate(0)" > <text font-size="83.3333333333" fill="#088" font-family="monospace"  >
   CBUS2
  </text> </g> 
  <circle cx="900" cy="300" r="10"
    style="fill:none;stroke:#800;stroke-width:2"  />
  <line x1="900" y1="100" x2="600" y2="100" style="stroke:#800;stroke-width:10;stroke-opacity:1.000000;stroke-linecap:round"/>
  <g transform="translate(679,94) rotate(0)" > <text font-size="83.3333333333" fill="#800" font-family="monospace"  >
   23
  </text> </g> 
  <g transform="translate(310,135) rotate(0)" > <text font-size="83.3333333333" fill="#088" font-family="monospace"  >
   CBUS0
  </text> </g> 
  <circle cx="900" cy="100" r="10"
    style="fill:none;stroke:#800;stroke-width:2"  />
  <line x1="900" y1="400" x2="600" y2="400" style="stroke:#800;stroke-width:10;stroke-opacity:1.000000;stroke-linecap:round"/>
  <g transform="translate(679,394) rotate(0)" > <text font-size="83.3333333333" fill="#800" font-family="monospace"  >
   14
  </text> </g> 
  <g transform="translate(310,435) rotate(0)" > <text font-size="83.3333333333" fill="#088" font-family="monospace"  >
   CBUS3
  </text> </g> 
  <circle cx="900" cy="400" r="10"
    style="fill:none;stroke:#800;stroke-width:2"  />
  <line x1="-950" y1="-300" x2="-650" y2="-300" style="stroke:#800;stroke-width:10;stroke-opacity:1.000000;stroke-linecap:round"/>
  <g transform="translate(-870,-306) rotate(0)" > <text font-size="83.3333333333" fill="#800" font-family="monospace"  >
   15
  </text> </g> 
  <g transform="translate(-632,-265) rotate(0)" > <text font-size="83.3333333333" fill="#088" font-family="monospace"  >
   USBD+
  </text> </g> 
  <circle cx="-950" cy="-300" r="10"
    style="fill:none;stroke:#800;stroke-width:2"  />
  <line x1="-300" y1="1200" x2="-300" y2="900" style="stroke:#800;stroke-width:10;stroke-opacity:1.000000;stroke-linecap:round"/>
  <g transform="translate(-312,1075) rotate(-90)" > <text font-size="83.3333333333" fill="#800" font-family="monospace"  >
   25
  </text> </g> 
  <g transform="translate(-293,858) rotate(-90)" > <text font-size="83.3333333333" fill="#088" font-family="monospace"  >
   AGND
  </text> </g> 
  <circle cx="-300" cy="1200" r="10"
    style="fill:none;stroke:#800;stroke-width:2"  />
  <line x1="-950" y1="-400" x2="-650" y2="-400" style="stroke:#800;stroke-width:10;stroke-opacity:1.000000;stroke-linecap:round"/>
  <g transform="translate(-870,-406) rotate(0)" > <text font-size="83.3333333333" fill="#800" font-family="monospace"  >
   16
  </text> </g> 
  <g transform="translate(-632,-365) rotate(0)" > <text font-size="83.3333333333" fill="#088" font-family="monospace"  >
   USBD-
  </text> </g> 
  <circle cx="-950" cy="-400" r="10"
    style="fill:none;stroke:#800;stroke-width:2"  />
  <line x1="300" y1="1200" x2="300" y2="900" style="stroke:#800;stroke-width:10;stroke-opacity:1.000000;stroke-linecap:round"/>
  <g transform="translate(287,1075) rotate(-90)" > <text font-size="83.3333333333" fill="#800" font-family="monospace"  >
   26
  </text> </g> 
  <g transform="translate(306,858) rotate(-90)" > <text font-size="83.3333333333" fill="#088" font-family="monospace"  >
   TEST
  </text> </g> 
  <circle cx="300" cy="1200" r="10"
    style="fill:none;stroke:#800;stroke-width:2"  />
  <line x1="-950" y1="500" x2="-650" y2="500" style="stroke:#800;stroke-width:10;stroke-opacity:1.000000;stroke-linecap:round"/>
  <g transform="translate(-870,494) rotate(0)" > <text font-size="83.3333333333" fill="#800" font-family="monospace"  >
   17
  </text> </g> 
  <g transform="translate(-632,535) rotate(0)" > <text font-size="83.3333333333" fill="#088" font-family="monospace"  >
   3V3OUT
  </text> </g> 
  <circle cx="-950" cy="500" r="10"
    style="fill:none;stroke:#800;stroke-width:2"  />
  <line x1="-950" y1="200" x2="-650" y2="200" style="stroke:#800;stroke-width:10;stroke-opacity:1.000000;stroke-linecap:round"/>
  <g transform="translate(-870,194) rotate(0)" > <text font-size="83.3333333333" fill="#800" font-family="monospace"  >
   27
  </text> </g> 
  <g transform="translate(-632,235) rotate(0)" > <text font-size="83.3333333333" fill="#088" font-family="monospace"  >
   OSCI
  </text> </g> 
  <circle cx="-950" cy="200" r="10"
    style="fill:none;stroke:#800;stroke-width:2"  />
  <line x1="0" y1="1200" x2="0" y2="900" style="stroke:#800;stroke-width:10;stroke-opacity:1.000000;stroke-linecap:round"/>
  <g transform="translate(-12,1075) rotate(-90)" > <text font-size="83.3333333333" fill="#800" font-family="monospace"  >
   18
  </text> </g> 
  <g transform="translate(6,858) rotate(-90)" > <text font-size="83.3333333333" fill="#088" font-family="monospace"  >
   GND
  </text> </g> 
  <circle cx="0" cy="1200" r="10"
    style="fill:none;stroke:#800;stroke-width:2"  />
  <line x1="-950" y1="300" x2="-650" y2="300" style="stroke:#800;stroke-width:10;stroke-opacity:1.000000;stroke-linecap:round"/>
  <g transform="translate(-870,294) rotate(0)" > <text font-size="83.3333333333" fill="#800" font-family="monospace"  >
   28
  </text> </g> 
  <g transform="translate(-632,335) rotate(0)" > <text font-size="83.3333333333" fill="#088" font-family="monospace"  >
   OSCO
  </text> </g> 
  <circle cx="-950" cy="300" r="10"
    style="fill:none;stroke:#800;stroke-width:2"  />
  <line x1="-730" y1="0" x2="-730" y2="-40" style="stroke:#800;stroke-width:10;stroke-opacity:1.000000;stroke-linecap:round"/>
  <line x1="-730" y1="-40" x2="-650" y2="0" style="stroke:#800;stroke-width:10;stroke-opacity:1.000000;stroke-linecap:round"/>
  <line x1="-950" y1="0" x2="-650" y2="0" style="stroke:#800;stroke-width:10;stroke-opacity:1.000000;stroke-linecap:round"/>
  <g transform="translate(-870,-6) rotate(0)" > <text font-size="83.3333333333" fill="#800" font-family="monospace"  >
   19
  </text> </g> 
  <g transform="translate(-632,35) rotate(0)" > <text font-size="83.3333333333" fill="#088" font-family="monospace"  >
   RESET
  </text> </g> 
  <circle cx="-950" cy="0" r="10"
    style="fill:none;stroke:#800;stroke-width:2"  />
 </g>
</svg>
