<?xml version="1.0"?>
<svg height="341" width="325"  >
 <g style="fill-opacity:1.0; stroke:black;
  stroke-width:1;" transform=" translate( 162.5,170.775 ) scale( 0.15,0.15 )">
  <g transform="translate(220,-470) rotate(0)" > <text font-size="100.0" fill="#088" font-family="monospace"  >
   U
  </text> </g> 
  <g transform="translate(170,527) rotate(0)" > <text font-size="100.0" fill="#088" font-family="monospace"  >
   IR2110
  </text> </g> 
  <rect x="-300" y="-450" height="850"
    width="600" style="fill:none;stroke:#800;stroke-width:10" />
  <rect x="-150" y="-350" height="0"
    width="0" style="fill:none;stroke:#800;stroke-width:10" />
  <line x1="600" y1="200" x2="300" y2="200" style="stroke:#800;stroke-width:10;stroke-opacity:1.000000;stroke-linecap:round"/>
  <g transform="translate(414,194) rotate(0)" > <text font-size="83.3333333333" fill="#800" font-family="monospace"  >
   1
  </text> </g> 
  <g transform="translate(60,230) rotate(0)" > <text font-size="66.6666666667" fill="#088" font-family="monospace"  >
   VoutL
  </text> </g> 
  <circle cx="600" cy="200" r="10"
    style="fill:none;stroke:#800;stroke-width:2"  />
  <line x1="150" y1="600" x2="150" y2="400" style="stroke:#800;stroke-width:10;stroke-opacity:1.000000;stroke-linecap:round"/>
  <g transform="translate(137,512) rotate(-90)" > <text font-size="83.3333333333" fill="#800" font-family="monospace"  >
   2
  </text> </g> 
  <g transform="translate(153,375) rotate(-90)" > <text font-size="50.0" fill="#088" font-family="monospace"  >
   PGND
  </text> </g> 
  <circle cx="150" cy="600" r="10"
    style="fill:none;stroke:#800;stroke-width:2"  />
  <line x1="150" y1="-650" x2="150" y2="-450" style="stroke:#800;stroke-width:10;stroke-opacity:1.000000;stroke-linecap:round"/>
  <g transform="translate(137,-537) rotate(-90)" > <text font-size="83.3333333333" fill="#800" font-family="monospace"  >
   3
  </text> </g> 
  <g transform="translate(153,-335) rotate(-90)" > <text font-size="50.0" fill="#088" font-family="monospace"  >
   PWR
  </text> </g> 
  <circle cx="150" cy="-650" r="10"
    style="fill:none;stroke:#800;stroke-width:2"  />
  <line x1="600" y1="-150" x2="300" y2="-150" style="stroke:#800;stroke-width:10;stroke-opacity:1.000000;stroke-linecap:round"/>
  <g transform="translate(414,-156) rotate(0)" > <text font-size="83.3333333333" fill="#800" font-family="monospace"  >
   5
  </text> </g> 
  <g transform="translate(160,-115) rotate(0)" > <text font-size="83.3333333333" fill="#088" font-family="monospace"  >
   VS
  </text> </g> 
  <circle cx="600" cy="-150" r="10"
    style="fill:none;stroke:#800;stroke-width:2"  />
  <line x1="600" y1="-350" x2="300" y2="-350" style="stroke:#800;stroke-width:10;stroke-opacity:1.000000;stroke-linecap:round"/>
  <g transform="translate(414,-356) rotate(0)" > <text font-size="83.3333333333" fill="#800" font-family="monospace"  >
   6
  </text> </g> 
  <g transform="translate(160,-315) rotate(0)" > <text font-size="83.3333333333" fill="#088" font-family="monospace"  >
   VB
  </text> </g> 
  <circle cx="600" cy="-350" r="10"
    style="fill:none;stroke:#800;stroke-width:2"  />
  <line x1="600" y1="-250" x2="300" y2="-250" style="stroke:#800;stroke-width:10;stroke-opacity:1.000000;stroke-linecap:round"/>
  <g transform="translate(414,-256) rotate(0)" > <text font-size="83.3333333333" fill="#800" font-family="monospace"  >
   7
  </text> </g> 
  <g transform="translate(10,-215) rotate(0)" > <text font-size="83.3333333333" fill="#088" font-family="monospace"  >
   VoutH
  </text> </g> 
  <circle cx="600" cy="-250" r="10"
    style="fill:none;stroke:#800;stroke-width:2"  />
  <line x1="-150" y1="-650" x2="-150" y2="-450" style="stroke:#800;stroke-width:10;stroke-opacity:1.000000;stroke-linecap:round"/>
  <g transform="translate(-162,-537) rotate(-90)" > <text font-size="83.3333333333" fill="#800" font-family="monospace"  >
   9
  </text> </g> 
  <g transform="translate(-146,-335) rotate(-90)" > <text font-size="50.0" fill="#088" font-family="monospace"  >
   VDD
  </text> </g> 
  <circle cx="-150" cy="-650" r="10"
    style="fill:none;stroke:#800;stroke-width:2"  />
  <line x1="-600" y1="-250" x2="-300" y2="-250" style="stroke:#800;stroke-width:10;stroke-opacity:1.000000;stroke-linecap:round"/>
  <g transform="translate(-520,-256) rotate(0)" > <text font-size="83.3333333333" fill="#800" font-family="monospace"  >
   10
  </text> </g> 
  <g transform="translate(-282,-220) rotate(0)" > <text font-size="66.6666666667" fill="#088" font-family="monospace"  >
   VinH
  </text> </g> 
  <circle cx="-600" cy="-250" r="10"
    style="fill:none;stroke:#800;stroke-width:2"  />
  <line x1="-600" y1="0" x2="-300" y2="0" style="stroke:#800;stroke-width:10;stroke-opacity:1.000000;stroke-linecap:round"/>
  <g transform="translate(-520,-6) rotate(0)" > <text font-size="83.3333333333" fill="#800" font-family="monospace"  >
   11
  </text> </g> 
  <g transform="translate(-282,30) rotate(0)" > <text font-size="66.6666666667" fill="#088" font-family="monospace"  >
   Sh_Dw
  </text> </g> 
  <circle cx="-600" cy="0" r="10"
    style="fill:none;stroke:#800;stroke-width:2"  />
  <line x1="-600" y1="200" x2="-300" y2="200" style="stroke:#800;stroke-width:10;stroke-opacity:1.000000;stroke-linecap:round"/>
  <g transform="translate(-520,194) rotate(0)" > <text font-size="83.3333333333" fill="#800" font-family="monospace"  >
   12
  </text> </g> 
  <g transform="translate(-282,230) rotate(0)" > <text font-size="66.6666666667" fill="#088" font-family="monospace"  >
   VinL
  </text> </g> 
  <circle cx="-600" cy="200" r="10"
    style="fill:none;stroke:#800;stroke-width:2"  />
  <line x1="-150" y1="600" x2="-150" y2="400" style="stroke:#800;stroke-width:10;stroke-opacity:1.000000;stroke-linecap:round"/>
  <g transform="translate(-162,525) rotate(-90)" > <text font-size="83.3333333333" fill="#800" font-family="monospace"  >
   13
  </text> </g> 
  <g transform="translate(-146,375) rotate(-90)" > <text font-size="50.0" fill="#088" font-family="monospace"  >
   VSS
  </text> </g> 
  <circle cx="-150" cy="600" r="10"
    style="fill:none;stroke:#800;stroke-width:2"  />
 </g>
</svg>
