<?xml version="1.0"?>
<svg height="354" width="275"  >
 <g style="fill-opacity:1.0; stroke:black;
  stroke-width:1;" transform=" translate( 137.5,177.25 ) scale( 0.15,0.15 )">
  <g transform="translate(-30,-620) rotate(0)" > <text font-size="100.0" fill="#088" font-family="monospace"  >
   U
  </text> </g> 
  <g transform="translate(-210,680) rotate(0)" > <text font-size="100.0" fill="#088" font-family="monospace"  >
   LTC2861
  </text> </g> 
  <rect x="-350" y="-600" height="1200"
    width="700" style="fill:none;stroke:#800;stroke-width:10" />
  <line x1="-200" y1="-200" x2="-150" y2="-200" style="stroke:#800;stroke-width:10;stroke-opacity:1.000000;stroke-linecap:round"/>
  <line x1="-150" y1="-200" x2="-150" y2="-200" style="stroke:#800;stroke-width:10;stroke-opacity:1.000000;stroke-linecap:round"/>
  <line x1="-200" y1="-400" x2="-150" y2="-400" style="stroke:#800;stroke-width:10;stroke-opacity:1.000000;stroke-linecap:round"/>
  <line x1="-150" y1="-400" x2="-150" y2="-400" style="stroke:#800;stroke-width:10;stroke-opacity:1.000000;stroke-linecap:round"/>
  <line x1="-200" y1="300" x2="-50" y2="300" style="stroke:#800;stroke-width:10;stroke-opacity:1.000000;stroke-linecap:round"/>
  <line x1="-50" y1="300" x2="-50" y2="250" style="stroke:#800;stroke-width:10;stroke-opacity:1.000000;stroke-linecap:round"/>
  <line x1="-50" y1="250" x2="-50" y2="250" style="stroke:#800;stroke-width:10;stroke-opacity:1.000000;stroke-linecap:round"/>
  <line x1="-200" y1="100" x2="-50" y2="100" style="stroke:#800;stroke-width:10;stroke-opacity:1.000000;stroke-linecap:round"/>
  <line x1="-50" y1="100" x2="-50" y2="150" style="stroke:#800;stroke-width:10;stroke-opacity:1.000000;stroke-linecap:round"/>
  <line x1="-50" y1="150" x2="-50" y2="150" style="stroke:#800;stroke-width:10;stroke-opacity:1.000000;stroke-linecap:round"/>
  <line x1="-200" y1="0" x2="50" y2="0" style="stroke:#800;stroke-width:10;stroke-opacity:1.000000;stroke-linecap:round"/>
  <line x1="50" y1="0" x2="50" y2="100" style="stroke:#800;stroke-width:10;stroke-opacity:1.000000;stroke-linecap:round"/>
  <line x1="50" y1="100" x2="50" y2="100" style="stroke:#800;stroke-width:10;stroke-opacity:1.000000;stroke-linecap:round"/>
  <line x1="50" y1="-250" x2="50" y2="-150" style="stroke:#800;stroke-width:10;stroke-opacity:1.000000;stroke-linecap:round"/>
  <line x1="50" y1="-150" x2="150" y2="-150" style="stroke:#800;stroke-width:10;stroke-opacity:1.000000;stroke-linecap:round"/>
  <line x1="150" y1="-150" x2="150" y2="-150" style="stroke:#800;stroke-width:10;stroke-opacity:1.000000;stroke-linecap:round"/>
  <line x1="100" y1="450" x2="50" y2="450" style="stroke:#800;stroke-width:10;stroke-opacity:1.000000;stroke-linecap:round"/>
  <line x1="50" y1="450" x2="50" y2="300" style="stroke:#800;stroke-width:10;stroke-opacity:1.000000;stroke-linecap:round"/>
  <line x1="50" y1="300" x2="50" y2="300" style="stroke:#800;stroke-width:10;stroke-opacity:1.000000;stroke-linecap:round"/>
<polygon points=" -150,-450 -150,-150 150,-300 -150,-450 -150,-450" 
style="fill:#ff8;stroke:#800;stroke-width:10"/>
<polygon points=" 150,50 150,350 -150,200 150,50 150,50" 
style="fill:#ff8;stroke:#800;stroke-width:10"/>
  <line x1="600" y1="-300" x2="350" y2="-300" style="stroke:#800;stroke-width:10;stroke-opacity:1.000000;stroke-linecap:round"/>
  <g transform="translate(439,-306) rotate(0)" > <text font-size="83.3333333333" fill="#800" font-family="monospace"  >
   1
  </text> </g> 
  <g transform="translate(210,-265) rotate(0)" > <text font-size="83.3333333333" fill="#088" font-family="monospace"  >
   RO
  </text> </g> 
  <circle cx="600" cy="-300" r="10"
    style="fill:none;stroke:#800;stroke-width:2"  />
  <line x1="600" y1="-150" x2="420" y2="-150" style="stroke:#800;stroke-width:10;stroke-opacity:1.000000;stroke-linecap:round"/>
  <circle cx="385" cy="-150" r="35"
    style="fill:none;stroke:#800;stroke-width:10"  />
  <g transform="translate(439,-156) rotate(0)" > <text font-size="83.3333333333" fill="#800" font-family="monospace"  >
   2
  </text> </g> 
  <g transform="translate(210,-115) rotate(0)" > <text font-size="83.3333333333" fill="#088" font-family="monospace"  >
   RE
  </text> </g> 
  <circle cx="600" cy="-150" r="10"
    style="fill:none;stroke:#800;stroke-width:2"  />
  <line x1="-600" y1="0" x2="-350" y2="0" style="stroke:#800;stroke-width:10;stroke-opacity:1.000000;stroke-linecap:round"/>
  <g transform="translate(-510,-6) rotate(0)" > <text font-size="83.3333333333" fill="#800" font-family="monospace"  >
   3
  </text> </g> 
  <g transform="translate(-332,35) rotate(0)" > <text font-size="83.3333333333" fill="#088" font-family="monospace"  >
   DE
  </text> </g> 
  <circle cx="-600" cy="0" r="10"
    style="fill:none;stroke:#800;stroke-width:2"  />
  <line x1="600" y1="200" x2="350" y2="200" style="stroke:#800;stroke-width:10;stroke-opacity:1.000000;stroke-linecap:round"/>
  <g transform="translate(439,194) rotate(0)" > <text font-size="83.3333333333" fill="#800" font-family="monospace"  >
   4
  </text> </g> 
  <g transform="translate(210,235) rotate(0)" > <text font-size="83.3333333333" fill="#088" font-family="monospace"  >
   DI
  </text> </g> 
  <circle cx="600" cy="200" r="10"
    style="fill:none;stroke:#800;stroke-width:2"  />
  <line x1="-600" y1="-300" x2="-350" y2="-300" style="stroke:#800;stroke-width:10;stroke-opacity:1.000000;stroke-linecap:round"/>
  <g transform="translate(-510,-306) rotate(0)" > <text font-size="83.3333333333" fill="#800" font-family="monospace"  >
   5
  </text> </g> 
  <g transform="translate(-332,-265) rotate(0)" > <text font-size="83.3333333333" fill="#088" font-family="monospace"  >
   TE
  </text> </g> 
  <circle cx="-600" cy="-300" r="10"
    style="fill:none;stroke:#800;stroke-width:2"  />
  <line x1="-600" y1="500" x2="-350" y2="500" style="stroke:#800;stroke-width:10;stroke-opacity:1.000000;stroke-linecap:round"/>
  <g transform="translate(-510,494) rotate(0)" > <text font-size="83.3333333333" fill="#800" font-family="monospace"  >
   6
  </text> </g> 
  <g transform="translate(-332,535) rotate(0)" > <text font-size="83.3333333333" fill="#088" font-family="monospace"  >
   GND
  </text> </g> 
  <circle cx="-600" cy="500" r="10"
    style="fill:none;stroke:#800;stroke-width:2"  />
  <line x1="600" y1="450" x2="420" y2="450" style="stroke:#800;stroke-width:10;stroke-opacity:1.000000;stroke-linecap:round"/>
  <circle cx="385" cy="450" r="35"
    style="fill:none;stroke:#800;stroke-width:10"  />
  <g transform="translate(404,444) rotate(0)" > <text font-size="83.3333333333" fill="#800" font-family="monospace"  >
   11
  </text> </g> 
  <g transform="translate(159,485) rotate(0)" > <text font-size="83.3333333333" fill="#088" font-family="monospace"  >
   SLO
  </text> </g> 
  <circle cx="600" cy="450" r="10"
    style="fill:none;stroke:#800;stroke-width:2"  />
  <line x1="-600" y1="100" x2="-350" y2="100" style="stroke:#800;stroke-width:10;stroke-opacity:1.000000;stroke-linecap:round"/>
  <g transform="translate(-545,94) rotate(0)" > <text font-size="83.3333333333" fill="#800" font-family="monospace"  >
   12
  </text> </g> 
  <g transform="translate(-332,135) rotate(0)" > <text font-size="83.3333333333" fill="#088" font-family="monospace"  >
   Y
  </text> </g> 
  <circle cx="-600" cy="100" r="10"
    style="fill:none;stroke:#800;stroke-width:2"  />
  <line x1="-600" y1="300" x2="-420" y2="300" style="stroke:#800;stroke-width:10;stroke-opacity:1.000000;stroke-linecap:round"/>
  <circle cx="-385" cy="300" r="35"
    style="fill:none;stroke:#800;stroke-width:10"  />
  <g transform="translate(-545,294) rotate(0)" > <text font-size="83.3333333333" fill="#800" font-family="monospace"  >
   13
  </text> </g> 
  <g transform="translate(-332,335) rotate(0)" > <text font-size="83.3333333333" fill="#088" font-family="monospace"  >
   Z
  </text> </g> 
  <circle cx="-600" cy="300" r="10"
    style="fill:none;stroke:#800;stroke-width:2"  />
  <line x1="-600" y1="-200" x2="-420" y2="-200" style="stroke:#800;stroke-width:10;stroke-opacity:1.000000;stroke-linecap:round"/>
  <circle cx="-385" cy="-200" r="35"
    style="fill:none;stroke:#800;stroke-width:10"  />
  <g transform="translate(-545,-206) rotate(0)" > <text font-size="83.3333333333" fill="#800" font-family="monospace"  >
   14
  </text> </g> 
  <g transform="translate(-332,-165) rotate(0)" > <text font-size="83.3333333333" fill="#088" font-family="monospace"  >
   B
  </text> </g> 
  <circle cx="-600" cy="-200" r="10"
    style="fill:none;stroke:#800;stroke-width:2"  />
  <line x1="-600" y1="-400" x2="-350" y2="-400" style="stroke:#800;stroke-width:10;stroke-opacity:1.000000;stroke-linecap:round"/>
  <g transform="translate(-545,-406) rotate(0)" > <text font-size="83.3333333333" fill="#800" font-family="monospace"  >
   15
  </text> </g> 
  <g transform="translate(-332,-365) rotate(0)" > <text font-size="83.3333333333" fill="#088" font-family="monospace"  >
   A
  </text> </g> 
  <circle cx="-600" cy="-400" r="10"
    style="fill:none;stroke:#800;stroke-width:2"  />
  <line x1="600" y1="-500" x2="350" y2="-500" style="stroke:#800;stroke-width:10;stroke-opacity:1.000000;stroke-linecap:round"/>
  <g transform="translate(404,-506) rotate(0)" > <text font-size="83.3333333333" fill="#800" font-family="monospace"  >
   16
  </text> </g> 
  <g transform="translate(159,-465) rotate(0)" > <text font-size="83.3333333333" fill="#088" font-family="monospace"  >
   VCC
  </text> </g> 
  <circle cx="600" cy="-500" r="10"
    style="fill:none;stroke:#800;stroke-width:2"  />
 </g>
</svg>
