<?xml version="1.0"?>
<svg height="285" width="242"  >
 <g style="fill-opacity:1.0; stroke:black;
  stroke-width:1;" transform=" translate( 121.0,142.75 ) scale( 0.15,0.15 )">
  <g transform="translate(-290,-280) rotate(0)" > <text font-size="66.6666666667" fill="#088" font-family="monospace"  >
   IC
  </text> </g> 
  <g transform="translate(30,320) rotate(0)" > <text font-size="66.6666666667" fill="#088" font-family="monospace"  >
   MCP2551-I/P
  </text> </g> 
  <rect x="-300" y="-250" height="500"
    width="600" style="fill:none;stroke:#800;stroke-width:10" />
  <line x1="-450" y1="-100" x2="-300" y2="-100" style="stroke:#800;stroke-width:10;stroke-opacity:1.000000;stroke-linecap:round"/>
  <g transform="translate(-403,-106) rotate(0)" > <text font-size="66.6666666667" fill="#800" font-family="monospace"  >
   1
  </text> </g> 
  <g transform="translate(-282,-70) rotate(0)" > <text font-size="66.6666666667" fill="#088" font-family="monospace"  >
   TXD
  </text> </g> 
  <circle cx="-450" cy="-100" r="10"
    style="fill:none;stroke:#800;stroke-width:2"  />
  <line x1="0" y1="400" x2="0" y2="250" style="stroke:#800;stroke-width:10;stroke-opacity:1.000000;stroke-linecap:round"/>
  <g transform="translate(-10,335) rotate(-90)" > <text font-size="66.6666666667" fill="#800" font-family="monospace"  >
   2
  </text> </g> 
  <g transform="translate(5,216) rotate(-90)" > <text font-size="66.6666666667" fill="#088" font-family="monospace"  >
   VSS
  </text> </g> 
  <circle cx="0" cy="400" r="10"
    style="fill:none;stroke:#800;stroke-width:2"  />
  <line x1="0" y1="-400" x2="0" y2="-250" style="stroke:#800;stroke-width:10;stroke-opacity:1.000000;stroke-linecap:round"/>
  <g transform="translate(-10,-315) rotate(-90)" > <text font-size="66.6666666667" fill="#800" font-family="monospace"  >
   3
  </text> </g> 
  <g transform="translate(5,-96) rotate(-90)" > <text font-size="66.6666666667" fill="#088" font-family="monospace"  >
   VDD
  </text> </g> 
  <circle cx="0" cy="-400" r="10"
    style="fill:none;stroke:#800;stroke-width:2"  />
  <line x1="-450" y1="-200" x2="-300" y2="-200" style="stroke:#800;stroke-width:10;stroke-opacity:1.000000;stroke-linecap:round"/>
  <g transform="translate(-403,-206) rotate(0)" > <text font-size="66.6666666667" fill="#800" font-family="monospace"  >
   4
  </text> </g> 
  <g transform="translate(-282,-170) rotate(0)" > <text font-size="66.6666666667" fill="#088" font-family="monospace"  >
   RXD
  </text> </g> 
  <circle cx="-450" cy="-200" r="10"
    style="fill:none;stroke:#800;stroke-width:2"  />
  <line x1="-450" y1="50" x2="-300" y2="50" style="stroke:#800;stroke-width:10;stroke-opacity:1.000000;stroke-linecap:round"/>
  <g transform="translate(-403,44) rotate(0)" > <text font-size="66.6666666667" fill="#800" font-family="monospace"  >
   5
  </text> </g> 
  <g transform="translate(-282,80) rotate(0)" > <text font-size="66.6666666667" fill="#088" font-family="monospace"  >
   Vref
  </text> </g> 
  <circle cx="-450" cy="50" r="10"
    style="fill:none;stroke:#800;stroke-width:2"  />
  <line x1="450" y1="100" x2="300" y2="100" style="stroke:#800;stroke-width:10;stroke-opacity:1.000000;stroke-linecap:round"/>
  <g transform="translate(346,94) rotate(0)" > <text font-size="66.6666666667" fill="#800" font-family="monospace"  >
   6
  </text> </g> 
  <g transform="translate(100,130) rotate(0)" > <text font-size="66.6666666667" fill="#088" font-family="monospace"  >
   CANL
  </text> </g> 
  <circle cx="450" cy="100" r="10"
    style="fill:none;stroke:#800;stroke-width:2"  />
  <line x1="450" y1="-100" x2="300" y2="-100" style="stroke:#800;stroke-width:10;stroke-opacity:1.000000;stroke-linecap:round"/>
  <g transform="translate(346,-106) rotate(0)" > <text font-size="66.6666666667" fill="#800" font-family="monospace"  >
   7
  </text> </g> 
  <g transform="translate(100,-70) rotate(0)" > <text font-size="66.6666666667" fill="#088" font-family="monospace"  >
   CANH
  </text> </g> 
  <circle cx="450" cy="-100" r="10"
    style="fill:none;stroke:#800;stroke-width:2"  />
  <line x1="-450" y1="200" x2="-300" y2="200" style="stroke:#800;stroke-width:10;stroke-opacity:1.000000;stroke-linecap:round"/>
  <g transform="translate(-403,194) rotate(0)" > <text font-size="66.6666666667" fill="#800" font-family="monospace"  >
   8
  </text> </g> 
  <g transform="translate(-282,230) rotate(0)" > <text font-size="66.6666666667" fill="#088" font-family="monospace"  >
   Rs
  </text> </g> 
  <circle cx="-450" cy="200" r="10"
    style="fill:none;stroke:#800;stroke-width:2"  />
 </g>
</svg>
