<?xml version="1.0"?>
<svg height="282" width="280"  >
 <g style="fill-opacity:1.0; stroke:black;
  stroke-width:1;" transform=" translate( 140.0,141.0 ) scale( 0.15,0.15 )">
  <g transform="translate(-30,-220) rotate(0)" > <text font-size="100.0" fill="#088" font-family="monospace"  >
   U
  </text> </g> 
  <g transform="translate(-130,280) rotate(0)" > <text font-size="100.0" fill="#088" font-family="monospace"  >
   TMC809
  </text> </g> 
  <rect x="-300" y="-200" height="400"
    width="600" style="fill:none;stroke:#800;stroke-width:10" />
  <line x1="0" y1="350" x2="0" y2="200" style="stroke:#800;stroke-width:10;stroke-opacity:1.000000;stroke-linecap:round"/>
  <g transform="translate(-12,287) rotate(-90)" > <text font-size="83.3333333333" fill="#800" font-family="monospace"  >
   1
  </text> </g> 
  <g transform="translate(6,158) rotate(-90)" > <text font-size="83.3333333333" fill="#088" font-family="monospace"  >
   GND
  </text> </g> 
  <circle cx="0" cy="350" r="10"
    style="fill:none;stroke:#800;stroke-width:2"  />
  <line x1="380" y1="-100" x2="300" y2="-140" style="stroke:#800;stroke-width:10;stroke-opacity:1.000000;stroke-linecap:round"/>
  <line x1="300" y1="-140" x2="300" y2="-100" style="stroke:#800;stroke-width:10;stroke-opacity:1.000000;stroke-linecap:round"/>
  <line x1="450" y1="-100" x2="300" y2="-100" style="stroke:#800;stroke-width:10;stroke-opacity:1.000000;stroke-linecap:round"/>
  <g transform="translate(339,-106) rotate(0)" > <text font-size="83.3333333333" fill="#800" font-family="monospace"  >
   2
  </text> </g> 
  <g transform="translate(10,-65) rotate(0)" > <text font-size="83.3333333333" fill="#088" font-family="monospace"  >
   Reset
  </text> </g> 
  <circle cx="450" cy="-100" r="10"
    style="fill:none;stroke:#800;stroke-width:2"  />
  <line x1="-450" y1="-100" x2="-300" y2="-100" style="stroke:#800;stroke-width:10;stroke-opacity:1.000000;stroke-linecap:round"/>
  <g transform="translate(-410,-106) rotate(0)" > <text font-size="83.3333333333" fill="#800" font-family="monospace"  >
   3
  </text> </g> 
  <g transform="translate(-282,-65) rotate(0)" > <text font-size="83.3333333333" fill="#088" font-family="monospace"  >
   VCCin
  </text> </g> 
  <circle cx="-450" cy="-100" r="10"
    style="fill:none;stroke:#800;stroke-width:2"  />
 </g>
</svg>
