<?xml version="1.0"?>
<svg height="278" width="217"  >
 <g style="fill-opacity:1.0; stroke:black;
  stroke-width:1;" transform=" translate( 108.5,139.375 ) scale( 0.15,0.15 )">
  <g transform="translate(-225,-425) rotate(0)" > <text font-size="83.3333333333" fill="#088" font-family="monospace"  >
   U
  </text> </g> 
  <g transform="translate(-275,475) rotate(0)" > <text font-size="83.3333333333" fill="#088" font-family="monospace"  >
   XTR115U
  </text> </g> 
  <rect x="-250" y="-400" height="800"
    width="500" style="fill:none;stroke:#800;stroke-width:10" />
  <line x1="-400" y1="-200" x2="-250" y2="-200" style="stroke:#800;stroke-width:10;stroke-opacity:1.000000;stroke-linecap:round"/>
  <g transform="translate(-353,-206) rotate(0)" > <text font-size="66.6666666667" fill="#800" font-family="monospace"  >
   1
  </text> </g> 
  <g transform="translate(-232,-170) rotate(0)" > <text font-size="66.6666666667" fill="#088" font-family="monospace"  >
   Vref
  </text> </g> 
  <circle cx="-400" cy="-200" r="10"
    style="fill:none;stroke:#800;stroke-width:2"  />
  <line x1="-400" y1="50" x2="-250" y2="50" style="stroke:#800;stroke-width:10;stroke-opacity:1.000000;stroke-linecap:round"/>
  <g transform="translate(-353,44) rotate(0)" > <text font-size="66.6666666667" fill="#800" font-family="monospace"  >
   2
  </text> </g> 
  <g transform="translate(-232,80) rotate(0)" > <text font-size="66.6666666667" fill="#088" font-family="monospace"  >
   Iin
  </text> </g> 
  <circle cx="-400" cy="50" r="10"
    style="fill:none;stroke:#800;stroke-width:2"  />
  <line x1="-400" y1="350" x2="-250" y2="350" style="stroke:#800;stroke-width:10;stroke-opacity:1.000000;stroke-linecap:round"/>
  <g transform="translate(-353,344) rotate(0)" > <text font-size="66.6666666667" fill="#800" font-family="monospace"  >
   3
  </text> </g> 
  <g transform="translate(-232,380) rotate(0)" > <text font-size="66.6666666667" fill="#088" font-family="monospace"  >
   Iret
  </text> </g> 
  <circle cx="-400" cy="350" r="10"
    style="fill:none;stroke:#800;stroke-width:2"  />
  <line x1="400" y1="350" x2="250" y2="350" style="stroke:#800;stroke-width:10;stroke-opacity:1.000000;stroke-linecap:round"/>
  <g transform="translate(296,344) rotate(0)" > <text font-size="66.6666666667" fill="#800" font-family="monospace"  >
   4
  </text> </g> 
  <g transform="translate(130,380) rotate(0)" > <text font-size="66.6666666667" fill="#088" font-family="monospace"  >
   Io
  </text> </g> 
  <circle cx="400" cy="350" r="10"
    style="fill:none;stroke:#800;stroke-width:2"  />
  <line x1="400" y1="50" x2="250" y2="50" style="stroke:#800;stroke-width:10;stroke-opacity:1.000000;stroke-linecap:round"/>
  <g transform="translate(296,44) rotate(0)" > <text font-size="66.6666666667" fill="#800" font-family="monospace"  >
   5
  </text> </g> 
  <g transform="translate(170,80) rotate(0)" > <text font-size="66.6666666667" fill="#088" font-family="monospace"  >
   E
  </text> </g> 
  <circle cx="400" cy="50" r="10"
    style="fill:none;stroke:#800;stroke-width:2"  />
  <line x1="400" y1="-150" x2="250" y2="-150" style="stroke:#800;stroke-width:10;stroke-opacity:1.000000;stroke-linecap:round"/>
  <g transform="translate(296,-156) rotate(0)" > <text font-size="66.6666666667" fill="#800" font-family="monospace"  >
   6
  </text> </g> 
  <g transform="translate(170,-120) rotate(0)" > <text font-size="66.6666666667" fill="#088" font-family="monospace"  >
   B
  </text> </g> 
  <circle cx="400" cy="-150" r="10"
    style="fill:none;stroke:#800;stroke-width:2"  />
  <line x1="400" y1="-350" x2="250" y2="-350" style="stroke:#800;stroke-width:10;stroke-opacity:1.000000;stroke-linecap:round"/>
  <g transform="translate(296,-356) rotate(0)" > <text font-size="66.6666666667" fill="#800" font-family="monospace"  >
   7
  </text> </g> 
  <g transform="translate(130,-320) rotate(0)" > <text font-size="66.6666666667" fill="#088" font-family="monospace"  >
   V+
  </text> </g> 
  <circle cx="400" cy="-350" r="10"
    style="fill:none;stroke:#800;stroke-width:2"  />
  <line x1="-400" y1="-350" x2="-250" y2="-350" style="stroke:#800;stroke-width:10;stroke-opacity:1.000000;stroke-linecap:round"/>
  <g transform="translate(-353,-356) rotate(0)" > <text font-size="66.6666666667" fill="#800" font-family="monospace"  >
   8
  </text> </g> 
  <g transform="translate(-232,-320) rotate(0)" > <text font-size="66.6666666667" fill="#088" font-family="monospace"  >
   Vreg
  </text> </g> 
  <circle cx="-400" cy="-350" r="10"
    style="fill:none;stroke:#800;stroke-width:2"  />
 </g>
</svg>
