<?xml version="1.0"?>
<svg height="394" width="362"  >
 <g style="fill-opacity:1.0; stroke:black;
  stroke-width:1;" transform=" translate( 181.25,197.25 ) scale( 0.15,0.15 )">
  <g transform="translate(-30,-420) rotate(0)" > <text font-size="100.0" fill="#088" font-family="monospace"  >
   U
  </text> </g> 
  <g transform="translate(-300,480) rotate(0)" > <text font-size="100.0" fill="#088" font-family="monospace"  >
   LSM303DLHC
  </text> </g> 
  <rect x="-400" y="-400" height="800"
    width="800" style="fill:none;stroke:#800;stroke-width:10" />
  <line x1="-600" y1="-300" x2="-400" y2="-300" style="stroke:#800;stroke-width:10;stroke-opacity:1.000000;stroke-linecap:round"/>
  <g transform="translate(-535,-306) rotate(0)" > <text font-size="83.3333333333" fill="#800" font-family="monospace"  >
   1
  </text> </g> 
  <g transform="translate(-382,-265) rotate(0)" > <text font-size="83.3333333333" fill="#088" font-family="monospace"  >
   VDDIO
  </text> </g> 
  <circle cx="-600" cy="-300" r="10"
    style="fill:none;stroke:#800;stroke-width:2"  />
  <line x1="-600" y1="-200" x2="-400" y2="-200" style="stroke:#800;stroke-width:10;stroke-opacity:1.000000;stroke-linecap:round"/>
  <g transform="translate(-535,-206) rotate(0)" > <text font-size="83.3333333333" fill="#800" font-family="monospace"  >
   2
  </text> </g> 
  <g transform="translate(-382,-165) rotate(0)" > <text font-size="83.3333333333" fill="#088" font-family="monospace"  >
   SCL
  </text> </g> 
  <circle cx="-600" cy="-200" r="10"
    style="fill:none;stroke:#800;stroke-width:2"  />
  <line x1="-600" y1="-100" x2="-400" y2="-100" style="stroke:#800;stroke-width:10;stroke-opacity:1.000000;stroke-linecap:round"/>
  <g transform="translate(-535,-106) rotate(0)" > <text font-size="83.3333333333" fill="#800" font-family="monospace"  >
   3
  </text> </g> 
  <g transform="translate(-382,-65) rotate(0)" > <text font-size="83.3333333333" fill="#088" font-family="monospace"  >
   SDA
  </text> </g> 
  <circle cx="-600" cy="-100" r="10"
    style="fill:none;stroke:#800;stroke-width:2"  />
  <line x1="-600" y1="0" x2="-400" y2="0" style="stroke:#800;stroke-width:10;stroke-opacity:1.000000;stroke-linecap:round"/>
  <g transform="translate(-535,-6) rotate(0)" > <text font-size="83.3333333333" fill="#800" font-family="monospace"  >
   4
  </text> </g> 
  <g transform="translate(-382,35) rotate(0)" > <text font-size="83.3333333333" fill="#088" font-family="monospace"  >
   INT2
  </text> </g> 
  <circle cx="-600" cy="0" r="10"
    style="fill:none;stroke:#800;stroke-width:2"  />
  <line x1="-600" y1="100" x2="-400" y2="100" style="stroke:#800;stroke-width:10;stroke-opacity:1.000000;stroke-linecap:round"/>
  <g transform="translate(-535,94) rotate(0)" > <text font-size="83.3333333333" fill="#800" font-family="monospace"  >
   5
  </text> </g> 
  <g transform="translate(-382,135) rotate(0)" > <text font-size="83.3333333333" fill="#088" font-family="monospace"  >
   INT1
  </text> </g> 
  <circle cx="-600" cy="100" r="10"
    style="fill:none;stroke:#800;stroke-width:2"  />
  <line x1="-600" y1="200" x2="-400" y2="200" style="stroke:#800;stroke-width:10;stroke-opacity:1.000000;stroke-linecap:round"/>
  <g transform="translate(-535,194) rotate(0)" > <text font-size="83.3333333333" fill="#800" font-family="monospace"  >
   6
  </text> </g> 
  <g transform="translate(-382,235) rotate(0)" > <text font-size="83.3333333333" fill="#088" font-family="monospace"  >
   C1
  </text> </g> 
  <circle cx="-600" cy="200" r="10"
    style="fill:none;stroke:#800;stroke-width:2"  />
  <line x1="-600" y1="300" x2="-400" y2="300" style="stroke:#800;stroke-width:10;stroke-opacity:1.000000;stroke-linecap:round"/>
  <g transform="translate(-535,294) rotate(0)" > <text font-size="83.3333333333" fill="#800" font-family="monospace"  >
   7
  </text> </g> 
  <g transform="translate(-382,335) rotate(0)" > <text font-size="83.3333333333" fill="#088" font-family="monospace"  >
   GND
  </text> </g> 
  <circle cx="-600" cy="300" r="10"
    style="fill:none;stroke:#800;stroke-width:2"  />
  <line x1="600" y1="300" x2="400" y2="300" style="stroke:#800;stroke-width:10;stroke-opacity:1.000000;stroke-linecap:round"/>
  <g transform="translate(464,294) rotate(0)" > <text font-size="83.3333333333" fill="#800" font-family="monospace"  >
   8
  </text> </g> 
  <g transform="translate(9,335) rotate(0)" > <text font-size="83.3333333333" fill="#088" font-family="monospace"  >
   RES(NC)
  </text> </g> 
  <circle cx="600" cy="300" r="10"
    style="fill:none;stroke:#800;stroke-width:2"  />
  <line x1="600" y1="200" x2="400" y2="200" style="stroke:#800;stroke-width:10;stroke-opacity:1.000000;stroke-linecap:round"/>
  <g transform="translate(464,194) rotate(0)" > <text font-size="83.3333333333" fill="#800" font-family="monospace"  >
   9
  </text> </g> 
  <g transform="translate(159,235) rotate(0)" > <text font-size="83.3333333333" fill="#088" font-family="monospace"  >
   DRDY
  </text> </g> 
  <circle cx="600" cy="200" r="10"
    style="fill:none;stroke:#800;stroke-width:2"  />
  <line x1="600" y1="100" x2="400" y2="100" style="stroke:#800;stroke-width:10;stroke-opacity:1.000000;stroke-linecap:round"/>
  <g transform="translate(429,94) rotate(0)" > <text font-size="83.3333333333" fill="#800" font-family="monospace"  >
   10
  </text> </g> 
  <g transform="translate(-40,135) rotate(0)" > <text font-size="83.3333333333" fill="#088" font-family="monospace"  >
   RES(GND)
  </text> </g> 
  <circle cx="600" cy="100" r="10"
    style="fill:none;stroke:#800;stroke-width:2"  />
  <line x1="600" y1="0" x2="400" y2="0" style="stroke:#800;stroke-width:10;stroke-opacity:1.000000;stroke-linecap:round"/>
  <g transform="translate(429,-6) rotate(0)" > <text font-size="83.3333333333" fill="#800" font-family="monospace"  >
   11
  </text> </g> 
  <g transform="translate(-40,35) rotate(0)" > <text font-size="83.3333333333" fill="#088" font-family="monospace"  >
   RES(GND)
  </text> </g> 
  <circle cx="600" cy="0" r="10"
    style="fill:none;stroke:#800;stroke-width:2"  />
  <line x1="600" y1="-100" x2="400" y2="-100" style="stroke:#800;stroke-width:10;stroke-opacity:1.000000;stroke-linecap:round"/>
  <g transform="translate(429,-106) rotate(0)" > <text font-size="83.3333333333" fill="#800" font-family="monospace"  >
   12
  </text> </g> 
  <g transform="translate(159,-65) rotate(0)" > <text font-size="83.3333333333" fill="#088" font-family="monospace"  >
   SETP
  </text> </g> 
  <circle cx="600" cy="-100" r="10"
    style="fill:none;stroke:#800;stroke-width:2"  />
  <line x1="600" y1="-200" x2="400" y2="-200" style="stroke:#800;stroke-width:10;stroke-opacity:1.000000;stroke-linecap:round"/>
  <g transform="translate(429,-206) rotate(0)" > <text font-size="83.3333333333" fill="#800" font-family="monospace"  >
   13
  </text> </g> 
  <g transform="translate(159,-165) rotate(0)" > <text font-size="83.3333333333" fill="#088" font-family="monospace"  >
   SETC
  </text> </g> 
  <circle cx="600" cy="-200" r="10"
    style="fill:none;stroke:#800;stroke-width:2"  />
  <line x1="600" y1="-300" x2="400" y2="-300" style="stroke:#800;stroke-width:10;stroke-opacity:1.000000;stroke-linecap:round"/>
  <g transform="translate(429,-306) rotate(0)" > <text font-size="83.3333333333" fill="#800" font-family="monospace"  >
   14
  </text> </g> 
  <g transform="translate(209,-265) rotate(0)" > <text font-size="83.3333333333" fill="#088" font-family="monospace"  >
   VDD
  </text> </g> 
  <circle cx="600" cy="-300" r="10"
    style="fill:none;stroke:#800;stroke-width:2"  />
 </g>
</svg>
