<?xml version="1.0"?>
<svg height="315" width="290"  >
 <g style="fill-opacity:1.0; stroke:black;
  stroke-width:1;" transform=" translate( 145.0,157.625 ) scale( 0.15,0.15 )">
  <g transform="translate(-35,-415) rotate(0)" > <text font-size="116.666666667" fill="#088" font-family="monospace"  >
   U
  </text> </g> 
  <g transform="translate(-175,485) rotate(0)" > <text font-size="116.666666667" fill="#088" font-family="monospace"  >
   LM723
  </text> </g> 
  <rect x="-300" y="-400" height="800"
    width="600" style="fill:none;stroke:#800;stroke-width:10" />
  <line x1="600" y1="200" x2="300" y2="200" style="stroke:#800;stroke-width:10;stroke-opacity:1.000000;stroke-linecap:round"/>
  <g transform="translate(407,194) rotate(0)" > <text font-size="100.0" fill="#800" font-family="monospace"  >
   2
  </text> </g> 
  <g transform="translate(80,240) rotate(0)" > <text font-size="100.0" fill="#088" font-family="monospace"  >
   LIM
  </text> </g> 
  <circle cx="600" cy="200" r="10"
    style="fill:none;stroke:#800;stroke-width:2"  />
  <line x1="600" y1="300" x2="300" y2="300" style="stroke:#800;stroke-width:10;stroke-opacity:1.000000;stroke-linecap:round"/>
  <g transform="translate(407,294) rotate(0)" > <text font-size="100.0" fill="#800" font-family="monospace"  >
   3
  </text> </g> 
  <g transform="translate(80,340) rotate(0)" > <text font-size="100.0" fill="#088" font-family="monospace"  >
   SEN
  </text> </g> 
  <circle cx="600" cy="300" r="10"
    style="fill:none;stroke:#800;stroke-width:2"  />
  <line x1="-600" y1="-100" x2="-300" y2="-100" style="stroke:#800;stroke-width:10;stroke-opacity:1.000000;stroke-linecap:round"/>
  <g transform="translate(-492,-106) rotate(0)" > <text font-size="100.0" fill="#800" font-family="monospace"  >
   4
  </text> </g> 
  <g transform="translate(-282,-60) rotate(0)" > <text font-size="100.0" fill="#088" font-family="monospace"  >
   -
  </text> </g> 
  <circle cx="-600" cy="-100" r="10"
    style="fill:none;stroke:#800;stroke-width:2"  />
  <line x1="-600" y1="0" x2="-300" y2="0" style="stroke:#800;stroke-width:10;stroke-opacity:1.000000;stroke-linecap:round"/>
  <g transform="translate(-492,-6) rotate(0)" > <text font-size="100.0" fill="#800" font-family="monospace"  >
   5
  </text> </g> 
  <g transform="translate(-282,40) rotate(0)" > <text font-size="100.0" fill="#088" font-family="monospace"  >
   +
  </text> </g> 
  <circle cx="-600" cy="0" r="10"
    style="fill:none;stroke:#800;stroke-width:2"  />
  <line x1="-600" y1="200" x2="-300" y2="200" style="stroke:#800;stroke-width:10;stroke-opacity:1.000000;stroke-linecap:round"/>
  <g transform="translate(-492,194) rotate(0)" > <text font-size="100.0" fill="#800" font-family="monospace"  >
   6
  </text> </g> 
  <g transform="translate(-282,240) rotate(0)" > <text font-size="100.0" fill="#088" font-family="monospace"  >
   REF
  </text> </g> 
  <circle cx="-600" cy="200" r="10"
    style="fill:none;stroke:#800;stroke-width:2"  />
  <line x1="-600" y1="300" x2="-300" y2="300" style="stroke:#800;stroke-width:10;stroke-opacity:1.000000;stroke-linecap:round"/>
  <g transform="translate(-492,294) rotate(0)" > <text font-size="100.0" fill="#800" font-family="monospace"  >
   7
  </text> </g> 
  <g transform="translate(-282,340) rotate(0)" > <text font-size="100.0" fill="#088" font-family="monospace"  >
   V-
  </text> </g> 
  <circle cx="-600" cy="300" r="10"
    style="fill:none;stroke:#800;stroke-width:2"  />
  <line x1="600" y1="100" x2="300" y2="100" style="stroke:#800;stroke-width:10;stroke-opacity:1.000000;stroke-linecap:round"/>
  <g transform="translate(407,94) rotate(0)" > <text font-size="100.0" fill="#800" font-family="monospace"  >
   9
  </text> </g> 
  <g transform="translate(140,140) rotate(0)" > <text font-size="100.0" fill="#088" font-family="monospace"  >
   VZ
  </text> </g> 
  <circle cx="600" cy="100" r="10"
    style="fill:none;stroke:#800;stroke-width:2"  />
  <line x1="600" y1="-100" x2="300" y2="-100" style="stroke:#800;stroke-width:10;stroke-opacity:1.000000;stroke-linecap:round"/>
  <g transform="translate(365,-106) rotate(0)" > <text font-size="100.0" fill="#800" font-family="monospace"  >
   10
  </text> </g> 
  <g transform="translate(140,-60) rotate(0)" > <text font-size="100.0" fill="#088" font-family="monospace"  >
   VS
  </text> </g> 
  <circle cx="600" cy="-100" r="10"
    style="fill:none;stroke:#800;stroke-width:2"  />
  <line x1="600" y1="-200" x2="300" y2="-200" style="stroke:#800;stroke-width:10;stroke-opacity:1.000000;stroke-linecap:round"/>
  <g transform="translate(365,-206) rotate(0)" > <text font-size="100.0" fill="#800" font-family="monospace"  >
   11
  </text> </g> 
  <g transform="translate(140,-160) rotate(0)" > <text font-size="100.0" fill="#088" font-family="monospace"  >
   VC
  </text> </g> 
  <circle cx="600" cy="-200" r="10"
    style="fill:none;stroke:#800;stroke-width:2"  />
  <line x1="600" y1="-300" x2="300" y2="-300" style="stroke:#800;stroke-width:10;stroke-opacity:1.000000;stroke-linecap:round"/>
  <g transform="translate(365,-306) rotate(0)" > <text font-size="100.0" fill="#800" font-family="monospace"  >
   12
  </text> </g> 
  <g transform="translate(140,-260) rotate(0)" > <text font-size="100.0" fill="#088" font-family="monospace"  >
   V+
  </text> </g> 
  <circle cx="600" cy="-300" r="10"
    style="fill:none;stroke:#800;stroke-width:2"  />
  <line x1="-600" y1="-300" x2="-300" y2="-300" style="stroke:#800;stroke-width:10;stroke-opacity:1.000000;stroke-linecap:round"/>
  <g transform="translate(-535,-306) rotate(0)" > <text font-size="100.0" fill="#800" font-family="monospace"  >
   13
  </text> </g> 
  <g transform="translate(-282,-260) rotate(0)" > <text font-size="100.0" fill="#088" font-family="monospace"  >
   FC
  </text> </g> 
  <circle cx="-600" cy="-300" r="10"
    style="fill:none;stroke:#800;stroke-width:2"  />
 </g>
</svg>
