<?xml version="1.0"?>
<svg height="340" width="340"  >
 <g style="fill-opacity:1.0; stroke:black;
  stroke-width:1;" transform=" translate( 170.0,170.0 ) scale( 0.15,0.15 )">
  <g transform="translate(70,-220) rotate(0)" > <text font-size="100.0" fill="#088" font-family="monospace"  >
   U
  </text> </g> 
  <g transform="translate(-130,280) rotate(0)" > <text font-size="100.0" fill="#088" font-family="monospace"  >
   MAX874
  </text> </g> 
  <rect x="-350" y="-200" height="400"
    width="700" style="fill:none;stroke:#800;stroke-width:10" />
  <line x1="-650" y1="-100" x2="-350" y2="-100" style="stroke:#800;stroke-width:10;stroke-opacity:1.000000;stroke-linecap:round"/>
  <g transform="translate(-535,-106) rotate(0)" > <text font-size="83.3333333333" fill="#800" font-family="monospace"  >
   2
  </text> </g> 
  <g transform="translate(-332,-65) rotate(0)" > <text font-size="83.3333333333" fill="#088" font-family="monospace"  >
   VIN
  </text> </g> 
  <circle cx="-650" cy="-100" r="10"
    style="fill:none;stroke:#800;stroke-width:2"  />
  <line x1="650" y1="100" x2="350" y2="100" style="stroke:#800;stroke-width:10;stroke-opacity:1.000000;stroke-linecap:round"/>
  <g transform="translate(464,94) rotate(0)" > <text font-size="83.3333333333" fill="#800" font-family="monospace"  >
   3
  </text> </g> 
  <g transform="translate(70,130) rotate(0)" > <text font-size="66.6666666667" fill="#088" font-family="monospace"  >
   Temper
  </text> </g> 
  <circle cx="650" cy="100" r="10"
    style="fill:none;stroke:#800;stroke-width:2"  />
  <line x1="0" y1="300" x2="0" y2="200" style="stroke:#800;stroke-width:10;stroke-opacity:1.000000;stroke-linecap:round"/>
  <g transform="translate(-12,262) rotate(-90)" > <text font-size="83.3333333333" fill="#800" font-family="monospace"  >
   4
  </text> </g> 
  <g transform="translate(3,175) rotate(-90)" > <text font-size="50.0" fill="#088" font-family="monospace"  >
   GND
  </text> </g> 
  <circle cx="0" cy="300" r="10"
    style="fill:none;stroke:#800;stroke-width:2"  />
  <line x1="-650" y1="100" x2="-350" y2="100" style="stroke:#800;stroke-width:10;stroke-opacity:1.000000;stroke-linecap:round"/>
  <g transform="translate(-535,94) rotate(0)" > <text font-size="83.3333333333" fill="#800" font-family="monospace"  >
   5
  </text> </g> 
  <g transform="translate(-332,135) rotate(0)" > <text font-size="83.3333333333" fill="#088" font-family="monospace"  >
   TRIM
  </text> </g> 
  <circle cx="-650" cy="100" r="10"
    style="fill:none;stroke:#800;stroke-width:2"  />
  <line x1="650" y1="-100" x2="350" y2="-100" style="stroke:#800;stroke-width:10;stroke-opacity:1.000000;stroke-linecap:round"/>
  <g transform="translate(464,-106) rotate(0)" > <text font-size="83.3333333333" fill="#800" font-family="monospace"  >
   6
  </text> </g> 
  <g transform="translate(109,-65) rotate(0)" > <text font-size="83.3333333333" fill="#088" font-family="monospace"  >
   VOUT
  </text> </g> 
  <circle cx="650" cy="-100" r="10"
    style="fill:none;stroke:#800;stroke-width:2"  />
 </g>
</svg>
