<?xml version="1.0"?>
<svg height="380" width="380"  >
 <g style="fill-opacity:1.0; stroke:black;
  stroke-width:1;" transform=" translate( 190.0,190.0 ) scale( 0.15,0.15 )">
  <g transform="translate(-30,-420) rotate(0)" > <text font-size="100.0" fill="#088" font-family="monospace"  >
   U
  </text> </g> 
  <g transform="translate(-210,480) rotate(0)" > <text font-size="100.0" fill="#088" font-family="monospace"  >
   MIC2026
  </text> </g> 
  <rect x="-500" y="-400" height="800"
    width="1000" style="fill:none;stroke:#800;stroke-width:10" />
  <line x1="-800" y1="-300" x2="-500" y2="-300" style="stroke:#800;stroke-width:10;stroke-opacity:1.000000;stroke-linecap:round"/>
  <g transform="translate(-692,-306) rotate(0)" > <text font-size="100.0" fill="#800" font-family="monospace"  >
   1
  </text> </g> 
  <g transform="translate(-482,-260) rotate(0)" > <text font-size="100.0" fill="#088" font-family="monospace"  >
   ENA
  </text> </g> 
  <circle cx="-800" cy="-300" r="10"
    style="fill:none;stroke:#800;stroke-width:2"  />
  <line x1="-800" y1="-100" x2="-500" y2="-100" style="stroke:#800;stroke-width:10;stroke-opacity:1.000000;stroke-linecap:round"/>
  <g transform="translate(-692,-106) rotate(0)" > <text font-size="100.0" fill="#800" font-family="monospace"  >
   2
  </text> </g> 
  <g transform="translate(-482,-60) rotate(0)" > <text font-size="100.0" fill="#088" font-family="monospace"  >
   FLGA
  </text> </g> 
  <circle cx="-800" cy="-100" r="10"
    style="fill:none;stroke:#800;stroke-width:2"  />
  <line x1="-800" y1="100" x2="-500" y2="100" style="stroke:#800;stroke-width:10;stroke-opacity:1.000000;stroke-linecap:round"/>
  <g transform="translate(-692,94) rotate(0)" > <text font-size="100.0" fill="#800" font-family="monospace"  >
   3
  </text> </g> 
  <g transform="translate(-482,140) rotate(0)" > <text font-size="100.0" fill="#088" font-family="monospace"  >
   FLGB
  </text> </g> 
  <circle cx="-800" cy="100" r="10"
    style="fill:none;stroke:#800;stroke-width:2"  />
  <line x1="-800" y1="300" x2="-500" y2="300" style="stroke:#800;stroke-width:10;stroke-opacity:1.000000;stroke-linecap:round"/>
  <g transform="translate(-692,294) rotate(0)" > <text font-size="100.0" fill="#800" font-family="monospace"  >
   4
  </text> </g> 
  <g transform="translate(-482,340) rotate(0)" > <text font-size="100.0" fill="#088" font-family="monospace"  >
   ENB
  </text> </g> 
  <circle cx="-800" cy="300" r="10"
    style="fill:none;stroke:#800;stroke-width:2"  />
  <line x1="800" y1="100" x2="500" y2="100" style="stroke:#800;stroke-width:10;stroke-opacity:1.000000;stroke-linecap:round"/>
  <g transform="translate(607,94) rotate(0)" > <text font-size="100.0" fill="#800" font-family="monospace"  >
   5
  </text> </g> 
  <g transform="translate(220,140) rotate(0)" > <text font-size="100.0" fill="#088" font-family="monospace"  >
   OUTB
  </text> </g> 
  <circle cx="800" cy="100" r="10"
    style="fill:none;stroke:#800;stroke-width:2"  />
  <line x1="800" y1="300" x2="500" y2="300" style="stroke:#800;stroke-width:10;stroke-opacity:1.000000;stroke-linecap:round"/>
  <g transform="translate(607,294) rotate(0)" > <text font-size="100.0" fill="#800" font-family="monospace"  >
   6
  </text> </g> 
  <g transform="translate(280,340) rotate(0)" > <text font-size="100.0" fill="#088" font-family="monospace"  >
   GND
  </text> </g> 
  <circle cx="800" cy="300" r="10"
    style="fill:none;stroke:#800;stroke-width:2"  />
  <line x1="800" y1="-300" x2="500" y2="-300" style="stroke:#800;stroke-width:10;stroke-opacity:1.000000;stroke-linecap:round"/>
  <g transform="translate(607,-306) rotate(0)" > <text font-size="100.0" fill="#800" font-family="monospace"  >
   7
  </text> </g> 
  <g transform="translate(340,-260) rotate(0)" > <text font-size="100.0" fill="#088" font-family="monospace"  >
   IN
  </text> </g> 
  <circle cx="800" cy="-300" r="10"
    style="fill:none;stroke:#800;stroke-width:2"  />
  <line x1="800" y1="-100" x2="500" y2="-100" style="stroke:#800;stroke-width:10;stroke-opacity:1.000000;stroke-linecap:round"/>
  <g transform="translate(614,-106) rotate(0)" > <text font-size="83.3333333333" fill="#800" font-family="monospace"  >
   8
  </text> </g> 
  <g transform="translate(260,-65) rotate(0)" > <text font-size="83.3333333333" fill="#088" font-family="monospace"  >
   OUTA
  </text> </g> 
  <circle cx="800" cy="-100" r="10"
    style="fill:none;stroke:#800;stroke-width:2"  />
 </g>
</svg>
