<?xml version="1.0"?>
<svg height="267" width="242"  >
 <g style="fill-opacity:1.0; stroke:black;
  stroke-width:1;" transform=" translate( 121.25,133.5 ) scale( 0.15,0.15 )">
  <g transform="translate(120,-270) rotate(0)" > <text font-size="100.0" fill="#088" font-family="monospace"  >
   U
  </text> </g> 
  <g transform="translate(60,230) rotate(0)" > <text font-size="100.0" fill="#088" font-family="monospace"  >
   TPS769XX
  </text> </g> 
  <rect x="-250" y="-200" height="300"
    width="500" style="fill:none;stroke:#800;stroke-width:10" />
  <line x1="-450" y1="-150" x2="-250" y2="-150" style="stroke:#800;stroke-width:10;stroke-opacity:1.000000;stroke-linecap:round"/>
  <g transform="translate(-385,-156) rotate(0)" > <text font-size="83.3333333333" fill="#800" font-family="monospace"  >
   1
  </text> </g> 
  <g transform="translate(-232,-115) rotate(0)" > <text font-size="83.3333333333" fill="#088" font-family="monospace"  >
   IN
  </text> </g> 
  <circle cx="-450" cy="-150" r="10"
    style="fill:none;stroke:#800;stroke-width:2"  />
  <line x1="0" y1="300" x2="0" y2="100" style="stroke:#800;stroke-width:10;stroke-opacity:1.000000;stroke-linecap:round"/>
  <g transform="translate(-12,212) rotate(-90)" > <text font-size="83.3333333333" fill="#800" font-family="monospace"  >
   2
  </text> </g> 
  <g transform="translate(6,58) rotate(-90)" > <text font-size="83.3333333333" fill="#088" font-family="monospace"  >
   GND
  </text> </g> 
  <circle cx="0" cy="300" r="10"
    style="fill:none;stroke:#800;stroke-width:2"  />
  <line x1="-330" y1="0" x2="-330" y2="-40" style="stroke:#800;stroke-width:10;stroke-opacity:1.000000;stroke-linecap:round"/>
  <line x1="-330" y1="-40" x2="-250" y2="0" style="stroke:#800;stroke-width:10;stroke-opacity:1.000000;stroke-linecap:round"/>
  <line x1="-450" y1="0" x2="-250" y2="0" style="stroke:#800;stroke-width:10;stroke-opacity:1.000000;stroke-linecap:round"/>
  <g transform="translate(-385,-6) rotate(0)" > <text font-size="83.3333333333" fill="#800" font-family="monospace"  >
   3
  </text> </g> 
  <g transform="translate(-232,35) rotate(0)" > <text font-size="83.3333333333" fill="#088" font-family="monospace"  >
   EN
  </text> </g> 
  <circle cx="-450" cy="0" r="10"
    style="fill:none;stroke:#800;stroke-width:2"  />
  <line x1="450" y1="0" x2="250" y2="0" style="stroke:#800;stroke-width:10;stroke-opacity:1.000000;stroke-linecap:round"/>
  <g transform="translate(314,-6) rotate(0)" > <text font-size="83.3333333333" fill="#800" font-family="monospace"  >
   4
  </text> </g> 
  <g transform="translate(60,25) rotate(0)" > <text font-size="50.0" fill="#088" font-family="monospace"  >
   NC/FB
  </text> </g> 
  <circle cx="450" cy="0" r="10"
    style="fill:none;stroke:#800;stroke-width:2"  />
  <line x1="450" y1="-150" x2="250" y2="-150" style="stroke:#800;stroke-width:10;stroke-opacity:1.000000;stroke-linecap:round"/>
  <g transform="translate(314,-156) rotate(0)" > <text font-size="83.3333333333" fill="#800" font-family="monospace"  >
   5
  </text> </g> 
  <g transform="translate(59,-115) rotate(0)" > <text font-size="83.3333333333" fill="#088" font-family="monospace"  >
   OUT
  </text> </g> 
  <circle cx="450" cy="-150" r="10"
    style="fill:none;stroke:#800;stroke-width:2"  />
 </g>
</svg>
