<?xml version="1.0"?>
<svg height="168" width="147"  >
 <g style="fill-opacity:1.0; stroke:black;
  stroke-width:1;" transform=" translate( 73.75,84.475 ) scale( 0.15,0.15 )">
  <g transform="translate(60,-160) rotate(0)" > <text font-size="66.6666666667" fill="#088" font-family="monospace"  >
   U
  </text> </g> 
  <g transform="translate(-120,193) rotate(0)" > <text font-size="66.6666666667" fill="#088" font-family="monospace"  >
   NSL-32
  </text> </g> 
  <circle cx="100" cy="0" r="80"
    style="fill:none;stroke:#800;stroke-width:10"  />
  <rect x="-200" y="-140" height="280"
    width="400" style="fill:none;stroke:#800;stroke-width:10" />
  <line x1="-80" y1="40" x2="-160" y2="40" style="stroke:#800;stroke-width:10;stroke-opacity:1.000000;stroke-linecap:round"/>
  <line x1="-160" y1="40" x2="-160" y2="40" style="stroke:#800;stroke-width:10;stroke-opacity:1.000000;stroke-linecap:round"/>
  <line x1="-80" y1="20" x2="0" y2="0" style="stroke:#800;stroke-width:10;stroke-opacity:1.000000;stroke-linecap:round"/>
  <line x1="0" y1="0" x2="0" y2="0" style="stroke:#800;stroke-width:10;stroke-opacity:1.000000;stroke-linecap:round"/>
  <line x1="-80" y1="-20" x2="0" y2="-40" style="stroke:#800;stroke-width:10;stroke-opacity:1.000000;stroke-linecap:round"/>
  <line x1="0" y1="-40" x2="0" y2="-40" style="stroke:#800;stroke-width:10;stroke-opacity:1.000000;stroke-linecap:round"/>
  <line x1="100" y1="100" x2="200" y2="100" style="stroke:#800;stroke-width:10;stroke-opacity:1.000000;stroke-linecap:round"/>
  <line x1="200" y1="100" x2="200" y2="100" style="stroke:#800;stroke-width:10;stroke-opacity:1.000000;stroke-linecap:round"/>
  <line x1="100" y1="-100" x2="200" y2="-100" style="stroke:#800;stroke-width:10;stroke-opacity:1.000000;stroke-linecap:round"/>
  <line x1="200" y1="-100" x2="200" y2="-100" style="stroke:#800;stroke-width:10;stroke-opacity:1.000000;stroke-linecap:round"/>
  <line x1="-120" y1="40" x2="-120" y2="100" style="stroke:#800;stroke-width:10;stroke-opacity:1.000000;stroke-linecap:round"/>
  <line x1="-120" y1="100" x2="-200" y2="100" style="stroke:#800;stroke-width:10;stroke-opacity:1.000000;stroke-linecap:round"/>
  <line x1="-200" y1="100" x2="-200" y2="100" style="stroke:#800;stroke-width:10;stroke-opacity:1.000000;stroke-linecap:round"/>
  <line x1="-40" y1="0" x2="0" y2="0" style="stroke:#800;stroke-width:10;stroke-opacity:1.000000;stroke-linecap:round"/>
  <line x1="0" y1="0" x2="-30" y2="20" style="stroke:#800;stroke-width:10;stroke-opacity:1.000000;stroke-linecap:round"/>
  <line x1="-30" y1="20" x2="-30" y2="20" style="stroke:#800;stroke-width:10;stroke-opacity:1.000000;stroke-linecap:round"/>
  <line x1="-40" y1="-40" x2="0" y2="-40" style="stroke:#800;stroke-width:10;stroke-opacity:1.000000;stroke-linecap:round"/>
  <line x1="0" y1="-40" x2="-30" y2="-20" style="stroke:#800;stroke-width:10;stroke-opacity:1.000000;stroke-linecap:round"/>
  <line x1="-30" y1="-20" x2="-30" y2="-20" style="stroke:#800;stroke-width:10;stroke-opacity:1.000000;stroke-linecap:round"/>
  <line x1="-120" y1="-40" x2="-120" y2="-100" style="stroke:#800;stroke-width:10;stroke-opacity:1.000000;stroke-linecap:round"/>
  <line x1="-120" y1="-100" x2="-200" y2="-100" style="stroke:#800;stroke-width:10;stroke-opacity:1.000000;stroke-linecap:round"/>
  <line x1="-200" y1="-100" x2="-200" y2="-100" style="stroke:#800;stroke-width:10;stroke-opacity:1.000000;stroke-linecap:round"/>
  <line x1="-200" y1="-100" x2="-200" y2="-100" style="stroke:#800;stroke-width:10;stroke-opacity:1.000000;stroke-linecap:round"/>
<polygon points=" -80,-40 -160,-40 -120,40 -80,-40 -80,-40 -80,-40" 
style="fill:#800;stroke:#800;stroke-width:10"/>
  <line x1="100" y1="-100" x2="100" y2="-80" style="stroke:#800;stroke-width:10;stroke-opacity:1.000000;stroke-linecap:round"/>
  <line x1="100" y1="-80" x2="80" y2="-60" style="stroke:#800;stroke-width:10;stroke-opacity:1.000000;stroke-linecap:round"/>
  <line x1="80" y1="-60" x2="120" y2="-20" style="stroke:#800;stroke-width:10;stroke-opacity:1.000000;stroke-linecap:round"/>
  <line x1="120" y1="-20" x2="80" y2="20" style="stroke:#800;stroke-width:10;stroke-opacity:1.000000;stroke-linecap:round"/>
  <line x1="80" y1="20" x2="120" y2="60" style="stroke:#800;stroke-width:10;stroke-opacity:1.000000;stroke-linecap:round"/>
  <line x1="120" y1="60" x2="100" y2="80" style="stroke:#800;stroke-width:10;stroke-opacity:1.000000;stroke-linecap:round"/>
  <line x1="100" y1="80" x2="100" y2="100" style="stroke:#800;stroke-width:10;stroke-opacity:1.000000;stroke-linecap:round"/>
  <line x1="100" y1="100" x2="100" y2="100" style="stroke:#800;stroke-width:10;stroke-opacity:1.000000;stroke-linecap:round"/>
  <line x1="100" y1="100" x2="100" y2="100" style="stroke:#800;stroke-width:10;stroke-opacity:1.000000;stroke-linecap:round"/>
  <line x1="-350" y1="-100" x2="-150" y2="-100" style="stroke:#800;stroke-width:10;stroke-opacity:1.000000;stroke-linecap:round"/>
  <g transform="translate(-271,-106) rotate(0)" > <text font-size="50.0" fill="#800" font-family="monospace"  >
   1
  </text> </g> 
  <g transform="translate(-132,-70) rotate(0)" > <text font-size="66.6666666667" fill="#088" font-family="monospace"  >
   A
  </text> </g> 
  <circle cx="-350" cy="-100" r="10"
    style="fill:none;stroke:#800;stroke-width:2"  />
  <line x1="-350" y1="100" x2="-150" y2="100" style="stroke:#800;stroke-width:10;stroke-opacity:1.000000;stroke-linecap:round"/>
  <g transform="translate(-271,94) rotate(0)" > <text font-size="50.0" fill="#800" font-family="monospace"  >
   2
  </text> </g> 
  <g transform="translate(-132,130) rotate(0)" > <text font-size="66.6666666667" fill="#088" font-family="monospace"  >
   K
  </text> </g> 
  <circle cx="-350" cy="100" r="10"
    style="fill:none;stroke:#800;stroke-width:2"  />
  <line x1="400" y1="100" x2="200" y2="100" style="stroke:#800;stroke-width:10;stroke-opacity:1.000000;stroke-linecap:round"/>
  <g transform="translate(278,94) rotate(0)" > <text font-size="50.0" fill="#800" font-family="monospace"  >
   3
  </text> </g> 
  <g transform="translate(120,130) rotate(0)" > <text font-size="66.6666666667" fill="#088" font-family="monospace"  >
   R
  </text> </g> 
  <circle cx="400" cy="100" r="10"
    style="fill:none;stroke:#800;stroke-width:2"  />
  <line x1="400" y1="-100" x2="200" y2="-100" style="stroke:#800;stroke-width:10;stroke-opacity:1.000000;stroke-linecap:round"/>
  <g transform="translate(278,-106) rotate(0)" > <text font-size="50.0" fill="#800" font-family="monospace"  >
   4
  </text> </g> 
  <g transform="translate(120,-70) rotate(0)" > <text font-size="66.6666666667" fill="#088" font-family="monospace"  >
   R
  </text> </g> 
  <circle cx="400" cy="-100" r="10"
    style="fill:none;stroke:#800;stroke-width:2"  />
 </g>
</svg>
