<?xml version="1.0"?>
<svg height="470" width="432"  >
 <g style="fill-opacity:1.0; stroke:black;
  stroke-width:1;" transform=" translate( 216.25,235.375 ) scale( 0.15,0.15 )">
  <g transform="translate(420,-670) rotate(0)" > <text font-size="100.0" fill="#088" font-family="monospace"  >
   U
  </text> </g> 
  <g transform="translate(180,780) rotate(0)" > <text font-size="100.0" fill="#088" font-family="monospace"  >
   SSM-2018T
  </text> </g> 
  <g transform="translate(-60,30) rotate(0)" > <text font-size="100.0" fill="#800" font-family="monospace"  >
   V.
  </text> </g> 
  <rect x="-650" y="-650" height="1300"
    width="1400" style="fill:none;stroke:#800;stroke-width:10" />
  <rect x="-150" y="-550" height="1100"
    width="350" style="fill:none;stroke:#800;stroke-width:10" />
  <line x1="-200" y1="200" x2="-150" y2="200" style="stroke:#800;stroke-width:10;stroke-opacity:1.000000;stroke-linecap:round"/>
  <line x1="200" y1="450" x2="300" y2="450" style="stroke:#800;stroke-width:10;stroke-opacity:1.000000;stroke-linecap:round"/>
  <line x1="200" y1="250" x2="300" y2="250" style="stroke:#800;stroke-width:10;stroke-opacity:1.000000;stroke-linecap:round"/>
  <line x1="200" y1="-450" x2="300" y2="-450" style="stroke:#800;stroke-width:10;stroke-opacity:1.000000;stroke-linecap:round"/>
  <line x1="300" y1="-250" x2="200" y2="-250" style="stroke:#800;stroke-width:10;stroke-opacity:1.000000;stroke-linecap:round"/>
  <line x1="250" y1="450" x2="250" y2="600" style="stroke:#800;stroke-width:10;stroke-opacity:1.000000;stroke-linecap:round"/>
  <line x1="250" y1="600" x2="600" y2="600" style="stroke:#800;stroke-width:10;stroke-opacity:1.000000;stroke-linecap:round"/>
  <line x1="250" y1="-250" x2="250" y2="-100" style="stroke:#800;stroke-width:10;stroke-opacity:1.000000;stroke-linecap:round"/>
  <line x1="250" y1="-100" x2="600" y2="-100" style="stroke:#800;stroke-width:10;stroke-opacity:1.000000;stroke-linecap:round"/>
  <line x1="-600" y1="0" x2="-200" y2="200" style="stroke:#800;stroke-width:10;stroke-opacity:1.000000;stroke-linecap:round"/>
  <line x1="-200" y1="200" x2="-600" y2="400" style="stroke:#800;stroke-width:10;stroke-opacity:1.000000;stroke-linecap:round"/>
  <line x1="-600" y1="400" x2="-600" y2="0" style="stroke:#800;stroke-width:10;stroke-opacity:1.000000;stroke-linecap:round"/>
  <line x1="300" y1="150" x2="700" y2="350" style="stroke:#800;stroke-width:10;stroke-opacity:1.000000;stroke-linecap:round"/>
  <line x1="700" y1="350" x2="300" y2="550" style="stroke:#800;stroke-width:10;stroke-opacity:1.000000;stroke-linecap:round"/>
  <line x1="300" y1="550" x2="300" y2="150" style="stroke:#800;stroke-width:10;stroke-opacity:1.000000;stroke-linecap:round"/>
  <line x1="300" y1="-550" x2="700" y2="-350" style="stroke:#800;stroke-width:10;stroke-opacity:1.000000;stroke-linecap:round"/>
  <line x1="700" y1="-350" x2="300" y2="-150" style="stroke:#800;stroke-width:10;stroke-opacity:1.000000;stroke-linecap:round"/>
  <line x1="300" y1="-150" x2="300" y2="-550" style="stroke:#800;stroke-width:10;stroke-opacity:1.000000;stroke-linecap:round"/>
  <line x1="-950" y1="-100" x2="-650" y2="-100" style="stroke:#800;stroke-width:10;stroke-opacity:1.000000;stroke-linecap:round"/>
  <g transform="translate(-831,-106) rotate(0)" > <text font-size="75.0" fill="#800" font-family="monospace"  >
   9
  </text> </g> 
  <g transform="translate(-632,-65) rotate(0)" > <text font-size="83.3333333333" fill="#088" font-family="monospace"  >
   Comp3
  </text> </g> 
  <circle cx="-950" cy="-100" r="10"
    style="fill:none;stroke:#800;stroke-width:2"  />
  <line x1="1050" y1="100" x2="750" y2="100" style="stroke:#800;stroke-width:10;stroke-opacity:1.000000;stroke-linecap:round"/>
  <g transform="translate(868,94) rotate(0)" > <text font-size="75.0" fill="#800" font-family="monospace"  >
   1
  </text> </g> 
  <g transform="translate(460,135) rotate(0)" > <text font-size="83.3333333333" fill="#088" font-family="monospace"  >
   +I1-G
  </text> </g> 
  <circle cx="1050" cy="100" r="10"
    style="fill:none;stroke:#800;stroke-width:2"  />
  <line x1="-300" y1="-850" x2="-300" y2="-650" style="stroke:#800;stroke-width:10;stroke-opacity:1.000000;stroke-linecap:round"/>
  <g transform="translate(-311,-738) rotate(-90)" > <text font-size="75.0" fill="#800" font-family="monospace"  >
   2
  </text> </g> 
  <g transform="translate(-293,-508) rotate(-90)" > <text font-size="83.3333333333" fill="#088" font-family="monospace"  >
   V+
  </text> </g> 
  <circle cx="-300" cy="-850" r="10"
    style="fill:none;stroke:#800;stroke-width:2"  />
  <line x1="1050" y1="-100" x2="750" y2="-100" style="stroke:#800;stroke-width:10;stroke-opacity:1.000000;stroke-linecap:round"/>
  <g transform="translate(868,-106) rotate(0)" > <text font-size="75.0" fill="#800" font-family="monospace"  >
   3
  </text> </g> 
  <g transform="translate(560,-65) rotate(0)" > <text font-size="83.3333333333" fill="#088" font-family="monospace"  >
   -Ig
  </text> </g> 
  <circle cx="1050" cy="-100" r="10"
    style="fill:none;stroke:#800;stroke-width:2"  />
  <line x1="1050" y1="600" x2="750" y2="600" style="stroke:#800;stroke-width:10;stroke-opacity:1.000000;stroke-linecap:round"/>
  <g transform="translate(868,594) rotate(0)" > <text font-size="75.0" fill="#800" font-family="monospace"  >
   4
  </text> </g> 
  <g transform="translate(460,635) rotate(0)" > <text font-size="83.3333333333" fill="#088" font-family="monospace"  >
   -I1-G
  </text> </g> 
  <circle cx="1050" cy="600" r="10"
    style="fill:none;stroke:#800;stroke-width:2"  />
  <line x1="-950" y1="-300" x2="-650" y2="-300" style="stroke:#800;stroke-width:10;stroke-opacity:1.000000;stroke-linecap:round"/>
  <g transform="translate(-831,-306) rotate(0)" > <text font-size="75.0" fill="#800" font-family="monospace"  >
   5
  </text> </g> 
  <g transform="translate(-632,-265) rotate(0)" > <text font-size="83.3333333333" fill="#088" font-family="monospace"  >
   Comp1
  </text> </g> 
  <circle cx="-950" cy="-300" r="10"
    style="fill:none;stroke:#800;stroke-width:2"  />
  <line x1="-950" y1="100" x2="-600" y2="100" style="stroke:#800;stroke-width:10;stroke-opacity:1.000000;stroke-linecap:round"/>
  <g transform="translate(-806,94) rotate(0)" > <text font-size="75.0" fill="#800" font-family="monospace"  >
   6
  </text> </g> 
  <g transform="translate(-582,135) rotate(0)" > <text font-size="83.3333333333" fill="#088" font-family="monospace"  >
   +
  </text> </g> 
  <circle cx="-950" cy="100" r="10"
    style="fill:none;stroke:#800;stroke-width:2"  />
  <line x1="-950" y1="300" x2="-600" y2="300" style="stroke:#800;stroke-width:10;stroke-opacity:1.000000;stroke-linecap:round"/>
  <g transform="translate(-806,294) rotate(0)" > <text font-size="75.0" fill="#800" font-family="monospace"  >
   7
  </text> </g> 
  <g transform="translate(-582,335) rotate(0)" > <text font-size="83.3333333333" fill="#088" font-family="monospace"  >
   -
  </text> </g> 
  <circle cx="-950" cy="300" r="10"
    style="fill:none;stroke:#800;stroke-width:2"  />
  <line x1="-950" y1="-200" x2="-650" y2="-200" style="stroke:#800;stroke-width:10;stroke-opacity:1.000000;stroke-linecap:round"/>
  <g transform="translate(-831,-206) rotate(0)" > <text font-size="75.0" fill="#800" font-family="monospace"  >
   8
  </text> </g> 
  <g transform="translate(-632,-165) rotate(0)" > <text font-size="83.3333333333" fill="#088" font-family="monospace"  >
   Comp2
  </text> </g> 
  <circle cx="-950" cy="-200" r="10"
    style="fill:none;stroke:#800;stroke-width:2"  />
  <line x1="-300" y1="850" x2="-300" y2="650" style="stroke:#800;stroke-width:10;stroke-opacity:1.000000;stroke-linecap:round"/>
  <g transform="translate(-311,772) rotate(-90)" > <text font-size="75.0" fill="#800" font-family="monospace"  >
   10
  </text> </g> 
  <g transform="translate(-293,608) rotate(-90)" > <text font-size="83.3333333333" fill="#088" font-family="monospace"  >
   V-
  </text> </g> 
  <circle cx="-300" cy="850" r="10"
    style="fill:none;stroke:#800;stroke-width:2"  />
  <line x1="-950" y1="-400" x2="-650" y2="-400" style="stroke:#800;stroke-width:10;stroke-opacity:1.000000;stroke-linecap:round"/>
  <g transform="translate(-863,-406) rotate(0)" > <text font-size="75.0" fill="#800" font-family="monospace"  >
   11
  </text> </g> 
  <g transform="translate(-632,-365) rotate(0)" > <text font-size="83.3333333333" fill="#088" font-family="monospace"  >
   Vctrl
  </text> </g> 
  <circle cx="-950" cy="-400" r="10"
    style="fill:none;stroke:#800;stroke-width:2"  />
  <line x1="-950" y1="550" x2="-650" y2="550" style="stroke:#800;stroke-width:10;stroke-opacity:1.000000;stroke-linecap:round"/>
  <g transform="translate(-863,544) rotate(0)" > <text font-size="75.0" fill="#800" font-family="monospace"  >
   12
  </text> </g> 
  <g transform="translate(-632,585) rotate(0)" > <text font-size="83.3333333333" fill="#088" font-family="monospace"  >
   MODE
  </text> </g> 
  <circle cx="-950" cy="550" r="10"
    style="fill:none;stroke:#800;stroke-width:2"  />
  <line x1="0" y1="850" x2="0" y2="650" style="stroke:#800;stroke-width:10;stroke-opacity:1.000000;stroke-linecap:round"/>
  <g transform="translate(-11,772) rotate(-90)" > <text font-size="75.0" fill="#800" font-family="monospace"  >
   13
  </text> </g> 
  <g transform="translate(6,608) rotate(-90)" > <text font-size="83.3333333333" fill="#088" font-family="monospace"  >
   GND
  </text> </g> 
  <circle cx="0" cy="850" r="10"
    style="fill:none;stroke:#800;stroke-width:2"  />
  <line x1="1050" y1="-350" x2="700" y2="-350" style="stroke:#800;stroke-width:10;stroke-opacity:1.000000;stroke-linecap:round"/>
  <g transform="translate(811,-356) rotate(0)" > <text font-size="75.0" fill="#800" font-family="monospace"  >
   14
  </text> </g> 
  <g transform="translate(560,-315) rotate(0)" > <text font-size="83.3333333333" fill="#088" font-family="monospace"  >
   Vg
  </text> </g> 
  <circle cx="1050" cy="-350" r="10"
    style="fill:none;stroke:#800;stroke-width:2"  />
  <line x1="-950" y1="-550" x2="-650" y2="-550" style="stroke:#800;stroke-width:10;stroke-opacity:1.000000;stroke-linecap:round"/>
  <g transform="translate(-863,-556) rotate(0)" > <text font-size="75.0" fill="#800" font-family="monospace"  >
   15
  </text> </g> 
  <g transform="translate(-632,-515) rotate(0)" > <text font-size="83.3333333333" fill="#088" font-family="monospace"  >
   BAL
  </text> </g> 
  <circle cx="-950" cy="-550" r="10"
    style="fill:none;stroke:#800;stroke-width:2"  />
  <line x1="1050" y1="350" x2="700" y2="350" style="stroke:#800;stroke-width:10;stroke-opacity:1.000000;stroke-linecap:round"/>
  <g transform="translate(811,344) rotate(0)" > <text font-size="75.0" fill="#800" font-family="monospace"  >
   16
  </text> </g> 
  <g transform="translate(460,385) rotate(0)" > <text font-size="83.3333333333" fill="#088" font-family="monospace"  >
   V1-g
  </text> </g> 
  <circle cx="1050" cy="350" r="10"
    style="fill:none;stroke:#800;stroke-width:2"  />
 </g>
</svg>
