<?xml version="1.0"?>
<svg height="260" width="291"  >
 <g style="fill-opacity:1.0; stroke:black;
  stroke-width:1;" transform=" translate( 145.75,130.0 ) scale( 0.15,0.15 )">
  <g transform="translate(270,-320) rotate(0)" > <text font-size="100.0" fill="#088" font-family="monospace"  >
   U
  </text> </g> 
  <g transform="translate(160,-170) rotate(0)" > <text font-size="100.0" fill="#088" font-family="monospace"  >
   SSM2122P
  </text> </g> 
  <line x1="100" y1="-450" x2="100" y2="-100" style="stroke:#800;stroke-width:10;stroke-opacity:1.000000;stroke-linecap:round"/>
  <g transform="translate(85,-260) rotate(-90)" > <text font-size="100.0" fill="#800" font-family="monospace"  >
   7
  </text> </g> 
  <g transform="translate(103,45) rotate(-90)" > <text font-size="50.0" fill="#088" font-family="monospace"  >
   Iref
  </text> </g> 
  <circle cx="100" cy="-450" r="10"
    style="fill:none;stroke:#800;stroke-width:2"  />
  <line x1="-50" y1="450" x2="-50" y2="175" style="stroke:#800;stroke-width:10;stroke-opacity:1.000000;stroke-linecap:round"/>
  <g transform="translate(-65,327) rotate(-90)" > <text font-size="100.0" fill="#800" font-family="monospace"  >
   8
  </text> </g> 
  <g transform="translate(-46,150) rotate(-90)" > <text font-size="50.0" fill="#088" font-family="monospace"  >
   V-
  </text> </g> 
  <circle cx="-50" cy="450" r="10"
    style="fill:none;stroke:#800;stroke-width:2"  />
  <line x1="50" y1="450" x2="50" y2="125" style="stroke:#800;stroke-width:10;stroke-opacity:1.000000;stroke-linecap:round"/>
  <g transform="translate(35,302) rotate(-90)" > <text font-size="100.0" fill="#800" font-family="monospace"  >
   9
  </text> </g> 
  <g transform="translate(53,100) rotate(-90)" > <text font-size="50.0" fill="#088" font-family="monospace"  >
   GND
  </text> </g> 
  <circle cx="50" cy="450" r="10"
    style="fill:none;stroke:#800;stroke-width:2"  />
  <line x1="-50" y1="-450" x2="-50" y2="-175" style="stroke:#800;stroke-width:10;stroke-opacity:1.000000;stroke-linecap:round"/>
  <g transform="translate(-65,-282) rotate(-90)" > <text font-size="100.0" fill="#800" font-family="monospace"  >
   15
  </text> </g> 
  <g transform="translate(-46,-90) rotate(-90)" > <text font-size="50.0" fill="#088" font-family="monospace"  >
   V+
  </text> </g> 
  <circle cx="-50" cy="-450" r="10"
    style="fill:none;stroke:#800;stroke-width:2"  />
  <line x1="-100" y1="200" x2="-300" y2="-200" style="stroke:#800;stroke-width:10;stroke-opacity:1.000000;stroke-linecap:round"/>
  <line x1="-100" y1="-200" x2="-300" y2="200" style="stroke:#800;stroke-width:10;stroke-opacity:1.000000;stroke-linecap:round"/>
  <line x1="300" y1="250" x2="160" y2="70" style="stroke:#800;stroke-width:10;stroke-opacity:1.000000;stroke-linecap:round"/>
  <line x1="-100" y1="-200" x2="-300" y2="-200" style="stroke:#800;stroke-width:10;stroke-opacity:1.000000;stroke-linecap:round"/>
  <line x1="-300" y1="-200" x2="-300" y2="200" style="stroke:#800;stroke-width:10;stroke-opacity:1.000000;stroke-linecap:round"/>
  <line x1="-300" y1="200" x2="-100" y2="200" style="stroke:#800;stroke-width:10;stroke-opacity:1.000000;stroke-linecap:round"/>
  <line x1="-100" y1="-200" x2="300" y2="0" style="stroke:#800;stroke-width:10;stroke-opacity:1.000000;stroke-linecap:round"/>
  <line x1="300" y1="0" x2="-100" y2="200" style="stroke:#800;stroke-width:10;stroke-opacity:1.000000;stroke-linecap:round"/>
  <line x1="-100" y1="200" x2="-100" y2="-200" style="stroke:#800;stroke-width:10;stroke-opacity:1.000000;stroke-linecap:round"/>
  <line x1="600" y1="0" x2="300" y2="0" style="stroke:#800;stroke-width:10;stroke-opacity:1.000000;stroke-linecap:round"/>
  <g transform="translate(407,-6) rotate(0)" > <text font-size="100.0" fill="#800" font-family="monospace"  >
   2
  </text> </g> 
  <circle cx="600" cy="0" r="10"
    style="fill:none;stroke:#800;stroke-width:2"  />
  <line x1="-200" y1="-450" x2="-200" y2="-200" style="stroke:#800;stroke-width:10;stroke-opacity:1.000000;stroke-linecap:round"/>
  <g transform="translate(-215,-310) rotate(-90)" > <text font-size="100.0" fill="#800" font-family="monospace"  >
   3
  </text> </g> 
  <g transform="translate(-195,-46) rotate(-90)" > <text font-size="66.6666666667" fill="#088" font-family="monospace"  >
   +Vc
  </text> </g> 
  <circle cx="-200" cy="-450" r="10"
    style="fill:none;stroke:#800;stroke-width:2"  />
  <line x1="300" y1="450" x2="300" y2="250" style="stroke:#800;stroke-width:10;stroke-opacity:1.000000;stroke-linecap:round"/>
  <g transform="translate(285,365) rotate(-90)" > <text font-size="100.0" fill="#800" font-family="monospace"  >
   4
  </text> </g> 
  <g transform="translate(303,225) rotate(-90)" > <text font-size="50.0" fill="#088" font-family="monospace"  >
   CFT
  </text> </g> 
  <circle cx="300" cy="450" r="10"
    style="fill:none;stroke:#800;stroke-width:2"  />
  <line x1="-200" y1="450" x2="-200" y2="200" style="stroke:#800;stroke-width:10;stroke-opacity:1.000000;stroke-linecap:round"/>
  <g transform="translate(-215,340) rotate(-90)" > <text font-size="100.0" fill="#800" font-family="monospace"  >
   5
  </text> </g> 
  <g transform="translate(-195,166) rotate(-90)" > <text font-size="66.6666666667" fill="#088" font-family="monospace"  >
   -Vc
  </text> </g> 
  <circle cx="-200" cy="450" r="10"
    style="fill:none;stroke:#800;stroke-width:2"  />
  <line x1="-600" y1="0" x2="-300" y2="0" style="stroke:#800;stroke-width:10;stroke-opacity:1.000000;stroke-linecap:round"/>
  <g transform="translate(-492,-6) rotate(0)" > <text font-size="100.0" fill="#800" font-family="monospace"  >
   6
  </text> </g> 
  <g transform="translate(-282,25) rotate(0)" > <text font-size="50.0" fill="#088" font-family="monospace"  >
   E
  </text> </g> 
  <circle cx="-600" cy="0" r="10"
    style="fill:none;stroke:#800;stroke-width:2"  />
 </g>
</svg>
