<?xml version="1.0"?>
<svg height="238" width="230"  >
 <g style="fill-opacity:1.0; stroke:black;
  stroke-width:1;" transform=" translate( 115.0,119.0 ) scale( 0.15,0.15 )">
  <g transform="translate(230,170) rotate(0)" > <text font-size="66.6666666667" fill="#088" font-family="monospace"  >
   U
  </text> </g> 
  <g transform="translate(90,220) rotate(0)" > <text font-size="66.6666666667" fill="#088" font-family="monospace"  >
   TDA2005R
  </text> </g> 
<polygon points=" -350,-300 350,0 -350,300 -350,-300" 
style="fill:#ff8;stroke:#800;stroke-width:10"/>
  <line x1="0" y1="-300" x2="0" y2="-155" style="stroke:#800;stroke-width:10;stroke-opacity:1.000000;stroke-linecap:round"/>
  <g transform="translate(-10,-217) rotate(-90)" > <text font-size="66.6666666667" fill="#800" font-family="monospace"  >
   3
  </text> </g> 
  <g transform="translate(3,-10) rotate(-90)" > <text font-size="50.0" fill="#088" font-family="monospace"  >
   SVRR
  </text> </g> 
  <circle cx="0" cy="-300" r="10"
    style="fill:none;stroke:#800;stroke-width:2"  />
  <line x1="-150" y1="350" x2="-150" y2="215" style="stroke:#800;stroke-width:10;stroke-opacity:1.000000;stroke-linecap:round"/>
  <g transform="translate(-160,292) rotate(-90)" > <text font-size="66.6666666667" fill="#800" font-family="monospace"  >
   6
  </text> </g> 
  <g transform="translate(-146,190) rotate(-90)" > <text font-size="50.0" fill="#088" font-family="monospace"  >
   GND
  </text> </g> 
  <circle cx="-150" cy="350" r="10"
    style="fill:none;stroke:#800;stroke-width:2"  />
  <line x1="-150" y1="-350" x2="-150" y2="-215" style="stroke:#800;stroke-width:10;stroke-opacity:1.000000;stroke-linecap:round"/>
  <g transform="translate(-160,-272) rotate(-90)" > <text font-size="66.6666666667" fill="#800" font-family="monospace"  >
   9
  </text> </g> 
  <g transform="translate(-146,-100) rotate(-90)" > <text font-size="50.0" fill="#088" font-family="monospace"  >
   VCC
  </text> </g> 
  <circle cx="-150" cy="-350" r="10"
    style="fill:none;stroke:#800;stroke-width:2"  />
  <line x1="-500" y1="-150" x2="-350" y2="-150" style="stroke:#800;stroke-width:10;stroke-opacity:1.000000;stroke-linecap:round"/>
  <g transform="translate(-453,-156) rotate(0)" > <text font-size="66.6666666667" fill="#800" font-family="monospace"  >
   1
  </text> </g> 
  <g transform="translate(-332,-125) rotate(0)" > <text font-size="50.0" fill="#088" font-family="monospace"  >
   IN+
  </text> </g> 
  <circle cx="-500" cy="-150" r="10"
    style="fill:none;stroke:#800;stroke-width:2"  />
  <line x1="-500" y1="150" x2="-350" y2="150" style="stroke:#800;stroke-width:10;stroke-opacity:1.000000;stroke-linecap:round"/>
  <g transform="translate(-453,144) rotate(0)" > <text font-size="66.6666666667" fill="#800" font-family="monospace"  >
   2
  </text> </g> 
  <g transform="translate(-332,175) rotate(0)" > <text font-size="50.0" fill="#088" font-family="monospace"  >
   IN-
  </text> </g> 
  <circle cx="-500" cy="150" r="10"
    style="fill:none;stroke:#800;stroke-width:2"  />
  <line x1="500" y1="0" x2="350" y2="0" style="stroke:#800;stroke-width:10;stroke-opacity:1.000000;stroke-linecap:round"/>
  <g transform="translate(368,-6) rotate(0)" > <text font-size="66.6666666667" fill="#800" font-family="monospace"  >
   10
  </text> </g> 
  <g transform="translate(220,25) rotate(0)" > <text font-size="50.0" fill="#088" font-family="monospace"  >
   OUT
  </text> </g> 
  <circle cx="500" cy="0" r="10"
    style="fill:none;stroke:#800;stroke-width:2"  />
  <line x1="150" y1="-250" x2="150" y2="-90" style="stroke:#800;stroke-width:10;stroke-opacity:1.000000;stroke-linecap:round"/>
  <g transform="translate(140,-150) rotate(-90)" > <text font-size="66.6666666667" fill="#800" font-family="monospace"  >
   11
  </text> </g> 
  <g transform="translate(153,25) rotate(-90)" > <text font-size="50.0" fill="#088" font-family="monospace"  >
   BST
  </text> </g> 
  <circle cx="150" cy="-250" r="10"
    style="fill:none;stroke:#800;stroke-width:2"  />
 </g>
</svg>
