<?xml version="1.0"?>
<svg height="327" width="327"  >
 <g style="fill-opacity:1.0; stroke:black;
  stroke-width:1;" transform=" translate( 163.75,163.75 ) scale( 0.15,0.15 )">
  <g transform="translate(-30,-520) rotate(0)" > <text font-size="100.0" fill="#088" font-family="monospace"  >
   U
  </text> </g> 
  <g transform="translate(-120,580) rotate(0)" > <text font-size="100.0" fill="#088" font-family="monospace"  >
   4022
  </text> </g> 
  <g transform="translate(-12,512) rotate(-90)" > <text font-size="83.3333333333" fill="#888" font-family="monospace"  >
   8
  </text> </g> 
  <g transform="translate(6,458) rotate(-90)" > <text font-size="83.3333333333" fill="#888" font-family="monospace"  >
   VSS
  </text> </g> 
  <circle cx="0" cy="500" r="10"
    style="fill:none;stroke:#888;stroke-width:2"  />
  <g transform="translate(-12,-475) rotate(-90)" > <text font-size="83.3333333333" fill="#888" font-family="monospace"  >
   16
  </text> </g> 
  <g transform="translate(6,-308) rotate(-90)" > <text font-size="83.3333333333" fill="#888" font-family="monospace"  >
   VDD
  </text> </g> 
  <circle cx="0" cy="-500" r="10"
    style="fill:none;stroke:#888;stroke-width:2"  />
  <rect x="-350" y="-500" height="1000"
    width="700" style="fill:none;stroke:#800;stroke-width:10" />
  <line x1="650" y1="-350" x2="350" y2="-350" style="stroke:#800;stroke-width:10;stroke-opacity:1.000000;stroke-linecap:round"/>
  <g transform="translate(464,-356) rotate(0)" > <text font-size="83.3333333333" fill="#800" font-family="monospace"  >
   1
  </text> </g> 
  <g transform="translate(210,-315) rotate(0)" > <text font-size="83.3333333333" fill="#088" font-family="monospace"  >
   Q1
  </text> </g> 
  <circle cx="650" cy="-350" r="10"
    style="fill:none;stroke:#800;stroke-width:2"  />
  <line x1="650" y1="-450" x2="350" y2="-450" style="stroke:#800;stroke-width:10;stroke-opacity:1.000000;stroke-linecap:round"/>
  <g transform="translate(464,-456) rotate(0)" > <text font-size="83.3333333333" fill="#800" font-family="monospace"  >
   2
  </text> </g> 
  <g transform="translate(210,-415) rotate(0)" > <text font-size="83.3333333333" fill="#088" font-family="monospace"  >
   Q0
  </text> </g> 
  <circle cx="650" cy="-450" r="10"
    style="fill:none;stroke:#800;stroke-width:2"  />
  <line x1="650" y1="-250" x2="350" y2="-250" style="stroke:#800;stroke-width:10;stroke-opacity:1.000000;stroke-linecap:round"/>
  <g transform="translate(464,-256) rotate(0)" > <text font-size="83.3333333333" fill="#800" font-family="monospace"  >
   3
  </text> </g> 
  <g transform="translate(210,-215) rotate(0)" > <text font-size="83.3333333333" fill="#088" font-family="monospace"  >
   Q2
  </text> </g> 
  <circle cx="650" cy="-250" r="10"
    style="fill:none;stroke:#800;stroke-width:2"  />
  <line x1="650" y1="50" x2="350" y2="50" style="stroke:#800;stroke-width:10;stroke-opacity:1.000000;stroke-linecap:round"/>
  <g transform="translate(464,44) rotate(0)" > <text font-size="83.3333333333" fill="#800" font-family="monospace"  >
   4
  </text> </g> 
  <g transform="translate(210,85) rotate(0)" > <text font-size="83.3333333333" fill="#088" font-family="monospace"  >
   Q5
  </text> </g> 
  <circle cx="650" cy="50" r="10"
    style="fill:none;stroke:#800;stroke-width:2"  />
  <line x1="650" y1="150" x2="350" y2="150" style="stroke:#800;stroke-width:10;stroke-opacity:1.000000;stroke-linecap:round"/>
  <g transform="translate(464,144) rotate(0)" > <text font-size="83.3333333333" fill="#800" font-family="monospace"  >
   5
  </text> </g> 
  <g transform="translate(210,185) rotate(0)" > <text font-size="83.3333333333" fill="#088" font-family="monospace"  >
   Q6
  </text> </g> 
  <circle cx="650" cy="150" r="10"
    style="fill:none;stroke:#800;stroke-width:2"  />
  <line x1="650" y1="-150" x2="350" y2="-150" style="stroke:#800;stroke-width:10;stroke-opacity:1.000000;stroke-linecap:round"/>
  <g transform="translate(464,-156) rotate(0)" > <text font-size="83.3333333333" fill="#800" font-family="monospace"  >
   7
  </text> </g> 
  <g transform="translate(210,-115) rotate(0)" > <text font-size="83.3333333333" fill="#088" font-family="monospace"  >
   Q3
  </text> </g> 
  <circle cx="650" cy="-150" r="10"
    style="fill:none;stroke:#800;stroke-width:2"  />
  <line x1="650" y1="250" x2="350" y2="250" style="stroke:#800;stroke-width:10;stroke-opacity:1.000000;stroke-linecap:round"/>
  <g transform="translate(429,244) rotate(0)" > <text font-size="83.3333333333" fill="#800" font-family="monospace"  >
   10
  </text> </g> 
  <g transform="translate(210,285) rotate(0)" > <text font-size="83.3333333333" fill="#088" font-family="monospace"  >
   Q7
  </text> </g> 
  <circle cx="650" cy="250" r="10"
    style="fill:none;stroke:#800;stroke-width:2"  />
  <line x1="650" y1="-50" x2="350" y2="-50" style="stroke:#800;stroke-width:10;stroke-opacity:1.000000;stroke-linecap:round"/>
  <g transform="translate(429,-56) rotate(0)" > <text font-size="83.3333333333" fill="#800" font-family="monospace"  >
   11
  </text> </g> 
  <g transform="translate(210,-15) rotate(0)" > <text font-size="83.3333333333" fill="#088" font-family="monospace"  >
   Q4
  </text> </g> 
  <circle cx="650" cy="-50" r="10"
    style="fill:none;stroke:#800;stroke-width:2"  />
  <line x1="650" y1="450" x2="350" y2="450" style="stroke:#800;stroke-width:10;stroke-opacity:1.000000;stroke-linecap:round"/>
  <g transform="translate(429,444) rotate(0)" > <text font-size="83.3333333333" fill="#800" font-family="monospace"  >
   12
  </text> </g> 
  <g transform="translate(109,485) rotate(0)" > <text font-size="83.3333333333" fill="#088" font-family="monospace"  >
   Cout
  </text> </g> 
  <circle cx="650" cy="450" r="10"
    style="fill:none;stroke:#800;stroke-width:2"  />
  <line x1="-650" y1="-350" x2="-420" y2="-350" style="stroke:#800;stroke-width:10;stroke-opacity:1.000000;stroke-linecap:round"/>
  <circle cx="-385" cy="-350" r="35"
    style="fill:none;stroke:#800;stroke-width:10"  />
  <g transform="translate(-570,-356) rotate(0)" > <text font-size="83.3333333333" fill="#800" font-family="monospace"  >
   13
  </text> </g> 
  <g transform="translate(-332,-315) rotate(0)" > <text font-size="83.3333333333" fill="#088" font-family="monospace"  >
   CKEN
  </text> </g> 
  <circle cx="-650" cy="-350" r="10"
    style="fill:none;stroke:#800;stroke-width:2"  />
  <line x1="-310" y1="-450" x2="-350" y2="-410" style="stroke:#800;stroke-width:10;stroke-opacity:1.000000;stroke-linecap:round"/>
  <line x1="-350" y1="-410" x2="-350" y2="-490" style="stroke:#800;stroke-width:10;stroke-opacity:1.000000;stroke-linecap:round"/>
  <line x1="-350" y1="-490" x2="-310" y2="-450" style="stroke:#800;stroke-width:10;stroke-opacity:1.000000;stroke-linecap:round"/>
  <line x1="-650" y1="-450" x2="-350" y2="-450" style="stroke:#800;stroke-width:10;stroke-opacity:1.000000;stroke-linecap:round"/>
  <g transform="translate(-570,-456) rotate(0)" > <text font-size="83.3333333333" fill="#800" font-family="monospace"  >
   14
  </text> </g> 
  <g transform="translate(-332,-415) rotate(0)" > <text font-size="83.3333333333" fill="#088" font-family="monospace"  >
   CLK
  </text> </g> 
  <circle cx="-650" cy="-450" r="10"
    style="fill:none;stroke:#800;stroke-width:2"  />
  <line x1="-650" y1="-150" x2="-350" y2="-150" style="stroke:#800;stroke-width:10;stroke-opacity:1.000000;stroke-linecap:round"/>
  <g transform="translate(-570,-156) rotate(0)" > <text font-size="83.3333333333" fill="#800" font-family="monospace"  >
   15
  </text> </g> 
  <g transform="translate(-332,-115) rotate(0)" > <text font-size="83.3333333333" fill="#088" font-family="monospace"  >
   Reset
  </text> </g> 
  <circle cx="-650" cy="-150" r="10"
    style="fill:none;stroke:#800;stroke-width:2"  />
 </g>
</svg>
