<?xml version="1.0"?>
<svg height="768" width="768"  >
 <g style="fill-opacity:1.0; stroke:black;
  stroke-width:1;" transform=" translate( 384.25,384.25 ) scale( 0.15,0.15 )">
  <g transform="translate(-35,-65) rotate(0)" > <text font-size="116.666666667" fill="#088" font-family="monospace"  >
   U
  </text> </g> 
  <g transform="translate(-385,135) rotate(0)" > <text font-size="116.666666667" fill="#088" font-family="monospace"  >
   ACT1225PL84
  </text> </g> 
  <rect x="-650" y="-2150" height="4300"
    width="1300" style="fill:none;stroke:#800;stroke-width:10" />
  <line x1="-950" y1="-550" x2="-650" y2="-550" style="stroke:#800;stroke-width:10;stroke-opacity:1.000000;stroke-linecap:round"/>
  <g transform="translate(-842,-556) rotate(0)" > <text font-size="100.0" fill="#800" font-family="monospace"  >
   1
  </text> </g> 
  <g transform="translate(-632,-510) rotate(0)" > <text font-size="100.0" fill="#088" font-family="monospace"  >
   IO1
  </text> </g> 
  <circle cx="-950" cy="-550" r="10"
    style="fill:none;stroke:#800;stroke-width:2"  />
  <line x1="-950" y1="2050" x2="-650" y2="2050" style="stroke:#800;stroke-width:10;stroke-opacity:1.000000;stroke-linecap:round"/>
  <g transform="translate(-842,2044) rotate(0)" > <text font-size="100.0" fill="#800" font-family="monospace"  >
   2
  </text> </g> 
  <g transform="translate(-632,2090) rotate(0)" > <text font-size="100.0" fill="#088" font-family="monospace"  >
   CLKB
  </text> </g> 
  <circle cx="-950" cy="2050" r="10"
    style="fill:none;stroke:#800;stroke-width:2"  />
  <line x1="-950" y1="-450" x2="-650" y2="-450" style="stroke:#800;stroke-width:10;stroke-opacity:1.000000;stroke-linecap:round"/>
  <g transform="translate(-842,-456) rotate(0)" > <text font-size="100.0" fill="#800" font-family="monospace"  >
   3
  </text> </g> 
  <g transform="translate(-632,-410) rotate(0)" > <text font-size="100.0" fill="#088" font-family="monospace"  >
   IO3
  </text> </g> 
  <circle cx="-950" cy="-450" r="10"
    style="fill:none;stroke:#800;stroke-width:2"  />
  <line x1="-950" y1="-1450" x2="-650" y2="-1450" style="stroke:#800;stroke-width:10;stroke-opacity:1.000000;stroke-linecap:round"/>
  <g transform="translate(-842,-1456) rotate(0)" > <text font-size="100.0" fill="#800" font-family="monospace"  >
   4
  </text> </g> 
  <g transform="translate(-632,-1410) rotate(0)" > <text font-size="100.0" fill="#088" font-family="monospace"  >
   PRBB
  </text> </g> 
  <circle cx="-950" cy="-1450" r="10"
    style="fill:none;stroke:#800;stroke-width:2"  />
  <line x1="-950" y1="-350" x2="-650" y2="-350" style="stroke:#800;stroke-width:10;stroke-opacity:1.000000;stroke-linecap:round"/>
  <g transform="translate(-842,-356) rotate(0)" > <text font-size="100.0" fill="#800" font-family="monospace"  >
   5
  </text> </g> 
  <g transform="translate(-632,-310) rotate(0)" > <text font-size="100.0" fill="#088" font-family="monospace"  >
   IO5
  </text> </g> 
  <circle cx="-950" cy="-350" r="10"
    style="fill:none;stroke:#800;stroke-width:2"  />
  <g transform="translate(-365,2165) rotate(-90)" > <text font-size="100.0" fill="#888" font-family="monospace"  >
   6
  </text> </g> 
  <g transform="translate(-342,2100) rotate(-90)" > <text font-size="100.0" fill="#888" font-family="monospace"  >
   GND
  </text> </g> 
  <circle cx="-350" cy="2150" r="10"
    style="fill:none;stroke:#888;stroke-width:2"  />
  <line x1="-950" y1="-250" x2="-650" y2="-250" style="stroke:#800;stroke-width:10;stroke-opacity:1.000000;stroke-linecap:round"/>
  <g transform="translate(-842,-256) rotate(0)" > <text font-size="100.0" fill="#800" font-family="monospace"  >
   7
  </text> </g> 
  <g transform="translate(-632,-210) rotate(0)" > <text font-size="100.0" fill="#088" font-family="monospace"  >
   IO7
  </text> </g> 
  <circle cx="-950" cy="-250" r="10"
    style="fill:none;stroke:#800;stroke-width:2"  />
  <line x1="-950" y1="-150" x2="-650" y2="-150" style="stroke:#800;stroke-width:10;stroke-opacity:1.000000;stroke-linecap:round"/>
  <g transform="translate(-842,-156) rotate(0)" > <text font-size="100.0" fill="#800" font-family="monospace"  >
   8
  </text> </g> 
  <g transform="translate(-632,-110) rotate(0)" > <text font-size="100.0" fill="#088" font-family="monospace"  >
   IO8
  </text> </g> 
  <circle cx="-950" cy="-150" r="10"
    style="fill:none;stroke:#800;stroke-width:2"  />
  <line x1="-950" y1="-50" x2="-650" y2="-50" style="stroke:#800;stroke-width:10;stroke-opacity:1.000000;stroke-linecap:round"/>
  <g transform="translate(-842,-56) rotate(0)" > <text font-size="100.0" fill="#800" font-family="monospace"  >
   9
  </text> </g> 
  <g transform="translate(-632,-10) rotate(0)" > <text font-size="100.0" fill="#088" font-family="monospace"  >
   IO9
  </text> </g> 
  <circle cx="-950" cy="-50" r="10"
    style="fill:none;stroke:#800;stroke-width:2"  />
  <line x1="-950" y1="-1550" x2="-650" y2="-1550" style="stroke:#800;stroke-width:10;stroke-opacity:1.000000;stroke-linecap:round"/>
  <g transform="translate(-885,-1556) rotate(0)" > <text font-size="100.0" fill="#800" font-family="monospace"  >
   10
  </text> </g> 
  <g transform="translate(-632,-1510) rotate(0)" > <text font-size="100.0" fill="#088" font-family="monospace"  >
   DCLK
  </text> </g> 
  <circle cx="-950" cy="-1550" r="10"
    style="fill:none;stroke:#800;stroke-width:2"  />
  <line x1="-950" y1="950" x2="-650" y2="950" style="stroke:#800;stroke-width:10;stroke-opacity:1.000000;stroke-linecap:round"/>
  <g transform="translate(-885,944) rotate(0)" > <text font-size="100.0" fill="#800" font-family="monospace"  >
   20
  </text> </g> 
  <g transform="translate(-632,990) rotate(0)" > <text font-size="100.0" fill="#088" font-family="monospace"  >
   IO20
  </text> </g> 
  <circle cx="-950" cy="950" r="10"
    style="fill:none;stroke:#800;stroke-width:2"  />
  <line x1="-950" y1="1650" x2="-650" y2="1650" style="stroke:#800;stroke-width:10;stroke-opacity:1.000000;stroke-linecap:round"/>
  <g transform="translate(-885,1644) rotate(0)" > <text font-size="100.0" fill="#800" font-family="monospace"  >
   30
  </text> </g> 
  <g transform="translate(-632,1690) rotate(0)" > <text font-size="100.0" fill="#088" font-family="monospace"  >
   IO30
  </text> </g> 
  <circle cx="-950" cy="1650" r="10"
    style="fill:none;stroke:#800;stroke-width:2"  />
  <line x1="950" y1="-1350" x2="650" y2="-1350" style="stroke:#800;stroke-width:10;stroke-opacity:1.000000;stroke-linecap:round"/>
  <g transform="translate(715,-1356) rotate(0)" > <text font-size="100.0" fill="#800" font-family="monospace"  >
   40
  </text> </g> 
  <g transform="translate(370,-1310) rotate(0)" > <text font-size="100.0" fill="#088" font-family="monospace"  >
   IO40
  </text> </g> 
  <circle cx="950" cy="-1350" r="10"
    style="fill:none;stroke:#800;stroke-width:2"  />
  <line x1="950" y1="-550" x2="650" y2="-550" style="stroke:#800;stroke-width:10;stroke-opacity:1.000000;stroke-linecap:round"/>
  <g transform="translate(715,-556) rotate(0)" > <text font-size="100.0" fill="#800" font-family="monospace"  >
   50
  </text> </g> 
  <g transform="translate(370,-510) rotate(0)" > <text font-size="100.0" fill="#088" font-family="monospace"  >
   IO50
  </text> </g> 
  <circle cx="950" cy="-550" r="10"
    style="fill:none;stroke:#800;stroke-width:2"  />
  <line x1="950" y1="450" x2="650" y2="450" style="stroke:#800;stroke-width:10;stroke-opacity:1.000000;stroke-linecap:round"/>
  <g transform="translate(715,444) rotate(0)" > <text font-size="100.0" fill="#800" font-family="monospace"  >
   60
  </text> </g> 
  <g transform="translate(370,490) rotate(0)" > <text font-size="100.0" fill="#088" font-family="monospace"  >
   IO60
  </text> </g> 
  <circle cx="950" cy="450" r="10"
    style="fill:none;stroke:#800;stroke-width:2"  />
  <g transform="translate(-65,2180) rotate(-90)" > <text font-size="100.0" fill="#888" font-family="monospace"  >
   70
  </text> </g> 
  <g transform="translate(-42,2100) rotate(-90)" > <text font-size="100.0" fill="#888" font-family="monospace"  >
   GND
  </text> </g> 
  <circle cx="-50" cy="2150" r="10"
    style="fill:none;stroke:#888;stroke-width:2"  />
  <line x1="-950" y1="-750" x2="-650" y2="-750" style="stroke:#800;stroke-width:10;stroke-opacity:1.000000;stroke-linecap:round"/>
  <g transform="translate(-885,-756) rotate(0)" > <text font-size="100.0" fill="#800" font-family="monospace"  >
   80
  </text> </g> 
  <g transform="translate(-632,-710) rotate(0)" > <text font-size="100.0" fill="#088" font-family="monospace"  >
   IO80
  </text> </g> 
  <circle cx="-950" cy="-750" r="10"
    style="fill:none;stroke:#800;stroke-width:2"  />
  <line x1="-950" y1="50" x2="-650" y2="50" style="stroke:#800;stroke-width:10;stroke-opacity:1.000000;stroke-linecap:round"/>
  <g transform="translate(-885,44) rotate(0)" > <text font-size="100.0" fill="#800" font-family="monospace"  >
   11
  </text> </g> 
  <g transform="translate(-632,90) rotate(0)" > <text font-size="100.0" fill="#088" font-family="monospace"  >
   IO11
  </text> </g> 
  <circle cx="-950" cy="50" r="10"
    style="fill:none;stroke:#800;stroke-width:2"  />
  <line x1="-950" y1="1050" x2="-650" y2="1050" style="stroke:#800;stroke-width:10;stroke-opacity:1.000000;stroke-linecap:round"/>
  <g transform="translate(-885,1044) rotate(0)" > <text font-size="100.0" fill="#800" font-family="monospace"  >
   21
  </text> </g> 
  <g transform="translate(-632,1090) rotate(0)" > <text font-size="100.0" fill="#088" font-family="monospace"  >
   IO21
  </text> </g> 
  <circle cx="-950" cy="1050" r="10"
    style="fill:none;stroke:#800;stroke-width:2"  />
  <line x1="-950" y1="1750" x2="-650" y2="1750" style="stroke:#800;stroke-width:10;stroke-opacity:1.000000;stroke-linecap:round"/>
  <g transform="translate(-885,1744) rotate(0)" > <text font-size="100.0" fill="#800" font-family="monospace"  >
   31
  </text> </g> 
  <g transform="translate(-632,1790) rotate(0)" > <text font-size="100.0" fill="#088" font-family="monospace"  >
   IO31
  </text> </g> 
  <circle cx="-950" cy="1750" r="10"
    style="fill:none;stroke:#800;stroke-width:2"  />
  <line x1="950" y1="-1250" x2="650" y2="-1250" style="stroke:#800;stroke-width:10;stroke-opacity:1.000000;stroke-linecap:round"/>
  <g transform="translate(715,-1256) rotate(0)" > <text font-size="100.0" fill="#800" font-family="monospace"  >
   41
  </text> </g> 
  <g transform="translate(370,-1210) rotate(0)" > <text font-size="100.0" fill="#088" font-family="monospace"  >
   IO41
  </text> </g> 
  <circle cx="950" cy="-1250" r="10"
    style="fill:none;stroke:#800;stroke-width:2"  />
  <line x1="950" y1="-450" x2="650" y2="-450" style="stroke:#800;stroke-width:10;stroke-opacity:1.000000;stroke-linecap:round"/>
  <g transform="translate(715,-456) rotate(0)" > <text font-size="100.0" fill="#800" font-family="monospace"  >
   51
  </text> </g> 
  <g transform="translate(370,-410) rotate(0)" > <text font-size="100.0" fill="#088" font-family="monospace"  >
   IO51
  </text> </g> 
  <circle cx="950" cy="-450" r="10"
    style="fill:none;stroke:#800;stroke-width:2"  />
  <line x1="950" y1="550" x2="650" y2="550" style="stroke:#800;stroke-width:10;stroke-opacity:1.000000;stroke-linecap:round"/>
  <g transform="translate(715,544) rotate(0)" > <text font-size="100.0" fill="#800" font-family="monospace"  >
   61
  </text> </g> 
  <g transform="translate(370,590) rotate(0)" > <text font-size="100.0" fill="#088" font-family="monospace"  >
   IO61
  </text> </g> 
  <circle cx="950" cy="550" r="10"
    style="fill:none;stroke:#800;stroke-width:2"  />
  <line x1="950" y1="1150" x2="650" y2="1150" style="stroke:#800;stroke-width:10;stroke-opacity:1.000000;stroke-linecap:round"/>
  <g transform="translate(715,1144) rotate(0)" > <text font-size="100.0" fill="#800" font-family="monospace"  >
   71
  </text> </g> 
  <g transform="translate(370,1190) rotate(0)" > <text font-size="100.0" fill="#088" font-family="monospace"  >
   IO71
  </text> </g> 
  <circle cx="950" cy="1150" r="10"
    style="fill:none;stroke:#800;stroke-width:2"  />
  <line x1="-950" y1="-2050" x2="-650" y2="-2050" style="stroke:#800;stroke-width:10;stroke-opacity:1.000000;stroke-linecap:round"/>
  <g transform="translate(-885,-2056) rotate(0)" > <text font-size="100.0" fill="#800" font-family="monospace"  >
   81
  </text> </g> 
  <g transform="translate(-632,-2010) rotate(0)" > <text font-size="100.0" fill="#088" font-family="monospace"  >
   PRBA
  </text> </g> 
  <circle cx="-950" cy="-2050" r="10"
    style="fill:none;stroke:#800;stroke-width:2"  />
  <line x1="-950" y1="-1350" x2="-650" y2="-1350" style="stroke:#800;stroke-width:10;stroke-opacity:1.000000;stroke-linecap:round"/>
  <g transform="translate(-885,-1356) rotate(0)" > <text font-size="100.0" fill="#800" font-family="monospace"  >
   12
  </text> </g> 
  <g transform="translate(-632,-1310) rotate(0)" > <text font-size="100.0" fill="#088" font-family="monospace"  >
   MODE
  </text> </g> 
  <circle cx="-950" cy="-1350" r="10"
    style="fill:none;stroke:#800;stroke-width:2"  />
  <line x1="950" y1="1750" x2="650" y2="1750" style="stroke:#800;stroke-width:10;stroke-opacity:1.000000;stroke-linecap:round"/>
  <g transform="translate(715,1744) rotate(0)" > <text font-size="100.0" fill="#800" font-family="monospace"  >
   22
  </text> </g> 
  <g transform="translate(430,1790) rotate(0)" > <text font-size="100.0" fill="#088" font-family="monospace"  >
   VSV
  </text> </g> 
  <circle cx="950" cy="1750" r="10"
    style="fill:none;stroke:#800;stroke-width:2"  />
  <line x1="-950" y1="1850" x2="-650" y2="1850" style="stroke:#800;stroke-width:10;stroke-opacity:1.000000;stroke-linecap:round"/>
  <g transform="translate(-885,1844) rotate(0)" > <text font-size="100.0" fill="#800" font-family="monospace"  >
   32
  </text> </g> 
  <g transform="translate(-632,1890) rotate(0)" > <text font-size="100.0" fill="#088" font-family="monospace"  >
   IO32
  </text> </g> 
  <circle cx="-950" cy="1850" r="10"
    style="fill:none;stroke:#800;stroke-width:2"  />
  <line x1="950" y1="-1150" x2="650" y2="-1150" style="stroke:#800;stroke-width:10;stroke-opacity:1.000000;stroke-linecap:round"/>
  <g transform="translate(715,-1156) rotate(0)" > <text font-size="100.0" fill="#800" font-family="monospace"  >
   42
  </text> </g> 
  <g transform="translate(370,-1110) rotate(0)" > <text font-size="100.0" fill="#088" font-family="monospace"  >
   IO42
  </text> </g> 
  <circle cx="950" cy="-1150" r="10"
    style="fill:none;stroke:#800;stroke-width:2"  />
  <line x1="-950" y1="-1850" x2="-650" y2="-1850" style="stroke:#800;stroke-width:10;stroke-opacity:1.000000;stroke-linecap:round"/>
  <g transform="translate(-885,-1856) rotate(0)" > <text font-size="100.0" fill="#800" font-family="monospace"  >
   52
  </text> </g> 
  <g transform="translate(-632,-1810) rotate(0)" > <text font-size="100.0" fill="#088" font-family="monospace"  >
   SDO
  </text> </g> 
  <circle cx="-950" cy="-1850" r="10"
    style="fill:none;stroke:#800;stroke-width:2"  />
  <line x1="950" y1="650" x2="650" y2="650" style="stroke:#800;stroke-width:10;stroke-opacity:1.000000;stroke-linecap:round"/>
  <g transform="translate(715,644) rotate(0)" > <text font-size="100.0" fill="#800" font-family="monospace"  >
   62
  </text> </g> 
  <g transform="translate(370,690) rotate(0)" > <text font-size="100.0" fill="#088" font-family="monospace"  >
   IO62
  </text> </g> 
  <circle cx="950" cy="650" r="10"
    style="fill:none;stroke:#800;stroke-width:2"  />
  <line x1="950" y1="1250" x2="650" y2="1250" style="stroke:#800;stroke-width:10;stroke-opacity:1.000000;stroke-linecap:round"/>
  <g transform="translate(715,1244) rotate(0)" > <text font-size="100.0" fill="#800" font-family="monospace"  >
   72
  </text> </g> 
  <g transform="translate(370,1290) rotate(0)" > <text font-size="100.0" fill="#088" font-family="monospace"  >
   IO72
  </text> </g> 
  <circle cx="950" cy="1250" r="10"
    style="fill:none;stroke:#800;stroke-width:2"  />
  <line x1="-950" y1="-650" x2="-650" y2="-650" style="stroke:#800;stroke-width:10;stroke-opacity:1.000000;stroke-linecap:round"/>
  <g transform="translate(-885,-656) rotate(0)" > <text font-size="100.0" fill="#800" font-family="monospace"  >
   82
  </text> </g> 
  <g transform="translate(-632,-610) rotate(0)" > <text font-size="100.0" fill="#088" font-family="monospace"  >
   IO82
  </text> </g> 
  <circle cx="-950" cy="-650" r="10"
    style="fill:none;stroke:#800;stroke-width:2"  />
  <line x1="-950" y1="250" x2="-650" y2="250" style="stroke:#800;stroke-width:10;stroke-opacity:1.000000;stroke-linecap:round"/>
  <g transform="translate(-885,244) rotate(0)" > <text font-size="100.0" fill="#800" font-family="monospace"  >
   13
  </text> </g> 
  <g transform="translate(-632,290) rotate(0)" > <text font-size="100.0" fill="#088" font-family="monospace"  >
   IO13
  </text> </g> 
  <circle cx="-950" cy="250" r="10"
    style="fill:none;stroke:#800;stroke-width:2"  />
  <g transform="translate(235,-2120) rotate(-90)" > <text font-size="100.0" fill="#888" font-family="monospace"  >
   23
  </text> </g> 
  <g transform="translate(257,-2200) rotate(-90)" > <text font-size="100.0" fill="#888" font-family="monospace"  >
   VCC
  </text> </g> 
  <circle cx="250" cy="-2150" r="10"
    style="fill:none;stroke:#888;stroke-width:2"  />
  <line x1="950" y1="-1850" x2="650" y2="-1850" style="stroke:#800;stroke-width:10;stroke-opacity:1.000000;stroke-linecap:round"/>
  <g transform="translate(715,-1856) rotate(0)" > <text font-size="100.0" fill="#800" font-family="monospace"  >
   33
  </text> </g> 
  <g transform="translate(370,-1810) rotate(0)" > <text font-size="100.0" fill="#088" font-family="monospace"  >
   IO33
  </text> </g> 
  <circle cx="950" cy="-1850" r="10"
    style="fill:none;stroke:#800;stroke-width:2"  />
  <g transform="translate(135,-2120) rotate(-90)" > <text font-size="100.0" fill="#888" font-family="monospace"  >
   43
  </text> </g> 
  <g transform="translate(157,-2200) rotate(-90)" > <text font-size="100.0" fill="#888" font-family="monospace"  >
   VCC
  </text> </g> 
  <circle cx="150" cy="-2150" r="10"
    style="fill:none;stroke:#888;stroke-width:2"  />
  <line x1="950" y1="-350" x2="650" y2="-350" style="stroke:#800;stroke-width:10;stroke-opacity:1.000000;stroke-linecap:round"/>
  <g transform="translate(715,-356) rotate(0)" > <text font-size="100.0" fill="#800" font-family="monospace"  >
   53
  </text> </g> 
  <g transform="translate(370,-310) rotate(0)" > <text font-size="100.0" fill="#088" font-family="monospace"  >
   IO53
  </text> </g> 
  <circle cx="950" cy="-350" r="10"
    style="fill:none;stroke:#800;stroke-width:2"  />
  <line x1="950" y1="2050" x2="650" y2="2050" style="stroke:#800;stroke-width:10;stroke-opacity:1.000000;stroke-linecap:round"/>
  <g transform="translate(715,2044) rotate(0)" > <text font-size="100.0" fill="#800" font-family="monospace"  >
   63
  </text> </g> 
  <g transform="translate(430,2090) rotate(0)" > <text font-size="100.0" fill="#088" font-family="monospace"  >
   VKS
  </text> </g> 
  <circle cx="950" cy="2050" r="10"
    style="fill:none;stroke:#800;stroke-width:2"  />
  <line x1="950" y1="1350" x2="650" y2="1350" style="stroke:#800;stroke-width:10;stroke-opacity:1.000000;stroke-linecap:round"/>
  <g transform="translate(715,1344) rotate(0)" > <text font-size="100.0" fill="#800" font-family="monospace"  >
   73
  </text> </g> 
  <g transform="translate(370,1390) rotate(0)" > <text font-size="100.0" fill="#088" font-family="monospace"  >
   IO73
  </text> </g> 
  <circle cx="950" cy="1350" r="10"
    style="fill:none;stroke:#800;stroke-width:2"  />
  <line x1="950" y1="-2050" x2="650" y2="-2050" style="stroke:#800;stroke-width:10;stroke-opacity:1.000000;stroke-linecap:round"/>
  <g transform="translate(715,-2056) rotate(0)" > <text font-size="100.0" fill="#800" font-family="monospace"  >
   83
  </text> </g> 
  <g transform="translate(370,-2010) rotate(0)" > <text font-size="100.0" fill="#088" font-family="monospace"  >
   CLKA
  </text> </g> 
  <circle cx="950" cy="-2050" r="10"
    style="fill:none;stroke:#800;stroke-width:2"  />
  <line x1="-950" y1="350" x2="-650" y2="350" style="stroke:#800;stroke-width:10;stroke-opacity:1.000000;stroke-linecap:round"/>
  <g transform="translate(-885,344) rotate(0)" > <text font-size="100.0" fill="#800" font-family="monospace"  >
   14
  </text> </g> 
  <g transform="translate(-632,390) rotate(0)" > <text font-size="100.0" fill="#088" font-family="monospace"  >
   IO14
  </text> </g> 
  <circle cx="-950" cy="350" r="10"
    style="fill:none;stroke:#800;stroke-width:2"  />
  <line x1="-950" y1="1150" x2="-650" y2="1150" style="stroke:#800;stroke-width:10;stroke-opacity:1.000000;stroke-linecap:round"/>
  <g transform="translate(-885,1144) rotate(0)" > <text font-size="100.0" fill="#800" font-family="monospace"  >
   24
  </text> </g> 
  <g transform="translate(-632,1190) rotate(0)" > <text font-size="100.0" fill="#088" font-family="monospace"  >
   IO24
  </text> </g> 
  <circle cx="-950" cy="1150" r="10"
    style="fill:none;stroke:#800;stroke-width:2"  />
  <line x1="-950" y1="-1650" x2="-650" y2="-1650" style="stroke:#800;stroke-width:10;stroke-opacity:1.000000;stroke-linecap:round"/>
  <g transform="translate(-885,-1656) rotate(0)" > <text font-size="100.0" fill="#800" font-family="monospace"  >
   34
  </text> </g> 
  <g transform="translate(-632,-1610) rotate(0)" > <text font-size="100.0" fill="#088" font-family="monospace"  >
   BIN/IN
  </text> </g> 
  <circle cx="-950" cy="-1650" r="10"
    style="fill:none;stroke:#800;stroke-width:2"  />
  <line x1="950" y1="-1050" x2="650" y2="-1050" style="stroke:#800;stroke-width:10;stroke-opacity:1.000000;stroke-linecap:round"/>
  <g transform="translate(715,-1056) rotate(0)" > <text font-size="100.0" fill="#800" font-family="monospace"  >
   44
  </text> </g> 
  <g transform="translate(370,-1010) rotate(0)" > <text font-size="100.0" fill="#088" font-family="monospace"  >
   IO44
  </text> </g> 
  <circle cx="950" cy="-1050" r="10"
    style="fill:none;stroke:#800;stroke-width:2"  />
  <line x1="950" y1="-150" x2="650" y2="-150" style="stroke:#800;stroke-width:10;stroke-opacity:1.000000;stroke-linecap:round"/>
  <g transform="translate(715,-156) rotate(0)" > <text font-size="100.0" fill="#800" font-family="monospace"  >
   54
  </text> </g> 
  <g transform="translate(370,-110) rotate(0)" > <text font-size="100.0" fill="#088" font-family="monospace"  >
   IO54
  </text> </g> 
  <circle cx="950" cy="-150" r="10"
    style="fill:none;stroke:#800;stroke-width:2"  />
  <line x1="950" y1="1850" x2="650" y2="1850" style="stroke:#800;stroke-width:10;stroke-opacity:1.000000;stroke-linecap:round"/>
  <g transform="translate(715,1844) rotate(0)" > <text font-size="100.0" fill="#800" font-family="monospace"  >
   64
  </text> </g> 
  <g transform="translate(430,1890) rotate(0)" > <text font-size="100.0" fill="#088" font-family="monospace"  >
   VPP
  </text> </g> 
  <circle cx="950" cy="1850" r="10"
    style="fill:none;stroke:#800;stroke-width:2"  />
  <line x1="950" y1="1450" x2="650" y2="1450" style="stroke:#800;stroke-width:10;stroke-opacity:1.000000;stroke-linecap:round"/>
  <g transform="translate(715,1444) rotate(0)" > <text font-size="100.0" fill="#800" font-family="monospace"  >
   74
  </text> </g> 
  <g transform="translate(370,1490) rotate(0)" > <text font-size="100.0" fill="#088" font-family="monospace"  >
   IO74
  </text> </g> 
  <circle cx="950" cy="1450" r="10"
    style="fill:none;stroke:#800;stroke-width:2"  />
  <g transform="translate(-65,-2120) rotate(-90)" > <text font-size="100.0" fill="#888" font-family="monospace"  >
   84
  </text> </g> 
  <g transform="translate(-42,-2200) rotate(-90)" > <text font-size="100.0" fill="#888" font-family="monospace"  >
   VCC
  </text> </g> 
  <circle cx="-50" cy="-2150" r="10"
    style="fill:none;stroke:#888;stroke-width:2"  />
  <line x1="-950" y1="450" x2="-650" y2="450" style="stroke:#800;stroke-width:10;stroke-opacity:1.000000;stroke-linecap:round"/>
  <g transform="translate(-885,444) rotate(0)" > <text font-size="100.0" fill="#800" font-family="monospace"  >
   15
  </text> </g> 
  <g transform="translate(-632,490) rotate(0)" > <text font-size="100.0" fill="#088" font-family="monospace"  >
   IO15
  </text> </g> 
  <circle cx="-950" cy="450" r="10"
    style="fill:none;stroke:#800;stroke-width:2"  />
  <line x1="-950" y1="1250" x2="-650" y2="1250" style="stroke:#800;stroke-width:10;stroke-opacity:1.000000;stroke-linecap:round"/>
  <g transform="translate(-885,1244) rotate(0)" > <text font-size="100.0" fill="#800" font-family="monospace"  >
   25
  </text> </g> 
  <g transform="translate(-632,1290) rotate(0)" > <text font-size="100.0" fill="#088" font-family="monospace"  >
   IO25
  </text> </g> 
  <circle cx="-950" cy="1250" r="10"
    style="fill:none;stroke:#800;stroke-width:2"  />
  <line x1="-950" y1="-1750" x2="-650" y2="-1750" style="stroke:#800;stroke-width:10;stroke-opacity:1.000000;stroke-linecap:round"/>
  <g transform="translate(-885,-1756) rotate(0)" > <text font-size="100.0" fill="#800" font-family="monospace"  >
   35
  </text> </g> 
  <g transform="translate(-632,-1710) rotate(0)" > <text font-size="100.0" fill="#088" font-family="monospace"  >
   BIN/OUT
  </text> </g> 
  <circle cx="-950" cy="-1750" r="10"
    style="fill:none;stroke:#800;stroke-width:2"  />
  <line x1="950" y1="-950" x2="650" y2="-950" style="stroke:#800;stroke-width:10;stroke-opacity:1.000000;stroke-linecap:round"/>
  <g transform="translate(715,-956) rotate(0)" > <text font-size="100.0" fill="#800" font-family="monospace"  >
   45
  </text> </g> 
  <g transform="translate(370,-910) rotate(0)" > <text font-size="100.0" fill="#088" font-family="monospace"  >
   IO45
  </text> </g> 
  <circle cx="950" cy="-950" r="10"
    style="fill:none;stroke:#800;stroke-width:2"  />
  <line x1="950" y1="-50" x2="650" y2="-50" style="stroke:#800;stroke-width:10;stroke-opacity:1.000000;stroke-linecap:round"/>
  <g transform="translate(715,-56) rotate(0)" > <text font-size="100.0" fill="#800" font-family="monospace"  >
   55
  </text> </g> 
  <g transform="translate(370,-10) rotate(0)" > <text font-size="100.0" fill="#088" font-family="monospace"  >
   IO55
  </text> </g> 
  <circle cx="950" cy="-50" r="10"
    style="fill:none;stroke:#800;stroke-width:2"  />
  <g transform="translate(35,-2120) rotate(-90)" > <text font-size="100.0" fill="#888" font-family="monospace"  >
   65
  </text> </g> 
  <g transform="translate(57,-2200) rotate(-90)" > <text font-size="100.0" fill="#888" font-family="monospace"  >
   VCC
  </text> </g> 
  <circle cx="50" cy="-2150" r="10"
    style="fill:none;stroke:#888;stroke-width:2"  />
  <line x1="-950" y1="-1150" x2="-650" y2="-1150" style="stroke:#800;stroke-width:10;stroke-opacity:1.000000;stroke-linecap:round"/>
  <g transform="translate(-885,-1156) rotate(0)" > <text font-size="100.0" fill="#800" font-family="monospace"  >
   75
  </text> </g> 
  <g transform="translate(-632,-1110) rotate(0)" > <text font-size="100.0" fill="#088" font-family="monospace"  >
   IO75
  </text> </g> 
  <circle cx="-950" cy="-1150" r="10"
    style="fill:none;stroke:#800;stroke-width:2"  />
  <line x1="-950" y1="550" x2="-650" y2="550" style="stroke:#800;stroke-width:10;stroke-opacity:1.000000;stroke-linecap:round"/>
  <g transform="translate(-885,544) rotate(0)" > <text font-size="100.0" fill="#800" font-family="monospace"  >
   16
  </text> </g> 
  <g transform="translate(-632,590) rotate(0)" > <text font-size="100.0" fill="#088" font-family="monospace"  >
   IO16
  </text> </g> 
  <circle cx="-950" cy="550" r="10"
    style="fill:none;stroke:#800;stroke-width:2"  />
  <line x1="-950" y1="1350" x2="-650" y2="1350" style="stroke:#800;stroke-width:10;stroke-opacity:1.000000;stroke-linecap:round"/>
  <g transform="translate(-885,1344) rotate(0)" > <text font-size="100.0" fill="#800" font-family="monospace"  >
   26
  </text> </g> 
  <g transform="translate(-632,1390) rotate(0)" > <text font-size="100.0" fill="#088" font-family="monospace"  >
   IO26
  </text> </g> 
  <circle cx="-950" cy="1350" r="10"
    style="fill:none;stroke:#800;stroke-width:2"  />
  <line x1="950" y1="-1750" x2="650" y2="-1750" style="stroke:#800;stroke-width:10;stroke-opacity:1.000000;stroke-linecap:round"/>
  <g transform="translate(715,-1756) rotate(0)" > <text font-size="100.0" fill="#800" font-family="monospace"  >
   36
  </text> </g> 
  <g transform="translate(370,-1710) rotate(0)" > <text font-size="100.0" fill="#088" font-family="monospace"  >
   IO36
  </text> </g> 
  <circle cx="950" cy="-1750" r="10"
    style="fill:none;stroke:#800;stroke-width:2"  />
  <line x1="950" y1="-850" x2="650" y2="-850" style="stroke:#800;stroke-width:10;stroke-opacity:1.000000;stroke-linecap:round"/>
  <g transform="translate(715,-856) rotate(0)" > <text font-size="100.0" fill="#800" font-family="monospace"  >
   46
  </text> </g> 
  <g transform="translate(370,-810) rotate(0)" > <text font-size="100.0" fill="#088" font-family="monospace"  >
   IO46
  </text> </g> 
  <circle cx="950" cy="-850" r="10"
    style="fill:none;stroke:#800;stroke-width:2"  />
  <line x1="950" y1="50" x2="650" y2="50" style="stroke:#800;stroke-width:10;stroke-opacity:1.000000;stroke-linecap:round"/>
  <g transform="translate(715,44) rotate(0)" > <text font-size="100.0" fill="#800" font-family="monospace"  >
   56
  </text> </g> 
  <g transform="translate(370,90) rotate(0)" > <text font-size="100.0" fill="#088" font-family="monospace"  >
   IO56
  </text> </g> 
  <circle cx="950" cy="50" r="10"
    style="fill:none;stroke:#800;stroke-width:2"  />
  <line x1="950" y1="750" x2="650" y2="750" style="stroke:#800;stroke-width:10;stroke-opacity:1.000000;stroke-linecap:round"/>
  <g transform="translate(715,744) rotate(0)" > <text font-size="100.0" fill="#800" font-family="monospace"  >
   66
  </text> </g> 
  <g transform="translate(370,790) rotate(0)" > <text font-size="100.0" fill="#088" font-family="monospace"  >
   IO66
  </text> </g> 
  <circle cx="950" cy="750" r="10"
    style="fill:none;stroke:#800;stroke-width:2"  />
  <line x1="-950" y1="-1950" x2="-650" y2="-1950" style="stroke:#800;stroke-width:10;stroke-opacity:1.000000;stroke-linecap:round"/>
  <g transform="translate(-885,-1956) rotate(0)" > <text font-size="100.0" fill="#800" font-family="monospace"  >
   76
  </text> </g> 
  <g transform="translate(-632,-1910) rotate(0)" > <text font-size="100.0" fill="#088" font-family="monospace"  >
   SDI
  </text> </g> 
  <circle cx="-950" cy="-1950" r="10"
    style="fill:none;stroke:#800;stroke-width:2"  />
  <line x1="-950" y1="650" x2="-650" y2="650" style="stroke:#800;stroke-width:10;stroke-opacity:1.000000;stroke-linecap:round"/>
  <g transform="translate(-885,644) rotate(0)" > <text font-size="100.0" fill="#800" font-family="monospace"  >
   17
  </text> </g> 
  <g transform="translate(-632,690) rotate(0)" > <text font-size="100.0" fill="#088" font-family="monospace"  >
   IO17
  </text> </g> 
  <circle cx="-950" cy="650" r="10"
    style="fill:none;stroke:#800;stroke-width:2"  />
  <line x1="-950" y1="1450" x2="-650" y2="1450" style="stroke:#800;stroke-width:10;stroke-opacity:1.000000;stroke-linecap:round"/>
  <g transform="translate(-885,1444) rotate(0)" > <text font-size="100.0" fill="#800" font-family="monospace"  >
   27
  </text> </g> 
  <g transform="translate(-632,1490) rotate(0)" > <text font-size="100.0" fill="#088" font-family="monospace"  >
   IO27
  </text> </g> 
  <circle cx="-950" cy="1450" r="10"
    style="fill:none;stroke:#800;stroke-width:2"  />
  <line x1="950" y1="-1650" x2="650" y2="-1650" style="stroke:#800;stroke-width:10;stroke-opacity:1.000000;stroke-linecap:round"/>
  <g transform="translate(715,-1656) rotate(0)" > <text font-size="100.0" fill="#800" font-family="monospace"  >
   37
  </text> </g> 
  <g transform="translate(370,-1610) rotate(0)" > <text font-size="100.0" fill="#088" font-family="monospace"  >
   IO37
  </text> </g> 
  <circle cx="950" cy="-1650" r="10"
    style="fill:none;stroke:#800;stroke-width:2"  />
  <line x1="950" y1="-750" x2="650" y2="-750" style="stroke:#800;stroke-width:10;stroke-opacity:1.000000;stroke-linecap:round"/>
  <g transform="translate(715,-756) rotate(0)" > <text font-size="100.0" fill="#800" font-family="monospace"  >
   47
  </text> </g> 
  <g transform="translate(370,-710) rotate(0)" > <text font-size="100.0" fill="#088" font-family="monospace"  >
   IO47
  </text> </g> 
  <circle cx="950" cy="-750" r="10"
    style="fill:none;stroke:#800;stroke-width:2"  />
  <line x1="950" y1="150" x2="650" y2="150" style="stroke:#800;stroke-width:10;stroke-opacity:1.000000;stroke-linecap:round"/>
  <g transform="translate(715,144) rotate(0)" > <text font-size="100.0" fill="#800" font-family="monospace"  >
   57
  </text> </g> 
  <g transform="translate(370,190) rotate(0)" > <text font-size="100.0" fill="#088" font-family="monospace"  >
   IO57
  </text> </g> 
  <circle cx="950" cy="150" r="10"
    style="fill:none;stroke:#800;stroke-width:2"  />
  <line x1="950" y1="850" x2="650" y2="850" style="stroke:#800;stroke-width:10;stroke-opacity:1.000000;stroke-linecap:round"/>
  <g transform="translate(715,844) rotate(0)" > <text font-size="100.0" fill="#800" font-family="monospace"  >
   67
  </text> </g> 
  <g transform="translate(370,890) rotate(0)" > <text font-size="100.0" fill="#088" font-family="monospace"  >
   IO67
  </text> </g> 
  <circle cx="950" cy="850" r="10"
    style="fill:none;stroke:#800;stroke-width:2"  />
  <line x1="-950" y1="-1050" x2="-650" y2="-1050" style="stroke:#800;stroke-width:10;stroke-opacity:1.000000;stroke-linecap:round"/>
  <g transform="translate(-885,-1056) rotate(0)" > <text font-size="100.0" fill="#800" font-family="monospace"  >
   77
  </text> </g> 
  <g transform="translate(-632,-1010) rotate(0)" > <text font-size="100.0" fill="#088" font-family="monospace"  >
   IO77
  </text> </g> 
  <circle cx="-950" cy="-1050" r="10"
    style="fill:none;stroke:#800;stroke-width:2"  />
  <line x1="-950" y1="750" x2="-650" y2="750" style="stroke:#800;stroke-width:10;stroke-opacity:1.000000;stroke-linecap:round"/>
  <g transform="translate(-885,744) rotate(0)" > <text font-size="100.0" fill="#800" font-family="monospace"  >
   18
  </text> </g> 
  <g transform="translate(-632,790) rotate(0)" > <text font-size="100.0" fill="#088" font-family="monospace"  >
   IO18
  </text> </g> 
  <circle cx="-950" cy="750" r="10"
    style="fill:none;stroke:#800;stroke-width:2"  />
  <g transform="translate(-265,2180) rotate(-90)" > <text font-size="100.0" fill="#888" font-family="monospace"  >
   28
  </text> </g> 
  <g transform="translate(-242,2100) rotate(-90)" > <text font-size="100.0" fill="#888" font-family="monospace"  >
   GND
  </text> </g> 
  <circle cx="-250" cy="2150" r="10"
    style="fill:none;stroke:#888;stroke-width:2"  />
  <line x1="950" y1="-1550" x2="650" y2="-1550" style="stroke:#800;stroke-width:10;stroke-opacity:1.000000;stroke-linecap:round"/>
  <g transform="translate(715,-1556) rotate(0)" > <text font-size="100.0" fill="#800" font-family="monospace"  >
   38
  </text> </g> 
  <g transform="translate(370,-1510) rotate(0)" > <text font-size="100.0" fill="#088" font-family="monospace"  >
   IO38
  </text> </g> 
  <circle cx="950" cy="-1550" r="10"
    style="fill:none;stroke:#800;stroke-width:2"  />
  <line x1="950" y1="-650" x2="650" y2="-650" style="stroke:#800;stroke-width:10;stroke-opacity:1.000000;stroke-linecap:round"/>
  <g transform="translate(715,-656) rotate(0)" > <text font-size="100.0" fill="#800" font-family="monospace"  >
   48
  </text> </g> 
  <g transform="translate(370,-610) rotate(0)" > <text font-size="100.0" fill="#088" font-family="monospace"  >
   IO48
  </text> </g> 
  <circle cx="950" cy="-650" r="10"
    style="fill:none;stroke:#800;stroke-width:2"  />
  <line x1="950" y1="250" x2="650" y2="250" style="stroke:#800;stroke-width:10;stroke-opacity:1.000000;stroke-linecap:round"/>
  <g transform="translate(715,244) rotate(0)" > <text font-size="100.0" fill="#800" font-family="monospace"  >
   58
  </text> </g> 
  <g transform="translate(370,290) rotate(0)" > <text font-size="100.0" fill="#088" font-family="monospace"  >
   IO58
  </text> </g> 
  <circle cx="950" cy="250" r="10"
    style="fill:none;stroke:#800;stroke-width:2"  />
  <line x1="950" y1="950" x2="650" y2="950" style="stroke:#800;stroke-width:10;stroke-opacity:1.000000;stroke-linecap:round"/>
  <g transform="translate(715,944) rotate(0)" > <text font-size="100.0" fill="#800" font-family="monospace"  >
   68
  </text> </g> 
  <g transform="translate(370,990) rotate(0)" > <text font-size="100.0" fill="#088" font-family="monospace"  >
   IO68
  </text> </g> 
  <circle cx="950" cy="950" r="10"
    style="fill:none;stroke:#800;stroke-width:2"  />
  <line x1="-950" y1="-950" x2="-650" y2="-950" style="stroke:#800;stroke-width:10;stroke-opacity:1.000000;stroke-linecap:round"/>
  <g transform="translate(-885,-956) rotate(0)" > <text font-size="100.0" fill="#800" font-family="monospace"  >
   78
  </text> </g> 
  <g transform="translate(-632,-910) rotate(0)" > <text font-size="100.0" fill="#088" font-family="monospace"  >
   IO78
  </text> </g> 
  <circle cx="-950" cy="-950" r="10"
    style="fill:none;stroke:#800;stroke-width:2"  />
  <line x1="-950" y1="850" x2="-650" y2="850" style="stroke:#800;stroke-width:10;stroke-opacity:1.000000;stroke-linecap:round"/>
  <g transform="translate(-885,844) rotate(0)" > <text font-size="100.0" fill="#800" font-family="monospace"  >
   19
  </text> </g> 
  <g transform="translate(-632,890) rotate(0)" > <text font-size="100.0" fill="#088" font-family="monospace"  >
   IO19
  </text> </g> 
  <circle cx="-950" cy="850" r="10"
    style="fill:none;stroke:#800;stroke-width:2"  />
  <line x1="-950" y1="1550" x2="-650" y2="1550" style="stroke:#800;stroke-width:10;stroke-opacity:1.000000;stroke-linecap:round"/>
  <g transform="translate(-885,1544) rotate(0)" > <text font-size="100.0" fill="#800" font-family="monospace"  >
   29
  </text> </g> 
  <g transform="translate(-632,1590) rotate(0)" > <text font-size="100.0" fill="#088" font-family="monospace"  >
   IO29
  </text> </g> 
  <circle cx="-950" cy="1550" r="10"
    style="fill:none;stroke:#800;stroke-width:2"  />
  <line x1="950" y1="-1450" x2="650" y2="-1450" style="stroke:#800;stroke-width:10;stroke-opacity:1.000000;stroke-linecap:round"/>
  <g transform="translate(715,-1456) rotate(0)" > <text font-size="100.0" fill="#800" font-family="monospace"  >
   39
  </text> </g> 
  <g transform="translate(370,-1410) rotate(0)" > <text font-size="100.0" fill="#088" font-family="monospace"  >
   IO39
  </text> </g> 
  <circle cx="950" cy="-1450" r="10"
    style="fill:none;stroke:#800;stroke-width:2"  />
  <g transform="translate(-165,2180) rotate(-90)" > <text font-size="100.0" fill="#888" font-family="monospace"  >
   49
  </text> </g> 
  <g transform="translate(-142,2100) rotate(-90)" > <text font-size="100.0" fill="#888" font-family="monospace"  >
   GND
  </text> </g> 
  <circle cx="-150" cy="2150" r="10"
    style="fill:none;stroke:#888;stroke-width:2"  />
  <line x1="950" y1="350" x2="650" y2="350" style="stroke:#800;stroke-width:10;stroke-opacity:1.000000;stroke-linecap:round"/>
  <g transform="translate(715,344) rotate(0)" > <text font-size="100.0" fill="#800" font-family="monospace"  >
   59
  </text> </g> 
  <g transform="translate(370,390) rotate(0)" > <text font-size="100.0" fill="#088" font-family="monospace"  >
   IO59
  </text> </g> 
  <circle cx="950" cy="350" r="10"
    style="fill:none;stroke:#800;stroke-width:2"  />
  <line x1="950" y1="1050" x2="650" y2="1050" style="stroke:#800;stroke-width:10;stroke-opacity:1.000000;stroke-linecap:round"/>
  <g transform="translate(715,1044) rotate(0)" > <text font-size="100.0" fill="#800" font-family="monospace"  >
   69
  </text> </g> 
  <g transform="translate(370,1090) rotate(0)" > <text font-size="100.0" fill="#088" font-family="monospace"  >
   IO69
  </text> </g> 
  <circle cx="950" cy="1050" r="10"
    style="fill:none;stroke:#800;stroke-width:2"  />
  <line x1="-950" y1="-850" x2="-650" y2="-850" style="stroke:#800;stroke-width:10;stroke-opacity:1.000000;stroke-linecap:round"/>
  <g transform="translate(-885,-856) rotate(0)" > <text font-size="100.0" fill="#800" font-family="monospace"  >
   79
  </text> </g> 
  <g transform="translate(-632,-810) rotate(0)" > <text font-size="100.0" fill="#088" font-family="monospace"  >
   IO79
  </text> </g> 
  <circle cx="-950" cy="-850" r="10"
    style="fill:none;stroke:#800;stroke-width:2"  />
 </g>
</svg>
