<?xml version="1.0"?>
<svg height="515" width="515"  >
 <g style="fill-opacity:1.0; stroke:black;
  stroke-width:1;" transform=" translate( 257.5,257.5 ) scale( 0.15,0.15 )">
  <g transform="translate(-35,-65) rotate(0)" > <text font-size="116.666666667" fill="#088" font-family="monospace"  >
   U
  </text> </g> 
  <g transform="translate(-175,135) rotate(0)" > <text font-size="116.666666667" fill="#088" font-family="monospace"  >
   DG884
  </text> </g> 
  <rect x="-800" y="-1150" height="2300"
    width="1600" style="fill:none;stroke:#800;stroke-width:10" />
  <g transform="translate(-715,1165) rotate(-90)" > <text font-size="100.0" fill="#888" font-family="monospace"  >
   1
  </text> </g> 
  <g transform="translate(-692,1100) rotate(-90)" > <text font-size="100.0" fill="#888" font-family="monospace"  >
   GNDA
  </text> </g> 
  <circle cx="-700" cy="1150" r="10"
    style="fill:none;stroke:#888;stroke-width:2"  />
  <line x1="1100" y1="-1050" x2="800" y2="-1050" style="stroke:#800;stroke-width:10;stroke-opacity:1.000000;stroke-linecap:round"/>
  <g transform="translate(907,-1056) rotate(0)" > <text font-size="100.0" fill="#800" font-family="monospace"  >
   2
  </text> </g> 
  <g transform="translate(520,-1010) rotate(0)" > <text font-size="100.0" fill="#088" font-family="monospace"  >
   OUT1
  </text> </g> 
  <circle cx="1100" cy="-1050" r="10"
    style="fill:none;stroke:#800;stroke-width:2"  />
  <g transform="translate(-615,1165) rotate(-90)" > <text font-size="100.0" fill="#888" font-family="monospace"  >
   3
  </text> </g> 
  <g transform="translate(-592,1100) rotate(-90)" > <text font-size="100.0" fill="#888" font-family="monospace"  >
   GNDA
  </text> </g> 
  <circle cx="-600" cy="1150" r="10"
    style="fill:none;stroke:#888;stroke-width:2"  />
  <g transform="translate(-515,1165) rotate(-90)" > <text font-size="100.0" fill="#888" font-family="monospace"  >
   4
  </text> </g> 
  <g transform="translate(-492,1100) rotate(-90)" > <text font-size="100.0" fill="#888" font-family="monospace"  >
   GNDA
  </text> </g> 
  <circle cx="-500" cy="1150" r="10"
    style="fill:none;stroke:#888;stroke-width:2"  />
  <line x1="-1100" y1="-1050" x2="-800" y2="-1050" style="stroke:#800;stroke-width:10;stroke-opacity:1.000000;stroke-linecap:round"/>
  <g transform="translate(-992,-1056) rotate(0)" > <text font-size="100.0" fill="#800" font-family="monospace"  >
   5
  </text> </g> 
  <g transform="translate(-782,-1010) rotate(0)" > <text font-size="100.0" fill="#088" font-family="monospace"  >
   IN1
  </text> </g> 
  <circle cx="-1100" cy="-1050" r="10"
    style="fill:none;stroke:#800;stroke-width:2"  />
  <g transform="translate(-415,1165) rotate(-90)" > <text font-size="100.0" fill="#888" font-family="monospace"  >
   6
  </text> </g> 
  <g transform="translate(-392,1100) rotate(-90)" > <text font-size="100.0" fill="#888" font-family="monospace"  >
   GNDA
  </text> </g> 
  <circle cx="-400" cy="1150" r="10"
    style="fill:none;stroke:#888;stroke-width:2"  />
  <line x1="-1100" y1="-950" x2="-800" y2="-950" style="stroke:#800;stroke-width:10;stroke-opacity:1.000000;stroke-linecap:round"/>
  <g transform="translate(-992,-956) rotate(0)" > <text font-size="100.0" fill="#800" font-family="monospace"  >
   7
  </text> </g> 
  <g transform="translate(-782,-910) rotate(0)" > <text font-size="100.0" fill="#088" font-family="monospace"  >
   IN2
  </text> </g> 
  <circle cx="-1100" cy="-950" r="10"
    style="fill:none;stroke:#800;stroke-width:2"  />
  <g transform="translate(-315,1165) rotate(-90)" > <text font-size="100.0" fill="#888" font-family="monospace"  >
   8
  </text> </g> 
  <g transform="translate(-292,1100) rotate(-90)" > <text font-size="100.0" fill="#888" font-family="monospace"  >
   GNDA
  </text> </g> 
  <circle cx="-300" cy="1150" r="10"
    style="fill:none;stroke:#888;stroke-width:2"  />
  <line x1="-1100" y1="-850" x2="-800" y2="-850" style="stroke:#800;stroke-width:10;stroke-opacity:1.000000;stroke-linecap:round"/>
  <g transform="translate(-992,-856) rotate(0)" > <text font-size="100.0" fill="#800" font-family="monospace"  >
   9
  </text> </g> 
  <g transform="translate(-782,-810) rotate(0)" > <text font-size="100.0" fill="#088" font-family="monospace"  >
   IN3
  </text> </g> 
  <circle cx="-1100" cy="-850" r="10"
    style="fill:none;stroke:#800;stroke-width:2"  />
  <g transform="translate(-215,1180) rotate(-90)" > <text font-size="100.0" fill="#888" font-family="monospace"  >
   10
  </text> </g> 
  <g transform="translate(-192,1100) rotate(-90)" > <text font-size="100.0" fill="#888" font-family="monospace"  >
   GNDA
  </text> </g> 
  <circle cx="-200" cy="1150" r="10"
    style="fill:none;stroke:#888;stroke-width:2"  />
  <g transform="translate(385,1180) rotate(-90)" > <text font-size="100.0" fill="#888" font-family="monospace"  >
   20
  </text> </g> 
  <g transform="translate(407,1100) rotate(-90)" > <text font-size="100.0" fill="#888" font-family="monospace"  >
   GNDA
  </text> </g> 
  <circle cx="400" cy="1150" r="10"
    style="fill:none;stroke:#888;stroke-width:2"  />
  <line x1="-1100" y1="150" x2="-870" y2="150" style="stroke:#800;stroke-width:10;stroke-opacity:1.000000;stroke-linecap:round"/>
  <circle cx="-835" cy="150" r="35"
    style="fill:none;stroke:#800;stroke-width:10"  />
  <g transform="translate(-1035,144) rotate(0)" > <text font-size="100.0" fill="#800" font-family="monospace"  >
   30
  </text> </g> 
  <g transform="translate(-782,190) rotate(0)" > <text font-size="100.0" fill="#088" font-family="monospace"  >
   CS
  </text> </g> 
  <circle cx="-1100" cy="150" r="10"
    style="fill:none;stroke:#800;stroke-width:2"  />
  <line x1="1100" y1="-750" x2="800" y2="-750" style="stroke:#800;stroke-width:10;stroke-opacity:1.000000;stroke-linecap:round"/>
  <g transform="translate(865,-756) rotate(0)" > <text font-size="100.0" fill="#800" font-family="monospace"  >
   40
  </text> </g> 
  <g transform="translate(520,-710) rotate(0)" > <text font-size="100.0" fill="#088" font-family="monospace"  >
   OUT4
  </text> </g> 
  <circle cx="1100" cy="-750" r="10"
    style="fill:none;stroke:#800;stroke-width:2"  />
  <line x1="-1100" y1="-750" x2="-800" y2="-750" style="stroke:#800;stroke-width:10;stroke-opacity:1.000000;stroke-linecap:round"/>
  <g transform="translate(-1035,-756) rotate(0)" > <text font-size="100.0" fill="#800" font-family="monospace"  >
   11
  </text> </g> 
  <g transform="translate(-782,-710) rotate(0)" > <text font-size="100.0" fill="#088" font-family="monospace"  >
   IN4
  </text> </g> 
  <circle cx="-1100" cy="-750" r="10"
    style="fill:none;stroke:#800;stroke-width:2"  />
  <line x1="0" y1="1450" x2="0" y2="1150" style="stroke:#800;stroke-width:10;stroke-opacity:1.000000;stroke-linecap:round"/>
  <g transform="translate(-15,1330) rotate(-90)" > <text font-size="100.0" fill="#800" font-family="monospace"  >
   21
  </text> </g> 
  <g transform="translate(7,1100) rotate(-90)" > <text font-size="100.0" fill="#088" font-family="monospace"  >
   V-
  </text> </g> 
  <circle cx="0" cy="1450" r="10"
    style="fill:none;stroke:#800;stroke-width:2"  />
  <line x1="-1100" y1="250" x2="-800" y2="250" style="stroke:#800;stroke-width:10;stroke-opacity:1.000000;stroke-linecap:round"/>
  <g transform="translate(-1035,244) rotate(0)" > <text font-size="100.0" fill="#800" font-family="monospace"  >
   31
  </text> </g> 
  <g transform="translate(-782,290) rotate(0)" > <text font-size="100.0" fill="#088" font-family="monospace"  >
   A0
  </text> </g> 
  <circle cx="-1100" cy="250" r="10"
    style="fill:none;stroke:#800;stroke-width:2"  />
  <g transform="translate(485,1180) rotate(-90)" > <text font-size="100.0" fill="#888" font-family="monospace"  >
   41
  </text> </g> 
  <g transform="translate(507,1100) rotate(-90)" > <text font-size="100.0" fill="#888" font-family="monospace"  >
   GNDA
  </text> </g> 
  <circle cx="500" cy="1150" r="10"
    style="fill:none;stroke:#888;stroke-width:2"  />
  <g transform="translate(-115,1180) rotate(-90)" > <text font-size="100.0" fill="#888" font-family="monospace"  >
   12
  </text> </g> 
  <g transform="translate(-92,1100) rotate(-90)" > <text font-size="100.0" fill="#888" font-family="monospace"  >
   GNDA
  </text> </g> 
  <circle cx="-100" cy="1150" r="10"
    style="fill:none;stroke:#888;stroke-width:2"  />
  <line x1="1100" y1="-550" x2="870" y2="-550" style="stroke:#800;stroke-width:10;stroke-opacity:1.000000;stroke-linecap:round"/>
  <circle cx="835" cy="-550" r="35"
    style="fill:none;stroke:#800;stroke-width:10"  />
  <g transform="translate(865,-556) rotate(0)" > <text font-size="100.0" fill="#800" font-family="monospace"  >
   22
  </text> </g> 
  <g transform="translate(520,-510) rotate(0)" > <text font-size="100.0" fill="#088" font-family="monospace"  >
   DIS1
  </text> </g> 
  <circle cx="1100" cy="-550" r="10"
    style="fill:none;stroke:#800;stroke-width:2"  />
  <line x1="-1100" y1="350" x2="-800" y2="350" style="stroke:#800;stroke-width:10;stroke-opacity:1.000000;stroke-linecap:round"/>
  <g transform="translate(-1035,344) rotate(0)" > <text font-size="100.0" fill="#800" font-family="monospace"  >
   32
  </text> </g> 
  <g transform="translate(-782,390) rotate(0)" > <text font-size="100.0" fill="#088" font-family="monospace"  >
   A1
  </text> </g> 
  <circle cx="-1100" cy="350" r="10"
    style="fill:none;stroke:#800;stroke-width:2"  />
  <line x1="1100" y1="-850" x2="800" y2="-850" style="stroke:#800;stroke-width:10;stroke-opacity:1.000000;stroke-linecap:round"/>
  <g transform="translate(865,-856) rotate(0)" > <text font-size="100.0" fill="#800" font-family="monospace"  >
   42
  </text> </g> 
  <g transform="translate(520,-810) rotate(0)" > <text font-size="100.0" fill="#088" font-family="monospace"  >
   OUT3
  </text> </g> 
  <circle cx="1100" cy="-850" r="10"
    style="fill:none;stroke:#800;stroke-width:2"  />
  <line x1="-1100" y1="-650" x2="-800" y2="-650" style="stroke:#800;stroke-width:10;stroke-opacity:1.000000;stroke-linecap:round"/>
  <g transform="translate(-1035,-656) rotate(0)" > <text font-size="100.0" fill="#800" font-family="monospace"  >
   13
  </text> </g> 
  <g transform="translate(-782,-610) rotate(0)" > <text font-size="100.0" fill="#088" font-family="monospace"  >
   IN5
  </text> </g> 
  <circle cx="-1100" cy="-650" r="10"
    style="fill:none;stroke:#800;stroke-width:2"  />
  <line x1="1100" y1="-450" x2="870" y2="-450" style="stroke:#800;stroke-width:10;stroke-opacity:1.000000;stroke-linecap:round"/>
  <circle cx="835" cy="-450" r="35"
    style="fill:none;stroke:#800;stroke-width:10"  />
  <g transform="translate(865,-456) rotate(0)" > <text font-size="100.0" fill="#800" font-family="monospace"  >
   23
  </text> </g> 
  <g transform="translate(520,-410) rotate(0)" > <text font-size="100.0" fill="#088" font-family="monospace"  >
   DIS2
  </text> </g> 
  <circle cx="1100" cy="-450" r="10"
    style="fill:none;stroke:#800;stroke-width:2"  />
  <line x1="-1100" y1="450" x2="-800" y2="450" style="stroke:#800;stroke-width:10;stroke-opacity:1.000000;stroke-linecap:round"/>
  <g transform="translate(-1035,444) rotate(0)" > <text font-size="100.0" fill="#800" font-family="monospace"  >
   33
  </text> </g> 
  <g transform="translate(-782,490) rotate(0)" > <text font-size="100.0" fill="#088" font-family="monospace"  >
   A2
  </text> </g> 
  <circle cx="-1100" cy="450" r="10"
    style="fill:none;stroke:#800;stroke-width:2"  />
  <g transform="translate(585,1180) rotate(-90)" > <text font-size="100.0" fill="#888" font-family="monospace"  >
   43
  </text> </g> 
  <g transform="translate(607,1100) rotate(-90)" > <text font-size="100.0" fill="#888" font-family="monospace"  >
   GNDA
  </text> </g> 
  <circle cx="600" cy="1150" r="10"
    style="fill:none;stroke:#888;stroke-width:2"  />
  <g transform="translate(85,1180) rotate(-90)" > <text font-size="100.0" fill="#888" font-family="monospace"  >
   14
  </text> </g> 
  <g transform="translate(107,1100) rotate(-90)" > <text font-size="100.0" fill="#888" font-family="monospace"  >
   GNDA
  </text> </g> 
  <circle cx="100" cy="1150" r="10"
    style="fill:none;stroke:#888;stroke-width:2"  />
  <line x1="1100" y1="-350" x2="870" y2="-350" style="stroke:#800;stroke-width:10;stroke-opacity:1.000000;stroke-linecap:round"/>
  <circle cx="835" cy="-350" r="35"
    style="fill:none;stroke:#800;stroke-width:10"  />
  <g transform="translate(865,-356) rotate(0)" > <text font-size="100.0" fill="#800" font-family="monospace"  >
   24
  </text> </g> 
  <g transform="translate(520,-310) rotate(0)" > <text font-size="100.0" fill="#088" font-family="monospace"  >
   DIS3
  </text> </g> 
  <circle cx="1100" cy="-350" r="10"
    style="fill:none;stroke:#800;stroke-width:2"  />
  <line x1="-1100" y1="550" x2="-800" y2="550" style="stroke:#800;stroke-width:10;stroke-opacity:1.000000;stroke-linecap:round"/>
  <g transform="translate(-1035,544) rotate(0)" > <text font-size="100.0" fill="#800" font-family="monospace"  >
   34
  </text> </g> 
  <g transform="translate(-782,590) rotate(0)" > <text font-size="100.0" fill="#088" font-family="monospace"  >
   A3
  </text> </g> 
  <circle cx="-1100" cy="550" r="10"
    style="fill:none;stroke:#800;stroke-width:2"  />
  <line x1="1100" y1="-950" x2="800" y2="-950" style="stroke:#800;stroke-width:10;stroke-opacity:1.000000;stroke-linecap:round"/>
  <g transform="translate(865,-956) rotate(0)" > <text font-size="100.0" fill="#800" font-family="monospace"  >
   44
  </text> </g> 
  <g transform="translate(520,-910) rotate(0)" > <text font-size="100.0" fill="#088" font-family="monospace"  >
   OUT2
  </text> </g> 
  <circle cx="1100" cy="-950" r="10"
    style="fill:none;stroke:#800;stroke-width:2"  />
  <line x1="-1100" y1="-550" x2="-800" y2="-550" style="stroke:#800;stroke-width:10;stroke-opacity:1.000000;stroke-linecap:round"/>
  <g transform="translate(-1035,-556) rotate(0)" > <text font-size="100.0" fill="#800" font-family="monospace"  >
   15
  </text> </g> 
  <g transform="translate(-782,-510) rotate(0)" > <text font-size="100.0" fill="#088" font-family="monospace"  >
   IN6
  </text> </g> 
  <circle cx="-1100" cy="-550" r="10"
    style="fill:none;stroke:#800;stroke-width:2"  />
  <line x1="1100" y1="-250" x2="870" y2="-250" style="stroke:#800;stroke-width:10;stroke-opacity:1.000000;stroke-linecap:round"/>
  <circle cx="835" cy="-250" r="35"
    style="fill:none;stroke:#800;stroke-width:10"  />
  <g transform="translate(865,-256) rotate(0)" > <text font-size="100.0" fill="#800" font-family="monospace"  >
   25
  </text> </g> 
  <g transform="translate(520,-210) rotate(0)" > <text font-size="100.0" fill="#088" font-family="monospace"  >
   DIS4
  </text> </g> 
  <circle cx="1100" cy="-250" r="10"
    style="fill:none;stroke:#800;stroke-width:2"  />
  <line x1="-1100" y1="650" x2="-870" y2="650" style="stroke:#800;stroke-width:10;stroke-opacity:1.000000;stroke-linecap:round"/>
  <circle cx="-835" cy="650" r="35"
    style="fill:none;stroke:#800;stroke-width:10"  />
  <g transform="translate(-1035,644) rotate(0)" > <text font-size="100.0" fill="#800" font-family="monospace"  >
   35
  </text> </g> 
  <g transform="translate(-782,690) rotate(0)" > <text font-size="100.0" fill="#088" font-family="monospace"  >
   WR
  </text> </g> 
  <circle cx="-1100" cy="650" r="10"
    style="fill:none;stroke:#800;stroke-width:2"  />
  <g transform="translate(185,1180) rotate(-90)" > <text font-size="100.0" fill="#888" font-family="monospace"  >
   16
  </text> </g> 
  <g transform="translate(207,1100) rotate(-90)" > <text font-size="100.0" fill="#888" font-family="monospace"  >
   GNDA
  </text> </g> 
  <circle cx="200" cy="1150" r="10"
    style="fill:none;stroke:#888;stroke-width:2"  />
  <line x1="0" y1="-1450" x2="0" y2="-1150" style="stroke:#800;stroke-width:10;stroke-opacity:1.000000;stroke-linecap:round"/>
  <g transform="translate(-15,-1270) rotate(-90)" > <text font-size="100.0" fill="#800" font-family="monospace"  >
   26
  </text> </g> 
  <g transform="translate(7,-980) rotate(-90)" > <text font-size="100.0" fill="#088" font-family="monospace"  >
   V+
  </text> </g> 
  <circle cx="0" cy="-1450" r="10"
    style="fill:none;stroke:#800;stroke-width:2"  />
  <line x1="-1100" y1="750" x2="-870" y2="750" style="stroke:#800;stroke-width:10;stroke-opacity:1.000000;stroke-linecap:round"/>
  <circle cx="-835" cy="750" r="35"
    style="fill:none;stroke:#800;stroke-width:10"  />
  <g transform="translate(-1035,744) rotate(0)" > <text font-size="100.0" fill="#800" font-family="monospace"  >
   36
  </text> </g> 
  <g transform="translate(-782,790) rotate(0)" > <text font-size="100.0" fill="#088" font-family="monospace"  >
   SALVO
  </text> </g> 
  <circle cx="-1100" cy="750" r="10"
    style="fill:none;stroke:#800;stroke-width:2"  />
  <line x1="-1100" y1="-450" x2="-800" y2="-450" style="stroke:#800;stroke-width:10;stroke-opacity:1.000000;stroke-linecap:round"/>
  <g transform="translate(-1035,-456) rotate(0)" > <text font-size="100.0" fill="#800" font-family="monospace"  >
   17
  </text> </g> 
  <g transform="translate(-782,-410) rotate(0)" > <text font-size="100.0" fill="#088" font-family="monospace"  >
   IN7
  </text> </g> 
  <circle cx="-1100" cy="-450" r="10"
    style="fill:none;stroke:#800;stroke-width:2"  />
  <line x1="-1100" y1="-150" x2="-800" y2="-150" style="stroke:#800;stroke-width:10;stroke-opacity:1.000000;stroke-linecap:round"/>
  <g transform="translate(-1035,-156) rotate(0)" > <text font-size="100.0" fill="#800" font-family="monospace"  >
   27
  </text> </g> 
  <g transform="translate(-782,-110) rotate(0)" > <text font-size="100.0" fill="#088" font-family="monospace"  >
   B0
  </text> </g> 
  <circle cx="-1100" cy="-150" r="10"
    style="fill:none;stroke:#800;stroke-width:2"  />
  <line x1="-1100" y1="850" x2="-870" y2="850" style="stroke:#800;stroke-width:10;stroke-opacity:1.000000;stroke-linecap:round"/>
  <circle cx="-835" cy="850" r="35"
    style="fill:none;stroke:#800;stroke-width:10"  />
  <g transform="translate(-1035,844) rotate(0)" > <text font-size="100.0" fill="#800" font-family="monospace"  >
   37
  </text> </g> 
  <g transform="translate(-782,890) rotate(0)" > <text font-size="100.0" fill="#088" font-family="monospace"  >
   RS
  </text> </g> 
  <circle cx="-1100" cy="850" r="10"
    style="fill:none;stroke:#800;stroke-width:2"  />
  <g transform="translate(285,1180) rotate(-90)" > <text font-size="100.0" fill="#888" font-family="monospace"  >
   18
  </text> </g> 
  <g transform="translate(307,1100) rotate(-90)" > <text font-size="100.0" fill="#888" font-family="monospace"  >
   GNDA
  </text> </g> 
  <circle cx="300" cy="1150" r="10"
    style="fill:none;stroke:#888;stroke-width:2"  />
  <line x1="-1100" y1="-50" x2="-800" y2="-50" style="stroke:#800;stroke-width:10;stroke-opacity:1.000000;stroke-linecap:round"/>
  <g transform="translate(-1035,-56) rotate(0)" > <text font-size="100.0" fill="#800" font-family="monospace"  >
   28
  </text> </g> 
  <g transform="translate(-782,-10) rotate(0)" > <text font-size="100.0" fill="#088" font-family="monospace"  >
   B1
  </text> </g> 
  <circle cx="-1100" cy="-50" r="10"
    style="fill:none;stroke:#800;stroke-width:2"  />
  <g transform="translate(685,-1120) rotate(-90)" > <text font-size="100.0" fill="#888" font-family="monospace"  >
   38
  </text> </g> 
  <g transform="translate(707,-1200) rotate(-90)" > <text font-size="100.0" fill="#888" font-family="monospace"  >
   VCC
  </text> </g> 
  <circle cx="700" cy="-1150" r="10"
    style="fill:none;stroke:#888;stroke-width:2"  />
  <line x1="-1100" y1="-350" x2="-800" y2="-350" style="stroke:#800;stroke-width:10;stroke-opacity:1.000000;stroke-linecap:round"/>
  <g transform="translate(-1035,-356) rotate(0)" > <text font-size="100.0" fill="#800" font-family="monospace"  >
   19
  </text> </g> 
  <g transform="translate(-782,-310) rotate(0)" > <text font-size="100.0" fill="#088" font-family="monospace"  >
   IN8
  </text> </g> 
  <circle cx="-1100" cy="-350" r="10"
    style="fill:none;stroke:#800;stroke-width:2"  />
  <line x1="-1100" y1="50" x2="-800" y2="50" style="stroke:#800;stroke-width:10;stroke-opacity:1.000000;stroke-linecap:round"/>
  <g transform="translate(-1035,44) rotate(0)" > <text font-size="100.0" fill="#800" font-family="monospace"  >
   29
  </text> </g> 
  <g transform="translate(-782,90) rotate(0)" > <text font-size="100.0" fill="#088" font-family="monospace"  >
   I/O
  </text> </g> 
  <circle cx="-1100" cy="50" r="10"
    style="fill:none;stroke:#800;stroke-width:2"  />
  <g transform="translate(685,1180) rotate(-90)" > <text font-size="100.0" fill="#888" font-family="monospace"  >
   39
  </text> </g> 
  <g transform="translate(707,1100) rotate(-90)" > <text font-size="100.0" fill="#888" font-family="monospace"  >
   GND
  </text> </g> 
  <circle cx="700" cy="1150" r="10"
    style="fill:none;stroke:#888;stroke-width:2"  />
 </g>
</svg>
