<?xml version="1.0"?>
<svg height="410" width="410"  >
 <g style="fill-opacity:1.0; stroke:black;
  stroke-width:1;" transform=" translate( 205.0,205.0 ) scale( 0.15,0.15 )">
  <g transform="translate(-35,-65) rotate(0)" > <text font-size="116.666666667" fill="#088" font-family="monospace"  >
   U
  </text> </g> 
  <g transform="translate(-175,535) rotate(0)" > <text font-size="116.666666667" fill="#088" font-family="monospace"  >
   EP600
  </text> </g> 
  <rect x="-500" y="-850" height="1700"
    width="1000" style="fill:none;stroke:#800;stroke-width:10" />
  <line x1="-460" y1="-750" x2="-500" y2="-710" style="stroke:#800;stroke-width:10;stroke-opacity:1.000000;stroke-linecap:round"/>
  <line x1="-500" y1="-710" x2="-500" y2="-790" style="stroke:#800;stroke-width:10;stroke-opacity:1.000000;stroke-linecap:round"/>
  <line x1="-500" y1="-790" x2="-460" y2="-750" style="stroke:#800;stroke-width:10;stroke-opacity:1.000000;stroke-linecap:round"/>
  <line x1="-800" y1="-750" x2="-500" y2="-750" style="stroke:#800;stroke-width:10;stroke-opacity:1.000000;stroke-linecap:round"/>
  <g transform="translate(-692,-756) rotate(0)" > <text font-size="100.0" fill="#800" font-family="monospace"  >
   1
  </text> </g> 
  <g transform="translate(-482,-710) rotate(0)" > <text font-size="100.0" fill="#088" font-family="monospace"  >
   CLK1
  </text> </g> 
  <circle cx="-800" cy="-750" r="10"
    style="fill:none;stroke:#800;stroke-width:2"  />
  <line x1="-800" y1="-550" x2="-500" y2="-550" style="stroke:#800;stroke-width:10;stroke-opacity:1.000000;stroke-linecap:round"/>
  <g transform="translate(-692,-556) rotate(0)" > <text font-size="100.0" fill="#800" font-family="monospace"  >
   2
  </text> </g> 
  <g transform="translate(-482,-510) rotate(0)" > <text font-size="100.0" fill="#088" font-family="monospace"  >
   IN2
  </text> </g> 
  <circle cx="-800" cy="-550" r="10"
    style="fill:none;stroke:#800;stroke-width:2"  />
  <line x1="-800" y1="-350" x2="-500" y2="-350" style="stroke:#800;stroke-width:10;stroke-opacity:1.000000;stroke-linecap:round"/>
  <g transform="translate(-692,-356) rotate(0)" > <text font-size="100.0" fill="#800" font-family="monospace"  >
   3
  </text> </g> 
  <g transform="translate(-482,-310) rotate(0)" > <text font-size="100.0" fill="#088" font-family="monospace"  >
   I/O3
  </text> </g> 
  <circle cx="-800" cy="-350" r="10"
    style="fill:none;stroke:#800;stroke-width:2"  />
  <line x1="-800" y1="-250" x2="-500" y2="-250" style="stroke:#800;stroke-width:10;stroke-opacity:1.000000;stroke-linecap:round"/>
  <g transform="translate(-692,-256) rotate(0)" > <text font-size="100.0" fill="#800" font-family="monospace"  >
   4
  </text> </g> 
  <g transform="translate(-482,-210) rotate(0)" > <text font-size="100.0" fill="#088" font-family="monospace"  >
   I/O4
  </text> </g> 
  <circle cx="-800" cy="-250" r="10"
    style="fill:none;stroke:#800;stroke-width:2"  />
  <line x1="-800" y1="-150" x2="-500" y2="-150" style="stroke:#800;stroke-width:10;stroke-opacity:1.000000;stroke-linecap:round"/>
  <g transform="translate(-692,-156) rotate(0)" > <text font-size="100.0" fill="#800" font-family="monospace"  >
   5
  </text> </g> 
  <g transform="translate(-482,-110) rotate(0)" > <text font-size="100.0" fill="#088" font-family="monospace"  >
   I/O5
  </text> </g> 
  <circle cx="-800" cy="-150" r="10"
    style="fill:none;stroke:#800;stroke-width:2"  />
  <line x1="-800" y1="-50" x2="-500" y2="-50" style="stroke:#800;stroke-width:10;stroke-opacity:1.000000;stroke-linecap:round"/>
  <g transform="translate(-692,-56) rotate(0)" > <text font-size="100.0" fill="#800" font-family="monospace"  >
   6
  </text> </g> 
  <g transform="translate(-482,-10) rotate(0)" > <text font-size="100.0" fill="#088" font-family="monospace"  >
   I/O6
  </text> </g> 
  <circle cx="-800" cy="-50" r="10"
    style="fill:none;stroke:#800;stroke-width:2"  />
  <line x1="-800" y1="50" x2="-500" y2="50" style="stroke:#800;stroke-width:10;stroke-opacity:1.000000;stroke-linecap:round"/>
  <g transform="translate(-692,44) rotate(0)" > <text font-size="100.0" fill="#800" font-family="monospace"  >
   7
  </text> </g> 
  <g transform="translate(-482,90) rotate(0)" > <text font-size="100.0" fill="#088" font-family="monospace"  >
   I/O7
  </text> </g> 
  <circle cx="-800" cy="50" r="10"
    style="fill:none;stroke:#800;stroke-width:2"  />
  <line x1="-800" y1="150" x2="-500" y2="150" style="stroke:#800;stroke-width:10;stroke-opacity:1.000000;stroke-linecap:round"/>
  <g transform="translate(-692,144) rotate(0)" > <text font-size="100.0" fill="#800" font-family="monospace"  >
   8
  </text> </g> 
  <g transform="translate(-482,190) rotate(0)" > <text font-size="100.0" fill="#088" font-family="monospace"  >
   I/O8
  </text> </g> 
  <circle cx="-800" cy="150" r="10"
    style="fill:none;stroke:#800;stroke-width:2"  />
  <line x1="-800" y1="250" x2="-500" y2="250" style="stroke:#800;stroke-width:10;stroke-opacity:1.000000;stroke-linecap:round"/>
  <g transform="translate(-692,244) rotate(0)" > <text font-size="100.0" fill="#800" font-family="monospace"  >
   9
  </text> </g> 
  <g transform="translate(-482,290) rotate(0)" > <text font-size="100.0" fill="#088" font-family="monospace"  >
   I/O9
  </text> </g> 
  <circle cx="-800" cy="250" r="10"
    style="fill:none;stroke:#800;stroke-width:2"  />
  <line x1="-800" y1="350" x2="-500" y2="350" style="stroke:#800;stroke-width:10;stroke-opacity:1.000000;stroke-linecap:round"/>
  <g transform="translate(-735,344) rotate(0)" > <text font-size="100.0" fill="#800" font-family="monospace"  >
   10
  </text> </g> 
  <g transform="translate(-482,390) rotate(0)" > <text font-size="100.0" fill="#088" font-family="monospace"  >
   I/O10
  </text> </g> 
  <circle cx="-800" cy="350" r="10"
    style="fill:none;stroke:#800;stroke-width:2"  />
  <line x1="800" y1="-350" x2="500" y2="-350" style="stroke:#800;stroke-width:10;stroke-opacity:1.000000;stroke-linecap:round"/>
  <g transform="translate(565,-356) rotate(0)" > <text font-size="100.0" fill="#800" font-family="monospace"  >
   20
  </text> </g> 
  <g transform="translate(160,-310) rotate(0)" > <text font-size="100.0" fill="#088" font-family="monospace"  >
   I/O20
  </text> </g> 
  <circle cx="800" cy="-350" r="10"
    style="fill:none;stroke:#800;stroke-width:2"  />
  <line x1="-800" y1="550" x2="-500" y2="550" style="stroke:#800;stroke-width:10;stroke-opacity:1.000000;stroke-linecap:round"/>
  <g transform="translate(-735,544) rotate(0)" > <text font-size="100.0" fill="#800" font-family="monospace"  >
   11
  </text> </g> 
  <g transform="translate(-482,590) rotate(0)" > <text font-size="100.0" fill="#088" font-family="monospace"  >
   IN11
  </text> </g> 
  <circle cx="-800" cy="550" r="10"
    style="fill:none;stroke:#800;stroke-width:2"  />
  <line x1="800" y1="-450" x2="500" y2="-450" style="stroke:#800;stroke-width:10;stroke-opacity:1.000000;stroke-linecap:round"/>
  <g transform="translate(565,-456) rotate(0)" > <text font-size="100.0" fill="#800" font-family="monospace"  >
   21
  </text> </g> 
  <g transform="translate(160,-410) rotate(0)" > <text font-size="100.0" fill="#088" font-family="monospace"  >
   I/O21
  </text> </g> 
  <circle cx="800" cy="-450" r="10"
    style="fill:none;stroke:#800;stroke-width:2"  />
  <line x1="-800" y1="750" x2="-500" y2="750" style="stroke:#800;stroke-width:10;stroke-opacity:1.000000;stroke-linecap:round"/>
  <g transform="translate(-735,744) rotate(0)" > <text font-size="100.0" fill="#800" font-family="monospace"  >
   12
  </text> </g> 
  <g transform="translate(-482,790) rotate(0)" > <text font-size="100.0" fill="#088" font-family="monospace"  >
   GND
  </text> </g> 
  <circle cx="-800" cy="750" r="10"
    style="fill:none;stroke:#800;stroke-width:2"  />
  <line x1="800" y1="-550" x2="500" y2="-550" style="stroke:#800;stroke-width:10;stroke-opacity:1.000000;stroke-linecap:round"/>
  <g transform="translate(565,-556) rotate(0)" > <text font-size="100.0" fill="#800" font-family="monospace"  >
   22
  </text> </g> 
  <g transform="translate(160,-510) rotate(0)" > <text font-size="100.0" fill="#088" font-family="monospace"  >
   I/O22
  </text> </g> 
  <circle cx="800" cy="-550" r="10"
    style="fill:none;stroke:#800;stroke-width:2"  />
  <line x1="460" y1="550" x2="500" y2="590" style="stroke:#800;stroke-width:10;stroke-opacity:1.000000;stroke-linecap:round"/>
  <line x1="500" y1="590" x2="500" y2="510" style="stroke:#800;stroke-width:10;stroke-opacity:1.000000;stroke-linecap:round"/>
  <line x1="500" y1="510" x2="460" y2="550" style="stroke:#800;stroke-width:10;stroke-opacity:1.000000;stroke-linecap:round"/>
  <line x1="800" y1="550" x2="500" y2="550" style="stroke:#800;stroke-width:10;stroke-opacity:1.000000;stroke-linecap:round"/>
  <g transform="translate(565,544) rotate(0)" > <text font-size="100.0" fill="#800" font-family="monospace"  >
   13
  </text> </g> 
  <g transform="translate(220,590) rotate(0)" > <text font-size="100.0" fill="#088" font-family="monospace"  >
   CLK2
  </text> </g> 
  <circle cx="800" cy="550" r="10"
    style="fill:none;stroke:#800;stroke-width:2"  />
  <line x1="800" y1="-750" x2="500" y2="-750" style="stroke:#800;stroke-width:10;stroke-opacity:1.000000;stroke-linecap:round"/>
  <g transform="translate(565,-756) rotate(0)" > <text font-size="100.0" fill="#800" font-family="monospace"  >
   23
  </text> </g> 
  <g transform="translate(220,-710) rotate(0)" > <text font-size="100.0" fill="#088" font-family="monospace"  >
   IN23
  </text> </g> 
  <circle cx="800" cy="-750" r="10"
    style="fill:none;stroke:#800;stroke-width:2"  />
  <line x1="800" y1="350" x2="500" y2="350" style="stroke:#800;stroke-width:10;stroke-opacity:1.000000;stroke-linecap:round"/>
  <g transform="translate(565,344) rotate(0)" > <text font-size="100.0" fill="#800" font-family="monospace"  >
   14
  </text> </g> 
  <g transform="translate(220,390) rotate(0)" > <text font-size="100.0" fill="#088" font-family="monospace"  >
   IN14
  </text> </g> 
  <circle cx="800" cy="350" r="10"
    style="fill:none;stroke:#800;stroke-width:2"  />
  <line x1="800" y1="750" x2="500" y2="750" style="stroke:#800;stroke-width:10;stroke-opacity:1.000000;stroke-linecap:round"/>
  <g transform="translate(565,744) rotate(0)" > <text font-size="100.0" fill="#800" font-family="monospace"  >
   24
  </text> </g> 
  <g transform="translate(280,790) rotate(0)" > <text font-size="100.0" fill="#088" font-family="monospace"  >
   VCC
  </text> </g> 
  <circle cx="800" cy="750" r="10"
    style="fill:none;stroke:#800;stroke-width:2"  />
  <line x1="800" y1="150" x2="500" y2="150" style="stroke:#800;stroke-width:10;stroke-opacity:1.000000;stroke-linecap:round"/>
  <g transform="translate(565,144) rotate(0)" > <text font-size="100.0" fill="#800" font-family="monospace"  >
   15
  </text> </g> 
  <g transform="translate(160,190) rotate(0)" > <text font-size="100.0" fill="#088" font-family="monospace"  >
   I/O15
  </text> </g> 
  <circle cx="800" cy="150" r="10"
    style="fill:none;stroke:#800;stroke-width:2"  />
  <line x1="800" y1="50" x2="500" y2="50" style="stroke:#800;stroke-width:10;stroke-opacity:1.000000;stroke-linecap:round"/>
  <g transform="translate(565,44) rotate(0)" > <text font-size="100.0" fill="#800" font-family="monospace"  >
   16
  </text> </g> 
  <g transform="translate(160,90) rotate(0)" > <text font-size="100.0" fill="#088" font-family="monospace"  >
   I/O16
  </text> </g> 
  <circle cx="800" cy="50" r="10"
    style="fill:none;stroke:#800;stroke-width:2"  />
  <line x1="800" y1="-50" x2="500" y2="-50" style="stroke:#800;stroke-width:10;stroke-opacity:1.000000;stroke-linecap:round"/>
  <g transform="translate(565,-56) rotate(0)" > <text font-size="100.0" fill="#800" font-family="monospace"  >
   17
  </text> </g> 
  <g transform="translate(160,-10) rotate(0)" > <text font-size="100.0" fill="#088" font-family="monospace"  >
   I/O17
  </text> </g> 
  <circle cx="800" cy="-50" r="10"
    style="fill:none;stroke:#800;stroke-width:2"  />
  <line x1="800" y1="-150" x2="500" y2="-150" style="stroke:#800;stroke-width:10;stroke-opacity:1.000000;stroke-linecap:round"/>
  <g transform="translate(565,-156) rotate(0)" > <text font-size="100.0" fill="#800" font-family="monospace"  >
   18
  </text> </g> 
  <g transform="translate(160,-110) rotate(0)" > <text font-size="100.0" fill="#088" font-family="monospace"  >
   I/O18
  </text> </g> 
  <circle cx="800" cy="-150" r="10"
    style="fill:none;stroke:#800;stroke-width:2"  />
  <line x1="800" y1="-250" x2="500" y2="-250" style="stroke:#800;stroke-width:10;stroke-opacity:1.000000;stroke-linecap:round"/>
  <g transform="translate(565,-256) rotate(0)" > <text font-size="100.0" fill="#800" font-family="monospace"  >
   19
  </text> </g> 
  <g transform="translate(160,-210) rotate(0)" > <text font-size="100.0" fill="#088" font-family="monospace"  >
   I/O19
  </text> </g> 
  <circle cx="800" cy="-250" r="10"
    style="fill:none;stroke:#800;stroke-width:2"  />
 </g>
</svg>
