<?xml version="1.0"?>
<svg height="395" width="395"  >
 <g style="fill-opacity:1.0; stroke:black;
  stroke-width:1;" transform=" translate( 197.5,197.5 ) scale( 0.15,0.15 )">
  <g transform="translate(-35,-65) rotate(0)" > <text font-size="116.666666667" fill="#088" font-family="monospace"  >
   U
  </text> </g> 
  <g transform="translate(-175,135) rotate(0)" > <text font-size="116.666666667" fill="#088" font-family="monospace"  >
   M3003
  </text> </g> 
  <rect x="-500" y="-600" height="1200"
    width="1000" style="fill:none;stroke:#800;stroke-width:10" />
  <line x1="0" y1="-900" x2="0" y2="-600" style="stroke:#800;stroke-width:10;stroke-opacity:1.000000;stroke-linecap:round"/>
  <g transform="translate(-15,-735) rotate(-90)" > <text font-size="100.0" fill="#800" font-family="monospace"  >
   1
  </text> </g> 
  <g transform="translate(7,-370) rotate(-90)" > <text font-size="100.0" fill="#088" font-family="monospace"  >
   VCC
  </text> </g> 
  <circle cx="0" cy="-900" r="10"
    style="fill:none;stroke:#800;stroke-width:2"  />
  <line x1="-800" y1="-500" x2="-500" y2="-500" style="stroke:#800;stroke-width:10;stroke-opacity:1.000000;stroke-linecap:round"/>
  <g transform="translate(-692,-506) rotate(0)" > <text font-size="100.0" fill="#800" font-family="monospace"  >
   2
  </text> </g> 
  <g transform="translate(-482,-460) rotate(0)" > <text font-size="100.0" fill="#088" font-family="monospace"  >
   X1
  </text> </g> 
  <circle cx="-800" cy="-500" r="10"
    style="fill:none;stroke:#800;stroke-width:2"  />
  <line x1="-800" y1="100" x2="-500" y2="100" style="stroke:#800;stroke-width:10;stroke-opacity:1.000000;stroke-linecap:round"/>
  <g transform="translate(-692,94) rotate(0)" > <text font-size="100.0" fill="#800" font-family="monospace"  >
   3
  </text> </g> 
  <g transform="translate(-482,140) rotate(0)" > <text font-size="100.0" fill="#088" font-family="monospace"  >
   X0
  </text> </g> 
  <circle cx="-800" cy="100" r="10"
    style="fill:none;stroke:#800;stroke-width:2"  />
  <line x1="-800" y1="200" x2="-570" y2="200" style="stroke:#800;stroke-width:10;stroke-opacity:1.000000;stroke-linecap:round"/>
  <circle cx="-535" cy="200" r="35"
    style="fill:none;stroke:#800;stroke-width:10"  />
  <g transform="translate(-692,194) rotate(0)" > <text font-size="100.0" fill="#800" font-family="monospace"  >
   4
  </text> </g> 
  <g transform="translate(-482,240) rotate(0)" > <text font-size="100.0" fill="#088" font-family="monospace"  >
   SYNC
  </text> </g> 
  <circle cx="-800" cy="200" r="10"
    style="fill:none;stroke:#800;stroke-width:2"  />
  <line x1="-800" y1="300" x2="-500" y2="300" style="stroke:#800;stroke-width:10;stroke-opacity:1.000000;stroke-linecap:round"/>
  <g transform="translate(-692,294) rotate(0)" > <text font-size="100.0" fill="#800" font-family="monospace"  >
   5
  </text> </g> 
  <g transform="translate(-482,340) rotate(0)" > <text font-size="100.0" fill="#088" font-family="monospace"  >
   R/W
  </text> </g> 
  <circle cx="-800" cy="300" r="10"
    style="fill:none;stroke:#800;stroke-width:2"  />
  <line x1="-800" y1="400" x2="-570" y2="400" style="stroke:#800;stroke-width:10;stroke-opacity:1.000000;stroke-linecap:round"/>
  <circle cx="-535" cy="400" r="35"
    style="fill:none;stroke:#800;stroke-width:10"  />
  <g transform="translate(-692,394) rotate(0)" > <text font-size="100.0" fill="#800" font-family="monospace"  >
   6
  </text> </g> 
  <g transform="translate(-482,440) rotate(0)" > <text font-size="100.0" fill="#088" font-family="monospace"  >
   OE
  </text> </g> 
  <circle cx="-800" cy="400" r="10"
    style="fill:none;stroke:#800;stroke-width:2"  />
  <line x1="-800" y1="500" x2="-570" y2="500" style="stroke:#800;stroke-width:10;stroke-opacity:1.000000;stroke-linecap:round"/>
  <circle cx="-535" cy="500" r="35"
    style="fill:none;stroke:#800;stroke-width:10"  />
  <g transform="translate(-692,494) rotate(0)" > <text font-size="100.0" fill="#800" font-family="monospace"  >
   7
  </text> </g> 
  <g transform="translate(-482,540) rotate(0)" > <text font-size="100.0" fill="#088" font-family="monospace"  >
   CS
  </text> </g> 
  <circle cx="-800" cy="500" r="10"
    style="fill:none;stroke:#800;stroke-width:2"  />
  <line x1="0" y1="900" x2="0" y2="600" style="stroke:#800;stroke-width:10;stroke-opacity:1.000000;stroke-linecap:round"/>
  <g transform="translate(-15,765) rotate(-90)" > <text font-size="100.0" fill="#800" font-family="monospace"  >
   8
  </text> </g> 
  <g transform="translate(7,550) rotate(-90)" > <text font-size="100.0" fill="#088" font-family="monospace"  >
   GND
  </text> </g> 
  <circle cx="0" cy="900" r="10"
    style="fill:none;stroke:#800;stroke-width:2"  />
  <line x1="800" y1="-500" x2="500" y2="-500" style="stroke:#800;stroke-width:10;stroke-opacity:1.000000;stroke-linecap:round"/>
  <g transform="translate(607,-506) rotate(0)" > <text font-size="100.0" fill="#800" font-family="monospace"  >
   9
  </text> </g> 
  <g transform="translate(220,-460) rotate(0)" > <text font-size="100.0" fill="#088" font-family="monospace"  >
   I/O0
  </text> </g> 
  <circle cx="800" cy="-500" r="10"
    style="fill:none;stroke:#800;stroke-width:2"  />
  <line x1="800" y1="-400" x2="500" y2="-400" style="stroke:#800;stroke-width:10;stroke-opacity:1.000000;stroke-linecap:round"/>
  <g transform="translate(565,-406) rotate(0)" > <text font-size="100.0" fill="#800" font-family="monospace"  >
   10
  </text> </g> 
  <g transform="translate(220,-360) rotate(0)" > <text font-size="100.0" fill="#088" font-family="monospace"  >
   I/O1
  </text> </g> 
  <circle cx="800" cy="-400" r="10"
    style="fill:none;stroke:#800;stroke-width:2"  />
  <line x1="800" y1="-300" x2="500" y2="-300" style="stroke:#800;stroke-width:10;stroke-opacity:1.000000;stroke-linecap:round"/>
  <g transform="translate(565,-306) rotate(0)" > <text font-size="100.0" fill="#800" font-family="monospace"  >
   11
  </text> </g> 
  <g transform="translate(220,-260) rotate(0)" > <text font-size="100.0" fill="#088" font-family="monospace"  >
   I/O2
  </text> </g> 
  <circle cx="800" cy="-300" r="10"
    style="fill:none;stroke:#800;stroke-width:2"  />
  <line x1="800" y1="-200" x2="500" y2="-200" style="stroke:#800;stroke-width:10;stroke-opacity:1.000000;stroke-linecap:round"/>
  <g transform="translate(565,-206) rotate(0)" > <text font-size="100.0" fill="#800" font-family="monospace"  >
   12
  </text> </g> 
  <g transform="translate(220,-160) rotate(0)" > <text font-size="100.0" fill="#088" font-family="monospace"  >
   I/O3
  </text> </g> 
  <circle cx="800" cy="-200" r="10"
    style="fill:none;stroke:#800;stroke-width:2"  />
  <line x1="800" y1="0" x2="570" y2="0" style="stroke:#800;stroke-width:10;stroke-opacity:1.000000;stroke-linecap:round"/>
  <circle cx="535" cy="0" r="35"
    style="fill:none;stroke:#800;stroke-width:10"  />
  <g transform="translate(565,-6) rotate(0)" > <text font-size="100.0" fill="#800" font-family="monospace"  >
   13
  </text> </g> 
  <g transform="translate(280,40) rotate(0)" > <text font-size="100.0" fill="#088" font-family="monospace"  >
   IRQ
  </text> </g> 
  <circle cx="800" cy="0" r="10"
    style="fill:none;stroke:#800;stroke-width:2"  />
  <line x1="800" y1="100" x2="570" y2="100" style="stroke:#800;stroke-width:10;stroke-opacity:1.000000;stroke-linecap:round"/>
  <circle cx="535" cy="100" r="35"
    style="fill:none;stroke:#800;stroke-width:10"  />
  <g transform="translate(565,94) rotate(0)" > <text font-size="100.0" fill="#800" font-family="monospace"  >
   14
  </text> </g> 
  <g transform="translate(220,140) rotate(0)" > <text font-size="100.0" fill="#088" font-family="monospace"  >
   BUSY
  </text> </g> 
  <circle cx="800" cy="100" r="10"
    style="fill:none;stroke:#800;stroke-width:2"  />
  <line x1="800" y1="200" x2="570" y2="200" style="stroke:#800;stroke-width:10;stroke-opacity:1.000000;stroke-linecap:round"/>
  <circle cx="535" cy="200" r="35"
    style="fill:none;stroke:#800;stroke-width:10"  />
  <g transform="translate(565,194) rotate(0)" > <text font-size="100.0" fill="#800" font-family="monospace"  >
   15
  </text> </g> 
  <g transform="translate(160,240) rotate(0)" > <text font-size="100.0" fill="#088" font-family="monospace"  >
   PULSE
  </text> </g> 
  <circle cx="800" cy="200" r="10"
    style="fill:none;stroke:#800;stroke-width:2"  />
  <line x1="800" y1="400" x2="500" y2="400" style="stroke:#800;stroke-width:10;stroke-opacity:1.000000;stroke-linecap:round"/>
  <g transform="translate(565,394) rotate(0)" > <text font-size="100.0" fill="#800" font-family="monospace"  >
   16
  </text> </g> 
  <g transform="translate(340,440) rotate(0)" > <text font-size="100.0" fill="#088" font-family="monospace"  >
   TE
  </text> </g> 
  <circle cx="800" cy="400" r="10"
    style="fill:none;stroke:#800;stroke-width:2"  />
 </g>
</svg>
