<?xml version="1.0"?>
<svg height="365" width="365"  >
 <g style="fill-opacity:1.0; stroke:black;
  stroke-width:1;" transform=" translate( 182.5,182.5 ) scale( 0.15,0.15 )">
  <g transform="translate(-30,-420) rotate(0)" > <text font-size="100.0" fill="#088" font-family="monospace"  >
   U
  </text> </g> 
  <g transform="translate(-180,480) rotate(0)" > <text font-size="100.0" fill="#088" font-family="monospace"  >
   MAX777
  </text> </g> 
  <rect x="-450" y="-400" height="800"
    width="900" style="fill:none;stroke:#800;stroke-width:10" />
  <line x1="-750" y1="-100" x2="-450" y2="-100" style="stroke:#800;stroke-width:10;stroke-opacity:1.000000;stroke-linecap:round"/>
  <g transform="translate(-642,-106) rotate(0)" > <text font-size="100.0" fill="#800" font-family="monospace"  >
   1
  </text> </g> 
  <g transform="translate(-432,-60) rotate(0)" > <text font-size="100.0" fill="#088" font-family="monospace"  >
   ILIM
  </text> </g> 
  <circle cx="-750" cy="-100" r="10"
    style="fill:none;stroke:#800;stroke-width:2"  />
  <line x1="-750" y1="-300" x2="-450" y2="-300" style="stroke:#800;stroke-width:10;stroke-opacity:1.000000;stroke-linecap:round"/>
  <g transform="translate(-642,-306) rotate(0)" > <text font-size="100.0" fill="#800" font-family="monospace"  >
   2
  </text> </g> 
  <g transform="translate(-432,-260) rotate(0)" > <text font-size="100.0" fill="#088" font-family="monospace"  >
   IN
  </text> </g> 
  <circle cx="-750" cy="-300" r="10"
    style="fill:none;stroke:#800;stroke-width:2"  />
  <line x1="-750" y1="300" x2="-450" y2="300" style="stroke:#800;stroke-width:10;stroke-opacity:1.000000;stroke-linecap:round"/>
  <g transform="translate(-642,294) rotate(0)" > <text font-size="100.0" fill="#800" font-family="monospace"  >
   3
  </text> </g> 
  <g transform="translate(-432,340) rotate(0)" > <text font-size="100.0" fill="#088" font-family="monospace"  >
   AGND
  </text> </g> 
  <circle cx="-750" cy="300" r="10"
    style="fill:none;stroke:#800;stroke-width:2"  />
  <line x1="750" y1="300" x2="450" y2="300" style="stroke:#800;stroke-width:10;stroke-opacity:1.000000;stroke-linecap:round"/>
  <g transform="translate(557,294) rotate(0)" > <text font-size="100.0" fill="#800" font-family="monospace"  >
   4
  </text> </g> 
  <g transform="translate(170,340) rotate(0)" > <text font-size="100.0" fill="#088" font-family="monospace"  >
   PGND
  </text> </g> 
  <circle cx="750" cy="300" r="10"
    style="fill:none;stroke:#800;stroke-width:2"  />
  <line x1="750" y1="-300" x2="450" y2="-300" style="stroke:#800;stroke-width:10;stroke-opacity:1.000000;stroke-linecap:round"/>
  <g transform="translate(557,-306) rotate(0)" > <text font-size="100.0" fill="#800" font-family="monospace"  >
   5
  </text> </g> 
  <g transform="translate(290,-260) rotate(0)" > <text font-size="100.0" fill="#088" font-family="monospace"  >
   LX
  </text> </g> 
  <circle cx="750" cy="-300" r="10"
    style="fill:none;stroke:#800;stroke-width:2"  />
  <line x1="750" y1="-100" x2="450" y2="-100" style="stroke:#800;stroke-width:10;stroke-opacity:1.000000;stroke-linecap:round"/>
  <g transform="translate(557,-106) rotate(0)" > <text font-size="100.0" fill="#800" font-family="monospace"  >
   6
  </text> </g> 
  <g transform="translate(230,-60) rotate(0)" > <text font-size="100.0" fill="#088" font-family="monospace"  >
   OUT
  </text> </g> 
  <circle cx="750" cy="-100" r="10"
    style="fill:none;stroke:#800;stroke-width:2"  />
  <line x1="-750" y1="100" x2="-520" y2="100" style="stroke:#800;stroke-width:10;stroke-opacity:1.000000;stroke-linecap:round"/>
  <circle cx="-485" cy="100" r="35"
    style="fill:none;stroke:#800;stroke-width:10"  />
  <g transform="translate(-642,94) rotate(0)" > <text font-size="100.0" fill="#800" font-family="monospace"  >
   7
  </text> </g> 
  <g transform="translate(-432,140) rotate(0)" > <text font-size="100.0" fill="#088" font-family="monospace"  >
   SHDN
  </text> </g> 
  <circle cx="-750" cy="100" r="10"
    style="fill:none;stroke:#800;stroke-width:2"  />
 </g>
</svg>
