<?xml version="1.0"?>
<svg height="410" width="410"  >
 <g style="fill-opacity:1.0; stroke:black;
  stroke-width:1;" transform=" translate( 205.0,205.0 ) scale( 0.15,0.15 )">
  <g transform="translate(-35,-65) rotate(0)" > <text font-size="116.666666667" fill="#088" font-family="monospace"  >
   U
  </text> </g> 
  <g transform="translate(-280,135) rotate(0)" > <text font-size="116.666666667" fill="#088" font-family="monospace"  >
   MB88303P
  </text> </g> 
  <rect x="-500" y="-750" height="1500"
    width="1000" style="fill:none;stroke:#800;stroke-width:10" />
  <line x1="-800" y1="650" x2="-570" y2="650" style="stroke:#800;stroke-width:10;stroke-opacity:1.000000;stroke-linecap:round"/>
  <circle cx="-535" cy="650" r="35"
    style="fill:none;stroke:#800;stroke-width:10"  />
  <g transform="translate(-692,644) rotate(0)" > <text font-size="100.0" fill="#800" font-family="monospace"  >
   1
  </text> </g> 
  <g transform="translate(-482,690) rotate(0)" > <text font-size="100.0" fill="#088" font-family="monospace"  >
   RESET
  </text> </g> 
  <circle cx="-800" cy="650" r="10"
    style="fill:none;stroke:#800;stroke-width:2"  />
  <line x1="800" y1="-150" x2="500" y2="-150" style="stroke:#800;stroke-width:10;stroke-opacity:1.000000;stroke-linecap:round"/>
  <g transform="translate(607,-156) rotate(0)" > <text font-size="100.0" fill="#800" font-family="monospace"  >
   5
  </text> </g> 
  <g transform="translate(280,-110) rotate(0)" > <text font-size="100.0" fill="#088" font-family="monospace"  >
   VOW
  </text> </g> 
  <circle cx="800" cy="-150" r="10"
    style="fill:none;stroke:#800;stroke-width:2"  />
  <line x1="800" y1="50" x2="570" y2="50" style="stroke:#800;stroke-width:10;stroke-opacity:1.000000;stroke-linecap:round"/>
  <circle cx="535" cy="50" r="35"
    style="fill:none;stroke:#800;stroke-width:10"  />
  <g transform="translate(607,44) rotate(0)" > <text font-size="100.0" fill="#800" font-family="monospace"  >
   6
  </text> </g> 
  <g transform="translate(280,90) rotate(0)" > <text font-size="100.0" fill="#088" font-family="monospace"  >
   VOB
  </text> </g> 
  <circle cx="800" cy="50" r="10"
    style="fill:none;stroke:#800;stroke-width:2"  />
  <line x1="800" y1="450" x2="570" y2="450" style="stroke:#800;stroke-width:10;stroke-opacity:1.000000;stroke-linecap:round"/>
  <circle cx="535" cy="450" r="35"
    style="fill:none;stroke:#800;stroke-width:10"  />
  <g transform="translate(607,444) rotate(0)" > <text font-size="100.0" fill="#800" font-family="monospace"  >
   7
  </text> </g> 
  <g transform="translate(160,490) rotate(0)" > <text font-size="100.0" fill="#088" font-family="monospace"  >
   VSYNC
  </text> </g> 
  <circle cx="800" cy="450" r="10"
    style="fill:none;stroke:#800;stroke-width:2"  />
  <line x1="800" y1="650" x2="570" y2="650" style="stroke:#800;stroke-width:10;stroke-opacity:1.000000;stroke-linecap:round"/>
  <circle cx="535" cy="650" r="35"
    style="fill:none;stroke:#800;stroke-width:10"  />
  <g transform="translate(607,644) rotate(0)" > <text font-size="100.0" fill="#800" font-family="monospace"  >
   8
  </text> </g> 
  <g transform="translate(160,690) rotate(0)" > <text font-size="100.0" fill="#088" font-family="monospace"  >
   HSYNC
  </text> </g> 
  <circle cx="800" cy="650" r="10"
    style="fill:none;stroke:#800;stroke-width:2"  />
  <line x1="800" y1="-650" x2="500" y2="-650" style="stroke:#800;stroke-width:10;stroke-opacity:1.000000;stroke-linecap:round"/>
  <g transform="translate(607,-656) rotate(0)" > <text font-size="100.0" fill="#800" font-family="monospace"  >
   9
  </text> </g> 
  <g transform="translate(160,-610) rotate(0)" > <text font-size="100.0" fill="#088" font-family="monospace"  >
   EX/RC
  </text> </g> 
  <circle cx="800" cy="-650" r="10"
    style="fill:none;stroke:#800;stroke-width:2"  />
  <line x1="800" y1="-450" x2="500" y2="-450" style="stroke:#800;stroke-width:10;stroke-opacity:1.000000;stroke-linecap:round"/>
  <g transform="translate(565,-456) rotate(0)" > <text font-size="100.0" fill="#800" font-family="monospace"  >
   10
  </text> </g> 
  <g transform="translate(280,-410) rotate(0)" > <text font-size="100.0" fill="#088" font-family="monospace"  >
   X/R
  </text> </g> 
  <circle cx="800" cy="-450" r="10"
    style="fill:none;stroke:#800;stroke-width:2"  />
  <line x1="-800" y1="-50" x2="-500" y2="-50" style="stroke:#800;stroke-width:10;stroke-opacity:1.000000;stroke-linecap:round"/>
  <g transform="translate(-735,-56) rotate(0)" > <text font-size="100.0" fill="#800" font-family="monospace"  >
   20
  </text> </g> 
  <g transform="translate(-482,-10) rotate(0)" > <text font-size="100.0" fill="#088" font-family="monospace"  >
   DA6
  </text> </g> 
  <circle cx="-800" cy="-50" r="10"
    style="fill:none;stroke:#800;stroke-width:2"  />
  <g transform="translate(-515,780) rotate(-90)" > <text font-size="100.0" fill="#888" font-family="monospace"  >
   11
  </text> </g> 
  <g transform="translate(-492,700) rotate(-90)" > <text font-size="100.0" fill="#888" font-family="monospace"  >
   GND
  </text> </g> 
  <circle cx="-500" cy="750" r="10"
    style="fill:none;stroke:#888;stroke-width:2"  />
  <line x1="-800" y1="50" x2="-500" y2="50" style="stroke:#800;stroke-width:10;stroke-opacity:1.000000;stroke-linecap:round"/>
  <g transform="translate(-735,44) rotate(0)" > <text font-size="100.0" fill="#800" font-family="monospace"  >
   21
  </text> </g> 
  <g transform="translate(-482,90) rotate(0)" > <text font-size="100.0" fill="#088" font-family="monospace"  >
   DA7
  </text> </g> 
  <circle cx="-800" cy="50" r="10"
    style="fill:none;stroke:#800;stroke-width:2"  />
  <line x1="-800" y1="450" x2="-500" y2="450" style="stroke:#800;stroke-width:10;stroke-opacity:1.000000;stroke-linecap:round"/>
  <g transform="translate(-735,444) rotate(0)" > <text font-size="100.0" fill="#800" font-family="monospace"  >
   12
  </text> </g> 
  <g transform="translate(-482,490) rotate(0)" > <text font-size="100.0" fill="#088" font-family="monospace"  >
   LDI
  </text> </g> 
  <circle cx="-800" cy="450" r="10"
    style="fill:none;stroke:#800;stroke-width:2"  />
  <g transform="translate(-515,-720) rotate(-90)" > <text font-size="100.0" fill="#888" font-family="monospace"  >
   22
  </text> </g> 
  <g transform="translate(-492,-800) rotate(-90)" > <text font-size="100.0" fill="#888" font-family="monospace"  >
   VCC
  </text> </g> 
  <circle cx="-500" cy="-750" r="10"
    style="fill:none;stroke:#888;stroke-width:2"  />
  <line x1="-800" y1="250" x2="-500" y2="250" style="stroke:#800;stroke-width:10;stroke-opacity:1.000000;stroke-linecap:round"/>
  <g transform="translate(-735,244) rotate(0)" > <text font-size="100.0" fill="#800" font-family="monospace"  >
   13
  </text> </g> 
  <g transform="translate(-482,290) rotate(0)" > <text font-size="100.0" fill="#088" font-family="monospace"  >
   ADM
  </text> </g> 
  <circle cx="-800" cy="250" r="10"
    style="fill:none;stroke:#800;stroke-width:2"  />
  <line x1="-800" y1="-650" x2="-500" y2="-650" style="stroke:#800;stroke-width:10;stroke-opacity:1.000000;stroke-linecap:round"/>
  <g transform="translate(-735,-656) rotate(0)" > <text font-size="100.0" fill="#800" font-family="monospace"  >
   14
  </text> </g> 
  <g transform="translate(-482,-610) rotate(0)" > <text font-size="100.0" fill="#088" font-family="monospace"  >
   DA0
  </text> </g> 
  <circle cx="-800" cy="-650" r="10"
    style="fill:none;stroke:#800;stroke-width:2"  />
  <line x1="-800" y1="-550" x2="-500" y2="-550" style="stroke:#800;stroke-width:10;stroke-opacity:1.000000;stroke-linecap:round"/>
  <g transform="translate(-735,-556) rotate(0)" > <text font-size="100.0" fill="#800" font-family="monospace"  >
   15
  </text> </g> 
  <g transform="translate(-482,-510) rotate(0)" > <text font-size="100.0" fill="#088" font-family="monospace"  >
   DA1
  </text> </g> 
  <circle cx="-800" cy="-550" r="10"
    style="fill:none;stroke:#800;stroke-width:2"  />
  <line x1="-800" y1="-450" x2="-500" y2="-450" style="stroke:#800;stroke-width:10;stroke-opacity:1.000000;stroke-linecap:round"/>
  <g transform="translate(-735,-456) rotate(0)" > <text font-size="100.0" fill="#800" font-family="monospace"  >
   16
  </text> </g> 
  <g transform="translate(-482,-410) rotate(0)" > <text font-size="100.0" fill="#088" font-family="monospace"  >
   DA2
  </text> </g> 
  <circle cx="-800" cy="-450" r="10"
    style="fill:none;stroke:#800;stroke-width:2"  />
  <line x1="-800" y1="-350" x2="-500" y2="-350" style="stroke:#800;stroke-width:10;stroke-opacity:1.000000;stroke-linecap:round"/>
  <g transform="translate(-735,-356) rotate(0)" > <text font-size="100.0" fill="#800" font-family="monospace"  >
   17
  </text> </g> 
  <g transform="translate(-482,-310) rotate(0)" > <text font-size="100.0" fill="#088" font-family="monospace"  >
   DA3
  </text> </g> 
  <circle cx="-800" cy="-350" r="10"
    style="fill:none;stroke:#800;stroke-width:2"  />
  <line x1="-800" y1="-250" x2="-500" y2="-250" style="stroke:#800;stroke-width:10;stroke-opacity:1.000000;stroke-linecap:round"/>
  <g transform="translate(-735,-256) rotate(0)" > <text font-size="100.0" fill="#800" font-family="monospace"  >
   18
  </text> </g> 
  <g transform="translate(-482,-210) rotate(0)" > <text font-size="100.0" fill="#088" font-family="monospace"  >
   DA4
  </text> </g> 
  <circle cx="-800" cy="-250" r="10"
    style="fill:none;stroke:#800;stroke-width:2"  />
  <line x1="-800" y1="-150" x2="-500" y2="-150" style="stroke:#800;stroke-width:10;stroke-opacity:1.000000;stroke-linecap:round"/>
  <g transform="translate(-735,-156) rotate(0)" > <text font-size="100.0" fill="#800" font-family="monospace"  >
   19
  </text> </g> 
  <g transform="translate(-482,-110) rotate(0)" > <text font-size="100.0" fill="#088" font-family="monospace"  >
   DA5
  </text> </g> 
  <circle cx="-800" cy="-150" r="10"
    style="fill:none;stroke:#800;stroke-width:2"  />
 </g>
</svg>
