<?xml version="1.0"?>
<svg height="545" width="545"  >
 <g style="fill-opacity:1.0; stroke:black;
  stroke-width:1;" transform=" translate( 272.5,272.5 ) scale( 0.15,0.15 )">
  <g transform="translate(-35,-65) rotate(0)" > <text font-size="116.666666667" fill="#088" font-family="monospace"  >
   U
  </text> </g> 
  <g transform="translate(-245,135) rotate(0)" > <text font-size="116.666666667" fill="#088" font-family="monospace"  >
   TDA7260
  </text> </g> 
  <rect x="-1000" y="-750" height="1500"
    width="2000" style="fill:none;stroke:#800;stroke-width:10" />
  <line x1="0" y1="-1050" x2="0" y2="-750" style="stroke:#800;stroke-width:10;stroke-opacity:1.000000;stroke-linecap:round"/>
  <g transform="translate(-15,-885) rotate(-90)" > <text font-size="100.0" fill="#800" font-family="monospace"  >
   1
  </text> </g> 
  <g transform="translate(7,-580) rotate(-90)" > <text font-size="100.0" fill="#088" font-family="monospace"  >
   SI
  </text> </g> 
  <circle cx="0" cy="-1050" r="10"
    style="fill:none;stroke:#800;stroke-width:2"  />
  <line x1="-300" y1="-1050" x2="-300" y2="-820" style="stroke:#800;stroke-width:10;stroke-opacity:1.000000;stroke-linecap:round"/>
  <circle cx="-300" cy="-785" r="35"
    style="fill:none;stroke:#800;stroke-width:10"  />
  <g transform="translate(-315,-885) rotate(-90)" > <text font-size="100.0" fill="#800" font-family="monospace"  >
   2
  </text> </g> 
  <g transform="translate(-292,-580) rotate(-90)" > <text font-size="100.0" fill="#088" font-family="monospace"  >
   I-
  </text> </g> 
  <circle cx="-300" cy="-1050" r="10"
    style="fill:none;stroke:#800;stroke-width:2"  />
  <line x1="-500" y1="-1050" x2="-500" y2="-750" style="stroke:#800;stroke-width:10;stroke-opacity:1.000000;stroke-linecap:round"/>
  <g transform="translate(-515,-885) rotate(-90)" > <text font-size="100.0" fill="#800" font-family="monospace"  >
   3
  </text> </g> 
  <g transform="translate(-492,-580) rotate(-90)" > <text font-size="100.0" fill="#088" font-family="monospace"  >
   I+
  </text> </g> 
  <circle cx="-500" cy="-1050" r="10"
    style="fill:none;stroke:#800;stroke-width:2"  />
  <line x1="-700" y1="-1050" x2="-700" y2="-750" style="stroke:#800;stroke-width:10;stroke-opacity:1.000000;stroke-linecap:round"/>
  <g transform="translate(-715,-885) rotate(-90)" > <text font-size="100.0" fill="#800" font-family="monospace"  >
   4
  </text> </g> 
  <g transform="translate(-692,-580) rotate(-90)" > <text font-size="100.0" fill="#088" font-family="monospace"  >
   S0
  </text> </g> 
  <circle cx="-700" cy="-1050" r="10"
    style="fill:none;stroke:#800;stroke-width:2"  />
  <line x1="-1300" y1="-150" x2="-1070" y2="-150" style="stroke:#800;stroke-width:10;stroke-opacity:1.000000;stroke-linecap:round"/>
  <circle cx="-1035" cy="-150" r="35"
    style="fill:none;stroke:#800;stroke-width:10"  />
  <g transform="translate(-1192,-156) rotate(0)" > <text font-size="100.0" fill="#800" font-family="monospace"  >
   5
  </text> </g> 
  <g transform="translate(-982,-110) rotate(0)" > <text font-size="100.0" fill="#088" font-family="monospace"  >
   E-
  </text> </g> 
  <circle cx="-1300" cy="-150" r="10"
    style="fill:none;stroke:#800;stroke-width:2"  />
  <line x1="-1300" y1="50" x2="-1000" y2="50" style="stroke:#800;stroke-width:10;stroke-opacity:1.000000;stroke-linecap:round"/>
  <g transform="translate(-1192,44) rotate(0)" > <text font-size="100.0" fill="#800" font-family="monospace"  >
   6
  </text> </g> 
  <g transform="translate(-982,90) rotate(0)" > <text font-size="100.0" fill="#088" font-family="monospace"  >
   E+
  </text> </g> 
  <circle cx="-1300" cy="50" r="10"
    style="fill:none;stroke:#800;stroke-width:2"  />
  <line x1="-1300" y1="350" x2="-1000" y2="350" style="stroke:#800;stroke-width:10;stroke-opacity:1.000000;stroke-linecap:round"/>
  <g transform="translate(-1192,344) rotate(0)" > <text font-size="100.0" fill="#800" font-family="monospace"  >
   7
  </text> </g> 
  <g transform="translate(-982,390) rotate(0)" > <text font-size="100.0" fill="#088" font-family="monospace"  >
   LIM
  </text> </g> 
  <circle cx="-1300" cy="350" r="10"
    style="fill:none;stroke:#800;stroke-width:2"  />
  <line x1="-500" y1="1050" x2="-500" y2="750" style="stroke:#800;stroke-width:10;stroke-opacity:1.000000;stroke-linecap:round"/>
  <g transform="translate(-515,915) rotate(-90)" > <text font-size="100.0" fill="#800" font-family="monospace"  >
   8
  </text> </g> 
  <g transform="translate(-492,700) rotate(-90)" > <text font-size="100.0" fill="#088" font-family="monospace"  >
   GNDA
  </text> </g> 
  <circle cx="-500" cy="1050" r="10"
    style="fill:none;stroke:#800;stroke-width:2"  />
  <line x1="-200" y1="1050" x2="-200" y2="750" style="stroke:#800;stroke-width:10;stroke-opacity:1.000000;stroke-linecap:round"/>
  <g transform="translate(-215,915) rotate(-90)" > <text font-size="100.0" fill="#800" font-family="monospace"  >
   9
  </text> </g> 
  <g transform="translate(-192,700) rotate(-90)" > <text font-size="100.0" fill="#088" font-family="monospace"  >
   +10
  </text> </g> 
  <circle cx="-200" cy="1050" r="10"
    style="fill:none;stroke:#800;stroke-width:2"  />
  <line x1="100" y1="1050" x2="100" y2="750" style="stroke:#800;stroke-width:10;stroke-opacity:1.000000;stroke-linecap:round"/>
  <g transform="translate(85,930) rotate(-90)" > <text font-size="100.0" fill="#800" font-family="monospace"  >
   10
  </text> </g> 
  <g transform="translate(107,700) rotate(-90)" > <text font-size="100.0" fill="#088" font-family="monospace"  >
   CD
  </text> </g> 
  <circle cx="100" cy="1050" r="10"
    style="fill:none;stroke:#800;stroke-width:2"  />
  <line x1="200" y1="-1050" x2="200" y2="-750" style="stroke:#800;stroke-width:10;stroke-opacity:1.000000;stroke-linecap:round"/>
  <g transform="translate(185,-870) rotate(-90)" > <text font-size="100.0" fill="#800" font-family="monospace"  >
   20
  </text> </g> 
  <g transform="translate(207,-460) rotate(-90)" > <text font-size="100.0" fill="#088" font-family="monospace"  >
   MUTE
  </text> </g> 
  <circle cx="200" cy="-1050" r="10"
    style="fill:none;stroke:#800;stroke-width:2"  />
  <line x1="600" y1="1050" x2="600" y2="750" style="stroke:#800;stroke-width:10;stroke-opacity:1.000000;stroke-linecap:round"/>
  <g transform="translate(585,930) rotate(-90)" > <text font-size="100.0" fill="#800" font-family="monospace"  >
   11
  </text> </g> 
  <g transform="translate(607,700) rotate(-90)" > <text font-size="100.0" fill="#088" font-family="monospace"  >
   GND
  </text> </g> 
  <circle cx="600" cy="1050" r="10"
    style="fill:none;stroke:#800;stroke-width:2"  />
  <line x1="1300" y1="650" x2="1000" y2="650" style="stroke:#800;stroke-width:10;stroke-opacity:1.000000;stroke-linecap:round"/>
  <g transform="translate(1065,644) rotate(0)" > <text font-size="100.0" fill="#800" font-family="monospace"  >
   12
  </text> </g> 
  <g transform="translate(840,690) rotate(0)" > <text font-size="100.0" fill="#088" font-family="monospace"  >
   G4
  </text> </g> 
  <circle cx="1300" cy="650" r="10"
    style="fill:none;stroke:#800;stroke-width:2"  />
  <line x1="1300" y1="450" x2="1000" y2="450" style="stroke:#800;stroke-width:10;stroke-opacity:1.000000;stroke-linecap:round"/>
  <g transform="translate(1065,444) rotate(0)" > <text font-size="100.0" fill="#800" font-family="monospace"  >
   13
  </text> </g> 
  <g transform="translate(600,490) rotate(0)" > <text font-size="100.0" fill="#088" font-family="monospace"  >
   POMPE2
  </text> </g> 
  <circle cx="1300" cy="450" r="10"
    style="fill:none;stroke:#800;stroke-width:2"  />
  <line x1="1300" y1="250" x2="1000" y2="250" style="stroke:#800;stroke-width:10;stroke-opacity:1.000000;stroke-linecap:round"/>
  <g transform="translate(1065,244) rotate(0)" > <text font-size="100.0" fill="#800" font-family="monospace"  >
   14
  </text> </g> 
  <g transform="translate(840,290) rotate(0)" > <text font-size="100.0" fill="#088" font-family="monospace"  >
   G3
  </text> </g> 
  <circle cx="1300" cy="250" r="10"
    style="fill:none;stroke:#800;stroke-width:2"  />
  <line x1="1300" y1="-50" x2="1000" y2="-50" style="stroke:#800;stroke-width:10;stroke-opacity:1.000000;stroke-linecap:round"/>
  <g transform="translate(1065,-56) rotate(0)" > <text font-size="100.0" fill="#800" font-family="monospace"  >
   15
  </text> </g> 
  <g transform="translate(840,-10) rotate(0)" > <text font-size="100.0" fill="#088" font-family="monospace"  >
   G2
  </text> </g> 
  <circle cx="1300" cy="-50" r="10"
    style="fill:none;stroke:#800;stroke-width:2"  />
  <line x1="1300" y1="-250" x2="1000" y2="-250" style="stroke:#800;stroke-width:10;stroke-opacity:1.000000;stroke-linecap:round"/>
  <g transform="translate(1065,-256) rotate(0)" > <text font-size="100.0" fill="#800" font-family="monospace"  >
   16
  </text> </g> 
  <g transform="translate(600,-210) rotate(0)" > <text font-size="100.0" fill="#088" font-family="monospace"  >
   POMPE1
  </text> </g> 
  <circle cx="1300" cy="-250" r="10"
    style="fill:none;stroke:#800;stroke-width:2"  />
  <line x1="1300" y1="-450" x2="1000" y2="-450" style="stroke:#800;stroke-width:10;stroke-opacity:1.000000;stroke-linecap:round"/>
  <g transform="translate(1065,-456) rotate(0)" > <text font-size="100.0" fill="#800" font-family="monospace"  >
   17
  </text> </g> 
  <g transform="translate(840,-410) rotate(0)" > <text font-size="100.0" fill="#088" font-family="monospace"  >
   G1
  </text> </g> 
  <circle cx="1300" cy="-450" r="10"
    style="fill:none;stroke:#800;stroke-width:2"  />
  <line x1="1300" y1="-650" x2="1000" y2="-650" style="stroke:#800;stroke-width:10;stroke-opacity:1.000000;stroke-linecap:round"/>
  <g transform="translate(1065,-656) rotate(0)" > <text font-size="100.0" fill="#800" font-family="monospace"  >
   18
  </text> </g> 
  <g transform="translate(840,-610) rotate(0)" > <text font-size="100.0" fill="#088" font-family="monospace"  >
   CL
  </text> </g> 
  <circle cx="1300" cy="-650" r="10"
    style="fill:none;stroke:#800;stroke-width:2"  />
  <line x1="500" y1="-1050" x2="500" y2="-750" style="stroke:#800;stroke-width:10;stroke-opacity:1.000000;stroke-linecap:round"/>
  <g transform="translate(485,-870) rotate(-90)" > <text font-size="100.0" fill="#800" font-family="monospace"  >
   19
  </text> </g> 
  <g transform="translate(507,-520) rotate(-90)" > <text font-size="100.0" fill="#088" font-family="monospace"  >
   VP+
  </text> </g> 
  <circle cx="500" cy="-1050" r="10"
    style="fill:none;stroke:#800;stroke-width:2"  />
 </g>
</svg>
