<?xml version="1.0"?>
<svg height="186" width="145"  >
 <g style="fill-opacity:1.0; stroke:black;
  stroke-width:1;" transform=" translate( 72.5,93.125 ) scale( 0.15,0.15 )">
  <g transform="translate(80,-205) rotate(0)" > <text font-size="66.6666666667" fill="#088" font-family="monospace"  >
   U
  </text> </g> 
  <g transform="translate(-65,225) rotate(0)" > <text font-size="66.6666666667" fill="#088" font-family="monospace"  >
   TL431LP
  </text> </g> 
  <rect x="-100" y="-200" height="400"
    width="200" style="fill:none;stroke:#800;stroke-width:10" />
  <line x1="0" y1="50" x2="0" y2="200" style="stroke:#800;stroke-width:10;stroke-opacity:1.000000;stroke-linecap:round"/>
  <line x1="0" y1="-200" x2="0" y2="-50" style="stroke:#800;stroke-width:10;stroke-opacity:1.000000;stroke-linecap:round"/>
  <line x1="100" y1="0" x2="37" y2="0" style="stroke:#800;stroke-width:10;stroke-opacity:1.000000;stroke-linecap:round"/>
  <line x1="75" y1="-50" x2="-75" y2="-50" style="stroke:#800;stroke-width:10;stroke-opacity:1.000000;stroke-linecap:round"/>
  <line x1="-75" y1="-50" x2="-75" y2="-75" style="stroke:#800;stroke-width:10;stroke-opacity:1.000000;stroke-linecap:round"/>
  <line x1="-75" y1="50" x2="75" y2="50" style="stroke:#800;stroke-width:10;stroke-opacity:1.000000;stroke-linecap:round"/>
  <line x1="75" y1="50" x2="0" y2="-50" style="stroke:#800;stroke-width:10;stroke-opacity:1.000000;stroke-linecap:round"/>
  <line x1="0" y1="-50" x2="-75" y2="50" style="stroke:#800;stroke-width:10;stroke-opacity:1.000000;stroke-linecap:round"/>
  <line x1="0" y1="-350" x2="0" y2="-200" style="stroke:#800;stroke-width:10;stroke-opacity:1.000000;stroke-linecap:round"/>
  <g transform="translate(-10,-265) rotate(-90)" > <text font-size="66.6666666667" fill="#800" font-family="monospace"  >
   1
  </text> </g> 
  <g transform="translate(5,-126) rotate(-90)" > <text font-size="66.6666666667" fill="#088" font-family="monospace"  >
   K
  </text> </g> 
  <circle cx="0" cy="-350" r="10"
    style="fill:none;stroke:#800;stroke-width:2"  />
  <line x1="250" y1="0" x2="100" y2="0" style="stroke:#800;stroke-width:10;stroke-opacity:1.000000;stroke-linecap:round"/>
  <g transform="translate(146,-6) rotate(0)" > <text font-size="66.6666666667" fill="#800" font-family="monospace"  >
   2
  </text> </g> 
  <g transform="translate(20,30) rotate(0)" > <text font-size="66.6666666667" fill="#088" font-family="monospace"  >
   R
  </text> </g> 
  <circle cx="250" cy="0" r="10"
    style="fill:none;stroke:#800;stroke-width:2"  />
  <line x1="0" y1="350" x2="0" y2="200" style="stroke:#800;stroke-width:10;stroke-opacity:1.000000;stroke-linecap:round"/>
  <g transform="translate(-10,285) rotate(-90)" > <text font-size="66.6666666667" fill="#800" font-family="monospace"  >
   3
  </text> </g> 
  <g transform="translate(5,166) rotate(-90)" > <text font-size="66.6666666667" fill="#088" font-family="monospace"  >
   A
  </text> </g> 
  <circle cx="0" cy="350" r="10"
    style="fill:none;stroke:#800;stroke-width:2"  />
 </g>
</svg>
