<?xml version="1.0"?>
<svg height="384" width="357"  >
 <g style="fill-opacity:1.0; stroke:black;
  stroke-width:1;" transform=" translate( 178.75,192.25 ) scale( 0.15,0.15 )">
  <g transform="translate(170,-620) rotate(0)" > <text font-size="100.0" fill="#088" font-family="monospace"  >
   U
  </text> </g> 
  <g transform="translate(100,680) rotate(0)" > <text font-size="100.0" fill="#088" font-family="monospace"  >
   X9118
  </text> </g> 
  <line x1="-750" y1="200" x2="-450" y2="200" style="stroke:#800;stroke-width:10;stroke-opacity:1.000000;stroke-linecap:round"/>
  <g transform="translate(-635,194) rotate(0)" > <text font-size="83.3333333333" fill="#800" font-family="monospace"  >
   1
  </text> </g> 
  <g transform="translate(-432,235) rotate(0)" > <text font-size="83.3333333333" fill="#088" font-family="monospace"  >
   V+
  </text> </g> 
  <circle cx="-750" cy="200" r="10"
    style="fill:none;stroke:#800;stroke-width:2"  />
  <line x1="-750" y1="-300" x2="-450" y2="-300" style="stroke:#800;stroke-width:10;stroke-opacity:1.000000;stroke-linecap:round"/>
  <g transform="translate(-635,-306) rotate(0)" > <text font-size="83.3333333333" fill="#800" font-family="monospace"  >
   3
  </text> </g> 
  <g transform="translate(-432,-265) rotate(0)" > <text font-size="83.3333333333" fill="#088" font-family="monospace"  >
   A0
  </text> </g> 
  <circle cx="-750" cy="-300" r="10"
    style="fill:none;stroke:#800;stroke-width:2"  />
  <line x1="-410" y1="-500" x2="-450" y2="-460" style="stroke:#800;stroke-width:10;stroke-opacity:1.000000;stroke-linecap:round"/>
  <line x1="-450" y1="-460" x2="-450" y2="-540" style="stroke:#800;stroke-width:10;stroke-opacity:1.000000;stroke-linecap:round"/>
  <line x1="-450" y1="-540" x2="-410" y2="-500" style="stroke:#800;stroke-width:10;stroke-opacity:1.000000;stroke-linecap:round"/>
  <line x1="-750" y1="-500" x2="-450" y2="-500" style="stroke:#800;stroke-width:10;stroke-opacity:1.000000;stroke-linecap:round"/>
  <g transform="translate(-635,-506) rotate(0)" > <text font-size="83.3333333333" fill="#800" font-family="monospace"  >
   4
  </text> </g> 
  <g transform="translate(-432,-465) rotate(0)" > <text font-size="83.3333333333" fill="#088" font-family="monospace"  >
   SCL
  </text> </g> 
  <circle cx="-750" cy="-500" r="10"
    style="fill:none;stroke:#800;stroke-width:2"  />
  <line x1="-750" y1="-400" x2="-450" y2="-400" style="stroke:#800;stroke-width:10;stroke-opacity:1.000000;stroke-linecap:round"/>
  <g transform="translate(-635,-406) rotate(0)" > <text font-size="83.3333333333" fill="#800" font-family="monospace"  >
   6
  </text> </g> 
  <g transform="translate(-432,-365) rotate(0)" > <text font-size="83.3333333333" fill="#088" font-family="monospace"  >
   SDA
  </text> </g> 
  <circle cx="-750" cy="-400" r="10"
    style="fill:none;stroke:#800;stroke-width:2"  />
  <line x1="-750" y1="550" x2="-450" y2="550" style="stroke:#800;stroke-width:10;stroke-opacity:1.000000;stroke-linecap:round"/>
  <g transform="translate(-635,544) rotate(0)" > <text font-size="83.3333333333" fill="#800" font-family="monospace"  >
   7
  </text> </g> 
  <g transform="translate(-432,585) rotate(0)" > <text font-size="83.3333333333" fill="#088" font-family="monospace"  >
   VSS
  </text> </g> 
  <circle cx="-750" cy="550" r="10"
    style="fill:none;stroke:#800;stroke-width:2"  />
  <line x1="-750" y1="300" x2="-450" y2="300" style="stroke:#800;stroke-width:10;stroke-opacity:1.000000;stroke-linecap:round"/>
  <g transform="translate(-635,294) rotate(0)" > <text font-size="83.3333333333" fill="#800" font-family="monospace"  >
   8
  </text> </g> 
  <g transform="translate(-432,335) rotate(0)" > <text font-size="83.3333333333" fill="#088" font-family="monospace"  >
   V-
  </text> </g> 
  <circle cx="-750" cy="300" r="10"
    style="fill:none;stroke:#800;stroke-width:2"  />
  <line x1="-750" y1="-200" x2="-450" y2="-200" style="stroke:#800;stroke-width:10;stroke-opacity:1.000000;stroke-linecap:round"/>
  <g transform="translate(-635,-206) rotate(0)" > <text font-size="83.3333333333" fill="#800" font-family="monospace"  >
   9
  </text> </g> 
  <g transform="translate(-432,-165) rotate(0)" > <text font-size="83.3333333333" fill="#088" font-family="monospace"  >
   A1
  </text> </g> 
  <circle cx="-750" cy="-200" r="10"
    style="fill:none;stroke:#800;stroke-width:2"  />
  <line x1="-750" y1="450" x2="-450" y2="450" style="stroke:#800;stroke-width:10;stroke-opacity:1.000000;stroke-linecap:round"/>
  <g transform="translate(-670,444) rotate(0)" > <text font-size="83.3333333333" fill="#800" font-family="monospace"  >
   14
  </text> </g> 
  <g transform="translate(-432,485) rotate(0)" > <text font-size="83.3333333333" fill="#088" font-family="monospace"  >
   VCC
  </text> </g> 
  <circle cx="-750" cy="450" r="10"
    style="fill:none;stroke:#800;stroke-width:2"  />
  <rect x="-450" y="-600" height="1200"
    width="900" style="fill:none;stroke:#800;stroke-width:10" />
  <line x1="-530" y1="0" x2="-530" y2="-40" style="stroke:#800;stroke-width:10;stroke-opacity:1.000000;stroke-linecap:round"/>
  <line x1="-530" y1="-40" x2="-450" y2="0" style="stroke:#800;stroke-width:10;stroke-opacity:1.000000;stroke-linecap:round"/>
  <line x1="-750" y1="0" x2="-450" y2="0" style="stroke:#800;stroke-width:10;stroke-opacity:1.000000;stroke-linecap:round"/>
  <g transform="translate(-635,-6) rotate(0)" > <text font-size="83.3333333333" fill="#800" font-family="monospace"  >
   5
  </text> </g> 
  <g transform="translate(-432,35) rotate(0)" > <text font-size="83.3333333333" fill="#088" font-family="monospace"  >
   WrProt
  </text> </g> 
  <circle cx="-750" cy="0" r="10"
    style="fill:none;stroke:#800;stroke-width:2"  />
  <line x1="750" y1="-400" x2="450" y2="-400" style="stroke:#800;stroke-width:10;stroke-opacity:1.000000;stroke-linecap:round"/>
  <g transform="translate(529,-406) rotate(0)" > <text font-size="83.3333333333" fill="#800" font-family="monospace"  >
   11
  </text> </g> 
  <g transform="translate(260,-365) rotate(0)" > <text font-size="83.3333333333" fill="#088" font-family="monospace"  >
   RW0
  </text> </g> 
  <circle cx="750" cy="-400" r="10"
    style="fill:none;stroke:#800;stroke-width:2"  />
  <line x1="750" y1="-500" x2="450" y2="-500" style="stroke:#800;stroke-width:10;stroke-opacity:1.000000;stroke-linecap:round"/>
  <g transform="translate(529,-506) rotate(0)" > <text font-size="83.3333333333" fill="#800" font-family="monospace"  >
   12
  </text> </g> 
  <g transform="translate(260,-465) rotate(0)" > <text font-size="83.3333333333" fill="#088" font-family="monospace"  >
   RH0
  </text> </g> 
  <circle cx="750" cy="-500" r="10"
    style="fill:none;stroke:#800;stroke-width:2"  />
  <line x1="750" y1="-300" x2="450" y2="-300" style="stroke:#800;stroke-width:10;stroke-opacity:1.000000;stroke-linecap:round"/>
  <g transform="translate(529,-306) rotate(0)" > <text font-size="83.3333333333" fill="#800" font-family="monospace"  >
   13
  </text> </g> 
  <g transform="translate(260,-265) rotate(0)" > <text font-size="83.3333333333" fill="#088" font-family="monospace"  >
   RL0
  </text> </g> 
  <circle cx="750" cy="-300" r="10"
    style="fill:none;stroke:#800;stroke-width:2"  />
 </g>
</svg>
