<?xml version="1.0"?>
<svg height="280" width="192"  >
 <g style="fill-opacity:1.0; stroke:black;
  stroke-width:1;" transform=" translate( 96.25,140.25 ) scale( 0.15,0.15 )">
  <g transform="translate(-220,-280) rotate(0)" > <text font-size="66.6666666667" fill="#088" font-family="monospace"  >
   U
  </text> </g> 
  <g transform="translate(-220,370) rotate(0)" > <text font-size="66.6666666667" fill="#088" font-family="monospace"  >
   LMR10510YSD
  </text> </g> 
  <rect x="-250" y="-250" height="550"
    width="500" style="fill:none;stroke:#800;stroke-width:10" />
  <line x1="400" y1="200" x2="252" y2="200" style="stroke:#800;stroke-width:10;stroke-opacity:1.000000;stroke-linecap:round"/>
  <g transform="translate(301,194) rotate(0)" > <text font-size="58.3333333333" fill="#800" font-family="monospace"  >
   1
  </text> </g> 
  <g transform="translate(142,227) rotate(0)" > <text font-size="58.3333333333" fill="#088" font-family="monospace"  >
   FB
  </text> </g> 
  <circle cx="400" cy="200" r="10"
    style="fill:none;stroke:#800;stroke-width:2"  />
  <line x1="-400" y1="200" x2="-252" y2="200" style="stroke:#800;stroke-width:10;stroke-opacity:1.000000;stroke-linecap:round"/>
  <g transform="translate(-350,194) rotate(0)" > <text font-size="58.3333333333" fill="#800" font-family="monospace"  >
   2
  </text> </g> 
  <g transform="translate(-234,227) rotate(0)" > <text font-size="58.3333333333" fill="#088" font-family="monospace"  >
   GND
  </text> </g> 
  <circle cx="-400" cy="200" r="10"
    style="fill:none;stroke:#800;stroke-width:2"  />
  <line x1="400" y1="-150" x2="253" y2="-150" style="stroke:#800;stroke-width:10;stroke-opacity:1.000000;stroke-linecap:round"/>
  <g transform="translate(301,-156) rotate(0)" > <text font-size="58.3333333333" fill="#800" font-family="monospace"  >
   3
  </text> </g> 
  <g transform="translate(143,-122) rotate(0)" > <text font-size="58.3333333333" fill="#088" font-family="monospace"  >
   SW
  </text> </g> 
  <circle cx="400" cy="-150" r="10"
    style="fill:none;stroke:#800;stroke-width:2"  />
  <line x1="-400" y1="-100" x2="-254" y2="-100" style="stroke:#800;stroke-width:10;stroke-opacity:1.000000;stroke-linecap:round"/>
  <g transform="translate(-351,-106) rotate(0)" > <text font-size="58.3333333333" fill="#800" font-family="monospace"  >
   4
  </text> </g> 
  <g transform="translate(-236,-72) rotate(0)" > <text font-size="58.3333333333" fill="#088" font-family="monospace"  >
   VIND
  </text> </g> 
  <circle cx="-400" cy="-100" r="10"
    style="fill:none;stroke:#800;stroke-width:2"  />
  <line x1="-400" y1="-200" x2="-253" y2="-200" style="stroke:#800;stroke-width:10;stroke-opacity:1.000000;stroke-linecap:round"/>
  <g transform="translate(-351,-206) rotate(0)" > <text font-size="58.3333333333" fill="#800" font-family="monospace"  >
   5
  </text> </g> 
  <g transform="translate(-235,-172) rotate(0)" > <text font-size="58.3333333333" fill="#088" font-family="monospace"  >
   VINA
  </text> </g> 
  <circle cx="-400" cy="-200" r="10"
    style="fill:none;stroke:#800;stroke-width:2"  />
  <line x1="-400" y1="50" x2="-253" y2="50" style="stroke:#800;stroke-width:10;stroke-opacity:1.000000;stroke-linecap:round"/>
  <g transform="translate(-351,44) rotate(0)" > <text font-size="58.3333333333" fill="#800" font-family="monospace"  >
   6
  </text> </g> 
  <g transform="translate(-235,77) rotate(0)" > <text font-size="58.3333333333" fill="#088" font-family="monospace"  >
   EN
  </text> </g> 
  <circle cx="-400" cy="50" r="10"
    style="fill:none;stroke:#800;stroke-width:2"  />
 </g>
</svg>
