<?xml version="1.0"?>
<svg height="254" width="255"  >
 <g style="fill-opacity:1.0; stroke:black;
  stroke-width:1;" transform=" translate( 127.5,127.5 ) scale( 0.15,0.15 )">
  <g transform="translate(-390,-329) rotate(0)" > <text font-size="66.6666666667" fill="#088" font-family="monospace"  >
   IC
  </text> </g> 
  <g transform="translate(0,-330) rotate(0)" > <text font-size="66.6666666667" fill="#088" font-family="monospace"  >
   ST1CC40PHR
  </text> </g> 
  <rect x="-400" y="-300" height="550"
    width="800" style="fill:none;stroke:#800;stroke-width:10" />
  <line x1="-550" y1="-50" x2="-403" y2="-50" style="stroke:#800;stroke-width:10;stroke-opacity:1.000000;stroke-linecap:round"/>
  <g transform="translate(-501,-56) rotate(0)" > <text font-size="58.3333333333" fill="#800" font-family="monospace"  >
   1
  </text> </g> 
  <g transform="translate(-385,-22) rotate(0)" > <text font-size="58.3333333333" fill="#088" font-family="monospace"  >
   VIN_A
  </text> </g> 
  <circle cx="-550" cy="-50" r="10"
    style="fill:none;stroke:#800;stroke-width:2"  />
  <line x1="-550" y1="100" x2="-403" y2="100" style="stroke:#800;stroke-width:10;stroke-opacity:1.000000;stroke-linecap:round"/>
  <g transform="translate(-501,94) rotate(0)" > <text font-size="58.3333333333" fill="#800" font-family="monospace"  >
   2
  </text> </g> 
  <g transform="translate(-385,127) rotate(0)" > <text font-size="58.3333333333" fill="#088" font-family="monospace"  >
   INH
  </text> </g> 
  <circle cx="-550" cy="100" r="10"
    style="fill:none;stroke:#800;stroke-width:2"  />
  <line x1="150" y1="400" x2="150" y2="253" style="stroke:#800;stroke-width:10;stroke-opacity:1.000000;stroke-linecap:round"/>
  <g transform="translate(141,335) rotate(-90)" > <text font-size="58.3333333333" fill="#800" font-family="monospace"  >
   2
  </text> </g> 
  <g transform="translate(154,223) rotate(-90)" > <text font-size="58.3333333333" fill="#088" font-family="monospace"  >
   PGND
  </text> </g> 
  <circle cx="150" cy="400" r="10"
    style="fill:none;stroke:#800;stroke-width:2"  />
  <line x1="550" y1="100" x2="403" y2="100" style="stroke:#800;stroke-width:10;stroke-opacity:1.000000;stroke-linecap:round"/>
  <g transform="translate(451,94) rotate(0)" > <text font-size="58.3333333333" fill="#800" font-family="monospace"  >
   3
  </text> </g> 
  <g transform="translate(293,127) rotate(0)" > <text font-size="58.3333333333" fill="#088" font-family="monospace"  >
   FB
  </text> </g> 
  <circle cx="550" cy="100" r="10"
    style="fill:none;stroke:#800;stroke-width:2"  />
  <line x1="-100" y1="400" x2="-100" y2="253" style="stroke:#800;stroke-width:10;stroke-opacity:1.000000;stroke-linecap:round"/>
  <g transform="translate(-108,335) rotate(-90)" > <text font-size="58.3333333333" fill="#800" font-family="monospace"  >
   4
  </text> </g> 
  <g transform="translate(-95,223) rotate(-90)" > <text font-size="58.3333333333" fill="#088" font-family="monospace"  >
   AGND
  </text> </g> 
  <circle cx="-100" cy="400" r="10"
    style="fill:none;stroke:#800;stroke-width:2"  />
  <line x1="-550" y1="-200" x2="-403" y2="-200" style="stroke:#800;stroke-width:10;stroke-opacity:1.000000;stroke-linecap:round"/>
  <g transform="translate(-501,-206) rotate(0)" > <text font-size="58.3333333333" fill="#800" font-family="monospace"  >
   6
  </text> </g> 
  <g transform="translate(-385,-172) rotate(0)" > <text font-size="58.3333333333" fill="#088" font-family="monospace"  >
   VIN_SW
  </text> </g> 
  <circle cx="-550" cy="-200" r="10"
    style="fill:none;stroke:#800;stroke-width:2"  />
  <line x1="550" y1="-200" x2="403" y2="-200" style="stroke:#800;stroke-width:10;stroke-opacity:1.000000;stroke-linecap:round"/>
  <g transform="translate(451,-206) rotate(0)" > <text font-size="58.3333333333" fill="#800" font-family="monospace"  >
   7
  </text> </g> 
  <g transform="translate(293,-172) rotate(0)" > <text font-size="58.3333333333" fill="#088" font-family="monospace"  >
   SW
  </text> </g> 
  <circle cx="550" cy="-200" r="10"
    style="fill:none;stroke:#800;stroke-width:2"  />
 </g>
</svg>
