<?xml version="1.0"?>
<svg height="242" width="242"  >
 <g style="fill-opacity:1.0; stroke:black;
  stroke-width:1;" transform=" translate( 121.25,121.25 ) scale( 0.15,0.15 )">
  <g transform="translate(-270,-380) rotate(0)" > <text font-size="66.6666666667" fill="#088" font-family="monospace"  >
   U
  </text> </g> 
  <g transform="translate(-70,-380) rotate(0)" > <text font-size="66.6666666667" fill="#088" font-family="monospace"  >
   TPS54360DDA
  </text> </g> 
  <rect x="-300" y="-350" height="750"
    width="600" style="fill:none;stroke:#800;stroke-width:10" />
  <line x1="450" y1="-250" x2="300" y2="-250" style="stroke:#800;stroke-width:10;stroke-opacity:1.000000;stroke-linecap:round"/>
  <g transform="translate(350,-256) rotate(0)" > <text font-size="58.3333333333" fill="#800" font-family="monospace"  >
   1
  </text> </g> 
  <g transform="translate(120,-222) rotate(0)" > <text font-size="58.3333333333" fill="#088" font-family="monospace"  >
   BOOT
  </text> </g> 
  <circle cx="450" cy="-250" r="10"
    style="fill:none;stroke:#800;stroke-width:2"  />
  <line x1="-450" y1="-250" x2="-300" y2="-250" style="stroke:#800;stroke-width:10;stroke-opacity:1.000000;stroke-linecap:round"/>
  <g transform="translate(-399,-256) rotate(0)" > <text font-size="58.3333333333" fill="#800" font-family="monospace"  >
   2
  </text> </g> 
  <g transform="translate(-282,-222) rotate(0)" > <text font-size="58.3333333333" fill="#088" font-family="monospace"  >
   VIN
  </text> </g> 
  <circle cx="-450" cy="-250" r="10"
    style="fill:none;stroke:#800;stroke-width:2"  />
  <line x1="-450" y1="300" x2="-300" y2="300" style="stroke:#800;stroke-width:10;stroke-opacity:1.000000;stroke-linecap:round"/>
  <g transform="translate(-399,294) rotate(0)" > <text font-size="58.3333333333" fill="#800" font-family="monospace"  >
   3
  </text> </g> 
  <g transform="translate(-282,327) rotate(0)" > <text font-size="58.3333333333" fill="#088" font-family="monospace"  >
   EN
  </text> </g> 
  <circle cx="-450" cy="300" r="10"
    style="fill:none;stroke:#800;stroke-width:2"  />
  <line x1="-450" y1="0" x2="-300" y2="0" style="stroke:#800;stroke-width:10;stroke-opacity:1.000000;stroke-linecap:round"/>
  <g transform="translate(-399,-6) rotate(0)" > <text font-size="58.3333333333" fill="#800" font-family="monospace"  >
   4
  </text> </g> 
  <g transform="translate(-282,27) rotate(0)" > <text font-size="58.3333333333" fill="#088" font-family="monospace"  >
   RT/CLK
  </text> </g> 
  <circle cx="-450" cy="0" r="10"
    style="fill:none;stroke:#800;stroke-width:2"  />
  <line x1="450" y1="300" x2="300" y2="300" style="stroke:#800;stroke-width:10;stroke-opacity:1.000000;stroke-linecap:round"/>
  <g transform="translate(350,294) rotate(0)" > <text font-size="58.3333333333" fill="#800" font-family="monospace"  >
   5
  </text> </g> 
  <g transform="translate(190,327) rotate(0)" > <text font-size="58.3333333333" fill="#088" font-family="monospace"  >
   FB
  </text> </g> 
  <circle cx="450" cy="300" r="10"
    style="fill:none;stroke:#800;stroke-width:2"  />
  <line x1="450" y1="150" x2="300" y2="150" style="stroke:#800;stroke-width:10;stroke-opacity:1.000000;stroke-linecap:round"/>
  <g transform="translate(350,144) rotate(0)" > <text font-size="58.3333333333" fill="#800" font-family="monospace"  >
   6
  </text> </g> 
  <g transform="translate(120,177) rotate(0)" > <text font-size="58.3333333333" fill="#088" font-family="monospace"  >
   COMP
  </text> </g> 
  <circle cx="450" cy="150" r="10"
    style="fill:none;stroke:#800;stroke-width:2"  />
  <line x1="-100" y1="500" x2="-100" y2="400" style="stroke:#800;stroke-width:10;stroke-opacity:1.000000;stroke-linecap:round"/>
  <g transform="translate(-108,458) rotate(-90)" > <text font-size="58.3333333333" fill="#800" font-family="monospace"  >
   7
  </text> </g> 
  <g transform="translate(-95,370) rotate(-90)" > <text font-size="58.3333333333" fill="#088" font-family="monospace"  >
   GND
  </text> </g> 
  <circle cx="-100" cy="500" r="10"
    style="fill:none;stroke:#800;stroke-width:2"  />
  <line x1="450" y1="-100" x2="300" y2="-100" style="stroke:#800;stroke-width:10;stroke-opacity:1.000000;stroke-linecap:round"/>
  <g transform="translate(350,-106) rotate(0)" > <text font-size="58.3333333333" fill="#800" font-family="monospace"  >
   8
  </text> </g> 
  <g transform="translate(190,-72) rotate(0)" > <text font-size="58.3333333333" fill="#088" font-family="monospace"  >
   SW
  </text> </g> 
  <circle cx="450" cy="-100" r="10"
    style="fill:none;stroke:#800;stroke-width:2"  />
  <line x1="100" y1="500" x2="100" y2="400" style="stroke:#800;stroke-width:10;stroke-opacity:1.000000;stroke-linecap:round"/>
  <g transform="translate(91,458) rotate(-90)" > <text font-size="58.3333333333" fill="#800" font-family="monospace"  >
   9
  </text> </g> 
  <g transform="translate(104,370) rotate(-90)" > <text font-size="58.3333333333" fill="#088" font-family="monospace"  >
   PAD
  </text> </g> 
  <circle cx="100" cy="500" r="10"
    style="fill:none;stroke:#800;stroke-width:2"  />
 </g>
</svg>
