<?xml version="1.0"?>
<svg height="298" width="250"  >
 <g style="fill-opacity:1.0; stroke:black;
  stroke-width:1;" transform=" translate( 125.0,149.0 ) scale( 0.15,0.15 )">
  <g transform="translate(-270,-380) rotate(0)" > <text font-size="66.6666666667" fill="#088" font-family="monospace"  >
   U
  </text> </g> 
  <g transform="translate(150,470) rotate(0)" > <text font-size="66.6666666667" fill="#088" font-family="monospace"  >
   HV9972LG-G
  </text> </g> 
  <rect x="-300" y="-350" height="750"
    width="600" style="fill:none;stroke:#800;stroke-width:10" />
  <line x1="-450" y1="100" x2="-300" y2="100" style="stroke:#800;stroke-width:10;stroke-opacity:1.000000;stroke-linecap:round"/>
  <g transform="translate(-403,94) rotate(0)" > <text font-size="66.6666666667" fill="#800" font-family="monospace"  >
   1
  </text> </g> 
  <g transform="translate(-282,130) rotate(0)" > <text font-size="66.6666666667" fill="#088" font-family="monospace"  >
   BIAS
  </text> </g> 
  <circle cx="-450" cy="100" r="10"
    style="fill:none;stroke:#800;stroke-width:2"  />
  <line x1="0" y1="-500" x2="0" y2="-350" style="stroke:#800;stroke-width:10;stroke-opacity:1.000000;stroke-linecap:round"/>
  <g transform="translate(-10,-415) rotate(-90)" > <text font-size="66.6666666667" fill="#800" font-family="monospace"  >
   2
  </text> </g> 
  <g transform="translate(5,-196) rotate(-90)" > <text font-size="66.6666666667" fill="#088" font-family="monospace"  >
   VIN
  </text> </g> 
  <circle cx="0" cy="-500" r="10"
    style="fill:none;stroke:#800;stroke-width:2"  />
  <line x1="450" y1="250" x2="300" y2="250" style="stroke:#800;stroke-width:10;stroke-opacity:1.000000;stroke-linecap:round"/>
  <g transform="translate(346,244) rotate(0)" > <text font-size="66.6666666667" fill="#800" font-family="monospace"  >
   3
  </text> </g> 
  <g transform="translate(180,280) rotate(0)" > <text font-size="66.6666666667" fill="#088" font-family="monospace"  >
   VD
  </text> </g> 
  <circle cx="450" cy="250" r="10"
    style="fill:none;stroke:#800;stroke-width:2"  />
  <line x1="-450" y1="-200" x2="-300" y2="-200" style="stroke:#800;stroke-width:10;stroke-opacity:1.000000;stroke-linecap:round"/>
  <g transform="translate(-403,-206) rotate(0)" > <text font-size="66.6666666667" fill="#800" font-family="monospace"  >
   4
  </text> </g> 
  <g transform="translate(-282,-170) rotate(0)" > <text font-size="66.6666666667" fill="#088" font-family="monospace"  >
   PWMD
  </text> </g> 
  <circle cx="-450" cy="-200" r="10"
    style="fill:none;stroke:#800;stroke-width:2"  />
  <line x1="450" y1="100" x2="300" y2="100" style="stroke:#800;stroke-width:10;stroke-opacity:1.000000;stroke-linecap:round"/>
  <g transform="translate(346,94) rotate(0)" > <text font-size="66.6666666667" fill="#800" font-family="monospace"  >
   5
  </text> </g> 
  <g transform="translate(180,130) rotate(0)" > <text font-size="66.6666666667" fill="#088" font-family="monospace"  >
   CS
  </text> </g> 
  <circle cx="450" cy="100" r="10"
    style="fill:none;stroke:#800;stroke-width:2"  />
  <line x1="-100" y1="550" x2="-100" y2="400" style="stroke:#800;stroke-width:10;stroke-opacity:1.000000;stroke-linecap:round"/>
  <g transform="translate(-110,485) rotate(-90)" > <text font-size="66.6666666667" fill="#800" font-family="monospace"  >
   6
  </text> </g> 
  <g transform="translate(-95,366) rotate(-90)" > <text font-size="66.6666666667" fill="#088" font-family="monospace"  >
   GND
  </text> </g> 
  <circle cx="-100" cy="550" r="10"
    style="fill:none;stroke:#800;stroke-width:2"  />
  <line x1="450" y1="-200" x2="300" y2="-200" style="stroke:#800;stroke-width:10;stroke-opacity:1.000000;stroke-linecap:round"/>
  <g transform="translate(346,-206) rotate(0)" > <text font-size="66.6666666667" fill="#800" font-family="monospace"  >
   7
  </text> </g> 
  <g transform="translate(100,-170) rotate(0)" > <text font-size="66.6666666667" fill="#088" font-family="monospace"  >
   GATE
  </text> </g> 
  <circle cx="450" cy="-200" r="10"
    style="fill:none;stroke:#800;stroke-width:2"  />
  <line x1="100" y1="550" x2="100" y2="400" style="stroke:#800;stroke-width:10;stroke-opacity:1.000000;stroke-linecap:round"/>
  <g transform="translate(90,485) rotate(-90)" > <text font-size="66.6666666667" fill="#800" font-family="monospace"  >
   8
  </text> </g> 
  <g transform="translate(105,366) rotate(-90)" > <text font-size="66.6666666667" fill="#088" font-family="monospace"  >
   VDD
  </text> </g> 
  <circle cx="100" cy="550" r="10"
    style="fill:none;stroke:#800;stroke-width:2"  />
 </g>
</svg>
