<?xml version="1.0"?>
<svg height="632" width="632"  >
 <g style="fill-opacity:1.0; stroke:black;
  stroke-width:1;" transform=" translate( 316.0,316.0 ) scale( 0.15,0.15 )">
  <g transform="translate(-35,-65) rotate(0)" > <text font-size="116.666666667" fill="#088" font-family="monospace"  >
   U
  </text> </g> 
  <g transform="translate(-385,135) rotate(0)" > <text font-size="116.666666667" fill="#088" font-family="monospace"  >
   ACT1020PL68
  </text> </g> 
  <rect x="-600" y="-1700" height="3400"
    width="1200" style="fill:none;stroke:#800;stroke-width:10" />
  <line x1="-900" y1="800" x2="-600" y2="800" style="stroke:#800;stroke-width:10;stroke-opacity:1.000000;stroke-linecap:round"/>
  <g transform="translate(-792,794) rotate(0)" > <text font-size="100.0" fill="#800" font-family="monospace"  >
   1
  </text> </g> 
  <g transform="translate(-582,840) rotate(0)" > <text font-size="100.0" fill="#088" font-family="monospace"  >
   IO1
  </text> </g> 
  <circle cx="-900" cy="800" r="10"
    style="fill:none;stroke:#800;stroke-width:2"  />
  <line x1="-900" y1="900" x2="-600" y2="900" style="stroke:#800;stroke-width:10;stroke-opacity:1.000000;stroke-linecap:round"/>
  <g transform="translate(-792,894) rotate(0)" > <text font-size="100.0" fill="#800" font-family="monospace"  >
   2
  </text> </g> 
  <g transform="translate(-582,940) rotate(0)" > <text font-size="100.0" fill="#088" font-family="monospace"  >
   IO2
  </text> </g> 
  <circle cx="-900" cy="900" r="10"
    style="fill:none;stroke:#800;stroke-width:2"  />
  <line x1="-900" y1="1000" x2="-600" y2="1000" style="stroke:#800;stroke-width:10;stroke-opacity:1.000000;stroke-linecap:round"/>
  <g transform="translate(-792,994) rotate(0)" > <text font-size="100.0" fill="#800" font-family="monospace"  >
   3
  </text> </g> 
  <g transform="translate(-582,1040) rotate(0)" > <text font-size="100.0" fill="#088" font-family="monospace"  >
   IO3
  </text> </g> 
  <circle cx="-900" cy="1000" r="10"
    style="fill:none;stroke:#800;stroke-width:2"  />
  <g transform="translate(-415,-1685) rotate(-90)" > <text font-size="100.0" fill="#888" font-family="monospace"  >
   4
  </text> </g> 
  <g transform="translate(-392,-1750) rotate(-90)" > <text font-size="100.0" fill="#888" font-family="monospace"  >
   VCC
  </text> </g> 
  <circle cx="-400" cy="-1700" r="10"
    style="fill:none;stroke:#888;stroke-width:2"  />
  <line x1="-900" y1="1100" x2="-600" y2="1100" style="stroke:#800;stroke-width:10;stroke-opacity:1.000000;stroke-linecap:round"/>
  <g transform="translate(-792,1094) rotate(0)" > <text font-size="100.0" fill="#800" font-family="monospace"  >
   5
  </text> </g> 
  <g transform="translate(-582,1140) rotate(0)" > <text font-size="100.0" fill="#088" font-family="monospace"  >
   IO5
  </text> </g> 
  <circle cx="-900" cy="1100" r="10"
    style="fill:none;stroke:#800;stroke-width:2"  />
  <line x1="-900" y1="1200" x2="-600" y2="1200" style="stroke:#800;stroke-width:10;stroke-opacity:1.000000;stroke-linecap:round"/>
  <g transform="translate(-792,1194) rotate(0)" > <text font-size="100.0" fill="#800" font-family="monospace"  >
   6
  </text> </g> 
  <g transform="translate(-582,1240) rotate(0)" > <text font-size="100.0" fill="#088" font-family="monospace"  >
   IO6
  </text> </g> 
  <circle cx="-900" cy="1200" r="10"
    style="fill:none;stroke:#800;stroke-width:2"  />
  <line x1="-900" y1="1300" x2="-600" y2="1300" style="stroke:#800;stroke-width:10;stroke-opacity:1.000000;stroke-linecap:round"/>
  <g transform="translate(-792,1294) rotate(0)" > <text font-size="100.0" fill="#800" font-family="monospace"  >
   7
  </text> </g> 
  <g transform="translate(-582,1340) rotate(0)" > <text font-size="100.0" fill="#088" font-family="monospace"  >
   IO7
  </text> </g> 
  <circle cx="-900" cy="1300" r="10"
    style="fill:none;stroke:#800;stroke-width:2"  />
  <line x1="-900" y1="1400" x2="-600" y2="1400" style="stroke:#800;stroke-width:10;stroke-opacity:1.000000;stroke-linecap:round"/>
  <g transform="translate(-792,1394) rotate(0)" > <text font-size="100.0" fill="#800" font-family="monospace"  >
   8
  </text> </g> 
  <g transform="translate(-582,1440) rotate(0)" > <text font-size="100.0" fill="#088" font-family="monospace"  >
   IO8
  </text> </g> 
  <circle cx="-900" cy="1400" r="10"
    style="fill:none;stroke:#800;stroke-width:2"  />
  <line x1="-900" y1="1500" x2="-600" y2="1500" style="stroke:#800;stroke-width:10;stroke-opacity:1.000000;stroke-linecap:round"/>
  <g transform="translate(-792,1494) rotate(0)" > <text font-size="100.0" fill="#800" font-family="monospace"  >
   9
  </text> </g> 
  <g transform="translate(-582,1540) rotate(0)" > <text font-size="100.0" fill="#088" font-family="monospace"  >
   IO9
  </text> </g> 
  <circle cx="-900" cy="1500" r="10"
    style="fill:none;stroke:#800;stroke-width:2"  />
  <line x1="900" y1="-1300" x2="600" y2="-1300" style="stroke:#800;stroke-width:10;stroke-opacity:1.000000;stroke-linecap:round"/>
  <g transform="translate(665,-1306) rotate(0)" > <text font-size="100.0" fill="#800" font-family="monospace"  >
   10
  </text> </g> 
  <g transform="translate(320,-1260) rotate(0)" > <text font-size="100.0" fill="#088" font-family="monospace"  >
   IO10
  </text> </g> 
  <circle cx="900" cy="-1300" r="10"
    style="fill:none;stroke:#800;stroke-width:2"  />
  <line x1="900" y1="-500" x2="600" y2="-500" style="stroke:#800;stroke-width:10;stroke-opacity:1.000000;stroke-linecap:round"/>
  <g transform="translate(665,-506) rotate(0)" > <text font-size="100.0" fill="#800" font-family="monospace"  >
   20
  </text> </g> 
  <g transform="translate(320,-460) rotate(0)" > <text font-size="100.0" fill="#088" font-family="monospace"  >
   IO20
  </text> </g> 
  <circle cx="900" cy="-500" r="10"
    style="fill:none;stroke:#800;stroke-width:2"  />
  <line x1="900" y1="400" x2="600" y2="400" style="stroke:#800;stroke-width:10;stroke-opacity:1.000000;stroke-linecap:round"/>
  <g transform="translate(665,394) rotate(0)" > <text font-size="100.0" fill="#800" font-family="monospace"  >
   30
  </text> </g> 
  <g transform="translate(320,440) rotate(0)" > <text font-size="100.0" fill="#088" font-family="monospace"  >
   IO30
  </text> </g> 
  <circle cx="900" cy="400" r="10"
    style="fill:none;stroke:#800;stroke-width:2"  />
  <line x1="900" y1="1200" x2="600" y2="1200" style="stroke:#800;stroke-width:10;stroke-opacity:1.000000;stroke-linecap:round"/>
  <g transform="translate(665,1194) rotate(0)" > <text font-size="100.0" fill="#800" font-family="monospace"  >
   40
  </text> </g> 
  <g transform="translate(320,1240) rotate(0)" > <text font-size="100.0" fill="#088" font-family="monospace"  >
   IO40
  </text> </g> 
  <circle cx="900" cy="1200" r="10"
    style="fill:none;stroke:#800;stroke-width:2"  />
  <line x1="-900" y1="-400" x2="-600" y2="-400" style="stroke:#800;stroke-width:10;stroke-opacity:1.000000;stroke-linecap:round"/>
  <g transform="translate(-835,-406) rotate(0)" > <text font-size="100.0" fill="#800" font-family="monospace"  >
   50
  </text> </g> 
  <g transform="translate(-582,-360) rotate(0)" > <text font-size="100.0" fill="#088" font-family="monospace"  >
   IO50
  </text> </g> 
  <circle cx="-900" cy="-400" r="10"
    style="fill:none;stroke:#800;stroke-width:2"  />
  <line x1="-900" y1="0" x2="-600" y2="0" style="stroke:#800;stroke-width:10;stroke-opacity:1.000000;stroke-linecap:round"/>
  <g transform="translate(-835,-6) rotate(0)" > <text font-size="100.0" fill="#800" font-family="monospace"  >
   60
  </text> </g> 
  <g transform="translate(-582,40) rotate(0)" > <text font-size="100.0" fill="#088" font-family="monospace"  >
   IO60
  </text> </g> 
  <circle cx="-900" cy="0" r="10"
    style="fill:none;stroke:#800;stroke-width:2"  />
  <line x1="900" y1="-1200" x2="600" y2="-1200" style="stroke:#800;stroke-width:10;stroke-opacity:1.000000;stroke-linecap:round"/>
  <g transform="translate(665,-1206) rotate(0)" > <text font-size="100.0" fill="#800" font-family="monospace"  >
   11
  </text> </g> 
  <g transform="translate(320,-1160) rotate(0)" > <text font-size="100.0" fill="#088" font-family="monospace"  >
   IO11
  </text> </g> 
  <circle cx="900" cy="-1200" r="10"
    style="fill:none;stroke:#800;stroke-width:2"  />
  <g transform="translate(-215,-1670) rotate(-90)" > <text font-size="100.0" fill="#888" font-family="monospace"  >
   21
  </text> </g> 
  <g transform="translate(-192,-1750) rotate(-90)" > <text font-size="100.0" fill="#888" font-family="monospace"  >
   VCC
  </text> </g> 
  <circle cx="-200" cy="-1700" r="10"
    style="fill:none;stroke:#888;stroke-width:2"  />
  <line x1="900" y1="500" x2="600" y2="500" style="stroke:#800;stroke-width:10;stroke-opacity:1.000000;stroke-linecap:round"/>
  <g transform="translate(665,494) rotate(0)" > <text font-size="100.0" fill="#800" font-family="monospace"  >
   31
  </text> </g> 
  <g transform="translate(320,540) rotate(0)" > <text font-size="100.0" fill="#088" font-family="monospace"  >
   IO31
  </text> </g> 
  <circle cx="900" cy="500" r="10"
    style="fill:none;stroke:#800;stroke-width:2"  />
  <line x1="900" y1="1300" x2="600" y2="1300" style="stroke:#800;stroke-width:10;stroke-opacity:1.000000;stroke-linecap:round"/>
  <g transform="translate(665,1294) rotate(0)" > <text font-size="100.0" fill="#800" font-family="monospace"  >
   41
  </text> </g> 
  <g transform="translate(320,1340) rotate(0)" > <text font-size="100.0" fill="#088" font-family="monospace"  >
   IO41
  </text> </g> 
  <circle cx="900" cy="1300" r="10"
    style="fill:none;stroke:#800;stroke-width:2"  />
  <line x1="-900" y1="-300" x2="-600" y2="-300" style="stroke:#800;stroke-width:10;stroke-opacity:1.000000;stroke-linecap:round"/>
  <g transform="translate(-835,-306) rotate(0)" > <text font-size="100.0" fill="#800" font-family="monospace"  >
   51
  </text> </g> 
  <g transform="translate(-582,-260) rotate(0)" > <text font-size="100.0" fill="#088" font-family="monospace"  >
   IO51
  </text> </g> 
  <circle cx="-900" cy="-300" r="10"
    style="fill:none;stroke:#800;stroke-width:2"  />
  <line x1="-900" y1="100" x2="-600" y2="100" style="stroke:#800;stroke-width:10;stroke-opacity:1.000000;stroke-linecap:round"/>
  <g transform="translate(-835,94) rotate(0)" > <text font-size="100.0" fill="#800" font-family="monospace"  >
   61
  </text> </g> 
  <g transform="translate(-582,140) rotate(0)" > <text font-size="100.0" fill="#088" font-family="monospace"  >
   IO61
  </text> </g> 
  <circle cx="-900" cy="100" r="10"
    style="fill:none;stroke:#800;stroke-width:2"  />
  <line x1="900" y1="-1100" x2="600" y2="-1100" style="stroke:#800;stroke-width:10;stroke-opacity:1.000000;stroke-linecap:round"/>
  <g transform="translate(665,-1106) rotate(0)" > <text font-size="100.0" fill="#800" font-family="monospace"  >
   12
  </text> </g> 
  <g transform="translate(320,-1060) rotate(0)" > <text font-size="100.0" fill="#088" font-family="monospace"  >
   IO12
  </text> </g> 
  <circle cx="900" cy="-1100" r="10"
    style="fill:none;stroke:#800;stroke-width:2"  />
  <line x1="900" y1="-400" x2="600" y2="-400" style="stroke:#800;stroke-width:10;stroke-opacity:1.000000;stroke-linecap:round"/>
  <g transform="translate(665,-406) rotate(0)" > <text font-size="100.0" fill="#800" font-family="monospace"  >
   22
  </text> </g> 
  <g transform="translate(320,-360) rotate(0)" > <text font-size="100.0" fill="#088" font-family="monospace"  >
   IO22
  </text> </g> 
  <circle cx="900" cy="-400" r="10"
    style="fill:none;stroke:#800;stroke-width:2"  />
  <g transform="translate(-15,1730) rotate(-90)" > <text font-size="100.0" fill="#888" font-family="monospace"  >
   32
  </text> </g> 
  <g transform="translate(7,1650) rotate(-90)" > <text font-size="100.0" fill="#888" font-family="monospace"  >
   GND
  </text> </g> 
  <circle cx="0" cy="1700" r="10"
    style="fill:none;stroke:#888;stroke-width:2"  />
  <line x1="900" y1="1400" x2="600" y2="1400" style="stroke:#800;stroke-width:10;stroke-opacity:1.000000;stroke-linecap:round"/>
  <g transform="translate(665,1394) rotate(0)" > <text font-size="100.0" fill="#800" font-family="monospace"  >
   42
  </text> </g> 
  <g transform="translate(320,1440) rotate(0)" > <text font-size="100.0" fill="#088" font-family="monospace"  >
   IO42
  </text> </g> 
  <circle cx="900" cy="1400" r="10"
    style="fill:none;stroke:#800;stroke-width:2"  />
  <line x1="900" y1="-1500" x2="600" y2="-1500" style="stroke:#800;stroke-width:10;stroke-opacity:1.000000;stroke-linecap:round"/>
  <g transform="translate(665,-1506) rotate(0)" > <text font-size="100.0" fill="#800" font-family="monospace"  >
   52
  </text> </g> 
  <g transform="translate(380,-1460) rotate(0)" > <text font-size="100.0" fill="#088" font-family="monospace"  >
   CLK
  </text> </g> 
  <circle cx="900" cy="-1500" r="10"
    style="fill:none;stroke:#800;stroke-width:2"  />
  <line x1="-900" y1="200" x2="-600" y2="200" style="stroke:#800;stroke-width:10;stroke-opacity:1.000000;stroke-linecap:round"/>
  <g transform="translate(-835,194) rotate(0)" > <text font-size="100.0" fill="#800" font-family="monospace"  >
   62
  </text> </g> 
  <g transform="translate(-582,240) rotate(0)" > <text font-size="100.0" fill="#088" font-family="monospace"  >
   IO62
  </text> </g> 
  <circle cx="-900" cy="200" r="10"
    style="fill:none;stroke:#800;stroke-width:2"  />
  <line x1="900" y1="-1000" x2="600" y2="-1000" style="stroke:#800;stroke-width:10;stroke-opacity:1.000000;stroke-linecap:round"/>
  <g transform="translate(665,-1006) rotate(0)" > <text font-size="100.0" fill="#800" font-family="monospace"  >
   13
  </text> </g> 
  <g transform="translate(320,-960) rotate(0)" > <text font-size="100.0" fill="#088" font-family="monospace"  >
   IO13
  </text> </g> 
  <circle cx="900" cy="-1000" r="10"
    style="fill:none;stroke:#800;stroke-width:2"  />
  <line x1="900" y1="-300" x2="600" y2="-300" style="stroke:#800;stroke-width:10;stroke-opacity:1.000000;stroke-linecap:round"/>
  <g transform="translate(665,-306) rotate(0)" > <text font-size="100.0" fill="#800" font-family="monospace"  >
   23
  </text> </g> 
  <g transform="translate(320,-260) rotate(0)" > <text font-size="100.0" fill="#088" font-family="monospace"  >
   IO23
  </text> </g> 
  <circle cx="900" cy="-300" r="10"
    style="fill:none;stroke:#800;stroke-width:2"  />
  <line x1="900" y1="600" x2="600" y2="600" style="stroke:#800;stroke-width:10;stroke-opacity:1.000000;stroke-linecap:round"/>
  <g transform="translate(665,594) rotate(0)" > <text font-size="100.0" fill="#800" font-family="monospace"  >
   33
  </text> </g> 
  <g transform="translate(320,640) rotate(0)" > <text font-size="100.0" fill="#088" font-family="monospace"  >
   IO33
  </text> </g> 
  <circle cx="900" cy="600" r="10"
    style="fill:none;stroke:#800;stroke-width:2"  />
  <line x1="900" y1="1500" x2="600" y2="1500" style="stroke:#800;stroke-width:10;stroke-opacity:1.000000;stroke-linecap:round"/>
  <g transform="translate(665,1494) rotate(0)" > <text font-size="100.0" fill="#800" font-family="monospace"  >
   43
  </text> </g> 
  <g transform="translate(320,1540) rotate(0)" > <text font-size="100.0" fill="#088" font-family="monospace"  >
   IO43
  </text> </g> 
  <circle cx="900" cy="1500" r="10"
    style="fill:none;stroke:#800;stroke-width:2"  />
  <line x1="-900" y1="-200" x2="-600" y2="-200" style="stroke:#800;stroke-width:10;stroke-opacity:1.000000;stroke-linecap:round"/>
  <g transform="translate(-835,-206) rotate(0)" > <text font-size="100.0" fill="#800" font-family="monospace"  >
   53
  </text> </g> 
  <g transform="translate(-582,-160) rotate(0)" > <text font-size="100.0" fill="#088" font-family="monospace"  >
   IO53
  </text> </g> 
  <circle cx="-900" cy="-200" r="10"
    style="fill:none;stroke:#800;stroke-width:2"  />
  <line x1="-900" y1="300" x2="-600" y2="300" style="stroke:#800;stroke-width:10;stroke-opacity:1.000000;stroke-linecap:round"/>
  <g transform="translate(-835,294) rotate(0)" > <text font-size="100.0" fill="#800" font-family="monospace"  >
   63
  </text> </g> 
  <g transform="translate(-582,340) rotate(0)" > <text font-size="100.0" fill="#088" font-family="monospace"  >
   IO63
  </text> </g> 
  <circle cx="-900" cy="300" r="10"
    style="fill:none;stroke:#800;stroke-width:2"  />
  <g transform="translate(-415,1730) rotate(-90)" > <text font-size="100.0" fill="#888" font-family="monospace"  >
   14
  </text> </g> 
  <g transform="translate(-392,1650) rotate(-90)" > <text font-size="100.0" fill="#888" font-family="monospace"  >
   GND
  </text> </g> 
  <circle cx="-400" cy="1700" r="10"
    style="fill:none;stroke:#888;stroke-width:2"  />
  <line x1="900" y1="-200" x2="600" y2="-200" style="stroke:#800;stroke-width:10;stroke-opacity:1.000000;stroke-linecap:round"/>
  <g transform="translate(665,-206) rotate(0)" > <text font-size="100.0" fill="#800" font-family="monospace"  >
   24
  </text> </g> 
  <g transform="translate(320,-160) rotate(0)" > <text font-size="100.0" fill="#088" font-family="monospace"  >
   IO24
  </text> </g> 
  <circle cx="900" cy="-200" r="10"
    style="fill:none;stroke:#800;stroke-width:2"  />
  <line x1="900" y1="700" x2="600" y2="700" style="stroke:#800;stroke-width:10;stroke-opacity:1.000000;stroke-linecap:round"/>
  <g transform="translate(665,694) rotate(0)" > <text font-size="100.0" fill="#800" font-family="monospace"  >
   34
  </text> </g> 
  <g transform="translate(320,740) rotate(0)" > <text font-size="100.0" fill="#088" font-family="monospace"  >
   IO34
  </text> </g> 
  <circle cx="900" cy="700" r="10"
    style="fill:none;stroke:#800;stroke-width:2"  />
  <line x1="-900" y1="-900" x2="-600" y2="-900" style="stroke:#800;stroke-width:10;stroke-opacity:1.000000;stroke-linecap:round"/>
  <g transform="translate(-835,-906) rotate(0)" > <text font-size="100.0" fill="#800" font-family="monospace"  >
   44
  </text> </g> 
  <g transform="translate(-582,-860) rotate(0)" > <text font-size="100.0" fill="#088" font-family="monospace"  >
   IO44
  </text> </g> 
  <circle cx="-900" cy="-900" r="10"
    style="fill:none;stroke:#800;stroke-width:2"  />
  <line x1="-900" y1="-1100" x2="-600" y2="-1100" style="stroke:#800;stroke-width:10;stroke-opacity:1.000000;stroke-linecap:round"/>
  <g transform="translate(-835,-1106) rotate(0)" > <text font-size="100.0" fill="#800" font-family="monospace"  >
   54
  </text> </g> 
  <g transform="translate(-582,-1060) rotate(0)" > <text font-size="100.0" fill="#088" font-family="monospace"  >
   MODE
  </text> </g> 
  <circle cx="-900" cy="-1100" r="10"
    style="fill:none;stroke:#800;stroke-width:2"  />
  <line x1="-900" y1="400" x2="-600" y2="400" style="stroke:#800;stroke-width:10;stroke-opacity:1.000000;stroke-linecap:round"/>
  <g transform="translate(-835,394) rotate(0)" > <text font-size="100.0" fill="#800" font-family="monospace"  >
   64
  </text> </g> 
  <g transform="translate(-582,440) rotate(0)" > <text font-size="100.0" fill="#088" font-family="monospace"  >
   IO64
  </text> </g> 
  <circle cx="-900" cy="400" r="10"
    style="fill:none;stroke:#800;stroke-width:2"  />
  <g transform="translate(-215,1730) rotate(-90)" > <text font-size="100.0" fill="#888" font-family="monospace"  >
   15
  </text> </g> 
  <g transform="translate(-192,1650) rotate(-90)" > <text font-size="100.0" fill="#888" font-family="monospace"  >
   GND
  </text> </g> 
  <circle cx="-200" cy="1700" r="10"
    style="fill:none;stroke:#888;stroke-width:2"  />
  <g transform="translate(-15,-1670) rotate(-90)" > <text font-size="100.0" fill="#888" font-family="monospace"  >
   25
  </text> </g> 
  <g transform="translate(7,-1750) rotate(-90)" > <text font-size="100.0" fill="#888" font-family="monospace"  >
   VCC
  </text> </g> 
  <circle cx="0" cy="-1700" r="10"
    style="fill:none;stroke:#888;stroke-width:2"  />
  <line x1="900" y1="800" x2="600" y2="800" style="stroke:#800;stroke-width:10;stroke-opacity:1.000000;stroke-linecap:round"/>
  <g transform="translate(665,794) rotate(0)" > <text font-size="100.0" fill="#800" font-family="monospace"  >
   35
  </text> </g> 
  <g transform="translate(320,840) rotate(0)" > <text font-size="100.0" fill="#088" font-family="monospace"  >
   IO35
  </text> </g> 
  <circle cx="900" cy="800" r="10"
    style="fill:none;stroke:#800;stroke-width:2"  />
  <line x1="-900" y1="-800" x2="-600" y2="-800" style="stroke:#800;stroke-width:10;stroke-opacity:1.000000;stroke-linecap:round"/>
  <g transform="translate(-835,-806) rotate(0)" > <text font-size="100.0" fill="#800" font-family="monospace"  >
   45
  </text> </g> 
  <g transform="translate(-582,-760) rotate(0)" > <text font-size="100.0" fill="#088" font-family="monospace"  >
   IO45
  </text> </g> 
  <circle cx="-900" cy="-800" r="10"
    style="fill:none;stroke:#800;stroke-width:2"  />
  <g transform="translate(385,-1670) rotate(-90)" > <text font-size="100.0" fill="#888" font-family="monospace"  >
   55
  </text> </g> 
  <g transform="translate(407,-1750) rotate(-90)" > <text font-size="100.0" fill="#888" font-family="monospace"  >
   VCC
  </text> </g> 
  <circle cx="400" cy="-1700" r="10"
    style="fill:none;stroke:#888;stroke-width:2"  />
  <line x1="-900" y1="500" x2="-600" y2="500" style="stroke:#800;stroke-width:10;stroke-opacity:1.000000;stroke-linecap:round"/>
  <g transform="translate(-835,494) rotate(0)" > <text font-size="100.0" fill="#800" font-family="monospace"  >
   65
  </text> </g> 
  <g transform="translate(-582,540) rotate(0)" > <text font-size="100.0" fill="#088" font-family="monospace"  >
   IO65
  </text> </g> 
  <circle cx="-900" cy="500" r="10"
    style="fill:none;stroke:#800;stroke-width:2"  />
  <line x1="900" y1="-900" x2="600" y2="-900" style="stroke:#800;stroke-width:10;stroke-opacity:1.000000;stroke-linecap:round"/>
  <g transform="translate(665,-906) rotate(0)" > <text font-size="100.0" fill="#800" font-family="monospace"  >
   16
  </text> </g> 
  <g transform="translate(320,-860) rotate(0)" > <text font-size="100.0" fill="#088" font-family="monospace"  >
   IO16
  </text> </g> 
  <circle cx="900" cy="-900" r="10"
    style="fill:none;stroke:#800;stroke-width:2"  />
  <line x1="900" y1="0" x2="600" y2="0" style="stroke:#800;stroke-width:10;stroke-opacity:1.000000;stroke-linecap:round"/>
  <g transform="translate(665,-6) rotate(0)" > <text font-size="100.0" fill="#800" font-family="monospace"  >
   26
  </text> </g> 
  <g transform="translate(320,40) rotate(0)" > <text font-size="100.0" fill="#088" font-family="monospace"  >
   IO26
  </text> </g> 
  <circle cx="900" cy="0" r="10"
    style="fill:none;stroke:#800;stroke-width:2"  />
  <line x1="900" y1="900" x2="600" y2="900" style="stroke:#800;stroke-width:10;stroke-opacity:1.000000;stroke-linecap:round"/>
  <g transform="translate(665,894) rotate(0)" > <text font-size="100.0" fill="#800" font-family="monospace"  >
   36
  </text> </g> 
  <g transform="translate(320,940) rotate(0)" > <text font-size="100.0" fill="#088" font-family="monospace"  >
   IO36
  </text> </g> 
  <circle cx="900" cy="900" r="10"
    style="fill:none;stroke:#800;stroke-width:2"  />
  <line x1="-900" y1="-700" x2="-600" y2="-700" style="stroke:#800;stroke-width:10;stroke-opacity:1.000000;stroke-linecap:round"/>
  <g transform="translate(-835,-706) rotate(0)" > <text font-size="100.0" fill="#800" font-family="monospace"  >
   46
  </text> </g> 
  <g transform="translate(-582,-660) rotate(0)" > <text font-size="100.0" fill="#088" font-family="monospace"  >
   IO46
  </text> </g> 
  <circle cx="-900" cy="-700" r="10"
    style="fill:none;stroke:#800;stroke-width:2"  />
  <line x1="-900" y1="-1300" x2="-600" y2="-1300" style="stroke:#800;stroke-width:10;stroke-opacity:1.000000;stroke-linecap:round"/>
  <g transform="translate(-835,-1306) rotate(0)" > <text font-size="100.0" fill="#800" font-family="monospace"  >
   56
  </text> </g> 
  <g transform="translate(-582,-1260) rotate(0)" > <text font-size="100.0" fill="#088" font-family="monospace"  >
   SDI
  </text> </g> 
  <circle cx="-900" cy="-1300" r="10"
    style="fill:none;stroke:#800;stroke-width:2"  />
  <g transform="translate(385,1730) rotate(-90)" > <text font-size="100.0" fill="#888" font-family="monospace"  >
   66
  </text> </g> 
  <g transform="translate(407,1650) rotate(-90)" > <text font-size="100.0" fill="#888" font-family="monospace"  >
   GND
  </text> </g> 
  <circle cx="400" cy="1700" r="10"
    style="fill:none;stroke:#888;stroke-width:2"  />
  <line x1="900" y1="-800" x2="600" y2="-800" style="stroke:#800;stroke-width:10;stroke-opacity:1.000000;stroke-linecap:round"/>
  <g transform="translate(665,-806) rotate(0)" > <text font-size="100.0" fill="#800" font-family="monospace"  >
   17
  </text> </g> 
  <g transform="translate(320,-760) rotate(0)" > <text font-size="100.0" fill="#088" font-family="monospace"  >
   IO17
  </text> </g> 
  <circle cx="900" cy="-800" r="10"
    style="fill:none;stroke:#800;stroke-width:2"  />
  <line x1="900" y1="100" x2="600" y2="100" style="stroke:#800;stroke-width:10;stroke-opacity:1.000000;stroke-linecap:round"/>
  <g transform="translate(665,94) rotate(0)" > <text font-size="100.0" fill="#800" font-family="monospace"  >
   27
  </text> </g> 
  <g transform="translate(320,140) rotate(0)" > <text font-size="100.0" fill="#088" font-family="monospace"  >
   IO27
  </text> </g> 
  <circle cx="900" cy="100" r="10"
    style="fill:none;stroke:#800;stroke-width:2"  />
  <line x1="900" y1="1000" x2="600" y2="1000" style="stroke:#800;stroke-width:10;stroke-opacity:1.000000;stroke-linecap:round"/>
  <g transform="translate(665,994) rotate(0)" > <text font-size="100.0" fill="#800" font-family="monospace"  >
   37
  </text> </g> 
  <g transform="translate(320,1040) rotate(0)" > <text font-size="100.0" fill="#088" font-family="monospace"  >
   IO37
  </text> </g> 
  <circle cx="900" cy="1000" r="10"
    style="fill:none;stroke:#800;stroke-width:2"  />
  <line x1="-900" y1="-600" x2="-600" y2="-600" style="stroke:#800;stroke-width:10;stroke-opacity:1.000000;stroke-linecap:round"/>
  <g transform="translate(-835,-606) rotate(0)" > <text font-size="100.0" fill="#800" font-family="monospace"  >
   47
  </text> </g> 
  <g transform="translate(-582,-560) rotate(0)" > <text font-size="100.0" fill="#088" font-family="monospace"  >
   IO47
  </text> </g> 
  <circle cx="-900" cy="-600" r="10"
    style="fill:none;stroke:#800;stroke-width:2"  />
  <line x1="-900" y1="-1200" x2="-600" y2="-1200" style="stroke:#800;stroke-width:10;stroke-opacity:1.000000;stroke-linecap:round"/>
  <g transform="translate(-835,-1206) rotate(0)" > <text font-size="100.0" fill="#800" font-family="monospace"  >
   57
  </text> </g> 
  <g transform="translate(-582,-1160) rotate(0)" > <text font-size="100.0" fill="#088" font-family="monospace"  >
   DCLK
  </text> </g> 
  <circle cx="-900" cy="-1200" r="10"
    style="fill:none;stroke:#800;stroke-width:2"  />
  <line x1="-900" y1="600" x2="-600" y2="600" style="stroke:#800;stroke-width:10;stroke-opacity:1.000000;stroke-linecap:round"/>
  <g transform="translate(-835,594) rotate(0)" > <text font-size="100.0" fill="#800" font-family="monospace"  >
   67
  </text> </g> 
  <g transform="translate(-582,640) rotate(0)" > <text font-size="100.0" fill="#088" font-family="monospace"  >
   IO67
  </text> </g> 
  <circle cx="-900" cy="600" r="10"
    style="fill:none;stroke:#800;stroke-width:2"  />
  <line x1="900" y1="-700" x2="600" y2="-700" style="stroke:#800;stroke-width:10;stroke-opacity:1.000000;stroke-linecap:round"/>
  <g transform="translate(665,-706) rotate(0)" > <text font-size="100.0" fill="#800" font-family="monospace"  >
   18
  </text> </g> 
  <g transform="translate(320,-660) rotate(0)" > <text font-size="100.0" fill="#088" font-family="monospace"  >
   IO18
  </text> </g> 
  <circle cx="900" cy="-700" r="10"
    style="fill:none;stroke:#800;stroke-width:2"  />
  <line x1="900" y1="200" x2="600" y2="200" style="stroke:#800;stroke-width:10;stroke-opacity:1.000000;stroke-linecap:round"/>
  <g transform="translate(665,194) rotate(0)" > <text font-size="100.0" fill="#800" font-family="monospace"  >
   28
  </text> </g> 
  <g transform="translate(320,240) rotate(0)" > <text font-size="100.0" fill="#088" font-family="monospace"  >
   IO28
  </text> </g> 
  <circle cx="900" cy="200" r="10"
    style="fill:none;stroke:#800;stroke-width:2"  />
  <g transform="translate(185,-1670) rotate(-90)" > <text font-size="100.0" fill="#888" font-family="monospace"  >
   38
  </text> </g> 
  <g transform="translate(207,-1750) rotate(-90)" > <text font-size="100.0" fill="#888" font-family="monospace"  >
   VCC
  </text> </g> 
  <circle cx="200" cy="-1700" r="10"
    style="fill:none;stroke:#888;stroke-width:2"  />
  <line x1="-900" y1="-500" x2="-600" y2="-500" style="stroke:#800;stroke-width:10;stroke-opacity:1.000000;stroke-linecap:round"/>
  <g transform="translate(-835,-506) rotate(0)" > <text font-size="100.0" fill="#800" font-family="monospace"  >
   48
  </text> </g> 
  <g transform="translate(-582,-460) rotate(0)" > <text font-size="100.0" fill="#088" font-family="monospace"  >
   IO48
  </text> </g> 
  <circle cx="-900" cy="-500" r="10"
    style="fill:none;stroke:#800;stroke-width:2"  />
  <line x1="-900" y1="-1500" x2="-600" y2="-1500" style="stroke:#800;stroke-width:10;stroke-opacity:1.000000;stroke-linecap:round"/>
  <g transform="translate(-835,-1506) rotate(0)" > <text font-size="100.0" fill="#800" font-family="monospace"  >
   58
  </text> </g> 
  <g transform="translate(-582,-1460) rotate(0)" > <text font-size="100.0" fill="#088" font-family="monospace"  >
   PRA
  </text> </g> 
  <circle cx="-900" cy="-1500" r="10"
    style="fill:none;stroke:#800;stroke-width:2"  />
  <line x1="-900" y1="700" x2="-600" y2="700" style="stroke:#800;stroke-width:10;stroke-opacity:1.000000;stroke-linecap:round"/>
  <g transform="translate(-835,694) rotate(0)" > <text font-size="100.0" fill="#800" font-family="monospace"  >
   68
  </text> </g> 
  <g transform="translate(-582,740) rotate(0)" > <text font-size="100.0" fill="#088" font-family="monospace"  >
   IO68
  </text> </g> 
  <circle cx="-900" cy="700" r="10"
    style="fill:none;stroke:#800;stroke-width:2"  />
  <line x1="900" y1="-600" x2="600" y2="-600" style="stroke:#800;stroke-width:10;stroke-opacity:1.000000;stroke-linecap:round"/>
  <g transform="translate(665,-606) rotate(0)" > <text font-size="100.0" fill="#800" font-family="monospace"  >
   19
  </text> </g> 
  <g transform="translate(320,-560) rotate(0)" > <text font-size="100.0" fill="#088" font-family="monospace"  >
   IO19
  </text> </g> 
  <circle cx="900" cy="-600" r="10"
    style="fill:none;stroke:#800;stroke-width:2"  />
  <line x1="900" y1="300" x2="600" y2="300" style="stroke:#800;stroke-width:10;stroke-opacity:1.000000;stroke-linecap:round"/>
  <g transform="translate(665,294) rotate(0)" > <text font-size="100.0" fill="#800" font-family="monospace"  >
   29
  </text> </g> 
  <g transform="translate(320,340) rotate(0)" > <text font-size="100.0" fill="#088" font-family="monospace"  >
   IO29
  </text> </g> 
  <circle cx="900" cy="300" r="10"
    style="fill:none;stroke:#800;stroke-width:2"  />
  <line x1="900" y1="1100" x2="600" y2="1100" style="stroke:#800;stroke-width:10;stroke-opacity:1.000000;stroke-linecap:round"/>
  <g transform="translate(665,1094) rotate(0)" > <text font-size="100.0" fill="#800" font-family="monospace"  >
   39
  </text> </g> 
  <g transform="translate(320,1140) rotate(0)" > <text font-size="100.0" fill="#088" font-family="monospace"  >
   IO39
  </text> </g> 
  <circle cx="900" cy="1100" r="10"
    style="fill:none;stroke:#800;stroke-width:2"  />
  <g transform="translate(185,1730) rotate(-90)" > <text font-size="100.0" fill="#888" font-family="monospace"  >
   49
  </text> </g> 
  <g transform="translate(207,1650) rotate(-90)" > <text font-size="100.0" fill="#888" font-family="monospace"  >
   GND
  </text> </g> 
  <circle cx="200" cy="1700" r="10"
    style="fill:none;stroke:#888;stroke-width:2"  />
  <line x1="-900" y1="-1400" x2="-600" y2="-1400" style="stroke:#800;stroke-width:10;stroke-opacity:1.000000;stroke-linecap:round"/>
  <g transform="translate(-835,-1406) rotate(0)" > <text font-size="100.0" fill="#800" font-family="monospace"  >
   59
  </text> </g> 
  <g transform="translate(-582,-1360) rotate(0)" > <text font-size="100.0" fill="#088" font-family="monospace"  >
   PRB
  </text> </g> 
  <circle cx="-900" cy="-1400" r="10"
    style="fill:none;stroke:#800;stroke-width:2"  />
 </g>
</svg>
