<?xml version="1.0"?>
<svg height="365" width="365"  >
 <g style="fill-opacity:1.0; stroke:black;
  stroke-width:1;" transform=" translate( 182.5,182.5 ) scale( 0.15,0.15 )">
  <g transform="translate(-35,-65) rotate(0)" > <text font-size="116.666666667" fill="#088" font-family="monospace"  >
   U
  </text> </g> 
  <g transform="translate(-175,135) rotate(0)" > <text font-size="116.666666667" fill="#088" font-family="monospace"  >
   EP300
  </text> </g> 
  <rect x="-500" y="-550" height="1100"
    width="1000" style="fill:none;stroke:#800;stroke-width:10" />
  <line x1="-800" y1="-450" x2="-500" y2="-450" style="stroke:#800;stroke-width:10;stroke-opacity:1.000000;stroke-linecap:round"/>
  <g transform="translate(-692,-456) rotate(0)" > <text font-size="100.0" fill="#800" font-family="monospace"  >
   1
  </text> </g> 
  <g transform="translate(-482,-410) rotate(0)" > <text font-size="100.0" fill="#088" font-family="monospace"  >
   CLK
  </text> </g> 
  <circle cx="-800" cy="-450" r="10"
    style="fill:none;stroke:#800;stroke-width:2"  />
  <line x1="-800" y1="-350" x2="-500" y2="-350" style="stroke:#800;stroke-width:10;stroke-opacity:1.000000;stroke-linecap:round"/>
  <g transform="translate(-692,-356) rotate(0)" > <text font-size="100.0" fill="#800" font-family="monospace"  >
   2
  </text> </g> 
  <g transform="translate(-482,-310) rotate(0)" > <text font-size="100.0" fill="#088" font-family="monospace"  >
   IN1
  </text> </g> 
  <circle cx="-800" cy="-350" r="10"
    style="fill:none;stroke:#800;stroke-width:2"  />
  <line x1="-800" y1="-250" x2="-500" y2="-250" style="stroke:#800;stroke-width:10;stroke-opacity:1.000000;stroke-linecap:round"/>
  <g transform="translate(-692,-256) rotate(0)" > <text font-size="100.0" fill="#800" font-family="monospace"  >
   3
  </text> </g> 
  <g transform="translate(-482,-210) rotate(0)" > <text font-size="100.0" fill="#088" font-family="monospace"  >
   IN2
  </text> </g> 
  <circle cx="-800" cy="-250" r="10"
    style="fill:none;stroke:#800;stroke-width:2"  />
  <line x1="-800" y1="-150" x2="-500" y2="-150" style="stroke:#800;stroke-width:10;stroke-opacity:1.000000;stroke-linecap:round"/>
  <g transform="translate(-692,-156) rotate(0)" > <text font-size="100.0" fill="#800" font-family="monospace"  >
   4
  </text> </g> 
  <g transform="translate(-482,-110) rotate(0)" > <text font-size="100.0" fill="#088" font-family="monospace"  >
   IN3
  </text> </g> 
  <circle cx="-800" cy="-150" r="10"
    style="fill:none;stroke:#800;stroke-width:2"  />
  <line x1="-800" y1="-50" x2="-500" y2="-50" style="stroke:#800;stroke-width:10;stroke-opacity:1.000000;stroke-linecap:round"/>
  <g transform="translate(-692,-56) rotate(0)" > <text font-size="100.0" fill="#800" font-family="monospace"  >
   5
  </text> </g> 
  <g transform="translate(-482,-10) rotate(0)" > <text font-size="100.0" fill="#088" font-family="monospace"  >
   IN4
  </text> </g> 
  <circle cx="-800" cy="-50" r="10"
    style="fill:none;stroke:#800;stroke-width:2"  />
  <line x1="-800" y1="50" x2="-500" y2="50" style="stroke:#800;stroke-width:10;stroke-opacity:1.000000;stroke-linecap:round"/>
  <g transform="translate(-692,44) rotate(0)" > <text font-size="100.0" fill="#800" font-family="monospace"  >
   6
  </text> </g> 
  <g transform="translate(-482,90) rotate(0)" > <text font-size="100.0" fill="#088" font-family="monospace"  >
   IN5
  </text> </g> 
  <circle cx="-800" cy="50" r="10"
    style="fill:none;stroke:#800;stroke-width:2"  />
  <line x1="-800" y1="150" x2="-500" y2="150" style="stroke:#800;stroke-width:10;stroke-opacity:1.000000;stroke-linecap:round"/>
  <g transform="translate(-692,144) rotate(0)" > <text font-size="100.0" fill="#800" font-family="monospace"  >
   7
  </text> </g> 
  <g transform="translate(-482,190) rotate(0)" > <text font-size="100.0" fill="#088" font-family="monospace"  >
   IN6
  </text> </g> 
  <circle cx="-800" cy="150" r="10"
    style="fill:none;stroke:#800;stroke-width:2"  />
  <line x1="-800" y1="250" x2="-500" y2="250" style="stroke:#800;stroke-width:10;stroke-opacity:1.000000;stroke-linecap:round"/>
  <g transform="translate(-692,244) rotate(0)" > <text font-size="100.0" fill="#800" font-family="monospace"  >
   8
  </text> </g> 
  <g transform="translate(-482,290) rotate(0)" > <text font-size="100.0" fill="#088" font-family="monospace"  >
   IN7
  </text> </g> 
  <circle cx="-800" cy="250" r="10"
    style="fill:none;stroke:#800;stroke-width:2"  />
  <line x1="-800" y1="350" x2="-500" y2="350" style="stroke:#800;stroke-width:10;stroke-opacity:1.000000;stroke-linecap:round"/>
  <g transform="translate(-692,344) rotate(0)" > <text font-size="100.0" fill="#800" font-family="monospace"  >
   9
  </text> </g> 
  <g transform="translate(-482,390) rotate(0)" > <text font-size="100.0" fill="#088" font-family="monospace"  >
   IN9
  </text> </g> 
  <circle cx="-800" cy="350" r="10"
    style="fill:none;stroke:#800;stroke-width:2"  />
  <g transform="translate(-515,580) rotate(-90)" > <text font-size="100.0" fill="#888" font-family="monospace"  >
   10
  </text> </g> 
  <g transform="translate(-492,500) rotate(-90)" > <text font-size="100.0" fill="#888" font-family="monospace"  >
   GND
  </text> </g> 
  <circle cx="-500" cy="550" r="10"
    style="fill:none;stroke:#888;stroke-width:2"  />
  <g transform="translate(-515,-520) rotate(-90)" > <text font-size="100.0" fill="#888" font-family="monospace"  >
   20
  </text> </g> 
  <g transform="translate(-492,-600) rotate(-90)" > <text font-size="100.0" fill="#888" font-family="monospace"  >
   VCC
  </text> </g> 
  <circle cx="-500" cy="-550" r="10"
    style="fill:none;stroke:#888;stroke-width:2"  />
  <line x1="800" y1="450" x2="500" y2="450" style="stroke:#800;stroke-width:10;stroke-opacity:1.000000;stroke-linecap:round"/>
  <g transform="translate(565,444) rotate(0)" > <text font-size="100.0" fill="#800" font-family="monospace"  >
   11
  </text> </g> 
  <g transform="translate(220,490) rotate(0)" > <text font-size="100.0" fill="#088" font-family="monospace"  >
   IN10
  </text> </g> 
  <circle cx="800" cy="450" r="10"
    style="fill:none;stroke:#800;stroke-width:2"  />
  <line x1="800" y1="350" x2="500" y2="350" style="stroke:#800;stroke-width:10;stroke-opacity:1.000000;stroke-linecap:round"/>
  <g transform="translate(565,344) rotate(0)" > <text font-size="100.0" fill="#800" font-family="monospace"  >
   12
  </text> </g> 
  <g transform="translate(280,390) rotate(0)" > <text font-size="100.0" fill="#088" font-family="monospace"  >
   IO1
  </text> </g> 
  <circle cx="800" cy="350" r="10"
    style="fill:none;stroke:#800;stroke-width:2"  />
  <line x1="800" y1="250" x2="500" y2="250" style="stroke:#800;stroke-width:10;stroke-opacity:1.000000;stroke-linecap:round"/>
  <g transform="translate(565,244) rotate(0)" > <text font-size="100.0" fill="#800" font-family="monospace"  >
   13
  </text> </g> 
  <g transform="translate(280,290) rotate(0)" > <text font-size="100.0" fill="#088" font-family="monospace"  >
   IO2
  </text> </g> 
  <circle cx="800" cy="250" r="10"
    style="fill:none;stroke:#800;stroke-width:2"  />
  <line x1="800" y1="150" x2="500" y2="150" style="stroke:#800;stroke-width:10;stroke-opacity:1.000000;stroke-linecap:round"/>
  <g transform="translate(565,144) rotate(0)" > <text font-size="100.0" fill="#800" font-family="monospace"  >
   14
  </text> </g> 
  <g transform="translate(280,190) rotate(0)" > <text font-size="100.0" fill="#088" font-family="monospace"  >
   IO3
  </text> </g> 
  <circle cx="800" cy="150" r="10"
    style="fill:none;stroke:#800;stroke-width:2"  />
  <line x1="800" y1="50" x2="500" y2="50" style="stroke:#800;stroke-width:10;stroke-opacity:1.000000;stroke-linecap:round"/>
  <g transform="translate(565,44) rotate(0)" > <text font-size="100.0" fill="#800" font-family="monospace"  >
   15
  </text> </g> 
  <g transform="translate(280,90) rotate(0)" > <text font-size="100.0" fill="#088" font-family="monospace"  >
   IO4
  </text> </g> 
  <circle cx="800" cy="50" r="10"
    style="fill:none;stroke:#800;stroke-width:2"  />
  <line x1="800" y1="-50" x2="500" y2="-50" style="stroke:#800;stroke-width:10;stroke-opacity:1.000000;stroke-linecap:round"/>
  <g transform="translate(565,-56) rotate(0)" > <text font-size="100.0" fill="#800" font-family="monospace"  >
   16
  </text> </g> 
  <g transform="translate(280,-10) rotate(0)" > <text font-size="100.0" fill="#088" font-family="monospace"  >
   IO5
  </text> </g> 
  <circle cx="800" cy="-50" r="10"
    style="fill:none;stroke:#800;stroke-width:2"  />
  <line x1="800" y1="-150" x2="500" y2="-150" style="stroke:#800;stroke-width:10;stroke-opacity:1.000000;stroke-linecap:round"/>
  <g transform="translate(565,-156) rotate(0)" > <text font-size="100.0" fill="#800" font-family="monospace"  >
   17
  </text> </g> 
  <g transform="translate(280,-110) rotate(0)" > <text font-size="100.0" fill="#088" font-family="monospace"  >
   IO6
  </text> </g> 
  <circle cx="800" cy="-150" r="10"
    style="fill:none;stroke:#800;stroke-width:2"  />
  <line x1="800" y1="-250" x2="500" y2="-250" style="stroke:#800;stroke-width:10;stroke-opacity:1.000000;stroke-linecap:round"/>
  <g transform="translate(565,-256) rotate(0)" > <text font-size="100.0" fill="#800" font-family="monospace"  >
   18
  </text> </g> 
  <g transform="translate(280,-210) rotate(0)" > <text font-size="100.0" fill="#088" font-family="monospace"  >
   IO7
  </text> </g> 
  <circle cx="800" cy="-250" r="10"
    style="fill:none;stroke:#800;stroke-width:2"  />
  <line x1="800" y1="-450" x2="500" y2="-450" style="stroke:#800;stroke-width:10;stroke-opacity:1.000000;stroke-linecap:round"/>
  <g transform="translate(565,-456) rotate(0)" > <text font-size="100.0" fill="#800" font-family="monospace"  >
   19
  </text> </g> 
  <g transform="translate(280,-410) rotate(0)" > <text font-size="100.0" fill="#088" font-family="monospace"  >
   IO8
  </text> </g> 
  <circle cx="800" cy="-450" r="10"
    style="fill:none;stroke:#800;stroke-width:2"  />
 </g>
</svg>
