<?xml version="1.0"?>
<svg height="387" width="363"  >
 <g style="fill-opacity:1.0; stroke:black;
  stroke-width:1;" transform=" translate( 181.75,193.875 ) scale( 0.15,0.15 )">
  <g transform="translate(-35,-65) rotate(0)" > <text font-size="116.666666667" fill="#088" font-family="monospace"  >
   U
  </text> </g> 
  <g transform="translate(-350,135) rotate(0)" > <text font-size="116.666666667" fill="#088" font-family="monospace"  >
   MB81461ZIP
  </text> </g> 
  <rect x="-350" y="-800" height="1600"
    width="700" style="fill:none;stroke:#800;stroke-width:10" />
  <line x1="650" y1="-500" x2="350" y2="-500" style="stroke:#800;stroke-width:10;stroke-opacity:1.000000;stroke-linecap:round"/>
  <g transform="translate(457,-506) rotate(0)" > <text font-size="100.0" fill="#800" font-family="monospace"  >
   1
  </text> </g> 
  <g transform="translate(190,-460) rotate(0)" > <text font-size="100.0" fill="#088" font-family="monospace"  >
   D2
  </text> </g> 
  <circle cx="650" cy="-500" r="10"
    style="fill:none;stroke:#800;stroke-width:2"  />
  <line x1="650" y1="-400" x2="350" y2="-400" style="stroke:#800;stroke-width:10;stroke-opacity:1.000000;stroke-linecap:round"/>
  <g transform="translate(457,-406) rotate(0)" > <text font-size="100.0" fill="#800" font-family="monospace"  >
   2
  </text> </g> 
  <g transform="translate(190,-360) rotate(0)" > <text font-size="100.0" fill="#088" font-family="monospace"  >
   D3
  </text> </g> 
  <circle cx="650" cy="-400" r="10"
    style="fill:none;stroke:#800;stroke-width:2"  />
  <line x1="-650" y1="600" x2="-350" y2="600" style="stroke:#800;stroke-width:10;stroke-opacity:1.000000;stroke-linecap:round"/>
  <g transform="translate(-542,594) rotate(0)" > <text font-size="100.0" fill="#800" font-family="monospace"  >
   3
  </text> </g> 
  <g transform="translate(-332,640) rotate(0)" > <text font-size="100.0" fill="#088" font-family="monospace"  >
   SOE
  </text> </g> 
  <circle cx="-650" cy="600" r="10"
    style="fill:none;stroke:#800;stroke-width:2"  />
  <line x1="650" y1="100" x2="350" y2="100" style="stroke:#800;stroke-width:10;stroke-opacity:1.000000;stroke-linecap:round"/>
  <g transform="translate(457,94) rotate(0)" > <text font-size="100.0" fill="#800" font-family="monospace"  >
   4
  </text> </g> 
  <g transform="translate(130,140) rotate(0)" > <text font-size="100.0" fill="#088" font-family="monospace"  >
   SD2
  </text> </g> 
  <circle cx="650" cy="100" r="10"
    style="fill:none;stroke:#800;stroke-width:2"  />
  <line x1="650" y1="200" x2="350" y2="200" style="stroke:#800;stroke-width:10;stroke-opacity:1.000000;stroke-linecap:round"/>
  <g transform="translate(457,194) rotate(0)" > <text font-size="100.0" fill="#800" font-family="monospace"  >
   5
  </text> </g> 
  <g transform="translate(130,240) rotate(0)" > <text font-size="100.0" fill="#088" font-family="monospace"  >
   SD3
  </text> </g> 
  <circle cx="650" cy="200" r="10"
    style="fill:none;stroke:#800;stroke-width:2"  />
  <g transform="translate(35,815) rotate(-90)" > <text font-size="100.0" fill="#888" font-family="monospace"  >
   6
  </text> </g> 
  <g transform="translate(57,750) rotate(-90)" > <text font-size="100.0" fill="#888" font-family="monospace"  >
   VSS
  </text> </g> 
  <circle cx="50" cy="800" r="10"
    style="fill:none;stroke:#888;stroke-width:2"  />
  <line x1="-310" y1="700" x2="-350" y2="740" style="stroke:#800;stroke-width:10;stroke-opacity:1.000000;stroke-linecap:round"/>
  <line x1="-350" y1="740" x2="-350" y2="660" style="stroke:#800;stroke-width:10;stroke-opacity:1.000000;stroke-linecap:round"/>
  <line x1="-350" y1="660" x2="-310" y2="700" style="stroke:#800;stroke-width:10;stroke-opacity:1.000000;stroke-linecap:round"/>
  <line x1="-650" y1="700" x2="-350" y2="700" style="stroke:#800;stroke-width:10;stroke-opacity:1.000000;stroke-linecap:round"/>
  <g transform="translate(-542,694) rotate(0)" > <text font-size="100.0" fill="#800" font-family="monospace"  >
   7
  </text> </g> 
  <g transform="translate(-332,740) rotate(0)" > <text font-size="100.0" fill="#088" font-family="monospace"  >
   VCLK
  </text> </g> 
  <circle cx="-650" cy="700" r="10"
    style="fill:none;stroke:#800;stroke-width:2"  />
  <line x1="650" y1="-100" x2="350" y2="-100" style="stroke:#800;stroke-width:10;stroke-opacity:1.000000;stroke-linecap:round"/>
  <g transform="translate(457,-106) rotate(0)" > <text font-size="100.0" fill="#800" font-family="monospace"  >
   8
  </text> </g> 
  <g transform="translate(130,-60) rotate(0)" > <text font-size="100.0" fill="#088" font-family="monospace"  >
   SD0
  </text> </g> 
  <circle cx="650" cy="-100" r="10"
    style="fill:none;stroke:#800;stroke-width:2"  />
  <line x1="650" y1="0" x2="350" y2="0" style="stroke:#800;stroke-width:10;stroke-opacity:1.000000;stroke-linecap:round"/>
  <g transform="translate(457,-6) rotate(0)" > <text font-size="100.0" fill="#800" font-family="monospace"  >
   9
  </text> </g> 
  <g transform="translate(130,40) rotate(0)" > <text font-size="100.0" fill="#088" font-family="monospace"  >
   SD1
  </text> </g> 
  <circle cx="650" cy="0" r="10"
    style="fill:none;stroke:#800;stroke-width:2"  />
  <line x1="-650" y1="500" x2="-350" y2="500" style="stroke:#800;stroke-width:10;stroke-opacity:1.000000;stroke-linecap:round"/>
  <g transform="translate(-585,494) rotate(0)" > <text font-size="100.0" fill="#800" font-family="monospace"  >
   10
  </text> </g> 
  <g transform="translate(-332,540) rotate(0)" > <text font-size="100.0" fill="#088" font-family="monospace"  >
   DT/OE
  </text> </g> 
  <circle cx="-650" cy="500" r="10"
    style="fill:none;stroke:#800;stroke-width:2"  />
  <line x1="-650" y1="-400" x2="-350" y2="-400" style="stroke:#800;stroke-width:10;stroke-opacity:1.000000;stroke-linecap:round"/>
  <g transform="translate(-585,-406) rotate(0)" > <text font-size="100.0" fill="#800" font-family="monospace"  >
   20
  </text> </g> 
  <g transform="translate(-332,-360) rotate(0)" > <text font-size="100.0" fill="#088" font-family="monospace"  >
   A3
  </text> </g> 
  <circle cx="-650" cy="-400" r="10"
    style="fill:none;stroke:#800;stroke-width:2"  />
  <line x1="650" y1="-700" x2="350" y2="-700" style="stroke:#800;stroke-width:10;stroke-opacity:1.000000;stroke-linecap:round"/>
  <g transform="translate(415,-706) rotate(0)" > <text font-size="100.0" fill="#800" font-family="monospace"  >
   11
  </text> </g> 
  <g transform="translate(190,-660) rotate(0)" > <text font-size="100.0" fill="#088" font-family="monospace"  >
   D0
  </text> </g> 
  <circle cx="650" cy="-700" r="10"
    style="fill:none;stroke:#800;stroke-width:2"  />
  <line x1="-650" y1="-500" x2="-350" y2="-500" style="stroke:#800;stroke-width:10;stroke-opacity:1.000000;stroke-linecap:round"/>
  <g transform="translate(-585,-506) rotate(0)" > <text font-size="100.0" fill="#800" font-family="monospace"  >
   21
  </text> </g> 
  <g transform="translate(-332,-460) rotate(0)" > <text font-size="100.0" fill="#088" font-family="monospace"  >
   A2
  </text> </g> 
  <circle cx="-650" cy="-500" r="10"
    style="fill:none;stroke:#800;stroke-width:2"  />
  <line x1="650" y1="-600" x2="350" y2="-600" style="stroke:#800;stroke-width:10;stroke-opacity:1.000000;stroke-linecap:round"/>
  <g transform="translate(415,-606) rotate(0)" > <text font-size="100.0" fill="#800" font-family="monospace"  >
   12
  </text> </g> 
  <g transform="translate(190,-560) rotate(0)" > <text font-size="100.0" fill="#088" font-family="monospace"  >
   D1
  </text> </g> 
  <circle cx="650" cy="-600" r="10"
    style="fill:none;stroke:#800;stroke-width:2"  />
  <line x1="-650" y1="-600" x2="-350" y2="-600" style="stroke:#800;stroke-width:10;stroke-opacity:1.000000;stroke-linecap:round"/>
  <g transform="translate(-585,-606) rotate(0)" > <text font-size="100.0" fill="#800" font-family="monospace"  >
   22
  </text> </g> 
  <g transform="translate(-332,-560) rotate(0)" > <text font-size="100.0" fill="#088" font-family="monospace"  >
   A1
  </text> </g> 
  <circle cx="-650" cy="-600" r="10"
    style="fill:none;stroke:#800;stroke-width:2"  />
  <line x1="-650" y1="400" x2="-420" y2="400" style="stroke:#800;stroke-width:10;stroke-opacity:1.000000;stroke-linecap:round"/>
  <circle cx="-385" cy="400" r="35"
    style="fill:none;stroke:#800;stroke-width:10"  />
  <g transform="translate(-585,394) rotate(0)" > <text font-size="100.0" fill="#800" font-family="monospace"  >
   13
  </text> </g> 
  <g transform="translate(-332,440) rotate(0)" > <text font-size="100.0" fill="#088" font-family="monospace"  >
   W
  </text> </g> 
  <circle cx="-650" cy="400" r="10"
    style="fill:none;stroke:#800;stroke-width:2"  />
  <line x1="-650" y1="-700" x2="-350" y2="-700" style="stroke:#800;stroke-width:10;stroke-opacity:1.000000;stroke-linecap:round"/>
  <g transform="translate(-585,-706) rotate(0)" > <text font-size="100.0" fill="#800" font-family="monospace"  >
   23
  </text> </g> 
  <g transform="translate(-332,-660) rotate(0)" > <text font-size="100.0" fill="#088" font-family="monospace"  >
   A0
  </text> </g> 
  <circle cx="-650" cy="-700" r="10"
    style="fill:none;stroke:#800;stroke-width:2"  />
  <line x1="-650" y1="200" x2="-420" y2="200" style="stroke:#800;stroke-width:10;stroke-opacity:1.000000;stroke-linecap:round"/>
  <circle cx="-385" cy="200" r="35"
    style="fill:none;stroke:#800;stroke-width:10"  />
  <g transform="translate(-585,194) rotate(0)" > <text font-size="100.0" fill="#800" font-family="monospace"  >
   14
  </text> </g> 
  <g transform="translate(-332,240) rotate(0)" > <text font-size="100.0" fill="#088" font-family="monospace"  >
   RAS
  </text> </g> 
  <circle cx="-650" cy="200" r="10"
    style="fill:none;stroke:#800;stroke-width:2"  />
  <line x1="-650" y1="300" x2="-420" y2="300" style="stroke:#800;stroke-width:10;stroke-opacity:1.000000;stroke-linecap:round"/>
  <circle cx="-385" cy="300" r="35"
    style="fill:none;stroke:#800;stroke-width:10"  />
  <g transform="translate(-585,294) rotate(0)" > <text font-size="100.0" fill="#800" font-family="monospace"  >
   24
  </text> </g> 
  <g transform="translate(-332,340) rotate(0)" > <text font-size="100.0" fill="#088" font-family="monospace"  >
   CAS
  </text> </g> 
  <circle cx="-650" cy="300" r="10"
    style="fill:none;stroke:#800;stroke-width:2"  />
  <line x1="-650" y1="-100" x2="-350" y2="-100" style="stroke:#800;stroke-width:10;stroke-opacity:1.000000;stroke-linecap:round"/>
  <g transform="translate(-585,-106) rotate(0)" > <text font-size="100.0" fill="#800" font-family="monospace"  >
   15
  </text> </g> 
  <g transform="translate(-332,-60) rotate(0)" > <text font-size="100.0" fill="#088" font-family="monospace"  >
   A6
  </text> </g> 
  <circle cx="-650" cy="-100" r="10"
    style="fill:none;stroke:#800;stroke-width:2"  />
  <line x1="-650" y1="-200" x2="-350" y2="-200" style="stroke:#800;stroke-width:10;stroke-opacity:1.000000;stroke-linecap:round"/>
  <g transform="translate(-585,-206) rotate(0)" > <text font-size="100.0" fill="#800" font-family="monospace"  >
   16
  </text> </g> 
  <g transform="translate(-332,-160) rotate(0)" > <text font-size="100.0" fill="#088" font-family="monospace"  >
   A5
  </text> </g> 
  <circle cx="-650" cy="-200" r="10"
    style="fill:none;stroke:#800;stroke-width:2"  />
  <line x1="-650" y1="-300" x2="-350" y2="-300" style="stroke:#800;stroke-width:10;stroke-opacity:1.000000;stroke-linecap:round"/>
  <g transform="translate(-585,-306) rotate(0)" > <text font-size="100.0" fill="#800" font-family="monospace"  >
   17
  </text> </g> 
  <g transform="translate(-332,-260) rotate(0)" > <text font-size="100.0" fill="#088" font-family="monospace"  >
   A4
  </text> </g> 
  <circle cx="-650" cy="-300" r="10"
    style="fill:none;stroke:#800;stroke-width:2"  />
  <g transform="translate(35,-770) rotate(-90)" > <text font-size="100.0" fill="#888" font-family="monospace"  >
   18
  </text> </g> 
  <g transform="translate(57,-850) rotate(-90)" > <text font-size="100.0" fill="#888" font-family="monospace"  >
   VCC
  </text> </g> 
  <circle cx="50" cy="-800" r="10"
    style="fill:none;stroke:#888;stroke-width:2"  />
  <line x1="-650" y1="0" x2="-350" y2="0" style="stroke:#800;stroke-width:10;stroke-opacity:1.000000;stroke-linecap:round"/>
  <g transform="translate(-585,-6) rotate(0)" > <text font-size="100.0" fill="#800" font-family="monospace"  >
   19
  </text> </g> 
  <g transform="translate(-332,40) rotate(0)" > <text font-size="100.0" fill="#088" font-family="monospace"  >
   A7
  </text> </g> 
  <circle cx="-650" cy="0" r="10"
    style="fill:none;stroke:#800;stroke-width:2"  />
 </g>
</svg>
