<?xml version="1.0"?>
<svg height="425" width="425"  >
 <g style="fill-opacity:1.0; stroke:black;
  stroke-width:1;" transform=" translate( 212.5,212.5 ) scale( 0.15,0.15 )">
  <g transform="translate(-35,-65) rotate(0)" > <text font-size="116.666666667" fill="#088" font-family="monospace"  >
   U
  </text> </g> 
  <g transform="translate(-350,135) rotate(0)" > <text font-size="116.666666667" fill="#088" font-family="monospace"  >
   TMS4C1050N
  </text> </g> 
  <rect x="-550" y="-450" height="900"
    width="1100" style="fill:none;stroke:#800;stroke-width:10" />
  <line x1="-850" y1="-350" x2="-550" y2="-350" style="stroke:#800;stroke-width:10;stroke-opacity:1.000000;stroke-linecap:round"/>
  <g transform="translate(-742,-356) rotate(0)" > <text font-size="100.0" fill="#800" font-family="monospace"  >
   1
  </text> </g> 
  <g transform="translate(-532,-310) rotate(0)" > <text font-size="100.0" fill="#088" font-family="monospace"  >
   WE
  </text> </g> 
  <circle cx="-850" cy="-350" r="10"
    style="fill:none;stroke:#800;stroke-width:2"  />
  <line x1="-850" y1="-250" x2="-550" y2="-250" style="stroke:#800;stroke-width:10;stroke-opacity:1.000000;stroke-linecap:round"/>
  <g transform="translate(-742,-256) rotate(0)" > <text font-size="100.0" fill="#800" font-family="monospace"  >
   2
  </text> </g> 
  <g transform="translate(-532,-210) rotate(0)" > <text font-size="100.0" fill="#088" font-family="monospace"  >
   RSTW
  </text> </g> 
  <circle cx="-850" cy="-250" r="10"
    style="fill:none;stroke:#800;stroke-width:2"  />
  <line x1="-510" y1="-150" x2="-550" y2="-110" style="stroke:#800;stroke-width:10;stroke-opacity:1.000000;stroke-linecap:round"/>
  <line x1="-550" y1="-110" x2="-550" y2="-190" style="stroke:#800;stroke-width:10;stroke-opacity:1.000000;stroke-linecap:round"/>
  <line x1="-550" y1="-190" x2="-510" y2="-150" style="stroke:#800;stroke-width:10;stroke-opacity:1.000000;stroke-linecap:round"/>
  <line x1="-850" y1="-150" x2="-550" y2="-150" style="stroke:#800;stroke-width:10;stroke-opacity:1.000000;stroke-linecap:round"/>
  <g transform="translate(-742,-156) rotate(0)" > <text font-size="100.0" fill="#800" font-family="monospace"  >
   3
  </text> </g> 
  <g transform="translate(-532,-110) rotate(0)" > <text font-size="100.0" fill="#088" font-family="monospace"  >
   SWCLK
  </text> </g> 
  <circle cx="-850" cy="-150" r="10"
    style="fill:none;stroke:#800;stroke-width:2"  />
  <line x1="-850" y1="50" x2="-550" y2="50" style="stroke:#800;stroke-width:10;stroke-opacity:1.000000;stroke-linecap:round"/>
  <g transform="translate(-742,44) rotate(0)" > <text font-size="100.0" fill="#800" font-family="monospace"  >
   4
  </text> </g> 
  <g transform="translate(-532,90) rotate(0)" > <text font-size="100.0" fill="#088" font-family="monospace"  >
   D0
  </text> </g> 
  <circle cx="-850" cy="50" r="10"
    style="fill:none;stroke:#800;stroke-width:2"  />
  <line x1="-850" y1="150" x2="-550" y2="150" style="stroke:#800;stroke-width:10;stroke-opacity:1.000000;stroke-linecap:round"/>
  <g transform="translate(-742,144) rotate(0)" > <text font-size="100.0" fill="#800" font-family="monospace"  >
   5
  </text> </g> 
  <g transform="translate(-532,190) rotate(0)" > <text font-size="100.0" fill="#088" font-family="monospace"  >
   D1
  </text> </g> 
  <circle cx="-850" cy="150" r="10"
    style="fill:none;stroke:#800;stroke-width:2"  />
  <line x1="-850" y1="250" x2="-550" y2="250" style="stroke:#800;stroke-width:10;stroke-opacity:1.000000;stroke-linecap:round"/>
  <g transform="translate(-742,244) rotate(0)" > <text font-size="100.0" fill="#800" font-family="monospace"  >
   6
  </text> </g> 
  <g transform="translate(-532,290) rotate(0)" > <text font-size="100.0" fill="#088" font-family="monospace"  >
   D2
  </text> </g> 
  <circle cx="-850" cy="250" r="10"
    style="fill:none;stroke:#800;stroke-width:2"  />
  <line x1="-850" y1="350" x2="-550" y2="350" style="stroke:#800;stroke-width:10;stroke-opacity:1.000000;stroke-linecap:round"/>
  <g transform="translate(-742,344) rotate(0)" > <text font-size="100.0" fill="#800" font-family="monospace"  >
   7
  </text> </g> 
  <g transform="translate(-532,390) rotate(0)" > <text font-size="100.0" fill="#088" font-family="monospace"  >
   D3
  </text> </g> 
  <circle cx="-850" cy="350" r="10"
    style="fill:none;stroke:#800;stroke-width:2"  />
  <g transform="translate(-565,465) rotate(-90)" > <text font-size="100.0" fill="#888" font-family="monospace"  >
   8
  </text> </g> 
  <g transform="translate(-542,400) rotate(-90)" > <text font-size="100.0" fill="#888" font-family="monospace"  >
   GND
  </text> </g> 
  <circle cx="-550" cy="450" r="10"
    style="fill:none;stroke:#888;stroke-width:2"  />
  <line x1="850" y1="350" x2="550" y2="350" style="stroke:#800;stroke-width:10;stroke-opacity:1.000000;stroke-linecap:round"/>
  <g transform="translate(657,344) rotate(0)" > <text font-size="100.0" fill="#800" font-family="monospace"  >
   9
  </text> </g> 
  <g transform="translate(390,390) rotate(0)" > <text font-size="100.0" fill="#088" font-family="monospace"  >
   Q3
  </text> </g> 
  <circle cx="850" cy="350" r="10"
    style="fill:none;stroke:#800;stroke-width:2"  />
  <line x1="850" y1="250" x2="550" y2="250" style="stroke:#800;stroke-width:10;stroke-opacity:1.000000;stroke-linecap:round"/>
  <g transform="translate(615,244) rotate(0)" > <text font-size="100.0" fill="#800" font-family="monospace"  >
   10
  </text> </g> 
  <g transform="translate(390,290) rotate(0)" > <text font-size="100.0" fill="#088" font-family="monospace"  >
   Q2
  </text> </g> 
  <circle cx="850" cy="250" r="10"
    style="fill:none;stroke:#800;stroke-width:2"  />
  <line x1="850" y1="150" x2="550" y2="150" style="stroke:#800;stroke-width:10;stroke-opacity:1.000000;stroke-linecap:round"/>
  <g transform="translate(615,144) rotate(0)" > <text font-size="100.0" fill="#800" font-family="monospace"  >
   11
  </text> </g> 
  <g transform="translate(390,190) rotate(0)" > <text font-size="100.0" fill="#088" font-family="monospace"  >
   Q1
  </text> </g> 
  <circle cx="850" cy="150" r="10"
    style="fill:none;stroke:#800;stroke-width:2"  />
  <line x1="850" y1="50" x2="550" y2="50" style="stroke:#800;stroke-width:10;stroke-opacity:1.000000;stroke-linecap:round"/>
  <g transform="translate(615,44) rotate(0)" > <text font-size="100.0" fill="#800" font-family="monospace"  >
   12
  </text> </g> 
  <g transform="translate(390,90) rotate(0)" > <text font-size="100.0" fill="#088" font-family="monospace"  >
   Q0
  </text> </g> 
  <circle cx="850" cy="50" r="10"
    style="fill:none;stroke:#800;stroke-width:2"  />
  <line x1="510" y1="-150" x2="550" y2="-110" style="stroke:#800;stroke-width:10;stroke-opacity:1.000000;stroke-linecap:round"/>
  <line x1="550" y1="-110" x2="550" y2="-190" style="stroke:#800;stroke-width:10;stroke-opacity:1.000000;stroke-linecap:round"/>
  <line x1="550" y1="-190" x2="510" y2="-150" style="stroke:#800;stroke-width:10;stroke-opacity:1.000000;stroke-linecap:round"/>
  <line x1="850" y1="-150" x2="550" y2="-150" style="stroke:#800;stroke-width:10;stroke-opacity:1.000000;stroke-linecap:round"/>
  <g transform="translate(615,-156) rotate(0)" > <text font-size="100.0" fill="#800" font-family="monospace"  >
   13
  </text> </g> 
  <g transform="translate(210,-110) rotate(0)" > <text font-size="100.0" fill="#088" font-family="monospace"  >
   SRCLK
  </text> </g> 
  <circle cx="850" cy="-150" r="10"
    style="fill:none;stroke:#800;stroke-width:2"  />
  <line x1="850" y1="-250" x2="550" y2="-250" style="stroke:#800;stroke-width:10;stroke-opacity:1.000000;stroke-linecap:round"/>
  <g transform="translate(615,-256) rotate(0)" > <text font-size="100.0" fill="#800" font-family="monospace"  >
   14
  </text> </g> 
  <g transform="translate(270,-210) rotate(0)" > <text font-size="100.0" fill="#088" font-family="monospace"  >
   RSTR
  </text> </g> 
  <circle cx="850" cy="-250" r="10"
    style="fill:none;stroke:#800;stroke-width:2"  />
  <line x1="850" y1="-350" x2="550" y2="-350" style="stroke:#800;stroke-width:10;stroke-opacity:1.000000;stroke-linecap:round"/>
  <g transform="translate(615,-356) rotate(0)" > <text font-size="100.0" fill="#800" font-family="monospace"  >
   15
  </text> </g> 
  <g transform="translate(210,-310) rotate(0)" > <text font-size="100.0" fill="#088" font-family="monospace"  >
   RE/OE
  </text> </g> 
  <circle cx="850" cy="-350" r="10"
    style="fill:none;stroke:#800;stroke-width:2"  />
  <g transform="translate(-565,-420) rotate(-90)" > <text font-size="100.0" fill="#888" font-family="monospace"  >
   16
  </text> </g> 
  <g transform="translate(-542,-500) rotate(-90)" > <text font-size="100.0" fill="#888" font-family="monospace"  >
   VCC
  </text> </g> 
  <circle cx="-550" cy="-450" r="10"
    style="fill:none;stroke:#888;stroke-width:2"  />
 </g>
</svg>
