<?xml version="1.0"?>
<svg height="545" width="545"  >
 <g style="fill-opacity:1.0; stroke:black;
  stroke-width:1;" transform=" translate( 272.5,272.5 ) scale( 0.15,0.15 )">
  <g transform="translate(-35,-65) rotate(0)" > <text font-size="116.666666667" fill="#088" font-family="monospace"  >
   U
  </text> </g> 
  <g transform="translate(-245,135) rotate(0)" > <text font-size="116.666666667" fill="#088" font-family="monospace"  >
   UVC3100
  </text> </g> 
  <rect x="-450" y="-1150" height="2300"
    width="900" style="fill:none;stroke:#800;stroke-width:10" />
  <line x1="-750" y1="450" x2="-450" y2="450" style="stroke:#800;stroke-width:10;stroke-opacity:1.000000;stroke-linecap:round"/>
  <g transform="translate(-642,444) rotate(0)" > <text font-size="100.0" fill="#800" font-family="monospace"  >
   2
  </text> </g> 
  <g transform="translate(-432,490) rotate(0)" > <text font-size="100.0" fill="#088" font-family="monospace"  >
   VOUT
  </text> </g> 
  <circle cx="-750" cy="450" r="10"
    style="fill:none;stroke:#800;stroke-width:2"  />
  <line x1="-350" y1="1450" x2="-350" y2="1150" style="stroke:#800;stroke-width:10;stroke-opacity:1.000000;stroke-linecap:round"/>
  <g transform="translate(-365,1315) rotate(-90)" > <text font-size="100.0" fill="#800" font-family="monospace"  >
   3
  </text> </g> 
  <g transform="translate(-342,1100) rotate(-90)" > <text font-size="100.0" fill="#088" font-family="monospace"  >
   -5V
  </text> </g> 
  <circle cx="-350" cy="1450" r="10"
    style="fill:none;stroke:#800;stroke-width:2"  />
  <line x1="-750" y1="150" x2="-450" y2="150" style="stroke:#800;stroke-width:10;stroke-opacity:1.000000;stroke-linecap:round"/>
  <g transform="translate(-642,144) rotate(0)" > <text font-size="100.0" fill="#800" font-family="monospace"  >
   4
  </text> </g> 
  <g transform="translate(-432,190) rotate(0)" > <text font-size="100.0" fill="#088" font-family="monospace"  >
   DI9
  </text> </g> 
  <circle cx="-750" cy="150" r="10"
    style="fill:none;stroke:#800;stroke-width:2"  />
  <line x1="-750" y1="50" x2="-450" y2="50" style="stroke:#800;stroke-width:10;stroke-opacity:1.000000;stroke-linecap:round"/>
  <g transform="translate(-642,44) rotate(0)" > <text font-size="100.0" fill="#800" font-family="monospace"  >
   5
  </text> </g> 
  <g transform="translate(-432,90) rotate(0)" > <text font-size="100.0" fill="#088" font-family="monospace"  >
   DI8
  </text> </g> 
  <circle cx="-750" cy="50" r="10"
    style="fill:none;stroke:#800;stroke-width:2"  />
  <line x1="-750" y1="-50" x2="-450" y2="-50" style="stroke:#800;stroke-width:10;stroke-opacity:1.000000;stroke-linecap:round"/>
  <g transform="translate(-642,-56) rotate(0)" > <text font-size="100.0" fill="#800" font-family="monospace"  >
   6
  </text> </g> 
  <g transform="translate(-432,-10) rotate(0)" > <text font-size="100.0" fill="#088" font-family="monospace"  >
   DI7
  </text> </g> 
  <circle cx="-750" cy="-50" r="10"
    style="fill:none;stroke:#800;stroke-width:2"  />
  <line x1="-750" y1="-150" x2="-450" y2="-150" style="stroke:#800;stroke-width:10;stroke-opacity:1.000000;stroke-linecap:round"/>
  <g transform="translate(-642,-156) rotate(0)" > <text font-size="100.0" fill="#800" font-family="monospace"  >
   7
  </text> </g> 
  <g transform="translate(-432,-110) rotate(0)" > <text font-size="100.0" fill="#088" font-family="monospace"  >
   DI6
  </text> </g> 
  <circle cx="-750" cy="-150" r="10"
    style="fill:none;stroke:#800;stroke-width:2"  />
  <line x1="-750" y1="-250" x2="-450" y2="-250" style="stroke:#800;stroke-width:10;stroke-opacity:1.000000;stroke-linecap:round"/>
  <g transform="translate(-642,-256) rotate(0)" > <text font-size="100.0" fill="#800" font-family="monospace"  >
   8
  </text> </g> 
  <g transform="translate(-432,-210) rotate(0)" > <text font-size="100.0" fill="#088" font-family="monospace"  >
   DI5
  </text> </g> 
  <circle cx="-750" cy="-250" r="10"
    style="fill:none;stroke:#800;stroke-width:2"  />
  <line x1="-750" y1="-350" x2="-450" y2="-350" style="stroke:#800;stroke-width:10;stroke-opacity:1.000000;stroke-linecap:round"/>
  <g transform="translate(-642,-356) rotate(0)" > <text font-size="100.0" fill="#800" font-family="monospace"  >
   9
  </text> </g> 
  <g transform="translate(-432,-310) rotate(0)" > <text font-size="100.0" fill="#088" font-family="monospace"  >
   DI4
  </text> </g> 
  <circle cx="-750" cy="-350" r="10"
    style="fill:none;stroke:#800;stroke-width:2"  />
  <line x1="-750" y1="-450" x2="-450" y2="-450" style="stroke:#800;stroke-width:10;stroke-opacity:1.000000;stroke-linecap:round"/>
  <g transform="translate(-685,-456) rotate(0)" > <text font-size="100.0" fill="#800" font-family="monospace"  >
   10
  </text> </g> 
  <g transform="translate(-432,-410) rotate(0)" > <text font-size="100.0" fill="#088" font-family="monospace"  >
   DI3
  </text> </g> 
  <circle cx="-750" cy="-450" r="10"
    style="fill:none;stroke:#800;stroke-width:2"  />
  <line x1="750" y1="250" x2="450" y2="250" style="stroke:#800;stroke-width:10;stroke-opacity:1.000000;stroke-linecap:round"/>
  <g transform="translate(515,244) rotate(0)" > <text font-size="100.0" fill="#800" font-family="monospace"  >
   20
  </text> </g> 
  <g transform="translate(170,290) rotate(0)" > <text font-size="100.0" fill="#088" font-family="monospace"  >
   PCLE
  </text> </g> 
  <circle cx="750" cy="250" r="10"
    style="fill:none;stroke:#800;stroke-width:2"  />
  <line x1="750" y1="-350" x2="450" y2="-350" style="stroke:#800;stroke-width:10;stroke-opacity:1.000000;stroke-linecap:round"/>
  <g transform="translate(515,-356) rotate(0)" > <text font-size="100.0" fill="#800" font-family="monospace"  >
   30
  </text> </g> 
  <g transform="translate(230,-310) rotate(0)" > <text font-size="100.0" fill="#088" font-family="monospace"  >
   DO4
  </text> </g> 
  <circle cx="750" cy="-350" r="10"
    style="fill:none;stroke:#800;stroke-width:2"  />
  <line x1="-750" y1="-550" x2="-450" y2="-550" style="stroke:#800;stroke-width:10;stroke-opacity:1.000000;stroke-linecap:round"/>
  <g transform="translate(-685,-556) rotate(0)" > <text font-size="100.0" fill="#800" font-family="monospace"  >
   11
  </text> </g> 
  <g transform="translate(-432,-510) rotate(0)" > <text font-size="100.0" fill="#088" font-family="monospace"  >
   DI2
  </text> </g> 
  <circle cx="-750" cy="-550" r="10"
    style="fill:none;stroke:#800;stroke-width:2"  />
  <line x1="750" y1="350" x2="450" y2="350" style="stroke:#800;stroke-width:10;stroke-opacity:1.000000;stroke-linecap:round"/>
  <g transform="translate(515,344) rotate(0)" > <text font-size="100.0" fill="#800" font-family="monospace"  >
   21
  </text> </g> 
  <g transform="translate(230,390) rotate(0)" > <text font-size="100.0" fill="#088" font-family="monospace"  >
   VIN
  </text> </g> 
  <circle cx="750" cy="350" r="10"
    style="fill:none;stroke:#800;stroke-width:2"  />
  <line x1="750" y1="-450" x2="450" y2="-450" style="stroke:#800;stroke-width:10;stroke-opacity:1.000000;stroke-linecap:round"/>
  <g transform="translate(515,-456) rotate(0)" > <text font-size="100.0" fill="#800" font-family="monospace"  >
   31
  </text> </g> 
  <g transform="translate(230,-410) rotate(0)" > <text font-size="100.0" fill="#088" font-family="monospace"  >
   DO3
  </text> </g> 
  <circle cx="750" cy="-450" r="10"
    style="fill:none;stroke:#800;stroke-width:2"  />
  <line x1="-750" y1="-650" x2="-450" y2="-650" style="stroke:#800;stroke-width:10;stroke-opacity:1.000000;stroke-linecap:round"/>
  <g transform="translate(-685,-656) rotate(0)" > <text font-size="100.0" fill="#800" font-family="monospace"  >
   12
  </text> </g> 
  <g transform="translate(-432,-610) rotate(0)" > <text font-size="100.0" fill="#088" font-family="monospace"  >
   DI1
  </text> </g> 
  <circle cx="-750" cy="-650" r="10"
    style="fill:none;stroke:#800;stroke-width:2"  />
  <line x1="750" y1="450" x2="450" y2="450" style="stroke:#800;stroke-width:10;stroke-opacity:1.000000;stroke-linecap:round"/>
  <g transform="translate(515,444) rotate(0)" > <text font-size="100.0" fill="#800" font-family="monospace"  >
   22
  </text> </g> 
  <g transform="translate(170,490) rotate(0)" > <text font-size="100.0" fill="#088" font-family="monospace"  >
   CLEV
  </text> </g> 
  <circle cx="750" cy="450" r="10"
    style="fill:none;stroke:#800;stroke-width:2"  />
  <line x1="750" y1="-550" x2="450" y2="-550" style="stroke:#800;stroke-width:10;stroke-opacity:1.000000;stroke-linecap:round"/>
  <g transform="translate(515,-556) rotate(0)" > <text font-size="100.0" fill="#800" font-family="monospace"  >
   32
  </text> </g> 
  <g transform="translate(230,-510) rotate(0)" > <text font-size="100.0" fill="#088" font-family="monospace"  >
   DO2
  </text> </g> 
  <circle cx="750" cy="-550" r="10"
    style="fill:none;stroke:#800;stroke-width:2"  />
  <line x1="-750" y1="-750" x2="-450" y2="-750" style="stroke:#800;stroke-width:10;stroke-opacity:1.000000;stroke-linecap:round"/>
  <g transform="translate(-685,-756) rotate(0)" > <text font-size="100.0" fill="#800" font-family="monospace"  >
   13
  </text> </g> 
  <g transform="translate(-432,-710) rotate(0)" > <text font-size="100.0" fill="#088" font-family="monospace"  >
   DI0
  </text> </g> 
  <circle cx="-750" cy="-750" r="10"
    style="fill:none;stroke:#800;stroke-width:2"  />
  <line x1="750" y1="550" x2="450" y2="550" style="stroke:#800;stroke-width:10;stroke-opacity:1.000000;stroke-linecap:round"/>
  <g transform="translate(515,544) rotate(0)" > <text font-size="100.0" fill="#800" font-family="monospace"  >
   23
  </text> </g> 
  <g transform="translate(170,590) rotate(0)" > <text font-size="100.0" fill="#088" font-family="monospace"  >
   KEYP
  </text> </g> 
  <circle cx="750" cy="550" r="10"
    style="fill:none;stroke:#800;stroke-width:2"  />
  <line x1="750" y1="-650" x2="450" y2="-650" style="stroke:#800;stroke-width:10;stroke-opacity:1.000000;stroke-linecap:round"/>
  <g transform="translate(515,-656) rotate(0)" > <text font-size="100.0" fill="#800" font-family="monospace"  >
   33
  </text> </g> 
  <g transform="translate(230,-610) rotate(0)" > <text font-size="100.0" fill="#088" font-family="monospace"  >
   DO1
  </text> </g> 
  <circle cx="750" cy="-650" r="10"
    style="fill:none;stroke:#800;stroke-width:2"  />
  <line x1="-150" y1="-1450" x2="-150" y2="-1150" style="stroke:#800;stroke-width:10;stroke-opacity:1.000000;stroke-linecap:round"/>
  <g transform="translate(-165,-1270) rotate(-90)" > <text font-size="100.0" fill="#800" font-family="monospace"  >
   14
  </text> </g> 
  <g transform="translate(-142,-920) rotate(-90)" > <text font-size="100.0" fill="#088" font-family="monospace"  >
   VCC
  </text> </g> 
  <circle cx="-150" cy="-1450" r="10"
    style="fill:none;stroke:#800;stroke-width:2"  />
  <line x1="350" y1="1450" x2="350" y2="1150" style="stroke:#800;stroke-width:10;stroke-opacity:1.000000;stroke-linecap:round"/>
  <g transform="translate(335,1330) rotate(-90)" > <text font-size="100.0" fill="#800" font-family="monospace"  >
   24
  </text> </g> 
  <g transform="translate(357,1100) rotate(-90)" > <text font-size="100.0" fill="#088" font-family="monospace"  >
   GND
  </text> </g> 
  <circle cx="350" cy="1450" r="10"
    style="fill:none;stroke:#800;stroke-width:2"  />
  <line x1="750" y1="-750" x2="450" y2="-750" style="stroke:#800;stroke-width:10;stroke-opacity:1.000000;stroke-linecap:round"/>
  <g transform="translate(515,-756) rotate(0)" > <text font-size="100.0" fill="#800" font-family="monospace"  >
   34
  </text> </g> 
  <g transform="translate(230,-710) rotate(0)" > <text font-size="100.0" fill="#088" font-family="monospace"  >
   DO0
  </text> </g> 
  <circle cx="750" cy="-750" r="10"
    style="fill:none;stroke:#800;stroke-width:2"  />
  <line x1="-410" y1="350" x2="-450" y2="390" style="stroke:#800;stroke-width:10;stroke-opacity:1.000000;stroke-linecap:round"/>
  <line x1="-450" y1="390" x2="-450" y2="310" style="stroke:#800;stroke-width:10;stroke-opacity:1.000000;stroke-linecap:round"/>
  <line x1="-450" y1="310" x2="-410" y2="350" style="stroke:#800;stroke-width:10;stroke-opacity:1.000000;stroke-linecap:round"/>
  <line x1="-750" y1="350" x2="-520" y2="350" style="stroke:#800;stroke-width:10;stroke-opacity:1.000000;stroke-linecap:round"/>
  <circle cx="-485" cy="350" r="35"
    style="fill:none;stroke:#800;stroke-width:10"  />
  <g transform="translate(-685,344) rotate(0)" > <text font-size="100.0" fill="#800" font-family="monospace"  >
   15
  </text> </g> 
  <g transform="translate(-432,390) rotate(0)" > <text font-size="100.0" fill="#088" font-family="monospace"  >
   CKDA
  </text> </g> 
  <circle cx="-750" cy="350" r="10"
    style="fill:none;stroke:#800;stroke-width:2"  />
  <line x1="750" y1="750" x2="450" y2="750" style="stroke:#800;stroke-width:10;stroke-opacity:1.000000;stroke-linecap:round"/>
  <g transform="translate(515,744) rotate(0)" > <text font-size="100.0" fill="#800" font-family="monospace"  >
   25
  </text> </g> 
  <g transform="translate(170,790) rotate(0)" > <text font-size="100.0" fill="#088" font-family="monospace"  >
   VREF
  </text> </g> 
  <circle cx="750" cy="750" r="10"
    style="fill:none;stroke:#800;stroke-width:2"  />
  <line x1="50" y1="1450" x2="50" y2="1150" style="stroke:#800;stroke-width:10;stroke-opacity:1.000000;stroke-linecap:round"/>
  <g transform="translate(35,1330) rotate(-90)" > <text font-size="100.0" fill="#800" font-family="monospace"  >
   35
  </text> </g> 
  <g transform="translate(57,1100) rotate(-90)" > <text font-size="100.0" fill="#088" font-family="monospace"  >
   VSS
  </text> </g> 
  <circle cx="50" cy="1450" r="10"
    style="fill:none;stroke:#800;stroke-width:2"  />
  <line x1="-50" y1="1450" x2="-50" y2="1150" style="stroke:#800;stroke-width:10;stroke-opacity:1.000000;stroke-linecap:round"/>
  <g transform="translate(-65,1330) rotate(-90)" > <text font-size="100.0" fill="#800" font-family="monospace"  >
   16
  </text> </g> 
  <g transform="translate(-42,1100) rotate(-90)" > <text font-size="100.0" fill="#088" font-family="monospace"  >
   VSS
  </text> </g> 
  <circle cx="-50" cy="1450" r="10"
    style="fill:none;stroke:#800;stroke-width:2"  />
  <line x1="150" y1="-1450" x2="150" y2="-1150" style="stroke:#800;stroke-width:10;stroke-opacity:1.000000;stroke-linecap:round"/>
  <g transform="translate(135,-1270) rotate(-90)" > <text font-size="100.0" fill="#800" font-family="monospace"  >
   26
  </text> </g> 
  <g transform="translate(157,-920) rotate(-90)" > <text font-size="100.0" fill="#088" font-family="monospace"  >
   VCC
  </text> </g> 
  <circle cx="150" cy="-1450" r="10"
    style="fill:none;stroke:#800;stroke-width:2"  />
  <line x1="50" y1="-1450" x2="50" y2="-1150" style="stroke:#800;stroke-width:10;stroke-opacity:1.000000;stroke-linecap:round"/>
  <g transform="translate(35,-1270) rotate(-90)" > <text font-size="100.0" fill="#800" font-family="monospace"  >
   36
  </text> </g> 
  <g transform="translate(57,-920) rotate(-90)" > <text font-size="100.0" fill="#088" font-family="monospace"  >
   VCC
  </text> </g> 
  <circle cx="50" cy="-1450" r="10"
    style="fill:none;stroke:#800;stroke-width:2"  />
  <line x1="-250" y1="1450" x2="-250" y2="1150" style="stroke:#800;stroke-width:10;stroke-opacity:1.000000;stroke-linecap:round"/>
  <g transform="translate(-265,1330) rotate(-90)" > <text font-size="100.0" fill="#800" font-family="monospace"  >
   17
  </text> </g> 
  <g transform="translate(-242,1100) rotate(-90)" > <text font-size="100.0" fill="#088" font-family="monospace"  >
   -5V
  </text> </g> 
  <circle cx="-250" cy="1450" r="10"
    style="fill:none;stroke:#800;stroke-width:2"  />
  <line x1="750" y1="-50" x2="450" y2="-50" style="stroke:#800;stroke-width:10;stroke-opacity:1.000000;stroke-linecap:round"/>
  <g transform="translate(515,-56) rotate(0)" > <text font-size="100.0" fill="#800" font-family="monospace"  >
   27
  </text> </g> 
  <g transform="translate(230,-10) rotate(0)" > <text font-size="100.0" fill="#088" font-family="monospace"  >
   DO7
  </text> </g> 
  <circle cx="750" cy="-50" r="10"
    style="fill:none;stroke:#800;stroke-width:2"  />
  <line x1="250" y1="1450" x2="250" y2="1150" style="stroke:#800;stroke-width:10;stroke-opacity:1.000000;stroke-linecap:round"/>
  <g transform="translate(235,1330) rotate(-90)" > <text font-size="100.0" fill="#800" font-family="monospace"  >
   37
  </text> </g> 
  <g transform="translate(257,1100) rotate(-90)" > <text font-size="100.0" fill="#088" font-family="monospace"  >
   GND
  </text> </g> 
  <circle cx="250" cy="1450" r="10"
    style="fill:none;stroke:#800;stroke-width:2"  />
  <line x1="410" y1="150" x2="450" y2="190" style="stroke:#800;stroke-width:10;stroke-opacity:1.000000;stroke-linecap:round"/>
  <line x1="450" y1="190" x2="450" y2="110" style="stroke:#800;stroke-width:10;stroke-opacity:1.000000;stroke-linecap:round"/>
  <line x1="450" y1="110" x2="410" y2="150" style="stroke:#800;stroke-width:10;stroke-opacity:1.000000;stroke-linecap:round"/>
  <line x1="750" y1="150" x2="520" y2="150" style="stroke:#800;stroke-width:10;stroke-opacity:1.000000;stroke-linecap:round"/>
  <circle cx="485" cy="150" r="35"
    style="fill:none;stroke:#800;stroke-width:10"  />
  <g transform="translate(515,144) rotate(0)" > <text font-size="100.0" fill="#800" font-family="monospace"  >
   18
  </text> </g> 
  <g transform="translate(170,190) rotate(0)" > <text font-size="100.0" fill="#088" font-family="monospace"  >
   CKAD
  </text> </g> 
  <circle cx="750" cy="150" r="10"
    style="fill:none;stroke:#800;stroke-width:2"  />
  <line x1="750" y1="-150" x2="450" y2="-150" style="stroke:#800;stroke-width:10;stroke-opacity:1.000000;stroke-linecap:round"/>
  <g transform="translate(515,-156) rotate(0)" > <text font-size="100.0" fill="#800" font-family="monospace"  >
   28
  </text> </g> 
  <g transform="translate(230,-110) rotate(0)" > <text font-size="100.0" fill="#088" font-family="monospace"  >
   DO6
  </text> </g> 
  <circle cx="750" cy="-150" r="10"
    style="fill:none;stroke:#800;stroke-width:2"  />
  <line x1="-750" y1="650" x2="-450" y2="650" style="stroke:#800;stroke-width:10;stroke-opacity:1.000000;stroke-linecap:round"/>
  <g transform="translate(-685,644) rotate(0)" > <text font-size="100.0" fill="#800" font-family="monospace"  >
   38
  </text> </g> 
  <g transform="translate(-432,690) rotate(0)" > <text font-size="100.0" fill="#088" font-family="monospace"  >
   EAIN
  </text> </g> 
  <circle cx="-750" cy="650" r="10"
    style="fill:none;stroke:#800;stroke-width:2"  />
  <line x1="-50" y1="-1450" x2="-50" y2="-1150" style="stroke:#800;stroke-width:10;stroke-opacity:1.000000;stroke-linecap:round"/>
  <g transform="translate(-65,-1270) rotate(-90)" > <text font-size="100.0" fill="#800" font-family="monospace"  >
   19
  </text> </g> 
  <g transform="translate(-42,-920) rotate(-90)" > <text font-size="100.0" fill="#088" font-family="monospace"  >
   VCC
  </text> </g> 
  <circle cx="-50" cy="-1450" r="10"
    style="fill:none;stroke:#800;stroke-width:2"  />
  <line x1="750" y1="-250" x2="450" y2="-250" style="stroke:#800;stroke-width:10;stroke-opacity:1.000000;stroke-linecap:round"/>
  <g transform="translate(515,-256) rotate(0)" > <text font-size="100.0" fill="#800" font-family="monospace"  >
   29
  </text> </g> 
  <g transform="translate(230,-210) rotate(0)" > <text font-size="100.0" fill="#088" font-family="monospace"  >
   DO5
  </text> </g> 
  <circle cx="750" cy="-250" r="10"
    style="fill:none;stroke:#800;stroke-width:2"  />
  <line x1="-750" y1="550" x2="-450" y2="550" style="stroke:#800;stroke-width:10;stroke-opacity:1.000000;stroke-linecap:round"/>
  <g transform="translate(-685,544) rotate(0)" > <text font-size="100.0" fill="#800" font-family="monospace"  >
   39
  </text> </g> 
  <g transform="translate(-432,590) rotate(0)" > <text font-size="100.0" fill="#088" font-family="monospace"  >
   SWI
  </text> </g> 
  <circle cx="-750" cy="550" r="10"
    style="fill:none;stroke:#800;stroke-width:2"  />
 </g>
</svg>
