<?xml version="1.0"?>
<svg height="369" width="310"  >
 <g style="fill-opacity:1.0; stroke:black;
  stroke-width:1;" transform=" translate( 155.125,184.75 ) scale( 0.15,0.15 )">
  <g transform="translate(-30,-320) rotate(0)" > <text font-size="100.0" fill="#088" font-family="monospace"  >
   U
  </text> </g> 
  <g transform="translate(-300,330) rotate(0)" > <text font-size="100.0" fill="#088" font-family="monospace"  >
   X9258-PART
  </text> </g> 
  <rect x="-200" y="-700" height="1400"
    width="400" style="fill:none;stroke:#800;stroke-width:10" />
  <line x1="-500" y1="-450" x2="-200" y2="-450" style="stroke:#800;stroke-width:10;stroke-opacity:1.000000;stroke-linecap:round"/>
  <g transform="translate(-385,-456) rotate(0)" > <text font-size="83.3333333333" fill="#800" font-family="monospace"  >
   2
  </text> </g> 
  <g transform="translate(-182,-415) rotate(0)" > <text font-size="83.3333333333" fill="#088" font-family="monospace"  >
   A0
  </text> </g> 
  <circle cx="-500" cy="-450" r="10"
    style="fill:none;stroke:#800;stroke-width:2"  />
  <line x1="-500" y1="200" x2="-200" y2="200" style="stroke:#800;stroke-width:10;stroke-opacity:1.000000;stroke-linecap:round"/>
  <g transform="translate(-385,194) rotate(0)" > <text font-size="83.3333333333" fill="#800" font-family="monospace"  >
   6
  </text> </g> 
  <g transform="translate(-182,235) rotate(0)" > <text font-size="83.3333333333" fill="#088" font-family="monospace"  >
   V+
  </text> </g> 
  <circle cx="-500" cy="200" r="10"
    style="fill:none;stroke:#800;stroke-width:2"  />
  <line x1="-500" y1="550" x2="-200" y2="550" style="stroke:#800;stroke-width:10;stroke-opacity:1.000000;stroke-linecap:round"/>
  <g transform="translate(-385,544) rotate(0)" > <text font-size="83.3333333333" fill="#800" font-family="monospace"  >
   7
  </text> </g> 
  <g transform="translate(-182,585) rotate(0)" > <text font-size="83.3333333333" fill="#088" font-family="monospace"  >
   VCC
  </text> </g> 
  <circle cx="-500" cy="550" r="10"
    style="fill:none;stroke:#800;stroke-width:2"  />
  <line x1="-500" y1="-250" x2="-200" y2="-250" style="stroke:#800;stroke-width:10;stroke-opacity:1.000000;stroke-linecap:round"/>
  <g transform="translate(-420,-256) rotate(0)" > <text font-size="83.3333333333" fill="#800" font-family="monospace"  >
   11
  </text> </g> 
  <g transform="translate(-182,-215) rotate(0)" > <text font-size="83.3333333333" fill="#088" font-family="monospace"  >
   A2
  </text> </g> 
  <circle cx="-500" cy="-250" r="10"
    style="fill:none;stroke:#800;stroke-width:2"  />
  <line x1="-500" y1="0" x2="-270" y2="0" style="stroke:#800;stroke-width:10;stroke-opacity:1.000000;stroke-linecap:round"/>
  <circle cx="-235" cy="0" r="35"
    style="fill:none;stroke:#800;stroke-width:10"  />
  <g transform="translate(-420,-6) rotate(0)" > <text font-size="83.3333333333" fill="#800" font-family="monospace"  >
   12
  </text> </g> 
  <g transform="translate(-182,35) rotate(0)" > <text font-size="83.3333333333" fill="#088" font-family="monospace"  >
   WrProt
  </text> </g> 
  <circle cx="-500" cy="0" r="10"
    style="fill:none;stroke:#800;stroke-width:2"  />
  <line x1="-500" y1="-550" x2="-200" y2="-550" style="stroke:#800;stroke-width:10;stroke-opacity:1.000000;stroke-linecap:round"/>
  <g transform="translate(-420,-556) rotate(0)" > <text font-size="83.3333333333" fill="#800" font-family="monospace"  >
   13
  </text> </g> 
  <g transform="translate(-182,-515) rotate(0)" > <text font-size="83.3333333333" fill="#088" font-family="monospace"  >
   SDA
  </text> </g> 
  <circle cx="-500" cy="-550" r="10"
    style="fill:none;stroke:#800;stroke-width:2"  />
  <line x1="-160" y1="-650" x2="-200" y2="-610" style="stroke:#800;stroke-width:10;stroke-opacity:1.000000;stroke-linecap:round"/>
  <line x1="-200" y1="-610" x2="-200" y2="-690" style="stroke:#800;stroke-width:10;stroke-opacity:1.000000;stroke-linecap:round"/>
  <line x1="-200" y1="-690" x2="-160" y2="-650" style="stroke:#800;stroke-width:10;stroke-opacity:1.000000;stroke-linecap:round"/>
  <line x1="-500" y1="-650" x2="-200" y2="-650" style="stroke:#800;stroke-width:10;stroke-opacity:1.000000;stroke-linecap:round"/>
  <g transform="translate(-420,-656) rotate(0)" > <text font-size="83.3333333333" fill="#800" font-family="monospace"  >
   23
  </text> </g> 
  <g transform="translate(-182,-615) rotate(0)" > <text font-size="83.3333333333" fill="#088" font-family="monospace"  >
   SCL
  </text> </g> 
  <circle cx="-500" cy="-650" r="10"
    style="fill:none;stroke:#800;stroke-width:2"  />
  <line x1="-500" y1="-350" x2="-200" y2="-350" style="stroke:#800;stroke-width:10;stroke-opacity:1.000000;stroke-linecap:round"/>
  <g transform="translate(-420,-356) rotate(0)" > <text font-size="83.3333333333" fill="#800" font-family="monospace"  >
   14
  </text> </g> 
  <g transform="translate(-182,-315) rotate(0)" > <text font-size="83.3333333333" fill="#088" font-family="monospace"  >
   A1
  </text> </g> 
  <circle cx="-500" cy="-350" r="10"
    style="fill:none;stroke:#800;stroke-width:2"  />
  <line x1="-500" y1="-150" x2="-200" y2="-150" style="stroke:#800;stroke-width:10;stroke-opacity:1.000000;stroke-linecap:round"/>
  <g transform="translate(-420,-156) rotate(0)" > <text font-size="83.3333333333" fill="#800" font-family="monospace"  >
   24
  </text> </g> 
  <g transform="translate(-182,-115) rotate(0)" > <text font-size="83.3333333333" fill="#088" font-family="monospace"  >
   A3
  </text> </g> 
  <circle cx="-500" cy="-150" r="10"
    style="fill:none;stroke:#800;stroke-width:2"  />
  <line x1="-500" y1="650" x2="-200" y2="650" style="stroke:#800;stroke-width:10;stroke-opacity:1.000000;stroke-linecap:round"/>
  <g transform="translate(-420,644) rotate(0)" > <text font-size="83.3333333333" fill="#800" font-family="monospace"  >
   18
  </text> </g> 
  <g transform="translate(-182,685) rotate(0)" > <text font-size="83.3333333333" fill="#088" font-family="monospace"  >
   VSS
  </text> </g> 
  <circle cx="-500" cy="650" r="10"
    style="fill:none;stroke:#800;stroke-width:2"  />
  <line x1="-500" y1="300" x2="-200" y2="300" style="stroke:#800;stroke-width:10;stroke-opacity:1.000000;stroke-linecap:round"/>
  <g transform="translate(-420,294) rotate(0)" > <text font-size="83.3333333333" fill="#800" font-family="monospace"  >
   19
  </text> </g> 
  <g transform="translate(-182,335) rotate(0)" > <text font-size="83.3333333333" fill="#088" font-family="monospace"  >
   V-
  </text> </g> 
  <circle cx="-500" cy="300" r="10"
    style="fill:none;stroke:#800;stroke-width:2"  />
 </g>
</svg>
