<?xml version="1.0"?>
<svg height="395" width="337"  >
 <g style="fill-opacity:1.0; stroke:black;
  stroke-width:1;" transform=" translate( 168.75,197.625 ) scale( 0.15,0.15 )">
  <g transform="translate(215,-615) rotate(0)" > <text font-size="116.666666667" fill="#088" font-family="monospace"  >
   U
  </text> </g> 
  <g transform="translate(240,685) rotate(0)" > <text font-size="116.666666667" fill="#088" font-family="monospace"  >
   AD7819
  </text> </g> 
  <rect x="-400" y="-550" height="1100"
    width="800" style="fill:none;stroke:#800;stroke-width:10" />
  <line x1="-700" y1="-450" x2="-400" y2="-450" style="stroke:#800;stroke-width:10;stroke-opacity:1.000000;stroke-linecap:round"/>
  <g transform="translate(-585,-456) rotate(0)" > <text font-size="83.3333333333" fill="#800" font-family="monospace"  >
   1
  </text> </g> 
  <g transform="translate(-382,-415) rotate(0)" > <text font-size="83.3333333333" fill="#088" font-family="monospace"  >
   VREF
  </text> </g> 
  <circle cx="-700" cy="-450" r="10"
    style="fill:none;stroke:#800;stroke-width:2"  />
  <line x1="-700" y1="-150" x2="-470" y2="-150" style="stroke:#800;stroke-width:10;stroke-opacity:1.000000;stroke-linecap:round"/>
  <circle cx="-435" cy="-150" r="35"
    style="fill:none;stroke:#800;stroke-width:10"  />
  <g transform="translate(-585,-156) rotate(0)" > <text font-size="83.3333333333" fill="#800" font-family="monospace"  >
   2
  </text> </g> 
  <g transform="translate(-382,-115) rotate(0)" > <text font-size="83.3333333333" fill="#088" font-family="monospace"  >
   Vin
  </text> </g> 
  <circle cx="-700" cy="-150" r="10"
    style="fill:none;stroke:#800;stroke-width:2"  />
  <line x1="0" y1="750" x2="0" y2="550" style="stroke:#800;stroke-width:10;stroke-opacity:1.000000;stroke-linecap:round"/>
  <g transform="translate(-12,662) rotate(-90)" > <text font-size="83.3333333333" fill="#800" font-family="monospace"  >
   3
  </text> </g> 
  <g transform="translate(5,516) rotate(-90)" > <text font-size="66.6666666667" fill="#088" font-family="monospace"  >
   GND
  </text> </g> 
  <circle cx="0" cy="750" r="10"
    style="fill:none;stroke:#800;stroke-width:2"  />
  <line x1="-360" y1="150" x2="-400" y2="190" style="stroke:#800;stroke-width:10;stroke-opacity:1.000000;stroke-linecap:round"/>
  <line x1="-400" y1="190" x2="-400" y2="110" style="stroke:#800;stroke-width:10;stroke-opacity:1.000000;stroke-linecap:round"/>
  <line x1="-400" y1="110" x2="-360" y2="150" style="stroke:#800;stroke-width:10;stroke-opacity:1.000000;stroke-linecap:round"/>
  <line x1="-700" y1="150" x2="-470" y2="150" style="stroke:#800;stroke-width:10;stroke-opacity:1.000000;stroke-linecap:round"/>
  <circle cx="-435" cy="150" r="35"
    style="fill:none;stroke:#800;stroke-width:10"  />
  <g transform="translate(-585,144) rotate(0)" > <text font-size="83.3333333333" fill="#800" font-family="monospace"  >
   4
  </text> </g> 
  <g transform="translate(-382,185) rotate(0)" > <text font-size="83.3333333333" fill="#088" font-family="monospace"  >
   START
  </text> </g> 
  <circle cx="-700" cy="150" r="10"
    style="fill:none;stroke:#800;stroke-width:2"  />
  <line x1="-480" y1="350" x2="-480" y2="310" style="stroke:#800;stroke-width:10;stroke-opacity:1.000000;stroke-linecap:round"/>
  <line x1="-480" y1="310" x2="-400" y2="350" style="stroke:#800;stroke-width:10;stroke-opacity:1.000000;stroke-linecap:round"/>
  <line x1="-700" y1="350" x2="-400" y2="350" style="stroke:#800;stroke-width:10;stroke-opacity:1.000000;stroke-linecap:round"/>
  <g transform="translate(-585,344) rotate(0)" > <text font-size="83.3333333333" fill="#800" font-family="monospace"  >
   5
  </text> </g> 
  <g transform="translate(-382,385) rotate(0)" > <text font-size="83.3333333333" fill="#088" font-family="monospace"  >
   CS
  </text> </g> 
  <circle cx="-700" cy="350" r="10"
    style="fill:none;stroke:#800;stroke-width:2"  />
  <line x1="-480" y1="450" x2="-480" y2="410" style="stroke:#800;stroke-width:10;stroke-opacity:1.000000;stroke-linecap:round"/>
  <line x1="-480" y1="410" x2="-400" y2="450" style="stroke:#800;stroke-width:10;stroke-opacity:1.000000;stroke-linecap:round"/>
  <line x1="-700" y1="450" x2="-400" y2="450" style="stroke:#800;stroke-width:10;stroke-opacity:1.000000;stroke-linecap:round"/>
  <g transform="translate(-585,444) rotate(0)" > <text font-size="83.3333333333" fill="#800" font-family="monospace"  >
   6
  </text> </g> 
  <g transform="translate(-382,485) rotate(0)" > <text font-size="83.3333333333" fill="#088" font-family="monospace"  >
   OE
  </text> </g> 
  <circle cx="-700" cy="450" r="10"
    style="fill:none;stroke:#800;stroke-width:2"  />
  <line x1="480" y1="450" x2="400" y2="410" style="stroke:#800;stroke-width:10;stroke-opacity:1.000000;stroke-linecap:round"/>
  <line x1="400" y1="410" x2="400" y2="450" style="stroke:#800;stroke-width:10;stroke-opacity:1.000000;stroke-linecap:round"/>
  <line x1="700" y1="450" x2="400" y2="450" style="stroke:#800;stroke-width:10;stroke-opacity:1.000000;stroke-linecap:round"/>
  <g transform="translate(514,444) rotate(0)" > <text font-size="83.3333333333" fill="#800" font-family="monospace"  >
   7
  </text> </g> 
  <g transform="translate(209,485) rotate(0)" > <text font-size="83.3333333333" fill="#088" font-family="monospace"  >
   EOC
  </text> </g> 
  <circle cx="700" cy="450" r="10"
    style="fill:none;stroke:#800;stroke-width:2"  />
  <line x1="700" y1="-450" x2="400" y2="-450" style="stroke:#800;stroke-width:10;stroke-opacity:1.000000;stroke-linecap:round"/>
  <g transform="translate(514,-456) rotate(0)" > <text font-size="83.3333333333" fill="#800" font-family="monospace"  >
   8
  </text> </g> 
  <g transform="translate(209,-415) rotate(0)" > <text font-size="83.3333333333" fill="#088" font-family="monospace"  >
   DB0
  </text> </g> 
  <circle cx="700" cy="-450" r="10"
    style="fill:none;stroke:#800;stroke-width:2"  />
  <line x1="700" y1="-350" x2="400" y2="-350" style="stroke:#800;stroke-width:10;stroke-opacity:1.000000;stroke-linecap:round"/>
  <g transform="translate(514,-356) rotate(0)" > <text font-size="83.3333333333" fill="#800" font-family="monospace"  >
   9
  </text> </g> 
  <g transform="translate(209,-315) rotate(0)" > <text font-size="83.3333333333" fill="#088" font-family="monospace"  >
   DB1
  </text> </g> 
  <circle cx="700" cy="-350" r="10"
    style="fill:none;stroke:#800;stroke-width:2"  />
  <line x1="700" y1="-250" x2="400" y2="-250" style="stroke:#800;stroke-width:10;stroke-opacity:1.000000;stroke-linecap:round"/>
  <g transform="translate(479,-256) rotate(0)" > <text font-size="83.3333333333" fill="#800" font-family="monospace"  >
   10
  </text> </g> 
  <g transform="translate(209,-215) rotate(0)" > <text font-size="83.3333333333" fill="#088" font-family="monospace"  >
   DB2
  </text> </g> 
  <circle cx="700" cy="-250" r="10"
    style="fill:none;stroke:#800;stroke-width:2"  />
  <line x1="700" y1="-150" x2="400" y2="-150" style="stroke:#800;stroke-width:10;stroke-opacity:1.000000;stroke-linecap:round"/>
  <g transform="translate(479,-156) rotate(0)" > <text font-size="83.3333333333" fill="#800" font-family="monospace"  >
   11
  </text> </g> 
  <g transform="translate(209,-115) rotate(0)" > <text font-size="83.3333333333" fill="#088" font-family="monospace"  >
   DB3
  </text> </g> 
  <circle cx="700" cy="-150" r="10"
    style="fill:none;stroke:#800;stroke-width:2"  />
  <line x1="700" y1="-50" x2="400" y2="-50" style="stroke:#800;stroke-width:10;stroke-opacity:1.000000;stroke-linecap:round"/>
  <g transform="translate(479,-56) rotate(0)" > <text font-size="83.3333333333" fill="#800" font-family="monospace"  >
   12
  </text> </g> 
  <g transform="translate(209,-15) rotate(0)" > <text font-size="83.3333333333" fill="#088" font-family="monospace"  >
   DB4
  </text> </g> 
  <circle cx="700" cy="-50" r="10"
    style="fill:none;stroke:#800;stroke-width:2"  />
  <line x1="700" y1="50" x2="400" y2="50" style="stroke:#800;stroke-width:10;stroke-opacity:1.000000;stroke-linecap:round"/>
  <g transform="translate(479,44) rotate(0)" > <text font-size="83.3333333333" fill="#800" font-family="monospace"  >
   13
  </text> </g> 
  <g transform="translate(209,85) rotate(0)" > <text font-size="83.3333333333" fill="#088" font-family="monospace"  >
   DB5
  </text> </g> 
  <circle cx="700" cy="50" r="10"
    style="fill:none;stroke:#800;stroke-width:2"  />
  <line x1="700" y1="150" x2="400" y2="150" style="stroke:#800;stroke-width:10;stroke-opacity:1.000000;stroke-linecap:round"/>
  <g transform="translate(479,144) rotate(0)" > <text font-size="83.3333333333" fill="#800" font-family="monospace"  >
   14
  </text> </g> 
  <g transform="translate(209,185) rotate(0)" > <text font-size="83.3333333333" fill="#088" font-family="monospace"  >
   DB6
  </text> </g> 
  <circle cx="700" cy="150" r="10"
    style="fill:none;stroke:#800;stroke-width:2"  />
  <line x1="700" y1="250" x2="400" y2="250" style="stroke:#800;stroke-width:10;stroke-opacity:1.000000;stroke-linecap:round"/>
  <g transform="translate(479,244) rotate(0)" > <text font-size="83.3333333333" fill="#800" font-family="monospace"  >
   15
  </text> </g> 
  <g transform="translate(209,285) rotate(0)" > <text font-size="83.3333333333" fill="#088" font-family="monospace"  >
   DB7
  </text> </g> 
  <circle cx="700" cy="250" r="10"
    style="fill:none;stroke:#800;stroke-width:2"  />
  <line x1="0" y1="-750" x2="0" y2="-550" style="stroke:#800;stroke-width:10;stroke-opacity:1.000000;stroke-linecap:round"/>
  <g transform="translate(-12,-625) rotate(-90)" > <text font-size="83.3333333333" fill="#800" font-family="monospace"  >
   16
  </text> </g> 
  <g transform="translate(5,-396) rotate(-90)" > <text font-size="66.6666666667" fill="#088" font-family="monospace"  >
   VCC
  </text> </g> 
  <circle cx="0" cy="-750" r="10"
    style="fill:none;stroke:#800;stroke-width:2"  />
 </g>
</svg>
