<?xml version="1.0"?>
<svg height="295" width="295"  >
 <g style="fill-opacity:1.0; stroke:black;
  stroke-width:1;" transform=" translate( 147.5,147.5 ) scale( 0.15,0.15 )">
  <g transform="translate(130,-380) rotate(0)" > <text font-size="66.6666666667" fill="#088" font-family="monospace"  >
   U
  </text> </g> 
  <g transform="translate(-70,-350) rotate(0)" > <text font-size="66.6666666667" fill="#088" font-family="monospace"  >
   MCP4922-E/P
  </text> </g> 
<polygon points=" -400,-300 200,-300 500,0 200,300 -400,300 -400,-300" 
style="fill:#ff8;stroke:#800;stroke-width:10"/>
  <line x1="-100" y1="-450" x2="-100" y2="-300" style="stroke:#800;stroke-width:10;stroke-opacity:1.000000;stroke-linecap:round"/>
  <g transform="translate(-110,-365) rotate(-90)" > <text font-size="66.6666666667" fill="#800" font-family="monospace"  >
   1
  </text> </g> 
  <g transform="translate(-95,-146) rotate(-90)" > <text font-size="66.6666666667" fill="#088" font-family="monospace"  >
   VDD
  </text> </g> 
  <circle cx="-100" cy="-450" r="10"
    style="fill:none;stroke:#800;stroke-width:2"  />
  <line x1="-550" y1="0" x2="-400" y2="0" style="stroke:#800;stroke-width:10;stroke-opacity:1.000000;stroke-linecap:round"/>
  <g transform="translate(-503,-6) rotate(0)" > <text font-size="66.6666666667" fill="#800" font-family="monospace"  >
   3
  </text> </g> 
  <g transform="translate(-382,30) rotate(0)" > <text font-size="66.6666666667" fill="#088" font-family="monospace"  >
   ~CS~
  </text> </g> 
  <circle cx="-550" cy="0" r="10"
    style="fill:none;stroke:#800;stroke-width:2"  />
  <line x1="-550" y1="-100" x2="-400" y2="-100" style="stroke:#800;stroke-width:10;stroke-opacity:1.000000;stroke-linecap:round"/>
  <g transform="translate(-503,-106) rotate(0)" > <text font-size="66.6666666667" fill="#800" font-family="monospace"  >
   4
  </text> </g> 
  <g transform="translate(-382,-70) rotate(0)" > <text font-size="66.6666666667" fill="#088" font-family="monospace"  >
   SCK
  </text> </g> 
  <circle cx="-550" cy="-100" r="10"
    style="fill:none;stroke:#800;stroke-width:2"  />
  <line x1="-550" y1="-200" x2="-400" y2="-200" style="stroke:#800;stroke-width:10;stroke-opacity:1.000000;stroke-linecap:round"/>
  <g transform="translate(-503,-206) rotate(0)" > <text font-size="66.6666666667" fill="#800" font-family="monospace"  >
   5
  </text> </g> 
  <g transform="translate(-382,-170) rotate(0)" > <text font-size="66.6666666667" fill="#088" font-family="monospace"  >
   SDI
  </text> </g> 
  <circle cx="-550" cy="-200" r="10"
    style="fill:none;stroke:#800;stroke-width:2"  />
  <line x1="-550" y1="100" x2="-400" y2="100" style="stroke:#800;stroke-width:10;stroke-opacity:1.000000;stroke-linecap:round"/>
  <g transform="translate(-503,94) rotate(0)" > <text font-size="66.6666666667" fill="#800" font-family="monospace"  >
   8
  </text> </g> 
  <g transform="translate(-382,130) rotate(0)" > <text font-size="66.6666666667" fill="#088" font-family="monospace"  >
   ~LDAC~
  </text> </g> 
  <circle cx="-550" cy="100" r="10"
    style="fill:none;stroke:#800;stroke-width:2"  />
  <line x1="-550" y1="200" x2="-400" y2="200" style="stroke:#800;stroke-width:10;stroke-opacity:1.000000;stroke-linecap:round"/>
  <g transform="translate(-503,194) rotate(0)" > <text font-size="66.6666666667" fill="#800" font-family="monospace"  >
   9
  </text> </g> 
  <g transform="translate(-382,230) rotate(0)" > <text font-size="66.6666666667" fill="#088" font-family="monospace"  >
   ~SHDN~
  </text> </g> 
  <circle cx="-550" cy="200" r="10"
    style="fill:none;stroke:#800;stroke-width:2"  />
  <line x1="550" y1="150" x2="350" y2="150" style="stroke:#800;stroke-width:10;stroke-opacity:1.000000;stroke-linecap:round"/>
  <g transform="translate(393,144) rotate(0)" > <text font-size="66.6666666667" fill="#800" font-family="monospace"  >
   10
  </text> </g> 
  <g transform="translate(110,180) rotate(0)" > <text font-size="66.6666666667" fill="#088" font-family="monospace"  >
   VoutB
  </text> </g> 
  <circle cx="550" cy="150" r="10"
    style="fill:none;stroke:#800;stroke-width:2"  />
  <line x1="50" y1="450" x2="50" y2="300" style="stroke:#800;stroke-width:10;stroke-opacity:1.000000;stroke-linecap:round"/>
  <g transform="translate(40,395) rotate(-90)" > <text font-size="66.6666666667" fill="#800" font-family="monospace"  >
   11
  </text> </g> 
  <g transform="translate(55,266) rotate(-90)" > <text font-size="66.6666666667" fill="#088" font-family="monospace"  >
   VrefB
  </text> </g> 
  <circle cx="50" cy="450" r="10"
    style="fill:none;stroke:#800;stroke-width:2"  />
  <line x1="-100" y1="450" x2="-100" y2="300" style="stroke:#800;stroke-width:10;stroke-opacity:1.000000;stroke-linecap:round"/>
  <g transform="translate(-110,395) rotate(-90)" > <text font-size="66.6666666667" fill="#800" font-family="monospace"  >
   12
  </text> </g> 
  <g transform="translate(-95,266) rotate(-90)" > <text font-size="66.6666666667" fill="#088" font-family="monospace"  >
   AVSS
  </text> </g> 
  <circle cx="-100" cy="450" r="10"
    style="fill:none;stroke:#800;stroke-width:2"  />
  <line x1="50" y1="-450" x2="50" y2="-300" style="stroke:#800;stroke-width:10;stroke-opacity:1.000000;stroke-linecap:round"/>
  <g transform="translate(40,-355) rotate(-90)" > <text font-size="66.6666666667" fill="#800" font-family="monospace"  >
   13
  </text> </g> 
  <g transform="translate(55,-66) rotate(-90)" > <text font-size="66.6666666667" fill="#088" font-family="monospace"  >
   VrefA
  </text> </g> 
  <circle cx="50" cy="-450" r="10"
    style="fill:none;stroke:#800;stroke-width:2"  />
  <line x1="550" y1="-150" x2="350" y2="-150" style="stroke:#800;stroke-width:10;stroke-opacity:1.000000;stroke-linecap:round"/>
  <g transform="translate(393,-156) rotate(0)" > <text font-size="66.6666666667" fill="#800" font-family="monospace"  >
   14
  </text> </g> 
  <g transform="translate(110,-120) rotate(0)" > <text font-size="66.6666666667" fill="#088" font-family="monospace"  >
   VoutA
  </text> </g> 
  <circle cx="550" cy="-150" r="10"
    style="fill:none;stroke:#800;stroke-width:2"  />
 </g>
</svg>
