<?xml version="1.0"?>
<svg height="232" width="225"  >
 <g style="fill-opacity:1.0; stroke:black;
  stroke-width:1;" transform=" translate( 112.5,116.0 ) scale( 0.15,0.15 )">
  <g transform="translate(170,-270) rotate(0)" > <text font-size="100.0" fill="#088" font-family="monospace"  >
   U
  </text> </g> 
  <g transform="translate(130,330) rotate(0)" > <text font-size="100.0" fill="#088" font-family="monospace"  >
   4015
  </text> </g> 
  <line x1="-160" y1="-80" x2="-120" y2="-80" style="stroke:#800;stroke-width:10;stroke-opacity:1.000000;stroke-linecap:round"/>
  <line x1="-120" y1="-80" x2="-80" y2="-200" style="stroke:#800;stroke-width:10;stroke-opacity:1.000000;stroke-linecap:round"/>
  <line x1="-80" y1="-200" x2="-60" y2="-200" style="stroke:#800;stroke-width:10;stroke-opacity:1.000000;stroke-linecap:round"/>
  <line x1="-60" y1="-200" x2="-100" y2="-200" style="stroke:#800;stroke-width:10;stroke-opacity:1.000000;stroke-linecap:round"/>
  <line x1="-100" y1="-200" x2="-140" y2="-80" style="stroke:#800;stroke-width:10;stroke-opacity:1.000000;stroke-linecap:round"/>
  <line x1="-140" y1="-80" x2="-140" y2="-80" style="stroke:#800;stroke-width:10;stroke-opacity:1.000000;stroke-linecap:round"/>
  <rect x="-250" y="-250" height="500"
    width="500" style="fill:none;stroke:#800;stroke-width:10" />
  <g transform="translate(-10,-230) rotate(-90)" > <text font-size="66.6666666667" fill="#888" font-family="monospace"  >
   16
  </text> </g> 
  <g transform="translate(5,-96) rotate(-90)" > <text font-size="66.6666666667" fill="#888" font-family="monospace"  >
   Vdd
  </text> </g> 
  <circle cx="0" cy="-250" r="10"
    style="fill:none;stroke:#888;stroke-width:2"  />
  <line x1="550" y1="150" x2="250" y2="150" style="stroke:#800;stroke-width:10;stroke-opacity:1.000000;stroke-linecap:round"/>
  <g transform="translate(343,144) rotate(0)" > <text font-size="66.6666666667" fill="#800" font-family="monospace"  >
   10
  </text> </g> 
  <g transform="translate(130,180) rotate(0)" > <text font-size="66.6666666667" fill="#088" font-family="monospace"  >
   Q4
  </text> </g> 
  <circle cx="550" cy="150" r="10"
    style="fill:none;stroke:#800;stroke-width:2"  />
  <line x1="550" y1="50" x2="250" y2="50" style="stroke:#800;stroke-width:10;stroke-opacity:1.000000;stroke-linecap:round"/>
  <g transform="translate(371,44) rotate(0)" > <text font-size="66.6666666667" fill="#800" font-family="monospace"  >
   3
  </text> </g> 
  <g transform="translate(130,80) rotate(0)" > <text font-size="66.6666666667" fill="#088" font-family="monospace"  >
   Q3
  </text> </g> 
  <circle cx="550" cy="50" r="10"
    style="fill:none;stroke:#800;stroke-width:2"  />
  <line x1="550" y1="-50" x2="250" y2="-50" style="stroke:#800;stroke-width:10;stroke-opacity:1.000000;stroke-linecap:round"/>
  <g transform="translate(371,-56) rotate(0)" > <text font-size="66.6666666667" fill="#800" font-family="monospace"  >
   4
  </text> </g> 
  <g transform="translate(130,-20) rotate(0)" > <text font-size="66.6666666667" fill="#088" font-family="monospace"  >
   Q2
  </text> </g> 
  <circle cx="550" cy="-50" r="10"
    style="fill:none;stroke:#800;stroke-width:2"  />
  <line x1="550" y1="-150" x2="250" y2="-150" style="stroke:#800;stroke-width:10;stroke-opacity:1.000000;stroke-linecap:round"/>
  <g transform="translate(371,-156) rotate(0)" > <text font-size="66.6666666667" fill="#800" font-family="monospace"  >
   5
  </text> </g> 
  <g transform="translate(130,-120) rotate(0)" > <text font-size="66.6666666667" fill="#088" font-family="monospace"  >
   Q1
  </text> </g> 
  <circle cx="550" cy="-150" r="10"
    style="fill:none;stroke:#800;stroke-width:2"  />
  <line x1="-550" y1="150" x2="-250" y2="150" style="stroke:#800;stroke-width:10;stroke-opacity:1.000000;stroke-linecap:round"/>
  <g transform="translate(-428,144) rotate(0)" > <text font-size="66.6666666667" fill="#800" font-family="monospace"  >
   6
  </text> </g> 
  <g transform="translate(-232,180) rotate(0)" > <text font-size="66.6666666667" fill="#088" font-family="monospace"  >
   MR
  </text> </g> 
  <circle cx="-550" cy="150" r="10"
    style="fill:none;stroke:#800;stroke-width:2"  />
  <line x1="-550" y1="0" x2="-250" y2="0" style="stroke:#800;stroke-width:10;stroke-opacity:1.000000;stroke-linecap:round"/>
  <g transform="translate(-428,-6) rotate(0)" > <text font-size="66.6666666667" fill="#800" font-family="monospace"  >
   7
  </text> </g> 
  <g transform="translate(-232,30) rotate(0)" > <text font-size="66.6666666667" fill="#088" font-family="monospace"  >
   D
  </text> </g> 
  <circle cx="-550" cy="0" r="10"
    style="fill:none;stroke:#800;stroke-width:2"  />
  <line x1="-210" y1="-150" x2="-250" y2="-110" style="stroke:#800;stroke-width:10;stroke-opacity:1.000000;stroke-linecap:round"/>
  <line x1="-250" y1="-110" x2="-250" y2="-190" style="stroke:#800;stroke-width:10;stroke-opacity:1.000000;stroke-linecap:round"/>
  <line x1="-250" y1="-190" x2="-210" y2="-150" style="stroke:#800;stroke-width:10;stroke-opacity:1.000000;stroke-linecap:round"/>
  <line x1="-550" y1="-150" x2="-250" y2="-150" style="stroke:#800;stroke-width:10;stroke-opacity:1.000000;stroke-linecap:round"/>
  <g transform="translate(-428,-156) rotate(0)" > <text font-size="66.6666666667" fill="#800" font-family="monospace"  >
   9
  </text> </g> 
  <g transform="translate(-232,-120) rotate(0)" > <text font-size="66.6666666667" fill="#088" font-family="monospace"  >
   CP
  </text> </g> 
  <circle cx="-550" cy="-150" r="10"
    style="fill:none;stroke:#800;stroke-width:2"  />
  <g transform="translate(-10,260) rotate(-90)" > <text font-size="66.6666666667" fill="#888" font-family="monospace"  >
   8
  </text> </g> 
  <g transform="translate(5,216) rotate(-90)" > <text font-size="66.6666666667" fill="#888" font-family="monospace"  >
   Vss
  </text> </g> 
  <circle cx="0" cy="250" r="10"
    style="fill:none;stroke:#888;stroke-width:2"  />
 </g>
</svg>
