<?xml version="1.0"?>
<svg height="284" width="229"  >
 <g style="fill-opacity:1.0; stroke:black;
  stroke-width:1;" transform=" translate( 114.75,142.25 ) scale( 0.15,0.15 )">
  <g transform="translate(320,-370) rotate(0)" > <text font-size="100.0" fill="#088" font-family="monospace"  >
   U
  </text> </g> 
  <g transform="translate(230,680) rotate(0)" > <text font-size="100.0" fill="#088" font-family="monospace"  >
   4019
  </text> </g> 
  <rect x="-250" y="0" height="200"
    width="500" style="fill:none;stroke:#800;stroke-width:10" />
  <rect x="-250" y="400" height="200"
    width="500" style="fill:none;stroke:#800;stroke-width:10" />
  <line x1="-200" y1="-200" x2="-200" y2="-250" style="stroke:#800;stroke-width:10;stroke-opacity:1.000000;stroke-linecap:round"/>
  <line x1="-200" y1="-250" x2="-250" y2="-250" style="stroke:#800;stroke-width:10;stroke-opacity:1.000000;stroke-linecap:round"/>
  <line x1="-250" y1="-250" x2="-250" y2="-450" style="stroke:#800;stroke-width:10;stroke-opacity:1.000000;stroke-linecap:round"/>
  <line x1="-250" y1="-450" x2="250" y2="-450" style="stroke:#800;stroke-width:10;stroke-opacity:1.000000;stroke-linecap:round"/>
  <line x1="250" y1="-450" x2="250" y2="-250" style="stroke:#800;stroke-width:10;stroke-opacity:1.000000;stroke-linecap:round"/>
  <line x1="250" y1="-250" x2="200" y2="-250" style="stroke:#800;stroke-width:10;stroke-opacity:1.000000;stroke-linecap:round"/>
  <line x1="200" y1="-250" x2="200" y2="-200" style="stroke:#800;stroke-width:10;stroke-opacity:1.000000;stroke-linecap:round"/>
  <line x1="200" y1="-200" x2="200" y2="-200" style="stroke:#800;stroke-width:10;stroke-opacity:1.000000;stroke-linecap:round"/>
  <rect x="-250" y="200" height="200"
    width="500" style="fill:none;stroke:#800;stroke-width:10" />
  <rect x="-250" y="-200" height="200"
    width="500" style="fill:none;stroke:#800;stroke-width:10" />
  <g transform="translate(-10,-440) rotate(-90)" > <text font-size="66.6666666667" fill="#888" font-family="monospace"  >
   8
  </text> </g> 
  <g transform="translate(5,-296) rotate(-90)" > <text font-size="66.6666666667" fill="#888" font-family="monospace"  >
   Vss
  </text> </g> 
  <circle cx="0" cy="-450" r="10"
    style="fill:none;stroke:#888;stroke-width:2"  />
  <g transform="translate(140,-430) rotate(-90)" > <text font-size="66.6666666667" fill="#888" font-family="monospace"  >
   16
  </text> </g> 
  <g transform="translate(155,-296) rotate(-90)" > <text font-size="66.6666666667" fill="#888" font-family="monospace"  >
   Vdd
  </text> </g> 
  <circle cx="150" cy="-450" r="10"
    style="fill:none;stroke:#888;stroke-width:2"  />
  <line x1="550" y1="500" x2="250" y2="500" style="stroke:#800;stroke-width:10;stroke-opacity:1.000000;stroke-linecap:round"/>
  <g transform="translate(343,494) rotate(0)" > <text font-size="66.6666666667" fill="#800" font-family="monospace"  >
   13
  </text> </g> 
  <g transform="translate(130,530) rotate(0)" > <text font-size="66.6666666667" fill="#088" font-family="monospace"  >
   Q3
  </text> </g> 
  <circle cx="550" cy="500" r="10"
    style="fill:none;stroke:#800;stroke-width:2"  />
  <line x1="550" y1="300" x2="250" y2="300" style="stroke:#800;stroke-width:10;stroke-opacity:1.000000;stroke-linecap:round"/>
  <g transform="translate(343,294) rotate(0)" > <text font-size="66.6666666667" fill="#800" font-family="monospace"  >
   12
  </text> </g> 
  <g transform="translate(130,330) rotate(0)" > <text font-size="66.6666666667" fill="#088" font-family="monospace"  >
   Q2
  </text> </g> 
  <circle cx="550" cy="300" r="10"
    style="fill:none;stroke:#800;stroke-width:2"  />
  <line x1="550" y1="100" x2="250" y2="100" style="stroke:#800;stroke-width:10;stroke-opacity:1.000000;stroke-linecap:round"/>
  <g transform="translate(343,94) rotate(0)" > <text font-size="66.6666666667" fill="#800" font-family="monospace"  >
   11
  </text> </g> 
  <g transform="translate(130,130) rotate(0)" > <text font-size="66.6666666667" fill="#088" font-family="monospace"  >
   Q1
  </text> </g> 
  <circle cx="550" cy="100" r="10"
    style="fill:none;stroke:#800;stroke-width:2"  />
  <line x1="550" y1="-100" x2="250" y2="-100" style="stroke:#800;stroke-width:10;stroke-opacity:1.000000;stroke-linecap:round"/>
  <g transform="translate(343,-106) rotate(0)" > <text font-size="66.6666666667" fill="#800" font-family="monospace"  >
   10
  </text> </g> 
  <g transform="translate(130,-70) rotate(0)" > <text font-size="66.6666666667" fill="#088" font-family="monospace"  >
   Q0
  </text> </g> 
  <circle cx="550" cy="-100" r="10"
    style="fill:none;stroke:#800;stroke-width:2"  />
  <line x1="-550" y1="550" x2="-250" y2="550" style="stroke:#800;stroke-width:10;stroke-opacity:1.000000;stroke-linecap:round"/>
  <g transform="translate(-428,544) rotate(0)" > <text font-size="66.6666666667" fill="#800" font-family="monospace"  >
   1
  </text> </g> 
  <g transform="translate(-232,580) rotate(0)" > <text font-size="66.6666666667" fill="#088" font-family="monospace"  >
   B3
  </text> </g> 
  <circle cx="-550" cy="550" r="10"
    style="fill:none;stroke:#800;stroke-width:2"  />
  <line x1="-550" y1="450" x2="-250" y2="450" style="stroke:#800;stroke-width:10;stroke-opacity:1.000000;stroke-linecap:round"/>
  <g transform="translate(-456,444) rotate(0)" > <text font-size="66.6666666667" fill="#800" font-family="monospace"  >
   15
  </text> </g> 
  <g transform="translate(-232,480) rotate(0)" > <text font-size="66.6666666667" fill="#088" font-family="monospace"  >
   A3
  </text> </g> 
  <circle cx="-550" cy="450" r="10"
    style="fill:none;stroke:#800;stroke-width:2"  />
  <line x1="-550" y1="350" x2="-250" y2="350" style="stroke:#800;stroke-width:10;stroke-opacity:1.000000;stroke-linecap:round"/>
  <g transform="translate(-428,344) rotate(0)" > <text font-size="66.6666666667" fill="#800" font-family="monospace"  >
   3
  </text> </g> 
  <g transform="translate(-232,380) rotate(0)" > <text font-size="66.6666666667" fill="#088" font-family="monospace"  >
   B2
  </text> </g> 
  <circle cx="-550" cy="350" r="10"
    style="fill:none;stroke:#800;stroke-width:2"  />
  <line x1="-550" y1="250" x2="-250" y2="250" style="stroke:#800;stroke-width:10;stroke-opacity:1.000000;stroke-linecap:round"/>
  <g transform="translate(-428,244) rotate(0)" > <text font-size="66.6666666667" fill="#800" font-family="monospace"  >
   2
  </text> </g> 
  <g transform="translate(-232,280) rotate(0)" > <text font-size="66.6666666667" fill="#088" font-family="monospace"  >
   A2
  </text> </g> 
  <circle cx="-550" cy="250" r="10"
    style="fill:none;stroke:#800;stroke-width:2"  />
  <line x1="-550" y1="150" x2="-250" y2="150" style="stroke:#800;stroke-width:10;stroke-opacity:1.000000;stroke-linecap:round"/>
  <g transform="translate(-428,144) rotate(0)" > <text font-size="66.6666666667" fill="#800" font-family="monospace"  >
   5
  </text> </g> 
  <g transform="translate(-232,180) rotate(0)" > <text font-size="66.6666666667" fill="#088" font-family="monospace"  >
   B1
  </text> </g> 
  <circle cx="-550" cy="150" r="10"
    style="fill:none;stroke:#800;stroke-width:2"  />
  <line x1="-550" y1="50" x2="-250" y2="50" style="stroke:#800;stroke-width:10;stroke-opacity:1.000000;stroke-linecap:round"/>
  <g transform="translate(-428,44) rotate(0)" > <text font-size="66.6666666667" fill="#800" font-family="monospace"  >
   4
  </text> </g> 
  <g transform="translate(-232,80) rotate(0)" > <text font-size="66.6666666667" fill="#088" font-family="monospace"  >
   A1
  </text> </g> 
  <circle cx="-550" cy="50" r="10"
    style="fill:none;stroke:#800;stroke-width:2"  />
  <line x1="-550" y1="-50" x2="-250" y2="-50" style="stroke:#800;stroke-width:10;stroke-opacity:1.000000;stroke-linecap:round"/>
  <g transform="translate(-428,-56) rotate(0)" > <text font-size="66.6666666667" fill="#800" font-family="monospace"  >
   7
  </text> </g> 
  <g transform="translate(-232,-20) rotate(0)" > <text font-size="66.6666666667" fill="#088" font-family="monospace"  >
   B0
  </text> </g> 
  <circle cx="-550" cy="-50" r="10"
    style="fill:none;stroke:#800;stroke-width:2"  />
  <line x1="-550" y1="-150" x2="-250" y2="-150" style="stroke:#800;stroke-width:10;stroke-opacity:1.000000;stroke-linecap:round"/>
  <g transform="translate(-428,-156) rotate(0)" > <text font-size="66.6666666667" fill="#800" font-family="monospace"  >
   6
  </text> </g> 
  <g transform="translate(-232,-120) rotate(0)" > <text font-size="66.6666666667" fill="#088" font-family="monospace"  >
   A0
  </text> </g> 
  <circle cx="-550" cy="-150" r="10"
    style="fill:none;stroke:#800;stroke-width:2"  />
  <line x1="-550" y1="-300" x2="-250" y2="-300" style="stroke:#800;stroke-width:10;stroke-opacity:1.000000;stroke-linecap:round"/>
  <g transform="translate(-456,-306) rotate(0)" > <text font-size="66.6666666667" fill="#800" font-family="monospace"  >
   14
  </text> </g> 
  <g transform="translate(-232,-270) rotate(0)" > <text font-size="66.6666666667" fill="#088" font-family="monospace"  >
   SB
  </text> </g> 
  <circle cx="-550" cy="-300" r="10"
    style="fill:none;stroke:#800;stroke-width:2"  />
  <line x1="-550" y1="-400" x2="-250" y2="-400" style="stroke:#800;stroke-width:10;stroke-opacity:1.000000;stroke-linecap:round"/>
  <g transform="translate(-428,-406) rotate(0)" > <text font-size="66.6666666667" fill="#800" font-family="monospace"  >
   9
  </text> </g> 
  <g transform="translate(-232,-370) rotate(0)" > <text font-size="66.6666666667" fill="#088" font-family="monospace"  >
   SA
  </text> </g> 
  <circle cx="-550" cy="-400" r="10"
    style="fill:none;stroke:#800;stroke-width:2"  />
 </g>
</svg>
