<?xml version="1.0"?>
<svg height="277" width="260"  >
 <g style="fill-opacity:1.0; stroke:black;
  stroke-width:1;" transform=" translate( 130.0,138.5 ) scale( 0.15,0.15 )">
  <g transform="translate(170,-420) rotate(0)" > <text font-size="100.0" fill="#088" font-family="monospace"  >
   U
  </text> </g> 
  <g transform="translate(280,430) rotate(0)" > <text font-size="100.0" fill="#088" font-family="monospace"  >
   4024
  </text> </g> 
  <rect x="-250" y="-400" height="700"
    width="500" style="fill:none;stroke:#800;stroke-width:10" />
  <g transform="translate(-12,-375) rotate(-90)" > <text font-size="83.3333333333" fill="#888" font-family="monospace"  >
   14
  </text> </g> 
  <g transform="translate(6,-208) rotate(-90)" > <text font-size="83.3333333333" fill="#888" font-family="monospace"  >
   VDD
  </text> </g> 
  <circle cx="0" cy="-400" r="10"
    style="fill:none;stroke:#888;stroke-width:2"  />
  <line x1="550" y1="250" x2="250" y2="250" style="stroke:#800;stroke-width:10;stroke-opacity:1.000000;stroke-linecap:round"/>
  <g transform="translate(364,244) rotate(0)" > <text font-size="83.3333333333" fill="#800" font-family="monospace"  >
   3
  </text> </g> 
  <g transform="translate(110,285) rotate(0)" > <text font-size="83.3333333333" fill="#088" font-family="monospace"  >
   Q6
  </text> </g> 
  <circle cx="550" cy="250" r="10"
    style="fill:none;stroke:#800;stroke-width:2"  />
  <line x1="550" y1="150" x2="250" y2="150" style="stroke:#800;stroke-width:10;stroke-opacity:1.000000;stroke-linecap:round"/>
  <g transform="translate(364,144) rotate(0)" > <text font-size="83.3333333333" fill="#800" font-family="monospace"  >
   4
  </text> </g> 
  <g transform="translate(110,185) rotate(0)" > <text font-size="83.3333333333" fill="#088" font-family="monospace"  >
   Q5
  </text> </g> 
  <circle cx="550" cy="150" r="10"
    style="fill:none;stroke:#800;stroke-width:2"  />
  <line x1="550" y1="150" x2="250" y2="150" style="stroke:#800;stroke-width:10;stroke-opacity:1.000000;stroke-linecap:round"/>
  <g transform="translate(364,144) rotate(0)" > <text font-size="83.3333333333" fill="#800" font-family="monospace"  >
   4
  </text> </g> 
  <g transform="translate(110,185) rotate(0)" > <text font-size="83.3333333333" fill="#088" font-family="monospace"  >
   Q5
  </text> </g> 
  <circle cx="550" cy="150" r="10"
    style="fill:none;stroke:#800;stroke-width:2"  />
  <line x1="550" y1="50" x2="250" y2="50" style="stroke:#800;stroke-width:10;stroke-opacity:1.000000;stroke-linecap:round"/>
  <g transform="translate(364,44) rotate(0)" > <text font-size="83.3333333333" fill="#800" font-family="monospace"  >
   5
  </text> </g> 
  <g transform="translate(110,85) rotate(0)" > <text font-size="83.3333333333" fill="#088" font-family="monospace"  >
   Q4
  </text> </g> 
  <circle cx="550" cy="50" r="10"
    style="fill:none;stroke:#800;stroke-width:2"  />
  <line x1="550" y1="-50" x2="250" y2="-50" style="stroke:#800;stroke-width:10;stroke-opacity:1.000000;stroke-linecap:round"/>
  <g transform="translate(364,-56) rotate(0)" > <text font-size="83.3333333333" fill="#800" font-family="monospace"  >
   6
  </text> </g> 
  <g transform="translate(110,-15) rotate(0)" > <text font-size="83.3333333333" fill="#088" font-family="monospace"  >
   Q3
  </text> </g> 
  <circle cx="550" cy="-50" r="10"
    style="fill:none;stroke:#800;stroke-width:2"  />
  <line x1="550" y1="-150" x2="250" y2="-150" style="stroke:#800;stroke-width:10;stroke-opacity:1.000000;stroke-linecap:round"/>
  <g transform="translate(364,-156) rotate(0)" > <text font-size="83.3333333333" fill="#800" font-family="monospace"  >
   9
  </text> </g> 
  <g transform="translate(110,-115) rotate(0)" > <text font-size="83.3333333333" fill="#088" font-family="monospace"  >
   Q2
  </text> </g> 
  <circle cx="550" cy="-150" r="10"
    style="fill:none;stroke:#800;stroke-width:2"  />
  <line x1="550" y1="-250" x2="250" y2="-250" style="stroke:#800;stroke-width:10;stroke-opacity:1.000000;stroke-linecap:round"/>
  <g transform="translate(329,-256) rotate(0)" > <text font-size="83.3333333333" fill="#800" font-family="monospace"  >
   11
  </text> </g> 
  <g transform="translate(110,-215) rotate(0)" > <text font-size="83.3333333333" fill="#088" font-family="monospace"  >
   Q1
  </text> </g> 
  <circle cx="550" cy="-250" r="10"
    style="fill:none;stroke:#800;stroke-width:2"  />
  <line x1="550" y1="-350" x2="250" y2="-350" style="stroke:#800;stroke-width:10;stroke-opacity:1.000000;stroke-linecap:round"/>
  <g transform="translate(329,-356) rotate(0)" > <text font-size="83.3333333333" fill="#800" font-family="monospace"  >
   12
  </text> </g> 
  <g transform="translate(110,-315) rotate(0)" > <text font-size="83.3333333333" fill="#088" font-family="monospace"  >
   Q0
  </text> </g> 
  <circle cx="550" cy="-350" r="10"
    style="fill:none;stroke:#800;stroke-width:2"  />
  <line x1="-550" y1="-50" x2="-250" y2="-50" style="stroke:#800;stroke-width:10;stroke-opacity:1.000000;stroke-linecap:round"/>
  <g transform="translate(-435,-56) rotate(0)" > <text font-size="83.3333333333" fill="#800" font-family="monospace"  >
   2
  </text> </g> 
  <g transform="translate(-232,-15) rotate(0)" > <text font-size="83.3333333333" fill="#088" font-family="monospace"  >
   MR
  </text> </g> 
  <circle cx="-550" cy="-50" r="10"
    style="fill:none;stroke:#800;stroke-width:2"  />
  <line x1="-210" y1="-200" x2="-250" y2="-160" style="stroke:#800;stroke-width:10;stroke-opacity:1.000000;stroke-linecap:round"/>
  <line x1="-250" y1="-160" x2="-250" y2="-240" style="stroke:#800;stroke-width:10;stroke-opacity:1.000000;stroke-linecap:round"/>
  <line x1="-250" y1="-240" x2="-210" y2="-200" style="stroke:#800;stroke-width:10;stroke-opacity:1.000000;stroke-linecap:round"/>
  <line x1="-550" y1="-200" x2="-320" y2="-200" style="stroke:#800;stroke-width:10;stroke-opacity:1.000000;stroke-linecap:round"/>
  <circle cx="-285" cy="-200" r="35"
    style="fill:none;stroke:#800;stroke-width:10"  />
  <g transform="translate(-435,-206) rotate(0)" > <text font-size="83.3333333333" fill="#800" font-family="monospace"  >
   1
  </text> </g> 
  <g transform="translate(-232,-165) rotate(0)" > <text font-size="83.3333333333" fill="#088" font-family="monospace"  >
   ~CLK
  </text> </g> 
  <circle cx="-550" cy="-200" r="10"
    style="fill:none;stroke:#800;stroke-width:2"  />
  <g transform="translate(-12,312) rotate(-90)" > <text font-size="83.3333333333" fill="#888" font-family="monospace"  >
   7
  </text> </g> 
  <g transform="translate(6,258) rotate(-90)" > <text font-size="83.3333333333" fill="#888" font-family="monospace"  >
   VSS
  </text> </g> 
  <circle cx="0" cy="300" r="10"
    style="fill:none;stroke:#888;stroke-width:2"  />
 </g>
</svg>
