<?xml version="1.0"?>
<svg height="347" width="306"  >
 <g style="fill-opacity:1.0; stroke:black;
  stroke-width:1;" transform=" translate( 153.4375,173.5 ) scale( 0.15,0.15 )">
  <g transform="translate(220,-670) rotate(0)" > <text font-size="100.0" fill="#088" font-family="monospace"  >
   U
  </text> </g> 
  <g transform="translate(230,880) rotate(0)" > <text font-size="100.0" fill="#088" font-family="monospace"  >
   4048
  </text> </g> 
  <rect x="-300" y="-650" height="1400"
    width="600" style="fill:none;stroke:#800;stroke-width:10" />
  <g transform="translate(-12,-625) rotate(-90)" > <text font-size="83.3333333333" fill="#888" font-family="monospace"  >
   16
  </text> </g> 
  <g transform="translate(6,-458) rotate(-90)" > <text font-size="83.3333333333" fill="#888" font-family="monospace"  >
   Vdd
  </text> </g> 
  <circle cx="0" cy="-650" r="10"
    style="fill:none;stroke:#888;stroke-width:2"  />
  <line x1="600" y1="0" x2="300" y2="0" style="stroke:#800;stroke-width:10;stroke-opacity:1.000000;stroke-linecap:round"/>
  <g transform="translate(414,-6) rotate(0)" > <text font-size="83.3333333333" fill="#800" font-family="monospace"  >
   1
  </text> </g> 
  <g transform="translate(210,35) rotate(0)" > <text font-size="83.3333333333" fill="#088" font-family="monospace"  >
   J
  </text> </g> 
  <circle cx="600" cy="0" r="10"
    style="fill:none;stroke:#800;stroke-width:2"  />
  <line x1="-600" y1="700" x2="-300" y2="700" style="stroke:#800;stroke-width:10;stroke-opacity:1.000000;stroke-linecap:round"/>
  <g transform="translate(-485,694) rotate(0)" > <text font-size="83.3333333333" fill="#800" font-family="monospace"  >
   3
  </text> </g> 
  <g transform="translate(-282,735) rotate(0)" > <text font-size="83.3333333333" fill="#088" font-family="monospace"  >
   H
  </text> </g> 
  <circle cx="-600" cy="700" r="10"
    style="fill:none;stroke:#800;stroke-width:2"  />
  <line x1="-600" y1="600" x2="-300" y2="600" style="stroke:#800;stroke-width:10;stroke-opacity:1.000000;stroke-linecap:round"/>
  <g transform="translate(-485,594) rotate(0)" > <text font-size="83.3333333333" fill="#800" font-family="monospace"  >
   4
  </text> </g> 
  <g transform="translate(-282,635) rotate(0)" > <text font-size="83.3333333333" fill="#088" font-family="monospace"  >
   G
  </text> </g> 
  <circle cx="-600" cy="600" r="10"
    style="fill:none;stroke:#800;stroke-width:2"  />
  <line x1="-600" y1="500" x2="-300" y2="500" style="stroke:#800;stroke-width:10;stroke-opacity:1.000000;stroke-linecap:round"/>
  <g transform="translate(-485,494) rotate(0)" > <text font-size="83.3333333333" fill="#800" font-family="monospace"  >
   5
  </text> </g> 
  <g transform="translate(-282,535) rotate(0)" > <text font-size="83.3333333333" fill="#088" font-family="monospace"  >
   F
  </text> </g> 
  <circle cx="-600" cy="500" r="10"
    style="fill:none;stroke:#800;stroke-width:2"  />
  <line x1="-600" y1="400" x2="-300" y2="400" style="stroke:#800;stroke-width:10;stroke-opacity:1.000000;stroke-linecap:round"/>
  <g transform="translate(-485,394) rotate(0)" > <text font-size="83.3333333333" fill="#800" font-family="monospace"  >
   6
  </text> </g> 
  <g transform="translate(-282,435) rotate(0)" > <text font-size="83.3333333333" fill="#088" font-family="monospace"  >
   E
  </text> </g> 
  <circle cx="-600" cy="400" r="10"
    style="fill:none;stroke:#800;stroke-width:2"  />
  <line x1="-600" y1="300" x2="-300" y2="300" style="stroke:#800;stroke-width:10;stroke-opacity:1.000000;stroke-linecap:round"/>
  <g transform="translate(-520,294) rotate(0)" > <text font-size="83.3333333333" fill="#800" font-family="monospace"  >
   11
  </text> </g> 
  <g transform="translate(-282,335) rotate(0)" > <text font-size="83.3333333333" fill="#088" font-family="monospace"  >
   D
  </text> </g> 
  <circle cx="-600" cy="300" r="10"
    style="fill:none;stroke:#800;stroke-width:2"  />
  <line x1="-600" y1="200" x2="-300" y2="200" style="stroke:#800;stroke-width:10;stroke-opacity:1.000000;stroke-linecap:round"/>
  <g transform="translate(-520,194) rotate(0)" > <text font-size="83.3333333333" fill="#800" font-family="monospace"  >
   12
  </text> </g> 
  <g transform="translate(-282,235) rotate(0)" > <text font-size="83.3333333333" fill="#088" font-family="monospace"  >
   C
  </text> </g> 
  <circle cx="-600" cy="200" r="10"
    style="fill:none;stroke:#800;stroke-width:2"  />
  <line x1="-600" y1="100" x2="-300" y2="100" style="stroke:#800;stroke-width:10;stroke-opacity:1.000000;stroke-linecap:round"/>
  <g transform="translate(-520,94) rotate(0)" > <text font-size="83.3333333333" fill="#800" font-family="monospace"  >
   13
  </text> </g> 
  <g transform="translate(-282,135) rotate(0)" > <text font-size="83.3333333333" fill="#088" font-family="monospace"  >
   B
  </text> </g> 
  <circle cx="-600" cy="100" r="10"
    style="fill:none;stroke:#800;stroke-width:2"  />
  <line x1="-600" y1="0" x2="-300" y2="0" style="stroke:#800;stroke-width:10;stroke-opacity:1.000000;stroke-linecap:round"/>
  <g transform="translate(-520,-6) rotate(0)" > <text font-size="83.3333333333" fill="#800" font-family="monospace"  >
   14
  </text> </g> 
  <g transform="translate(-282,35) rotate(0)" > <text font-size="83.3333333333" fill="#088" font-family="monospace"  >
   A
  </text> </g> 
  <circle cx="-600" cy="0" r="10"
    style="fill:none;stroke:#800;stroke-width:2"  />
  <line x1="-600" y1="-150" x2="-300" y2="-150" style="stroke:#800;stroke-width:10;stroke-opacity:1.000000;stroke-linecap:round"/>
  <g transform="translate(-520,-156) rotate(0)" > <text font-size="83.3333333333" fill="#800" font-family="monospace"  >
   15
  </text> </g> 
  <g transform="translate(-282,-115) rotate(0)" > <text font-size="83.3333333333" fill="#088" font-family="monospace"  >
   Ex
  </text> </g> 
  <circle cx="-600" cy="-150" r="10"
    style="fill:none;stroke:#800;stroke-width:2"  />
  <line x1="-600" y1="-300" x2="-300" y2="-300" style="stroke:#800;stroke-width:10;stroke-opacity:1.000000;stroke-linecap:round"/>
  <g transform="translate(-485,-306) rotate(0)" > <text font-size="83.3333333333" fill="#800" font-family="monospace"  >
   9
  </text> </g> 
  <g transform="translate(-282,-265) rotate(0)" > <text font-size="83.3333333333" fill="#088" font-family="monospace"  >
   Kc
  </text> </g> 
  <circle cx="-600" cy="-300" r="10"
    style="fill:none;stroke:#800;stroke-width:2"  />
  <line x1="-600" y1="-400" x2="-300" y2="-400" style="stroke:#800;stroke-width:10;stroke-opacity:1.000000;stroke-linecap:round"/>
  <g transform="translate(-485,-406) rotate(0)" > <text font-size="83.3333333333" fill="#800" font-family="monospace"  >
   7
  </text> </g> 
  <g transform="translate(-282,-365) rotate(0)" > <text font-size="83.3333333333" fill="#088" font-family="monospace"  >
   Kb
  </text> </g> 
  <circle cx="-600" cy="-400" r="10"
    style="fill:none;stroke:#800;stroke-width:2"  />
  <line x1="-600" y1="-500" x2="-300" y2="-500" style="stroke:#800;stroke-width:10;stroke-opacity:1.000000;stroke-linecap:round"/>
  <g transform="translate(-520,-506) rotate(0)" > <text font-size="83.3333333333" fill="#800" font-family="monospace"  >
   10
  </text> </g> 
  <g transform="translate(-282,-465) rotate(0)" > <text font-size="83.3333333333" fill="#088" font-family="monospace"  >
   Ka
  </text> </g> 
  <circle cx="-600" cy="-500" r="10"
    style="fill:none;stroke:#800;stroke-width:2"  />
  <line x1="-600" y1="-600" x2="-300" y2="-600" style="stroke:#800;stroke-width:10;stroke-opacity:1.000000;stroke-linecap:round"/>
  <g transform="translate(-485,-606) rotate(0)" > <text font-size="83.3333333333" fill="#800" font-family="monospace"  >
   2
  </text> </g> 
  <g transform="translate(-282,-565) rotate(0)" > <text font-size="83.3333333333" fill="#088" font-family="monospace"  >
   EN
  </text> </g> 
  <circle cx="-600" cy="-600" r="10"
    style="fill:none;stroke:#800;stroke-width:2"  />
  <g transform="translate(-12,762) rotate(-90)" > <text font-size="83.3333333333" fill="#888" font-family="monospace"  >
   8
  </text> </g> 
  <g transform="translate(6,708) rotate(-90)" > <text font-size="83.3333333333" fill="#888" font-family="monospace"  >
   Vss
  </text> </g> 
  <circle cx="0" cy="750" r="10"
    style="fill:none;stroke:#888;stroke-width:2"  />
 </g>
</svg>
