<?xml version="1.0"?>
<svg height="212" width="200"  >
 <g style="fill-opacity:1.0; stroke:black;
  stroke-width:1;" transform=" translate( 100.0,106.0 ) scale( 0.15,0.15 )">
  <g transform="translate(70,-220) rotate(0)" > <text font-size="100.0" fill="#088" font-family="monospace"  >
   U
  </text> </g> 
  <g transform="translate(130,280) rotate(0)" > <text font-size="100.0" fill="#088" font-family="monospace"  >
   4071
  </text> </g> 
  <line x1="-100" y1="80" x2="-40" y2="20" style="stroke:#800;stroke-width:10;stroke-opacity:1.000000;stroke-linecap:round"/>
  <line x1="-40" y1="20" x2="-40" y2="20" style="stroke:#800;stroke-width:10;stroke-opacity:1.000000;stroke-linecap:round"/>
  <line x1="-100" y1="-60" x2="-40" y2="0" style="stroke:#800;stroke-width:10;stroke-opacity:1.000000;stroke-linecap:round"/>
  <line x1="-40" y1="0" x2="-100" y2="60" style="stroke:#800;stroke-width:10;stroke-opacity:1.000000;stroke-linecap:round"/>
  <line x1="-100" y1="60" x2="-100" y2="60" style="stroke:#800;stroke-width:10;stroke-opacity:1.000000;stroke-linecap:round"/>
  <rect x="-200" y="-200" height="400"
    width="400" style="fill:none;stroke:#800;stroke-width:10" />
  <g transform="translate(-40,50) rotate(0)" > <text font-size="166.666666667" fill="#800" font-family="monospace"  >
   1
  </text> </g> 
  <g transform="translate(-10,-180) rotate(-90)" > <text font-size="66.6666666667" fill="#888" font-family="monospace"  >
   14
  </text> </g> 
  <g transform="translate(5,-46) rotate(-90)" > <text font-size="66.6666666667" fill="#888" font-family="monospace"  >
   Vdd
  </text> </g> 
  <circle cx="0" cy="-200" r="10"
    style="fill:none;stroke:#888;stroke-width:2"  />
  <line x1="500" y1="0" x2="200" y2="0" style="stroke:#800;stroke-width:10;stroke-opacity:1.000000;stroke-linecap:round"/>
  <g transform="translate(307,-6) rotate(0)" > <text font-size="100.0" fill="#800" font-family="monospace"  >
   3
  </text> </g> 
  <circle cx="500" cy="0" r="10"
    style="fill:none;stroke:#800;stroke-width:2"  />
  <line x1="-500" y1="100" x2="-200" y2="100" style="stroke:#800;stroke-width:10;stroke-opacity:1.000000;stroke-linecap:round"/>
  <g transform="translate(-392,94) rotate(0)" > <text font-size="100.0" fill="#800" font-family="monospace"  >
   2
  </text> </g> 
  <circle cx="-500" cy="100" r="10"
    style="fill:none;stroke:#800;stroke-width:2"  />
  <line x1="-500" y1="-100" x2="-200" y2="-100" style="stroke:#800;stroke-width:10;stroke-opacity:1.000000;stroke-linecap:round"/>
  <g transform="translate(-392,-106) rotate(0)" > <text font-size="100.0" fill="#800" font-family="monospace"  >
   1
  </text> </g> 
  <circle cx="-500" cy="-100" r="10"
    style="fill:none;stroke:#800;stroke-width:2"  />
  <g transform="translate(-10,210) rotate(-90)" > <text font-size="66.6666666667" fill="#888" font-family="monospace"  >
   7
  </text> </g> 
  <g transform="translate(5,166) rotate(-90)" > <text font-size="66.6666666667" fill="#888" font-family="monospace"  >
   Vss
  </text> </g> 
  <circle cx="0" cy="200" r="10"
    style="fill:none;stroke:#888;stroke-width:2"  />
 </g>
</svg>
