<?xml version="1.0"?>
<svg height="170" width="170"  >
 <g style="fill-opacity:1.0; stroke:black;
  stroke-width:1;" transform=" translate( 85.0,85.0 ) scale( 0.15,0.15 )">
  <g transform="translate(180,169) rotate(0)" > <text font-size="66.6666666667" fill="#088" font-family="monospace"  >
   U
  </text> </g> 
  <g transform="translate(120,-130) rotate(0)" > <text font-size="66.6666666667" fill="#088" font-family="monospace"  >
   4016
  </text> </g> 
  <line x1="-100" y1="150" x2="0" y2="50" style="stroke:#800;stroke-width:10;stroke-opacity:1.000000;stroke-linecap:round"/>
  <line x1="0" y1="50" x2="0" y2="50" style="stroke:#800;stroke-width:10;stroke-opacity:1.000000;stroke-linecap:round"/>
  <line x1="-100" y1="0" x2="100" y2="-100" style="stroke:#800;stroke-width:10;stroke-opacity:1.000000;stroke-linecap:round"/>
  <line x1="100" y1="-100" x2="100" y2="100" style="stroke:#800;stroke-width:10;stroke-opacity:1.000000;stroke-linecap:round"/>
  <line x1="100" y1="100" x2="-100" y2="0" style="stroke:#800;stroke-width:10;stroke-opacity:1.000000;stroke-linecap:round"/>
  <line x1="-100" y1="-100" x2="100" y2="0" style="stroke:#800;stroke-width:10;stroke-opacity:1.000000;stroke-linecap:round"/>
  <line x1="100" y1="0" x2="-100" y2="100" style="stroke:#800;stroke-width:10;stroke-opacity:1.000000;stroke-linecap:round"/>
  <line x1="-100" y1="100" x2="-100" y2="-100" style="stroke:#800;stroke-width:10;stroke-opacity:1.000000;stroke-linecap:round"/>
  <line x1="0" y1="250" x2="0" y2="50" style="stroke:#800;stroke-width:10;stroke-opacity:1.000000;stroke-linecap:round"/>
  <g transform="translate(-7,157) rotate(-90)" > <text font-size="50.0" fill="#800" font-family="monospace"  >
   7
  </text> </g> 
  <g transform="translate(3,25) rotate(-90)" > <text font-size="50.0" fill="#088" font-family="monospace"  >
   V-
  </text> </g> 
  <circle cx="0" cy="250" r="10"
    style="fill:none;stroke:#800;stroke-width:2"  />
  <line x1="0" y1="-250" x2="0" y2="-50" style="stroke:#800;stroke-width:10;stroke-opacity:1.000000;stroke-linecap:round"/>
  <g transform="translate(-7,-135) rotate(-90)" > <text font-size="50.0" fill="#800" font-family="monospace"  >
   14
  </text> </g> 
  <g transform="translate(3,35) rotate(-90)" > <text font-size="50.0" fill="#088" font-family="monospace"  >
   V+
  </text> </g> 
  <circle cx="0" cy="-250" r="10"
    style="fill:none;stroke:#800;stroke-width:2"  />
  <line x1="-300" y1="0" x2="-100" y2="0" style="stroke:#800;stroke-width:10;stroke-opacity:1.000000;stroke-linecap:round"/>
  <g transform="translate(-228,-6) rotate(0)" > <text font-size="66.6666666667" fill="#800" font-family="monospace"  >
   1
  </text> </g> 
  <g transform="translate(-82,30) rotate(0)" > <text font-size="66.6666666667" fill="#088" font-family="monospace"  >
   I/O
  </text> </g> 
  <circle cx="-300" cy="0" r="10"
    style="fill:none;stroke:#800;stroke-width:2"  />
  <line x1="300" y1="0" x2="100" y2="0" style="stroke:#800;stroke-width:10;stroke-opacity:1.000000;stroke-linecap:round"/>
  <g transform="translate(171,-6) rotate(0)" > <text font-size="66.6666666667" fill="#800" font-family="monospace"  >
   2
  </text> </g> 
  <g transform="translate(-60,30) rotate(0)" > <text font-size="66.6666666667" fill="#088" font-family="monospace"  >
   O/I
  </text> </g> 
  <circle cx="300" cy="0" r="10"
    style="fill:none;stroke:#800;stroke-width:2"  />
  <line x1="-300" y1="150" x2="-100" y2="150" style="stroke:#800;stroke-width:10;stroke-opacity:1.000000;stroke-linecap:round"/>
  <g transform="translate(-256,144) rotate(0)" > <text font-size="66.6666666667" fill="#800" font-family="monospace"  >
   13
  </text> </g> 
  <g transform="translate(-82,180) rotate(0)" > <text font-size="66.6666666667" fill="#088" font-family="monospace"  >
   ON
  </text> </g> 
  <circle cx="-300" cy="150" r="10"
    style="fill:none;stroke:#800;stroke-width:2"  />
 </g>
</svg>
