<?xml version="1.0"?>
<svg height="309" width="309"  >
 <g style="fill-opacity:1.0; stroke:black;
  stroke-width:1;" transform=" translate( 154.75,154.75 ) scale( 0.15,0.15 )">
  <g transform="translate(-35,35) rotate(0)" > <text font-size="116.666666667" fill="#088" font-family="monospace"  >
   U
  </text> </g> 
  <g transform="translate(-175,235) rotate(0)" > <text font-size="116.666666667" fill="#088" font-family="monospace"  >
   74469
  </text> </g> 
  <rect x="-350" y="-650" height="1300"
    width="700" style="fill:none;stroke:#800;stroke-width:10" />
  <line x1="-650" y1="300" x2="-350" y2="300" style="stroke:#800;stroke-width:10;stroke-opacity:1.000000;stroke-linecap:round"/>
  <g transform="translate(-542,294) rotate(0)" > <text font-size="100.0" fill="#800" font-family="monospace"  >
   1
  </text> </g> 
  <g transform="translate(-332,340) rotate(0)" > <text font-size="100.0" fill="#088" font-family="monospace"  >
   CLK
  </text> </g> 
  <circle cx="-650" cy="300" r="10"
    style="fill:none;stroke:#800;stroke-width:2"  />
  <line x1="-650" y1="400" x2="-350" y2="400" style="stroke:#800;stroke-width:10;stroke-opacity:1.000000;stroke-linecap:round"/>
  <g transform="translate(-542,394) rotate(0)" > <text font-size="100.0" fill="#800" font-family="monospace"  >
   2
  </text> </g> 
  <g transform="translate(-332,440) rotate(0)" > <text font-size="100.0" fill="#088" font-family="monospace"  >
   LD
  </text> </g> 
  <circle cx="-650" cy="400" r="10"
    style="fill:none;stroke:#800;stroke-width:2"  />
  <line x1="-650" y1="-600" x2="-350" y2="-600" style="stroke:#800;stroke-width:10;stroke-opacity:1.000000;stroke-linecap:round"/>
  <g transform="translate(-542,-606) rotate(0)" > <text font-size="100.0" fill="#800" font-family="monospace"  >
   3
  </text> </g> 
  <g transform="translate(-332,-560) rotate(0)" > <text font-size="100.0" fill="#088" font-family="monospace"  >
   D0
  </text> </g> 
  <circle cx="-650" cy="-600" r="10"
    style="fill:none;stroke:#800;stroke-width:2"  />
  <line x1="-650" y1="-500" x2="-350" y2="-500" style="stroke:#800;stroke-width:10;stroke-opacity:1.000000;stroke-linecap:round"/>
  <g transform="translate(-542,-506) rotate(0)" > <text font-size="100.0" fill="#800" font-family="monospace"  >
   4
  </text> </g> 
  <g transform="translate(-332,-460) rotate(0)" > <text font-size="100.0" fill="#088" font-family="monospace"  >
   D1
  </text> </g> 
  <circle cx="-650" cy="-500" r="10"
    style="fill:none;stroke:#800;stroke-width:2"  />
  <line x1="-650" y1="-400" x2="-350" y2="-400" style="stroke:#800;stroke-width:10;stroke-opacity:1.000000;stroke-linecap:round"/>
  <g transform="translate(-542,-406) rotate(0)" > <text font-size="100.0" fill="#800" font-family="monospace"  >
   5
  </text> </g> 
  <g transform="translate(-332,-360) rotate(0)" > <text font-size="100.0" fill="#088" font-family="monospace"  >
   D2
  </text> </g> 
  <circle cx="-650" cy="-400" r="10"
    style="fill:none;stroke:#800;stroke-width:2"  />
  <line x1="-650" y1="-300" x2="-350" y2="-300" style="stroke:#800;stroke-width:10;stroke-opacity:1.000000;stroke-linecap:round"/>
  <g transform="translate(-542,-306) rotate(0)" > <text font-size="100.0" fill="#800" font-family="monospace"  >
   6
  </text> </g> 
  <g transform="translate(-332,-260) rotate(0)" > <text font-size="100.0" fill="#088" font-family="monospace"  >
   D3
  </text> </g> 
  <circle cx="-650" cy="-300" r="10"
    style="fill:none;stroke:#800;stroke-width:2"  />
  <line x1="-650" y1="-200" x2="-350" y2="-200" style="stroke:#800;stroke-width:10;stroke-opacity:1.000000;stroke-linecap:round"/>
  <g transform="translate(-542,-206) rotate(0)" > <text font-size="100.0" fill="#800" font-family="monospace"  >
   7
  </text> </g> 
  <g transform="translate(-332,-160) rotate(0)" > <text font-size="100.0" fill="#088" font-family="monospace"  >
   D4
  </text> </g> 
  <circle cx="-650" cy="-200" r="10"
    style="fill:none;stroke:#800;stroke-width:2"  />
  <line x1="-650" y1="-100" x2="-350" y2="-100" style="stroke:#800;stroke-width:10;stroke-opacity:1.000000;stroke-linecap:round"/>
  <g transform="translate(-542,-106) rotate(0)" > <text font-size="100.0" fill="#800" font-family="monospace"  >
   8
  </text> </g> 
  <g transform="translate(-332,-60) rotate(0)" > <text font-size="100.0" fill="#088" font-family="monospace"  >
   D5
  </text> </g> 
  <circle cx="-650" cy="-100" r="10"
    style="fill:none;stroke:#800;stroke-width:2"  />
  <line x1="-650" y1="0" x2="-350" y2="0" style="stroke:#800;stroke-width:10;stroke-opacity:1.000000;stroke-linecap:round"/>
  <g transform="translate(-542,-6) rotate(0)" > <text font-size="100.0" fill="#800" font-family="monospace"  >
   9
  </text> </g> 
  <g transform="translate(-332,40) rotate(0)" > <text font-size="100.0" fill="#088" font-family="monospace"  >
   D6
  </text> </g> 
  <circle cx="-650" cy="0" r="10"
    style="fill:none;stroke:#800;stroke-width:2"  />
  <line x1="-650" y1="100" x2="-350" y2="100" style="stroke:#800;stroke-width:10;stroke-opacity:1.000000;stroke-linecap:round"/>
  <g transform="translate(-585,94) rotate(0)" > <text font-size="100.0" fill="#800" font-family="monospace"  >
   10
  </text> </g> 
  <g transform="translate(-332,140) rotate(0)" > <text font-size="100.0" fill="#088" font-family="monospace"  >
   D7
  </text> </g> 
  <circle cx="-650" cy="100" r="10"
    style="fill:none;stroke:#800;stroke-width:2"  />
  <line x1="650" y1="-400" x2="350" y2="-400" style="stroke:#800;stroke-width:10;stroke-opacity:1.000000;stroke-linecap:round"/>
  <g transform="translate(415,-406) rotate(0)" > <text font-size="100.0" fill="#800" font-family="monospace"  >
   20
  </text> </g> 
  <g transform="translate(190,-360) rotate(0)" > <text font-size="100.0" fill="#088" font-family="monospace"  >
   Q2
  </text> </g> 
  <circle cx="650" cy="-400" r="10"
    style="fill:none;stroke:#800;stroke-width:2"  />
  <line x1="-650" y1="500" x2="-350" y2="500" style="stroke:#800;stroke-width:10;stroke-opacity:1.000000;stroke-linecap:round"/>
  <g transform="translate(-585,494) rotate(0)" > <text font-size="100.0" fill="#800" font-family="monospace"  >
   11
  </text> </g> 
  <g transform="translate(-332,540) rotate(0)" > <text font-size="100.0" fill="#088" font-family="monospace"  >
   UD
  </text> </g> 
  <circle cx="-650" cy="500" r="10"
    style="fill:none;stroke:#800;stroke-width:2"  />
  <line x1="650" y1="-500" x2="350" y2="-500" style="stroke:#800;stroke-width:10;stroke-opacity:1.000000;stroke-linecap:round"/>
  <g transform="translate(415,-506) rotate(0)" > <text font-size="100.0" fill="#800" font-family="monospace"  >
   21
  </text> </g> 
  <g transform="translate(190,-460) rotate(0)" > <text font-size="100.0" fill="#088" font-family="monospace"  >
   Q1
  </text> </g> 
  <circle cx="650" cy="-500" r="10"
    style="fill:none;stroke:#800;stroke-width:2"  />
  <g transform="translate(-15,680) rotate(-90)" > <text font-size="100.0" fill="#888" font-family="monospace"  >
   12
  </text> </g> 
  <g transform="translate(7,600) rotate(-90)" > <text font-size="100.0" fill="#888" font-family="monospace"  >
   GND
  </text> </g> 
  <circle cx="0" cy="650" r="10"
    style="fill:none;stroke:#888;stroke-width:2"  />
  <line x1="650" y1="-600" x2="350" y2="-600" style="stroke:#800;stroke-width:10;stroke-opacity:1.000000;stroke-linecap:round"/>
  <g transform="translate(415,-606) rotate(0)" > <text font-size="100.0" fill="#800" font-family="monospace"  >
   22
  </text> </g> 
  <g transform="translate(190,-560) rotate(0)" > <text font-size="100.0" fill="#088" font-family="monospace"  >
   Q0
  </text> </g> 
  <circle cx="650" cy="-600" r="10"
    style="fill:none;stroke:#800;stroke-width:2"  />
  <line x1="650" y1="300" x2="350" y2="300" style="stroke:#800;stroke-width:10;stroke-opacity:1.000000;stroke-linecap:round"/>
  <g transform="translate(415,294) rotate(0)" > <text font-size="100.0" fill="#800" font-family="monospace"  >
   13
  </text> </g> 
  <g transform="translate(190,340) rotate(0)" > <text font-size="100.0" fill="#088" font-family="monospace"  >
   OE
  </text> </g> 
  <circle cx="650" cy="300" r="10"
    style="fill:none;stroke:#800;stroke-width:2"  />
  <line x1="-650" y1="600" x2="-350" y2="600" style="stroke:#800;stroke-width:10;stroke-opacity:1.000000;stroke-linecap:round"/>
  <g transform="translate(-585,594) rotate(0)" > <text font-size="100.0" fill="#800" font-family="monospace"  >
   23
  </text> </g> 
  <g transform="translate(-332,640) rotate(0)" > <text font-size="100.0" fill="#088" font-family="monospace"  >
   CBI
  </text> </g> 
  <circle cx="-650" cy="600" r="10"
    style="fill:none;stroke:#800;stroke-width:2"  />
  <line x1="650" y1="400" x2="350" y2="400" style="stroke:#800;stroke-width:10;stroke-opacity:1.000000;stroke-linecap:round"/>
  <g transform="translate(415,394) rotate(0)" > <text font-size="100.0" fill="#800" font-family="monospace"  >
   14
  </text> </g> 
  <g transform="translate(130,440) rotate(0)" > <text font-size="100.0" fill="#088" font-family="monospace"  >
   CBO
  </text> </g> 
  <circle cx="650" cy="400" r="10"
    style="fill:none;stroke:#800;stroke-width:2"  />
  <g transform="translate(-15,-620) rotate(-90)" > <text font-size="100.0" fill="#888" font-family="monospace"  >
   24
  </text> </g> 
  <g transform="translate(7,-420) rotate(-90)" > <text font-size="100.0" fill="#888" font-family="monospace"  >
   VCC
  </text> </g> 
  <circle cx="0" cy="-650" r="10"
    style="fill:none;stroke:#888;stroke-width:2"  />
  <line x1="650" y1="100" x2="350" y2="100" style="stroke:#800;stroke-width:10;stroke-opacity:1.000000;stroke-linecap:round"/>
  <g transform="translate(415,94) rotate(0)" > <text font-size="100.0" fill="#800" font-family="monospace"  >
   15
  </text> </g> 
  <g transform="translate(190,140) rotate(0)" > <text font-size="100.0" fill="#088" font-family="monospace"  >
   Q7
  </text> </g> 
  <circle cx="650" cy="100" r="10"
    style="fill:none;stroke:#800;stroke-width:2"  />
  <line x1="650" y1="0" x2="350" y2="0" style="stroke:#800;stroke-width:10;stroke-opacity:1.000000;stroke-linecap:round"/>
  <g transform="translate(415,-6) rotate(0)" > <text font-size="100.0" fill="#800" font-family="monospace"  >
   16
  </text> </g> 
  <g transform="translate(190,40) rotate(0)" > <text font-size="100.0" fill="#088" font-family="monospace"  >
   Q6
  </text> </g> 
  <circle cx="650" cy="0" r="10"
    style="fill:none;stroke:#800;stroke-width:2"  />
  <line x1="650" y1="-100" x2="350" y2="-100" style="stroke:#800;stroke-width:10;stroke-opacity:1.000000;stroke-linecap:round"/>
  <g transform="translate(415,-106) rotate(0)" > <text font-size="100.0" fill="#800" font-family="monospace"  >
   17
  </text> </g> 
  <g transform="translate(190,-60) rotate(0)" > <text font-size="100.0" fill="#088" font-family="monospace"  >
   Q5
  </text> </g> 
  <circle cx="650" cy="-100" r="10"
    style="fill:none;stroke:#800;stroke-width:2"  />
  <line x1="650" y1="-200" x2="350" y2="-200" style="stroke:#800;stroke-width:10;stroke-opacity:1.000000;stroke-linecap:round"/>
  <g transform="translate(415,-206) rotate(0)" > <text font-size="100.0" fill="#800" font-family="monospace"  >
   18
  </text> </g> 
  <g transform="translate(190,-160) rotate(0)" > <text font-size="100.0" fill="#088" font-family="monospace"  >
   Q4
  </text> </g> 
  <circle cx="650" cy="-200" r="10"
    style="fill:none;stroke:#800;stroke-width:2"  />
  <line x1="650" y1="-300" x2="350" y2="-300" style="stroke:#800;stroke-width:10;stroke-opacity:1.000000;stroke-linecap:round"/>
  <g transform="translate(415,-306) rotate(0)" > <text font-size="100.0" fill="#800" font-family="monospace"  >
   19
  </text> </g> 
  <g transform="translate(190,-260) rotate(0)" > <text font-size="100.0" fill="#088" font-family="monospace"  >
   Q3
  </text> </g> 
  <circle cx="650" cy="-300" r="10"
    style="fill:none;stroke:#800;stroke-width:2"  />
 </g>
</svg>
