<?xml version="1.0"?>
<svg height="335" width="335"  >
 <g style="fill-opacity:1.0; stroke:black;
  stroke-width:1;" transform=" translate( 167.5,167.5 ) scale( 0.15,0.15 )">
  <g transform="translate(20,130) rotate(0)" > <text font-size="100.0" fill="#088" font-family="monospace"  >
   U
  </text> </g> 
  <g transform="translate(-160,230) rotate(0)" > <text font-size="100.0" fill="#088" font-family="monospace"  >
   74LS221
  </text> </g> 
  <g transform="translate(-415,315) rotate(-90)" > <text font-size="100.0" fill="#888" font-family="monospace"  >
   8
  </text> </g> 
  <g transform="translate(-392,250) rotate(-90)" > <text font-size="100.0" fill="#888" font-family="monospace"  >
   GND
  </text> </g> 
  <circle cx="-400" cy="300" r="10"
    style="fill:none;stroke:#888;stroke-width:2"  />
  <g transform="translate(-415,-270) rotate(-90)" > <text font-size="100.0" fill="#888" font-family="monospace"  >
   16
  </text> </g> 
  <g transform="translate(-392,-350) rotate(-90)" > <text font-size="100.0" fill="#888" font-family="monospace"  >
   VCC
  </text> </g> 
  <circle cx="-400" cy="-300" r="10"
    style="fill:none;stroke:#888;stroke-width:2"  />
  <rect x="-500" y="-300" height="600"
    width="1000" style="fill:none;stroke:#800;stroke-width:10" />
  <line x1="-800" y1="-50" x2="-570" y2="-50" style="stroke:#800;stroke-width:10;stroke-opacity:1.000000;stroke-linecap:round"/>
  <circle cx="-535" cy="-50" r="35"
    style="fill:none;stroke:#800;stroke-width:10"  />
  <g transform="translate(-692,-56) rotate(0)" > <text font-size="100.0" fill="#800" font-family="monospace"  >
   1
  </text> </g> 
  <g transform="translate(-482,-10) rotate(0)" > <text font-size="100.0" fill="#088" font-family="monospace"  >
   A
  </text> </g> 
  <circle cx="-800" cy="-50" r="10"
    style="fill:none;stroke:#800;stroke-width:2"  />
  <line x1="-800" y1="50" x2="-500" y2="50" style="stroke:#800;stroke-width:10;stroke-opacity:1.000000;stroke-linecap:round"/>
  <g transform="translate(-692,44) rotate(0)" > <text font-size="100.0" fill="#800" font-family="monospace"  >
   2
  </text> </g> 
  <g transform="translate(-482,90) rotate(0)" > <text font-size="100.0" fill="#088" font-family="monospace"  >
   B
  </text> </g> 
  <circle cx="-800" cy="50" r="10"
    style="fill:none;stroke:#800;stroke-width:2"  />
  <line x1="-800" y1="200" x2="-500" y2="200" style="stroke:#800;stroke-width:10;stroke-opacity:1.000000;stroke-linecap:round"/>
  <g transform="translate(-692,194) rotate(0)" > <text font-size="100.0" fill="#800" font-family="monospace"  >
   3
  </text> </g> 
  <g transform="translate(-482,240) rotate(0)" > <text font-size="100.0" fill="#088" font-family="monospace"  >
   Clr
  </text> </g> 
  <circle cx="-800" cy="200" r="10"
    style="fill:none;stroke:#800;stroke-width:2"  />
  <line x1="800" y1="200" x2="570" y2="200" style="stroke:#800;stroke-width:10;stroke-opacity:1.000000;stroke-linecap:round"/>
  <circle cx="535" cy="200" r="35"
    style="fill:none;stroke:#800;stroke-width:10"  />
  <g transform="translate(607,194) rotate(0)" > <text font-size="100.0" fill="#800" font-family="monospace"  >
   4
  </text> </g> 
  <g transform="translate(340,240) rotate(0)" > <text font-size="100.0" fill="#088" font-family="monospace"  >
   ~Q
  </text> </g> 
  <circle cx="800" cy="200" r="10"
    style="fill:none;stroke:#800;stroke-width:2"  />
  <line x1="800" y1="-200" x2="500" y2="-200" style="stroke:#800;stroke-width:10;stroke-opacity:1.000000;stroke-linecap:round"/>
  <g transform="translate(565,-206) rotate(0)" > <text font-size="100.0" fill="#800" font-family="monospace"  >
   13
  </text> </g> 
  <g transform="translate(400,-160) rotate(0)" > <text font-size="100.0" fill="#088" font-family="monospace"  >
   Q
  </text> </g> 
  <circle cx="800" cy="-200" r="10"
    style="fill:none;stroke:#800;stroke-width:2"  />
  <line x1="250" y1="-500" x2="250" y2="-300" style="stroke:#800;stroke-width:10;stroke-opacity:1.000000;stroke-linecap:round"/>
  <g transform="translate(235,-370) rotate(-90)" > <text font-size="100.0" fill="#800" font-family="monospace"  >
   14
  </text> </g> 
  <g transform="translate(257,-10) rotate(-90)" > <text font-size="100.0" fill="#088" font-family="monospace"  >
   Cext
  </text> </g> 
  <circle cx="250" cy="-500" r="10"
    style="fill:none;stroke:#800;stroke-width:2"  />
  <line x1="-250" y1="-500" x2="-250" y2="-300" style="stroke:#800;stroke-width:10;stroke-opacity:1.000000;stroke-linecap:round"/>
  <g transform="translate(-265,-370) rotate(-90)" > <text font-size="100.0" fill="#800" font-family="monospace"  >
   15
  </text> </g> 
  <g transform="translate(-242,50) rotate(-90)" > <text font-size="100.0" fill="#088" font-family="monospace"  >
   RCext
  </text> </g> 
  <circle cx="-250" cy="-500" r="10"
    style="fill:none;stroke:#800;stroke-width:2"  />
 </g>
</svg>
