<?xml version="1.0"?>
<svg height="329" width="329"  >
 <g style="fill-opacity:1.0; stroke:black;
  stroke-width:1;" transform=" translate( 164.875,164.875 ) scale( 0.15,0.15 )">
  <g transform="translate(-30,30) rotate(0)" > <text font-size="100.0" fill="#088" font-family="monospace"  >
   U
  </text> </g> 
  <g transform="translate(-210,180) rotate(0)" > <text font-size="100.0" fill="#088" font-family="monospace"  >
   74LS151
  </text> </g> 
  <g transform="translate(-315,715) rotate(-90)" > <text font-size="100.0" fill="#888" font-family="monospace"  >
   8
  </text> </g> 
  <g transform="translate(-292,650) rotate(-90)" > <text font-size="100.0" fill="#888" font-family="monospace"  >
   GND
  </text> </g> 
  <circle cx="-300" cy="700" r="10"
    style="fill:none;stroke:#888;stroke-width:2"  />
  <g transform="translate(-315,-670) rotate(-90)" > <text font-size="100.0" fill="#888" font-family="monospace"  >
   16
  </text> </g> 
  <g transform="translate(-292,-750) rotate(-90)" > <text font-size="100.0" fill="#888" font-family="monospace"  >
   VCC
  </text> </g> 
  <circle cx="-300" cy="-700" r="10"
    style="fill:none;stroke:#888;stroke-width:2"  />
  <rect x="-400" y="-700" height="1400"
    width="800" style="fill:none;stroke:#800;stroke-width:10" />
  <line x1="-700" y1="-350" x2="-400" y2="-350" style="stroke:#800;stroke-width:10;stroke-opacity:1.000000;stroke-linecap:round"/>
  <g transform="translate(-592,-356) rotate(0)" > <text font-size="100.0" fill="#800" font-family="monospace"  >
   1
  </text> </g> 
  <g transform="translate(-382,-310) rotate(0)" > <text font-size="100.0" fill="#088" font-family="monospace"  >
   I3
  </text> </g> 
  <circle cx="-700" cy="-350" r="10"
    style="fill:none;stroke:#800;stroke-width:2"  />
  <line x1="-700" y1="-450" x2="-400" y2="-450" style="stroke:#800;stroke-width:10;stroke-opacity:1.000000;stroke-linecap:round"/>
  <g transform="translate(-592,-456) rotate(0)" > <text font-size="100.0" fill="#800" font-family="monospace"  >
   2
  </text> </g> 
  <g transform="translate(-382,-410) rotate(0)" > <text font-size="100.0" fill="#088" font-family="monospace"  >
   I2
  </text> </g> 
  <circle cx="-700" cy="-450" r="10"
    style="fill:none;stroke:#800;stroke-width:2"  />
  <line x1="-700" y1="-550" x2="-400" y2="-550" style="stroke:#800;stroke-width:10;stroke-opacity:1.000000;stroke-linecap:round"/>
  <g transform="translate(-592,-556) rotate(0)" > <text font-size="100.0" fill="#800" font-family="monospace"  >
   3
  </text> </g> 
  <g transform="translate(-382,-510) rotate(0)" > <text font-size="100.0" fill="#088" font-family="monospace"  >
   I1
  </text> </g> 
  <circle cx="-700" cy="-550" r="10"
    style="fill:none;stroke:#800;stroke-width:2"  />
  <line x1="-700" y1="-650" x2="-400" y2="-650" style="stroke:#800;stroke-width:10;stroke-opacity:1.000000;stroke-linecap:round"/>
  <g transform="translate(-592,-656) rotate(0)" > <text font-size="100.0" fill="#800" font-family="monospace"  >
   4
  </text> </g> 
  <g transform="translate(-382,-610) rotate(0)" > <text font-size="100.0" fill="#088" font-family="monospace"  >
   I0
  </text> </g> 
  <circle cx="-700" cy="-650" r="10"
    style="fill:none;stroke:#800;stroke-width:2"  />
  <line x1="700" y1="-500" x2="400" y2="-500" style="stroke:#800;stroke-width:10;stroke-opacity:1.000000;stroke-linecap:round"/>
  <g transform="translate(507,-506) rotate(0)" > <text font-size="100.0" fill="#800" font-family="monospace"  >
   5
  </text> </g> 
  <g transform="translate(300,-460) rotate(0)" > <text font-size="100.0" fill="#088" font-family="monospace"  >
   Z
  </text> </g> 
  <circle cx="700" cy="-500" r="10"
    style="fill:none;stroke:#800;stroke-width:2"  />
  <line x1="700" y1="-400" x2="470" y2="-400" style="stroke:#800;stroke-width:10;stroke-opacity:1.000000;stroke-linecap:round"/>
  <circle cx="435" cy="-400" r="35"
    style="fill:none;stroke:#800;stroke-width:10"  />
  <g transform="translate(507,-406) rotate(0)" > <text font-size="100.0" fill="#800" font-family="monospace"  >
   6
  </text> </g> 
  <g transform="translate(240,-360) rotate(0)" > <text font-size="100.0" fill="#088" font-family="monospace"  >
   ~Z
  </text> </g> 
  <circle cx="700" cy="-400" r="10"
    style="fill:none;stroke:#800;stroke-width:2"  />
  <line x1="-700" y1="650" x2="-470" y2="650" style="stroke:#800;stroke-width:10;stroke-opacity:1.000000;stroke-linecap:round"/>
  <circle cx="-435" cy="650" r="35"
    style="fill:none;stroke:#800;stroke-width:10"  />
  <g transform="translate(-592,644) rotate(0)" > <text font-size="100.0" fill="#800" font-family="monospace"  >
   7
  </text> </g> 
  <g transform="translate(-382,690) rotate(0)" > <text font-size="100.0" fill="#088" font-family="monospace"  >
   ~E
  </text> </g> 
  <circle cx="-700" cy="650" r="10"
    style="fill:none;stroke:#800;stroke-width:2"  />
  <line x1="-700" y1="450" x2="-400" y2="450" style="stroke:#800;stroke-width:10;stroke-opacity:1.000000;stroke-linecap:round"/>
  <g transform="translate(-592,444) rotate(0)" > <text font-size="100.0" fill="#800" font-family="monospace"  >
   9
  </text> </g> 
  <g transform="translate(-382,490) rotate(0)" > <text font-size="100.0" fill="#088" font-family="monospace"  >
   S2
  </text> </g> 
  <circle cx="-700" cy="450" r="10"
    style="fill:none;stroke:#800;stroke-width:2"  />
  <line x1="-700" y1="350" x2="-400" y2="350" style="stroke:#800;stroke-width:10;stroke-opacity:1.000000;stroke-linecap:round"/>
  <g transform="translate(-635,344) rotate(0)" > <text font-size="100.0" fill="#800" font-family="monospace"  >
   10
  </text> </g> 
  <g transform="translate(-382,390) rotate(0)" > <text font-size="100.0" fill="#088" font-family="monospace"  >
   S1
  </text> </g> 
  <circle cx="-700" cy="350" r="10"
    style="fill:none;stroke:#800;stroke-width:2"  />
  <line x1="-700" y1="250" x2="-400" y2="250" style="stroke:#800;stroke-width:10;stroke-opacity:1.000000;stroke-linecap:round"/>
  <g transform="translate(-635,244) rotate(0)" > <text font-size="100.0" fill="#800" font-family="monospace"  >
   11
  </text> </g> 
  <g transform="translate(-382,290) rotate(0)" > <text font-size="100.0" fill="#088" font-family="monospace"  >
   S0
  </text> </g> 
  <circle cx="-700" cy="250" r="10"
    style="fill:none;stroke:#800;stroke-width:2"  />
  <line x1="-700" y1="50" x2="-400" y2="50" style="stroke:#800;stroke-width:10;stroke-opacity:1.000000;stroke-linecap:round"/>
  <g transform="translate(-635,44) rotate(0)" > <text font-size="100.0" fill="#800" font-family="monospace"  >
   12
  </text> </g> 
  <g transform="translate(-382,90) rotate(0)" > <text font-size="100.0" fill="#088" font-family="monospace"  >
   I7
  </text> </g> 
  <circle cx="-700" cy="50" r="10"
    style="fill:none;stroke:#800;stroke-width:2"  />
  <line x1="-700" y1="-50" x2="-400" y2="-50" style="stroke:#800;stroke-width:10;stroke-opacity:1.000000;stroke-linecap:round"/>
  <g transform="translate(-635,-56) rotate(0)" > <text font-size="100.0" fill="#800" font-family="monospace"  >
   13
  </text> </g> 
  <g transform="translate(-382,-10) rotate(0)" > <text font-size="100.0" fill="#088" font-family="monospace"  >
   I6
  </text> </g> 
  <circle cx="-700" cy="-50" r="10"
    style="fill:none;stroke:#800;stroke-width:2"  />
  <line x1="-700" y1="-150" x2="-400" y2="-150" style="stroke:#800;stroke-width:10;stroke-opacity:1.000000;stroke-linecap:round"/>
  <g transform="translate(-635,-156) rotate(0)" > <text font-size="100.0" fill="#800" font-family="monospace"  >
   14
  </text> </g> 
  <g transform="translate(-382,-110) rotate(0)" > <text font-size="100.0" fill="#088" font-family="monospace"  >
   I5
  </text> </g> 
  <circle cx="-700" cy="-150" r="10"
    style="fill:none;stroke:#800;stroke-width:2"  />
  <line x1="-700" y1="-250" x2="-400" y2="-250" style="stroke:#800;stroke-width:10;stroke-opacity:1.000000;stroke-linecap:round"/>
  <g transform="translate(-635,-256) rotate(0)" > <text font-size="100.0" fill="#800" font-family="monospace"  >
   15
  </text> </g> 
  <g transform="translate(-382,-210) rotate(0)" > <text font-size="100.0" fill="#088" font-family="monospace"  >
   I4
  </text> </g> 
  <circle cx="-700" cy="-250" r="10"
    style="fill:none;stroke:#800;stroke-width:2"  />
 </g>
</svg>
