<?xml version="1.0"?>
<svg height="290" width="290"  >
 <g style="fill-opacity:1.0; stroke:black;
  stroke-width:1;" transform=" translate( 145.0,145.0 ) scale( 0.15,0.15 )">
  <g transform="translate(-30,-70) rotate(0)" > <text font-size="100.0" fill="#088" font-family="monospace"  >
   U
  </text> </g> 
  <g transform="translate(-210,130) rotate(0)" > <text font-size="100.0" fill="#088" font-family="monospace"  >
   74LS112
  </text> </g> 
  <rect x="-350" y="-400" height="800"
    width="700" style="fill:none;stroke:#800;stroke-width:10" />
  <g transform="translate(-265,415) rotate(-90)" > <text font-size="100.0" fill="#888" font-family="monospace"  >
   8
  </text> </g> 
  <g transform="translate(-242,350) rotate(-90)" > <text font-size="100.0" fill="#888" font-family="monospace"  >
   GND
  </text> </g> 
  <circle cx="-250" cy="400" r="10"
    style="fill:none;stroke:#888;stroke-width:2"  />
  <g transform="translate(-265,-370) rotate(-90)" > <text font-size="100.0" fill="#888" font-family="monospace"  >
   16
  </text> </g> 
  <g transform="translate(-242,-450) rotate(-90)" > <text font-size="100.0" fill="#888" font-family="monospace"  >
   VCC
  </text> </g> 
  <circle cx="-250" cy="-400" r="10"
    style="fill:none;stroke:#888;stroke-width:2"  />
  <line x1="-310" y1="0" x2="-350" y2="40" style="stroke:#800;stroke-width:10;stroke-opacity:1.000000;stroke-linecap:round"/>
  <line x1="-350" y1="40" x2="-350" y2="-40" style="stroke:#800;stroke-width:10;stroke-opacity:1.000000;stroke-linecap:round"/>
  <line x1="-350" y1="-40" x2="-310" y2="0" style="stroke:#800;stroke-width:10;stroke-opacity:1.000000;stroke-linecap:round"/>
  <line x1="-650" y1="0" x2="-420" y2="0" style="stroke:#800;stroke-width:10;stroke-opacity:1.000000;stroke-linecap:round"/>
  <circle cx="-385" cy="0" r="35"
    style="fill:none;stroke:#800;stroke-width:10"  />
  <g transform="translate(-542,-6) rotate(0)" > <text font-size="100.0" fill="#800" font-family="monospace"  >
   1
  </text> </g> 
  <g transform="translate(-332,40) rotate(0)" > <text font-size="100.0" fill="#088" font-family="monospace"  >
   Cp
  </text> </g> 
  <circle cx="-650" cy="0" r="10"
    style="fill:none;stroke:#800;stroke-width:2"  />
  <line x1="-650" y1="250" x2="-350" y2="250" style="stroke:#800;stroke-width:10;stroke-opacity:1.000000;stroke-linecap:round"/>
  <g transform="translate(-542,244) rotate(0)" > <text font-size="100.0" fill="#800" font-family="monospace"  >
   2
  </text> </g> 
  <g transform="translate(-332,290) rotate(0)" > <text font-size="100.0" fill="#088" font-family="monospace"  >
   K
  </text> </g> 
  <circle cx="-650" cy="250" r="10"
    style="fill:none;stroke:#800;stroke-width:2"  />
  <line x1="-650" y1="-250" x2="-350" y2="-250" style="stroke:#800;stroke-width:10;stroke-opacity:1.000000;stroke-linecap:round"/>
  <g transform="translate(-542,-256) rotate(0)" > <text font-size="100.0" fill="#800" font-family="monospace"  >
   3
  </text> </g> 
  <g transform="translate(-332,-210) rotate(0)" > <text font-size="100.0" fill="#088" font-family="monospace"  >
   J
  </text> </g> 
  <circle cx="-650" cy="-250" r="10"
    style="fill:none;stroke:#800;stroke-width:2"  />
  <line x1="0" y1="-700" x2="0" y2="-470" style="stroke:#800;stroke-width:10;stroke-opacity:1.000000;stroke-linecap:round"/>
  <circle cx="0" cy="-435" r="35"
    style="fill:none;stroke:#800;stroke-width:10"  />
  <g transform="translate(-15,-535) rotate(-90)" > <text font-size="100.0" fill="#800" font-family="monospace"  >
   4
  </text> </g> 
  <g transform="translate(7,-230) rotate(-90)" > <text font-size="100.0" fill="#088" font-family="monospace"  >
   Sd
  </text> </g> 
  <circle cx="0" cy="-700" r="10"
    style="fill:none;stroke:#800;stroke-width:2"  />
  <line x1="650" y1="-250" x2="350" y2="-250" style="stroke:#800;stroke-width:10;stroke-opacity:1.000000;stroke-linecap:round"/>
  <g transform="translate(457,-256) rotate(0)" > <text font-size="100.0" fill="#800" font-family="monospace"  >
   5
  </text> </g> 
  <g transform="translate(250,-210) rotate(0)" > <text font-size="100.0" fill="#088" font-family="monospace"  >
   Q
  </text> </g> 
  <circle cx="650" cy="-250" r="10"
    style="fill:none;stroke:#800;stroke-width:2"  />
  <line x1="650" y1="250" x2="420" y2="250" style="stroke:#800;stroke-width:10;stroke-opacity:1.000000;stroke-linecap:round"/>
  <circle cx="385" cy="250" r="35"
    style="fill:none;stroke:#800;stroke-width:10"  />
  <g transform="translate(457,244) rotate(0)" > <text font-size="100.0" fill="#800" font-family="monospace"  >
   6
  </text> </g> 
  <g transform="translate(190,290) rotate(0)" > <text font-size="100.0" fill="#088" font-family="monospace"  >
   ~Q
  </text> </g> 
  <circle cx="650" cy="250" r="10"
    style="fill:none;stroke:#800;stroke-width:2"  />
  <line x1="0" y1="700" x2="0" y2="470" style="stroke:#800;stroke-width:10;stroke-opacity:1.000000;stroke-linecap:round"/>
  <circle cx="0" cy="435" r="35"
    style="fill:none;stroke:#800;stroke-width:10"  />
  <g transform="translate(-15,580) rotate(-90)" > <text font-size="100.0" fill="#800" font-family="monospace"  >
   15
  </text> </g> 
  <g transform="translate(7,350) rotate(-90)" > <text font-size="100.0" fill="#088" font-family="monospace"  >
   Cd
  </text> </g> 
  <circle cx="0" cy="700" r="10"
    style="fill:none;stroke:#800;stroke-width:2"  />
 </g>
</svg>
