<?xml version="1.0"?>
<svg height="320" width="320"  >
 <g style="fill-opacity:1.0; stroke:black;
  stroke-width:1;" transform=" translate( 160.0,160.0 ) scale( 0.15,0.15 )">
  <g transform="translate(-30,80) rotate(0)" > <text font-size="100.0" fill="#088" font-family="monospace"  >
   U
  </text> </g> 
  <g transform="translate(-210,280) rotate(0)" > <text font-size="100.0" fill="#088" font-family="monospace"  >
   74LS398
  </text> </g> 
  <g transform="translate(-315,580) rotate(-90)" > <text font-size="100.0" fill="#888" font-family="monospace"  >
   10
  </text> </g> 
  <g transform="translate(-292,500) rotate(-90)" > <text font-size="100.0" fill="#888" font-family="monospace"  >
   GND
  </text> </g> 
  <circle cx="-300" cy="550" r="10"
    style="fill:none;stroke:#888;stroke-width:2"  />
  <g transform="translate(-315,-470) rotate(-90)" > <text font-size="100.0" fill="#888" font-family="monospace"  >
   20
  </text> </g> 
  <g transform="translate(-292,-550) rotate(-90)" > <text font-size="100.0" fill="#888" font-family="monospace"  >
   VCC
  </text> </g> 
  <circle cx="-300" cy="-500" r="10"
    style="fill:none;stroke:#888;stroke-width:2"  />
  <rect x="-400" y="-500" height="1050"
    width="800" style="fill:none;stroke:#800;stroke-width:10" />
  <line x1="700" y1="-450" x2="400" y2="-450" style="stroke:#800;stroke-width:10;stroke-opacity:1.000000;stroke-linecap:round"/>
  <g transform="translate(507,-456) rotate(0)" > <text font-size="100.0" fill="#800" font-family="monospace"  >
   2
  </text> </g> 
  <g transform="translate(240,-410) rotate(0)" > <text font-size="100.0" fill="#088" font-family="monospace"  >
   Qa
  </text> </g> 
  <circle cx="700" cy="-450" r="10"
    style="fill:none;stroke:#800;stroke-width:2"  />
  <line x1="700" y1="-350" x2="470" y2="-350" style="stroke:#800;stroke-width:10;stroke-opacity:1.000000;stroke-linecap:round"/>
  <circle cx="435" cy="-350" r="35"
    style="fill:none;stroke:#800;stroke-width:10"  />
  <g transform="translate(507,-356) rotate(0)" > <text font-size="100.0" fill="#800" font-family="monospace"  >
   3
  </text> </g> 
  <g transform="translate(180,-310) rotate(0)" > <text font-size="100.0" fill="#088" font-family="monospace"  >
   ~QA
  </text> </g> 
  <circle cx="700" cy="-350" r="10"
    style="fill:none;stroke:#800;stroke-width:2"  />
  <line x1="-700" y1="-450" x2="-400" y2="-450" style="stroke:#800;stroke-width:10;stroke-opacity:1.000000;stroke-linecap:round"/>
  <g transform="translate(-592,-456) rotate(0)" > <text font-size="100.0" fill="#800" font-family="monospace"  >
   4
  </text> </g> 
  <g transform="translate(-382,-410) rotate(0)" > <text font-size="100.0" fill="#088" font-family="monospace"  >
   I0a
  </text> </g> 
  <circle cx="-700" cy="-450" r="10"
    style="fill:none;stroke:#800;stroke-width:2"  />
  <line x1="-700" y1="-350" x2="-400" y2="-350" style="stroke:#800;stroke-width:10;stroke-opacity:1.000000;stroke-linecap:round"/>
  <g transform="translate(-592,-356) rotate(0)" > <text font-size="100.0" fill="#800" font-family="monospace"  >
   5
  </text> </g> 
  <g transform="translate(-382,-310) rotate(0)" > <text font-size="100.0" fill="#088" font-family="monospace"  >
   I1a
  </text> </g> 
  <circle cx="-700" cy="-350" r="10"
    style="fill:none;stroke:#800;stroke-width:2"  />
  <line x1="-700" y1="-150" x2="-400" y2="-150" style="stroke:#800;stroke-width:10;stroke-opacity:1.000000;stroke-linecap:round"/>
  <g transform="translate(-592,-156) rotate(0)" > <text font-size="100.0" fill="#800" font-family="monospace"  >
   6
  </text> </g> 
  <g transform="translate(-382,-110) rotate(0)" > <text font-size="100.0" fill="#088" font-family="monospace"  >
   I1b
  </text> </g> 
  <circle cx="-700" cy="-150" r="10"
    style="fill:none;stroke:#800;stroke-width:2"  />
  <line x1="-700" y1="-250" x2="-400" y2="-250" style="stroke:#800;stroke-width:10;stroke-opacity:1.000000;stroke-linecap:round"/>
  <g transform="translate(-592,-256) rotate(0)" > <text font-size="100.0" fill="#800" font-family="monospace"  >
   7
  </text> </g> 
  <g transform="translate(-382,-210) rotate(0)" > <text font-size="100.0" fill="#088" font-family="monospace"  >
   I0b
  </text> </g> 
  <circle cx="-700" cy="-250" r="10"
    style="fill:none;stroke:#800;stroke-width:2"  />
  <line x1="700" y1="-150" x2="470" y2="-150" style="stroke:#800;stroke-width:10;stroke-opacity:1.000000;stroke-linecap:round"/>
  <circle cx="435" cy="-150" r="35"
    style="fill:none;stroke:#800;stroke-width:10"  />
  <g transform="translate(507,-156) rotate(0)" > <text font-size="100.0" fill="#800" font-family="monospace"  >
   8
  </text> </g> 
  <g transform="translate(180,-110) rotate(0)" > <text font-size="100.0" fill="#088" font-family="monospace"  >
   ~Qb
  </text> </g> 
  <circle cx="700" cy="-150" r="10"
    style="fill:none;stroke:#800;stroke-width:2"  />
  <line x1="700" y1="-250" x2="400" y2="-250" style="stroke:#800;stroke-width:10;stroke-opacity:1.000000;stroke-linecap:round"/>
  <g transform="translate(507,-256) rotate(0)" > <text font-size="100.0" fill="#800" font-family="monospace"  >
   9
  </text> </g> 
  <g transform="translate(240,-210) rotate(0)" > <text font-size="100.0" fill="#088" font-family="monospace"  >
   Qb
  </text> </g> 
  <circle cx="700" cy="-250" r="10"
    style="fill:none;stroke:#800;stroke-width:2"  />
  <line x1="-700" y1="400" x2="-400" y2="400" style="stroke:#800;stroke-width:10;stroke-opacity:1.000000;stroke-linecap:round"/>
  <g transform="translate(-635,394) rotate(0)" > <text font-size="100.0" fill="#800" font-family="monospace"  >
   10
  </text> </g> 
  <g transform="translate(-382,440) rotate(0)" > <text font-size="100.0" fill="#088" font-family="monospace"  >
   S
  </text> </g> 
  <circle cx="-700" cy="400" r="10"
    style="fill:none;stroke:#800;stroke-width:2"  />
  <line x1="-360" y1="500" x2="-400" y2="540" style="stroke:#800;stroke-width:10;stroke-opacity:1.000000;stroke-linecap:round"/>
  <line x1="-400" y1="540" x2="-400" y2="460" style="stroke:#800;stroke-width:10;stroke-opacity:1.000000;stroke-linecap:round"/>
  <line x1="-400" y1="460" x2="-360" y2="500" style="stroke:#800;stroke-width:10;stroke-opacity:1.000000;stroke-linecap:round"/>
  <line x1="-700" y1="500" x2="-400" y2="500" style="stroke:#800;stroke-width:10;stroke-opacity:1.000000;stroke-linecap:round"/>
  <g transform="translate(-635,494) rotate(0)" > <text font-size="100.0" fill="#800" font-family="monospace"  >
   11
  </text> </g> 
  <g transform="translate(-382,540) rotate(0)" > <text font-size="100.0" fill="#088" font-family="monospace"  >
   Cp
  </text> </g> 
  <circle cx="-700" cy="500" r="10"
    style="fill:none;stroke:#800;stroke-width:2"  />
  <line x1="700" y1="-50" x2="400" y2="-50" style="stroke:#800;stroke-width:10;stroke-opacity:1.000000;stroke-linecap:round"/>
  <g transform="translate(465,-56) rotate(0)" > <text font-size="100.0" fill="#800" font-family="monospace"  >
   12
  </text> </g> 
  <g transform="translate(240,-10) rotate(0)" > <text font-size="100.0" fill="#088" font-family="monospace"  >
   Qc
  </text> </g> 
  <circle cx="700" cy="-50" r="10"
    style="fill:none;stroke:#800;stroke-width:2"  />
  <line x1="700" y1="50" x2="470" y2="50" style="stroke:#800;stroke-width:10;stroke-opacity:1.000000;stroke-linecap:round"/>
  <circle cx="435" cy="50" r="35"
    style="fill:none;stroke:#800;stroke-width:10"  />
  <g transform="translate(465,44) rotate(0)" > <text font-size="100.0" fill="#800" font-family="monospace"  >
   13
  </text> </g> 
  <g transform="translate(180,90) rotate(0)" > <text font-size="100.0" fill="#088" font-family="monospace"  >
   ~Qc
  </text> </g> 
  <circle cx="700" cy="50" r="10"
    style="fill:none;stroke:#800;stroke-width:2"  />
  <line x1="-700" y1="-50" x2="-400" y2="-50" style="stroke:#800;stroke-width:10;stroke-opacity:1.000000;stroke-linecap:round"/>
  <g transform="translate(-635,-56) rotate(0)" > <text font-size="100.0" fill="#800" font-family="monospace"  >
   14
  </text> </g> 
  <g transform="translate(-382,-10) rotate(0)" > <text font-size="100.0" fill="#088" font-family="monospace"  >
   I0c
  </text> </g> 
  <circle cx="-700" cy="-50" r="10"
    style="fill:none;stroke:#800;stroke-width:2"  />
  <line x1="-700" y1="50" x2="-400" y2="50" style="stroke:#800;stroke-width:10;stroke-opacity:1.000000;stroke-linecap:round"/>
  <g transform="translate(-635,44) rotate(0)" > <text font-size="100.0" fill="#800" font-family="monospace"  >
   15
  </text> </g> 
  <g transform="translate(-382,90) rotate(0)" > <text font-size="100.0" fill="#088" font-family="monospace"  >
   I1c
  </text> </g> 
  <circle cx="-700" cy="50" r="10"
    style="fill:none;stroke:#800;stroke-width:2"  />
  <line x1="-700" y1="250" x2="-400" y2="250" style="stroke:#800;stroke-width:10;stroke-opacity:1.000000;stroke-linecap:round"/>
  <g transform="translate(-635,244) rotate(0)" > <text font-size="100.0" fill="#800" font-family="monospace"  >
   16
  </text> </g> 
  <g transform="translate(-382,290) rotate(0)" > <text font-size="100.0" fill="#088" font-family="monospace"  >
   I1d
  </text> </g> 
  <circle cx="-700" cy="250" r="10"
    style="fill:none;stroke:#800;stroke-width:2"  />
  <line x1="-700" y1="150" x2="-400" y2="150" style="stroke:#800;stroke-width:10;stroke-opacity:1.000000;stroke-linecap:round"/>
  <g transform="translate(-635,144) rotate(0)" > <text font-size="100.0" fill="#800" font-family="monospace"  >
   17
  </text> </g> 
  <g transform="translate(-382,190) rotate(0)" > <text font-size="100.0" fill="#088" font-family="monospace"  >
   I0d
  </text> </g> 
  <circle cx="-700" cy="150" r="10"
    style="fill:none;stroke:#800;stroke-width:2"  />
  <line x1="700" y1="250" x2="470" y2="250" style="stroke:#800;stroke-width:10;stroke-opacity:1.000000;stroke-linecap:round"/>
  <circle cx="435" cy="250" r="35"
    style="fill:none;stroke:#800;stroke-width:10"  />
  <g transform="translate(465,244) rotate(0)" > <text font-size="100.0" fill="#800" font-family="monospace"  >
   18
  </text> </g> 
  <g transform="translate(180,290) rotate(0)" > <text font-size="100.0" fill="#088" font-family="monospace"  >
   ~Qd
  </text> </g> 
  <circle cx="700" cy="250" r="10"
    style="fill:none;stroke:#800;stroke-width:2"  />
  <line x1="700" y1="150" x2="400" y2="150" style="stroke:#800;stroke-width:10;stroke-opacity:1.000000;stroke-linecap:round"/>
  <g transform="translate(465,144) rotate(0)" > <text font-size="100.0" fill="#800" font-family="monospace"  >
   19
  </text> </g> 
  <g transform="translate(240,190) rotate(0)" > <text font-size="100.0" fill="#088" font-family="monospace"  >
   Qd
  </text> </g> 
  <circle cx="700" cy="150" r="10"
    style="fill:none;stroke:#800;stroke-width:2"  />
 </g>
</svg>
