<?xml version="1.0"?>
<svg height="309" width="305"  >
 <g style="fill-opacity:1.0; stroke:black;
  stroke-width:1;" transform=" translate( 152.5,154.75 ) scale( 0.15,0.15 )">
  <g transform="translate(70,30) rotate(0)" > <text font-size="100.0" fill="#088" font-family="monospace"  >
   U
  </text> </g> 
  <g transform="translate(-110,230) rotate(0)" > <text font-size="100.0" fill="#088" font-family="monospace"  >
   74LS196
  </text> </g> 
  <g transform="translate(-307,507) rotate(-90)" > <text font-size="50.0" fill="#888" font-family="monospace"  >
   7
  </text> </g> 
  <g transform="translate(-296,475) rotate(-90)" > <text font-size="50.0" fill="#888" font-family="monospace"  >
   GND
  </text> </g> 
  <circle cx="-300" cy="500" r="10"
    style="fill:none;stroke:#888;stroke-width:2"  />
  <g transform="translate(-307,-485) rotate(-90)" > <text font-size="50.0" fill="#888" font-family="monospace"  >
   14
  </text> </g> 
  <g transform="translate(-296,-525) rotate(-90)" > <text font-size="50.0" fill="#888" font-family="monospace"  >
   VCC
  </text> </g> 
  <circle cx="-300" cy="-500" r="10"
    style="fill:none;stroke:#888;stroke-width:2"  />
  <rect x="-400" y="-500" height="1000"
    width="800" style="fill:none;stroke:#800;stroke-width:10" />
  <line x1="-700" y1="50" x2="-470" y2="50" style="stroke:#800;stroke-width:10;stroke-opacity:1.000000;stroke-linecap:round"/>
  <circle cx="-435" cy="50" r="35"
    style="fill:none;stroke:#800;stroke-width:10"  />
  <g transform="translate(-592,44) rotate(0)" > <text font-size="100.0" fill="#800" font-family="monospace"  >
   1
  </text> </g> 
  <g transform="translate(-382,90) rotate(0)" > <text font-size="100.0" fill="#088" font-family="monospace"  >
   Pl
  </text> </g> 
  <circle cx="-700" cy="50" r="10"
    style="fill:none;stroke:#800;stroke-width:2"  />
  <line x1="700" y1="-250" x2="400" y2="-250" style="stroke:#800;stroke-width:10;stroke-opacity:1.000000;stroke-linecap:round"/>
  <g transform="translate(507,-256) rotate(0)" > <text font-size="100.0" fill="#800" font-family="monospace"  >
   2
  </text> </g> 
  <g transform="translate(240,-210) rotate(0)" > <text font-size="100.0" fill="#088" font-family="monospace"  >
   Q2
  </text> </g> 
  <circle cx="700" cy="-250" r="10"
    style="fill:none;stroke:#800;stroke-width:2"  />
  <line x1="-700" y1="-250" x2="-400" y2="-250" style="stroke:#800;stroke-width:10;stroke-opacity:1.000000;stroke-linecap:round"/>
  <g transform="translate(-592,-256) rotate(0)" > <text font-size="100.0" fill="#800" font-family="monospace"  >
   3
  </text> </g> 
  <g transform="translate(-382,-210) rotate(0)" > <text font-size="100.0" fill="#088" font-family="monospace"  >
   P2
  </text> </g> 
  <circle cx="-700" cy="-250" r="10"
    style="fill:none;stroke:#800;stroke-width:2"  />
  <line x1="-700" y1="-450" x2="-400" y2="-450" style="stroke:#800;stroke-width:10;stroke-opacity:1.000000;stroke-linecap:round"/>
  <g transform="translate(-592,-456) rotate(0)" > <text font-size="100.0" fill="#800" font-family="monospace"  >
   4
  </text> </g> 
  <g transform="translate(-382,-410) rotate(0)" > <text font-size="100.0" fill="#088" font-family="monospace"  >
   P0
  </text> </g> 
  <circle cx="-700" cy="-450" r="10"
    style="fill:none;stroke:#800;stroke-width:2"  />
  <line x1="700" y1="-450" x2="400" y2="-450" style="stroke:#800;stroke-width:10;stroke-opacity:1.000000;stroke-linecap:round"/>
  <g transform="translate(507,-456) rotate(0)" > <text font-size="100.0" fill="#800" font-family="monospace"  >
   5
  </text> </g> 
  <g transform="translate(240,-410) rotate(0)" > <text font-size="100.0" fill="#088" font-family="monospace"  >
   Q0
  </text> </g> 
  <circle cx="700" cy="-450" r="10"
    style="fill:none;stroke:#800;stroke-width:2"  />
  <line x1="-360" y1="300" x2="-400" y2="340" style="stroke:#800;stroke-width:10;stroke-opacity:1.000000;stroke-linecap:round"/>
  <line x1="-400" y1="340" x2="-400" y2="260" style="stroke:#800;stroke-width:10;stroke-opacity:1.000000;stroke-linecap:round"/>
  <line x1="-400" y1="260" x2="-360" y2="300" style="stroke:#800;stroke-width:10;stroke-opacity:1.000000;stroke-linecap:round"/>
  <line x1="-700" y1="300" x2="-470" y2="300" style="stroke:#800;stroke-width:10;stroke-opacity:1.000000;stroke-linecap:round"/>
  <circle cx="-435" cy="300" r="35"
    style="fill:none;stroke:#800;stroke-width:10"  />
  <g transform="translate(-592,294) rotate(0)" > <text font-size="100.0" fill="#800" font-family="monospace"  >
   6
  </text> </g> 
  <g transform="translate(-382,340) rotate(0)" > <text font-size="100.0" fill="#088" font-family="monospace"  >
   Cp1
  </text> </g> 
  <circle cx="-700" cy="300" r="10"
    style="fill:none;stroke:#800;stroke-width:2"  />
  <line x1="-360" y1="200" x2="-400" y2="240" style="stroke:#800;stroke-width:10;stroke-opacity:1.000000;stroke-linecap:round"/>
  <line x1="-400" y1="240" x2="-400" y2="160" style="stroke:#800;stroke-width:10;stroke-opacity:1.000000;stroke-linecap:round"/>
  <line x1="-400" y1="160" x2="-360" y2="200" style="stroke:#800;stroke-width:10;stroke-opacity:1.000000;stroke-linecap:round"/>
  <line x1="-700" y1="200" x2="-470" y2="200" style="stroke:#800;stroke-width:10;stroke-opacity:1.000000;stroke-linecap:round"/>
  <circle cx="-435" cy="200" r="35"
    style="fill:none;stroke:#800;stroke-width:10"  />
  <g transform="translate(-592,194) rotate(0)" > <text font-size="100.0" fill="#800" font-family="monospace"  >
   8
  </text> </g> 
  <g transform="translate(-382,240) rotate(0)" > <text font-size="100.0" fill="#088" font-family="monospace"  >
   Cp0
  </text> </g> 
  <circle cx="-700" cy="200" r="10"
    style="fill:none;stroke:#800;stroke-width:2"  />
  <line x1="700" y1="-350" x2="400" y2="-350" style="stroke:#800;stroke-width:10;stroke-opacity:1.000000;stroke-linecap:round"/>
  <g transform="translate(507,-356) rotate(0)" > <text font-size="100.0" fill="#800" font-family="monospace"  >
   9
  </text> </g> 
  <g transform="translate(240,-310) rotate(0)" > <text font-size="100.0" fill="#088" font-family="monospace"  >
   Q1
  </text> </g> 
  <circle cx="700" cy="-350" r="10"
    style="fill:none;stroke:#800;stroke-width:2"  />
  <line x1="-700" y1="-350" x2="-400" y2="-350" style="stroke:#800;stroke-width:10;stroke-opacity:1.000000;stroke-linecap:round"/>
  <g transform="translate(-635,-356) rotate(0)" > <text font-size="100.0" fill="#800" font-family="monospace"  >
   10
  </text> </g> 
  <g transform="translate(-382,-310) rotate(0)" > <text font-size="100.0" fill="#088" font-family="monospace"  >
   P1
  </text> </g> 
  <circle cx="-700" cy="-350" r="10"
    style="fill:none;stroke:#800;stroke-width:2"  />
  <line x1="-700" y1="-150" x2="-400" y2="-150" style="stroke:#800;stroke-width:10;stroke-opacity:1.000000;stroke-linecap:round"/>
  <g transform="translate(-635,-156) rotate(0)" > <text font-size="100.0" fill="#800" font-family="monospace"  >
   11
  </text> </g> 
  <g transform="translate(-382,-110) rotate(0)" > <text font-size="100.0" fill="#088" font-family="monospace"  >
   P3
  </text> </g> 
  <circle cx="-700" cy="-150" r="10"
    style="fill:none;stroke:#800;stroke-width:2"  />
  <line x1="700" y1="-150" x2="400" y2="-150" style="stroke:#800;stroke-width:10;stroke-opacity:1.000000;stroke-linecap:round"/>
  <g transform="translate(465,-156) rotate(0)" > <text font-size="100.0" fill="#800" font-family="monospace"  >
   12
  </text> </g> 
  <g transform="translate(240,-110) rotate(0)" > <text font-size="100.0" fill="#088" font-family="monospace"  >
   Q3
  </text> </g> 
  <circle cx="700" cy="-150" r="10"
    style="fill:none;stroke:#800;stroke-width:2"  />
  <line x1="-700" y1="450" x2="-470" y2="450" style="stroke:#800;stroke-width:10;stroke-opacity:1.000000;stroke-linecap:round"/>
  <circle cx="-435" cy="450" r="35"
    style="fill:none;stroke:#800;stroke-width:10"  />
  <g transform="translate(-635,444) rotate(0)" > <text font-size="100.0" fill="#800" font-family="monospace"  >
   13
  </text> </g> 
  <g transform="translate(-382,490) rotate(0)" > <text font-size="100.0" fill="#088" font-family="monospace"  >
   Mr
  </text> </g> 
  <circle cx="-700" cy="450" r="10"
    style="fill:none;stroke:#800;stroke-width:2"  />
 </g>
</svg>
